G04 (created by PCBNEW (22-Jun-2014 BZR 4027)-stable) date Fri 29 Dec 2017 01:44:44 PM CST*
%MOIN*%
G04 Gerber Fmt 3.4, Leading zero omitted, Abs format*
%FSLAX34Y34*%
G01*
G70*
G90*
G04 APERTURE LIST*
%ADD10C,0.00590551*%
%ADD11C,0.008*%
%ADD12C,0.006*%
%ADD13C,0.00787402*%
%ADD14C,0.007*%
%ADD15C,0.02*%
%ADD16C,0.01*%
%ADD17C,0.005*%
%ADD18C,0.0001*%
G04 APERTURE END LIST*
G54D10*
G54D11*
X92647Y-36752D02*
X92704Y-36771D01*
X92723Y-36790D01*
X92742Y-36828D01*
X92742Y-36885D01*
X92723Y-36923D01*
X92704Y-36942D01*
X92666Y-36961D01*
X92514Y-36961D01*
X92514Y-36561D01*
X92647Y-36561D01*
X92685Y-36580D01*
X92704Y-36600D01*
X92723Y-36638D01*
X92723Y-36676D01*
X92704Y-36714D01*
X92685Y-36733D01*
X92647Y-36752D01*
X92514Y-36752D01*
X92914Y-36561D02*
X92914Y-36885D01*
X92933Y-36923D01*
X92952Y-36942D01*
X92990Y-36961D01*
X93066Y-36961D01*
X93104Y-36942D01*
X93123Y-36923D01*
X93142Y-36885D01*
X93142Y-36561D01*
X93466Y-36752D02*
X93333Y-36752D01*
X93333Y-36961D02*
X93333Y-36561D01*
X93523Y-36561D01*
G54D12*
X79392Y-41092D02*
X79378Y-41107D01*
X79335Y-41121D01*
X79307Y-41121D01*
X79264Y-41107D01*
X79235Y-41078D01*
X79221Y-41050D01*
X79207Y-40992D01*
X79207Y-40950D01*
X79221Y-40892D01*
X79235Y-40864D01*
X79264Y-40835D01*
X79307Y-40821D01*
X79335Y-40821D01*
X79378Y-40835D01*
X79392Y-40850D01*
X79521Y-41121D02*
X79521Y-40821D01*
X79521Y-40964D02*
X79692Y-40964D01*
X79692Y-41121D02*
X79692Y-40821D01*
X79821Y-41035D02*
X79964Y-41035D01*
X79792Y-41121D02*
X79892Y-40821D01*
X79992Y-41121D01*
X80078Y-41107D02*
X80121Y-41121D01*
X80192Y-41121D01*
X80221Y-41107D01*
X80235Y-41092D01*
X80250Y-41064D01*
X80250Y-41035D01*
X80235Y-41007D01*
X80221Y-40992D01*
X80192Y-40978D01*
X80135Y-40964D01*
X80107Y-40950D01*
X80092Y-40935D01*
X80078Y-40907D01*
X80078Y-40878D01*
X80092Y-40850D01*
X80107Y-40835D01*
X80135Y-40821D01*
X80207Y-40821D01*
X80250Y-40835D01*
X80364Y-41107D02*
X80407Y-41121D01*
X80478Y-41121D01*
X80507Y-41107D01*
X80521Y-41092D01*
X80535Y-41064D01*
X80535Y-41035D01*
X80521Y-41007D01*
X80507Y-40992D01*
X80478Y-40978D01*
X80421Y-40964D01*
X80392Y-40950D01*
X80378Y-40935D01*
X80364Y-40907D01*
X80364Y-40878D01*
X80378Y-40850D01*
X80392Y-40835D01*
X80421Y-40821D01*
X80492Y-40821D01*
X80535Y-40835D01*
X80664Y-41121D02*
X80664Y-40821D01*
X80792Y-41107D02*
X80835Y-41121D01*
X80907Y-41121D01*
X80935Y-41107D01*
X80950Y-41092D01*
X80964Y-41064D01*
X80964Y-41035D01*
X80950Y-41007D01*
X80935Y-40992D01*
X80907Y-40978D01*
X80850Y-40964D01*
X80821Y-40950D01*
X80807Y-40935D01*
X80792Y-40907D01*
X80792Y-40878D01*
X80807Y-40850D01*
X80821Y-40835D01*
X80850Y-40821D01*
X80921Y-40821D01*
X80964Y-40835D01*
X79378Y-39835D02*
X79350Y-39821D01*
X79307Y-39821D01*
X79264Y-39835D01*
X79235Y-39864D01*
X79221Y-39892D01*
X79207Y-39950D01*
X79207Y-39992D01*
X79221Y-40050D01*
X79235Y-40078D01*
X79264Y-40107D01*
X79307Y-40121D01*
X79335Y-40121D01*
X79378Y-40107D01*
X79392Y-40092D01*
X79392Y-39992D01*
X79335Y-39992D01*
X79521Y-40121D02*
X79521Y-39821D01*
X79692Y-40121D01*
X79692Y-39821D01*
X79835Y-40121D02*
X79835Y-39821D01*
X79907Y-39821D01*
X79950Y-39835D01*
X79978Y-39864D01*
X79992Y-39892D01*
X80007Y-39950D01*
X80007Y-39992D01*
X79992Y-40050D01*
X79978Y-40078D01*
X79950Y-40107D01*
X79907Y-40121D01*
X79835Y-40121D01*
G54D13*
X89150Y-32500D02*
G75*
G03X89150Y-32500I-3400J0D01*
G74*
G01*
G54D12*
X82514Y-39971D02*
X82342Y-39971D01*
X82428Y-39971D02*
X82428Y-39671D01*
X82400Y-39714D01*
X82371Y-39742D01*
X82342Y-39757D01*
X82642Y-39971D02*
X82642Y-39671D01*
X82671Y-39857D02*
X82757Y-39971D01*
X82757Y-39771D02*
X82642Y-39885D01*
X82500Y-39521D02*
X82400Y-39378D01*
X82328Y-39521D02*
X82328Y-39221D01*
X82442Y-39221D01*
X82471Y-39235D01*
X82485Y-39250D01*
X82500Y-39278D01*
X82500Y-39321D01*
X82485Y-39350D01*
X82471Y-39364D01*
X82442Y-39378D01*
X82328Y-39378D01*
X82771Y-39221D02*
X82628Y-39221D01*
X82614Y-39364D01*
X82628Y-39350D01*
X82657Y-39335D01*
X82728Y-39335D01*
X82757Y-39350D01*
X82771Y-39364D01*
X82785Y-39392D01*
X82785Y-39464D01*
X82771Y-39492D01*
X82757Y-39507D01*
X82728Y-39521D01*
X82657Y-39521D01*
X82628Y-39507D01*
X82614Y-39492D01*
X92792Y-26671D02*
X92864Y-26871D01*
X92935Y-26671D01*
X93035Y-26600D02*
X93050Y-26585D01*
X93078Y-26571D01*
X93150Y-26571D01*
X93178Y-26585D01*
X93192Y-26600D01*
X93207Y-26628D01*
X93207Y-26657D01*
X93192Y-26700D01*
X93021Y-26871D01*
X93207Y-26871D01*
X93335Y-26842D02*
X93349Y-26857D01*
X93335Y-26871D01*
X93321Y-26857D01*
X93335Y-26842D01*
X93335Y-26871D01*
X93464Y-26600D02*
X93478Y-26585D01*
X93507Y-26571D01*
X93578Y-26571D01*
X93607Y-26585D01*
X93621Y-26600D01*
X93635Y-26628D01*
X93635Y-26657D01*
X93621Y-26700D01*
X93449Y-26871D01*
X93635Y-26871D01*
G54D14*
X87864Y-27471D02*
X87721Y-27471D01*
X87721Y-27171D01*
X87921Y-27171D02*
X88092Y-27171D01*
X88007Y-27471D02*
X88007Y-27171D01*
X88164Y-27171D02*
X88364Y-27171D01*
X88164Y-27471D01*
X88364Y-27471D01*
X88635Y-27471D02*
X88464Y-27471D01*
X88549Y-27471D02*
X88549Y-27171D01*
X88521Y-27214D01*
X88492Y-27242D01*
X88464Y-27257D01*
X88821Y-27171D02*
X88849Y-27171D01*
X88878Y-27185D01*
X88892Y-27200D01*
X88907Y-27228D01*
X88921Y-27285D01*
X88921Y-27357D01*
X88907Y-27414D01*
X88892Y-27442D01*
X88878Y-27457D01*
X88849Y-27471D01*
X88821Y-27471D01*
X88792Y-27457D01*
X88778Y-27442D01*
X88764Y-27414D01*
X88749Y-27357D01*
X88749Y-27285D01*
X88764Y-27228D01*
X88778Y-27200D01*
X88792Y-27185D01*
X88821Y-27171D01*
X89107Y-27171D02*
X89135Y-27171D01*
X89164Y-27185D01*
X89178Y-27200D01*
X89192Y-27228D01*
X89207Y-27285D01*
X89207Y-27357D01*
X89192Y-27414D01*
X89178Y-27442D01*
X89164Y-27457D01*
X89135Y-27471D01*
X89107Y-27471D01*
X89078Y-27457D01*
X89064Y-27442D01*
X89049Y-27414D01*
X89035Y-27357D01*
X89035Y-27285D01*
X89049Y-27228D01*
X89064Y-27200D01*
X89078Y-27185D01*
X89107Y-27171D01*
X89392Y-27171D02*
X89421Y-27171D01*
X89449Y-27185D01*
X89464Y-27200D01*
X89478Y-27228D01*
X89492Y-27285D01*
X89492Y-27357D01*
X89478Y-27414D01*
X89464Y-27442D01*
X89449Y-27457D01*
X89421Y-27471D01*
X89392Y-27471D01*
X89364Y-27457D01*
X89349Y-27442D01*
X89335Y-27414D01*
X89321Y-27357D01*
X89321Y-27285D01*
X89335Y-27228D01*
X89349Y-27200D01*
X89364Y-27185D01*
X89392Y-27171D01*
X89821Y-27171D02*
X90021Y-27171D01*
X89892Y-27471D01*
X90092Y-27171D02*
X90192Y-27471D01*
X90292Y-27171D01*
X90621Y-27471D02*
X90621Y-27271D01*
X90621Y-27328D02*
X90635Y-27300D01*
X90649Y-27285D01*
X90678Y-27271D01*
X90707Y-27271D01*
X90921Y-27457D02*
X90892Y-27471D01*
X90835Y-27471D01*
X90807Y-27457D01*
X90792Y-27428D01*
X90792Y-27314D01*
X90807Y-27285D01*
X90835Y-27271D01*
X90892Y-27271D01*
X90921Y-27285D01*
X90935Y-27314D01*
X90935Y-27342D01*
X90792Y-27371D01*
X91021Y-27271D02*
X91135Y-27271D01*
X91064Y-27471D02*
X91064Y-27214D01*
X91078Y-27185D01*
X91107Y-27171D01*
X91135Y-27171D01*
X91349Y-27457D02*
X91321Y-27471D01*
X91264Y-27471D01*
X91235Y-27457D01*
X91221Y-27428D01*
X91221Y-27314D01*
X91235Y-27285D01*
X91264Y-27271D01*
X91321Y-27271D01*
X91349Y-27285D01*
X91364Y-27314D01*
X91364Y-27342D01*
X91221Y-27371D01*
X91492Y-27471D02*
X91492Y-27271D01*
X91492Y-27328D02*
X91507Y-27300D01*
X91521Y-27285D01*
X91549Y-27271D01*
X91578Y-27271D01*
X91792Y-27457D02*
X91764Y-27471D01*
X91707Y-27471D01*
X91678Y-27457D01*
X91664Y-27428D01*
X91664Y-27314D01*
X91678Y-27285D01*
X91707Y-27271D01*
X91764Y-27271D01*
X91792Y-27285D01*
X91807Y-27314D01*
X91807Y-27342D01*
X91664Y-27371D01*
X91935Y-27271D02*
X91935Y-27471D01*
X91935Y-27300D02*
X91949Y-27285D01*
X91978Y-27271D01*
X92021Y-27271D01*
X92049Y-27285D01*
X92064Y-27314D01*
X92064Y-27471D01*
X92335Y-27457D02*
X92307Y-27471D01*
X92249Y-27471D01*
X92221Y-27457D01*
X92207Y-27442D01*
X92192Y-27414D01*
X92192Y-27328D01*
X92207Y-27300D01*
X92221Y-27285D01*
X92249Y-27271D01*
X92307Y-27271D01*
X92335Y-27285D01*
X92578Y-27457D02*
X92549Y-27471D01*
X92492Y-27471D01*
X92464Y-27457D01*
X92449Y-27428D01*
X92449Y-27314D01*
X92464Y-27285D01*
X92492Y-27271D01*
X92549Y-27271D01*
X92578Y-27285D01*
X92592Y-27314D01*
X92592Y-27342D01*
X92449Y-27371D01*
G54D15*
X87738Y-26804D02*
X87738Y-25804D01*
X88119Y-25804D01*
X88214Y-25852D01*
X88261Y-25900D01*
X88309Y-25995D01*
X88309Y-26138D01*
X88261Y-26233D01*
X88214Y-26280D01*
X88119Y-26328D01*
X87738Y-26328D01*
X88642Y-25804D02*
X89309Y-26804D01*
X89309Y-25804D02*
X88642Y-26804D01*
X91023Y-26804D02*
X90690Y-26328D01*
X90452Y-26804D02*
X90452Y-25804D01*
X90833Y-25804D01*
X90928Y-25852D01*
X90976Y-25900D01*
X91023Y-25995D01*
X91023Y-26138D01*
X90976Y-26233D01*
X90928Y-26280D01*
X90833Y-26328D01*
X90452Y-26328D01*
X91833Y-26757D02*
X91738Y-26804D01*
X91547Y-26804D01*
X91452Y-26757D01*
X91404Y-26661D01*
X91404Y-26280D01*
X91452Y-26185D01*
X91547Y-26138D01*
X91738Y-26138D01*
X91833Y-26185D01*
X91880Y-26280D01*
X91880Y-26376D01*
X91404Y-26471D01*
X92166Y-26138D02*
X92547Y-26138D01*
X92309Y-26804D02*
X92309Y-25947D01*
X92357Y-25852D01*
X92452Y-25804D01*
X92547Y-25804D01*
G54D11*
X81780Y-43554D02*
X81761Y-43592D01*
X81761Y-43650D01*
X81780Y-43707D01*
X81819Y-43745D01*
X81857Y-43764D01*
X81933Y-43783D01*
X81990Y-43783D01*
X82066Y-43764D01*
X82104Y-43745D01*
X82142Y-43707D01*
X82161Y-43650D01*
X82161Y-43611D01*
X82142Y-43554D01*
X82123Y-43535D01*
X81990Y-43535D01*
X81990Y-43611D01*
X82161Y-43364D02*
X81761Y-43364D01*
X82161Y-43135D01*
X81761Y-43135D01*
X82161Y-42945D02*
X81761Y-42945D01*
X81761Y-42849D01*
X81780Y-42792D01*
X81819Y-42754D01*
X81857Y-42735D01*
X81933Y-42716D01*
X81990Y-42716D01*
X82066Y-42735D01*
X82104Y-42754D01*
X82142Y-42792D01*
X82161Y-42849D01*
X82161Y-42945D01*
X83161Y-43497D02*
X83161Y-43726D01*
X83161Y-43611D02*
X82761Y-43611D01*
X82819Y-43649D01*
X82857Y-43688D01*
X82876Y-43726D01*
X82761Y-43135D02*
X82761Y-43326D01*
X82952Y-43345D01*
X82933Y-43326D01*
X82914Y-43288D01*
X82914Y-43192D01*
X82933Y-43154D01*
X82952Y-43135D01*
X82990Y-43116D01*
X83085Y-43116D01*
X83123Y-43135D01*
X83142Y-43154D01*
X83161Y-43192D01*
X83161Y-43288D01*
X83142Y-43326D01*
X83123Y-43345D01*
X82761Y-43002D02*
X83161Y-42869D01*
X82761Y-42735D01*
X86164Y-37159D02*
X86469Y-37159D01*
X86602Y-36911D02*
X86735Y-37311D01*
X86869Y-36911D01*
X86964Y-37045D02*
X87173Y-37045D01*
X86964Y-37311D01*
X87173Y-37311D01*
X85264Y-26259D02*
X85569Y-26259D01*
X85416Y-26411D02*
X85416Y-26107D01*
X85702Y-26011D02*
X85835Y-26411D01*
X85969Y-26011D01*
X86064Y-26145D02*
X86273Y-26145D01*
X86064Y-26411D01*
X86273Y-26411D01*
G54D12*
X78471Y-36021D02*
X78300Y-36021D01*
X78385Y-36021D02*
X78385Y-35721D01*
X78357Y-35764D01*
X78328Y-35792D01*
X78300Y-35807D01*
X78571Y-35721D02*
X78757Y-35721D01*
X78657Y-35835D01*
X78700Y-35835D01*
X78728Y-35850D01*
X78742Y-35864D01*
X78757Y-35892D01*
X78757Y-35964D01*
X78742Y-35992D01*
X78728Y-36007D01*
X78700Y-36021D01*
X78614Y-36021D01*
X78585Y-36007D01*
X78571Y-35992D01*
X78885Y-36021D02*
X78885Y-35721D01*
X78914Y-35907D02*
X79000Y-36021D01*
X79000Y-35821D02*
X78885Y-35935D01*
X78600Y-35521D02*
X78500Y-35378D01*
X78428Y-35521D02*
X78428Y-35221D01*
X78542Y-35221D01*
X78571Y-35235D01*
X78585Y-35250D01*
X78600Y-35278D01*
X78600Y-35321D01*
X78585Y-35350D01*
X78571Y-35364D01*
X78542Y-35378D01*
X78428Y-35378D01*
X78857Y-35321D02*
X78857Y-35521D01*
X78785Y-35207D02*
X78714Y-35421D01*
X78900Y-35421D01*
G54D10*
X96250Y-42850D02*
X95400Y-42850D01*
X95400Y-42850D02*
X95400Y-44650D01*
X95400Y-44650D02*
X96250Y-44650D01*
X96250Y-44650D02*
G75*
G03X97150Y-43750I0J900D01*
G74*
G01*
X97150Y-43750D02*
G75*
G03X96250Y-42850I-900J0D01*
G74*
G01*
G54D16*
X92750Y-38250D02*
X92750Y-38650D01*
X92750Y-38650D02*
X93150Y-38650D01*
X93150Y-38650D02*
X93150Y-41850D01*
X93150Y-41850D02*
X92350Y-41850D01*
X92350Y-41850D02*
X92350Y-38650D01*
X92350Y-38650D02*
X92750Y-38650D01*
X92750Y-42250D02*
X92750Y-41850D01*
X93750Y-42250D02*
X93750Y-41850D01*
X93750Y-41850D02*
X93350Y-41850D01*
X93350Y-41850D02*
X93350Y-38650D01*
X93350Y-38650D02*
X94150Y-38650D01*
X94150Y-38650D02*
X94150Y-41850D01*
X94150Y-41850D02*
X93750Y-41850D01*
X93750Y-38250D02*
X93750Y-38650D01*
X83000Y-38000D02*
X83400Y-38000D01*
X83400Y-38000D02*
X83400Y-37600D01*
X83400Y-37600D02*
X86600Y-37600D01*
X86600Y-37600D02*
X86600Y-38400D01*
X86600Y-38400D02*
X83400Y-38400D01*
X83400Y-38400D02*
X83400Y-38000D01*
X87000Y-38000D02*
X86600Y-38000D01*
X83750Y-28250D02*
X84150Y-28250D01*
X84150Y-28250D02*
X84150Y-27850D01*
X84150Y-27850D02*
X87350Y-27850D01*
X87350Y-27850D02*
X87350Y-28650D01*
X87350Y-28650D02*
X84150Y-28650D01*
X84150Y-28650D02*
X84150Y-28250D01*
X87750Y-28250D02*
X87350Y-28250D01*
X81250Y-39750D02*
X80967Y-39467D01*
X80967Y-39467D02*
X80684Y-39750D01*
X80684Y-39750D02*
X78421Y-37487D01*
X78421Y-37487D02*
X78987Y-36921D01*
X78987Y-36921D02*
X81250Y-39184D01*
X81250Y-39184D02*
X80967Y-39467D01*
X78421Y-36921D02*
X78704Y-37204D01*
X87600Y-32500D02*
G75*
G03X87600Y-32500I-1850J0D01*
G74*
G01*
X87058Y-34161D02*
X86881Y-33984D01*
X87411Y-33808D02*
X87234Y-33631D01*
X87411Y-33808D02*
X87058Y-34161D01*
X90700Y-40250D02*
G75*
G03X91000Y-40550I300J0D01*
G74*
G01*
X91000Y-39950D02*
G75*
G03X90700Y-40250I0J-300D01*
G74*
G01*
X91000Y-41250D02*
X87000Y-41250D01*
X87000Y-41250D02*
X87000Y-39250D01*
X87000Y-39250D02*
X91000Y-39250D01*
X91000Y-39250D02*
X91000Y-41250D01*
X97500Y-27250D02*
G75*
G03X97500Y-27250I-1750J0D01*
G74*
G01*
X80292Y-35835D02*
X82414Y-37957D01*
X82414Y-37957D02*
X81707Y-38664D01*
X81707Y-38664D02*
X79585Y-36542D01*
X79585Y-36542D02*
X80292Y-35835D01*
X79409Y-37073D02*
X81176Y-38840D01*
X80823Y-35659D02*
X82590Y-37426D01*
X81176Y-38840D02*
G75*
G03X82590Y-38840I707J707D01*
G74*
G01*
X82590Y-38840D02*
G75*
G03X82590Y-37426I-707J707D01*
G74*
G01*
X80823Y-35659D02*
G75*
G03X79409Y-35659I-707J-707D01*
G74*
G01*
X79409Y-35659D02*
G75*
G03X79409Y-37073I707J-707D01*
G74*
G01*
X97250Y-40250D02*
X97250Y-41250D01*
X94250Y-40250D02*
X94250Y-41250D01*
X97250Y-41250D02*
X94250Y-41250D01*
X94250Y-40250D02*
X97250Y-40250D01*
X89000Y-37000D02*
X89000Y-36000D01*
X92000Y-37000D02*
X92000Y-36000D01*
X89000Y-36000D02*
X92000Y-36000D01*
X92000Y-37000D02*
X89000Y-37000D01*
X84750Y-38750D02*
X85750Y-38750D01*
X84750Y-41750D02*
X85750Y-41750D01*
X85750Y-38750D02*
X85750Y-41750D01*
X84750Y-41750D02*
X84750Y-38750D01*
X85750Y-38750D02*
X86750Y-38750D01*
X85750Y-41750D02*
X86750Y-41750D01*
X86750Y-38750D02*
X86750Y-41750D01*
X85750Y-41750D02*
X85750Y-38750D01*
X91000Y-42250D02*
X91000Y-43250D01*
X88000Y-42250D02*
X88000Y-43250D01*
X91000Y-43250D02*
X88000Y-43250D01*
X88000Y-42250D02*
X91000Y-42250D01*
X83914Y-36457D02*
X83207Y-37164D01*
X81792Y-34335D02*
X81085Y-35042D01*
X83207Y-37164D02*
X81085Y-35042D01*
X81792Y-34335D02*
X83914Y-36457D01*
X81750Y-34000D02*
X80750Y-34000D01*
X81750Y-31000D02*
X80750Y-31000D01*
X80750Y-34000D02*
X80750Y-31000D01*
X81750Y-31000D02*
X81750Y-34000D01*
X94250Y-40250D02*
X94250Y-39250D01*
X97250Y-40250D02*
X97250Y-39250D01*
X94250Y-39250D02*
X97250Y-39250D01*
X97250Y-40250D02*
X94250Y-40250D01*
X88000Y-38250D02*
X88000Y-37250D01*
X91000Y-38250D02*
X91000Y-37250D01*
X88000Y-37250D02*
X91000Y-37250D01*
X91000Y-38250D02*
X88000Y-38250D01*
X85000Y-43250D02*
X85000Y-42250D01*
X88000Y-43250D02*
X88000Y-42250D01*
X85000Y-42250D02*
X88000Y-42250D01*
X88000Y-43250D02*
X85000Y-43250D01*
X86500Y-44250D02*
X87250Y-44250D01*
X89750Y-44250D02*
X90500Y-44250D01*
X89500Y-43750D02*
X89500Y-44750D01*
X87250Y-44750D02*
X89750Y-44750D01*
X87250Y-43750D02*
X87250Y-44750D01*
X89750Y-43750D02*
X89750Y-44750D01*
X87250Y-43750D02*
X89750Y-43750D01*
X91750Y-41350D02*
X91750Y-41750D01*
X91750Y-39150D02*
X91750Y-38750D01*
X92150Y-41350D02*
X92150Y-39150D01*
X91350Y-39150D02*
X91350Y-41350D01*
X91350Y-39400D02*
X92150Y-39400D01*
X91750Y-39150D02*
X91350Y-39150D01*
X91350Y-41350D02*
X91750Y-41350D01*
X91750Y-41350D02*
X92150Y-41350D01*
X92150Y-39150D02*
X91750Y-39150D01*
X89527Y-34722D02*
X89810Y-34439D01*
X87972Y-36277D02*
X87689Y-36560D01*
X89244Y-34439D02*
X87689Y-35994D01*
X88255Y-36560D02*
X89810Y-35005D01*
X88431Y-36383D02*
X87866Y-35818D01*
X87972Y-36277D02*
X88255Y-36560D01*
X89810Y-35005D02*
X89527Y-34722D01*
X89527Y-34722D02*
X89244Y-34439D01*
X87689Y-35994D02*
X87972Y-36277D01*
X94350Y-44250D02*
X94750Y-44250D01*
X92150Y-44250D02*
X91750Y-44250D01*
X94350Y-43850D02*
X92150Y-43850D01*
X92150Y-44650D02*
X94350Y-44650D01*
X92400Y-44650D02*
X92400Y-43850D01*
X92150Y-44250D02*
X92150Y-44650D01*
X94350Y-44650D02*
X94350Y-44250D01*
X94350Y-44250D02*
X94350Y-43850D01*
X92150Y-43850D02*
X92150Y-44250D01*
X79835Y-28957D02*
X82133Y-26659D01*
X82840Y-27366D02*
X80542Y-29664D01*
X79729Y-28497D02*
X81497Y-26729D01*
X82770Y-28002D02*
X81002Y-29770D01*
X79729Y-29770D02*
G75*
G03X81002Y-29770I636J636D01*
G74*
G01*
X79729Y-28497D02*
G75*
G03X79729Y-29770I636J-636D01*
G74*
G01*
X82770Y-26729D02*
G75*
G03X81497Y-26729I-636J-636D01*
G74*
G01*
X82770Y-28002D02*
G75*
G03X82770Y-26729I-636J636D01*
G74*
G01*
X79729Y-29770D02*
G75*
G03X81002Y-29770I636J636D01*
G74*
G01*
X80542Y-29664D02*
X79835Y-28957D01*
X82133Y-26659D02*
X82840Y-27366D01*
X79000Y-34000D02*
X79000Y-30750D01*
X80000Y-30750D02*
X80000Y-34000D01*
X78600Y-33750D02*
X78600Y-31250D01*
X80400Y-31250D02*
X80400Y-33750D01*
X79500Y-34650D02*
G75*
G03X80400Y-33750I0J900D01*
G74*
G01*
X78600Y-33750D02*
G75*
G03X79500Y-34650I900J0D01*
G74*
G01*
X79500Y-30350D02*
G75*
G03X78600Y-31250I0J-900D01*
G74*
G01*
X80400Y-31250D02*
G75*
G03X79500Y-30350I-900J0D01*
G74*
G01*
X79500Y-34650D02*
G75*
G03X80400Y-33750I0J900D01*
G74*
G01*
X80000Y-34000D02*
X79000Y-34000D01*
X79000Y-30750D02*
X80000Y-30750D01*
X91000Y-35000D02*
X91000Y-31750D01*
X92000Y-31750D02*
X92000Y-35000D01*
X90600Y-34750D02*
X90600Y-32250D01*
X92400Y-32250D02*
X92400Y-34750D01*
X91500Y-35650D02*
G75*
G03X92400Y-34750I0J900D01*
G74*
G01*
X90600Y-34750D02*
G75*
G03X91500Y-35650I900J0D01*
G74*
G01*
X91500Y-31350D02*
G75*
G03X90600Y-32250I0J-900D01*
G74*
G01*
X92400Y-32250D02*
G75*
G03X91500Y-31350I-900J0D01*
G74*
G01*
X91500Y-35650D02*
G75*
G03X92400Y-34750I0J900D01*
G74*
G01*
X92000Y-35000D02*
X91000Y-35000D01*
X91000Y-31750D02*
X92000Y-31750D01*
X78000Y-41500D02*
X78000Y-39500D01*
X78000Y-39500D02*
X79000Y-39500D01*
X79000Y-39500D02*
X79000Y-41500D01*
X79000Y-41500D02*
X78000Y-41500D01*
X81500Y-43250D02*
G75*
G03X81500Y-43250I-1750J0D01*
G74*
G01*
G54D17*
X96350Y-34000D02*
G75*
G03X96350Y-34000I-100J0D01*
G74*
G01*
X94550Y-35200D02*
X94550Y-33800D01*
X96450Y-35200D02*
X96450Y-33800D01*
X96450Y-33800D02*
X94550Y-33800D01*
X96450Y-35200D02*
X94550Y-35200D01*
G54D16*
X90000Y-29000D02*
X90400Y-29000D01*
X90400Y-29000D02*
X90400Y-28600D01*
X90400Y-28600D02*
X93600Y-28600D01*
X93600Y-28600D02*
X93600Y-29400D01*
X93600Y-29400D02*
X90400Y-29400D01*
X90400Y-29400D02*
X90400Y-29000D01*
X94000Y-29000D02*
X93600Y-29000D01*
X97000Y-30000D02*
X96600Y-30000D01*
X96600Y-30000D02*
X96600Y-30400D01*
X96600Y-30400D02*
X93400Y-30400D01*
X93400Y-30400D02*
X93400Y-29600D01*
X93400Y-29600D02*
X96600Y-29600D01*
X96600Y-29600D02*
X96600Y-30000D01*
X93000Y-30000D02*
X93400Y-30000D01*
X93000Y-31000D02*
X93000Y-31400D01*
X93000Y-31400D02*
X93400Y-31400D01*
X93400Y-31400D02*
X93400Y-34600D01*
X93400Y-34600D02*
X92600Y-34600D01*
X92600Y-34600D02*
X92600Y-31400D01*
X92600Y-31400D02*
X93000Y-31400D01*
X93000Y-35000D02*
X93000Y-34600D01*
X96750Y-30500D02*
X96750Y-31500D01*
X93750Y-30500D02*
X93750Y-31500D01*
X96750Y-31500D02*
X93750Y-31500D01*
X93750Y-30500D02*
X96750Y-30500D01*
X93750Y-32500D02*
X93750Y-31500D01*
X96750Y-32500D02*
X96750Y-31500D01*
X93750Y-31500D02*
X96750Y-31500D01*
X96750Y-32500D02*
X93750Y-32500D01*
X94000Y-37250D02*
X94000Y-36250D01*
X97000Y-37250D02*
X97000Y-36250D01*
X94000Y-36250D02*
X97000Y-36250D01*
X97000Y-37250D02*
X94000Y-37250D01*
G54D18*
G36*
X78654Y-27534D02*
X78664Y-27528D01*
X78687Y-27514D01*
X78720Y-27492D01*
X78759Y-27466D01*
X78798Y-27440D01*
X78830Y-27419D01*
X78852Y-27404D01*
X78862Y-27399D01*
X78867Y-27401D01*
X78885Y-27410D01*
X78912Y-27424D01*
X78928Y-27432D01*
X78952Y-27442D01*
X78965Y-27445D01*
X78967Y-27441D01*
X78976Y-27422D01*
X78990Y-27390D01*
X79008Y-27347D01*
X79030Y-27297D01*
X79052Y-27244D01*
X79075Y-27189D01*
X79097Y-27136D01*
X79116Y-27089D01*
X79132Y-27051D01*
X79142Y-27024D01*
X79146Y-27013D01*
X79145Y-27010D01*
X79132Y-26998D01*
X79111Y-26982D01*
X79064Y-26944D01*
X79018Y-26887D01*
X78990Y-26822D01*
X78981Y-26749D01*
X78989Y-26682D01*
X79015Y-26618D01*
X79060Y-26560D01*
X79115Y-26517D01*
X79179Y-26490D01*
X79250Y-26481D01*
X79318Y-26489D01*
X79384Y-26515D01*
X79442Y-26559D01*
X79467Y-26587D01*
X79501Y-26646D01*
X79520Y-26708D01*
X79522Y-26724D01*
X79519Y-26793D01*
X79499Y-26860D01*
X79462Y-26919D01*
X79411Y-26968D01*
X79405Y-26972D01*
X79382Y-26990D01*
X79366Y-27002D01*
X79354Y-27012D01*
X79442Y-27224D01*
X79456Y-27257D01*
X79480Y-27315D01*
X79501Y-27365D01*
X79518Y-27405D01*
X79530Y-27431D01*
X79535Y-27442D01*
X79535Y-27443D01*
X79543Y-27444D01*
X79559Y-27438D01*
X79589Y-27424D01*
X79608Y-27414D01*
X79631Y-27403D01*
X79641Y-27399D01*
X79650Y-27404D01*
X79671Y-27418D01*
X79703Y-27439D01*
X79741Y-27464D01*
X79777Y-27489D01*
X79810Y-27511D01*
X79834Y-27526D01*
X79846Y-27533D01*
X79848Y-27533D01*
X79858Y-27527D01*
X79877Y-27511D01*
X79906Y-27484D01*
X79947Y-27443D01*
X79953Y-27437D01*
X79987Y-27403D01*
X80014Y-27374D01*
X80032Y-27354D01*
X80039Y-27345D01*
X80039Y-27345D01*
X80033Y-27333D01*
X80018Y-27309D01*
X79996Y-27275D01*
X79969Y-27236D01*
X79899Y-27134D01*
X79937Y-27038D01*
X79949Y-27008D01*
X79964Y-26973D01*
X79975Y-26947D01*
X79981Y-26936D01*
X79991Y-26932D01*
X80018Y-26926D01*
X80056Y-26918D01*
X80101Y-26910D01*
X80145Y-26902D01*
X80184Y-26894D01*
X80212Y-26889D01*
X80225Y-26886D01*
X80228Y-26884D01*
X80231Y-26878D01*
X80232Y-26865D01*
X80233Y-26841D01*
X80234Y-26804D01*
X80234Y-26749D01*
X80234Y-26743D01*
X80233Y-26692D01*
X80232Y-26650D01*
X80231Y-26624D01*
X80229Y-26613D01*
X80229Y-26613D01*
X80217Y-26610D01*
X80189Y-26604D01*
X80150Y-26597D01*
X80103Y-26588D01*
X80100Y-26587D01*
X80054Y-26578D01*
X80015Y-26570D01*
X79987Y-26564D01*
X79976Y-26560D01*
X79973Y-26557D01*
X79964Y-26539D01*
X79951Y-26510D01*
X79935Y-26475D01*
X79920Y-26438D01*
X79907Y-26405D01*
X79898Y-26381D01*
X79895Y-26370D01*
X79896Y-26369D01*
X79903Y-26358D01*
X79919Y-26334D01*
X79941Y-26301D01*
X79968Y-26261D01*
X79970Y-26258D01*
X79997Y-26219D01*
X80019Y-26185D01*
X80033Y-26162D01*
X80039Y-26151D01*
X80039Y-26150D01*
X80030Y-26138D01*
X80010Y-26116D01*
X79981Y-26086D01*
X79947Y-26051D01*
X79936Y-26041D01*
X79897Y-26003D01*
X79871Y-25979D01*
X79854Y-25966D01*
X79846Y-25963D01*
X79846Y-25963D01*
X79834Y-25970D01*
X79809Y-25986D01*
X79776Y-26009D01*
X79736Y-26036D01*
X79733Y-26038D01*
X79694Y-26065D01*
X79661Y-26087D01*
X79638Y-26103D01*
X79627Y-26109D01*
X79626Y-26109D01*
X79610Y-26104D01*
X79582Y-26094D01*
X79547Y-26081D01*
X79511Y-26066D01*
X79478Y-26052D01*
X79453Y-26041D01*
X79441Y-26034D01*
X79441Y-26034D01*
X79437Y-26020D01*
X79430Y-25990D01*
X79422Y-25950D01*
X79412Y-25902D01*
X79411Y-25894D01*
X79402Y-25847D01*
X79395Y-25808D01*
X79389Y-25781D01*
X79386Y-25770D01*
X79380Y-25769D01*
X79357Y-25767D01*
X79322Y-25766D01*
X79279Y-25766D01*
X79235Y-25766D01*
X79192Y-25767D01*
X79155Y-25768D01*
X79128Y-25770D01*
X79117Y-25772D01*
X79117Y-25773D01*
X79113Y-25788D01*
X79106Y-25817D01*
X79098Y-25858D01*
X79089Y-25906D01*
X79087Y-25915D01*
X79078Y-25961D01*
X79070Y-26000D01*
X79065Y-26026D01*
X79062Y-26037D01*
X79057Y-26039D01*
X79038Y-26047D01*
X79007Y-26060D01*
X78968Y-26076D01*
X78878Y-26112D01*
X78767Y-26037D01*
X78757Y-26030D01*
X78717Y-26003D01*
X78685Y-25981D01*
X78662Y-25966D01*
X78653Y-25961D01*
X78652Y-25961D01*
X78641Y-25971D01*
X78619Y-25992D01*
X78589Y-26021D01*
X78554Y-26055D01*
X78529Y-26081D01*
X78498Y-26112D01*
X78479Y-26133D01*
X78468Y-26146D01*
X78465Y-26154D01*
X78466Y-26160D01*
X78473Y-26171D01*
X78489Y-26195D01*
X78512Y-26229D01*
X78539Y-26268D01*
X78561Y-26301D01*
X78585Y-26338D01*
X78600Y-26364D01*
X78606Y-26377D01*
X78604Y-26382D01*
X78597Y-26404D01*
X78583Y-26437D01*
X78567Y-26476D01*
X78528Y-26563D01*
X78471Y-26574D01*
X78436Y-26581D01*
X78388Y-26590D01*
X78341Y-26599D01*
X78269Y-26613D01*
X78266Y-26879D01*
X78277Y-26884D01*
X78288Y-26887D01*
X78315Y-26893D01*
X78353Y-26901D01*
X78399Y-26909D01*
X78437Y-26916D01*
X78476Y-26924D01*
X78504Y-26929D01*
X78516Y-26932D01*
X78520Y-26936D01*
X78529Y-26955D01*
X78543Y-26985D01*
X78559Y-27021D01*
X78574Y-27058D01*
X78588Y-27093D01*
X78597Y-27119D01*
X78601Y-27132D01*
X78596Y-27143D01*
X78581Y-27166D01*
X78560Y-27198D01*
X78533Y-27237D01*
X78507Y-27275D01*
X78484Y-27308D01*
X78469Y-27332D01*
X78462Y-27343D01*
X78466Y-27350D01*
X78481Y-27369D01*
X78510Y-27399D01*
X78554Y-27442D01*
X78561Y-27449D01*
X78595Y-27482D01*
X78624Y-27509D01*
X78645Y-27527D01*
X78654Y-27534D01*
X78654Y-27534D01*
G37*
G54D12*
X94971Y-43750D02*
X94942Y-43735D01*
X94914Y-43707D01*
X94871Y-43664D01*
X94842Y-43650D01*
X94814Y-43650D01*
X94828Y-43721D02*
X94800Y-43707D01*
X94771Y-43678D01*
X94757Y-43621D01*
X94757Y-43521D01*
X94771Y-43464D01*
X94800Y-43435D01*
X94828Y-43421D01*
X94885Y-43421D01*
X94914Y-43435D01*
X94942Y-43464D01*
X94957Y-43521D01*
X94957Y-43621D01*
X94942Y-43678D01*
X94914Y-43707D01*
X94885Y-43721D01*
X94828Y-43721D01*
X95242Y-43721D02*
X95071Y-43721D01*
X95157Y-43721D02*
X95157Y-43421D01*
X95128Y-43464D01*
X95100Y-43492D01*
X95071Y-43507D01*
G54D17*
X95321Y-42475D02*
X95333Y-42463D01*
X95357Y-42451D01*
X95416Y-42451D01*
X95440Y-42463D01*
X95452Y-42475D01*
X95464Y-42498D01*
X95464Y-42522D01*
X95452Y-42558D01*
X95309Y-42701D01*
X95464Y-42701D01*
X95571Y-42701D02*
X95571Y-42451D01*
X95714Y-42701D01*
X95714Y-42451D01*
X95809Y-42451D02*
X95964Y-42451D01*
X95880Y-42546D01*
X95916Y-42546D01*
X95940Y-42558D01*
X95952Y-42570D01*
X95964Y-42594D01*
X95964Y-42653D01*
X95952Y-42677D01*
X95940Y-42689D01*
X95916Y-42701D01*
X95845Y-42701D01*
X95821Y-42689D01*
X95809Y-42677D01*
X96083Y-42701D02*
X96130Y-42701D01*
X96154Y-42689D01*
X96166Y-42677D01*
X96190Y-42641D01*
X96202Y-42594D01*
X96202Y-42498D01*
X96190Y-42475D01*
X96178Y-42463D01*
X96154Y-42451D01*
X96107Y-42451D01*
X96083Y-42463D01*
X96071Y-42475D01*
X96059Y-42498D01*
X96059Y-42558D01*
X96071Y-42582D01*
X96083Y-42594D01*
X96107Y-42605D01*
X96154Y-42605D01*
X96178Y-42594D01*
X96190Y-42582D01*
X96202Y-42558D01*
X96357Y-42451D02*
X96380Y-42451D01*
X96404Y-42463D01*
X96416Y-42475D01*
X96428Y-42498D01*
X96440Y-42546D01*
X96440Y-42605D01*
X96428Y-42653D01*
X96416Y-42677D01*
X96404Y-42689D01*
X96380Y-42701D01*
X96357Y-42701D01*
X96333Y-42689D01*
X96321Y-42677D01*
X96309Y-42653D01*
X96297Y-42605D01*
X96297Y-42546D01*
X96309Y-42498D01*
X96321Y-42475D01*
X96333Y-42463D01*
X96357Y-42451D01*
X96654Y-42534D02*
X96654Y-42701D01*
X96595Y-42439D02*
X96535Y-42617D01*
X96690Y-42617D01*
X96570Y-43303D02*
X96570Y-43220D01*
X96701Y-43184D02*
X96701Y-43303D01*
X96451Y-43303D01*
X96451Y-43184D01*
X95920Y-43732D02*
X95932Y-43696D01*
X95944Y-43684D01*
X95967Y-43672D01*
X96003Y-43672D01*
X96027Y-43684D01*
X96039Y-43696D01*
X96051Y-43720D01*
X96051Y-43815D01*
X95801Y-43815D01*
X95801Y-43732D01*
X95813Y-43708D01*
X95825Y-43696D01*
X95848Y-43684D01*
X95872Y-43684D01*
X95896Y-43696D01*
X95908Y-43708D01*
X95920Y-43732D01*
X95920Y-43815D01*
X96677Y-44172D02*
X96689Y-44184D01*
X96701Y-44220D01*
X96701Y-44244D01*
X96689Y-44279D01*
X96665Y-44303D01*
X96641Y-44315D01*
X96594Y-44327D01*
X96558Y-44327D01*
X96510Y-44315D01*
X96486Y-44303D01*
X96463Y-44279D01*
X96451Y-44244D01*
X96451Y-44220D01*
X96463Y-44184D01*
X96475Y-44172D01*
G54D12*
X92871Y-39500D02*
X92728Y-39600D01*
X92871Y-39671D02*
X92571Y-39671D01*
X92571Y-39557D01*
X92585Y-39528D01*
X92600Y-39514D01*
X92628Y-39500D01*
X92671Y-39500D01*
X92700Y-39514D01*
X92714Y-39528D01*
X92728Y-39557D01*
X92728Y-39671D01*
X92700Y-39328D02*
X92685Y-39357D01*
X92671Y-39371D01*
X92642Y-39385D01*
X92628Y-39385D01*
X92600Y-39371D01*
X92585Y-39357D01*
X92571Y-39328D01*
X92571Y-39271D01*
X92585Y-39242D01*
X92600Y-39228D01*
X92628Y-39214D01*
X92642Y-39214D01*
X92671Y-39228D01*
X92685Y-39242D01*
X92700Y-39271D01*
X92700Y-39328D01*
X92714Y-39357D01*
X92728Y-39371D01*
X92757Y-39385D01*
X92814Y-39385D01*
X92842Y-39371D01*
X92857Y-39357D01*
X92871Y-39328D01*
X92871Y-39271D01*
X92857Y-39242D01*
X92842Y-39228D01*
X92814Y-39214D01*
X92757Y-39214D01*
X92728Y-39228D01*
X92714Y-39242D01*
X92700Y-39271D01*
X92871Y-41085D02*
X92871Y-41257D01*
X92871Y-41171D02*
X92571Y-41171D01*
X92614Y-41199D01*
X92642Y-41228D01*
X92657Y-41257D01*
X92871Y-40957D02*
X92571Y-40957D01*
X92757Y-40928D02*
X92871Y-40842D01*
X92671Y-40842D02*
X92785Y-40957D01*
X93871Y-41100D02*
X93728Y-41200D01*
X93871Y-41271D02*
X93571Y-41271D01*
X93571Y-41157D01*
X93585Y-41128D01*
X93600Y-41114D01*
X93628Y-41100D01*
X93671Y-41100D01*
X93700Y-41114D01*
X93714Y-41128D01*
X93728Y-41157D01*
X93728Y-41271D01*
X93571Y-41000D02*
X93571Y-40800D01*
X93871Y-40928D01*
X93871Y-39535D02*
X93871Y-39707D01*
X93871Y-39621D02*
X93571Y-39621D01*
X93614Y-39649D01*
X93642Y-39678D01*
X93657Y-39707D01*
X93871Y-39407D02*
X93571Y-39407D01*
X93785Y-39307D01*
X93571Y-39207D01*
X93871Y-39207D01*
X84150Y-38121D02*
X84050Y-37978D01*
X83978Y-38121D02*
X83978Y-37821D01*
X84092Y-37821D01*
X84121Y-37835D01*
X84135Y-37850D01*
X84150Y-37878D01*
X84150Y-37921D01*
X84135Y-37950D01*
X84121Y-37964D01*
X84092Y-37978D01*
X83978Y-37978D01*
X84407Y-37821D02*
X84350Y-37821D01*
X84321Y-37835D01*
X84307Y-37850D01*
X84278Y-37892D01*
X84264Y-37950D01*
X84264Y-38064D01*
X84278Y-38092D01*
X84292Y-38107D01*
X84321Y-38121D01*
X84378Y-38121D01*
X84407Y-38107D01*
X84421Y-38092D01*
X84435Y-38064D01*
X84435Y-37992D01*
X84421Y-37964D01*
X84407Y-37950D01*
X84378Y-37935D01*
X84321Y-37935D01*
X84292Y-37950D01*
X84278Y-37964D01*
X84264Y-37992D01*
X85621Y-38121D02*
X85450Y-38121D01*
X85535Y-38121D02*
X85535Y-37821D01*
X85507Y-37864D01*
X85478Y-37892D01*
X85450Y-37907D01*
X85807Y-37821D02*
X85835Y-37821D01*
X85864Y-37835D01*
X85878Y-37850D01*
X85892Y-37878D01*
X85907Y-37935D01*
X85907Y-38007D01*
X85892Y-38064D01*
X85878Y-38092D01*
X85864Y-38107D01*
X85835Y-38121D01*
X85807Y-38121D01*
X85778Y-38107D01*
X85764Y-38092D01*
X85750Y-38064D01*
X85735Y-38007D01*
X85735Y-37935D01*
X85750Y-37878D01*
X85764Y-37850D01*
X85778Y-37835D01*
X85807Y-37821D01*
X86035Y-38121D02*
X86035Y-37821D01*
X86064Y-38007D02*
X86150Y-38121D01*
X86150Y-37921D02*
X86035Y-38035D01*
X84900Y-28371D02*
X84800Y-28228D01*
X84728Y-28371D02*
X84728Y-28071D01*
X84842Y-28071D01*
X84871Y-28085D01*
X84885Y-28100D01*
X84900Y-28128D01*
X84900Y-28171D01*
X84885Y-28200D01*
X84871Y-28214D01*
X84842Y-28228D01*
X84728Y-28228D01*
X85042Y-28371D02*
X85100Y-28371D01*
X85128Y-28357D01*
X85142Y-28342D01*
X85171Y-28300D01*
X85185Y-28242D01*
X85185Y-28128D01*
X85171Y-28100D01*
X85157Y-28085D01*
X85128Y-28071D01*
X85071Y-28071D01*
X85042Y-28085D01*
X85028Y-28100D01*
X85014Y-28128D01*
X85014Y-28200D01*
X85028Y-28228D01*
X85042Y-28242D01*
X85071Y-28257D01*
X85128Y-28257D01*
X85157Y-28242D01*
X85171Y-28228D01*
X85185Y-28200D01*
X86200Y-28171D02*
X86200Y-28371D01*
X86128Y-28057D02*
X86057Y-28271D01*
X86242Y-28271D01*
X86414Y-28071D02*
X86442Y-28071D01*
X86471Y-28085D01*
X86485Y-28100D01*
X86500Y-28128D01*
X86514Y-28185D01*
X86514Y-28257D01*
X86500Y-28314D01*
X86485Y-28342D01*
X86471Y-28357D01*
X86442Y-28371D01*
X86414Y-28371D01*
X86385Y-28357D01*
X86371Y-28342D01*
X86357Y-28314D01*
X86342Y-28257D01*
X86342Y-28185D01*
X86357Y-28128D01*
X86371Y-28100D01*
X86385Y-28085D01*
X86414Y-28071D01*
X86700Y-28071D02*
X86728Y-28071D01*
X86757Y-28085D01*
X86771Y-28100D01*
X86785Y-28128D01*
X86800Y-28185D01*
X86800Y-28257D01*
X86785Y-28314D01*
X86771Y-28342D01*
X86757Y-28357D01*
X86728Y-28371D01*
X86700Y-28371D01*
X86671Y-28357D01*
X86657Y-28342D01*
X86642Y-28314D01*
X86628Y-28257D01*
X86628Y-28185D01*
X86642Y-28128D01*
X86657Y-28100D01*
X86671Y-28085D01*
X86700Y-28071D01*
X86928Y-28371D02*
X86928Y-28071D01*
X86957Y-28257D02*
X87042Y-28371D01*
X87042Y-28171D02*
X86928Y-28285D01*
X80179Y-38850D02*
X80209Y-38679D01*
X80058Y-38729D02*
X80270Y-38517D01*
X80350Y-38598D01*
X80361Y-38628D01*
X80361Y-38648D01*
X80350Y-38679D01*
X80320Y-38709D01*
X80290Y-38719D01*
X80270Y-38719D01*
X80239Y-38709D01*
X80159Y-38628D01*
X80381Y-39052D02*
X80260Y-38931D01*
X80320Y-38992D02*
X80532Y-38780D01*
X80482Y-38790D01*
X80441Y-38790D01*
X80411Y-38780D01*
X80482Y-39154D02*
X80522Y-39194D01*
X80552Y-39204D01*
X80573Y-39204D01*
X80623Y-39194D01*
X80674Y-39164D01*
X80755Y-39083D01*
X80765Y-39052D01*
X80765Y-39032D01*
X80755Y-39002D01*
X80714Y-38962D01*
X80684Y-38951D01*
X80664Y-38951D01*
X80633Y-38962D01*
X80583Y-39012D01*
X80573Y-39042D01*
X80573Y-39063D01*
X80583Y-39093D01*
X80623Y-39133D01*
X80654Y-39143D01*
X80674Y-39143D01*
X80704Y-39133D01*
X79057Y-37729D02*
X78936Y-37608D01*
X78997Y-37669D02*
X79209Y-37456D01*
X79158Y-37467D01*
X79118Y-37467D01*
X79088Y-37456D01*
X79401Y-37648D02*
X79421Y-37669D01*
X79431Y-37699D01*
X79431Y-37719D01*
X79421Y-37749D01*
X79391Y-37800D01*
X79340Y-37850D01*
X79290Y-37881D01*
X79260Y-37891D01*
X79239Y-37891D01*
X79209Y-37881D01*
X79189Y-37861D01*
X79179Y-37830D01*
X79179Y-37810D01*
X79189Y-37780D01*
X79219Y-37729D01*
X79270Y-37679D01*
X79320Y-37648D01*
X79350Y-37638D01*
X79371Y-37638D01*
X79401Y-37648D01*
X79350Y-38022D02*
X79563Y-37810D01*
X79451Y-37962D02*
X79431Y-38103D01*
X79573Y-37962D02*
X79411Y-37962D01*
X85462Y-32535D02*
X85633Y-32707D01*
X85664Y-32717D01*
X85684Y-32717D01*
X85714Y-32707D01*
X85755Y-32666D01*
X85765Y-32636D01*
X85765Y-32616D01*
X85755Y-32585D01*
X85583Y-32414D01*
X86007Y-32414D02*
X85886Y-32535D01*
X85946Y-32474D02*
X85734Y-32262D01*
X85744Y-32313D01*
X85744Y-32353D01*
X85734Y-32383D01*
X83633Y-31606D02*
X83532Y-31707D01*
X83320Y-31494D01*
X83462Y-31353D02*
X83583Y-31232D01*
X83734Y-31504D02*
X83522Y-31292D01*
X83633Y-31181D02*
X83775Y-31040D01*
X83845Y-31393D01*
X83987Y-31252D01*
X84179Y-31060D02*
X84057Y-31181D01*
X84118Y-31121D02*
X83906Y-30909D01*
X83916Y-30959D01*
X83916Y-30999D01*
X83906Y-31030D01*
X84098Y-30717D02*
X84118Y-30696D01*
X84148Y-30686D01*
X84169Y-30686D01*
X84199Y-30696D01*
X84249Y-30727D01*
X84300Y-30777D01*
X84330Y-30828D01*
X84340Y-30858D01*
X84340Y-30878D01*
X84330Y-30909D01*
X84310Y-30929D01*
X84280Y-30939D01*
X84260Y-30939D01*
X84229Y-30929D01*
X84179Y-30898D01*
X84128Y-30848D01*
X84098Y-30797D01*
X84088Y-30767D01*
X84088Y-30747D01*
X84098Y-30717D01*
X84300Y-30515D02*
X84320Y-30494D01*
X84350Y-30484D01*
X84371Y-30484D01*
X84401Y-30494D01*
X84451Y-30525D01*
X84502Y-30575D01*
X84532Y-30626D01*
X84542Y-30656D01*
X84542Y-30676D01*
X84532Y-30706D01*
X84512Y-30727D01*
X84482Y-30737D01*
X84462Y-30737D01*
X84431Y-30727D01*
X84381Y-30696D01*
X84330Y-30646D01*
X84300Y-30595D01*
X84290Y-30565D01*
X84290Y-30545D01*
X84300Y-30515D01*
X84502Y-30313D02*
X84522Y-30292D01*
X84552Y-30282D01*
X84573Y-30282D01*
X84603Y-30292D01*
X84653Y-30323D01*
X84704Y-30373D01*
X84734Y-30424D01*
X84744Y-30454D01*
X84744Y-30474D01*
X84734Y-30504D01*
X84714Y-30525D01*
X84684Y-30535D01*
X84664Y-30535D01*
X84633Y-30525D01*
X84583Y-30494D01*
X84532Y-30444D01*
X84502Y-30393D01*
X84492Y-30363D01*
X84492Y-30343D01*
X84502Y-30313D01*
X84805Y-30313D02*
X84906Y-30212D01*
X84845Y-30393D02*
X84704Y-30110D01*
X84987Y-30252D01*
X90071Y-40478D02*
X90314Y-40478D01*
X90342Y-40464D01*
X90357Y-40450D01*
X90371Y-40421D01*
X90371Y-40364D01*
X90357Y-40335D01*
X90342Y-40321D01*
X90314Y-40307D01*
X90071Y-40307D01*
X90100Y-40178D02*
X90085Y-40164D01*
X90071Y-40135D01*
X90071Y-40064D01*
X90085Y-40035D01*
X90100Y-40021D01*
X90128Y-40007D01*
X90157Y-40007D01*
X90200Y-40021D01*
X90371Y-40192D01*
X90371Y-40007D01*
X87907Y-40371D02*
X87764Y-40371D01*
X87764Y-40071D01*
X87964Y-40071D02*
X88135Y-40071D01*
X88050Y-40371D02*
X88050Y-40071D01*
X88392Y-40371D02*
X88221Y-40371D01*
X88307Y-40371D02*
X88307Y-40071D01*
X88278Y-40114D01*
X88250Y-40142D01*
X88221Y-40157D01*
X88578Y-40071D02*
X88607Y-40071D01*
X88635Y-40085D01*
X88650Y-40100D01*
X88664Y-40128D01*
X88678Y-40185D01*
X88678Y-40257D01*
X88664Y-40314D01*
X88650Y-40342D01*
X88635Y-40357D01*
X88607Y-40371D01*
X88578Y-40371D01*
X88550Y-40357D01*
X88535Y-40342D01*
X88521Y-40314D01*
X88507Y-40257D01*
X88507Y-40185D01*
X88521Y-40128D01*
X88535Y-40100D01*
X88550Y-40085D01*
X88578Y-40071D01*
X88964Y-40371D02*
X88792Y-40371D01*
X88878Y-40371D02*
X88878Y-40071D01*
X88850Y-40114D01*
X88821Y-40142D01*
X88792Y-40157D01*
X89064Y-40071D02*
X89249Y-40071D01*
X89149Y-40185D01*
X89192Y-40185D01*
X89221Y-40200D01*
X89235Y-40214D01*
X89249Y-40242D01*
X89249Y-40314D01*
X89235Y-40342D01*
X89221Y-40357D01*
X89192Y-40371D01*
X89107Y-40371D01*
X89078Y-40357D01*
X89064Y-40342D01*
X95700Y-41692D02*
X95685Y-41707D01*
X95642Y-41721D01*
X95614Y-41721D01*
X95571Y-41707D01*
X95542Y-41678D01*
X95528Y-41650D01*
X95514Y-41592D01*
X95514Y-41550D01*
X95528Y-41492D01*
X95542Y-41464D01*
X95571Y-41435D01*
X95614Y-41421D01*
X95642Y-41421D01*
X95685Y-41435D01*
X95700Y-41450D01*
X95985Y-41721D02*
X95814Y-41721D01*
X95900Y-41721D02*
X95900Y-41421D01*
X95871Y-41464D01*
X95842Y-41492D01*
X95814Y-41507D01*
X95257Y-40571D02*
X95285Y-40571D01*
X95314Y-40585D01*
X95328Y-40600D01*
X95342Y-40628D01*
X95357Y-40685D01*
X95357Y-40757D01*
X95342Y-40814D01*
X95328Y-40842D01*
X95314Y-40857D01*
X95285Y-40871D01*
X95257Y-40871D01*
X95228Y-40857D01*
X95214Y-40842D01*
X95200Y-40814D01*
X95185Y-40757D01*
X95185Y-40685D01*
X95200Y-40628D01*
X95214Y-40600D01*
X95228Y-40585D01*
X95257Y-40571D01*
X95485Y-40842D02*
X95500Y-40857D01*
X95485Y-40871D01*
X95471Y-40857D01*
X95485Y-40842D01*
X95485Y-40871D01*
X95785Y-40871D02*
X95614Y-40871D01*
X95700Y-40871D02*
X95700Y-40571D01*
X95671Y-40614D01*
X95642Y-40642D01*
X95614Y-40657D01*
X96042Y-40671D02*
X96042Y-40871D01*
X95914Y-40671D02*
X95914Y-40828D01*
X95928Y-40857D01*
X95957Y-40871D01*
X96000Y-40871D01*
X96028Y-40857D01*
X96042Y-40842D01*
X96285Y-40714D02*
X96185Y-40714D01*
X96185Y-40871D02*
X96185Y-40571D01*
X96328Y-40571D01*
X90450Y-35792D02*
X90435Y-35807D01*
X90392Y-35821D01*
X90364Y-35821D01*
X90321Y-35807D01*
X90292Y-35778D01*
X90278Y-35750D01*
X90264Y-35692D01*
X90264Y-35650D01*
X90278Y-35592D01*
X90292Y-35564D01*
X90321Y-35535D01*
X90364Y-35521D01*
X90392Y-35521D01*
X90435Y-35535D01*
X90450Y-35550D01*
X90564Y-35550D02*
X90578Y-35535D01*
X90607Y-35521D01*
X90678Y-35521D01*
X90707Y-35535D01*
X90721Y-35550D01*
X90735Y-35578D01*
X90735Y-35607D01*
X90721Y-35650D01*
X90550Y-35821D01*
X90735Y-35821D01*
X90007Y-36321D02*
X90035Y-36321D01*
X90064Y-36335D01*
X90078Y-36350D01*
X90092Y-36378D01*
X90107Y-36435D01*
X90107Y-36507D01*
X90092Y-36564D01*
X90078Y-36592D01*
X90064Y-36607D01*
X90035Y-36621D01*
X90007Y-36621D01*
X89978Y-36607D01*
X89964Y-36592D01*
X89950Y-36564D01*
X89935Y-36507D01*
X89935Y-36435D01*
X89950Y-36378D01*
X89964Y-36350D01*
X89978Y-36335D01*
X90007Y-36321D01*
X90235Y-36592D02*
X90250Y-36607D01*
X90235Y-36621D01*
X90221Y-36607D01*
X90235Y-36592D01*
X90235Y-36621D01*
X90535Y-36621D02*
X90364Y-36621D01*
X90450Y-36621D02*
X90450Y-36321D01*
X90421Y-36364D01*
X90392Y-36392D01*
X90364Y-36407D01*
X90792Y-36421D02*
X90792Y-36621D01*
X90664Y-36421D02*
X90664Y-36578D01*
X90678Y-36607D01*
X90707Y-36621D01*
X90750Y-36621D01*
X90778Y-36607D01*
X90792Y-36592D01*
X91035Y-36464D02*
X90935Y-36464D01*
X90935Y-36621D02*
X90935Y-36321D01*
X91078Y-36321D01*
X85200Y-42142D02*
X85185Y-42157D01*
X85142Y-42171D01*
X85114Y-42171D01*
X85071Y-42157D01*
X85042Y-42128D01*
X85028Y-42100D01*
X85014Y-42042D01*
X85014Y-42000D01*
X85028Y-41942D01*
X85042Y-41914D01*
X85071Y-41885D01*
X85114Y-41871D01*
X85142Y-41871D01*
X85185Y-41885D01*
X85200Y-41900D01*
X85300Y-41871D02*
X85485Y-41871D01*
X85385Y-41985D01*
X85428Y-41985D01*
X85457Y-42000D01*
X85471Y-42014D01*
X85485Y-42042D01*
X85485Y-42114D01*
X85471Y-42142D01*
X85457Y-42157D01*
X85428Y-42171D01*
X85342Y-42171D01*
X85314Y-42157D01*
X85300Y-42142D01*
X85100Y-40742D02*
X85085Y-40728D01*
X85071Y-40700D01*
X85071Y-40628D01*
X85085Y-40600D01*
X85100Y-40585D01*
X85128Y-40571D01*
X85157Y-40571D01*
X85200Y-40585D01*
X85371Y-40757D01*
X85371Y-40571D01*
X85100Y-40457D02*
X85085Y-40442D01*
X85071Y-40414D01*
X85071Y-40342D01*
X85085Y-40314D01*
X85100Y-40300D01*
X85128Y-40285D01*
X85157Y-40285D01*
X85200Y-40300D01*
X85371Y-40471D01*
X85371Y-40285D01*
X85171Y-40157D02*
X85371Y-40157D01*
X85200Y-40157D02*
X85185Y-40142D01*
X85171Y-40114D01*
X85171Y-40071D01*
X85185Y-40042D01*
X85214Y-40028D01*
X85371Y-40028D01*
X85214Y-39785D02*
X85214Y-39885D01*
X85371Y-39885D02*
X85071Y-39885D01*
X85071Y-39742D01*
X86200Y-42142D02*
X86185Y-42157D01*
X86142Y-42171D01*
X86114Y-42171D01*
X86071Y-42157D01*
X86042Y-42128D01*
X86028Y-42100D01*
X86014Y-42042D01*
X86014Y-42000D01*
X86028Y-41942D01*
X86042Y-41914D01*
X86071Y-41885D01*
X86114Y-41871D01*
X86142Y-41871D01*
X86185Y-41885D01*
X86200Y-41900D01*
X86457Y-41971D02*
X86457Y-42171D01*
X86385Y-41857D02*
X86314Y-42071D01*
X86500Y-42071D01*
X86071Y-40742D02*
X86071Y-40714D01*
X86085Y-40685D01*
X86100Y-40671D01*
X86128Y-40657D01*
X86185Y-40642D01*
X86257Y-40642D01*
X86314Y-40657D01*
X86342Y-40671D01*
X86357Y-40685D01*
X86371Y-40714D01*
X86371Y-40742D01*
X86357Y-40771D01*
X86342Y-40785D01*
X86314Y-40799D01*
X86257Y-40814D01*
X86185Y-40814D01*
X86128Y-40799D01*
X86100Y-40785D01*
X86085Y-40771D01*
X86071Y-40742D01*
X86342Y-40514D02*
X86357Y-40500D01*
X86371Y-40514D01*
X86357Y-40528D01*
X86342Y-40514D01*
X86371Y-40514D01*
X86371Y-40214D02*
X86371Y-40385D01*
X86371Y-40300D02*
X86071Y-40300D01*
X86114Y-40328D01*
X86142Y-40357D01*
X86157Y-40385D01*
X86171Y-39957D02*
X86371Y-39957D01*
X86171Y-40085D02*
X86328Y-40085D01*
X86357Y-40071D01*
X86371Y-40042D01*
X86371Y-40000D01*
X86357Y-39971D01*
X86342Y-39957D01*
X86214Y-39714D02*
X86214Y-39814D01*
X86371Y-39814D02*
X86071Y-39814D01*
X86071Y-39671D01*
X91350Y-43242D02*
X91335Y-43257D01*
X91292Y-43271D01*
X91264Y-43271D01*
X91221Y-43257D01*
X91192Y-43228D01*
X91178Y-43200D01*
X91164Y-43142D01*
X91164Y-43100D01*
X91178Y-43042D01*
X91192Y-43014D01*
X91221Y-42985D01*
X91264Y-42971D01*
X91292Y-42971D01*
X91335Y-42985D01*
X91350Y-43000D01*
X91521Y-43100D02*
X91492Y-43085D01*
X91478Y-43071D01*
X91464Y-43042D01*
X91464Y-43028D01*
X91478Y-43000D01*
X91492Y-42985D01*
X91521Y-42971D01*
X91578Y-42971D01*
X91607Y-42985D01*
X91621Y-43000D01*
X91635Y-43028D01*
X91635Y-43042D01*
X91621Y-43071D01*
X91607Y-43085D01*
X91578Y-43100D01*
X91521Y-43100D01*
X91492Y-43114D01*
X91478Y-43128D01*
X91464Y-43157D01*
X91464Y-43214D01*
X91478Y-43242D01*
X91492Y-43257D01*
X91521Y-43271D01*
X91578Y-43271D01*
X91607Y-43257D01*
X91621Y-43242D01*
X91635Y-43214D01*
X91635Y-43157D01*
X91621Y-43128D01*
X91607Y-43114D01*
X91578Y-43100D01*
X89007Y-42571D02*
X89035Y-42571D01*
X89064Y-42585D01*
X89078Y-42600D01*
X89092Y-42628D01*
X89107Y-42685D01*
X89107Y-42757D01*
X89092Y-42814D01*
X89078Y-42842D01*
X89064Y-42857D01*
X89035Y-42871D01*
X89007Y-42871D01*
X88978Y-42857D01*
X88964Y-42842D01*
X88950Y-42814D01*
X88935Y-42757D01*
X88935Y-42685D01*
X88950Y-42628D01*
X88964Y-42600D01*
X88978Y-42585D01*
X89007Y-42571D01*
X89235Y-42842D02*
X89250Y-42857D01*
X89235Y-42871D01*
X89221Y-42857D01*
X89235Y-42842D01*
X89235Y-42871D01*
X89535Y-42871D02*
X89364Y-42871D01*
X89450Y-42871D02*
X89450Y-42571D01*
X89421Y-42614D01*
X89392Y-42642D01*
X89364Y-42657D01*
X89792Y-42671D02*
X89792Y-42871D01*
X89664Y-42671D02*
X89664Y-42828D01*
X89678Y-42857D01*
X89707Y-42871D01*
X89750Y-42871D01*
X89778Y-42857D01*
X89792Y-42842D01*
X90035Y-42714D02*
X89935Y-42714D01*
X89935Y-42871D02*
X89935Y-42571D01*
X90078Y-42571D01*
X83647Y-35879D02*
X83627Y-35879D01*
X83587Y-35859D01*
X83567Y-35838D01*
X83546Y-35798D01*
X83546Y-35758D01*
X83557Y-35727D01*
X83587Y-35677D01*
X83617Y-35646D01*
X83668Y-35616D01*
X83698Y-35606D01*
X83738Y-35606D01*
X83779Y-35626D01*
X83799Y-35646D01*
X83819Y-35687D01*
X83819Y-35707D01*
X83829Y-36101D02*
X83708Y-35980D01*
X83769Y-36040D02*
X83981Y-35828D01*
X83930Y-35838D01*
X83890Y-35838D01*
X83860Y-35828D01*
X84031Y-36303D02*
X83910Y-36182D01*
X83971Y-36242D02*
X84183Y-36030D01*
X84132Y-36040D01*
X84092Y-36040D01*
X84062Y-36030D01*
X82277Y-35275D02*
X82297Y-35295D01*
X82308Y-35325D01*
X82308Y-35345D01*
X82297Y-35376D01*
X82267Y-35426D01*
X82217Y-35477D01*
X82166Y-35507D01*
X82136Y-35517D01*
X82116Y-35517D01*
X82085Y-35507D01*
X82065Y-35487D01*
X82055Y-35457D01*
X82055Y-35436D01*
X82065Y-35406D01*
X82095Y-35356D01*
X82146Y-35305D01*
X82196Y-35275D01*
X82227Y-35265D01*
X82247Y-35265D01*
X82277Y-35275D01*
X82247Y-35628D02*
X82247Y-35648D01*
X82227Y-35648D01*
X82227Y-35628D01*
X82247Y-35628D01*
X82227Y-35648D01*
X82439Y-35861D02*
X82318Y-35739D01*
X82378Y-35800D02*
X82590Y-35588D01*
X82540Y-35598D01*
X82500Y-35598D01*
X82469Y-35588D01*
X82762Y-35901D02*
X82621Y-36042D01*
X82671Y-35810D02*
X82560Y-35921D01*
X82550Y-35952D01*
X82560Y-35982D01*
X82590Y-36012D01*
X82621Y-36022D01*
X82641Y-36022D01*
X82904Y-36103D02*
X82833Y-36032D01*
X82722Y-36143D02*
X82934Y-35931D01*
X83035Y-36032D01*
X82192Y-31592D02*
X82207Y-31607D01*
X82221Y-31650D01*
X82221Y-31678D01*
X82207Y-31721D01*
X82178Y-31750D01*
X82150Y-31764D01*
X82092Y-31778D01*
X82050Y-31778D01*
X81992Y-31764D01*
X81964Y-31750D01*
X81935Y-31721D01*
X81921Y-31678D01*
X81921Y-31650D01*
X81935Y-31607D01*
X81950Y-31592D01*
X82221Y-31307D02*
X82221Y-31478D01*
X82221Y-31392D02*
X81921Y-31392D01*
X81964Y-31421D01*
X81992Y-31450D01*
X82007Y-31478D01*
X81950Y-31192D02*
X81935Y-31178D01*
X81921Y-31150D01*
X81921Y-31078D01*
X81935Y-31050D01*
X81950Y-31035D01*
X81978Y-31021D01*
X82007Y-31021D01*
X82050Y-31035D01*
X82221Y-31207D01*
X82221Y-31021D01*
X81071Y-32992D02*
X81071Y-32964D01*
X81085Y-32935D01*
X81100Y-32921D01*
X81128Y-32907D01*
X81185Y-32892D01*
X81257Y-32892D01*
X81314Y-32907D01*
X81342Y-32921D01*
X81357Y-32935D01*
X81371Y-32964D01*
X81371Y-32992D01*
X81357Y-33021D01*
X81342Y-33035D01*
X81314Y-33049D01*
X81257Y-33064D01*
X81185Y-33064D01*
X81128Y-33049D01*
X81100Y-33035D01*
X81085Y-33021D01*
X81071Y-32992D01*
X81342Y-32764D02*
X81357Y-32750D01*
X81371Y-32764D01*
X81357Y-32778D01*
X81342Y-32764D01*
X81371Y-32764D01*
X81371Y-32464D02*
X81371Y-32635D01*
X81371Y-32550D02*
X81071Y-32550D01*
X81114Y-32578D01*
X81142Y-32607D01*
X81157Y-32635D01*
X81171Y-32207D02*
X81371Y-32207D01*
X81171Y-32335D02*
X81328Y-32335D01*
X81357Y-32321D01*
X81371Y-32292D01*
X81371Y-32250D01*
X81357Y-32221D01*
X81342Y-32207D01*
X81214Y-31964D02*
X81214Y-32064D01*
X81371Y-32064D02*
X81071Y-32064D01*
X81071Y-31921D01*
X95557Y-39042D02*
X95542Y-39057D01*
X95500Y-39071D01*
X95471Y-39071D01*
X95428Y-39057D01*
X95400Y-39028D01*
X95385Y-39000D01*
X95371Y-38942D01*
X95371Y-38900D01*
X95385Y-38842D01*
X95400Y-38814D01*
X95428Y-38785D01*
X95471Y-38771D01*
X95500Y-38771D01*
X95542Y-38785D01*
X95557Y-38800D01*
X95842Y-39071D02*
X95671Y-39071D01*
X95757Y-39071D02*
X95757Y-38771D01*
X95728Y-38814D01*
X95700Y-38842D01*
X95671Y-38857D01*
X95942Y-38771D02*
X96128Y-38771D01*
X96028Y-38885D01*
X96071Y-38885D01*
X96100Y-38900D01*
X96114Y-38914D01*
X96128Y-38942D01*
X96128Y-39014D01*
X96114Y-39042D01*
X96100Y-39057D01*
X96071Y-39071D01*
X95985Y-39071D01*
X95957Y-39057D01*
X95942Y-39042D01*
X95428Y-39871D02*
X95257Y-39871D01*
X95342Y-39871D02*
X95342Y-39571D01*
X95314Y-39614D01*
X95285Y-39642D01*
X95257Y-39657D01*
X95614Y-39571D02*
X95642Y-39571D01*
X95671Y-39585D01*
X95685Y-39600D01*
X95700Y-39628D01*
X95714Y-39685D01*
X95714Y-39757D01*
X95700Y-39814D01*
X95685Y-39842D01*
X95671Y-39857D01*
X95642Y-39871D01*
X95614Y-39871D01*
X95585Y-39857D01*
X95571Y-39842D01*
X95557Y-39814D01*
X95542Y-39757D01*
X95542Y-39685D01*
X95557Y-39628D01*
X95571Y-39600D01*
X95585Y-39585D01*
X95614Y-39571D01*
X95842Y-39671D02*
X95842Y-39871D01*
X95842Y-39700D02*
X95857Y-39685D01*
X95885Y-39671D01*
X95928Y-39671D01*
X95957Y-39685D01*
X95971Y-39714D01*
X95971Y-39871D01*
X96214Y-39714D02*
X96114Y-39714D01*
X96114Y-39871D02*
X96114Y-39571D01*
X96257Y-39571D01*
X91357Y-37842D02*
X91342Y-37857D01*
X91300Y-37871D01*
X91271Y-37871D01*
X91228Y-37857D01*
X91200Y-37828D01*
X91185Y-37800D01*
X91171Y-37742D01*
X91171Y-37700D01*
X91185Y-37642D01*
X91200Y-37614D01*
X91228Y-37585D01*
X91271Y-37571D01*
X91300Y-37571D01*
X91342Y-37585D01*
X91357Y-37600D01*
X91642Y-37871D02*
X91471Y-37871D01*
X91557Y-37871D02*
X91557Y-37571D01*
X91528Y-37614D01*
X91500Y-37642D01*
X91471Y-37657D01*
X91900Y-37671D02*
X91900Y-37871D01*
X91828Y-37557D02*
X91757Y-37771D01*
X91942Y-37771D01*
X89007Y-37571D02*
X89035Y-37571D01*
X89064Y-37585D01*
X89078Y-37600D01*
X89092Y-37628D01*
X89107Y-37685D01*
X89107Y-37757D01*
X89092Y-37814D01*
X89078Y-37842D01*
X89064Y-37857D01*
X89035Y-37871D01*
X89007Y-37871D01*
X88978Y-37857D01*
X88964Y-37842D01*
X88950Y-37814D01*
X88935Y-37757D01*
X88935Y-37685D01*
X88950Y-37628D01*
X88964Y-37600D01*
X88978Y-37585D01*
X89007Y-37571D01*
X89235Y-37842D02*
X89250Y-37857D01*
X89235Y-37871D01*
X89221Y-37857D01*
X89235Y-37842D01*
X89235Y-37871D01*
X89535Y-37871D02*
X89364Y-37871D01*
X89450Y-37871D02*
X89450Y-37571D01*
X89421Y-37614D01*
X89392Y-37642D01*
X89364Y-37657D01*
X89792Y-37671D02*
X89792Y-37871D01*
X89664Y-37671D02*
X89664Y-37828D01*
X89678Y-37857D01*
X89707Y-37871D01*
X89750Y-37871D01*
X89778Y-37857D01*
X89792Y-37842D01*
X90035Y-37714D02*
X89935Y-37714D01*
X89935Y-37871D02*
X89935Y-37571D01*
X90078Y-37571D01*
X84257Y-43242D02*
X84242Y-43257D01*
X84200Y-43271D01*
X84171Y-43271D01*
X84128Y-43257D01*
X84100Y-43228D01*
X84085Y-43200D01*
X84071Y-43142D01*
X84071Y-43100D01*
X84085Y-43042D01*
X84100Y-43014D01*
X84128Y-42985D01*
X84171Y-42971D01*
X84200Y-42971D01*
X84242Y-42985D01*
X84257Y-43000D01*
X84542Y-43271D02*
X84371Y-43271D01*
X84457Y-43271D02*
X84457Y-42971D01*
X84428Y-43014D01*
X84400Y-43042D01*
X84371Y-43057D01*
X84814Y-42971D02*
X84671Y-42971D01*
X84657Y-43114D01*
X84671Y-43100D01*
X84700Y-43085D01*
X84771Y-43085D01*
X84800Y-43100D01*
X84814Y-43114D01*
X84828Y-43142D01*
X84828Y-43214D01*
X84814Y-43242D01*
X84800Y-43257D01*
X84771Y-43271D01*
X84700Y-43271D01*
X84671Y-43257D01*
X84657Y-43242D01*
X86007Y-42571D02*
X86035Y-42571D01*
X86064Y-42585D01*
X86078Y-42600D01*
X86092Y-42628D01*
X86107Y-42685D01*
X86107Y-42757D01*
X86092Y-42814D01*
X86078Y-42842D01*
X86064Y-42857D01*
X86035Y-42871D01*
X86007Y-42871D01*
X85978Y-42857D01*
X85964Y-42842D01*
X85950Y-42814D01*
X85935Y-42757D01*
X85935Y-42685D01*
X85950Y-42628D01*
X85964Y-42600D01*
X85978Y-42585D01*
X86007Y-42571D01*
X86235Y-42842D02*
X86250Y-42857D01*
X86235Y-42871D01*
X86221Y-42857D01*
X86235Y-42842D01*
X86235Y-42871D01*
X86535Y-42871D02*
X86364Y-42871D01*
X86450Y-42871D02*
X86450Y-42571D01*
X86421Y-42614D01*
X86392Y-42642D01*
X86364Y-42657D01*
X86792Y-42671D02*
X86792Y-42871D01*
X86664Y-42671D02*
X86664Y-42828D01*
X86678Y-42857D01*
X86707Y-42871D01*
X86750Y-42871D01*
X86778Y-42857D01*
X86792Y-42842D01*
X87035Y-42714D02*
X86935Y-42714D01*
X86935Y-42871D02*
X86935Y-42571D01*
X87078Y-42571D01*
X85528Y-44871D02*
X85528Y-44571D01*
X85600Y-44571D01*
X85642Y-44585D01*
X85671Y-44614D01*
X85685Y-44642D01*
X85700Y-44700D01*
X85700Y-44742D01*
X85685Y-44800D01*
X85671Y-44828D01*
X85642Y-44857D01*
X85600Y-44871D01*
X85528Y-44871D01*
X85957Y-44671D02*
X85957Y-44871D01*
X85885Y-44557D02*
X85814Y-44771D01*
X86000Y-44771D01*
X87857Y-44371D02*
X87685Y-44371D01*
X87771Y-44371D02*
X87771Y-44071D01*
X87742Y-44114D01*
X87714Y-44142D01*
X87685Y-44157D01*
X87985Y-44371D02*
X87985Y-44071D01*
X88157Y-44371D01*
X88157Y-44071D01*
X88442Y-44071D02*
X88300Y-44071D01*
X88285Y-44214D01*
X88300Y-44200D01*
X88328Y-44185D01*
X88400Y-44185D01*
X88428Y-44200D01*
X88442Y-44214D01*
X88457Y-44242D01*
X88457Y-44314D01*
X88442Y-44342D01*
X88428Y-44357D01*
X88400Y-44371D01*
X88328Y-44371D01*
X88300Y-44357D01*
X88285Y-44342D01*
X88628Y-44200D02*
X88600Y-44185D01*
X88585Y-44171D01*
X88571Y-44142D01*
X88571Y-44128D01*
X88585Y-44100D01*
X88600Y-44085D01*
X88628Y-44071D01*
X88685Y-44071D01*
X88714Y-44085D01*
X88728Y-44100D01*
X88742Y-44128D01*
X88742Y-44142D01*
X88728Y-44171D01*
X88714Y-44185D01*
X88685Y-44200D01*
X88628Y-44200D01*
X88600Y-44214D01*
X88585Y-44228D01*
X88571Y-44257D01*
X88571Y-44314D01*
X88585Y-44342D01*
X88600Y-44357D01*
X88628Y-44371D01*
X88685Y-44371D01*
X88714Y-44357D01*
X88728Y-44342D01*
X88742Y-44314D01*
X88742Y-44257D01*
X88728Y-44228D01*
X88714Y-44214D01*
X88685Y-44200D01*
X89028Y-44371D02*
X88857Y-44371D01*
X88942Y-44371D02*
X88942Y-44071D01*
X88914Y-44114D01*
X88885Y-44142D01*
X88857Y-44157D01*
X89171Y-44371D02*
X89228Y-44371D01*
X89257Y-44357D01*
X89271Y-44342D01*
X89300Y-44300D01*
X89314Y-44242D01*
X89314Y-44128D01*
X89300Y-44100D01*
X89285Y-44085D01*
X89257Y-44071D01*
X89200Y-44071D01*
X89171Y-44085D01*
X89157Y-44100D01*
X89142Y-44128D01*
X89142Y-44200D01*
X89157Y-44228D01*
X89171Y-44242D01*
X89200Y-44257D01*
X89257Y-44257D01*
X89285Y-44242D01*
X89300Y-44228D01*
X89314Y-44200D01*
X91871Y-42721D02*
X91571Y-42721D01*
X91571Y-42650D01*
X91585Y-42607D01*
X91614Y-42578D01*
X91642Y-42564D01*
X91700Y-42550D01*
X91742Y-42550D01*
X91800Y-42564D01*
X91828Y-42578D01*
X91857Y-42607D01*
X91871Y-42650D01*
X91871Y-42721D01*
X91600Y-42435D02*
X91585Y-42421D01*
X91571Y-42392D01*
X91571Y-42321D01*
X91585Y-42292D01*
X91600Y-42278D01*
X91628Y-42264D01*
X91657Y-42264D01*
X91700Y-42278D01*
X91871Y-42450D01*
X91871Y-42264D01*
X91871Y-40892D02*
X91871Y-41064D01*
X91871Y-40978D02*
X91571Y-40978D01*
X91614Y-41007D01*
X91642Y-41035D01*
X91657Y-41064D01*
X91871Y-40764D02*
X91571Y-40764D01*
X91871Y-40592D01*
X91571Y-40592D01*
X91671Y-40321D02*
X91871Y-40321D01*
X91557Y-40392D02*
X91771Y-40464D01*
X91771Y-40278D01*
X91871Y-40007D02*
X91871Y-40178D01*
X91871Y-40092D02*
X91571Y-40092D01*
X91614Y-40121D01*
X91642Y-40150D01*
X91657Y-40178D01*
X91671Y-39750D02*
X91871Y-39750D01*
X91557Y-39821D02*
X91771Y-39892D01*
X91771Y-39707D01*
X91700Y-39550D02*
X91685Y-39578D01*
X91671Y-39592D01*
X91642Y-39607D01*
X91628Y-39607D01*
X91600Y-39592D01*
X91585Y-39578D01*
X91571Y-39550D01*
X91571Y-39492D01*
X91585Y-39464D01*
X91600Y-39450D01*
X91628Y-39435D01*
X91642Y-39435D01*
X91671Y-39450D01*
X91685Y-39464D01*
X91700Y-39492D01*
X91700Y-39550D01*
X91714Y-39578D01*
X91728Y-39592D01*
X91757Y-39607D01*
X91814Y-39607D01*
X91842Y-39592D01*
X91857Y-39578D01*
X91871Y-39550D01*
X91871Y-39492D01*
X91857Y-39464D01*
X91842Y-39450D01*
X91814Y-39435D01*
X91757Y-39435D01*
X91728Y-39450D01*
X91714Y-39464D01*
X91700Y-39492D01*
X89729Y-35742D02*
X89517Y-35530D01*
X89567Y-35479D01*
X89608Y-35459D01*
X89648Y-35459D01*
X89678Y-35469D01*
X89729Y-35500D01*
X89759Y-35530D01*
X89789Y-35580D01*
X89800Y-35611D01*
X89800Y-35651D01*
X89779Y-35691D01*
X89729Y-35742D01*
X90052Y-35419D02*
X89931Y-35540D01*
X89991Y-35479D02*
X89779Y-35267D01*
X89789Y-35318D01*
X89789Y-35358D01*
X89779Y-35388D01*
X88381Y-36040D02*
X88260Y-36161D01*
X88320Y-36101D02*
X88108Y-35888D01*
X88118Y-35939D01*
X88118Y-35979D01*
X88108Y-36010D01*
X88472Y-35949D02*
X88260Y-35737D01*
X88593Y-35828D01*
X88381Y-35616D01*
X88643Y-35494D02*
X88785Y-35636D01*
X88512Y-35464D02*
X88613Y-35666D01*
X88744Y-35535D01*
X89007Y-35414D02*
X88886Y-35535D01*
X88946Y-35474D02*
X88734Y-35262D01*
X88744Y-35313D01*
X88744Y-35353D01*
X88734Y-35383D01*
X89047Y-35090D02*
X89189Y-35232D01*
X88916Y-35060D02*
X89017Y-35262D01*
X89149Y-35131D01*
X89209Y-34969D02*
X89179Y-34979D01*
X89159Y-34979D01*
X89128Y-34969D01*
X89118Y-34959D01*
X89108Y-34929D01*
X89108Y-34909D01*
X89118Y-34878D01*
X89159Y-34838D01*
X89189Y-34828D01*
X89209Y-34828D01*
X89239Y-34838D01*
X89250Y-34848D01*
X89260Y-34878D01*
X89260Y-34898D01*
X89250Y-34929D01*
X89209Y-34969D01*
X89199Y-34999D01*
X89199Y-35020D01*
X89209Y-35050D01*
X89250Y-35090D01*
X89280Y-35100D01*
X89300Y-35100D01*
X89330Y-35090D01*
X89371Y-35050D01*
X89381Y-35020D01*
X89381Y-34999D01*
X89371Y-34969D01*
X89330Y-34929D01*
X89300Y-34919D01*
X89280Y-34919D01*
X89250Y-34929D01*
X93028Y-43621D02*
X93028Y-43321D01*
X93100Y-43321D01*
X93142Y-43335D01*
X93171Y-43364D01*
X93185Y-43392D01*
X93200Y-43450D01*
X93200Y-43492D01*
X93185Y-43550D01*
X93171Y-43578D01*
X93142Y-43607D01*
X93100Y-43621D01*
X93028Y-43621D01*
X93300Y-43321D02*
X93485Y-43321D01*
X93385Y-43435D01*
X93428Y-43435D01*
X93457Y-43450D01*
X93471Y-43464D01*
X93485Y-43492D01*
X93485Y-43564D01*
X93471Y-43592D01*
X93457Y-43607D01*
X93428Y-43621D01*
X93342Y-43621D01*
X93314Y-43607D01*
X93300Y-43592D01*
X92571Y-44071D02*
X92771Y-44071D01*
X92571Y-44371D01*
X92771Y-44371D01*
X92885Y-44214D02*
X92985Y-44214D01*
X93028Y-44371D02*
X92885Y-44371D01*
X92885Y-44071D01*
X93028Y-44071D01*
X93157Y-44371D02*
X93157Y-44071D01*
X93328Y-44371D01*
X93328Y-44071D01*
X93471Y-44214D02*
X93571Y-44214D01*
X93614Y-44371D02*
X93471Y-44371D01*
X93471Y-44071D01*
X93614Y-44071D01*
X93914Y-44371D02*
X93814Y-44228D01*
X93742Y-44371D02*
X93742Y-44071D01*
X93857Y-44071D01*
X93885Y-44085D01*
X93900Y-44100D01*
X93914Y-44128D01*
X93914Y-44171D01*
X93900Y-44200D01*
X93885Y-44214D01*
X93857Y-44228D01*
X93742Y-44228D01*
X81800Y-26121D02*
X81628Y-26090D01*
X81679Y-26242D02*
X81467Y-26030D01*
X81547Y-25949D01*
X81578Y-25939D01*
X81598Y-25939D01*
X81628Y-25949D01*
X81659Y-25979D01*
X81669Y-26010D01*
X81669Y-26030D01*
X81659Y-26060D01*
X81578Y-26141D01*
X81689Y-25848D02*
X81689Y-25828D01*
X81699Y-25797D01*
X81750Y-25747D01*
X81780Y-25737D01*
X81800Y-25737D01*
X81830Y-25747D01*
X81851Y-25767D01*
X81871Y-25808D01*
X81871Y-26050D01*
X82002Y-25919D01*
X82116Y-26131D02*
X82257Y-25989D01*
X82378Y-26292D01*
X82378Y-25868D02*
X82398Y-25848D01*
X82429Y-25838D01*
X82449Y-25838D01*
X82479Y-25848D01*
X82530Y-25878D01*
X82580Y-25929D01*
X82611Y-25979D01*
X82621Y-26010D01*
X82621Y-26030D01*
X82611Y-26060D01*
X82590Y-26080D01*
X82560Y-26090D01*
X82540Y-26090D01*
X82510Y-26080D01*
X82459Y-26050D01*
X82409Y-25999D01*
X82378Y-25949D01*
X82368Y-25919D01*
X82368Y-25898D01*
X82378Y-25868D01*
X82752Y-25919D02*
X82540Y-25707D01*
X82691Y-25818D02*
X82833Y-25838D01*
X82691Y-25696D02*
X82691Y-25858D01*
X78621Y-30300D02*
X78478Y-30400D01*
X78621Y-30471D02*
X78321Y-30471D01*
X78321Y-30357D01*
X78335Y-30328D01*
X78350Y-30314D01*
X78378Y-30300D01*
X78421Y-30300D01*
X78450Y-30314D01*
X78464Y-30328D01*
X78478Y-30357D01*
X78478Y-30471D01*
X78621Y-30014D02*
X78621Y-30185D01*
X78621Y-30100D02*
X78321Y-30100D01*
X78364Y-30128D01*
X78392Y-30157D01*
X78407Y-30185D01*
X79121Y-29950D02*
X79121Y-30121D01*
X79121Y-30035D02*
X78821Y-30035D01*
X78864Y-30064D01*
X78892Y-30092D01*
X78907Y-30121D01*
X78850Y-29835D02*
X78835Y-29821D01*
X78821Y-29792D01*
X78821Y-29721D01*
X78835Y-29692D01*
X78850Y-29678D01*
X78878Y-29664D01*
X78907Y-29664D01*
X78950Y-29678D01*
X79121Y-29850D01*
X79121Y-29664D01*
X78821Y-29478D02*
X78821Y-29450D01*
X78835Y-29421D01*
X78850Y-29407D01*
X78878Y-29392D01*
X78935Y-29378D01*
X79007Y-29378D01*
X79064Y-29392D01*
X79092Y-29407D01*
X79107Y-29421D01*
X79121Y-29450D01*
X79121Y-29478D01*
X79107Y-29507D01*
X79092Y-29521D01*
X79064Y-29535D01*
X79007Y-29550D01*
X78935Y-29550D01*
X78878Y-29535D01*
X78850Y-29521D01*
X78835Y-29507D01*
X78821Y-29478D01*
X90621Y-31300D02*
X90478Y-31400D01*
X90621Y-31471D02*
X90321Y-31471D01*
X90321Y-31357D01*
X90335Y-31328D01*
X90350Y-31314D01*
X90378Y-31300D01*
X90421Y-31300D01*
X90450Y-31314D01*
X90464Y-31328D01*
X90478Y-31357D01*
X90478Y-31471D01*
X90321Y-31200D02*
X90321Y-31014D01*
X90435Y-31114D01*
X90435Y-31071D01*
X90450Y-31042D01*
X90464Y-31028D01*
X90492Y-31014D01*
X90564Y-31014D01*
X90592Y-31028D01*
X90607Y-31042D01*
X90621Y-31071D01*
X90621Y-31157D01*
X90607Y-31185D01*
X90592Y-31200D01*
X90821Y-31114D02*
X90821Y-30914D01*
X91121Y-31042D01*
X90821Y-30742D02*
X90821Y-30714D01*
X90835Y-30685D01*
X90850Y-30671D01*
X90878Y-30657D01*
X90935Y-30642D01*
X91007Y-30642D01*
X91064Y-30657D01*
X91092Y-30671D01*
X91107Y-30685D01*
X91121Y-30714D01*
X91121Y-30742D01*
X91107Y-30771D01*
X91092Y-30785D01*
X91064Y-30799D01*
X91007Y-30814D01*
X90935Y-30814D01*
X90878Y-30799D01*
X90850Y-30785D01*
X90835Y-30771D01*
X90821Y-30742D01*
X91121Y-30514D02*
X90821Y-30514D01*
X91007Y-30485D02*
X91121Y-30400D01*
X90921Y-30400D02*
X91035Y-30514D01*
G54D17*
X95190Y-34051D02*
X95190Y-34253D01*
X95202Y-34277D01*
X95214Y-34289D01*
X95238Y-34301D01*
X95285Y-34301D01*
X95309Y-34289D01*
X95321Y-34277D01*
X95333Y-34253D01*
X95333Y-34051D01*
X95428Y-34051D02*
X95583Y-34051D01*
X95500Y-34146D01*
X95535Y-34146D01*
X95559Y-34158D01*
X95571Y-34170D01*
X95583Y-34194D01*
X95583Y-34253D01*
X95571Y-34277D01*
X95559Y-34289D01*
X95535Y-34301D01*
X95464Y-34301D01*
X95440Y-34289D01*
X95428Y-34277D01*
X95738Y-34051D02*
X95761Y-34051D01*
X95785Y-34063D01*
X95797Y-34075D01*
X95809Y-34098D01*
X95821Y-34146D01*
X95821Y-34205D01*
X95809Y-34253D01*
X95797Y-34277D01*
X95785Y-34289D01*
X95761Y-34301D01*
X95738Y-34301D01*
X95714Y-34289D01*
X95702Y-34277D01*
X95690Y-34253D01*
X95678Y-34205D01*
X95678Y-34146D01*
X95690Y-34098D01*
X95702Y-34075D01*
X95714Y-34063D01*
X95738Y-34051D01*
X94880Y-34901D02*
X94761Y-34901D01*
X94761Y-34651D01*
X94928Y-34651D02*
X95071Y-34651D01*
X95000Y-34901D02*
X95000Y-34651D01*
X95297Y-34877D02*
X95285Y-34889D01*
X95250Y-34901D01*
X95226Y-34901D01*
X95190Y-34889D01*
X95166Y-34865D01*
X95154Y-34841D01*
X95142Y-34794D01*
X95142Y-34758D01*
X95154Y-34710D01*
X95166Y-34686D01*
X95190Y-34663D01*
X95226Y-34651D01*
X95250Y-34651D01*
X95285Y-34663D01*
X95297Y-34675D01*
X95392Y-34675D02*
X95404Y-34663D01*
X95428Y-34651D01*
X95488Y-34651D01*
X95511Y-34663D01*
X95523Y-34675D01*
X95535Y-34698D01*
X95535Y-34722D01*
X95523Y-34758D01*
X95380Y-34901D01*
X95535Y-34901D01*
X95690Y-34651D02*
X95714Y-34651D01*
X95738Y-34663D01*
X95750Y-34675D01*
X95761Y-34698D01*
X95773Y-34746D01*
X95773Y-34805D01*
X95761Y-34853D01*
X95750Y-34877D01*
X95738Y-34889D01*
X95714Y-34901D01*
X95690Y-34901D01*
X95666Y-34889D01*
X95654Y-34877D01*
X95642Y-34853D01*
X95630Y-34805D01*
X95630Y-34746D01*
X95642Y-34698D01*
X95654Y-34675D01*
X95666Y-34663D01*
X95690Y-34651D01*
X96000Y-34651D02*
X95880Y-34651D01*
X95869Y-34770D01*
X95880Y-34758D01*
X95904Y-34746D01*
X95964Y-34746D01*
X95988Y-34758D01*
X96000Y-34770D01*
X96011Y-34794D01*
X96011Y-34853D01*
X96000Y-34877D01*
X95988Y-34889D01*
X95964Y-34901D01*
X95904Y-34901D01*
X95880Y-34889D01*
X95869Y-34877D01*
X96095Y-34651D02*
X96261Y-34651D01*
X96154Y-34901D01*
G54D12*
X91007Y-29121D02*
X90907Y-28978D01*
X90835Y-29121D02*
X90835Y-28821D01*
X90950Y-28821D01*
X90978Y-28835D01*
X90992Y-28850D01*
X91007Y-28878D01*
X91007Y-28921D01*
X90992Y-28950D01*
X90978Y-28964D01*
X90950Y-28978D01*
X90835Y-28978D01*
X91107Y-28821D02*
X91292Y-28821D01*
X91192Y-28935D01*
X91235Y-28935D01*
X91264Y-28950D01*
X91278Y-28964D01*
X91292Y-28992D01*
X91292Y-29064D01*
X91278Y-29092D01*
X91264Y-29107D01*
X91235Y-29121D01*
X91150Y-29121D01*
X91121Y-29107D01*
X91107Y-29092D01*
X91478Y-28821D02*
X91507Y-28821D01*
X91535Y-28835D01*
X91550Y-28850D01*
X91564Y-28878D01*
X91578Y-28935D01*
X91578Y-29007D01*
X91564Y-29064D01*
X91550Y-29092D01*
X91535Y-29107D01*
X91507Y-29121D01*
X91478Y-29121D01*
X91450Y-29107D01*
X91435Y-29092D01*
X91421Y-29064D01*
X91407Y-29007D01*
X91407Y-28935D01*
X91421Y-28878D01*
X91435Y-28850D01*
X91450Y-28835D01*
X91478Y-28821D01*
X92621Y-29121D02*
X92450Y-29121D01*
X92535Y-29121D02*
X92535Y-28821D01*
X92507Y-28864D01*
X92478Y-28892D01*
X92450Y-28907D01*
X92807Y-28821D02*
X92835Y-28821D01*
X92864Y-28835D01*
X92878Y-28850D01*
X92892Y-28878D01*
X92907Y-28935D01*
X92907Y-29007D01*
X92892Y-29064D01*
X92878Y-29092D01*
X92864Y-29107D01*
X92835Y-29121D01*
X92807Y-29121D01*
X92778Y-29107D01*
X92764Y-29092D01*
X92750Y-29064D01*
X92735Y-29007D01*
X92735Y-28935D01*
X92750Y-28878D01*
X92764Y-28850D01*
X92778Y-28835D01*
X92807Y-28821D01*
X93035Y-29121D02*
X93035Y-28821D01*
X93064Y-29007D02*
X93150Y-29121D01*
X93150Y-28921D02*
X93035Y-29035D01*
X95607Y-30121D02*
X95507Y-29978D01*
X95435Y-30121D02*
X95435Y-29821D01*
X95550Y-29821D01*
X95578Y-29835D01*
X95592Y-29850D01*
X95607Y-29878D01*
X95607Y-29921D01*
X95592Y-29950D01*
X95578Y-29964D01*
X95550Y-29978D01*
X95435Y-29978D01*
X95707Y-29821D02*
X95892Y-29821D01*
X95792Y-29935D01*
X95835Y-29935D01*
X95864Y-29950D01*
X95878Y-29964D01*
X95892Y-29992D01*
X95892Y-30064D01*
X95878Y-30092D01*
X95864Y-30107D01*
X95835Y-30121D01*
X95750Y-30121D01*
X95721Y-30107D01*
X95707Y-30092D01*
X96178Y-30121D02*
X96007Y-30121D01*
X96092Y-30121D02*
X96092Y-29821D01*
X96064Y-29864D01*
X96035Y-29892D01*
X96007Y-29907D01*
X94021Y-30121D02*
X93850Y-30121D01*
X93935Y-30121D02*
X93935Y-29821D01*
X93907Y-29864D01*
X93878Y-29892D01*
X93850Y-29907D01*
X94207Y-29821D02*
X94235Y-29821D01*
X94264Y-29835D01*
X94278Y-29850D01*
X94292Y-29878D01*
X94307Y-29935D01*
X94307Y-30007D01*
X94292Y-30064D01*
X94278Y-30092D01*
X94264Y-30107D01*
X94235Y-30121D01*
X94207Y-30121D01*
X94178Y-30107D01*
X94164Y-30092D01*
X94150Y-30064D01*
X94135Y-30007D01*
X94135Y-29935D01*
X94150Y-29878D01*
X94164Y-29850D01*
X94178Y-29835D01*
X94207Y-29821D01*
X94435Y-30121D02*
X94435Y-29821D01*
X94464Y-30007D02*
X94550Y-30121D01*
X94550Y-29921D02*
X94435Y-30035D01*
X93121Y-32392D02*
X92978Y-32492D01*
X93121Y-32564D02*
X92821Y-32564D01*
X92821Y-32450D01*
X92835Y-32421D01*
X92850Y-32407D01*
X92878Y-32392D01*
X92921Y-32392D01*
X92950Y-32407D01*
X92964Y-32421D01*
X92978Y-32450D01*
X92978Y-32564D01*
X92821Y-32292D02*
X92821Y-32107D01*
X92935Y-32207D01*
X92935Y-32164D01*
X92950Y-32135D01*
X92964Y-32121D01*
X92992Y-32107D01*
X93064Y-32107D01*
X93092Y-32121D01*
X93107Y-32135D01*
X93121Y-32164D01*
X93121Y-32250D01*
X93107Y-32278D01*
X93092Y-32292D01*
X92850Y-31992D02*
X92835Y-31978D01*
X92821Y-31950D01*
X92821Y-31878D01*
X92835Y-31850D01*
X92850Y-31835D01*
X92878Y-31821D01*
X92907Y-31821D01*
X92950Y-31835D01*
X93121Y-32007D01*
X93121Y-31821D01*
X92850Y-34178D02*
X92835Y-34164D01*
X92821Y-34135D01*
X92821Y-34064D01*
X92835Y-34035D01*
X92850Y-34021D01*
X92878Y-34007D01*
X92907Y-34007D01*
X92950Y-34021D01*
X93121Y-34192D01*
X93121Y-34007D01*
X92850Y-33892D02*
X92835Y-33878D01*
X92821Y-33850D01*
X92821Y-33778D01*
X92835Y-33750D01*
X92850Y-33735D01*
X92878Y-33721D01*
X92907Y-33721D01*
X92950Y-33735D01*
X93121Y-33907D01*
X93121Y-33721D01*
X93121Y-33421D02*
X92978Y-33521D01*
X93121Y-33592D02*
X92821Y-33592D01*
X92821Y-33478D01*
X92835Y-33450D01*
X92850Y-33435D01*
X92878Y-33421D01*
X92921Y-33421D01*
X92950Y-33435D01*
X92964Y-33450D01*
X92978Y-33478D01*
X92978Y-33592D01*
X97192Y-31192D02*
X97207Y-31207D01*
X97221Y-31250D01*
X97221Y-31278D01*
X97207Y-31321D01*
X97178Y-31350D01*
X97150Y-31364D01*
X97092Y-31378D01*
X97050Y-31378D01*
X96992Y-31364D01*
X96964Y-31350D01*
X96935Y-31321D01*
X96921Y-31278D01*
X96921Y-31250D01*
X96935Y-31207D01*
X96950Y-31192D01*
X96921Y-31092D02*
X96921Y-30907D01*
X97035Y-31007D01*
X97035Y-30964D01*
X97050Y-30935D01*
X97064Y-30921D01*
X97092Y-30907D01*
X97164Y-30907D01*
X97192Y-30921D01*
X97207Y-30935D01*
X97221Y-30964D01*
X97221Y-31050D01*
X97207Y-31078D01*
X97192Y-31092D01*
X96921Y-30721D02*
X96921Y-30692D01*
X96935Y-30664D01*
X96950Y-30650D01*
X96978Y-30635D01*
X97035Y-30621D01*
X97107Y-30621D01*
X97164Y-30635D01*
X97192Y-30650D01*
X97207Y-30664D01*
X97221Y-30692D01*
X97221Y-30721D01*
X97207Y-30750D01*
X97192Y-30764D01*
X97164Y-30778D01*
X97107Y-30792D01*
X97035Y-30792D01*
X96978Y-30778D01*
X96950Y-30764D01*
X96935Y-30750D01*
X96921Y-30721D01*
X94757Y-30821D02*
X94785Y-30821D01*
X94814Y-30835D01*
X94828Y-30850D01*
X94842Y-30878D01*
X94857Y-30935D01*
X94857Y-31007D01*
X94842Y-31064D01*
X94828Y-31092D01*
X94814Y-31107D01*
X94785Y-31121D01*
X94757Y-31121D01*
X94728Y-31107D01*
X94714Y-31092D01*
X94700Y-31064D01*
X94685Y-31007D01*
X94685Y-30935D01*
X94700Y-30878D01*
X94714Y-30850D01*
X94728Y-30835D01*
X94757Y-30821D01*
X94985Y-31092D02*
X95000Y-31107D01*
X94985Y-31121D01*
X94971Y-31107D01*
X94985Y-31092D01*
X94985Y-31121D01*
X95285Y-31121D02*
X95114Y-31121D01*
X95200Y-31121D02*
X95200Y-30821D01*
X95171Y-30864D01*
X95142Y-30892D01*
X95114Y-30907D01*
X95542Y-30921D02*
X95542Y-31121D01*
X95414Y-30921D02*
X95414Y-31078D01*
X95428Y-31107D01*
X95457Y-31121D01*
X95500Y-31121D01*
X95528Y-31107D01*
X95542Y-31092D01*
X95785Y-30964D02*
X95685Y-30964D01*
X95685Y-31121D02*
X95685Y-30821D01*
X95828Y-30821D01*
X97192Y-32192D02*
X97207Y-32207D01*
X97221Y-32250D01*
X97221Y-32278D01*
X97207Y-32321D01*
X97178Y-32350D01*
X97150Y-32364D01*
X97092Y-32378D01*
X97050Y-32378D01*
X96992Y-32364D01*
X96964Y-32350D01*
X96935Y-32321D01*
X96921Y-32278D01*
X96921Y-32250D01*
X96935Y-32207D01*
X96950Y-32192D01*
X96921Y-32092D02*
X96921Y-31907D01*
X97035Y-32007D01*
X97035Y-31964D01*
X97050Y-31935D01*
X97064Y-31921D01*
X97092Y-31907D01*
X97164Y-31907D01*
X97192Y-31921D01*
X97207Y-31935D01*
X97221Y-31964D01*
X97221Y-32050D01*
X97207Y-32078D01*
X97192Y-32092D01*
X97221Y-31621D02*
X97221Y-31792D01*
X97221Y-31707D02*
X96921Y-31707D01*
X96964Y-31735D01*
X96992Y-31764D01*
X97007Y-31792D01*
X94928Y-32121D02*
X94757Y-32121D01*
X94842Y-32121D02*
X94842Y-31821D01*
X94814Y-31864D01*
X94785Y-31892D01*
X94757Y-31907D01*
X95114Y-31821D02*
X95142Y-31821D01*
X95171Y-31835D01*
X95185Y-31850D01*
X95200Y-31878D01*
X95214Y-31935D01*
X95214Y-32007D01*
X95200Y-32064D01*
X95185Y-32092D01*
X95171Y-32107D01*
X95142Y-32121D01*
X95114Y-32121D01*
X95085Y-32107D01*
X95071Y-32092D01*
X95057Y-32064D01*
X95042Y-32007D01*
X95042Y-31935D01*
X95057Y-31878D01*
X95071Y-31850D01*
X95085Y-31835D01*
X95114Y-31821D01*
X95342Y-31921D02*
X95342Y-32121D01*
X95342Y-31950D02*
X95357Y-31935D01*
X95385Y-31921D01*
X95428Y-31921D01*
X95457Y-31935D01*
X95471Y-31964D01*
X95471Y-32121D01*
X95714Y-31964D02*
X95614Y-31964D01*
X95614Y-32121D02*
X95614Y-31821D01*
X95757Y-31821D01*
X95307Y-37692D02*
X95292Y-37707D01*
X95250Y-37721D01*
X95221Y-37721D01*
X95178Y-37707D01*
X95150Y-37678D01*
X95135Y-37650D01*
X95121Y-37592D01*
X95121Y-37550D01*
X95135Y-37492D01*
X95150Y-37464D01*
X95178Y-37435D01*
X95221Y-37421D01*
X95250Y-37421D01*
X95292Y-37435D01*
X95307Y-37450D01*
X95407Y-37421D02*
X95592Y-37421D01*
X95492Y-37535D01*
X95535Y-37535D01*
X95564Y-37550D01*
X95578Y-37564D01*
X95592Y-37592D01*
X95592Y-37664D01*
X95578Y-37692D01*
X95564Y-37707D01*
X95535Y-37721D01*
X95450Y-37721D01*
X95421Y-37707D01*
X95407Y-37692D01*
X95692Y-37421D02*
X95878Y-37421D01*
X95778Y-37535D01*
X95821Y-37535D01*
X95850Y-37550D01*
X95864Y-37564D01*
X95878Y-37592D01*
X95878Y-37664D01*
X95864Y-37692D01*
X95850Y-37707D01*
X95821Y-37721D01*
X95735Y-37721D01*
X95707Y-37707D01*
X95692Y-37692D01*
X95007Y-36571D02*
X95035Y-36571D01*
X95064Y-36585D01*
X95078Y-36600D01*
X95092Y-36628D01*
X95107Y-36685D01*
X95107Y-36757D01*
X95092Y-36814D01*
X95078Y-36842D01*
X95064Y-36857D01*
X95035Y-36871D01*
X95007Y-36871D01*
X94978Y-36857D01*
X94964Y-36842D01*
X94950Y-36814D01*
X94935Y-36757D01*
X94935Y-36685D01*
X94950Y-36628D01*
X94964Y-36600D01*
X94978Y-36585D01*
X95007Y-36571D01*
X95235Y-36842D02*
X95250Y-36857D01*
X95235Y-36871D01*
X95221Y-36857D01*
X95235Y-36842D01*
X95235Y-36871D01*
X95535Y-36871D02*
X95364Y-36871D01*
X95450Y-36871D02*
X95450Y-36571D01*
X95421Y-36614D01*
X95392Y-36642D01*
X95364Y-36657D01*
X95792Y-36671D02*
X95792Y-36871D01*
X95664Y-36671D02*
X95664Y-36828D01*
X95678Y-36857D01*
X95707Y-36871D01*
X95750Y-36871D01*
X95778Y-36857D01*
X95792Y-36842D01*
X96035Y-36714D02*
X95935Y-36714D01*
X95935Y-36871D02*
X95935Y-36571D01*
X96078Y-36571D01*
M02*
