G04 (created by PCBNEW (22-Jun-2014 BZR 4027)-stable) date Fri 29 Dec 2017 04:16:52 AM CST*
%MOIN*%
G04 Gerber Fmt 3.4, Leading zero omitted, Abs format*
%FSLAX34Y34*%
G01*
G70*
G90*
G04 APERTURE LIST*
%ADD10C,0.00590551*%
%ADD11O,0.0885X0.059*%
%ADD12O,0.059X0.059*%
%ADD13C,0.059*%
%ADD14C,0.05*%
%ADD15R,0.059X0.059*%
%ADD16O,0.069X0.069*%
%ADD17C,0.23622*%
%ADD18C,0.059*%
%ADD19R,0.069X0.069*%
%ADD20C,0.069*%
%ADD21C,0.04*%
%ADD22C,0.035*%
%ADD23C,0.03*%
%ADD24C,0.01*%
G04 APERTURE END LIST*
G54D10*
G54D11*
X95852Y-43250D03*
X96647Y-43750D03*
X95852Y-44250D03*
G54D12*
X92750Y-38250D03*
X92750Y-42250D03*
X93750Y-42250D03*
X93750Y-38250D03*
X83000Y-38000D03*
X87000Y-38000D03*
X83750Y-28250D03*
X87750Y-28250D03*
G54D13*
X81250Y-39750D02*
X81250Y-39750D01*
X78421Y-36921D02*
X78421Y-36921D01*
G54D14*
X85042Y-31792D03*
X86457Y-31792D03*
X86739Y-32500D03*
X85750Y-31510D03*
X86457Y-33207D03*
X85750Y-33489D03*
X85042Y-33207D03*
X84760Y-32500D03*
G54D15*
X90500Y-38750D03*
G54D12*
X89500Y-38750D03*
X88500Y-38750D03*
X87500Y-38750D03*
X87500Y-41750D03*
X88500Y-41750D03*
X90500Y-41750D03*
X89500Y-41750D03*
G54D16*
X83000Y-44500D03*
X82000Y-44500D03*
G54D17*
X95750Y-27250D03*
G54D18*
X80292Y-36542D03*
X81707Y-37957D03*
X81000Y-37250D03*
X94750Y-40750D03*
X96750Y-40750D03*
X91500Y-36500D03*
X89500Y-36500D03*
X85250Y-41250D03*
X85250Y-39250D03*
X86250Y-41250D03*
X86250Y-39250D03*
X88500Y-42750D03*
X90500Y-42750D03*
X81792Y-35042D03*
X83207Y-36457D03*
X81250Y-31500D03*
X81250Y-33500D03*
X96750Y-39750D03*
X94750Y-39750D03*
X90500Y-37750D03*
X88500Y-37750D03*
X87500Y-42750D03*
X85500Y-42750D03*
G54D16*
X85750Y-36750D03*
G54D19*
X90500Y-44250D03*
G54D16*
X86500Y-44250D03*
G54D15*
X91750Y-38750D03*
G54D12*
X91750Y-41750D03*
G54D10*
G36*
X87689Y-36143D02*
X88106Y-36560D01*
X87689Y-36977D01*
X87272Y-36560D01*
X87689Y-36143D01*
X87689Y-36143D01*
G37*
G54D13*
X89810Y-34439D02*
X89810Y-34439D01*
G54D15*
X91750Y-44250D03*
G54D12*
X94750Y-44250D03*
G54D18*
X82133Y-27366D03*
X80719Y-28780D03*
X81780Y-27719D03*
X79500Y-31250D03*
X79500Y-33250D03*
X79500Y-31750D03*
X91500Y-32250D03*
X91500Y-34250D03*
X91500Y-32750D03*
G54D19*
X78500Y-41000D03*
G54D20*
X78500Y-40000D03*
G54D17*
X79750Y-43250D03*
G54D16*
X85750Y-27000D03*
G54D12*
X90000Y-29000D03*
X94000Y-29000D03*
X97000Y-30000D03*
X93000Y-30000D03*
X93000Y-31000D03*
X93000Y-35000D03*
G54D18*
X94250Y-31000D03*
X96250Y-31000D03*
X96250Y-32000D03*
X94250Y-32000D03*
X96500Y-36750D03*
X94500Y-36750D03*
G54D16*
X93000Y-36000D03*
G54D21*
X89150Y-32500D03*
X82350Y-32500D03*
X88150Y-30100D03*
X83350Y-30100D03*
X88150Y-34900D03*
X83350Y-34900D03*
X85750Y-29000D03*
G54D22*
X96500Y-37500D03*
G54D21*
X93750Y-33250D03*
X85750Y-35900D03*
G54D23*
X89500Y-41000D02*
X89750Y-41000D01*
X87500Y-41000D02*
X89500Y-41000D01*
X86250Y-41250D02*
X87500Y-41000D01*
X89750Y-41000D02*
X90500Y-41750D01*
X90500Y-41750D02*
X91000Y-42250D01*
X91000Y-43250D02*
X90500Y-44250D01*
X91250Y-42750D02*
X91000Y-43250D01*
X91000Y-42250D02*
X91250Y-42750D01*
X90500Y-44250D02*
X91750Y-44250D01*
X78500Y-41000D02*
X79750Y-43250D01*
X96000Y-39750D02*
X94250Y-37500D01*
X92250Y-34250D02*
X92250Y-36642D01*
X92250Y-34250D02*
X91750Y-33500D01*
X94250Y-37500D02*
X92250Y-36642D01*
X96000Y-40750D02*
X96750Y-40750D01*
X96000Y-43250D02*
X96000Y-40750D01*
X96000Y-40750D02*
X96000Y-39750D01*
X96000Y-39750D02*
X96750Y-39750D01*
X91750Y-33500D02*
X92250Y-33000D01*
X92250Y-33000D02*
X92250Y-32000D01*
X92250Y-32000D02*
X87750Y-28250D01*
G54D24*
X86739Y-32500D02*
X89150Y-32500D01*
G54D23*
X89150Y-32500D02*
X90500Y-32750D01*
X91250Y-33500D02*
X91750Y-33500D01*
X90500Y-32750D02*
X91250Y-33500D01*
G54D24*
X89250Y-32500D02*
X89150Y-32500D01*
G54D23*
X97000Y-30000D02*
X97000Y-31250D01*
X97000Y-31250D02*
X96250Y-32000D01*
X82350Y-32500D02*
X80719Y-28780D01*
G54D24*
X84760Y-32500D02*
X82350Y-32500D01*
G54D23*
X84500Y-39500D02*
X85250Y-41250D01*
X82750Y-35000D02*
X84030Y-36217D01*
X84030Y-36217D02*
X84500Y-39500D01*
X82350Y-32500D02*
X82750Y-35000D01*
X87500Y-41750D02*
X86000Y-42000D01*
X86000Y-42000D02*
X85250Y-41250D01*
X87500Y-41750D02*
X85500Y-42750D01*
X90500Y-42750D02*
X89500Y-41750D01*
X81250Y-39750D02*
X85000Y-43500D01*
X86000Y-43500D02*
X87500Y-42750D01*
X85000Y-43500D02*
X86000Y-43500D01*
X88500Y-41750D02*
X87500Y-42750D01*
X88500Y-41750D02*
X88500Y-42750D01*
X93750Y-42250D02*
X94750Y-40750D01*
X90500Y-38750D02*
X91250Y-39500D01*
X92250Y-39500D02*
X92750Y-38250D01*
X91250Y-39500D02*
X92250Y-39500D01*
X94750Y-44250D02*
X96000Y-44250D01*
X95250Y-43750D02*
X92750Y-42750D01*
G54D24*
X96500Y-43750D02*
X95250Y-43750D01*
G54D23*
X92750Y-42750D02*
X92750Y-42250D01*
X90500Y-37750D02*
X92500Y-37500D01*
X93000Y-37500D02*
X93750Y-38250D01*
X92500Y-37500D02*
X93000Y-37500D01*
X93750Y-38250D02*
X94750Y-39750D01*
G54D24*
X87000Y-38000D02*
X87750Y-38250D01*
X88750Y-39250D02*
X89500Y-38750D01*
X88250Y-39250D02*
X88750Y-39250D01*
X88000Y-39000D02*
X88250Y-39250D01*
X88000Y-38500D02*
X88000Y-39000D01*
X87750Y-38250D02*
X88000Y-38500D01*
G54D23*
X89500Y-38750D02*
X89750Y-38000D01*
X89750Y-38000D02*
X90500Y-37750D01*
G54D24*
X86457Y-31792D02*
X88150Y-30100D01*
G54D23*
X83000Y-44500D02*
X86250Y-44500D01*
X86250Y-44500D02*
X86500Y-44250D01*
X79500Y-31750D02*
X78750Y-32750D01*
X78750Y-32750D02*
X78750Y-33750D01*
X78750Y-33750D02*
X78421Y-36921D01*
G54D24*
X85042Y-31792D02*
X83350Y-30100D01*
X83350Y-30100D02*
X83400Y-30100D01*
G54D23*
X79500Y-31750D02*
X79500Y-31250D01*
G54D24*
X86457Y-33207D02*
X88150Y-34900D01*
G54D23*
X91500Y-34250D02*
X91500Y-36500D01*
X88150Y-34900D02*
X89750Y-35250D01*
X90000Y-35250D02*
X91500Y-34250D01*
X89750Y-35250D02*
X90000Y-35250D01*
X88500Y-37750D02*
X89750Y-37250D01*
X89750Y-37250D02*
X91500Y-36500D01*
X88500Y-38750D02*
X88500Y-37750D01*
G54D24*
X88150Y-34900D02*
X88250Y-35000D01*
G54D23*
X81000Y-37250D02*
X82000Y-37250D01*
X82000Y-37250D02*
X83000Y-38000D01*
G54D24*
X83350Y-34900D02*
X85042Y-33207D01*
G54D23*
X81000Y-37250D02*
X81792Y-35042D01*
X94000Y-29000D02*
X94250Y-31000D01*
X93000Y-31000D02*
X94250Y-32000D01*
X93000Y-30000D02*
X93000Y-31000D01*
X93000Y-35000D02*
X93000Y-36000D01*
X85750Y-29000D02*
X83750Y-29000D01*
X83750Y-29000D02*
X83250Y-28750D01*
X83250Y-28750D02*
X81780Y-27719D01*
X81780Y-27719D02*
X82133Y-27366D01*
X85750Y-29000D02*
X85750Y-27000D01*
X91500Y-32250D02*
X91500Y-32750D01*
X85750Y-29000D02*
X88250Y-29500D01*
X88250Y-29500D02*
X91500Y-32250D01*
G54D24*
X85750Y-31510D02*
X85750Y-29000D01*
X94500Y-36750D02*
X96500Y-37500D01*
G54D23*
X94750Y-32500D02*
X96250Y-31000D01*
X94750Y-32500D02*
X94000Y-32750D01*
X93750Y-33250D02*
X94000Y-32750D01*
X78500Y-40000D02*
X81000Y-42000D01*
X81000Y-42000D02*
X82000Y-44500D01*
G54D24*
X85750Y-36750D02*
X85750Y-35900D01*
X85750Y-35900D02*
X85750Y-33489D01*
X85750Y-36750D02*
X86474Y-37060D01*
G54D23*
X86474Y-37060D02*
X87500Y-37500D01*
X87500Y-37500D02*
X88000Y-37250D01*
X88000Y-37250D02*
X89500Y-36500D01*
G54D24*
X85750Y-36750D02*
X86060Y-37474D01*
G54D23*
X86060Y-37474D02*
X86500Y-38500D01*
X86500Y-38500D02*
X87500Y-38750D01*
G54D24*
X85750Y-36750D02*
X86492Y-36677D01*
G54D23*
X86492Y-36677D02*
X87689Y-36560D01*
X85250Y-39250D02*
X85596Y-37519D01*
G54D24*
X85596Y-37519D02*
X85750Y-36750D01*
G54D23*
X86250Y-39250D02*
X86250Y-39250D01*
X86250Y-39250D02*
X87500Y-38750D01*
G54D24*
X86250Y-39250D02*
X87500Y-38750D01*
M02*
