G04 (created by PCBNEW (22-Jun-2014 BZR 4027)-stable) date Thu 15 Feb 2018 06:12:31 PM CST*
%MOIN*%
G04 Gerber Fmt 3.4, Leading zero omitted, Abs format*
%FSLAX34Y34*%
G01*
G70*
G90*
G04 APERTURE LIST*
%ADD10C,0.00590551*%
%ADD11C,0.00787402*%
%ADD12C,0.006*%
G04 APERTURE END LIST*
G54D10*
G54D11*
X89150Y-32500D02*
G75*
G03X89150Y-32500I-3400J0D01*
G74*
G01*
G54D12*
X93450Y-26871D02*
X93450Y-27114D01*
X93464Y-27142D01*
X93478Y-27157D01*
X93507Y-27171D01*
X93550Y-27171D01*
X93578Y-27157D01*
X93450Y-27057D02*
X93478Y-27071D01*
X93535Y-27071D01*
X93564Y-27057D01*
X93578Y-27042D01*
X93592Y-27014D01*
X93592Y-26928D01*
X93578Y-26900D01*
X93564Y-26885D01*
X93535Y-26871D01*
X93478Y-26871D01*
X93450Y-26885D01*
X93307Y-27071D02*
X93307Y-26871D01*
X93307Y-26771D02*
X93321Y-26785D01*
X93307Y-26800D01*
X93292Y-26785D01*
X93307Y-26771D01*
X93307Y-26800D01*
X93207Y-26871D02*
X93092Y-26871D01*
X93164Y-26771D02*
X93164Y-27028D01*
X93150Y-27057D01*
X93121Y-27071D01*
X93092Y-27071D01*
X92992Y-27071D02*
X92992Y-26771D01*
X92864Y-27071D02*
X92864Y-26914D01*
X92878Y-26885D01*
X92907Y-26871D01*
X92949Y-26871D01*
X92978Y-26885D01*
X92992Y-26900D01*
X92592Y-26871D02*
X92592Y-27071D01*
X92721Y-26871D02*
X92721Y-27028D01*
X92707Y-27057D01*
X92678Y-27071D01*
X92635Y-27071D01*
X92607Y-27057D01*
X92592Y-27042D01*
X92449Y-27071D02*
X92449Y-26771D01*
X92449Y-26885D02*
X92421Y-26871D01*
X92364Y-26871D01*
X92335Y-26885D01*
X92321Y-26900D01*
X92307Y-26928D01*
X92307Y-27014D01*
X92321Y-27042D01*
X92335Y-27057D01*
X92364Y-27071D01*
X92421Y-27071D01*
X92449Y-27057D01*
X92178Y-27042D02*
X92164Y-27057D01*
X92178Y-27071D01*
X92192Y-27057D01*
X92178Y-27042D01*
X92178Y-27071D01*
X91907Y-27057D02*
X91935Y-27071D01*
X91992Y-27071D01*
X92021Y-27057D01*
X92035Y-27042D01*
X92049Y-27014D01*
X92049Y-26928D01*
X92035Y-26900D01*
X92021Y-26885D01*
X91992Y-26871D01*
X91935Y-26871D01*
X91907Y-26885D01*
X91735Y-27071D02*
X91764Y-27057D01*
X91778Y-27042D01*
X91792Y-27014D01*
X91792Y-26928D01*
X91778Y-26900D01*
X91764Y-26885D01*
X91735Y-26871D01*
X91692Y-26871D01*
X91664Y-26885D01*
X91649Y-26900D01*
X91635Y-26928D01*
X91635Y-27014D01*
X91649Y-27042D01*
X91664Y-27057D01*
X91692Y-27071D01*
X91735Y-27071D01*
X91507Y-27071D02*
X91507Y-26871D01*
X91507Y-26900D02*
X91492Y-26885D01*
X91464Y-26871D01*
X91421Y-26871D01*
X91392Y-26885D01*
X91378Y-26914D01*
X91378Y-27071D01*
X91378Y-26914D02*
X91364Y-26885D01*
X91335Y-26871D01*
X91292Y-26871D01*
X91264Y-26885D01*
X91249Y-26914D01*
X91249Y-27071D01*
X90892Y-26757D02*
X91149Y-27142D01*
X90792Y-26871D02*
X90792Y-27171D01*
X90792Y-26885D02*
X90764Y-26871D01*
X90707Y-26871D01*
X90678Y-26885D01*
X90664Y-26900D01*
X90649Y-26928D01*
X90649Y-27014D01*
X90664Y-27042D01*
X90678Y-27057D01*
X90707Y-27071D01*
X90764Y-27071D01*
X90792Y-27057D01*
X90407Y-27057D02*
X90435Y-27071D01*
X90492Y-27071D01*
X90521Y-27057D01*
X90535Y-27028D01*
X90535Y-26914D01*
X90521Y-26885D01*
X90492Y-26871D01*
X90435Y-26871D01*
X90407Y-26885D01*
X90392Y-26914D01*
X90392Y-26942D01*
X90535Y-26971D01*
X90264Y-26871D02*
X90264Y-27171D01*
X90264Y-26885D02*
X90235Y-26871D01*
X90178Y-26871D01*
X90149Y-26885D01*
X90135Y-26900D01*
X90121Y-26928D01*
X90121Y-27014D01*
X90135Y-27042D01*
X90149Y-27057D01*
X90178Y-27071D01*
X90235Y-27071D01*
X90264Y-27057D01*
X89864Y-27071D02*
X89864Y-26914D01*
X89878Y-26885D01*
X89907Y-26871D01*
X89964Y-26871D01*
X89992Y-26885D01*
X89864Y-27057D02*
X89892Y-27071D01*
X89964Y-27071D01*
X89992Y-27057D01*
X90007Y-27028D01*
X90007Y-27000D01*
X89992Y-26971D01*
X89964Y-26957D01*
X89892Y-26957D01*
X89864Y-26942D01*
X89735Y-27057D02*
X89707Y-27071D01*
X89649Y-27071D01*
X89621Y-27057D01*
X89607Y-27028D01*
X89607Y-27014D01*
X89621Y-26985D01*
X89649Y-26971D01*
X89692Y-26971D01*
X89721Y-26957D01*
X89735Y-26928D01*
X89735Y-26914D01*
X89721Y-26885D01*
X89692Y-26871D01*
X89649Y-26871D01*
X89621Y-26885D01*
X89435Y-27071D02*
X89464Y-27057D01*
X89478Y-27028D01*
X89478Y-26771D01*
X89192Y-27071D02*
X89192Y-26914D01*
X89207Y-26885D01*
X89235Y-26871D01*
X89292Y-26871D01*
X89321Y-26885D01*
X89192Y-27057D02*
X89221Y-27071D01*
X89292Y-27071D01*
X89321Y-27057D01*
X89335Y-27028D01*
X89335Y-27000D01*
X89321Y-26971D01*
X89292Y-26957D01*
X89221Y-26957D01*
X89192Y-26942D01*
X89049Y-27071D02*
X89049Y-26771D01*
X89049Y-26885D02*
X89021Y-26871D01*
X88964Y-26871D01*
X88935Y-26885D01*
X88921Y-26900D01*
X88907Y-26928D01*
X88907Y-27014D01*
X88921Y-27042D01*
X88935Y-27057D01*
X88964Y-27071D01*
X89021Y-27071D01*
X89049Y-27057D01*
X88792Y-27057D02*
X88764Y-27071D01*
X88707Y-27071D01*
X88678Y-27057D01*
X88664Y-27028D01*
X88664Y-27014D01*
X88678Y-26985D01*
X88707Y-26971D01*
X88749Y-26971D01*
X88778Y-26957D01*
X88792Y-26928D01*
X88792Y-26914D01*
X88778Y-26885D01*
X88749Y-26871D01*
X88707Y-26871D01*
X88678Y-26885D01*
X88321Y-26757D02*
X88578Y-27142D01*
X88221Y-26871D02*
X88221Y-27171D01*
X88221Y-26885D02*
X88192Y-26871D01*
X88135Y-26871D01*
X88107Y-26885D01*
X88092Y-26900D01*
X88078Y-26928D01*
X88078Y-27014D01*
X88092Y-27042D01*
X88107Y-27057D01*
X88135Y-27071D01*
X88192Y-27071D01*
X88221Y-27057D01*
X87978Y-27071D02*
X87821Y-26871D01*
X87978Y-26871D02*
X87821Y-27071D01*
X87707Y-26957D02*
X87478Y-26957D01*
X87335Y-27071D02*
X87335Y-26871D01*
X87335Y-26928D02*
X87321Y-26900D01*
X87307Y-26885D01*
X87278Y-26871D01*
X87249Y-26871D01*
X87035Y-27057D02*
X87064Y-27071D01*
X87121Y-27071D01*
X87149Y-27057D01*
X87164Y-27028D01*
X87164Y-26914D01*
X87149Y-26885D01*
X87121Y-26871D01*
X87064Y-26871D01*
X87035Y-26885D01*
X87021Y-26914D01*
X87021Y-26942D01*
X87164Y-26971D01*
X86935Y-26871D02*
X86821Y-26871D01*
X86892Y-27071D02*
X86892Y-26814D01*
X86878Y-26785D01*
X86849Y-26771D01*
X86821Y-26771D01*
M02*
