G04 (created by PCBNEW (22-Jun-2014 BZR 4027)-stable) date Thu 15 Feb 2018 06:12:31 PM CST*
%MOIN*%
G04 Gerber Fmt 3.4, Leading zero omitted, Abs format*
%FSLAX34Y34*%
G01*
G70*
G90*
G04 APERTURE LIST*
%ADD10C,0.00590551*%
%ADD11O,0.0885X0.059*%
%ADD12O,0.059X0.059*%
%ADD13C,0.059*%
%ADD14C,0.05*%
%ADD15R,0.059X0.059*%
%ADD16O,0.069X0.069*%
%ADD17C,0.23622*%
%ADD18C,0.059*%
%ADD19R,0.069X0.069*%
%ADD20C,0.325*%
%ADD21R,0.019X0.07*%
%ADD22O,0.058X0.058*%
G04 APERTURE END LIST*
G54D10*
G54D11*
X95852Y-43250D03*
X96647Y-43750D03*
X95852Y-44250D03*
G54D12*
X92750Y-38250D03*
X92750Y-42250D03*
X93750Y-42250D03*
X93750Y-38250D03*
X83000Y-38000D03*
X87000Y-38000D03*
X83750Y-28250D03*
X87750Y-28250D03*
G54D13*
X84200Y-42050D02*
X84200Y-42050D01*
X80441Y-40681D02*
X80441Y-40681D01*
G54D14*
X85042Y-31792D03*
X86457Y-31792D03*
X86739Y-32500D03*
X85750Y-31510D03*
X86457Y-33207D03*
X85750Y-33489D03*
X85042Y-33207D03*
X84760Y-32500D03*
G54D15*
X90500Y-38750D03*
G54D12*
X89500Y-38750D03*
X88500Y-38750D03*
X87500Y-38750D03*
X87500Y-41750D03*
X88500Y-41750D03*
X90500Y-41750D03*
X89500Y-41750D03*
G54D16*
X83000Y-44000D03*
X82000Y-44000D03*
G54D17*
X95500Y-28250D03*
G54D18*
X94750Y-40750D03*
X96750Y-40750D03*
X91500Y-36500D03*
X89500Y-36500D03*
X85250Y-41250D03*
X85250Y-39250D03*
X86250Y-41250D03*
X86250Y-39250D03*
X88500Y-42750D03*
X90500Y-42750D03*
X81792Y-35042D03*
X83207Y-36457D03*
X81250Y-31500D03*
X81250Y-33500D03*
X96750Y-39750D03*
X94750Y-39750D03*
X90500Y-37750D03*
X88500Y-37750D03*
X87500Y-42750D03*
X85500Y-42750D03*
G54D16*
X85750Y-36750D03*
G54D19*
X90500Y-44000D03*
G54D16*
X86500Y-44000D03*
G54D15*
X91750Y-38750D03*
G54D12*
X91750Y-41750D03*
G54D10*
G36*
X87689Y-36143D02*
X88106Y-36560D01*
X87689Y-36977D01*
X87272Y-36560D01*
X87689Y-36143D01*
X87689Y-36143D01*
G37*
G54D13*
X89810Y-34439D02*
X89810Y-34439D01*
G54D15*
X91750Y-44000D03*
G54D12*
X94750Y-44000D03*
G54D18*
X81883Y-27616D03*
X80469Y-29030D03*
X81530Y-27969D03*
X79500Y-31250D03*
X79500Y-33250D03*
X79500Y-31750D03*
X91500Y-32250D03*
X91500Y-34250D03*
X91500Y-32750D03*
G54D20*
X79750Y-43000D03*
G54D16*
X85750Y-27250D03*
G54D21*
X96250Y-33850D03*
X95750Y-33850D03*
X95250Y-33850D03*
X94750Y-33850D03*
X94750Y-36150D03*
X95250Y-36150D03*
X95750Y-36150D03*
X96250Y-36150D03*
G54D13*
X89750Y-29000D02*
X89750Y-29000D01*
X93711Y-29556D02*
X93711Y-29556D01*
G54D12*
X96750Y-30500D03*
X92750Y-30500D03*
X93000Y-31250D03*
X93000Y-35250D03*
G54D18*
X94250Y-31750D03*
X96250Y-31750D03*
X96250Y-32750D03*
X94250Y-32750D03*
X96500Y-37250D03*
X94500Y-37250D03*
G54D16*
X93000Y-36250D03*
G54D18*
X79616Y-37116D03*
X81030Y-38530D03*
X79969Y-37469D03*
X78866Y-37866D03*
X80280Y-39280D03*
X79219Y-38219D03*
X80042Y-36042D03*
X81457Y-37457D03*
X80750Y-36750D03*
G54D22*
X96850Y-33800D03*
X96850Y-36200D03*
X78500Y-40000D03*
M02*
