G04 (created by PCBNEW (22-Jun-2014 BZR 4027)-stable) date Fri 29 Dec 2017 01:03:39 AM CST*
%MOIN*%
G04 Gerber Fmt 3.4, Leading zero omitted, Abs format*
%FSLAX34Y34*%
G01*
G70*
G90*
G04 APERTURE LIST*
%ADD10C,0.00590551*%
%ADD11C,0.006*%
%ADD12C,0.00787402*%
%ADD13C,0.008*%
%ADD14C,0.02*%
%ADD15C,0.01*%
%ADD16C,0.0001*%
%ADD17C,0.005*%
G04 APERTURE END LIST*
G54D10*
G54D11*
X79392Y-41092D02*
X79378Y-41107D01*
X79335Y-41121D01*
X79307Y-41121D01*
X79264Y-41107D01*
X79235Y-41078D01*
X79221Y-41050D01*
X79207Y-40992D01*
X79207Y-40950D01*
X79221Y-40892D01*
X79235Y-40864D01*
X79264Y-40835D01*
X79307Y-40821D01*
X79335Y-40821D01*
X79378Y-40835D01*
X79392Y-40850D01*
X79521Y-41121D02*
X79521Y-40821D01*
X79521Y-40964D02*
X79692Y-40964D01*
X79692Y-41121D02*
X79692Y-40821D01*
X79821Y-41035D02*
X79964Y-41035D01*
X79792Y-41121D02*
X79892Y-40821D01*
X79992Y-41121D01*
X80078Y-41107D02*
X80121Y-41121D01*
X80192Y-41121D01*
X80221Y-41107D01*
X80235Y-41092D01*
X80250Y-41064D01*
X80250Y-41035D01*
X80235Y-41007D01*
X80221Y-40992D01*
X80192Y-40978D01*
X80135Y-40964D01*
X80107Y-40950D01*
X80092Y-40935D01*
X80078Y-40907D01*
X80078Y-40878D01*
X80092Y-40850D01*
X80107Y-40835D01*
X80135Y-40821D01*
X80207Y-40821D01*
X80250Y-40835D01*
X80364Y-41107D02*
X80407Y-41121D01*
X80478Y-41121D01*
X80507Y-41107D01*
X80521Y-41092D01*
X80535Y-41064D01*
X80535Y-41035D01*
X80521Y-41007D01*
X80507Y-40992D01*
X80478Y-40978D01*
X80421Y-40964D01*
X80392Y-40950D01*
X80378Y-40935D01*
X80364Y-40907D01*
X80364Y-40878D01*
X80378Y-40850D01*
X80392Y-40835D01*
X80421Y-40821D01*
X80492Y-40821D01*
X80535Y-40835D01*
X80664Y-41121D02*
X80664Y-40821D01*
X80792Y-41107D02*
X80835Y-41121D01*
X80907Y-41121D01*
X80935Y-41107D01*
X80950Y-41092D01*
X80964Y-41064D01*
X80964Y-41035D01*
X80950Y-41007D01*
X80935Y-40992D01*
X80907Y-40978D01*
X80850Y-40964D01*
X80821Y-40950D01*
X80807Y-40935D01*
X80792Y-40907D01*
X80792Y-40878D01*
X80807Y-40850D01*
X80821Y-40835D01*
X80850Y-40821D01*
X80921Y-40821D01*
X80964Y-40835D01*
X79378Y-39835D02*
X79350Y-39821D01*
X79307Y-39821D01*
X79264Y-39835D01*
X79235Y-39864D01*
X79221Y-39892D01*
X79207Y-39950D01*
X79207Y-39992D01*
X79221Y-40050D01*
X79235Y-40078D01*
X79264Y-40107D01*
X79307Y-40121D01*
X79335Y-40121D01*
X79378Y-40107D01*
X79392Y-40092D01*
X79392Y-39992D01*
X79335Y-39992D01*
X79521Y-40121D02*
X79521Y-39821D01*
X79692Y-40121D01*
X79692Y-39821D01*
X79835Y-40121D02*
X79835Y-39821D01*
X79907Y-39821D01*
X79950Y-39835D01*
X79978Y-39864D01*
X79992Y-39892D01*
X80007Y-39950D01*
X80007Y-39992D01*
X79992Y-40050D01*
X79978Y-40078D01*
X79950Y-40107D01*
X79907Y-40121D01*
X79835Y-40121D01*
G54D12*
X89150Y-32500D02*
G75*
G03X89150Y-32500I-3400J0D01*
G74*
G01*
G54D11*
X82514Y-39971D02*
X82342Y-39971D01*
X82428Y-39971D02*
X82428Y-39671D01*
X82400Y-39714D01*
X82371Y-39742D01*
X82342Y-39757D01*
X82642Y-39971D02*
X82642Y-39671D01*
X82671Y-39857D02*
X82757Y-39971D01*
X82757Y-39771D02*
X82642Y-39885D01*
X82500Y-39521D02*
X82400Y-39378D01*
X82328Y-39521D02*
X82328Y-39221D01*
X82442Y-39221D01*
X82471Y-39235D01*
X82485Y-39250D01*
X82500Y-39278D01*
X82500Y-39321D01*
X82485Y-39350D01*
X82471Y-39364D01*
X82442Y-39378D01*
X82328Y-39378D01*
X82771Y-39221D02*
X82628Y-39221D01*
X82614Y-39364D01*
X82628Y-39350D01*
X82657Y-39335D01*
X82728Y-39335D01*
X82757Y-39350D01*
X82771Y-39364D01*
X82785Y-39392D01*
X82785Y-39464D01*
X82771Y-39492D01*
X82757Y-39507D01*
X82728Y-39521D01*
X82657Y-39521D01*
X82628Y-39507D01*
X82614Y-39492D01*
X94578Y-29400D02*
X94335Y-29400D01*
X94307Y-29385D01*
X94292Y-29371D01*
X94278Y-29342D01*
X94278Y-29300D01*
X94292Y-29271D01*
X94392Y-29400D02*
X94378Y-29371D01*
X94378Y-29314D01*
X94392Y-29285D01*
X94407Y-29271D01*
X94435Y-29257D01*
X94521Y-29257D01*
X94550Y-29271D01*
X94564Y-29285D01*
X94578Y-29314D01*
X94578Y-29371D01*
X94564Y-29400D01*
X94378Y-29542D02*
X94578Y-29542D01*
X94678Y-29542D02*
X94664Y-29528D01*
X94650Y-29542D01*
X94664Y-29557D01*
X94678Y-29542D01*
X94650Y-29542D01*
X94578Y-29642D02*
X94578Y-29757D01*
X94678Y-29685D02*
X94421Y-29685D01*
X94392Y-29700D01*
X94378Y-29728D01*
X94378Y-29757D01*
X94378Y-29857D02*
X94678Y-29857D01*
X94378Y-29985D02*
X94535Y-29985D01*
X94564Y-29971D01*
X94578Y-29942D01*
X94578Y-29900D01*
X94564Y-29871D01*
X94550Y-29857D01*
X94578Y-30257D02*
X94378Y-30257D01*
X94578Y-30128D02*
X94421Y-30128D01*
X94392Y-30142D01*
X94378Y-30171D01*
X94378Y-30214D01*
X94392Y-30242D01*
X94407Y-30257D01*
X94378Y-30400D02*
X94678Y-30400D01*
X94564Y-30400D02*
X94578Y-30428D01*
X94578Y-30485D01*
X94564Y-30514D01*
X94550Y-30528D01*
X94521Y-30542D01*
X94435Y-30542D01*
X94407Y-30528D01*
X94392Y-30514D01*
X94378Y-30485D01*
X94378Y-30428D01*
X94392Y-30400D01*
X94407Y-30671D02*
X94392Y-30685D01*
X94378Y-30671D01*
X94392Y-30657D01*
X94407Y-30671D01*
X94378Y-30671D01*
X94392Y-30942D02*
X94378Y-30914D01*
X94378Y-30857D01*
X94392Y-30828D01*
X94407Y-30814D01*
X94435Y-30800D01*
X94521Y-30800D01*
X94550Y-30814D01*
X94564Y-30828D01*
X94578Y-30857D01*
X94578Y-30914D01*
X94564Y-30942D01*
X94378Y-31114D02*
X94392Y-31085D01*
X94407Y-31071D01*
X94435Y-31057D01*
X94521Y-31057D01*
X94550Y-31071D01*
X94564Y-31085D01*
X94578Y-31114D01*
X94578Y-31157D01*
X94564Y-31185D01*
X94550Y-31200D01*
X94521Y-31214D01*
X94435Y-31214D01*
X94407Y-31200D01*
X94392Y-31185D01*
X94378Y-31157D01*
X94378Y-31114D01*
X94378Y-31342D02*
X94578Y-31342D01*
X94550Y-31342D02*
X94564Y-31357D01*
X94578Y-31385D01*
X94578Y-31428D01*
X94564Y-31457D01*
X94535Y-31471D01*
X94378Y-31471D01*
X94535Y-31471D02*
X94564Y-31485D01*
X94578Y-31514D01*
X94578Y-31557D01*
X94564Y-31585D01*
X94535Y-31600D01*
X94378Y-31600D01*
X94692Y-31957D02*
X94307Y-31700D01*
X94578Y-32057D02*
X94278Y-32057D01*
X94564Y-32057D02*
X94578Y-32085D01*
X94578Y-32142D01*
X94564Y-32171D01*
X94550Y-32185D01*
X94521Y-32200D01*
X94435Y-32200D01*
X94407Y-32185D01*
X94392Y-32171D01*
X94378Y-32142D01*
X94378Y-32085D01*
X94392Y-32057D01*
X94392Y-32442D02*
X94378Y-32414D01*
X94378Y-32357D01*
X94392Y-32328D01*
X94421Y-32314D01*
X94535Y-32314D01*
X94564Y-32328D01*
X94578Y-32357D01*
X94578Y-32414D01*
X94564Y-32442D01*
X94535Y-32457D01*
X94507Y-32457D01*
X94478Y-32314D01*
X94578Y-32585D02*
X94278Y-32585D01*
X94564Y-32585D02*
X94578Y-32614D01*
X94578Y-32671D01*
X94564Y-32700D01*
X94550Y-32714D01*
X94521Y-32728D01*
X94435Y-32728D01*
X94407Y-32714D01*
X94392Y-32700D01*
X94378Y-32671D01*
X94378Y-32614D01*
X94392Y-32585D01*
X94378Y-32985D02*
X94535Y-32985D01*
X94564Y-32971D01*
X94578Y-32942D01*
X94578Y-32885D01*
X94564Y-32857D01*
X94392Y-32985D02*
X94378Y-32957D01*
X94378Y-32885D01*
X94392Y-32857D01*
X94421Y-32842D01*
X94450Y-32842D01*
X94478Y-32857D01*
X94492Y-32885D01*
X94492Y-32957D01*
X94507Y-32985D01*
X94392Y-33114D02*
X94378Y-33142D01*
X94378Y-33200D01*
X94392Y-33228D01*
X94421Y-33242D01*
X94435Y-33242D01*
X94464Y-33228D01*
X94478Y-33200D01*
X94478Y-33157D01*
X94492Y-33128D01*
X94521Y-33114D01*
X94535Y-33114D01*
X94564Y-33128D01*
X94578Y-33157D01*
X94578Y-33200D01*
X94564Y-33228D01*
X94378Y-33414D02*
X94392Y-33385D01*
X94421Y-33371D01*
X94678Y-33371D01*
X94378Y-33657D02*
X94535Y-33657D01*
X94564Y-33642D01*
X94578Y-33614D01*
X94578Y-33557D01*
X94564Y-33528D01*
X94392Y-33657D02*
X94378Y-33628D01*
X94378Y-33557D01*
X94392Y-33528D01*
X94421Y-33514D01*
X94450Y-33514D01*
X94478Y-33528D01*
X94492Y-33557D01*
X94492Y-33628D01*
X94507Y-33657D01*
X94378Y-33800D02*
X94678Y-33800D01*
X94564Y-33800D02*
X94578Y-33828D01*
X94578Y-33885D01*
X94564Y-33914D01*
X94550Y-33928D01*
X94521Y-33942D01*
X94435Y-33942D01*
X94407Y-33928D01*
X94392Y-33914D01*
X94378Y-33885D01*
X94378Y-33828D01*
X94392Y-33800D01*
X94392Y-34057D02*
X94378Y-34085D01*
X94378Y-34142D01*
X94392Y-34171D01*
X94421Y-34185D01*
X94435Y-34185D01*
X94464Y-34171D01*
X94478Y-34142D01*
X94478Y-34100D01*
X94492Y-34071D01*
X94521Y-34057D01*
X94535Y-34057D01*
X94564Y-34071D01*
X94578Y-34100D01*
X94578Y-34142D01*
X94564Y-34171D01*
X94692Y-34528D02*
X94307Y-34271D01*
X94578Y-34628D02*
X94278Y-34628D01*
X94564Y-34628D02*
X94578Y-34657D01*
X94578Y-34714D01*
X94564Y-34742D01*
X94550Y-34757D01*
X94521Y-34771D01*
X94435Y-34771D01*
X94407Y-34757D01*
X94392Y-34742D01*
X94378Y-34714D01*
X94378Y-34657D01*
X94392Y-34628D01*
X94378Y-34871D02*
X94578Y-35028D01*
X94578Y-34871D02*
X94378Y-35028D01*
X94492Y-35142D02*
X94492Y-35371D01*
X94378Y-35514D02*
X94578Y-35514D01*
X94521Y-35514D02*
X94550Y-35528D01*
X94564Y-35542D01*
X94578Y-35571D01*
X94578Y-35600D01*
X94392Y-35814D02*
X94378Y-35785D01*
X94378Y-35728D01*
X94392Y-35700D01*
X94421Y-35685D01*
X94535Y-35685D01*
X94564Y-35700D01*
X94578Y-35728D01*
X94578Y-35785D01*
X94564Y-35814D01*
X94535Y-35828D01*
X94507Y-35828D01*
X94478Y-35685D01*
X94578Y-35914D02*
X94578Y-36028D01*
X94378Y-35957D02*
X94635Y-35957D01*
X94664Y-35971D01*
X94678Y-36000D01*
X94678Y-36028D01*
X96078Y-34292D02*
X95878Y-34364D01*
X96078Y-34435D01*
X96150Y-34535D02*
X96164Y-34550D01*
X96178Y-34578D01*
X96178Y-34650D01*
X96164Y-34678D01*
X96150Y-34692D01*
X96121Y-34707D01*
X96092Y-34707D01*
X96050Y-34692D01*
X95878Y-34521D01*
X95878Y-34707D01*
X95907Y-34835D02*
X95892Y-34849D01*
X95878Y-34835D01*
X95892Y-34821D01*
X95907Y-34835D01*
X95878Y-34835D01*
X95878Y-35135D02*
X95878Y-34964D01*
X95878Y-35049D02*
X96178Y-35049D01*
X96135Y-35021D01*
X96107Y-34992D01*
X96092Y-34964D01*
G54D13*
X95088Y-29435D02*
X95088Y-29245D01*
X95488Y-29245D01*
X95488Y-29511D02*
X95488Y-29740D01*
X95088Y-29626D02*
X95488Y-29626D01*
X95488Y-29835D02*
X95488Y-30102D01*
X95088Y-29835D01*
X95088Y-30102D01*
X95088Y-30464D02*
X95088Y-30235D01*
X95088Y-30350D02*
X95488Y-30350D01*
X95430Y-30311D01*
X95392Y-30273D01*
X95373Y-30235D01*
X95488Y-30711D02*
X95488Y-30749D01*
X95469Y-30788D01*
X95450Y-30807D01*
X95411Y-30826D01*
X95335Y-30845D01*
X95240Y-30845D01*
X95164Y-30826D01*
X95126Y-30807D01*
X95107Y-30788D01*
X95088Y-30749D01*
X95088Y-30711D01*
X95107Y-30673D01*
X95126Y-30654D01*
X95164Y-30635D01*
X95240Y-30616D01*
X95335Y-30616D01*
X95411Y-30635D01*
X95450Y-30654D01*
X95469Y-30673D01*
X95488Y-30711D01*
X95488Y-31092D02*
X95488Y-31130D01*
X95469Y-31169D01*
X95450Y-31188D01*
X95411Y-31207D01*
X95335Y-31226D01*
X95240Y-31226D01*
X95164Y-31207D01*
X95126Y-31188D01*
X95107Y-31169D01*
X95088Y-31130D01*
X95088Y-31092D01*
X95107Y-31054D01*
X95126Y-31035D01*
X95164Y-31016D01*
X95240Y-30997D01*
X95335Y-30997D01*
X95411Y-31016D01*
X95450Y-31035D01*
X95469Y-31054D01*
X95488Y-31092D01*
X95488Y-31473D02*
X95488Y-31511D01*
X95469Y-31549D01*
X95450Y-31569D01*
X95411Y-31588D01*
X95335Y-31607D01*
X95240Y-31607D01*
X95164Y-31588D01*
X95126Y-31569D01*
X95107Y-31549D01*
X95088Y-31511D01*
X95088Y-31473D01*
X95107Y-31435D01*
X95126Y-31416D01*
X95164Y-31397D01*
X95240Y-31378D01*
X95335Y-31378D01*
X95411Y-31397D01*
X95450Y-31416D01*
X95469Y-31435D01*
X95488Y-31473D01*
X95488Y-32045D02*
X95488Y-32311D01*
X95088Y-32140D01*
X95488Y-32407D02*
X95088Y-32540D01*
X95488Y-32673D01*
X95088Y-33111D02*
X95354Y-33111D01*
X95278Y-33111D02*
X95316Y-33130D01*
X95335Y-33149D01*
X95354Y-33188D01*
X95354Y-33226D01*
X95107Y-33511D02*
X95088Y-33473D01*
X95088Y-33397D01*
X95107Y-33359D01*
X95145Y-33340D01*
X95297Y-33340D01*
X95335Y-33359D01*
X95354Y-33397D01*
X95354Y-33473D01*
X95335Y-33511D01*
X95297Y-33530D01*
X95259Y-33530D01*
X95221Y-33340D01*
X95354Y-33645D02*
X95354Y-33797D01*
X95088Y-33702D02*
X95430Y-33702D01*
X95469Y-33721D01*
X95488Y-33759D01*
X95488Y-33797D01*
X95107Y-34083D02*
X95088Y-34045D01*
X95088Y-33969D01*
X95107Y-33930D01*
X95145Y-33911D01*
X95297Y-33911D01*
X95335Y-33930D01*
X95354Y-33969D01*
X95354Y-34045D01*
X95335Y-34083D01*
X95297Y-34102D01*
X95259Y-34102D01*
X95221Y-33911D01*
X95088Y-34273D02*
X95354Y-34273D01*
X95278Y-34273D02*
X95316Y-34292D01*
X95335Y-34311D01*
X95354Y-34349D01*
X95354Y-34388D01*
X95107Y-34673D02*
X95088Y-34635D01*
X95088Y-34559D01*
X95107Y-34521D01*
X95145Y-34502D01*
X95297Y-34502D01*
X95335Y-34521D01*
X95354Y-34559D01*
X95354Y-34635D01*
X95335Y-34673D01*
X95297Y-34692D01*
X95259Y-34692D01*
X95221Y-34502D01*
X95354Y-34864D02*
X95088Y-34864D01*
X95316Y-34864D02*
X95335Y-34883D01*
X95354Y-34921D01*
X95354Y-34978D01*
X95335Y-35016D01*
X95297Y-35035D01*
X95088Y-35035D01*
X95107Y-35397D02*
X95088Y-35359D01*
X95088Y-35283D01*
X95107Y-35245D01*
X95126Y-35226D01*
X95164Y-35207D01*
X95278Y-35207D01*
X95316Y-35226D01*
X95335Y-35245D01*
X95354Y-35283D01*
X95354Y-35359D01*
X95335Y-35397D01*
X95107Y-35721D02*
X95088Y-35683D01*
X95088Y-35607D01*
X95107Y-35569D01*
X95145Y-35549D01*
X95297Y-35549D01*
X95335Y-35569D01*
X95354Y-35607D01*
X95354Y-35683D01*
X95335Y-35721D01*
X95297Y-35740D01*
X95259Y-35740D01*
X95221Y-35549D01*
G54D14*
X96095Y-29288D02*
X97095Y-29288D01*
X97095Y-29669D01*
X97047Y-29764D01*
X97000Y-29811D01*
X96904Y-29859D01*
X96761Y-29859D01*
X96666Y-29811D01*
X96619Y-29764D01*
X96571Y-29669D01*
X96571Y-29288D01*
X97095Y-30192D02*
X96095Y-30859D01*
X97095Y-30859D02*
X96095Y-30192D01*
X96095Y-32573D02*
X96571Y-32240D01*
X96095Y-32002D02*
X97095Y-32002D01*
X97095Y-32383D01*
X97047Y-32478D01*
X97000Y-32526D01*
X96904Y-32573D01*
X96761Y-32573D01*
X96666Y-32526D01*
X96619Y-32478D01*
X96571Y-32383D01*
X96571Y-32002D01*
X96142Y-33383D02*
X96095Y-33288D01*
X96095Y-33097D01*
X96142Y-33002D01*
X96238Y-32954D01*
X96619Y-32954D01*
X96714Y-33002D01*
X96761Y-33097D01*
X96761Y-33288D01*
X96714Y-33383D01*
X96619Y-33430D01*
X96523Y-33430D01*
X96428Y-32954D01*
X96761Y-33716D02*
X96761Y-34097D01*
X96095Y-33859D02*
X96952Y-33859D01*
X97047Y-33907D01*
X97095Y-34002D01*
X97095Y-34097D01*
G54D13*
X81780Y-43554D02*
X81761Y-43592D01*
X81761Y-43650D01*
X81780Y-43707D01*
X81819Y-43745D01*
X81857Y-43764D01*
X81933Y-43783D01*
X81990Y-43783D01*
X82066Y-43764D01*
X82104Y-43745D01*
X82142Y-43707D01*
X82161Y-43650D01*
X82161Y-43611D01*
X82142Y-43554D01*
X82123Y-43535D01*
X81990Y-43535D01*
X81990Y-43611D01*
X82161Y-43364D02*
X81761Y-43364D01*
X82161Y-43135D01*
X81761Y-43135D01*
X82161Y-42945D02*
X81761Y-42945D01*
X81761Y-42849D01*
X81780Y-42792D01*
X81819Y-42754D01*
X81857Y-42735D01*
X81933Y-42716D01*
X81990Y-42716D01*
X82066Y-42735D01*
X82104Y-42754D01*
X82142Y-42792D01*
X82161Y-42849D01*
X82161Y-42945D01*
X83161Y-43497D02*
X83161Y-43726D01*
X83161Y-43611D02*
X82761Y-43611D01*
X82819Y-43649D01*
X82857Y-43688D01*
X82876Y-43726D01*
X82761Y-43135D02*
X82761Y-43326D01*
X82952Y-43345D01*
X82933Y-43326D01*
X82914Y-43288D01*
X82914Y-43192D01*
X82933Y-43154D01*
X82952Y-43135D01*
X82990Y-43116D01*
X83085Y-43116D01*
X83123Y-43135D01*
X83142Y-43154D01*
X83161Y-43192D01*
X83161Y-43288D01*
X83142Y-43326D01*
X83123Y-43345D01*
X82761Y-43002D02*
X83161Y-42869D01*
X82761Y-42735D01*
X86164Y-37159D02*
X86469Y-37159D01*
X86602Y-36911D02*
X86735Y-37311D01*
X86869Y-36911D01*
X86964Y-37045D02*
X87173Y-37045D01*
X86964Y-37311D01*
X87173Y-37311D01*
X86114Y-27409D02*
X86419Y-27409D01*
X86266Y-27561D02*
X86266Y-27257D01*
X86552Y-27161D02*
X86685Y-27561D01*
X86819Y-27161D01*
X86914Y-27295D02*
X87123Y-27295D01*
X86914Y-27561D01*
X87123Y-27561D01*
G54D11*
X78471Y-36021D02*
X78300Y-36021D01*
X78385Y-36021D02*
X78385Y-35721D01*
X78357Y-35764D01*
X78328Y-35792D01*
X78300Y-35807D01*
X78571Y-35721D02*
X78757Y-35721D01*
X78657Y-35835D01*
X78700Y-35835D01*
X78728Y-35850D01*
X78742Y-35864D01*
X78757Y-35892D01*
X78757Y-35964D01*
X78742Y-35992D01*
X78728Y-36007D01*
X78700Y-36021D01*
X78614Y-36021D01*
X78585Y-36007D01*
X78571Y-35992D01*
X78885Y-36021D02*
X78885Y-35721D01*
X78914Y-35907D02*
X79000Y-36021D01*
X79000Y-35821D02*
X78885Y-35935D01*
X78600Y-35521D02*
X78500Y-35378D01*
X78428Y-35521D02*
X78428Y-35221D01*
X78542Y-35221D01*
X78571Y-35235D01*
X78585Y-35250D01*
X78600Y-35278D01*
X78600Y-35321D01*
X78585Y-35350D01*
X78571Y-35364D01*
X78542Y-35378D01*
X78428Y-35378D01*
X78857Y-35321D02*
X78857Y-35521D01*
X78785Y-35207D02*
X78714Y-35421D01*
X78900Y-35421D01*
G54D10*
X96250Y-42850D02*
X95400Y-42850D01*
X95400Y-42850D02*
X95400Y-44650D01*
X95400Y-44650D02*
X96250Y-44650D01*
X96250Y-44650D02*
G75*
G03X97150Y-43750I0J900D01*
G74*
G01*
X97150Y-43750D02*
G75*
G03X96250Y-42850I-900J0D01*
G74*
G01*
G54D15*
X92750Y-38250D02*
X92750Y-38650D01*
X92750Y-38650D02*
X93150Y-38650D01*
X93150Y-38650D02*
X93150Y-41850D01*
X93150Y-41850D02*
X92350Y-41850D01*
X92350Y-41850D02*
X92350Y-38650D01*
X92350Y-38650D02*
X92750Y-38650D01*
X92750Y-42250D02*
X92750Y-41850D01*
X93750Y-42250D02*
X93750Y-41850D01*
X93750Y-41850D02*
X93350Y-41850D01*
X93350Y-41850D02*
X93350Y-38650D01*
X93350Y-38650D02*
X94150Y-38650D01*
X94150Y-38650D02*
X94150Y-41850D01*
X94150Y-41850D02*
X93750Y-41850D01*
X93750Y-38250D02*
X93750Y-38650D01*
X83000Y-38000D02*
X83400Y-38000D01*
X83400Y-38000D02*
X83400Y-37600D01*
X83400Y-37600D02*
X86600Y-37600D01*
X86600Y-37600D02*
X86600Y-38400D01*
X86600Y-38400D02*
X83400Y-38400D01*
X83400Y-38400D02*
X83400Y-38000D01*
X87000Y-38000D02*
X86600Y-38000D01*
X83750Y-28250D02*
X84150Y-28250D01*
X84150Y-28250D02*
X84150Y-27850D01*
X84150Y-27850D02*
X87350Y-27850D01*
X87350Y-27850D02*
X87350Y-28650D01*
X87350Y-28650D02*
X84150Y-28650D01*
X84150Y-28650D02*
X84150Y-28250D01*
X87750Y-28250D02*
X87350Y-28250D01*
X81250Y-39750D02*
X80967Y-39467D01*
X80967Y-39467D02*
X80684Y-39750D01*
X80684Y-39750D02*
X78421Y-37487D01*
X78421Y-37487D02*
X78987Y-36921D01*
X78987Y-36921D02*
X81250Y-39184D01*
X81250Y-39184D02*
X80967Y-39467D01*
X78421Y-36921D02*
X78704Y-37204D01*
X87600Y-32500D02*
G75*
G03X87600Y-32500I-1850J0D01*
G74*
G01*
X87058Y-34161D02*
X86881Y-33984D01*
X87411Y-33808D02*
X87234Y-33631D01*
X87411Y-33808D02*
X87058Y-34161D01*
X90700Y-40250D02*
G75*
G03X91000Y-40550I300J0D01*
G74*
G01*
X91000Y-39950D02*
G75*
G03X90700Y-40250I0J-300D01*
G74*
G01*
X91000Y-41250D02*
X87000Y-41250D01*
X87000Y-41250D02*
X87000Y-39250D01*
X87000Y-39250D02*
X91000Y-39250D01*
X91000Y-39250D02*
X91000Y-41250D01*
X97500Y-27250D02*
G75*
G03X97500Y-27250I-1750J0D01*
G74*
G01*
X80292Y-35835D02*
X82414Y-37957D01*
X82414Y-37957D02*
X81707Y-38664D01*
X81707Y-38664D02*
X79585Y-36542D01*
X79585Y-36542D02*
X80292Y-35835D01*
X79409Y-37073D02*
X81176Y-38840D01*
X80823Y-35659D02*
X82590Y-37426D01*
X81176Y-38840D02*
G75*
G03X82590Y-38840I707J707D01*
G74*
G01*
X82590Y-38840D02*
G75*
G03X82590Y-37426I-707J707D01*
G74*
G01*
X80823Y-35659D02*
G75*
G03X79409Y-35659I-707J-707D01*
G74*
G01*
X79409Y-35659D02*
G75*
G03X79409Y-37073I707J-707D01*
G74*
G01*
G54D16*
G36*
X95793Y-35773D02*
X95797Y-35781D01*
X95809Y-35800D01*
X95826Y-35826D01*
X95847Y-35857D01*
X95868Y-35888D01*
X95885Y-35914D01*
X95897Y-35932D01*
X95901Y-35939D01*
X95900Y-35943D01*
X95892Y-35958D01*
X95881Y-35980D01*
X95875Y-35992D01*
X95866Y-36012D01*
X95864Y-36022D01*
X95867Y-36023D01*
X95882Y-36031D01*
X95908Y-36042D01*
X95942Y-36057D01*
X95982Y-36074D01*
X96025Y-36092D01*
X96069Y-36110D01*
X96111Y-36128D01*
X96149Y-36143D01*
X96179Y-36156D01*
X96201Y-36164D01*
X96210Y-36167D01*
X96212Y-36166D01*
X96221Y-36156D01*
X96234Y-36139D01*
X96265Y-36101D01*
X96311Y-36065D01*
X96363Y-36042D01*
X96421Y-36035D01*
X96474Y-36041D01*
X96525Y-36062D01*
X96572Y-36098D01*
X96606Y-36142D01*
X96628Y-36193D01*
X96635Y-36250D01*
X96629Y-36305D01*
X96608Y-36357D01*
X96573Y-36404D01*
X96550Y-36423D01*
X96503Y-36450D01*
X96453Y-36466D01*
X96441Y-36467D01*
X96385Y-36465D01*
X96332Y-36449D01*
X96285Y-36420D01*
X96246Y-36379D01*
X96242Y-36374D01*
X96228Y-36355D01*
X96219Y-36343D01*
X96211Y-36333D01*
X96041Y-36403D01*
X96014Y-36414D01*
X95968Y-36434D01*
X95928Y-36451D01*
X95896Y-36464D01*
X95875Y-36474D01*
X95866Y-36478D01*
X95866Y-36478D01*
X95865Y-36484D01*
X95870Y-36497D01*
X95881Y-36521D01*
X95889Y-36537D01*
X95898Y-36555D01*
X95901Y-36563D01*
X95897Y-36570D01*
X95886Y-36587D01*
X95869Y-36612D01*
X95849Y-36642D01*
X95829Y-36671D01*
X95811Y-36698D01*
X95799Y-36717D01*
X95794Y-36727D01*
X95794Y-36728D01*
X95799Y-36736D01*
X95811Y-36752D01*
X95833Y-36775D01*
X95865Y-36807D01*
X95870Y-36812D01*
X95898Y-36839D01*
X95921Y-36861D01*
X95937Y-36876D01*
X95944Y-36881D01*
X95944Y-36881D01*
X95954Y-36876D01*
X95973Y-36864D01*
X96000Y-36846D01*
X96031Y-36825D01*
X96113Y-36769D01*
X96190Y-36800D01*
X96213Y-36809D01*
X96242Y-36821D01*
X96262Y-36830D01*
X96271Y-36835D01*
X96274Y-36843D01*
X96279Y-36864D01*
X96286Y-36895D01*
X96292Y-36931D01*
X96299Y-36966D01*
X96305Y-36997D01*
X96309Y-37020D01*
X96311Y-37030D01*
X96313Y-37032D01*
X96318Y-37034D01*
X96328Y-37036D01*
X96347Y-37036D01*
X96377Y-37037D01*
X96421Y-37037D01*
X96425Y-37037D01*
X96467Y-37036D01*
X96500Y-37036D01*
X96521Y-37035D01*
X96529Y-37033D01*
X96529Y-37033D01*
X96532Y-37023D01*
X96536Y-37001D01*
X96543Y-36970D01*
X96550Y-36932D01*
X96550Y-36930D01*
X96557Y-36893D01*
X96564Y-36862D01*
X96569Y-36840D01*
X96572Y-36831D01*
X96574Y-36829D01*
X96589Y-36821D01*
X96612Y-36810D01*
X96640Y-36798D01*
X96669Y-36786D01*
X96696Y-36775D01*
X96715Y-36768D01*
X96724Y-36766D01*
X96724Y-36766D01*
X96733Y-36772D01*
X96753Y-36785D01*
X96779Y-36803D01*
X96811Y-36825D01*
X96814Y-36826D01*
X96845Y-36848D01*
X96872Y-36865D01*
X96891Y-36877D01*
X96899Y-36881D01*
X96900Y-36881D01*
X96909Y-36874D01*
X96927Y-36858D01*
X96951Y-36835D01*
X96979Y-36807D01*
X96987Y-36798D01*
X97017Y-36768D01*
X97037Y-36747D01*
X97047Y-36733D01*
X97050Y-36727D01*
X97049Y-36727D01*
X97044Y-36717D01*
X97031Y-36697D01*
X97012Y-36670D01*
X96991Y-36638D01*
X96989Y-36636D01*
X96968Y-36605D01*
X96950Y-36579D01*
X96938Y-36560D01*
X96933Y-36552D01*
X96933Y-36550D01*
X96937Y-36538D01*
X96944Y-36515D01*
X96955Y-36488D01*
X96967Y-36459D01*
X96978Y-36432D01*
X96987Y-36412D01*
X96992Y-36403D01*
X96993Y-36403D01*
X97004Y-36399D01*
X97028Y-36394D01*
X97060Y-36387D01*
X97099Y-36380D01*
X97105Y-36379D01*
X97142Y-36372D01*
X97173Y-36366D01*
X97195Y-36361D01*
X97204Y-36359D01*
X97205Y-36354D01*
X97206Y-36335D01*
X97207Y-36307D01*
X97207Y-36273D01*
X97207Y-36238D01*
X97206Y-36204D01*
X97205Y-36174D01*
X97204Y-36153D01*
X97202Y-36144D01*
X97201Y-36143D01*
X97190Y-36140D01*
X97166Y-36135D01*
X97134Y-36128D01*
X97095Y-36121D01*
X97088Y-36120D01*
X97051Y-36113D01*
X97020Y-36106D01*
X96999Y-36102D01*
X96991Y-36099D01*
X96989Y-36096D01*
X96982Y-36081D01*
X96972Y-36056D01*
X96959Y-36024D01*
X96930Y-35952D01*
X96991Y-35864D01*
X96996Y-35856D01*
X97018Y-35824D01*
X97035Y-35798D01*
X97047Y-35780D01*
X97051Y-35772D01*
X97051Y-35772D01*
X97043Y-35763D01*
X97027Y-35745D01*
X97003Y-35721D01*
X96976Y-35694D01*
X96955Y-35673D01*
X96930Y-35649D01*
X96914Y-35633D01*
X96903Y-35625D01*
X96896Y-35622D01*
X96892Y-35623D01*
X96883Y-35628D01*
X96864Y-35641D01*
X96837Y-35659D01*
X96806Y-35681D01*
X96779Y-35699D01*
X96750Y-35718D01*
X96729Y-35730D01*
X96718Y-35735D01*
X96714Y-35734D01*
X96697Y-35727D01*
X96670Y-35717D01*
X96639Y-35704D01*
X96569Y-35673D01*
X96561Y-35627D01*
X96555Y-35599D01*
X96548Y-35560D01*
X96541Y-35523D01*
X96529Y-35465D01*
X96317Y-35463D01*
X96313Y-35472D01*
X96310Y-35481D01*
X96306Y-35502D01*
X96300Y-35533D01*
X96293Y-35569D01*
X96287Y-35600D01*
X96281Y-35631D01*
X96277Y-35653D01*
X96275Y-35663D01*
X96271Y-35666D01*
X96256Y-35674D01*
X96232Y-35685D01*
X96203Y-35697D01*
X96174Y-35709D01*
X96146Y-35720D01*
X96125Y-35728D01*
X96114Y-35731D01*
X96106Y-35727D01*
X96088Y-35715D01*
X96062Y-35698D01*
X96031Y-35677D01*
X96000Y-35655D01*
X95973Y-35638D01*
X95954Y-35625D01*
X95946Y-35620D01*
X95940Y-35623D01*
X95925Y-35635D01*
X95901Y-35658D01*
X95866Y-35693D01*
X95861Y-35699D01*
X95834Y-35726D01*
X95813Y-35750D01*
X95798Y-35766D01*
X95793Y-35773D01*
X95793Y-35773D01*
G37*
G54D15*
X97250Y-40250D02*
X97250Y-41250D01*
X94250Y-40250D02*
X94250Y-41250D01*
X97250Y-41250D02*
X94250Y-41250D01*
X94250Y-40250D02*
X97250Y-40250D01*
X89000Y-37000D02*
X89000Y-36000D01*
X92000Y-37000D02*
X92000Y-36000D01*
X89000Y-36000D02*
X92000Y-36000D01*
X92000Y-37000D02*
X89000Y-37000D01*
X84750Y-38750D02*
X85750Y-38750D01*
X84750Y-41750D02*
X85750Y-41750D01*
X85750Y-38750D02*
X85750Y-41750D01*
X84750Y-41750D02*
X84750Y-38750D01*
X85750Y-38750D02*
X86750Y-38750D01*
X85750Y-41750D02*
X86750Y-41750D01*
X86750Y-38750D02*
X86750Y-41750D01*
X85750Y-41750D02*
X85750Y-38750D01*
X91000Y-42250D02*
X91000Y-43250D01*
X88000Y-42250D02*
X88000Y-43250D01*
X91000Y-43250D02*
X88000Y-43250D01*
X88000Y-42250D02*
X91000Y-42250D01*
X83914Y-36457D02*
X83207Y-37164D01*
X81792Y-34335D02*
X81085Y-35042D01*
X83207Y-37164D02*
X81085Y-35042D01*
X81792Y-34335D02*
X83914Y-36457D01*
X81750Y-34000D02*
X80750Y-34000D01*
X81750Y-31000D02*
X80750Y-31000D01*
X80750Y-34000D02*
X80750Y-31000D01*
X81750Y-31000D02*
X81750Y-34000D01*
X94250Y-40250D02*
X94250Y-39250D01*
X97250Y-40250D02*
X97250Y-39250D01*
X94250Y-39250D02*
X97250Y-39250D01*
X97250Y-40250D02*
X94250Y-40250D01*
X88000Y-38250D02*
X88000Y-37250D01*
X91000Y-38250D02*
X91000Y-37250D01*
X88000Y-37250D02*
X91000Y-37250D01*
X91000Y-38250D02*
X88000Y-38250D01*
X85000Y-43250D02*
X85000Y-42250D01*
X88000Y-43250D02*
X88000Y-42250D01*
X85000Y-42250D02*
X88000Y-42250D01*
X88000Y-43250D02*
X85000Y-43250D01*
X86500Y-44250D02*
X87250Y-44250D01*
X89750Y-44250D02*
X90500Y-44250D01*
X89500Y-43750D02*
X89500Y-44750D01*
X87250Y-44750D02*
X89750Y-44750D01*
X87250Y-43750D02*
X87250Y-44750D01*
X89750Y-43750D02*
X89750Y-44750D01*
X87250Y-43750D02*
X89750Y-43750D01*
X91750Y-41350D02*
X91750Y-41750D01*
X91750Y-39150D02*
X91750Y-38750D01*
X92150Y-41350D02*
X92150Y-39150D01*
X91350Y-39150D02*
X91350Y-41350D01*
X91350Y-39400D02*
X92150Y-39400D01*
X91750Y-39150D02*
X91350Y-39150D01*
X91350Y-41350D02*
X91750Y-41350D01*
X91750Y-41350D02*
X92150Y-41350D01*
X92150Y-39150D02*
X91750Y-39150D01*
X89527Y-34722D02*
X89810Y-34439D01*
X87972Y-36277D02*
X87689Y-36560D01*
X89244Y-34439D02*
X87689Y-35994D01*
X88255Y-36560D02*
X89810Y-35005D01*
X88431Y-36383D02*
X87866Y-35818D01*
X87972Y-36277D02*
X88255Y-36560D01*
X89810Y-35005D02*
X89527Y-34722D01*
X89527Y-34722D02*
X89244Y-34439D01*
X87689Y-35994D02*
X87972Y-36277D01*
X94350Y-44250D02*
X94750Y-44250D01*
X92150Y-44250D02*
X91750Y-44250D01*
X94350Y-43850D02*
X92150Y-43850D01*
X92150Y-44650D02*
X94350Y-44650D01*
X92400Y-44650D02*
X92400Y-43850D01*
X92150Y-44250D02*
X92150Y-44650D01*
X94350Y-44650D02*
X94350Y-44250D01*
X94350Y-44250D02*
X94350Y-43850D01*
X92150Y-43850D02*
X92150Y-44250D01*
X79835Y-28957D02*
X82133Y-26659D01*
X82840Y-27366D02*
X80542Y-29664D01*
X79729Y-28497D02*
X81497Y-26729D01*
X82770Y-28002D02*
X81002Y-29770D01*
X79729Y-29770D02*
G75*
G03X81002Y-29770I636J636D01*
G74*
G01*
X79729Y-28497D02*
G75*
G03X79729Y-29770I636J-636D01*
G74*
G01*
X82770Y-26729D02*
G75*
G03X81497Y-26729I-636J-636D01*
G74*
G01*
X82770Y-28002D02*
G75*
G03X82770Y-26729I-636J636D01*
G74*
G01*
X79729Y-29770D02*
G75*
G03X81002Y-29770I636J636D01*
G74*
G01*
X80542Y-29664D02*
X79835Y-28957D01*
X82133Y-26659D02*
X82840Y-27366D01*
X79000Y-34000D02*
X79000Y-30750D01*
X80000Y-30750D02*
X80000Y-34000D01*
X78600Y-33750D02*
X78600Y-31250D01*
X80400Y-31250D02*
X80400Y-33750D01*
X79500Y-34650D02*
G75*
G03X80400Y-33750I0J900D01*
G74*
G01*
X78600Y-33750D02*
G75*
G03X79500Y-34650I900J0D01*
G74*
G01*
X79500Y-30350D02*
G75*
G03X78600Y-31250I0J-900D01*
G74*
G01*
X80400Y-31250D02*
G75*
G03X79500Y-30350I-900J0D01*
G74*
G01*
X79500Y-34650D02*
G75*
G03X80400Y-33750I0J900D01*
G74*
G01*
X80000Y-34000D02*
X79000Y-34000D01*
X79000Y-30750D02*
X80000Y-30750D01*
X91000Y-35000D02*
X91000Y-31750D01*
X92000Y-31750D02*
X92000Y-35000D01*
X90600Y-34750D02*
X90600Y-32250D01*
X92400Y-32250D02*
X92400Y-34750D01*
X91500Y-35650D02*
G75*
G03X92400Y-34750I0J900D01*
G74*
G01*
X90600Y-34750D02*
G75*
G03X91500Y-35650I900J0D01*
G74*
G01*
X91500Y-31350D02*
G75*
G03X90600Y-32250I0J-900D01*
G74*
G01*
X92400Y-32250D02*
G75*
G03X91500Y-31350I-900J0D01*
G74*
G01*
X91500Y-35650D02*
G75*
G03X92400Y-34750I0J900D01*
G74*
G01*
X92000Y-35000D02*
X91000Y-35000D01*
X91000Y-31750D02*
X92000Y-31750D01*
X78000Y-41500D02*
X78000Y-39500D01*
X78000Y-39500D02*
X79000Y-39500D01*
X79000Y-39500D02*
X79000Y-41500D01*
X79000Y-41500D02*
X78000Y-41500D01*
X81500Y-43250D02*
G75*
G03X81500Y-43250I-1750J0D01*
G74*
G01*
G54D11*
X94971Y-43750D02*
X94942Y-43735D01*
X94914Y-43707D01*
X94871Y-43664D01*
X94842Y-43650D01*
X94814Y-43650D01*
X94828Y-43721D02*
X94800Y-43707D01*
X94771Y-43678D01*
X94757Y-43621D01*
X94757Y-43521D01*
X94771Y-43464D01*
X94800Y-43435D01*
X94828Y-43421D01*
X94885Y-43421D01*
X94914Y-43435D01*
X94942Y-43464D01*
X94957Y-43521D01*
X94957Y-43621D01*
X94942Y-43678D01*
X94914Y-43707D01*
X94885Y-43721D01*
X94828Y-43721D01*
X95242Y-43721D02*
X95071Y-43721D01*
X95157Y-43721D02*
X95157Y-43421D01*
X95128Y-43464D01*
X95100Y-43492D01*
X95071Y-43507D01*
G54D17*
X95321Y-42475D02*
X95333Y-42463D01*
X95357Y-42451D01*
X95416Y-42451D01*
X95440Y-42463D01*
X95452Y-42475D01*
X95464Y-42498D01*
X95464Y-42522D01*
X95452Y-42558D01*
X95309Y-42701D01*
X95464Y-42701D01*
X95571Y-42701D02*
X95571Y-42451D01*
X95714Y-42701D01*
X95714Y-42451D01*
X95809Y-42451D02*
X95964Y-42451D01*
X95880Y-42546D01*
X95916Y-42546D01*
X95940Y-42558D01*
X95952Y-42570D01*
X95964Y-42594D01*
X95964Y-42653D01*
X95952Y-42677D01*
X95940Y-42689D01*
X95916Y-42701D01*
X95845Y-42701D01*
X95821Y-42689D01*
X95809Y-42677D01*
X96083Y-42701D02*
X96130Y-42701D01*
X96154Y-42689D01*
X96166Y-42677D01*
X96190Y-42641D01*
X96202Y-42594D01*
X96202Y-42498D01*
X96190Y-42475D01*
X96178Y-42463D01*
X96154Y-42451D01*
X96107Y-42451D01*
X96083Y-42463D01*
X96071Y-42475D01*
X96059Y-42498D01*
X96059Y-42558D01*
X96071Y-42582D01*
X96083Y-42594D01*
X96107Y-42605D01*
X96154Y-42605D01*
X96178Y-42594D01*
X96190Y-42582D01*
X96202Y-42558D01*
X96357Y-42451D02*
X96380Y-42451D01*
X96404Y-42463D01*
X96416Y-42475D01*
X96428Y-42498D01*
X96440Y-42546D01*
X96440Y-42605D01*
X96428Y-42653D01*
X96416Y-42677D01*
X96404Y-42689D01*
X96380Y-42701D01*
X96357Y-42701D01*
X96333Y-42689D01*
X96321Y-42677D01*
X96309Y-42653D01*
X96297Y-42605D01*
X96297Y-42546D01*
X96309Y-42498D01*
X96321Y-42475D01*
X96333Y-42463D01*
X96357Y-42451D01*
X96654Y-42534D02*
X96654Y-42701D01*
X96595Y-42439D02*
X96535Y-42617D01*
X96690Y-42617D01*
X96570Y-43303D02*
X96570Y-43220D01*
X96701Y-43184D02*
X96701Y-43303D01*
X96451Y-43303D01*
X96451Y-43184D01*
X95920Y-43732D02*
X95932Y-43696D01*
X95944Y-43684D01*
X95967Y-43672D01*
X96003Y-43672D01*
X96027Y-43684D01*
X96039Y-43696D01*
X96051Y-43720D01*
X96051Y-43815D01*
X95801Y-43815D01*
X95801Y-43732D01*
X95813Y-43708D01*
X95825Y-43696D01*
X95848Y-43684D01*
X95872Y-43684D01*
X95896Y-43696D01*
X95908Y-43708D01*
X95920Y-43732D01*
X95920Y-43815D01*
X96677Y-44172D02*
X96689Y-44184D01*
X96701Y-44220D01*
X96701Y-44244D01*
X96689Y-44279D01*
X96665Y-44303D01*
X96641Y-44315D01*
X96594Y-44327D01*
X96558Y-44327D01*
X96510Y-44315D01*
X96486Y-44303D01*
X96463Y-44279D01*
X96451Y-44244D01*
X96451Y-44220D01*
X96463Y-44184D01*
X96475Y-44172D01*
G54D11*
X92871Y-39500D02*
X92728Y-39600D01*
X92871Y-39671D02*
X92571Y-39671D01*
X92571Y-39557D01*
X92585Y-39528D01*
X92600Y-39514D01*
X92628Y-39500D01*
X92671Y-39500D01*
X92700Y-39514D01*
X92714Y-39528D01*
X92728Y-39557D01*
X92728Y-39671D01*
X92700Y-39328D02*
X92685Y-39357D01*
X92671Y-39371D01*
X92642Y-39385D01*
X92628Y-39385D01*
X92600Y-39371D01*
X92585Y-39357D01*
X92571Y-39328D01*
X92571Y-39271D01*
X92585Y-39242D01*
X92600Y-39228D01*
X92628Y-39214D01*
X92642Y-39214D01*
X92671Y-39228D01*
X92685Y-39242D01*
X92700Y-39271D01*
X92700Y-39328D01*
X92714Y-39357D01*
X92728Y-39371D01*
X92757Y-39385D01*
X92814Y-39385D01*
X92842Y-39371D01*
X92857Y-39357D01*
X92871Y-39328D01*
X92871Y-39271D01*
X92857Y-39242D01*
X92842Y-39228D01*
X92814Y-39214D01*
X92757Y-39214D01*
X92728Y-39228D01*
X92714Y-39242D01*
X92700Y-39271D01*
X92871Y-41085D02*
X92871Y-41257D01*
X92871Y-41171D02*
X92571Y-41171D01*
X92614Y-41199D01*
X92642Y-41228D01*
X92657Y-41257D01*
X92871Y-40957D02*
X92571Y-40957D01*
X92757Y-40928D02*
X92871Y-40842D01*
X92671Y-40842D02*
X92785Y-40957D01*
X93871Y-41100D02*
X93728Y-41200D01*
X93871Y-41271D02*
X93571Y-41271D01*
X93571Y-41157D01*
X93585Y-41128D01*
X93600Y-41114D01*
X93628Y-41100D01*
X93671Y-41100D01*
X93700Y-41114D01*
X93714Y-41128D01*
X93728Y-41157D01*
X93728Y-41271D01*
X93571Y-41000D02*
X93571Y-40800D01*
X93871Y-40928D01*
X93871Y-39535D02*
X93871Y-39707D01*
X93871Y-39621D02*
X93571Y-39621D01*
X93614Y-39649D01*
X93642Y-39678D01*
X93657Y-39707D01*
X93871Y-39407D02*
X93571Y-39407D01*
X93785Y-39307D01*
X93571Y-39207D01*
X93871Y-39207D01*
X84150Y-38121D02*
X84050Y-37978D01*
X83978Y-38121D02*
X83978Y-37821D01*
X84092Y-37821D01*
X84121Y-37835D01*
X84135Y-37850D01*
X84150Y-37878D01*
X84150Y-37921D01*
X84135Y-37950D01*
X84121Y-37964D01*
X84092Y-37978D01*
X83978Y-37978D01*
X84407Y-37821D02*
X84350Y-37821D01*
X84321Y-37835D01*
X84307Y-37850D01*
X84278Y-37892D01*
X84264Y-37950D01*
X84264Y-38064D01*
X84278Y-38092D01*
X84292Y-38107D01*
X84321Y-38121D01*
X84378Y-38121D01*
X84407Y-38107D01*
X84421Y-38092D01*
X84435Y-38064D01*
X84435Y-37992D01*
X84421Y-37964D01*
X84407Y-37950D01*
X84378Y-37935D01*
X84321Y-37935D01*
X84292Y-37950D01*
X84278Y-37964D01*
X84264Y-37992D01*
X85621Y-38121D02*
X85450Y-38121D01*
X85535Y-38121D02*
X85535Y-37821D01*
X85507Y-37864D01*
X85478Y-37892D01*
X85450Y-37907D01*
X85807Y-37821D02*
X85835Y-37821D01*
X85864Y-37835D01*
X85878Y-37850D01*
X85892Y-37878D01*
X85907Y-37935D01*
X85907Y-38007D01*
X85892Y-38064D01*
X85878Y-38092D01*
X85864Y-38107D01*
X85835Y-38121D01*
X85807Y-38121D01*
X85778Y-38107D01*
X85764Y-38092D01*
X85750Y-38064D01*
X85735Y-38007D01*
X85735Y-37935D01*
X85750Y-37878D01*
X85764Y-37850D01*
X85778Y-37835D01*
X85807Y-37821D01*
X86035Y-38121D02*
X86035Y-37821D01*
X86064Y-38007D02*
X86150Y-38121D01*
X86150Y-37921D02*
X86035Y-38035D01*
X84900Y-28371D02*
X84800Y-28228D01*
X84728Y-28371D02*
X84728Y-28071D01*
X84842Y-28071D01*
X84871Y-28085D01*
X84885Y-28100D01*
X84900Y-28128D01*
X84900Y-28171D01*
X84885Y-28200D01*
X84871Y-28214D01*
X84842Y-28228D01*
X84728Y-28228D01*
X85042Y-28371D02*
X85100Y-28371D01*
X85128Y-28357D01*
X85142Y-28342D01*
X85171Y-28300D01*
X85185Y-28242D01*
X85185Y-28128D01*
X85171Y-28100D01*
X85157Y-28085D01*
X85128Y-28071D01*
X85071Y-28071D01*
X85042Y-28085D01*
X85028Y-28100D01*
X85014Y-28128D01*
X85014Y-28200D01*
X85028Y-28228D01*
X85042Y-28242D01*
X85071Y-28257D01*
X85128Y-28257D01*
X85157Y-28242D01*
X85171Y-28228D01*
X85185Y-28200D01*
X86200Y-28171D02*
X86200Y-28371D01*
X86128Y-28057D02*
X86057Y-28271D01*
X86242Y-28271D01*
X86414Y-28071D02*
X86442Y-28071D01*
X86471Y-28085D01*
X86485Y-28100D01*
X86500Y-28128D01*
X86514Y-28185D01*
X86514Y-28257D01*
X86500Y-28314D01*
X86485Y-28342D01*
X86471Y-28357D01*
X86442Y-28371D01*
X86414Y-28371D01*
X86385Y-28357D01*
X86371Y-28342D01*
X86357Y-28314D01*
X86342Y-28257D01*
X86342Y-28185D01*
X86357Y-28128D01*
X86371Y-28100D01*
X86385Y-28085D01*
X86414Y-28071D01*
X86700Y-28071D02*
X86728Y-28071D01*
X86757Y-28085D01*
X86771Y-28100D01*
X86785Y-28128D01*
X86800Y-28185D01*
X86800Y-28257D01*
X86785Y-28314D01*
X86771Y-28342D01*
X86757Y-28357D01*
X86728Y-28371D01*
X86700Y-28371D01*
X86671Y-28357D01*
X86657Y-28342D01*
X86642Y-28314D01*
X86628Y-28257D01*
X86628Y-28185D01*
X86642Y-28128D01*
X86657Y-28100D01*
X86671Y-28085D01*
X86700Y-28071D01*
X86928Y-28371D02*
X86928Y-28071D01*
X86957Y-28257D02*
X87042Y-28371D01*
X87042Y-28171D02*
X86928Y-28285D01*
X80179Y-38850D02*
X80209Y-38679D01*
X80058Y-38729D02*
X80270Y-38517D01*
X80350Y-38598D01*
X80361Y-38628D01*
X80361Y-38648D01*
X80350Y-38679D01*
X80320Y-38709D01*
X80290Y-38719D01*
X80270Y-38719D01*
X80239Y-38709D01*
X80159Y-38628D01*
X80381Y-39052D02*
X80260Y-38931D01*
X80320Y-38992D02*
X80532Y-38780D01*
X80482Y-38790D01*
X80441Y-38790D01*
X80411Y-38780D01*
X80482Y-39154D02*
X80522Y-39194D01*
X80552Y-39204D01*
X80573Y-39204D01*
X80623Y-39194D01*
X80674Y-39164D01*
X80755Y-39083D01*
X80765Y-39052D01*
X80765Y-39032D01*
X80755Y-39002D01*
X80714Y-38962D01*
X80684Y-38951D01*
X80664Y-38951D01*
X80633Y-38962D01*
X80583Y-39012D01*
X80573Y-39042D01*
X80573Y-39063D01*
X80583Y-39093D01*
X80623Y-39133D01*
X80654Y-39143D01*
X80674Y-39143D01*
X80704Y-39133D01*
X79057Y-37729D02*
X78936Y-37608D01*
X78997Y-37669D02*
X79209Y-37456D01*
X79158Y-37467D01*
X79118Y-37467D01*
X79088Y-37456D01*
X79401Y-37648D02*
X79421Y-37669D01*
X79431Y-37699D01*
X79431Y-37719D01*
X79421Y-37749D01*
X79391Y-37800D01*
X79340Y-37850D01*
X79290Y-37881D01*
X79260Y-37891D01*
X79239Y-37891D01*
X79209Y-37881D01*
X79189Y-37861D01*
X79179Y-37830D01*
X79179Y-37810D01*
X79189Y-37780D01*
X79219Y-37729D01*
X79270Y-37679D01*
X79320Y-37648D01*
X79350Y-37638D01*
X79371Y-37638D01*
X79401Y-37648D01*
X79350Y-38022D02*
X79563Y-37810D01*
X79451Y-37962D02*
X79431Y-38103D01*
X79573Y-37962D02*
X79411Y-37962D01*
X85462Y-32535D02*
X85633Y-32707D01*
X85664Y-32717D01*
X85684Y-32717D01*
X85714Y-32707D01*
X85755Y-32666D01*
X85765Y-32636D01*
X85765Y-32616D01*
X85755Y-32585D01*
X85583Y-32414D01*
X86007Y-32414D02*
X85886Y-32535D01*
X85946Y-32474D02*
X85734Y-32262D01*
X85744Y-32313D01*
X85744Y-32353D01*
X85734Y-32383D01*
X83633Y-31606D02*
X83532Y-31707D01*
X83320Y-31494D01*
X83462Y-31353D02*
X83583Y-31232D01*
X83734Y-31504D02*
X83522Y-31292D01*
X83633Y-31181D02*
X83775Y-31040D01*
X83845Y-31393D01*
X83987Y-31252D01*
X84179Y-31060D02*
X84057Y-31181D01*
X84118Y-31121D02*
X83906Y-30909D01*
X83916Y-30959D01*
X83916Y-30999D01*
X83906Y-31030D01*
X84098Y-30717D02*
X84118Y-30696D01*
X84148Y-30686D01*
X84169Y-30686D01*
X84199Y-30696D01*
X84249Y-30727D01*
X84300Y-30777D01*
X84330Y-30828D01*
X84340Y-30858D01*
X84340Y-30878D01*
X84330Y-30909D01*
X84310Y-30929D01*
X84280Y-30939D01*
X84260Y-30939D01*
X84229Y-30929D01*
X84179Y-30898D01*
X84128Y-30848D01*
X84098Y-30797D01*
X84088Y-30767D01*
X84088Y-30747D01*
X84098Y-30717D01*
X84300Y-30515D02*
X84320Y-30494D01*
X84350Y-30484D01*
X84371Y-30484D01*
X84401Y-30494D01*
X84451Y-30525D01*
X84502Y-30575D01*
X84532Y-30626D01*
X84542Y-30656D01*
X84542Y-30676D01*
X84532Y-30706D01*
X84512Y-30727D01*
X84482Y-30737D01*
X84462Y-30737D01*
X84431Y-30727D01*
X84381Y-30696D01*
X84330Y-30646D01*
X84300Y-30595D01*
X84290Y-30565D01*
X84290Y-30545D01*
X84300Y-30515D01*
X84502Y-30313D02*
X84522Y-30292D01*
X84552Y-30282D01*
X84573Y-30282D01*
X84603Y-30292D01*
X84653Y-30323D01*
X84704Y-30373D01*
X84734Y-30424D01*
X84744Y-30454D01*
X84744Y-30474D01*
X84734Y-30504D01*
X84714Y-30525D01*
X84684Y-30535D01*
X84664Y-30535D01*
X84633Y-30525D01*
X84583Y-30494D01*
X84532Y-30444D01*
X84502Y-30393D01*
X84492Y-30363D01*
X84492Y-30343D01*
X84502Y-30313D01*
X84805Y-30313D02*
X84906Y-30212D01*
X84845Y-30393D02*
X84704Y-30110D01*
X84987Y-30252D01*
X90071Y-40478D02*
X90314Y-40478D01*
X90342Y-40464D01*
X90357Y-40450D01*
X90371Y-40421D01*
X90371Y-40364D01*
X90357Y-40335D01*
X90342Y-40321D01*
X90314Y-40307D01*
X90071Y-40307D01*
X90100Y-40178D02*
X90085Y-40164D01*
X90071Y-40135D01*
X90071Y-40064D01*
X90085Y-40035D01*
X90100Y-40021D01*
X90128Y-40007D01*
X90157Y-40007D01*
X90200Y-40021D01*
X90371Y-40192D01*
X90371Y-40007D01*
X87907Y-40371D02*
X87764Y-40371D01*
X87764Y-40071D01*
X87964Y-40071D02*
X88135Y-40071D01*
X88050Y-40371D02*
X88050Y-40071D01*
X88392Y-40371D02*
X88221Y-40371D01*
X88307Y-40371D02*
X88307Y-40071D01*
X88278Y-40114D01*
X88250Y-40142D01*
X88221Y-40157D01*
X88578Y-40071D02*
X88607Y-40071D01*
X88635Y-40085D01*
X88650Y-40100D01*
X88664Y-40128D01*
X88678Y-40185D01*
X88678Y-40257D01*
X88664Y-40314D01*
X88650Y-40342D01*
X88635Y-40357D01*
X88607Y-40371D01*
X88578Y-40371D01*
X88550Y-40357D01*
X88535Y-40342D01*
X88521Y-40314D01*
X88507Y-40257D01*
X88507Y-40185D01*
X88521Y-40128D01*
X88535Y-40100D01*
X88550Y-40085D01*
X88578Y-40071D01*
X88964Y-40371D02*
X88792Y-40371D01*
X88878Y-40371D02*
X88878Y-40071D01*
X88850Y-40114D01*
X88821Y-40142D01*
X88792Y-40157D01*
X89064Y-40071D02*
X89249Y-40071D01*
X89149Y-40185D01*
X89192Y-40185D01*
X89221Y-40200D01*
X89235Y-40214D01*
X89249Y-40242D01*
X89249Y-40314D01*
X89235Y-40342D01*
X89221Y-40357D01*
X89192Y-40371D01*
X89107Y-40371D01*
X89078Y-40357D01*
X89064Y-40342D01*
X95700Y-41692D02*
X95685Y-41707D01*
X95642Y-41721D01*
X95614Y-41721D01*
X95571Y-41707D01*
X95542Y-41678D01*
X95528Y-41650D01*
X95514Y-41592D01*
X95514Y-41550D01*
X95528Y-41492D01*
X95542Y-41464D01*
X95571Y-41435D01*
X95614Y-41421D01*
X95642Y-41421D01*
X95685Y-41435D01*
X95700Y-41450D01*
X95985Y-41721D02*
X95814Y-41721D01*
X95900Y-41721D02*
X95900Y-41421D01*
X95871Y-41464D01*
X95842Y-41492D01*
X95814Y-41507D01*
X95257Y-40571D02*
X95285Y-40571D01*
X95314Y-40585D01*
X95328Y-40600D01*
X95342Y-40628D01*
X95357Y-40685D01*
X95357Y-40757D01*
X95342Y-40814D01*
X95328Y-40842D01*
X95314Y-40857D01*
X95285Y-40871D01*
X95257Y-40871D01*
X95228Y-40857D01*
X95214Y-40842D01*
X95200Y-40814D01*
X95185Y-40757D01*
X95185Y-40685D01*
X95200Y-40628D01*
X95214Y-40600D01*
X95228Y-40585D01*
X95257Y-40571D01*
X95485Y-40842D02*
X95500Y-40857D01*
X95485Y-40871D01*
X95471Y-40857D01*
X95485Y-40842D01*
X95485Y-40871D01*
X95785Y-40871D02*
X95614Y-40871D01*
X95700Y-40871D02*
X95700Y-40571D01*
X95671Y-40614D01*
X95642Y-40642D01*
X95614Y-40657D01*
X96042Y-40671D02*
X96042Y-40871D01*
X95914Y-40671D02*
X95914Y-40828D01*
X95928Y-40857D01*
X95957Y-40871D01*
X96000Y-40871D01*
X96028Y-40857D01*
X96042Y-40842D01*
X96285Y-40714D02*
X96185Y-40714D01*
X96185Y-40871D02*
X96185Y-40571D01*
X96328Y-40571D01*
X92350Y-36592D02*
X92335Y-36607D01*
X92292Y-36621D01*
X92264Y-36621D01*
X92221Y-36607D01*
X92192Y-36578D01*
X92178Y-36550D01*
X92164Y-36492D01*
X92164Y-36450D01*
X92178Y-36392D01*
X92192Y-36364D01*
X92221Y-36335D01*
X92264Y-36321D01*
X92292Y-36321D01*
X92335Y-36335D01*
X92350Y-36350D01*
X92464Y-36350D02*
X92478Y-36335D01*
X92507Y-36321D01*
X92578Y-36321D01*
X92607Y-36335D01*
X92621Y-36350D01*
X92635Y-36378D01*
X92635Y-36407D01*
X92621Y-36450D01*
X92450Y-36621D01*
X92635Y-36621D01*
X90007Y-36321D02*
X90035Y-36321D01*
X90064Y-36335D01*
X90078Y-36350D01*
X90092Y-36378D01*
X90107Y-36435D01*
X90107Y-36507D01*
X90092Y-36564D01*
X90078Y-36592D01*
X90064Y-36607D01*
X90035Y-36621D01*
X90007Y-36621D01*
X89978Y-36607D01*
X89964Y-36592D01*
X89950Y-36564D01*
X89935Y-36507D01*
X89935Y-36435D01*
X89950Y-36378D01*
X89964Y-36350D01*
X89978Y-36335D01*
X90007Y-36321D01*
X90235Y-36592D02*
X90250Y-36607D01*
X90235Y-36621D01*
X90221Y-36607D01*
X90235Y-36592D01*
X90235Y-36621D01*
X90535Y-36621D02*
X90364Y-36621D01*
X90450Y-36621D02*
X90450Y-36321D01*
X90421Y-36364D01*
X90392Y-36392D01*
X90364Y-36407D01*
X90792Y-36421D02*
X90792Y-36621D01*
X90664Y-36421D02*
X90664Y-36578D01*
X90678Y-36607D01*
X90707Y-36621D01*
X90750Y-36621D01*
X90778Y-36607D01*
X90792Y-36592D01*
X91035Y-36464D02*
X90935Y-36464D01*
X90935Y-36621D02*
X90935Y-36321D01*
X91078Y-36321D01*
X85200Y-42142D02*
X85185Y-42157D01*
X85142Y-42171D01*
X85114Y-42171D01*
X85071Y-42157D01*
X85042Y-42128D01*
X85028Y-42100D01*
X85014Y-42042D01*
X85014Y-42000D01*
X85028Y-41942D01*
X85042Y-41914D01*
X85071Y-41885D01*
X85114Y-41871D01*
X85142Y-41871D01*
X85185Y-41885D01*
X85200Y-41900D01*
X85300Y-41871D02*
X85485Y-41871D01*
X85385Y-41985D01*
X85428Y-41985D01*
X85457Y-42000D01*
X85471Y-42014D01*
X85485Y-42042D01*
X85485Y-42114D01*
X85471Y-42142D01*
X85457Y-42157D01*
X85428Y-42171D01*
X85342Y-42171D01*
X85314Y-42157D01*
X85300Y-42142D01*
X85100Y-40742D02*
X85085Y-40728D01*
X85071Y-40700D01*
X85071Y-40628D01*
X85085Y-40600D01*
X85100Y-40585D01*
X85128Y-40571D01*
X85157Y-40571D01*
X85200Y-40585D01*
X85371Y-40757D01*
X85371Y-40571D01*
X85100Y-40457D02*
X85085Y-40442D01*
X85071Y-40414D01*
X85071Y-40342D01*
X85085Y-40314D01*
X85100Y-40300D01*
X85128Y-40285D01*
X85157Y-40285D01*
X85200Y-40300D01*
X85371Y-40471D01*
X85371Y-40285D01*
X85171Y-40157D02*
X85371Y-40157D01*
X85200Y-40157D02*
X85185Y-40142D01*
X85171Y-40114D01*
X85171Y-40071D01*
X85185Y-40042D01*
X85214Y-40028D01*
X85371Y-40028D01*
X85214Y-39785D02*
X85214Y-39885D01*
X85371Y-39885D02*
X85071Y-39885D01*
X85071Y-39742D01*
X86200Y-42142D02*
X86185Y-42157D01*
X86142Y-42171D01*
X86114Y-42171D01*
X86071Y-42157D01*
X86042Y-42128D01*
X86028Y-42100D01*
X86014Y-42042D01*
X86014Y-42000D01*
X86028Y-41942D01*
X86042Y-41914D01*
X86071Y-41885D01*
X86114Y-41871D01*
X86142Y-41871D01*
X86185Y-41885D01*
X86200Y-41900D01*
X86457Y-41971D02*
X86457Y-42171D01*
X86385Y-41857D02*
X86314Y-42071D01*
X86500Y-42071D01*
X86071Y-40742D02*
X86071Y-40714D01*
X86085Y-40685D01*
X86100Y-40671D01*
X86128Y-40657D01*
X86185Y-40642D01*
X86257Y-40642D01*
X86314Y-40657D01*
X86342Y-40671D01*
X86357Y-40685D01*
X86371Y-40714D01*
X86371Y-40742D01*
X86357Y-40771D01*
X86342Y-40785D01*
X86314Y-40799D01*
X86257Y-40814D01*
X86185Y-40814D01*
X86128Y-40799D01*
X86100Y-40785D01*
X86085Y-40771D01*
X86071Y-40742D01*
X86342Y-40514D02*
X86357Y-40500D01*
X86371Y-40514D01*
X86357Y-40528D01*
X86342Y-40514D01*
X86371Y-40514D01*
X86371Y-40214D02*
X86371Y-40385D01*
X86371Y-40300D02*
X86071Y-40300D01*
X86114Y-40328D01*
X86142Y-40357D01*
X86157Y-40385D01*
X86171Y-39957D02*
X86371Y-39957D01*
X86171Y-40085D02*
X86328Y-40085D01*
X86357Y-40071D01*
X86371Y-40042D01*
X86371Y-40000D01*
X86357Y-39971D01*
X86342Y-39957D01*
X86214Y-39714D02*
X86214Y-39814D01*
X86371Y-39814D02*
X86071Y-39814D01*
X86071Y-39671D01*
X91350Y-43242D02*
X91335Y-43257D01*
X91292Y-43271D01*
X91264Y-43271D01*
X91221Y-43257D01*
X91192Y-43228D01*
X91178Y-43200D01*
X91164Y-43142D01*
X91164Y-43100D01*
X91178Y-43042D01*
X91192Y-43014D01*
X91221Y-42985D01*
X91264Y-42971D01*
X91292Y-42971D01*
X91335Y-42985D01*
X91350Y-43000D01*
X91521Y-43100D02*
X91492Y-43085D01*
X91478Y-43071D01*
X91464Y-43042D01*
X91464Y-43028D01*
X91478Y-43000D01*
X91492Y-42985D01*
X91521Y-42971D01*
X91578Y-42971D01*
X91607Y-42985D01*
X91621Y-43000D01*
X91635Y-43028D01*
X91635Y-43042D01*
X91621Y-43071D01*
X91607Y-43085D01*
X91578Y-43100D01*
X91521Y-43100D01*
X91492Y-43114D01*
X91478Y-43128D01*
X91464Y-43157D01*
X91464Y-43214D01*
X91478Y-43242D01*
X91492Y-43257D01*
X91521Y-43271D01*
X91578Y-43271D01*
X91607Y-43257D01*
X91621Y-43242D01*
X91635Y-43214D01*
X91635Y-43157D01*
X91621Y-43128D01*
X91607Y-43114D01*
X91578Y-43100D01*
X89007Y-42571D02*
X89035Y-42571D01*
X89064Y-42585D01*
X89078Y-42600D01*
X89092Y-42628D01*
X89107Y-42685D01*
X89107Y-42757D01*
X89092Y-42814D01*
X89078Y-42842D01*
X89064Y-42857D01*
X89035Y-42871D01*
X89007Y-42871D01*
X88978Y-42857D01*
X88964Y-42842D01*
X88950Y-42814D01*
X88935Y-42757D01*
X88935Y-42685D01*
X88950Y-42628D01*
X88964Y-42600D01*
X88978Y-42585D01*
X89007Y-42571D01*
X89235Y-42842D02*
X89250Y-42857D01*
X89235Y-42871D01*
X89221Y-42857D01*
X89235Y-42842D01*
X89235Y-42871D01*
X89535Y-42871D02*
X89364Y-42871D01*
X89450Y-42871D02*
X89450Y-42571D01*
X89421Y-42614D01*
X89392Y-42642D01*
X89364Y-42657D01*
X89792Y-42671D02*
X89792Y-42871D01*
X89664Y-42671D02*
X89664Y-42828D01*
X89678Y-42857D01*
X89707Y-42871D01*
X89750Y-42871D01*
X89778Y-42857D01*
X89792Y-42842D01*
X90035Y-42714D02*
X89935Y-42714D01*
X89935Y-42871D02*
X89935Y-42571D01*
X90078Y-42571D01*
X83647Y-35879D02*
X83627Y-35879D01*
X83587Y-35859D01*
X83567Y-35838D01*
X83546Y-35798D01*
X83546Y-35758D01*
X83557Y-35727D01*
X83587Y-35677D01*
X83617Y-35646D01*
X83668Y-35616D01*
X83698Y-35606D01*
X83738Y-35606D01*
X83779Y-35626D01*
X83799Y-35646D01*
X83819Y-35687D01*
X83819Y-35707D01*
X83829Y-36101D02*
X83708Y-35980D01*
X83769Y-36040D02*
X83981Y-35828D01*
X83930Y-35838D01*
X83890Y-35838D01*
X83860Y-35828D01*
X84031Y-36303D02*
X83910Y-36182D01*
X83971Y-36242D02*
X84183Y-36030D01*
X84132Y-36040D01*
X84092Y-36040D01*
X84062Y-36030D01*
X82277Y-35275D02*
X82297Y-35295D01*
X82308Y-35325D01*
X82308Y-35345D01*
X82297Y-35376D01*
X82267Y-35426D01*
X82217Y-35477D01*
X82166Y-35507D01*
X82136Y-35517D01*
X82116Y-35517D01*
X82085Y-35507D01*
X82065Y-35487D01*
X82055Y-35457D01*
X82055Y-35436D01*
X82065Y-35406D01*
X82095Y-35356D01*
X82146Y-35305D01*
X82196Y-35275D01*
X82227Y-35265D01*
X82247Y-35265D01*
X82277Y-35275D01*
X82247Y-35628D02*
X82247Y-35648D01*
X82227Y-35648D01*
X82227Y-35628D01*
X82247Y-35628D01*
X82227Y-35648D01*
X82439Y-35861D02*
X82318Y-35739D01*
X82378Y-35800D02*
X82590Y-35588D01*
X82540Y-35598D01*
X82500Y-35598D01*
X82469Y-35588D01*
X82762Y-35901D02*
X82621Y-36042D01*
X82671Y-35810D02*
X82560Y-35921D01*
X82550Y-35952D01*
X82560Y-35982D01*
X82590Y-36012D01*
X82621Y-36022D01*
X82641Y-36022D01*
X82904Y-36103D02*
X82833Y-36032D01*
X82722Y-36143D02*
X82934Y-35931D01*
X83035Y-36032D01*
X82192Y-31592D02*
X82207Y-31607D01*
X82221Y-31650D01*
X82221Y-31678D01*
X82207Y-31721D01*
X82178Y-31750D01*
X82150Y-31764D01*
X82092Y-31778D01*
X82050Y-31778D01*
X81992Y-31764D01*
X81964Y-31750D01*
X81935Y-31721D01*
X81921Y-31678D01*
X81921Y-31650D01*
X81935Y-31607D01*
X81950Y-31592D01*
X82221Y-31307D02*
X82221Y-31478D01*
X82221Y-31392D02*
X81921Y-31392D01*
X81964Y-31421D01*
X81992Y-31450D01*
X82007Y-31478D01*
X81950Y-31192D02*
X81935Y-31178D01*
X81921Y-31150D01*
X81921Y-31078D01*
X81935Y-31050D01*
X81950Y-31035D01*
X81978Y-31021D01*
X82007Y-31021D01*
X82050Y-31035D01*
X82221Y-31207D01*
X82221Y-31021D01*
X81071Y-32992D02*
X81071Y-32964D01*
X81085Y-32935D01*
X81100Y-32921D01*
X81128Y-32907D01*
X81185Y-32892D01*
X81257Y-32892D01*
X81314Y-32907D01*
X81342Y-32921D01*
X81357Y-32935D01*
X81371Y-32964D01*
X81371Y-32992D01*
X81357Y-33021D01*
X81342Y-33035D01*
X81314Y-33049D01*
X81257Y-33064D01*
X81185Y-33064D01*
X81128Y-33049D01*
X81100Y-33035D01*
X81085Y-33021D01*
X81071Y-32992D01*
X81342Y-32764D02*
X81357Y-32750D01*
X81371Y-32764D01*
X81357Y-32778D01*
X81342Y-32764D01*
X81371Y-32764D01*
X81371Y-32464D02*
X81371Y-32635D01*
X81371Y-32550D02*
X81071Y-32550D01*
X81114Y-32578D01*
X81142Y-32607D01*
X81157Y-32635D01*
X81171Y-32207D02*
X81371Y-32207D01*
X81171Y-32335D02*
X81328Y-32335D01*
X81357Y-32321D01*
X81371Y-32292D01*
X81371Y-32250D01*
X81357Y-32221D01*
X81342Y-32207D01*
X81214Y-31964D02*
X81214Y-32064D01*
X81371Y-32064D02*
X81071Y-32064D01*
X81071Y-31921D01*
X95557Y-39042D02*
X95542Y-39057D01*
X95500Y-39071D01*
X95471Y-39071D01*
X95428Y-39057D01*
X95400Y-39028D01*
X95385Y-39000D01*
X95371Y-38942D01*
X95371Y-38900D01*
X95385Y-38842D01*
X95400Y-38814D01*
X95428Y-38785D01*
X95471Y-38771D01*
X95500Y-38771D01*
X95542Y-38785D01*
X95557Y-38800D01*
X95842Y-39071D02*
X95671Y-39071D01*
X95757Y-39071D02*
X95757Y-38771D01*
X95728Y-38814D01*
X95700Y-38842D01*
X95671Y-38857D01*
X95942Y-38771D02*
X96128Y-38771D01*
X96028Y-38885D01*
X96071Y-38885D01*
X96100Y-38900D01*
X96114Y-38914D01*
X96128Y-38942D01*
X96128Y-39014D01*
X96114Y-39042D01*
X96100Y-39057D01*
X96071Y-39071D01*
X95985Y-39071D01*
X95957Y-39057D01*
X95942Y-39042D01*
X95428Y-39871D02*
X95257Y-39871D01*
X95342Y-39871D02*
X95342Y-39571D01*
X95314Y-39614D01*
X95285Y-39642D01*
X95257Y-39657D01*
X95614Y-39571D02*
X95642Y-39571D01*
X95671Y-39585D01*
X95685Y-39600D01*
X95700Y-39628D01*
X95714Y-39685D01*
X95714Y-39757D01*
X95700Y-39814D01*
X95685Y-39842D01*
X95671Y-39857D01*
X95642Y-39871D01*
X95614Y-39871D01*
X95585Y-39857D01*
X95571Y-39842D01*
X95557Y-39814D01*
X95542Y-39757D01*
X95542Y-39685D01*
X95557Y-39628D01*
X95571Y-39600D01*
X95585Y-39585D01*
X95614Y-39571D01*
X95842Y-39671D02*
X95842Y-39871D01*
X95842Y-39700D02*
X95857Y-39685D01*
X95885Y-39671D01*
X95928Y-39671D01*
X95957Y-39685D01*
X95971Y-39714D01*
X95971Y-39871D01*
X96214Y-39714D02*
X96114Y-39714D01*
X96114Y-39871D02*
X96114Y-39571D01*
X96257Y-39571D01*
X91357Y-37842D02*
X91342Y-37857D01*
X91300Y-37871D01*
X91271Y-37871D01*
X91228Y-37857D01*
X91200Y-37828D01*
X91185Y-37800D01*
X91171Y-37742D01*
X91171Y-37700D01*
X91185Y-37642D01*
X91200Y-37614D01*
X91228Y-37585D01*
X91271Y-37571D01*
X91300Y-37571D01*
X91342Y-37585D01*
X91357Y-37600D01*
X91642Y-37871D02*
X91471Y-37871D01*
X91557Y-37871D02*
X91557Y-37571D01*
X91528Y-37614D01*
X91500Y-37642D01*
X91471Y-37657D01*
X91900Y-37671D02*
X91900Y-37871D01*
X91828Y-37557D02*
X91757Y-37771D01*
X91942Y-37771D01*
X89007Y-37571D02*
X89035Y-37571D01*
X89064Y-37585D01*
X89078Y-37600D01*
X89092Y-37628D01*
X89107Y-37685D01*
X89107Y-37757D01*
X89092Y-37814D01*
X89078Y-37842D01*
X89064Y-37857D01*
X89035Y-37871D01*
X89007Y-37871D01*
X88978Y-37857D01*
X88964Y-37842D01*
X88950Y-37814D01*
X88935Y-37757D01*
X88935Y-37685D01*
X88950Y-37628D01*
X88964Y-37600D01*
X88978Y-37585D01*
X89007Y-37571D01*
X89235Y-37842D02*
X89250Y-37857D01*
X89235Y-37871D01*
X89221Y-37857D01*
X89235Y-37842D01*
X89235Y-37871D01*
X89535Y-37871D02*
X89364Y-37871D01*
X89450Y-37871D02*
X89450Y-37571D01*
X89421Y-37614D01*
X89392Y-37642D01*
X89364Y-37657D01*
X89792Y-37671D02*
X89792Y-37871D01*
X89664Y-37671D02*
X89664Y-37828D01*
X89678Y-37857D01*
X89707Y-37871D01*
X89750Y-37871D01*
X89778Y-37857D01*
X89792Y-37842D01*
X90035Y-37714D02*
X89935Y-37714D01*
X89935Y-37871D02*
X89935Y-37571D01*
X90078Y-37571D01*
X84257Y-43242D02*
X84242Y-43257D01*
X84200Y-43271D01*
X84171Y-43271D01*
X84128Y-43257D01*
X84100Y-43228D01*
X84085Y-43200D01*
X84071Y-43142D01*
X84071Y-43100D01*
X84085Y-43042D01*
X84100Y-43014D01*
X84128Y-42985D01*
X84171Y-42971D01*
X84200Y-42971D01*
X84242Y-42985D01*
X84257Y-43000D01*
X84542Y-43271D02*
X84371Y-43271D01*
X84457Y-43271D02*
X84457Y-42971D01*
X84428Y-43014D01*
X84400Y-43042D01*
X84371Y-43057D01*
X84814Y-42971D02*
X84671Y-42971D01*
X84657Y-43114D01*
X84671Y-43100D01*
X84700Y-43085D01*
X84771Y-43085D01*
X84800Y-43100D01*
X84814Y-43114D01*
X84828Y-43142D01*
X84828Y-43214D01*
X84814Y-43242D01*
X84800Y-43257D01*
X84771Y-43271D01*
X84700Y-43271D01*
X84671Y-43257D01*
X84657Y-43242D01*
X86007Y-42571D02*
X86035Y-42571D01*
X86064Y-42585D01*
X86078Y-42600D01*
X86092Y-42628D01*
X86107Y-42685D01*
X86107Y-42757D01*
X86092Y-42814D01*
X86078Y-42842D01*
X86064Y-42857D01*
X86035Y-42871D01*
X86007Y-42871D01*
X85978Y-42857D01*
X85964Y-42842D01*
X85950Y-42814D01*
X85935Y-42757D01*
X85935Y-42685D01*
X85950Y-42628D01*
X85964Y-42600D01*
X85978Y-42585D01*
X86007Y-42571D01*
X86235Y-42842D02*
X86250Y-42857D01*
X86235Y-42871D01*
X86221Y-42857D01*
X86235Y-42842D01*
X86235Y-42871D01*
X86535Y-42871D02*
X86364Y-42871D01*
X86450Y-42871D02*
X86450Y-42571D01*
X86421Y-42614D01*
X86392Y-42642D01*
X86364Y-42657D01*
X86792Y-42671D02*
X86792Y-42871D01*
X86664Y-42671D02*
X86664Y-42828D01*
X86678Y-42857D01*
X86707Y-42871D01*
X86750Y-42871D01*
X86778Y-42857D01*
X86792Y-42842D01*
X87035Y-42714D02*
X86935Y-42714D01*
X86935Y-42871D02*
X86935Y-42571D01*
X87078Y-42571D01*
X85528Y-44871D02*
X85528Y-44571D01*
X85600Y-44571D01*
X85642Y-44585D01*
X85671Y-44614D01*
X85685Y-44642D01*
X85700Y-44700D01*
X85700Y-44742D01*
X85685Y-44800D01*
X85671Y-44828D01*
X85642Y-44857D01*
X85600Y-44871D01*
X85528Y-44871D01*
X85957Y-44671D02*
X85957Y-44871D01*
X85885Y-44557D02*
X85814Y-44771D01*
X86000Y-44771D01*
X87857Y-44371D02*
X87685Y-44371D01*
X87771Y-44371D02*
X87771Y-44071D01*
X87742Y-44114D01*
X87714Y-44142D01*
X87685Y-44157D01*
X87985Y-44371D02*
X87985Y-44071D01*
X88157Y-44371D01*
X88157Y-44071D01*
X88442Y-44071D02*
X88300Y-44071D01*
X88285Y-44214D01*
X88300Y-44200D01*
X88328Y-44185D01*
X88400Y-44185D01*
X88428Y-44200D01*
X88442Y-44214D01*
X88457Y-44242D01*
X88457Y-44314D01*
X88442Y-44342D01*
X88428Y-44357D01*
X88400Y-44371D01*
X88328Y-44371D01*
X88300Y-44357D01*
X88285Y-44342D01*
X88628Y-44200D02*
X88600Y-44185D01*
X88585Y-44171D01*
X88571Y-44142D01*
X88571Y-44128D01*
X88585Y-44100D01*
X88600Y-44085D01*
X88628Y-44071D01*
X88685Y-44071D01*
X88714Y-44085D01*
X88728Y-44100D01*
X88742Y-44128D01*
X88742Y-44142D01*
X88728Y-44171D01*
X88714Y-44185D01*
X88685Y-44200D01*
X88628Y-44200D01*
X88600Y-44214D01*
X88585Y-44228D01*
X88571Y-44257D01*
X88571Y-44314D01*
X88585Y-44342D01*
X88600Y-44357D01*
X88628Y-44371D01*
X88685Y-44371D01*
X88714Y-44357D01*
X88728Y-44342D01*
X88742Y-44314D01*
X88742Y-44257D01*
X88728Y-44228D01*
X88714Y-44214D01*
X88685Y-44200D01*
X89028Y-44371D02*
X88857Y-44371D01*
X88942Y-44371D02*
X88942Y-44071D01*
X88914Y-44114D01*
X88885Y-44142D01*
X88857Y-44157D01*
X89171Y-44371D02*
X89228Y-44371D01*
X89257Y-44357D01*
X89271Y-44342D01*
X89300Y-44300D01*
X89314Y-44242D01*
X89314Y-44128D01*
X89300Y-44100D01*
X89285Y-44085D01*
X89257Y-44071D01*
X89200Y-44071D01*
X89171Y-44085D01*
X89157Y-44100D01*
X89142Y-44128D01*
X89142Y-44200D01*
X89157Y-44228D01*
X89171Y-44242D01*
X89200Y-44257D01*
X89257Y-44257D01*
X89285Y-44242D01*
X89300Y-44228D01*
X89314Y-44200D01*
X91871Y-42721D02*
X91571Y-42721D01*
X91571Y-42650D01*
X91585Y-42607D01*
X91614Y-42578D01*
X91642Y-42564D01*
X91700Y-42550D01*
X91742Y-42550D01*
X91800Y-42564D01*
X91828Y-42578D01*
X91857Y-42607D01*
X91871Y-42650D01*
X91871Y-42721D01*
X91600Y-42435D02*
X91585Y-42421D01*
X91571Y-42392D01*
X91571Y-42321D01*
X91585Y-42292D01*
X91600Y-42278D01*
X91628Y-42264D01*
X91657Y-42264D01*
X91700Y-42278D01*
X91871Y-42450D01*
X91871Y-42264D01*
X91871Y-40892D02*
X91871Y-41064D01*
X91871Y-40978D02*
X91571Y-40978D01*
X91614Y-41007D01*
X91642Y-41035D01*
X91657Y-41064D01*
X91871Y-40764D02*
X91571Y-40764D01*
X91871Y-40592D01*
X91571Y-40592D01*
X91671Y-40321D02*
X91871Y-40321D01*
X91557Y-40392D02*
X91771Y-40464D01*
X91771Y-40278D01*
X91871Y-40007D02*
X91871Y-40178D01*
X91871Y-40092D02*
X91571Y-40092D01*
X91614Y-40121D01*
X91642Y-40150D01*
X91657Y-40178D01*
X91671Y-39750D02*
X91871Y-39750D01*
X91557Y-39821D02*
X91771Y-39892D01*
X91771Y-39707D01*
X91700Y-39550D02*
X91685Y-39578D01*
X91671Y-39592D01*
X91642Y-39607D01*
X91628Y-39607D01*
X91600Y-39592D01*
X91585Y-39578D01*
X91571Y-39550D01*
X91571Y-39492D01*
X91585Y-39464D01*
X91600Y-39450D01*
X91628Y-39435D01*
X91642Y-39435D01*
X91671Y-39450D01*
X91685Y-39464D01*
X91700Y-39492D01*
X91700Y-39550D01*
X91714Y-39578D01*
X91728Y-39592D01*
X91757Y-39607D01*
X91814Y-39607D01*
X91842Y-39592D01*
X91857Y-39578D01*
X91871Y-39550D01*
X91871Y-39492D01*
X91857Y-39464D01*
X91842Y-39450D01*
X91814Y-39435D01*
X91757Y-39435D01*
X91728Y-39450D01*
X91714Y-39464D01*
X91700Y-39492D01*
X89729Y-35742D02*
X89517Y-35530D01*
X89567Y-35479D01*
X89608Y-35459D01*
X89648Y-35459D01*
X89678Y-35469D01*
X89729Y-35500D01*
X89759Y-35530D01*
X89789Y-35580D01*
X89800Y-35611D01*
X89800Y-35651D01*
X89779Y-35691D01*
X89729Y-35742D01*
X90052Y-35419D02*
X89931Y-35540D01*
X89991Y-35479D02*
X89779Y-35267D01*
X89789Y-35318D01*
X89789Y-35358D01*
X89779Y-35388D01*
X88381Y-36040D02*
X88260Y-36161D01*
X88320Y-36101D02*
X88108Y-35888D01*
X88118Y-35939D01*
X88118Y-35979D01*
X88108Y-36010D01*
X88472Y-35949D02*
X88260Y-35737D01*
X88593Y-35828D01*
X88381Y-35616D01*
X88643Y-35494D02*
X88785Y-35636D01*
X88512Y-35464D02*
X88613Y-35666D01*
X88744Y-35535D01*
X89007Y-35414D02*
X88886Y-35535D01*
X88946Y-35474D02*
X88734Y-35262D01*
X88744Y-35313D01*
X88744Y-35353D01*
X88734Y-35383D01*
X89047Y-35090D02*
X89189Y-35232D01*
X88916Y-35060D02*
X89017Y-35262D01*
X89149Y-35131D01*
X89209Y-34969D02*
X89179Y-34979D01*
X89159Y-34979D01*
X89128Y-34969D01*
X89118Y-34959D01*
X89108Y-34929D01*
X89108Y-34909D01*
X89118Y-34878D01*
X89159Y-34838D01*
X89189Y-34828D01*
X89209Y-34828D01*
X89239Y-34838D01*
X89250Y-34848D01*
X89260Y-34878D01*
X89260Y-34898D01*
X89250Y-34929D01*
X89209Y-34969D01*
X89199Y-34999D01*
X89199Y-35020D01*
X89209Y-35050D01*
X89250Y-35090D01*
X89280Y-35100D01*
X89300Y-35100D01*
X89330Y-35090D01*
X89371Y-35050D01*
X89381Y-35020D01*
X89381Y-34999D01*
X89371Y-34969D01*
X89330Y-34929D01*
X89300Y-34919D01*
X89280Y-34919D01*
X89250Y-34929D01*
X93028Y-43621D02*
X93028Y-43321D01*
X93100Y-43321D01*
X93142Y-43335D01*
X93171Y-43364D01*
X93185Y-43392D01*
X93200Y-43450D01*
X93200Y-43492D01*
X93185Y-43550D01*
X93171Y-43578D01*
X93142Y-43607D01*
X93100Y-43621D01*
X93028Y-43621D01*
X93300Y-43321D02*
X93485Y-43321D01*
X93385Y-43435D01*
X93428Y-43435D01*
X93457Y-43450D01*
X93471Y-43464D01*
X93485Y-43492D01*
X93485Y-43564D01*
X93471Y-43592D01*
X93457Y-43607D01*
X93428Y-43621D01*
X93342Y-43621D01*
X93314Y-43607D01*
X93300Y-43592D01*
X92571Y-44071D02*
X92771Y-44071D01*
X92571Y-44371D01*
X92771Y-44371D01*
X92885Y-44214D02*
X92985Y-44214D01*
X93028Y-44371D02*
X92885Y-44371D01*
X92885Y-44071D01*
X93028Y-44071D01*
X93157Y-44371D02*
X93157Y-44071D01*
X93328Y-44371D01*
X93328Y-44071D01*
X93471Y-44214D02*
X93571Y-44214D01*
X93614Y-44371D02*
X93471Y-44371D01*
X93471Y-44071D01*
X93614Y-44071D01*
X93914Y-44371D02*
X93814Y-44228D01*
X93742Y-44371D02*
X93742Y-44071D01*
X93857Y-44071D01*
X93885Y-44085D01*
X93900Y-44100D01*
X93914Y-44128D01*
X93914Y-44171D01*
X93900Y-44200D01*
X93885Y-44214D01*
X93857Y-44228D01*
X93742Y-44228D01*
X81800Y-26121D02*
X81628Y-26090D01*
X81679Y-26242D02*
X81467Y-26030D01*
X81547Y-25949D01*
X81578Y-25939D01*
X81598Y-25939D01*
X81628Y-25949D01*
X81659Y-25979D01*
X81669Y-26010D01*
X81669Y-26030D01*
X81659Y-26060D01*
X81578Y-26141D01*
X81689Y-25848D02*
X81689Y-25828D01*
X81699Y-25797D01*
X81750Y-25747D01*
X81780Y-25737D01*
X81800Y-25737D01*
X81830Y-25747D01*
X81851Y-25767D01*
X81871Y-25808D01*
X81871Y-26050D01*
X82002Y-25919D01*
X82116Y-26131D02*
X82257Y-25989D01*
X82378Y-26292D01*
X82378Y-25868D02*
X82398Y-25848D01*
X82429Y-25838D01*
X82449Y-25838D01*
X82479Y-25848D01*
X82530Y-25878D01*
X82580Y-25929D01*
X82611Y-25979D01*
X82621Y-26010D01*
X82621Y-26030D01*
X82611Y-26060D01*
X82590Y-26080D01*
X82560Y-26090D01*
X82540Y-26090D01*
X82510Y-26080D01*
X82459Y-26050D01*
X82409Y-25999D01*
X82378Y-25949D01*
X82368Y-25919D01*
X82368Y-25898D01*
X82378Y-25868D01*
X82752Y-25919D02*
X82540Y-25707D01*
X82691Y-25818D02*
X82833Y-25838D01*
X82691Y-25696D02*
X82691Y-25858D01*
X78621Y-30300D02*
X78478Y-30400D01*
X78621Y-30471D02*
X78321Y-30471D01*
X78321Y-30357D01*
X78335Y-30328D01*
X78350Y-30314D01*
X78378Y-30300D01*
X78421Y-30300D01*
X78450Y-30314D01*
X78464Y-30328D01*
X78478Y-30357D01*
X78478Y-30471D01*
X78621Y-30014D02*
X78621Y-30185D01*
X78621Y-30100D02*
X78321Y-30100D01*
X78364Y-30128D01*
X78392Y-30157D01*
X78407Y-30185D01*
X79121Y-29950D02*
X79121Y-30121D01*
X79121Y-30035D02*
X78821Y-30035D01*
X78864Y-30064D01*
X78892Y-30092D01*
X78907Y-30121D01*
X78850Y-29835D02*
X78835Y-29821D01*
X78821Y-29792D01*
X78821Y-29721D01*
X78835Y-29692D01*
X78850Y-29678D01*
X78878Y-29664D01*
X78907Y-29664D01*
X78950Y-29678D01*
X79121Y-29850D01*
X79121Y-29664D01*
X78821Y-29478D02*
X78821Y-29450D01*
X78835Y-29421D01*
X78850Y-29407D01*
X78878Y-29392D01*
X78935Y-29378D01*
X79007Y-29378D01*
X79064Y-29392D01*
X79092Y-29407D01*
X79107Y-29421D01*
X79121Y-29450D01*
X79121Y-29478D01*
X79107Y-29507D01*
X79092Y-29521D01*
X79064Y-29535D01*
X79007Y-29550D01*
X78935Y-29550D01*
X78878Y-29535D01*
X78850Y-29521D01*
X78835Y-29507D01*
X78821Y-29478D01*
X90621Y-31300D02*
X90478Y-31400D01*
X90621Y-31471D02*
X90321Y-31471D01*
X90321Y-31357D01*
X90335Y-31328D01*
X90350Y-31314D01*
X90378Y-31300D01*
X90421Y-31300D01*
X90450Y-31314D01*
X90464Y-31328D01*
X90478Y-31357D01*
X90478Y-31471D01*
X90321Y-31200D02*
X90321Y-31014D01*
X90435Y-31114D01*
X90435Y-31071D01*
X90450Y-31042D01*
X90464Y-31028D01*
X90492Y-31014D01*
X90564Y-31014D01*
X90592Y-31028D01*
X90607Y-31042D01*
X90621Y-31071D01*
X90621Y-31157D01*
X90607Y-31185D01*
X90592Y-31200D01*
X90821Y-31114D02*
X90821Y-30914D01*
X91121Y-31042D01*
X90821Y-30742D02*
X90821Y-30714D01*
X90835Y-30685D01*
X90850Y-30671D01*
X90878Y-30657D01*
X90935Y-30642D01*
X91007Y-30642D01*
X91064Y-30657D01*
X91092Y-30671D01*
X91107Y-30685D01*
X91121Y-30714D01*
X91121Y-30742D01*
X91107Y-30771D01*
X91092Y-30785D01*
X91064Y-30799D01*
X91007Y-30814D01*
X90935Y-30814D01*
X90878Y-30799D01*
X90850Y-30785D01*
X90835Y-30771D01*
X90821Y-30742D01*
X91121Y-30514D02*
X90821Y-30514D01*
X91007Y-30485D02*
X91121Y-30400D01*
X90921Y-30400D02*
X91035Y-30514D01*
M02*
