M48
;DRILL file {Pcbnew (22-Jun-2014 BZR 4027)-stable} date Sun 04 Feb 2018 03:40:55 PM CST
;FORMAT={-:-/ absolute / inch / decimal}
FMAT,2
INCH,TZ
T1C0.020
T2C0.032
T3C0.040
T4C0.048
T5C0.126
%
G90
G05
M72
T1
X8.235Y-3.25
X8.335Y-3.01
X8.335Y-3.49
X8.575Y-2.91
X8.575Y-3.59
X8.815Y-3.01
X8.815Y-3.49
X8.915Y-3.25
X9.375Y-3.325
T2
X7.8866Y-3.7866
X7.922Y-3.822
X7.95Y-3.125
X7.95Y-3.175
X7.95Y-3.325
X7.9616Y-3.7116
X7.997Y-3.747
X8.0043Y-3.6043
X8.022Y-2.878
X8.028Y-3.928
X8.075Y-3.675
X8.103Y-3.853
X8.125Y-3.15
X8.125Y-3.35
X8.128Y-2.772
X8.1457Y-3.7457
X8.1634Y-2.7366
X8.1672Y-4.0422
X8.1793Y-3.5043
X8.3Y-3.8
X8.3207Y-3.6457
X8.375Y-2.825
X8.45Y-4.325
X8.476Y-3.25
X8.5043Y-3.1793
X8.5043Y-3.3207
X8.525Y-3.925
X8.525Y-4.125
X8.55Y-4.275
X8.575Y-3.151
X8.575Y-3.349
X8.625Y-3.925
X8.625Y-4.125
X8.6457Y-3.1793
X8.6457Y-3.3207
X8.674Y-3.25
X8.7Y-3.8
X8.75Y-3.875
X8.75Y-4.175
X8.75Y-4.275
X8.7689Y-3.6561
X8.775Y-2.825
X8.85Y-3.775
X8.85Y-3.875
X8.85Y-4.175
X8.85Y-4.275
X8.95Y-3.65
X8.95Y-3.875
X8.95Y-4.175
X8.9811Y-3.4439
X9.Y-2.9
X9.05Y-3.775
X9.05Y-3.875
X9.05Y-4.175
X9.05Y-4.275
X9.15Y-3.225
X9.15Y-3.275
X9.15Y-3.425
X9.15Y-3.65
X9.175Y-3.875
X9.175Y-4.175
X9.175Y-4.425
X9.275Y-3.825
X9.275Y-4.225
X9.3Y-3.
X9.3Y-3.1
X9.3Y-3.5
X9.375Y-3.825
X9.375Y-4.225
X9.4Y-2.9
X9.425Y-3.1
X9.425Y-3.2
X9.45Y-3.675
X9.475Y-3.975
X9.475Y-4.075
X9.475Y-4.425
X9.6Y-4.325
X9.6Y-4.425
X9.625Y-3.1
X9.625Y-3.2
X9.65Y-3.675
X9.65Y-4.375
X9.675Y-3.975
X9.675Y-4.075
X9.7Y-3.
T3
X7.85Y-4.
X7.85Y-4.1
X8.2Y-4.45
X8.3Y-4.45
X8.575Y-2.7
X8.575Y-3.675
X9.3Y-3.6
T4
X8.65Y-4.425
X9.05Y-4.425
T5
X7.975Y-4.325
X9.575Y-2.725
T0
M30
