G04 (created by PCBNEW (22-Jun-2014 BZR 4027)-stable) date Wed 13 Dec 2017 11:48:00 PM CST*
%MOIN*%
G04 Gerber Fmt 3.4, Leading zero omitted, Abs format*
%FSLAX34Y34*%
G01*
G70*
G90*
G04 APERTURE LIST*
%ADD10C,0.00590551*%
%ADD11C,0.006*%
G04 APERTURE END LIST*
G54D10*
G54D11*
X95428Y-59871D02*
X95428Y-59571D01*
X95328Y-59785D01*
X95228Y-59571D01*
X95228Y-59871D01*
X94957Y-59871D02*
X94957Y-59714D01*
X94971Y-59685D01*
X95000Y-59671D01*
X95057Y-59671D01*
X95085Y-59685D01*
X94957Y-59857D02*
X94985Y-59871D01*
X95057Y-59871D01*
X95085Y-59857D01*
X95100Y-59828D01*
X95100Y-59800D01*
X95085Y-59771D01*
X95057Y-59757D01*
X94985Y-59757D01*
X94957Y-59742D01*
X94814Y-59671D02*
X94814Y-59871D01*
X94814Y-59700D02*
X94800Y-59685D01*
X94771Y-59671D01*
X94728Y-59671D01*
X94700Y-59685D01*
X94685Y-59714D01*
X94685Y-59871D01*
X94571Y-59671D02*
X94499Y-59871D01*
X94428Y-59671D02*
X94499Y-59871D01*
X94528Y-59942D01*
X94542Y-59957D01*
X94571Y-59971D01*
X94128Y-59671D02*
X94014Y-59671D01*
X94085Y-59571D02*
X94085Y-59828D01*
X94071Y-59857D01*
X94042Y-59871D01*
X94014Y-59871D01*
X93914Y-59871D02*
X93914Y-59571D01*
X93785Y-59871D02*
X93785Y-59714D01*
X93800Y-59685D01*
X93828Y-59671D01*
X93871Y-59671D01*
X93900Y-59685D01*
X93914Y-59700D01*
X93514Y-59871D02*
X93514Y-59714D01*
X93528Y-59685D01*
X93557Y-59671D01*
X93614Y-59671D01*
X93642Y-59685D01*
X93514Y-59857D02*
X93542Y-59871D01*
X93614Y-59871D01*
X93642Y-59857D01*
X93657Y-59828D01*
X93657Y-59800D01*
X93642Y-59771D01*
X93614Y-59757D01*
X93542Y-59757D01*
X93514Y-59742D01*
X93371Y-59671D02*
X93371Y-59871D01*
X93371Y-59700D02*
X93357Y-59685D01*
X93328Y-59671D01*
X93285Y-59671D01*
X93257Y-59685D01*
X93242Y-59714D01*
X93242Y-59871D01*
X93099Y-59871D02*
X93099Y-59571D01*
X93071Y-59757D02*
X92985Y-59871D01*
X92985Y-59671D02*
X93099Y-59785D01*
X92871Y-59857D02*
X92842Y-59871D01*
X92785Y-59871D01*
X92757Y-59857D01*
X92742Y-59828D01*
X92742Y-59814D01*
X92757Y-59785D01*
X92785Y-59771D01*
X92828Y-59771D01*
X92857Y-59757D01*
X92871Y-59728D01*
X92871Y-59714D01*
X92857Y-59685D01*
X92828Y-59671D01*
X92785Y-59671D01*
X92757Y-59685D01*
X92428Y-59671D02*
X92314Y-59671D01*
X92385Y-59571D02*
X92385Y-59828D01*
X92371Y-59857D01*
X92342Y-59871D01*
X92314Y-59871D01*
X92171Y-59871D02*
X92199Y-59857D01*
X92214Y-59842D01*
X92228Y-59814D01*
X92228Y-59728D01*
X92214Y-59700D01*
X92199Y-59685D01*
X92171Y-59671D01*
X92128Y-59671D01*
X92099Y-59685D01*
X92085Y-59700D01*
X92071Y-59728D01*
X92071Y-59814D01*
X92085Y-59842D01*
X92099Y-59857D01*
X92128Y-59871D01*
X92171Y-59871D01*
X91728Y-59785D02*
X91585Y-59785D01*
X91757Y-59871D02*
X91657Y-59571D01*
X91557Y-59871D01*
X91457Y-59671D02*
X91457Y-59871D01*
X91457Y-59700D02*
X91442Y-59685D01*
X91414Y-59671D01*
X91371Y-59671D01*
X91342Y-59685D01*
X91328Y-59714D01*
X91328Y-59871D01*
X91057Y-59871D02*
X91057Y-59571D01*
X91057Y-59857D02*
X91085Y-59871D01*
X91142Y-59871D01*
X91171Y-59857D01*
X91185Y-59842D01*
X91199Y-59814D01*
X91199Y-59728D01*
X91185Y-59700D01*
X91171Y-59685D01*
X91142Y-59671D01*
X91085Y-59671D01*
X91057Y-59685D01*
X90914Y-59871D02*
X90914Y-59671D01*
X90914Y-59728D02*
X90899Y-59700D01*
X90885Y-59685D01*
X90857Y-59671D01*
X90828Y-59671D01*
X90614Y-59857D02*
X90642Y-59871D01*
X90699Y-59871D01*
X90728Y-59857D01*
X90742Y-59828D01*
X90742Y-59714D01*
X90728Y-59685D01*
X90699Y-59671D01*
X90642Y-59671D01*
X90614Y-59685D01*
X90599Y-59714D01*
X90599Y-59742D01*
X90742Y-59771D01*
X90342Y-59871D02*
X90342Y-59714D01*
X90357Y-59685D01*
X90385Y-59671D01*
X90442Y-59671D01*
X90471Y-59685D01*
X90342Y-59857D02*
X90371Y-59871D01*
X90442Y-59871D01*
X90471Y-59857D01*
X90485Y-59828D01*
X90485Y-59800D01*
X90471Y-59771D01*
X90442Y-59757D01*
X90371Y-59757D01*
X90342Y-59742D01*
X90214Y-59857D02*
X90185Y-59871D01*
X90128Y-59871D01*
X90099Y-59857D01*
X90085Y-59828D01*
X90085Y-59814D01*
X90099Y-59785D01*
X90128Y-59771D01*
X90171Y-59771D01*
X90199Y-59757D01*
X90214Y-59728D01*
X90214Y-59714D01*
X90199Y-59685D01*
X90171Y-59671D01*
X90128Y-59671D01*
X90099Y-59685D01*
X89942Y-59857D02*
X89942Y-59871D01*
X89957Y-59900D01*
X89971Y-59914D01*
X89585Y-59871D02*
X89585Y-59571D01*
X89514Y-59571D01*
X89471Y-59585D01*
X89442Y-59614D01*
X89428Y-59642D01*
X89414Y-59700D01*
X89414Y-59742D01*
X89428Y-59800D01*
X89442Y-59828D01*
X89471Y-59857D01*
X89514Y-59871D01*
X89585Y-59871D01*
X89285Y-59871D02*
X89285Y-59671D01*
X89285Y-59728D02*
X89271Y-59700D01*
X89257Y-59685D01*
X89228Y-59671D01*
X89199Y-59671D01*
X89099Y-59842D02*
X89085Y-59857D01*
X89099Y-59871D01*
X89114Y-59857D01*
X89099Y-59842D01*
X89099Y-59871D01*
X88628Y-59714D02*
X88728Y-59714D01*
X88728Y-59871D02*
X88728Y-59571D01*
X88585Y-59571D01*
X88471Y-59871D02*
X88471Y-59671D01*
X88471Y-59728D02*
X88457Y-59700D01*
X88442Y-59685D01*
X88414Y-59671D01*
X88385Y-59671D01*
X88157Y-59871D02*
X88157Y-59714D01*
X88171Y-59685D01*
X88199Y-59671D01*
X88257Y-59671D01*
X88285Y-59685D01*
X88157Y-59857D02*
X88185Y-59871D01*
X88257Y-59871D01*
X88285Y-59857D01*
X88299Y-59828D01*
X88299Y-59800D01*
X88285Y-59771D01*
X88257Y-59757D01*
X88185Y-59757D01*
X88157Y-59742D01*
X88014Y-59671D02*
X88014Y-59871D01*
X88014Y-59700D02*
X87999Y-59685D01*
X87971Y-59671D01*
X87928Y-59671D01*
X87899Y-59685D01*
X87885Y-59714D01*
X87885Y-59871D01*
X87742Y-59871D02*
X87742Y-59571D01*
X87714Y-59757D02*
X87628Y-59871D01*
X87628Y-59671D02*
X87742Y-59785D01*
X87514Y-59857D02*
X87485Y-59871D01*
X87428Y-59871D01*
X87399Y-59857D01*
X87385Y-59828D01*
X87385Y-59814D01*
X87399Y-59785D01*
X87428Y-59771D01*
X87471Y-59771D01*
X87499Y-59757D01*
X87514Y-59728D01*
X87514Y-59714D01*
X87499Y-59685D01*
X87471Y-59671D01*
X87428Y-59671D01*
X87399Y-59685D01*
X87242Y-59857D02*
X87242Y-59871D01*
X87257Y-59900D01*
X87271Y-59914D01*
X86928Y-59571D02*
X86757Y-59571D01*
X86842Y-59871D02*
X86842Y-59571D01*
X86657Y-59871D02*
X86657Y-59671D01*
X86657Y-59571D02*
X86671Y-59585D01*
X86657Y-59600D01*
X86642Y-59585D01*
X86657Y-59571D01*
X86657Y-59600D01*
X86514Y-59871D02*
X86514Y-59571D01*
X86342Y-59871D01*
X86342Y-59571D01*
X86185Y-59857D02*
X86185Y-59871D01*
X86199Y-59900D01*
X86214Y-59914D01*
X85828Y-59871D02*
X85828Y-59571D01*
X85728Y-59785D01*
X85628Y-59571D01*
X85628Y-59871D01*
X85485Y-59871D02*
X85485Y-59671D01*
X85485Y-59571D02*
X85500Y-59585D01*
X85485Y-59600D01*
X85471Y-59585D01*
X85485Y-59571D01*
X85485Y-59600D01*
X85357Y-59857D02*
X85328Y-59871D01*
X85271Y-59871D01*
X85242Y-59857D01*
X85228Y-59828D01*
X85228Y-59814D01*
X85242Y-59785D01*
X85271Y-59771D01*
X85314Y-59771D01*
X85342Y-59757D01*
X85357Y-59728D01*
X85357Y-59714D01*
X85342Y-59685D01*
X85314Y-59671D01*
X85271Y-59671D01*
X85242Y-59685D01*
X85142Y-59671D02*
X85028Y-59671D01*
X85100Y-59571D02*
X85100Y-59828D01*
X85085Y-59857D01*
X85057Y-59871D01*
X85028Y-59871D01*
X84814Y-59857D02*
X84842Y-59871D01*
X84900Y-59871D01*
X84928Y-59857D01*
X84942Y-59828D01*
X84942Y-59714D01*
X84928Y-59685D01*
X84900Y-59671D01*
X84842Y-59671D01*
X84814Y-59685D01*
X84800Y-59714D01*
X84800Y-59742D01*
X84942Y-59771D01*
X84671Y-59871D02*
X84671Y-59671D01*
X84671Y-59728D02*
X84657Y-59700D01*
X84642Y-59685D01*
X84614Y-59671D01*
X84585Y-59671D01*
X84485Y-59871D02*
X84485Y-59571D01*
X84414Y-59571D01*
X84371Y-59585D01*
X84342Y-59614D01*
X84328Y-59642D01*
X84314Y-59700D01*
X84314Y-59742D01*
X84328Y-59800D01*
X84342Y-59828D01*
X84371Y-59857D01*
X84414Y-59871D01*
X84485Y-59871D01*
X84185Y-59871D02*
X84185Y-59671D01*
X84185Y-59571D02*
X84200Y-59585D01*
X84185Y-59600D01*
X84171Y-59585D01*
X84185Y-59571D01*
X84185Y-59600D01*
X84000Y-59871D02*
X84028Y-59857D01*
X84042Y-59842D01*
X84057Y-59814D01*
X84057Y-59728D01*
X84042Y-59700D01*
X84028Y-59685D01*
X84000Y-59671D01*
X83957Y-59671D01*
X83928Y-59685D01*
X83914Y-59700D01*
X83900Y-59728D01*
X83900Y-59814D01*
X83914Y-59842D01*
X83928Y-59857D01*
X83957Y-59871D01*
X84000Y-59871D01*
X83642Y-59871D02*
X83642Y-59571D01*
X83642Y-59857D02*
X83671Y-59871D01*
X83728Y-59871D01*
X83757Y-59857D01*
X83771Y-59842D01*
X83785Y-59814D01*
X83785Y-59728D01*
X83771Y-59700D01*
X83757Y-59685D01*
X83728Y-59671D01*
X83671Y-59671D01*
X83642Y-59685D01*
X83385Y-59857D02*
X83414Y-59871D01*
X83471Y-59871D01*
X83499Y-59857D01*
X83514Y-59828D01*
X83514Y-59714D01*
X83499Y-59685D01*
X83471Y-59671D01*
X83414Y-59671D01*
X83385Y-59685D01*
X83371Y-59714D01*
X83371Y-59742D01*
X83514Y-59771D01*
X83257Y-59857D02*
X83228Y-59871D01*
X83171Y-59871D01*
X83142Y-59857D01*
X83128Y-59828D01*
X83128Y-59814D01*
X83142Y-59785D01*
X83171Y-59771D01*
X83214Y-59771D01*
X83242Y-59757D01*
X83257Y-59728D01*
X83257Y-59714D01*
X83242Y-59685D01*
X83214Y-59671D01*
X83171Y-59671D01*
X83142Y-59685D01*
X82985Y-59857D02*
X82985Y-59871D01*
X82999Y-59900D01*
X83014Y-59914D01*
X95428Y-60351D02*
X95428Y-60051D01*
X95257Y-60351D02*
X95385Y-60180D01*
X95257Y-60051D02*
X95428Y-60222D01*
X95085Y-60351D02*
X95114Y-60337D01*
X95128Y-60308D01*
X95128Y-60051D01*
X94857Y-60337D02*
X94885Y-60351D01*
X94942Y-60351D01*
X94971Y-60337D01*
X94985Y-60308D01*
X94985Y-60194D01*
X94971Y-60165D01*
X94942Y-60151D01*
X94885Y-60151D01*
X94857Y-60165D01*
X94842Y-60194D01*
X94842Y-60222D01*
X94985Y-60251D01*
X94714Y-60351D02*
X94714Y-60151D01*
X94714Y-60051D02*
X94728Y-60065D01*
X94714Y-60080D01*
X94700Y-60065D01*
X94714Y-60051D01*
X94714Y-60080D01*
X94571Y-60151D02*
X94571Y-60351D01*
X94571Y-60180D02*
X94557Y-60165D01*
X94528Y-60151D01*
X94485Y-60151D01*
X94457Y-60165D01*
X94442Y-60194D01*
X94442Y-60351D01*
X94314Y-60337D02*
X94285Y-60351D01*
X94228Y-60351D01*
X94199Y-60337D01*
X94185Y-60308D01*
X94185Y-60294D01*
X94199Y-60265D01*
X94228Y-60251D01*
X94271Y-60251D01*
X94299Y-60237D01*
X94314Y-60208D01*
X94314Y-60194D01*
X94299Y-60165D01*
X94271Y-60151D01*
X94228Y-60151D01*
X94199Y-60165D01*
X94100Y-60151D02*
X93985Y-60151D01*
X94057Y-60051D02*
X94057Y-60308D01*
X94042Y-60337D01*
X94014Y-60351D01*
X93985Y-60351D01*
X93771Y-60337D02*
X93799Y-60351D01*
X93857Y-60351D01*
X93885Y-60337D01*
X93899Y-60308D01*
X93899Y-60194D01*
X93885Y-60165D01*
X93857Y-60151D01*
X93799Y-60151D01*
X93771Y-60165D01*
X93757Y-60194D01*
X93757Y-60222D01*
X93899Y-60251D01*
X93628Y-60351D02*
X93628Y-60151D01*
X93628Y-60051D02*
X93642Y-60065D01*
X93628Y-60080D01*
X93614Y-60065D01*
X93628Y-60051D01*
X93628Y-60080D01*
X93485Y-60151D02*
X93485Y-60351D01*
X93485Y-60180D02*
X93471Y-60165D01*
X93442Y-60151D01*
X93399Y-60151D01*
X93371Y-60165D01*
X93357Y-60194D01*
X93357Y-60351D01*
X93199Y-60337D02*
X93199Y-60351D01*
X93214Y-60380D01*
X93228Y-60394D01*
X92714Y-60351D02*
X92714Y-60194D01*
X92728Y-60165D01*
X92757Y-60151D01*
X92814Y-60151D01*
X92842Y-60165D01*
X92714Y-60337D02*
X92742Y-60351D01*
X92814Y-60351D01*
X92842Y-60337D01*
X92857Y-60308D01*
X92857Y-60280D01*
X92842Y-60251D01*
X92814Y-60237D01*
X92742Y-60237D01*
X92714Y-60222D01*
X92571Y-60151D02*
X92571Y-60351D01*
X92571Y-60180D02*
X92557Y-60165D01*
X92528Y-60151D01*
X92485Y-60151D01*
X92457Y-60165D01*
X92442Y-60194D01*
X92442Y-60351D01*
X92171Y-60351D02*
X92171Y-60051D01*
X92171Y-60337D02*
X92199Y-60351D01*
X92257Y-60351D01*
X92285Y-60337D01*
X92299Y-60322D01*
X92314Y-60294D01*
X92314Y-60208D01*
X92299Y-60180D01*
X92285Y-60165D01*
X92257Y-60151D01*
X92199Y-60151D01*
X92171Y-60165D01*
X91842Y-60151D02*
X91728Y-60151D01*
X91799Y-60051D02*
X91799Y-60308D01*
X91785Y-60337D01*
X91757Y-60351D01*
X91728Y-60351D01*
X91628Y-60351D02*
X91628Y-60051D01*
X91499Y-60351D02*
X91499Y-60194D01*
X91514Y-60165D01*
X91542Y-60151D01*
X91585Y-60151D01*
X91614Y-60165D01*
X91628Y-60180D01*
X91242Y-60337D02*
X91271Y-60351D01*
X91328Y-60351D01*
X91357Y-60337D01*
X91371Y-60308D01*
X91371Y-60194D01*
X91357Y-60165D01*
X91328Y-60151D01*
X91271Y-60151D01*
X91242Y-60165D01*
X91228Y-60194D01*
X91228Y-60222D01*
X91371Y-60251D01*
X90871Y-60194D02*
X90771Y-60194D01*
X90728Y-60351D02*
X90871Y-60351D01*
X90871Y-60051D01*
X90728Y-60051D01*
X90599Y-60194D02*
X90499Y-60194D01*
X90457Y-60351D02*
X90599Y-60351D01*
X90599Y-60051D01*
X90457Y-60051D01*
X90371Y-60051D02*
X90271Y-60351D01*
X90171Y-60051D01*
X89971Y-60194D02*
X89928Y-60208D01*
X89914Y-60222D01*
X89899Y-60251D01*
X89899Y-60294D01*
X89914Y-60322D01*
X89928Y-60337D01*
X89957Y-60351D01*
X90071Y-60351D01*
X90071Y-60051D01*
X89971Y-60051D01*
X89942Y-60065D01*
X89928Y-60080D01*
X89914Y-60108D01*
X89914Y-60137D01*
X89928Y-60165D01*
X89942Y-60180D01*
X89971Y-60194D01*
X90071Y-60194D01*
X89728Y-60351D02*
X89757Y-60337D01*
X89771Y-60308D01*
X89771Y-60051D01*
X89571Y-60351D02*
X89599Y-60337D01*
X89614Y-60322D01*
X89628Y-60294D01*
X89628Y-60208D01*
X89614Y-60180D01*
X89599Y-60165D01*
X89571Y-60151D01*
X89528Y-60151D01*
X89499Y-60165D01*
X89485Y-60180D01*
X89471Y-60208D01*
X89471Y-60294D01*
X89485Y-60322D01*
X89499Y-60337D01*
X89528Y-60351D01*
X89571Y-60351D01*
X89214Y-60151D02*
X89214Y-60394D01*
X89228Y-60422D01*
X89242Y-60437D01*
X89271Y-60451D01*
X89314Y-60451D01*
X89342Y-60437D01*
X89214Y-60337D02*
X89242Y-60351D01*
X89299Y-60351D01*
X89328Y-60337D01*
X89342Y-60322D01*
X89357Y-60294D01*
X89357Y-60208D01*
X89342Y-60180D01*
X89328Y-60165D01*
X89299Y-60151D01*
X89242Y-60151D01*
X89214Y-60165D01*
X88842Y-60351D02*
X88842Y-60151D01*
X88842Y-60180D02*
X88828Y-60165D01*
X88799Y-60151D01*
X88757Y-60151D01*
X88728Y-60165D01*
X88714Y-60194D01*
X88714Y-60351D01*
X88714Y-60194D02*
X88699Y-60165D01*
X88671Y-60151D01*
X88628Y-60151D01*
X88599Y-60165D01*
X88585Y-60194D01*
X88585Y-60351D01*
X88328Y-60337D02*
X88357Y-60351D01*
X88414Y-60351D01*
X88442Y-60337D01*
X88457Y-60308D01*
X88457Y-60194D01*
X88442Y-60165D01*
X88414Y-60151D01*
X88357Y-60151D01*
X88328Y-60165D01*
X88314Y-60194D01*
X88314Y-60222D01*
X88457Y-60251D01*
X88228Y-60151D02*
X88114Y-60151D01*
X88185Y-60051D02*
X88185Y-60308D01*
X88171Y-60337D01*
X88142Y-60351D01*
X88114Y-60351D01*
X88014Y-60351D02*
X88014Y-60151D01*
X88014Y-60208D02*
X87999Y-60180D01*
X87985Y-60165D01*
X87957Y-60151D01*
X87928Y-60151D01*
X87785Y-60351D02*
X87814Y-60337D01*
X87828Y-60322D01*
X87842Y-60294D01*
X87842Y-60208D01*
X87828Y-60180D01*
X87814Y-60165D01*
X87785Y-60151D01*
X87742Y-60151D01*
X87714Y-60165D01*
X87699Y-60180D01*
X87685Y-60208D01*
X87685Y-60294D01*
X87699Y-60322D01*
X87714Y-60337D01*
X87742Y-60351D01*
X87785Y-60351D01*
X87514Y-60351D02*
X87542Y-60337D01*
X87557Y-60308D01*
X87557Y-60051D01*
X87357Y-60351D02*
X87385Y-60337D01*
X87399Y-60322D01*
X87414Y-60294D01*
X87414Y-60208D01*
X87399Y-60180D01*
X87385Y-60165D01*
X87357Y-60151D01*
X87314Y-60151D01*
X87285Y-60165D01*
X87271Y-60180D01*
X87257Y-60208D01*
X87257Y-60294D01*
X87271Y-60322D01*
X87285Y-60337D01*
X87314Y-60351D01*
X87357Y-60351D01*
X86999Y-60151D02*
X86999Y-60394D01*
X87014Y-60422D01*
X87028Y-60437D01*
X87057Y-60451D01*
X87099Y-60451D01*
X87128Y-60437D01*
X86999Y-60337D02*
X87028Y-60351D01*
X87085Y-60351D01*
X87114Y-60337D01*
X87128Y-60322D01*
X87142Y-60294D01*
X87142Y-60208D01*
X87128Y-60180D01*
X87114Y-60165D01*
X87085Y-60151D01*
X87028Y-60151D01*
X86999Y-60165D01*
X86885Y-60151D02*
X86814Y-60351D01*
X86742Y-60151D02*
X86814Y-60351D01*
X86842Y-60422D01*
X86857Y-60437D01*
X86885Y-60451D01*
X86442Y-60151D02*
X86328Y-60151D01*
X86399Y-60351D02*
X86399Y-60094D01*
X86385Y-60065D01*
X86357Y-60051D01*
X86328Y-60051D01*
X86185Y-60351D02*
X86214Y-60337D01*
X86228Y-60322D01*
X86242Y-60294D01*
X86242Y-60208D01*
X86228Y-60180D01*
X86214Y-60165D01*
X86185Y-60151D01*
X86142Y-60151D01*
X86114Y-60165D01*
X86099Y-60180D01*
X86085Y-60208D01*
X86085Y-60294D01*
X86099Y-60322D01*
X86114Y-60337D01*
X86142Y-60351D01*
X86185Y-60351D01*
X85957Y-60351D02*
X85957Y-60151D01*
X85957Y-60208D02*
X85942Y-60180D01*
X85928Y-60165D01*
X85899Y-60151D01*
X85871Y-60151D01*
X85642Y-60151D02*
X85642Y-60351D01*
X85771Y-60151D02*
X85771Y-60308D01*
X85757Y-60337D01*
X85728Y-60351D01*
X85685Y-60351D01*
X85657Y-60337D01*
X85642Y-60322D01*
X85499Y-60351D02*
X85499Y-60151D01*
X85499Y-60180D02*
X85485Y-60165D01*
X85457Y-60151D01*
X85414Y-60151D01*
X85385Y-60165D01*
X85371Y-60194D01*
X85371Y-60351D01*
X85371Y-60194D02*
X85357Y-60165D01*
X85328Y-60151D01*
X85285Y-60151D01*
X85257Y-60165D01*
X85242Y-60194D01*
X85242Y-60351D01*
X84871Y-60351D02*
X84871Y-60151D01*
X84871Y-60180D02*
X84857Y-60165D01*
X84828Y-60151D01*
X84785Y-60151D01*
X84757Y-60165D01*
X84742Y-60194D01*
X84742Y-60351D01*
X84742Y-60194D02*
X84728Y-60165D01*
X84699Y-60151D01*
X84657Y-60151D01*
X84628Y-60165D01*
X84614Y-60194D01*
X84614Y-60351D01*
X84357Y-60337D02*
X84385Y-60351D01*
X84442Y-60351D01*
X84471Y-60337D01*
X84485Y-60308D01*
X84485Y-60194D01*
X84471Y-60165D01*
X84442Y-60151D01*
X84385Y-60151D01*
X84357Y-60165D01*
X84342Y-60194D01*
X84342Y-60222D01*
X84485Y-60251D01*
X84214Y-60351D02*
X84214Y-60151D01*
X84214Y-60180D02*
X84199Y-60165D01*
X84171Y-60151D01*
X84128Y-60151D01*
X84099Y-60165D01*
X84085Y-60194D01*
X84085Y-60351D01*
X84085Y-60194D02*
X84071Y-60165D01*
X84042Y-60151D01*
X83999Y-60151D01*
X83971Y-60165D01*
X83957Y-60194D01*
X83957Y-60351D01*
X83814Y-60351D02*
X83814Y-60051D01*
X83814Y-60165D02*
X83785Y-60151D01*
X83728Y-60151D01*
X83699Y-60165D01*
X83685Y-60180D01*
X83671Y-60208D01*
X83671Y-60294D01*
X83685Y-60322D01*
X83699Y-60337D01*
X83728Y-60351D01*
X83785Y-60351D01*
X83814Y-60337D01*
X83428Y-60337D02*
X83457Y-60351D01*
X83514Y-60351D01*
X83542Y-60337D01*
X83557Y-60308D01*
X83557Y-60194D01*
X83542Y-60165D01*
X83514Y-60151D01*
X83457Y-60151D01*
X83428Y-60165D01*
X83414Y-60194D01*
X83414Y-60222D01*
X83557Y-60251D01*
X83285Y-60351D02*
X83285Y-60151D01*
X83285Y-60208D02*
X83271Y-60180D01*
X83257Y-60165D01*
X83228Y-60151D01*
X83199Y-60151D01*
X83114Y-60337D02*
X83085Y-60351D01*
X83028Y-60351D01*
X82999Y-60337D01*
X82985Y-60308D01*
X82985Y-60294D01*
X82999Y-60265D01*
X83028Y-60251D01*
X83071Y-60251D01*
X83099Y-60237D01*
X83114Y-60208D01*
X83114Y-60194D01*
X83099Y-60165D01*
X83071Y-60151D01*
X83028Y-60151D01*
X82999Y-60165D01*
X82857Y-60322D02*
X82842Y-60337D01*
X82857Y-60351D01*
X82871Y-60337D01*
X82857Y-60322D01*
X82857Y-60351D01*
X82857Y-60237D02*
X82871Y-60065D01*
X82857Y-60051D01*
X82842Y-60065D01*
X82857Y-60237D01*
X82857Y-60051D01*
M02*
