G04 (created by PCBNEW (22-Jun-2014 BZR 4027)-stable) date Wed 13 Dec 2017 11:48:00 PM CST*
%MOIN*%
G04 Gerber Fmt 3.4, Leading zero omitted, Abs format*
%FSLAX34Y34*%
G01*
G70*
G90*
G04 APERTURE LIST*
%ADD10C,0.00590551*%
%ADD11C,0.006*%
%ADD12C,0.008*%
%ADD13C,0.02*%
%ADD14C,0.00787402*%
%ADD15C,0.01*%
%ADD16C,0.0001*%
%ADD17C,0.005*%
G04 APERTURE END LIST*
G54D10*
G54D11*
X98714Y-60371D02*
X98542Y-60371D01*
X98628Y-60371D02*
X98628Y-60071D01*
X98600Y-60114D01*
X98571Y-60142D01*
X98542Y-60157D01*
X98842Y-60371D02*
X98842Y-60071D01*
X98871Y-60257D02*
X98957Y-60371D01*
X98957Y-60171D02*
X98842Y-60285D01*
X98700Y-59871D02*
X98600Y-59728D01*
X98528Y-59871D02*
X98528Y-59571D01*
X98642Y-59571D01*
X98671Y-59585D01*
X98685Y-59600D01*
X98700Y-59628D01*
X98700Y-59671D01*
X98685Y-59700D01*
X98671Y-59714D01*
X98642Y-59728D01*
X98528Y-59728D01*
X98971Y-59571D02*
X98828Y-59571D01*
X98814Y-59714D01*
X98828Y-59700D01*
X98857Y-59685D01*
X98928Y-59685D01*
X98957Y-59700D01*
X98971Y-59714D01*
X98985Y-59742D01*
X98985Y-59814D01*
X98971Y-59842D01*
X98957Y-59857D01*
X98928Y-59871D01*
X98857Y-59871D01*
X98828Y-59857D01*
X98814Y-59842D01*
G54D12*
X83266Y-59395D02*
X83266Y-59719D01*
X83247Y-59757D01*
X83228Y-59776D01*
X83190Y-59795D01*
X83133Y-59795D01*
X83095Y-59776D01*
X83266Y-59642D02*
X83228Y-59661D01*
X83152Y-59661D01*
X83114Y-59642D01*
X83095Y-59623D01*
X83076Y-59585D01*
X83076Y-59471D01*
X83095Y-59433D01*
X83114Y-59414D01*
X83152Y-59395D01*
X83228Y-59395D01*
X83266Y-59414D01*
X83457Y-59661D02*
X83457Y-59395D01*
X83457Y-59261D02*
X83438Y-59280D01*
X83457Y-59300D01*
X83476Y-59280D01*
X83457Y-59261D01*
X83457Y-59300D01*
X83590Y-59395D02*
X83742Y-59395D01*
X83647Y-59261D02*
X83647Y-59604D01*
X83666Y-59642D01*
X83704Y-59661D01*
X83742Y-59661D01*
X83876Y-59661D02*
X83876Y-59261D01*
X84047Y-59661D02*
X84047Y-59452D01*
X84028Y-59414D01*
X83990Y-59395D01*
X83933Y-59395D01*
X83895Y-59414D01*
X83876Y-59433D01*
X84409Y-59395D02*
X84409Y-59661D01*
X84238Y-59395D02*
X84238Y-59604D01*
X84257Y-59642D01*
X84295Y-59661D01*
X84352Y-59661D01*
X84390Y-59642D01*
X84409Y-59623D01*
X84600Y-59661D02*
X84600Y-59261D01*
X84600Y-59414D02*
X84638Y-59395D01*
X84714Y-59395D01*
X84752Y-59414D01*
X84771Y-59433D01*
X84790Y-59471D01*
X84790Y-59585D01*
X84771Y-59623D01*
X84752Y-59642D01*
X84714Y-59661D01*
X84638Y-59661D01*
X84600Y-59642D01*
X84961Y-59623D02*
X84980Y-59642D01*
X84961Y-59661D01*
X84942Y-59642D01*
X84961Y-59623D01*
X84961Y-59661D01*
X85323Y-59642D02*
X85285Y-59661D01*
X85209Y-59661D01*
X85171Y-59642D01*
X85152Y-59623D01*
X85133Y-59585D01*
X85133Y-59471D01*
X85152Y-59433D01*
X85171Y-59414D01*
X85209Y-59395D01*
X85285Y-59395D01*
X85323Y-59414D01*
X85552Y-59661D02*
X85514Y-59642D01*
X85495Y-59623D01*
X85476Y-59585D01*
X85476Y-59471D01*
X85495Y-59433D01*
X85514Y-59414D01*
X85552Y-59395D01*
X85609Y-59395D01*
X85647Y-59414D01*
X85666Y-59433D01*
X85685Y-59471D01*
X85685Y-59585D01*
X85666Y-59623D01*
X85647Y-59642D01*
X85609Y-59661D01*
X85552Y-59661D01*
X85857Y-59661D02*
X85857Y-59395D01*
X85857Y-59433D02*
X85876Y-59414D01*
X85914Y-59395D01*
X85971Y-59395D01*
X86009Y-59414D01*
X86028Y-59452D01*
X86028Y-59661D01*
X86028Y-59452D02*
X86047Y-59414D01*
X86085Y-59395D01*
X86142Y-59395D01*
X86180Y-59414D01*
X86200Y-59452D01*
X86200Y-59661D01*
X86676Y-59242D02*
X86333Y-59757D01*
X86809Y-59395D02*
X86809Y-59795D01*
X86809Y-59414D02*
X86847Y-59395D01*
X86923Y-59395D01*
X86961Y-59414D01*
X86980Y-59433D01*
X87000Y-59471D01*
X87000Y-59585D01*
X86980Y-59623D01*
X86961Y-59642D01*
X86923Y-59661D01*
X86847Y-59661D01*
X86809Y-59642D01*
X87323Y-59642D02*
X87285Y-59661D01*
X87209Y-59661D01*
X87171Y-59642D01*
X87152Y-59604D01*
X87152Y-59452D01*
X87171Y-59414D01*
X87209Y-59395D01*
X87285Y-59395D01*
X87323Y-59414D01*
X87342Y-59452D01*
X87342Y-59490D01*
X87152Y-59528D01*
X87514Y-59395D02*
X87514Y-59795D01*
X87514Y-59414D02*
X87552Y-59395D01*
X87628Y-59395D01*
X87666Y-59414D01*
X87685Y-59433D01*
X87704Y-59471D01*
X87704Y-59585D01*
X87685Y-59623D01*
X87666Y-59642D01*
X87628Y-59661D01*
X87552Y-59661D01*
X87514Y-59642D01*
X88047Y-59661D02*
X88047Y-59452D01*
X88028Y-59414D01*
X87990Y-59395D01*
X87914Y-59395D01*
X87876Y-59414D01*
X88047Y-59642D02*
X88009Y-59661D01*
X87914Y-59661D01*
X87876Y-59642D01*
X87857Y-59604D01*
X87857Y-59566D01*
X87876Y-59528D01*
X87914Y-59509D01*
X88009Y-59509D01*
X88047Y-59490D01*
X88219Y-59642D02*
X88257Y-59661D01*
X88333Y-59661D01*
X88371Y-59642D01*
X88390Y-59604D01*
X88390Y-59585D01*
X88371Y-59547D01*
X88333Y-59528D01*
X88276Y-59528D01*
X88238Y-59509D01*
X88219Y-59471D01*
X88219Y-59452D01*
X88238Y-59414D01*
X88276Y-59395D01*
X88333Y-59395D01*
X88371Y-59414D01*
X88619Y-59661D02*
X88580Y-59642D01*
X88561Y-59604D01*
X88561Y-59261D01*
X88942Y-59661D02*
X88942Y-59452D01*
X88923Y-59414D01*
X88885Y-59395D01*
X88809Y-59395D01*
X88771Y-59414D01*
X88942Y-59642D02*
X88904Y-59661D01*
X88809Y-59661D01*
X88771Y-59642D01*
X88752Y-59604D01*
X88752Y-59566D01*
X88771Y-59528D01*
X88809Y-59509D01*
X88904Y-59509D01*
X88942Y-59490D01*
X89133Y-59661D02*
X89133Y-59261D01*
X89133Y-59414D02*
X89171Y-59395D01*
X89247Y-59395D01*
X89285Y-59414D01*
X89304Y-59433D01*
X89323Y-59471D01*
X89323Y-59585D01*
X89304Y-59623D01*
X89285Y-59642D01*
X89247Y-59661D01*
X89171Y-59661D01*
X89133Y-59642D01*
X89476Y-59642D02*
X89514Y-59661D01*
X89590Y-59661D01*
X89628Y-59642D01*
X89647Y-59604D01*
X89647Y-59585D01*
X89628Y-59547D01*
X89590Y-59528D01*
X89533Y-59528D01*
X89495Y-59509D01*
X89476Y-59471D01*
X89476Y-59452D01*
X89495Y-59414D01*
X89533Y-59395D01*
X89590Y-59395D01*
X89628Y-59414D01*
X90104Y-59242D02*
X89761Y-59757D01*
X90238Y-59395D02*
X90238Y-59795D01*
X90238Y-59414D02*
X90276Y-59395D01*
X90352Y-59395D01*
X90390Y-59414D01*
X90409Y-59433D01*
X90428Y-59471D01*
X90428Y-59585D01*
X90409Y-59623D01*
X90390Y-59642D01*
X90352Y-59661D01*
X90276Y-59661D01*
X90238Y-59642D01*
X90561Y-59661D02*
X90771Y-59395D01*
X90561Y-59395D02*
X90771Y-59661D01*
X90923Y-59509D02*
X91228Y-59509D01*
X91419Y-59661D02*
X91419Y-59395D01*
X91419Y-59471D02*
X91438Y-59433D01*
X91457Y-59414D01*
X91495Y-59395D01*
X91533Y-59395D01*
X91819Y-59642D02*
X91780Y-59661D01*
X91704Y-59661D01*
X91666Y-59642D01*
X91647Y-59604D01*
X91647Y-59452D01*
X91666Y-59414D01*
X91704Y-59395D01*
X91780Y-59395D01*
X91819Y-59414D01*
X91838Y-59452D01*
X91838Y-59490D01*
X91647Y-59528D01*
X91952Y-59395D02*
X92104Y-59395D01*
X92009Y-59661D02*
X92009Y-59319D01*
X92028Y-59280D01*
X92066Y-59261D01*
X92104Y-59261D01*
G54D11*
X114535Y-48421D02*
X114607Y-48621D01*
X114678Y-48421D01*
X114950Y-48621D02*
X114778Y-48621D01*
X114864Y-48621D02*
X114864Y-48321D01*
X114835Y-48364D01*
X114807Y-48392D01*
X114778Y-48407D01*
G54D12*
X108702Y-49411D02*
X108511Y-49411D01*
X108511Y-49011D01*
X108778Y-49011D02*
X109007Y-49011D01*
X108892Y-49411D02*
X108892Y-49011D01*
X109102Y-49011D02*
X109369Y-49011D01*
X109102Y-49411D01*
X109369Y-49411D01*
X109730Y-49411D02*
X109502Y-49411D01*
X109616Y-49411D02*
X109616Y-49011D01*
X109578Y-49069D01*
X109540Y-49107D01*
X109502Y-49126D01*
X109978Y-49011D02*
X110016Y-49011D01*
X110054Y-49030D01*
X110073Y-49050D01*
X110092Y-49088D01*
X110111Y-49164D01*
X110111Y-49259D01*
X110092Y-49335D01*
X110073Y-49373D01*
X110054Y-49392D01*
X110016Y-49411D01*
X109978Y-49411D01*
X109940Y-49392D01*
X109921Y-49373D01*
X109902Y-49335D01*
X109883Y-49259D01*
X109883Y-49164D01*
X109902Y-49088D01*
X109921Y-49050D01*
X109940Y-49030D01*
X109978Y-49011D01*
X110359Y-49011D02*
X110397Y-49011D01*
X110435Y-49030D01*
X110454Y-49050D01*
X110473Y-49088D01*
X110492Y-49164D01*
X110492Y-49259D01*
X110473Y-49335D01*
X110454Y-49373D01*
X110435Y-49392D01*
X110397Y-49411D01*
X110359Y-49411D01*
X110321Y-49392D01*
X110302Y-49373D01*
X110283Y-49335D01*
X110264Y-49259D01*
X110264Y-49164D01*
X110283Y-49088D01*
X110302Y-49050D01*
X110321Y-49030D01*
X110359Y-49011D01*
X110740Y-49011D02*
X110778Y-49011D01*
X110816Y-49030D01*
X110835Y-49050D01*
X110854Y-49088D01*
X110873Y-49164D01*
X110873Y-49259D01*
X110854Y-49335D01*
X110835Y-49373D01*
X110816Y-49392D01*
X110778Y-49411D01*
X110740Y-49411D01*
X110702Y-49392D01*
X110683Y-49373D01*
X110664Y-49335D01*
X110645Y-49259D01*
X110645Y-49164D01*
X110664Y-49088D01*
X110683Y-49050D01*
X110702Y-49030D01*
X110740Y-49011D01*
X111311Y-49011D02*
X111578Y-49011D01*
X111407Y-49411D01*
X111673Y-49011D02*
X111807Y-49411D01*
X111940Y-49011D01*
X112378Y-49411D02*
X112378Y-49145D01*
X112378Y-49221D02*
X112397Y-49183D01*
X112416Y-49164D01*
X112454Y-49145D01*
X112492Y-49145D01*
X112778Y-49392D02*
X112740Y-49411D01*
X112664Y-49411D01*
X112626Y-49392D01*
X112607Y-49354D01*
X112607Y-49202D01*
X112626Y-49164D01*
X112664Y-49145D01*
X112740Y-49145D01*
X112778Y-49164D01*
X112797Y-49202D01*
X112797Y-49240D01*
X112607Y-49278D01*
X112911Y-49145D02*
X113064Y-49145D01*
X112969Y-49411D02*
X112969Y-49069D01*
X112988Y-49030D01*
X113026Y-49011D01*
X113064Y-49011D01*
X113349Y-49392D02*
X113311Y-49411D01*
X113235Y-49411D01*
X113197Y-49392D01*
X113178Y-49354D01*
X113178Y-49202D01*
X113197Y-49164D01*
X113235Y-49145D01*
X113311Y-49145D01*
X113349Y-49164D01*
X113369Y-49202D01*
X113369Y-49240D01*
X113178Y-49278D01*
X113540Y-49411D02*
X113540Y-49145D01*
X113540Y-49221D02*
X113559Y-49183D01*
X113578Y-49164D01*
X113616Y-49145D01*
X113654Y-49145D01*
X113940Y-49392D02*
X113902Y-49411D01*
X113826Y-49411D01*
X113788Y-49392D01*
X113769Y-49354D01*
X113769Y-49202D01*
X113788Y-49164D01*
X113826Y-49145D01*
X113902Y-49145D01*
X113940Y-49164D01*
X113959Y-49202D01*
X113959Y-49240D01*
X113769Y-49278D01*
X114130Y-49145D02*
X114130Y-49411D01*
X114130Y-49183D02*
X114149Y-49164D01*
X114188Y-49145D01*
X114245Y-49145D01*
X114283Y-49164D01*
X114302Y-49202D01*
X114302Y-49411D01*
X114664Y-49392D02*
X114626Y-49411D01*
X114549Y-49411D01*
X114511Y-49392D01*
X114492Y-49373D01*
X114473Y-49335D01*
X114473Y-49221D01*
X114492Y-49183D01*
X114511Y-49164D01*
X114549Y-49145D01*
X114626Y-49145D01*
X114664Y-49164D01*
X114988Y-49392D02*
X114949Y-49411D01*
X114873Y-49411D01*
X114835Y-49392D01*
X114816Y-49354D01*
X114816Y-49202D01*
X114835Y-49164D01*
X114873Y-49145D01*
X114949Y-49145D01*
X114988Y-49164D01*
X115007Y-49202D01*
X115007Y-49240D01*
X114816Y-49278D01*
G54D13*
X109416Y-48404D02*
X109416Y-47404D01*
X109797Y-47404D01*
X109892Y-47452D01*
X109940Y-47500D01*
X109988Y-47595D01*
X109988Y-47738D01*
X109940Y-47833D01*
X109892Y-47880D01*
X109797Y-47928D01*
X109416Y-47928D01*
X110321Y-47404D02*
X110988Y-48404D01*
X110988Y-47404D02*
X110321Y-48404D01*
X112702Y-48404D02*
X112369Y-47928D01*
X112130Y-48404D02*
X112130Y-47404D01*
X112511Y-47404D01*
X112607Y-47452D01*
X112654Y-47500D01*
X112702Y-47595D01*
X112702Y-47738D01*
X112654Y-47833D01*
X112607Y-47880D01*
X112511Y-47928D01*
X112130Y-47928D01*
X113511Y-48357D02*
X113416Y-48404D01*
X113226Y-48404D01*
X113130Y-48357D01*
X113083Y-48261D01*
X113083Y-47880D01*
X113130Y-47785D01*
X113226Y-47738D01*
X113416Y-47738D01*
X113511Y-47785D01*
X113559Y-47880D01*
X113559Y-47976D01*
X113083Y-48071D01*
X113845Y-47738D02*
X114226Y-47738D01*
X113988Y-48404D02*
X113988Y-47547D01*
X114035Y-47452D01*
X114130Y-47404D01*
X114226Y-47404D01*
G54D11*
X83171Y-60214D02*
X83214Y-60228D01*
X83228Y-60242D01*
X83242Y-60271D01*
X83242Y-60314D01*
X83228Y-60342D01*
X83214Y-60357D01*
X83185Y-60371D01*
X83071Y-60371D01*
X83071Y-60071D01*
X83171Y-60071D01*
X83200Y-60085D01*
X83214Y-60100D01*
X83228Y-60128D01*
X83228Y-60157D01*
X83214Y-60185D01*
X83200Y-60200D01*
X83171Y-60214D01*
X83071Y-60214D01*
X83500Y-60371D02*
X83500Y-60214D01*
X83485Y-60185D01*
X83457Y-60171D01*
X83400Y-60171D01*
X83371Y-60185D01*
X83500Y-60357D02*
X83471Y-60371D01*
X83400Y-60371D01*
X83371Y-60357D01*
X83357Y-60328D01*
X83357Y-60300D01*
X83371Y-60271D01*
X83400Y-60257D01*
X83471Y-60257D01*
X83500Y-60242D01*
X83628Y-60357D02*
X83657Y-60371D01*
X83714Y-60371D01*
X83742Y-60357D01*
X83757Y-60328D01*
X83757Y-60314D01*
X83742Y-60285D01*
X83714Y-60271D01*
X83671Y-60271D01*
X83642Y-60257D01*
X83628Y-60228D01*
X83628Y-60214D01*
X83642Y-60185D01*
X83671Y-60171D01*
X83714Y-60171D01*
X83742Y-60185D01*
X84000Y-60357D02*
X83971Y-60371D01*
X83914Y-60371D01*
X83885Y-60357D01*
X83871Y-60328D01*
X83871Y-60214D01*
X83885Y-60185D01*
X83914Y-60171D01*
X83971Y-60171D01*
X84000Y-60185D01*
X84014Y-60214D01*
X84014Y-60242D01*
X83871Y-60271D01*
X84271Y-60371D02*
X84271Y-60071D01*
X84271Y-60357D02*
X84242Y-60371D01*
X84185Y-60371D01*
X84157Y-60357D01*
X84142Y-60342D01*
X84128Y-60314D01*
X84128Y-60228D01*
X84142Y-60200D01*
X84157Y-60185D01*
X84185Y-60171D01*
X84242Y-60171D01*
X84271Y-60185D01*
X84685Y-60371D02*
X84657Y-60357D01*
X84642Y-60342D01*
X84628Y-60314D01*
X84628Y-60228D01*
X84642Y-60200D01*
X84657Y-60185D01*
X84685Y-60171D01*
X84728Y-60171D01*
X84757Y-60185D01*
X84771Y-60200D01*
X84785Y-60228D01*
X84785Y-60314D01*
X84771Y-60342D01*
X84757Y-60357D01*
X84728Y-60371D01*
X84685Y-60371D01*
X84914Y-60171D02*
X84914Y-60371D01*
X84914Y-60200D02*
X84928Y-60185D01*
X84957Y-60171D01*
X85000Y-60171D01*
X85028Y-60185D01*
X85042Y-60214D01*
X85042Y-60371D01*
X85371Y-60171D02*
X85485Y-60171D01*
X85414Y-60071D02*
X85414Y-60328D01*
X85428Y-60357D01*
X85457Y-60371D01*
X85485Y-60371D01*
X85585Y-60371D02*
X85585Y-60071D01*
X85714Y-60371D02*
X85714Y-60214D01*
X85700Y-60185D01*
X85671Y-60171D01*
X85628Y-60171D01*
X85600Y-60185D01*
X85585Y-60200D01*
X85971Y-60357D02*
X85942Y-60371D01*
X85885Y-60371D01*
X85857Y-60357D01*
X85842Y-60328D01*
X85842Y-60214D01*
X85857Y-60185D01*
X85885Y-60171D01*
X85942Y-60171D01*
X85971Y-60185D01*
X85985Y-60214D01*
X85985Y-60242D01*
X85842Y-60271D01*
X86471Y-60357D02*
X86442Y-60371D01*
X86385Y-60371D01*
X86357Y-60357D01*
X86342Y-60342D01*
X86328Y-60314D01*
X86328Y-60228D01*
X86342Y-60200D01*
X86357Y-60185D01*
X86385Y-60171D01*
X86442Y-60171D01*
X86471Y-60185D01*
X86600Y-60371D02*
X86600Y-60171D01*
X86600Y-60071D02*
X86585Y-60085D01*
X86600Y-60100D01*
X86614Y-60085D01*
X86600Y-60071D01*
X86600Y-60100D01*
X86742Y-60371D02*
X86742Y-60171D01*
X86742Y-60228D02*
X86757Y-60200D01*
X86771Y-60185D01*
X86800Y-60171D01*
X86828Y-60171D01*
X87057Y-60357D02*
X87028Y-60371D01*
X86971Y-60371D01*
X86942Y-60357D01*
X86928Y-60342D01*
X86914Y-60314D01*
X86914Y-60228D01*
X86928Y-60200D01*
X86942Y-60185D01*
X86971Y-60171D01*
X87028Y-60171D01*
X87057Y-60185D01*
X87314Y-60171D02*
X87314Y-60371D01*
X87185Y-60171D02*
X87185Y-60328D01*
X87200Y-60357D01*
X87228Y-60371D01*
X87271Y-60371D01*
X87300Y-60357D01*
X87314Y-60342D01*
X87457Y-60371D02*
X87457Y-60171D01*
X87457Y-60071D02*
X87442Y-60085D01*
X87457Y-60100D01*
X87471Y-60085D01*
X87457Y-60071D01*
X87457Y-60100D01*
X87557Y-60171D02*
X87671Y-60171D01*
X87600Y-60071D02*
X87600Y-60328D01*
X87614Y-60357D01*
X87642Y-60371D01*
X87671Y-60371D01*
X87757Y-60357D02*
X87785Y-60371D01*
X87842Y-60371D01*
X87871Y-60357D01*
X87885Y-60328D01*
X87885Y-60314D01*
X87871Y-60285D01*
X87842Y-60271D01*
X87800Y-60271D01*
X87771Y-60257D01*
X87757Y-60228D01*
X87757Y-60214D01*
X87771Y-60185D01*
X87800Y-60171D01*
X87842Y-60171D01*
X87871Y-60185D01*
X88285Y-60371D02*
X88257Y-60357D01*
X88242Y-60342D01*
X88228Y-60314D01*
X88228Y-60228D01*
X88242Y-60200D01*
X88257Y-60185D01*
X88285Y-60171D01*
X88328Y-60171D01*
X88357Y-60185D01*
X88371Y-60200D01*
X88385Y-60228D01*
X88385Y-60314D01*
X88371Y-60342D01*
X88357Y-60357D01*
X88328Y-60371D01*
X88285Y-60371D01*
X88471Y-60171D02*
X88585Y-60171D01*
X88514Y-60371D02*
X88514Y-60114D01*
X88528Y-60085D01*
X88557Y-60071D01*
X88585Y-60071D01*
X88900Y-60285D02*
X89042Y-60285D01*
X88871Y-60371D02*
X88971Y-60071D01*
X89071Y-60371D01*
X89171Y-60171D02*
X89171Y-60371D01*
X89171Y-60200D02*
X89185Y-60185D01*
X89214Y-60171D01*
X89257Y-60171D01*
X89285Y-60185D01*
X89300Y-60214D01*
X89300Y-60371D01*
X89571Y-60371D02*
X89571Y-60071D01*
X89571Y-60357D02*
X89542Y-60371D01*
X89485Y-60371D01*
X89457Y-60357D01*
X89442Y-60342D01*
X89428Y-60314D01*
X89428Y-60228D01*
X89442Y-60200D01*
X89457Y-60185D01*
X89485Y-60171D01*
X89542Y-60171D01*
X89571Y-60185D01*
X89714Y-60371D02*
X89714Y-60171D01*
X89714Y-60228D02*
X89728Y-60200D01*
X89742Y-60185D01*
X89771Y-60171D01*
X89800Y-60171D01*
X90014Y-60357D02*
X89985Y-60371D01*
X89928Y-60371D01*
X89900Y-60357D01*
X89885Y-60328D01*
X89885Y-60214D01*
X89900Y-60185D01*
X89928Y-60171D01*
X89985Y-60171D01*
X90014Y-60185D01*
X90028Y-60214D01*
X90028Y-60242D01*
X89885Y-60271D01*
X90285Y-60371D02*
X90285Y-60214D01*
X90271Y-60185D01*
X90242Y-60171D01*
X90185Y-60171D01*
X90157Y-60185D01*
X90285Y-60357D02*
X90257Y-60371D01*
X90185Y-60371D01*
X90157Y-60357D01*
X90142Y-60328D01*
X90142Y-60300D01*
X90157Y-60271D01*
X90185Y-60257D01*
X90257Y-60257D01*
X90285Y-60242D01*
X90414Y-60357D02*
X90442Y-60371D01*
X90500Y-60371D01*
X90528Y-60357D01*
X90542Y-60328D01*
X90542Y-60314D01*
X90528Y-60285D01*
X90500Y-60271D01*
X90457Y-60271D01*
X90428Y-60257D01*
X90414Y-60228D01*
X90414Y-60214D01*
X90428Y-60185D01*
X90457Y-60171D01*
X90500Y-60171D01*
X90528Y-60185D01*
X91028Y-60371D02*
X91028Y-60214D01*
X91014Y-60185D01*
X90985Y-60171D01*
X90928Y-60171D01*
X90900Y-60185D01*
X91028Y-60357D02*
X91000Y-60371D01*
X90928Y-60371D01*
X90900Y-60357D01*
X90885Y-60328D01*
X90885Y-60300D01*
X90900Y-60271D01*
X90928Y-60257D01*
X91000Y-60257D01*
X91028Y-60242D01*
X91171Y-60171D02*
X91171Y-60371D01*
X91171Y-60200D02*
X91185Y-60185D01*
X91214Y-60171D01*
X91257Y-60171D01*
X91285Y-60185D01*
X91300Y-60214D01*
X91300Y-60371D01*
X91571Y-60371D02*
X91571Y-60071D01*
X91571Y-60357D02*
X91542Y-60371D01*
X91485Y-60371D01*
X91457Y-60357D01*
X91442Y-60342D01*
X91428Y-60314D01*
X91428Y-60228D01*
X91442Y-60200D01*
X91457Y-60185D01*
X91485Y-60171D01*
X91542Y-60171D01*
X91571Y-60185D01*
X91942Y-60371D02*
X91942Y-60071D01*
X92014Y-60071D01*
X92057Y-60085D01*
X92085Y-60114D01*
X92100Y-60142D01*
X92114Y-60200D01*
X92114Y-60242D01*
X92100Y-60300D01*
X92085Y-60328D01*
X92057Y-60357D01*
X92014Y-60371D01*
X91942Y-60371D01*
X92242Y-60371D02*
X92242Y-60171D01*
X92242Y-60228D02*
X92257Y-60200D01*
X92271Y-60185D01*
X92300Y-60171D01*
X92328Y-60171D01*
X92428Y-60342D02*
X92442Y-60357D01*
X92428Y-60371D01*
X92414Y-60357D01*
X92428Y-60342D01*
X92428Y-60371D01*
X92900Y-60214D02*
X92800Y-60214D01*
X92800Y-60371D02*
X92800Y-60071D01*
X92942Y-60071D01*
X93057Y-60371D02*
X93057Y-60171D01*
X93057Y-60228D02*
X93071Y-60200D01*
X93085Y-60185D01*
X93114Y-60171D01*
X93142Y-60171D01*
X93371Y-60371D02*
X93371Y-60214D01*
X93357Y-60185D01*
X93328Y-60171D01*
X93271Y-60171D01*
X93242Y-60185D01*
X93371Y-60357D02*
X93342Y-60371D01*
X93271Y-60371D01*
X93242Y-60357D01*
X93228Y-60328D01*
X93228Y-60300D01*
X93242Y-60271D01*
X93271Y-60257D01*
X93342Y-60257D01*
X93371Y-60242D01*
X93514Y-60171D02*
X93514Y-60371D01*
X93514Y-60200D02*
X93528Y-60185D01*
X93557Y-60171D01*
X93600Y-60171D01*
X93628Y-60185D01*
X93642Y-60214D01*
X93642Y-60371D01*
X93785Y-60371D02*
X93785Y-60071D01*
X93814Y-60257D02*
X93900Y-60371D01*
X93900Y-60171D02*
X93785Y-60285D01*
G54D14*
X100250Y-49750D02*
X100300Y-49800D01*
X99500Y-49000D02*
X99400Y-48900D01*
X100250Y-48750D02*
X100050Y-48550D01*
X101000Y-49500D02*
X101050Y-49550D01*
X101000Y-48500D02*
X100850Y-48350D01*
X102000Y-49500D02*
X102050Y-49550D01*
X103250Y-48750D02*
X103150Y-48650D01*
X104750Y-50250D02*
X104850Y-50350D01*
X105000Y-51500D02*
X105250Y-51750D01*
X104000Y-51500D02*
X103950Y-51450D01*
X105000Y-52500D02*
X105150Y-52650D01*
X104000Y-52500D02*
X103950Y-52450D01*
X104750Y-53250D02*
X104950Y-53450D01*
X103750Y-53250D02*
X103700Y-53200D01*
X104500Y-54000D02*
X104600Y-54100D01*
X103500Y-54000D02*
X103300Y-53800D01*
X104000Y-54500D02*
X104150Y-54650D01*
X102750Y-54250D02*
X102700Y-54200D01*
X103500Y-55000D02*
X103600Y-55100D01*
X102750Y-55250D02*
X102950Y-55450D01*
X101000Y-54500D02*
X100950Y-54450D01*
X102000Y-55500D02*
X102150Y-55650D01*
X101000Y-55500D02*
X101250Y-55750D01*
X99750Y-55250D02*
X99850Y-55350D01*
X98250Y-53750D02*
X98150Y-53650D01*
X98000Y-52500D02*
X97800Y-52300D01*
X99000Y-52500D02*
X99050Y-52550D01*
X98000Y-51500D02*
X97850Y-51350D01*
X98250Y-50750D02*
X98050Y-50550D01*
X99000Y-49500D02*
X98850Y-49350D01*
X99500Y-50000D02*
X99700Y-50200D01*
X99250Y-50750D02*
X99300Y-50800D01*
X98500Y-50000D02*
X98400Y-49900D01*
X96500Y-51000D02*
X96600Y-50900D01*
X96500Y-53000D02*
X96550Y-52950D01*
X96750Y-53750D02*
X96800Y-53700D01*
X97000Y-54500D02*
X97100Y-54400D01*
X97750Y-55750D02*
X97950Y-55550D01*
X99000Y-56500D02*
X99100Y-56400D01*
X99750Y-56750D02*
X99800Y-56700D01*
X100500Y-57000D02*
X100550Y-56950D01*
X102500Y-57000D02*
X102600Y-56900D01*
X104250Y-56250D02*
X104450Y-56050D01*
X106500Y-53000D02*
X106400Y-53100D01*
X106500Y-51000D02*
X106450Y-51050D01*
X106250Y-50250D02*
X106200Y-50300D01*
X106000Y-49500D02*
X105900Y-49600D01*
X105750Y-48750D02*
X105500Y-49000D01*
X105250Y-48250D02*
X105050Y-48450D01*
X104000Y-47500D02*
X103900Y-47600D01*
X103250Y-47250D02*
X103200Y-47300D01*
X102500Y-47000D02*
X102450Y-47050D01*
X100500Y-47000D02*
X100400Y-47100D01*
X97250Y-49250D02*
X97500Y-49000D01*
X98750Y-47750D02*
X98550Y-47950D01*
X95750Y-49750D02*
X95650Y-49850D01*
X95500Y-51000D02*
X95300Y-51200D01*
X95500Y-53000D02*
X95400Y-53100D01*
X95750Y-53750D02*
X95600Y-53900D01*
X96000Y-54500D02*
X95850Y-54650D01*
X96250Y-55250D02*
X96200Y-55300D01*
X96750Y-55750D02*
X96650Y-55850D01*
X97250Y-56250D02*
X97100Y-56400D01*
X97750Y-56750D02*
X97650Y-56850D01*
X98250Y-57250D02*
X98200Y-57300D01*
X99000Y-57500D02*
X98850Y-57650D01*
X99750Y-57750D02*
X99600Y-57900D01*
X100500Y-58000D02*
X100400Y-58100D01*
X102500Y-58000D02*
X102300Y-58200D01*
X103750Y-57750D02*
X103650Y-57850D01*
X107250Y-54250D02*
X107350Y-54150D01*
X107500Y-53000D02*
X107700Y-52800D01*
X107500Y-52000D02*
X107750Y-51750D01*
X107500Y-51000D02*
X107600Y-50900D01*
X107250Y-50250D02*
X107400Y-50100D01*
X107000Y-49500D02*
X107150Y-49350D01*
X106750Y-48750D02*
X106800Y-48700D01*
X106250Y-48250D02*
X106350Y-48150D01*
X105750Y-47750D02*
X105900Y-47600D01*
X105250Y-47250D02*
X105350Y-47150D01*
X104000Y-46500D02*
X104100Y-46400D01*
X103250Y-46250D02*
X103400Y-46100D01*
X102500Y-46000D02*
X102600Y-45900D01*
X100500Y-46000D02*
X100700Y-45800D01*
X99250Y-46250D02*
X99350Y-46150D01*
X101750Y-55250D02*
X102000Y-55500D01*
X101750Y-55250D02*
X101000Y-54500D01*
X102000Y-54500D02*
X102750Y-55250D01*
X102750Y-54250D02*
X103500Y-55000D01*
X103500Y-54000D02*
X104000Y-54500D01*
X103750Y-53250D02*
X104500Y-54000D01*
X104000Y-52500D02*
X104750Y-53250D01*
X104000Y-51500D02*
X105000Y-52500D01*
X103250Y-48750D02*
X104750Y-50250D01*
X101750Y-48250D02*
X105000Y-51500D01*
X101000Y-48500D02*
X102000Y-49500D01*
X101000Y-49500D02*
X100250Y-48750D01*
X100250Y-49750D02*
X99500Y-49000D01*
X99500Y-50000D02*
X99000Y-49500D01*
X99250Y-50750D02*
X98500Y-50000D01*
X99000Y-51500D02*
X98250Y-50750D01*
X99000Y-52500D02*
X98000Y-51500D01*
X98250Y-53750D02*
X99750Y-55250D01*
X98000Y-52500D02*
X101000Y-55500D01*
X95500Y-51000D02*
X97250Y-49250D01*
X95250Y-52250D02*
X96500Y-51000D01*
X95500Y-53000D02*
X96500Y-52000D01*
X95750Y-53750D02*
X96500Y-53000D01*
X96000Y-54500D02*
X96750Y-53750D01*
X96250Y-55250D02*
X97000Y-54500D01*
X96750Y-55750D02*
X97500Y-55000D01*
X97250Y-56250D02*
X97750Y-55750D01*
X97750Y-56750D02*
X98500Y-56000D01*
X98250Y-57250D02*
X99000Y-56500D01*
X99000Y-57500D02*
X99750Y-56750D01*
X99750Y-57750D02*
X100500Y-57000D01*
X100500Y-58000D02*
X101500Y-57000D01*
X101250Y-58250D02*
X102500Y-57000D01*
X102500Y-58000D02*
X104250Y-56250D01*
X107250Y-54250D02*
X103750Y-57750D01*
X107500Y-53000D02*
X105500Y-55000D01*
X107500Y-52000D02*
X106500Y-53000D01*
X107500Y-51000D02*
X106500Y-52000D01*
X107250Y-50250D02*
X106500Y-51000D01*
X107000Y-49500D02*
X106250Y-50250D01*
X106750Y-48750D02*
X106000Y-49500D01*
X106250Y-48250D02*
X105750Y-48750D01*
X105750Y-47750D02*
X105250Y-48250D01*
X104500Y-48000D02*
X105250Y-47250D01*
X104000Y-47500D02*
X104750Y-46750D01*
X103250Y-47250D02*
X104000Y-46500D01*
X102500Y-47000D02*
X103250Y-46250D01*
X101500Y-47000D02*
X102500Y-46000D01*
X100500Y-47000D02*
X101750Y-45750D01*
X98750Y-47750D02*
X100500Y-46000D01*
X97500Y-48000D02*
X95750Y-49750D01*
X97500Y-48000D02*
X99250Y-46250D01*
G54D12*
X81445Y-48280D02*
X81407Y-48261D01*
X81350Y-48261D01*
X81292Y-48280D01*
X81254Y-48319D01*
X81235Y-48357D01*
X81216Y-48433D01*
X81216Y-48490D01*
X81235Y-48566D01*
X81254Y-48604D01*
X81292Y-48642D01*
X81350Y-48661D01*
X81388Y-48661D01*
X81445Y-48642D01*
X81464Y-48623D01*
X81464Y-48490D01*
X81388Y-48490D01*
X81635Y-48661D02*
X81635Y-48261D01*
X81864Y-48661D01*
X81864Y-48261D01*
X82054Y-48661D02*
X82054Y-48261D01*
X82150Y-48261D01*
X82207Y-48280D01*
X82245Y-48319D01*
X82264Y-48357D01*
X82283Y-48433D01*
X82283Y-48490D01*
X82264Y-48566D01*
X82245Y-48604D01*
X82207Y-48642D01*
X82150Y-48661D01*
X82054Y-48661D01*
X81502Y-47661D02*
X81273Y-47661D01*
X81388Y-47661D02*
X81388Y-47261D01*
X81350Y-47319D01*
X81311Y-47357D01*
X81273Y-47376D01*
X81864Y-47261D02*
X81673Y-47261D01*
X81654Y-47452D01*
X81673Y-47433D01*
X81711Y-47414D01*
X81807Y-47414D01*
X81845Y-47433D01*
X81864Y-47452D01*
X81883Y-47490D01*
X81883Y-47585D01*
X81864Y-47623D01*
X81845Y-47642D01*
X81807Y-47661D01*
X81711Y-47661D01*
X81673Y-47642D01*
X81654Y-47623D01*
X81997Y-47261D02*
X82130Y-47661D01*
X82264Y-47261D01*
G54D11*
X113278Y-54357D02*
X113321Y-54371D01*
X113392Y-54371D01*
X113421Y-54357D01*
X113435Y-54342D01*
X113450Y-54314D01*
X113450Y-54285D01*
X113435Y-54257D01*
X113421Y-54242D01*
X113392Y-54228D01*
X113335Y-54214D01*
X113307Y-54200D01*
X113292Y-54185D01*
X113278Y-54157D01*
X113278Y-54128D01*
X113292Y-54100D01*
X113307Y-54085D01*
X113335Y-54071D01*
X113407Y-54071D01*
X113450Y-54085D01*
X113578Y-54371D02*
X113578Y-54071D01*
X113578Y-54214D02*
X113750Y-54214D01*
X113750Y-54371D02*
X113750Y-54071D01*
X113892Y-54371D02*
X113892Y-54071D01*
X114035Y-54214D02*
X114135Y-54214D01*
X114178Y-54371D02*
X114035Y-54371D01*
X114035Y-54071D01*
X114178Y-54071D01*
X114450Y-54371D02*
X114307Y-54371D01*
X114307Y-54071D01*
X114550Y-54371D02*
X114550Y-54071D01*
X114621Y-54071D01*
X114664Y-54085D01*
X114692Y-54114D01*
X114707Y-54142D01*
X114721Y-54200D01*
X114721Y-54242D01*
X114707Y-54300D01*
X114692Y-54328D01*
X114664Y-54357D01*
X114621Y-54371D01*
X114550Y-54371D01*
G54D12*
X113514Y-52259D02*
X113819Y-52259D01*
X113952Y-52011D02*
X114085Y-52411D01*
X114219Y-52011D01*
X114314Y-52145D02*
X114523Y-52145D01*
X114314Y-52411D01*
X114523Y-52411D01*
X113514Y-50259D02*
X113819Y-50259D01*
X113666Y-50411D02*
X113666Y-50107D01*
X113952Y-50011D02*
X114085Y-50411D01*
X114219Y-50011D01*
X114314Y-50145D02*
X114523Y-50145D01*
X114314Y-50411D01*
X114523Y-50411D01*
G54D11*
X104071Y-60371D02*
X103900Y-60371D01*
X103985Y-60371D02*
X103985Y-60071D01*
X103957Y-60114D01*
X103928Y-60142D01*
X103900Y-60157D01*
X104171Y-60071D02*
X104357Y-60071D01*
X104257Y-60185D01*
X104300Y-60185D01*
X104328Y-60200D01*
X104342Y-60214D01*
X104357Y-60242D01*
X104357Y-60314D01*
X104342Y-60342D01*
X104328Y-60357D01*
X104300Y-60371D01*
X104214Y-60371D01*
X104185Y-60357D01*
X104171Y-60342D01*
X104485Y-60371D02*
X104485Y-60071D01*
X104514Y-60257D02*
X104600Y-60371D01*
X104600Y-60171D02*
X104485Y-60285D01*
X104200Y-59871D02*
X104100Y-59728D01*
X104028Y-59871D02*
X104028Y-59571D01*
X104142Y-59571D01*
X104171Y-59585D01*
X104185Y-59600D01*
X104200Y-59628D01*
X104200Y-59671D01*
X104185Y-59700D01*
X104171Y-59714D01*
X104142Y-59728D01*
X104028Y-59728D01*
X104457Y-59671D02*
X104457Y-59871D01*
X104385Y-59557D02*
X104314Y-59771D01*
X104500Y-59771D01*
G54D14*
X107750Y-52000D02*
G75*
G03X107750Y-52000I-6250J0D01*
G74*
G01*
X106500Y-52000D02*
G75*
G03X106500Y-52000I-5000J0D01*
G74*
G01*
X105250Y-52000D02*
G75*
G03X105250Y-52000I-3750J0D01*
G74*
G01*
X104000Y-52000D02*
G75*
G03X104000Y-52000I-2500J0D01*
G74*
G01*
G54D10*
X81900Y-56000D02*
X81900Y-55150D01*
X81900Y-55150D02*
X80100Y-55150D01*
X80100Y-55150D02*
X80100Y-56000D01*
X80100Y-56000D02*
G75*
G03X81000Y-56900I900J0D01*
G74*
G01*
X81000Y-56900D02*
G75*
G03X81900Y-56000I0J900D01*
G74*
G01*
G54D15*
X83000Y-54000D02*
X83000Y-54400D01*
X83000Y-54400D02*
X83400Y-54400D01*
X83400Y-54400D02*
X83400Y-57600D01*
X83400Y-57600D02*
X82600Y-57600D01*
X82600Y-57600D02*
X82600Y-54400D01*
X82600Y-54400D02*
X83000Y-54400D01*
X83000Y-58000D02*
X83000Y-57600D01*
X88250Y-58000D02*
X87850Y-58000D01*
X87850Y-58000D02*
X87850Y-58400D01*
X87850Y-58400D02*
X84650Y-58400D01*
X84650Y-58400D02*
X84650Y-57600D01*
X84650Y-57600D02*
X87850Y-57600D01*
X87850Y-57600D02*
X87850Y-58000D01*
X84250Y-58000D02*
X84650Y-58000D01*
X95000Y-55750D02*
X95282Y-56032D01*
X95282Y-56032D02*
X95565Y-55750D01*
X95565Y-55750D02*
X97828Y-58012D01*
X97828Y-58012D02*
X97262Y-58578D01*
X97262Y-58578D02*
X95000Y-56315D01*
X95000Y-56315D02*
X95282Y-56032D01*
X97828Y-58578D02*
X97545Y-58295D01*
X105250Y-45500D02*
X105532Y-45782D01*
X105532Y-45782D02*
X105815Y-45500D01*
X105815Y-45500D02*
X108078Y-47762D01*
X108078Y-47762D02*
X107512Y-48328D01*
X107512Y-48328D02*
X105250Y-46065D01*
X105250Y-46065D02*
X105532Y-45782D01*
X108078Y-48328D02*
X107795Y-48045D01*
X87500Y-49500D02*
X87900Y-49500D01*
X87900Y-49500D02*
X87900Y-49100D01*
X87900Y-49100D02*
X91100Y-49100D01*
X91100Y-49100D02*
X91100Y-49900D01*
X91100Y-49900D02*
X87900Y-49900D01*
X87900Y-49900D02*
X87900Y-49500D01*
X91500Y-49500D02*
X91100Y-49500D01*
X80500Y-54000D02*
X80500Y-53250D01*
X80500Y-50750D02*
X80500Y-50000D01*
X80000Y-51000D02*
X81000Y-51000D01*
X81000Y-53250D02*
X81000Y-50750D01*
X80000Y-53250D02*
X81000Y-53250D01*
X80000Y-50750D02*
X81000Y-50750D01*
X80000Y-53250D02*
X80000Y-50750D01*
X108164Y-55835D02*
X107633Y-56366D01*
X105866Y-58133D02*
X105335Y-58664D01*
X106396Y-58310D02*
X105689Y-57603D01*
X107280Y-56012D02*
X105512Y-57780D01*
X107987Y-56719D02*
X107280Y-56012D01*
X106219Y-58487D02*
X105512Y-57780D01*
X107987Y-56719D02*
X106219Y-58487D01*
X94835Y-48164D02*
X95366Y-47633D01*
X97133Y-45866D02*
X97664Y-45335D01*
X96603Y-45689D02*
X97310Y-46396D01*
X95719Y-47987D02*
X97487Y-46219D01*
X95012Y-47280D02*
X95719Y-47987D01*
X96780Y-45512D02*
X97487Y-46219D01*
X95012Y-47280D02*
X96780Y-45512D01*
X87500Y-44500D02*
X88250Y-44500D01*
X90750Y-44500D02*
X91500Y-44500D01*
X90500Y-44000D02*
X90500Y-45000D01*
X88250Y-45000D02*
X90750Y-45000D01*
X88250Y-44000D02*
X88250Y-45000D01*
X90750Y-44000D02*
X90750Y-45000D01*
X88250Y-44000D02*
X90750Y-44000D01*
X88000Y-57250D02*
X86000Y-57250D01*
X86000Y-57250D02*
X86000Y-54250D01*
X86000Y-54250D02*
X88000Y-54250D01*
X88000Y-54250D02*
X88000Y-57250D01*
X90500Y-54250D02*
X92500Y-54250D01*
X92500Y-54250D02*
X92500Y-57250D01*
X92500Y-57250D02*
X90500Y-57250D01*
X90500Y-57250D02*
X90500Y-54250D01*
X83500Y-53500D02*
X81500Y-53500D01*
X81500Y-53500D02*
X81500Y-50500D01*
X81500Y-50500D02*
X83500Y-50500D01*
X83500Y-50500D02*
X83500Y-53500D01*
X112250Y-53500D02*
X110250Y-53500D01*
X110250Y-53500D02*
X110250Y-50500D01*
X110250Y-50500D02*
X112250Y-50500D01*
X112250Y-50500D02*
X112250Y-53500D01*
X83750Y-54250D02*
X85750Y-54250D01*
X85750Y-54250D02*
X85750Y-57250D01*
X85750Y-57250D02*
X83750Y-57250D01*
X83750Y-57250D02*
X83750Y-54250D01*
X87000Y-47750D02*
X87000Y-49750D01*
X87000Y-49750D02*
X84000Y-49750D01*
X84000Y-49750D02*
X84000Y-47750D01*
X84000Y-47750D02*
X87000Y-47750D01*
X93482Y-57896D02*
X94896Y-56482D01*
X94896Y-56482D02*
X97017Y-58603D01*
X97017Y-58603D02*
X95603Y-60017D01*
X95603Y-60017D02*
X93482Y-57896D01*
X90500Y-53500D02*
X88500Y-53500D01*
X88500Y-53500D02*
X88500Y-50500D01*
X88500Y-50500D02*
X90500Y-50500D01*
X90500Y-50500D02*
X90500Y-53500D01*
X92750Y-53500D02*
X90750Y-53500D01*
X90750Y-53500D02*
X90750Y-50500D01*
X90750Y-50500D02*
X92750Y-50500D01*
X92750Y-50500D02*
X92750Y-53500D01*
X90250Y-57250D02*
X88250Y-57250D01*
X88250Y-57250D02*
X88250Y-54250D01*
X88250Y-54250D02*
X90250Y-54250D01*
X90250Y-54250D02*
X90250Y-57250D01*
X103350Y-52000D02*
G75*
G03X103350Y-52000I-1850J0D01*
G74*
G01*
X101250Y-54100D02*
X101250Y-53850D01*
X101750Y-54100D02*
X101750Y-53850D01*
X101750Y-54100D02*
X101250Y-54100D01*
X84300Y-52000D02*
G75*
G03X84000Y-51700I-300J0D01*
G74*
G01*
X84000Y-52300D02*
G75*
G03X84300Y-52000I0J300D01*
G74*
G01*
X84000Y-51000D02*
X88000Y-51000D01*
X88000Y-51000D02*
X88000Y-53000D01*
X88000Y-53000D02*
X84000Y-53000D01*
X84000Y-53000D02*
X84000Y-51000D01*
X82250Y-44500D02*
G75*
G03X82250Y-44500I-1750J0D01*
G74*
G01*
X113500Y-44500D02*
G75*
G03X113500Y-44500I-1750J0D01*
G74*
G01*
X113500Y-60000D02*
G75*
G03X113500Y-60000I-1750J0D01*
G74*
G01*
X82250Y-60000D02*
G75*
G03X82250Y-60000I-1750J0D01*
G74*
G01*
G54D16*
G36*
X92796Y-46914D02*
X92812Y-46906D01*
X92849Y-46883D01*
X92902Y-46848D01*
X92964Y-46807D01*
X93026Y-46764D01*
X93077Y-46730D01*
X93113Y-46707D01*
X93128Y-46699D01*
X93136Y-46701D01*
X93166Y-46716D01*
X93209Y-46738D01*
X93234Y-46751D01*
X93273Y-46768D01*
X93293Y-46772D01*
X93296Y-46766D01*
X93311Y-46736D01*
X93333Y-46684D01*
X93363Y-46616D01*
X93397Y-46536D01*
X93434Y-46450D01*
X93470Y-46362D01*
X93505Y-46278D01*
X93536Y-46203D01*
X93561Y-46142D01*
X93577Y-46099D01*
X93583Y-46081D01*
X93581Y-46077D01*
X93561Y-46058D01*
X93527Y-46032D01*
X93452Y-45971D01*
X93379Y-45879D01*
X93334Y-45775D01*
X93319Y-45659D01*
X93332Y-45552D01*
X93374Y-45449D01*
X93446Y-45356D01*
X93533Y-45287D01*
X93635Y-45243D01*
X93750Y-45229D01*
X93860Y-45241D01*
X93965Y-45283D01*
X94058Y-45354D01*
X94097Y-45399D01*
X94151Y-45493D01*
X94182Y-45594D01*
X94185Y-45619D01*
X94181Y-45730D01*
X94148Y-45836D01*
X94090Y-45931D01*
X94009Y-46008D01*
X93998Y-46016D01*
X93961Y-46044D01*
X93936Y-46063D01*
X93916Y-46079D01*
X94057Y-46418D01*
X94079Y-46472D01*
X94118Y-46565D01*
X94152Y-46645D01*
X94179Y-46708D01*
X94198Y-46751D01*
X94206Y-46768D01*
X94207Y-46769D01*
X94219Y-46771D01*
X94245Y-46761D01*
X94292Y-46738D01*
X94324Y-46722D01*
X94360Y-46705D01*
X94376Y-46699D01*
X94390Y-46706D01*
X94424Y-46729D01*
X94475Y-46762D01*
X94535Y-46803D01*
X94593Y-46843D01*
X94646Y-46878D01*
X94685Y-46902D01*
X94704Y-46913D01*
X94707Y-46913D01*
X94723Y-46903D01*
X94754Y-46878D01*
X94800Y-46834D01*
X94865Y-46770D01*
X94875Y-46760D01*
X94929Y-46705D01*
X94973Y-46659D01*
X95002Y-46627D01*
X95012Y-46612D01*
X95012Y-46612D01*
X95003Y-46593D01*
X94978Y-46555D01*
X94943Y-46501D01*
X94900Y-46438D01*
X94788Y-46275D01*
X94850Y-46121D01*
X94869Y-46074D01*
X94893Y-46017D01*
X94910Y-45976D01*
X94920Y-45958D01*
X94936Y-45952D01*
X94979Y-45942D01*
X95040Y-45929D01*
X95112Y-45916D01*
X95182Y-45903D01*
X95245Y-45891D01*
X95290Y-45882D01*
X95310Y-45878D01*
X95315Y-45875D01*
X95319Y-45865D01*
X95322Y-45844D01*
X95323Y-45806D01*
X95324Y-45746D01*
X95324Y-45659D01*
X95324Y-45650D01*
X95323Y-45567D01*
X95322Y-45501D01*
X95320Y-45458D01*
X95317Y-45441D01*
X95317Y-45441D01*
X95297Y-45436D01*
X95253Y-45427D01*
X95190Y-45414D01*
X95115Y-45400D01*
X95111Y-45399D01*
X95036Y-45385D01*
X94974Y-45372D01*
X94930Y-45362D01*
X94912Y-45356D01*
X94908Y-45351D01*
X94893Y-45322D01*
X94871Y-45276D01*
X94847Y-45219D01*
X94822Y-45161D01*
X94801Y-45108D01*
X94787Y-45069D01*
X94783Y-45051D01*
X94783Y-45051D01*
X94794Y-45033D01*
X94820Y-44994D01*
X94856Y-44941D01*
X94900Y-44877D01*
X94903Y-44872D01*
X94946Y-44809D01*
X94981Y-44756D01*
X95004Y-44718D01*
X95012Y-44701D01*
X95012Y-44700D01*
X94998Y-44681D01*
X94966Y-44646D01*
X94920Y-44598D01*
X94865Y-44542D01*
X94847Y-44525D01*
X94786Y-44465D01*
X94744Y-44426D01*
X94717Y-44405D01*
X94704Y-44400D01*
X94704Y-44401D01*
X94685Y-44412D01*
X94645Y-44438D01*
X94591Y-44475D01*
X94527Y-44518D01*
X94523Y-44521D01*
X94460Y-44564D01*
X94408Y-44599D01*
X94370Y-44624D01*
X94354Y-44634D01*
X94351Y-44634D01*
X94326Y-44626D01*
X94281Y-44611D01*
X94226Y-44589D01*
X94168Y-44566D01*
X94115Y-44544D01*
X94075Y-44525D01*
X94056Y-44515D01*
X94056Y-44514D01*
X94049Y-44491D01*
X94038Y-44444D01*
X94025Y-44379D01*
X94010Y-44302D01*
X94008Y-44290D01*
X93994Y-44215D01*
X93982Y-44153D01*
X93973Y-44110D01*
X93968Y-44092D01*
X93958Y-44090D01*
X93921Y-44087D01*
X93865Y-44086D01*
X93797Y-44085D01*
X93726Y-44086D01*
X93657Y-44087D01*
X93597Y-44089D01*
X93555Y-44092D01*
X93537Y-44096D01*
X93536Y-44097D01*
X93530Y-44120D01*
X93520Y-44167D01*
X93506Y-44232D01*
X93491Y-44310D01*
X93489Y-44323D01*
X93475Y-44398D01*
X93462Y-44459D01*
X93453Y-44502D01*
X93448Y-44518D01*
X93442Y-44522D01*
X93411Y-44535D01*
X93361Y-44556D01*
X93298Y-44581D01*
X93154Y-44640D01*
X92978Y-44518D01*
X92961Y-44507D01*
X92898Y-44464D01*
X92845Y-44429D01*
X92809Y-44406D01*
X92794Y-44397D01*
X92793Y-44398D01*
X92775Y-44413D01*
X92740Y-44446D01*
X92692Y-44493D01*
X92637Y-44548D01*
X92596Y-44589D01*
X92547Y-44639D01*
X92516Y-44672D01*
X92499Y-44694D01*
X92493Y-44707D01*
X92495Y-44715D01*
X92506Y-44733D01*
X92532Y-44772D01*
X92568Y-44826D01*
X92611Y-44888D01*
X92647Y-44941D01*
X92685Y-45000D01*
X92710Y-45042D01*
X92719Y-45063D01*
X92717Y-45072D01*
X92704Y-45106D01*
X92683Y-45159D01*
X92657Y-45221D01*
X92595Y-45361D01*
X92503Y-45378D01*
X92448Y-45389D01*
X92370Y-45404D01*
X92296Y-45418D01*
X92180Y-45441D01*
X92176Y-45867D01*
X92194Y-45875D01*
X92211Y-45880D01*
X92254Y-45889D01*
X92315Y-45901D01*
X92388Y-45915D01*
X92449Y-45927D01*
X92512Y-45938D01*
X92556Y-45947D01*
X92576Y-45951D01*
X92581Y-45958D01*
X92597Y-45988D01*
X92619Y-46036D01*
X92643Y-46094D01*
X92668Y-46153D01*
X92690Y-46208D01*
X92706Y-46250D01*
X92711Y-46272D01*
X92703Y-46289D01*
X92679Y-46325D01*
X92645Y-46377D01*
X92603Y-46439D01*
X92560Y-46501D01*
X92525Y-46554D01*
X92500Y-46592D01*
X92490Y-46609D01*
X92495Y-46621D01*
X92519Y-46651D01*
X92566Y-46699D01*
X92635Y-46768D01*
X92647Y-46779D01*
X92702Y-46832D01*
X92749Y-46875D01*
X92781Y-46904D01*
X92796Y-46914D01*
X92796Y-46914D01*
G37*
G54D15*
X88250Y-46750D02*
X90750Y-46750D01*
X88250Y-45250D02*
X90750Y-45250D01*
X88250Y-46000D02*
X88250Y-45250D01*
X90750Y-45250D02*
X90750Y-46750D01*
X88250Y-46750D02*
X88250Y-46000D01*
X91500Y-46000D02*
X90750Y-46000D01*
X87500Y-46000D02*
X88250Y-46000D01*
X84000Y-47000D02*
X84000Y-45000D01*
X84000Y-45000D02*
X87000Y-45000D01*
X87000Y-45000D02*
X87000Y-47000D01*
X87000Y-47000D02*
X84000Y-47000D01*
X103000Y-60250D02*
X100000Y-60250D01*
X100000Y-60250D02*
X100000Y-59250D01*
X100000Y-59250D02*
X103000Y-59250D01*
X103000Y-59250D02*
X103000Y-60250D01*
X102750Y-58750D02*
X100250Y-58750D01*
X102750Y-60750D02*
X100250Y-60750D01*
X100250Y-58750D02*
G75*
G03X99250Y-59750I0J-1000D01*
G74*
G01*
X99250Y-59750D02*
G75*
G03X100250Y-60750I1000J0D01*
G74*
G01*
X102750Y-60750D02*
G75*
G03X103750Y-59750I0J1000D01*
G74*
G01*
X103750Y-59750D02*
G75*
G03X102750Y-58750I-1000J0D01*
G74*
G01*
X100150Y-43700D02*
X102850Y-43700D01*
X102850Y-45300D02*
X100150Y-45300D01*
X102850Y-45300D02*
G75*
G03X103650Y-44500I0J800D01*
G74*
G01*
X103650Y-44500D02*
G75*
G03X102850Y-43700I-800J0D01*
G74*
G01*
X99350Y-44500D02*
G75*
G03X100150Y-45300I800J0D01*
G74*
G01*
X100150Y-43700D02*
G75*
G03X99350Y-44500I0J-800D01*
G74*
G01*
X103000Y-45000D02*
X100000Y-45000D01*
X100000Y-45000D02*
X100000Y-44000D01*
X100000Y-44000D02*
X103000Y-44000D01*
X103000Y-44000D02*
X103000Y-45000D01*
X108200Y-53600D02*
X108200Y-50900D01*
X109800Y-50900D02*
X109800Y-53600D01*
X109800Y-50900D02*
G75*
G03X109000Y-50100I-800J0D01*
G74*
G01*
X109000Y-50100D02*
G75*
G03X108200Y-50900I0J-800D01*
G74*
G01*
X109000Y-54400D02*
G75*
G03X109800Y-53600I0J800D01*
G74*
G01*
X108200Y-53600D02*
G75*
G03X109000Y-54400I800J0D01*
G74*
G01*
X109500Y-50750D02*
X109500Y-53750D01*
X109500Y-53750D02*
X108500Y-53750D01*
X108500Y-53750D02*
X108500Y-50750D01*
X108500Y-50750D02*
X109500Y-50750D01*
X93200Y-53600D02*
X93200Y-50900D01*
X94800Y-50900D02*
X94800Y-53600D01*
X94800Y-50900D02*
G75*
G03X94000Y-50100I-800J0D01*
G74*
G01*
X94000Y-50100D02*
G75*
G03X93200Y-50900I0J-800D01*
G74*
G01*
X94000Y-54400D02*
G75*
G03X94800Y-53600I0J800D01*
G74*
G01*
X93200Y-53600D02*
G75*
G03X94000Y-54400I800J0D01*
G74*
G01*
X94500Y-50750D02*
X94500Y-53750D01*
X94500Y-53750D02*
X93500Y-53750D01*
X93500Y-53750D02*
X93500Y-50750D01*
X93500Y-50750D02*
X94500Y-50750D01*
G54D11*
X80400Y-57028D02*
X80385Y-57057D01*
X80357Y-57085D01*
X80314Y-57128D01*
X80300Y-57157D01*
X80300Y-57185D01*
X80371Y-57171D02*
X80357Y-57200D01*
X80328Y-57228D01*
X80271Y-57242D01*
X80171Y-57242D01*
X80114Y-57228D01*
X80085Y-57200D01*
X80071Y-57171D01*
X80071Y-57114D01*
X80085Y-57085D01*
X80114Y-57057D01*
X80171Y-57042D01*
X80271Y-57042D01*
X80328Y-57057D01*
X80357Y-57085D01*
X80371Y-57114D01*
X80371Y-57171D01*
X80371Y-56757D02*
X80371Y-56928D01*
X80371Y-56842D02*
X80071Y-56842D01*
X80114Y-56871D01*
X80142Y-56900D01*
X80157Y-56928D01*
G54D17*
X82025Y-56428D02*
X82013Y-56416D01*
X82001Y-56392D01*
X82001Y-56333D01*
X82013Y-56309D01*
X82025Y-56297D01*
X82048Y-56285D01*
X82072Y-56285D01*
X82108Y-56297D01*
X82251Y-56440D01*
X82251Y-56285D01*
X82251Y-56178D02*
X82001Y-56178D01*
X82251Y-56035D01*
X82001Y-56035D01*
X82001Y-55940D02*
X82001Y-55785D01*
X82096Y-55869D01*
X82096Y-55833D01*
X82108Y-55809D01*
X82120Y-55797D01*
X82144Y-55785D01*
X82203Y-55785D01*
X82227Y-55797D01*
X82239Y-55809D01*
X82251Y-55833D01*
X82251Y-55904D01*
X82239Y-55928D01*
X82227Y-55940D01*
X82251Y-55666D02*
X82251Y-55619D01*
X82239Y-55595D01*
X82227Y-55583D01*
X82191Y-55559D01*
X82144Y-55547D01*
X82048Y-55547D01*
X82025Y-55559D01*
X82013Y-55571D01*
X82001Y-55595D01*
X82001Y-55642D01*
X82013Y-55666D01*
X82025Y-55678D01*
X82048Y-55690D01*
X82108Y-55690D01*
X82132Y-55678D01*
X82144Y-55666D01*
X82155Y-55642D01*
X82155Y-55595D01*
X82144Y-55571D01*
X82132Y-55559D01*
X82108Y-55547D01*
X82001Y-55392D02*
X82001Y-55369D01*
X82013Y-55345D01*
X82025Y-55333D01*
X82048Y-55321D01*
X82096Y-55309D01*
X82155Y-55309D01*
X82203Y-55321D01*
X82227Y-55333D01*
X82239Y-55345D01*
X82251Y-55369D01*
X82251Y-55392D01*
X82239Y-55416D01*
X82227Y-55428D01*
X82203Y-55440D01*
X82155Y-55452D01*
X82096Y-55452D01*
X82048Y-55440D01*
X82025Y-55428D01*
X82013Y-55416D01*
X82001Y-55392D01*
X82084Y-55095D02*
X82251Y-55095D01*
X81989Y-55154D02*
X82167Y-55214D01*
X82167Y-55059D01*
X81446Y-56320D02*
X81529Y-56320D01*
X81565Y-56451D02*
X81446Y-56451D01*
X81446Y-56201D01*
X81565Y-56201D01*
X81017Y-55670D02*
X81053Y-55682D01*
X81065Y-55694D01*
X81077Y-55717D01*
X81077Y-55753D01*
X81065Y-55777D01*
X81053Y-55789D01*
X81029Y-55801D01*
X80934Y-55801D01*
X80934Y-55551D01*
X81017Y-55551D01*
X81041Y-55563D01*
X81053Y-55575D01*
X81065Y-55598D01*
X81065Y-55622D01*
X81053Y-55646D01*
X81041Y-55658D01*
X81017Y-55670D01*
X80934Y-55670D01*
X80577Y-56427D02*
X80565Y-56439D01*
X80529Y-56451D01*
X80505Y-56451D01*
X80470Y-56439D01*
X80446Y-56415D01*
X80434Y-56391D01*
X80422Y-56344D01*
X80422Y-56308D01*
X80434Y-56260D01*
X80446Y-56236D01*
X80470Y-56213D01*
X80505Y-56201D01*
X80529Y-56201D01*
X80565Y-56213D01*
X80577Y-56225D01*
G54D11*
X83121Y-55250D02*
X82978Y-55350D01*
X83121Y-55421D02*
X82821Y-55421D01*
X82821Y-55307D01*
X82835Y-55278D01*
X82850Y-55264D01*
X82878Y-55250D01*
X82921Y-55250D01*
X82950Y-55264D01*
X82964Y-55278D01*
X82978Y-55307D01*
X82978Y-55421D01*
X82950Y-55078D02*
X82935Y-55107D01*
X82921Y-55121D01*
X82892Y-55135D01*
X82878Y-55135D01*
X82850Y-55121D01*
X82835Y-55107D01*
X82821Y-55078D01*
X82821Y-55021D01*
X82835Y-54992D01*
X82850Y-54978D01*
X82878Y-54964D01*
X82892Y-54964D01*
X82921Y-54978D01*
X82935Y-54992D01*
X82950Y-55021D01*
X82950Y-55078D01*
X82964Y-55107D01*
X82978Y-55121D01*
X83007Y-55135D01*
X83064Y-55135D01*
X83092Y-55121D01*
X83107Y-55107D01*
X83121Y-55078D01*
X83121Y-55021D01*
X83107Y-54992D01*
X83092Y-54978D01*
X83064Y-54964D01*
X83007Y-54964D01*
X82978Y-54978D01*
X82964Y-54992D01*
X82950Y-55021D01*
X83121Y-56835D02*
X83121Y-57007D01*
X83121Y-56921D02*
X82821Y-56921D01*
X82864Y-56949D01*
X82892Y-56978D01*
X82907Y-57007D01*
X83121Y-56707D02*
X82821Y-56707D01*
X83007Y-56678D02*
X83121Y-56592D01*
X82921Y-56592D02*
X83035Y-56707D01*
X87000Y-58121D02*
X86900Y-57978D01*
X86828Y-58121D02*
X86828Y-57821D01*
X86942Y-57821D01*
X86971Y-57835D01*
X86985Y-57850D01*
X87000Y-57878D01*
X87000Y-57921D01*
X86985Y-57950D01*
X86971Y-57964D01*
X86942Y-57978D01*
X86828Y-57978D01*
X87100Y-57821D02*
X87300Y-57821D01*
X87171Y-58121D01*
X85364Y-58121D02*
X85192Y-58121D01*
X85278Y-58121D02*
X85278Y-57821D01*
X85250Y-57864D01*
X85221Y-57892D01*
X85192Y-57907D01*
X85492Y-58121D02*
X85492Y-57821D01*
X85592Y-58035D01*
X85692Y-57821D01*
X85692Y-58121D01*
X95727Y-56649D02*
X95757Y-56477D01*
X95606Y-56527D02*
X95818Y-56315D01*
X95899Y-56396D01*
X95909Y-56426D01*
X95909Y-56447D01*
X95899Y-56477D01*
X95868Y-56507D01*
X95838Y-56517D01*
X95818Y-56517D01*
X95787Y-56507D01*
X95707Y-56426D01*
X96121Y-56618D02*
X96080Y-56578D01*
X96050Y-56568D01*
X96030Y-56568D01*
X95979Y-56578D01*
X95929Y-56608D01*
X95848Y-56689D01*
X95838Y-56719D01*
X95838Y-56739D01*
X95848Y-56770D01*
X95888Y-56810D01*
X95919Y-56820D01*
X95939Y-56820D01*
X95969Y-56810D01*
X96020Y-56760D01*
X96030Y-56729D01*
X96030Y-56709D01*
X96020Y-56679D01*
X95979Y-56638D01*
X95949Y-56628D01*
X95929Y-56628D01*
X95899Y-56638D01*
X96767Y-57689D02*
X96646Y-57568D01*
X96707Y-57628D02*
X96919Y-57416D01*
X96868Y-57426D01*
X96828Y-57426D01*
X96798Y-57416D01*
X97111Y-57608D02*
X97131Y-57628D01*
X97141Y-57659D01*
X97141Y-57679D01*
X97131Y-57709D01*
X97101Y-57760D01*
X97050Y-57810D01*
X97000Y-57841D01*
X96969Y-57851D01*
X96949Y-57851D01*
X96919Y-57841D01*
X96899Y-57820D01*
X96888Y-57790D01*
X96888Y-57770D01*
X96899Y-57740D01*
X96929Y-57689D01*
X96979Y-57638D01*
X97030Y-57608D01*
X97060Y-57598D01*
X97080Y-57598D01*
X97111Y-57608D01*
X97060Y-57982D02*
X97272Y-57770D01*
X97161Y-57921D02*
X97141Y-58063D01*
X97282Y-57921D02*
X97121Y-57921D01*
X105977Y-46399D02*
X106007Y-46227D01*
X105856Y-46277D02*
X106068Y-46065D01*
X106149Y-46146D01*
X106159Y-46176D01*
X106159Y-46197D01*
X106149Y-46227D01*
X106118Y-46257D01*
X106088Y-46267D01*
X106068Y-46267D01*
X106037Y-46257D01*
X105957Y-46176D01*
X106078Y-46500D02*
X106118Y-46540D01*
X106149Y-46550D01*
X106169Y-46550D01*
X106219Y-46540D01*
X106270Y-46510D01*
X106351Y-46429D01*
X106361Y-46399D01*
X106361Y-46378D01*
X106351Y-46348D01*
X106310Y-46308D01*
X106280Y-46298D01*
X106260Y-46298D01*
X106229Y-46308D01*
X106179Y-46358D01*
X106169Y-46388D01*
X106169Y-46409D01*
X106179Y-46439D01*
X106219Y-46479D01*
X106250Y-46489D01*
X106270Y-46489D01*
X106300Y-46479D01*
X107037Y-47176D02*
X106896Y-47318D01*
X107068Y-47045D02*
X106866Y-47146D01*
X106997Y-47277D01*
X107260Y-47257D02*
X107280Y-47277D01*
X107290Y-47308D01*
X107290Y-47328D01*
X107280Y-47358D01*
X107250Y-47409D01*
X107199Y-47459D01*
X107149Y-47490D01*
X107118Y-47500D01*
X107098Y-47500D01*
X107068Y-47490D01*
X107048Y-47469D01*
X107037Y-47439D01*
X107037Y-47419D01*
X107048Y-47388D01*
X107078Y-47338D01*
X107128Y-47287D01*
X107179Y-47257D01*
X107209Y-47247D01*
X107229Y-47247D01*
X107260Y-47257D01*
X107462Y-47459D02*
X107482Y-47479D01*
X107492Y-47510D01*
X107492Y-47530D01*
X107482Y-47560D01*
X107452Y-47611D01*
X107401Y-47661D01*
X107351Y-47692D01*
X107320Y-47702D01*
X107300Y-47702D01*
X107270Y-47692D01*
X107250Y-47671D01*
X107240Y-47641D01*
X107240Y-47621D01*
X107250Y-47591D01*
X107280Y-47540D01*
X107330Y-47490D01*
X107381Y-47459D01*
X107411Y-47449D01*
X107431Y-47449D01*
X107462Y-47459D01*
X107411Y-47833D02*
X107623Y-47621D01*
X107512Y-47772D02*
X107492Y-47914D01*
X107633Y-47772D02*
X107472Y-47772D01*
X88507Y-49621D02*
X88407Y-49478D01*
X88335Y-49621D02*
X88335Y-49321D01*
X88450Y-49321D01*
X88478Y-49335D01*
X88492Y-49350D01*
X88507Y-49378D01*
X88507Y-49421D01*
X88492Y-49450D01*
X88478Y-49464D01*
X88450Y-49478D01*
X88335Y-49478D01*
X88792Y-49621D02*
X88621Y-49621D01*
X88707Y-49621D02*
X88707Y-49321D01*
X88678Y-49364D01*
X88650Y-49392D01*
X88621Y-49407D01*
X88935Y-49621D02*
X88992Y-49621D01*
X89021Y-49607D01*
X89035Y-49592D01*
X89064Y-49550D01*
X89078Y-49492D01*
X89078Y-49378D01*
X89064Y-49350D01*
X89050Y-49335D01*
X89021Y-49321D01*
X88964Y-49321D01*
X88935Y-49335D01*
X88921Y-49350D01*
X88907Y-49378D01*
X88907Y-49450D01*
X88921Y-49478D01*
X88935Y-49492D01*
X88964Y-49507D01*
X89021Y-49507D01*
X89050Y-49492D01*
X89064Y-49478D01*
X89078Y-49450D01*
X90121Y-49621D02*
X89950Y-49621D01*
X90035Y-49621D02*
X90035Y-49321D01*
X90007Y-49364D01*
X89978Y-49392D01*
X89950Y-49407D01*
X90307Y-49321D02*
X90335Y-49321D01*
X90364Y-49335D01*
X90378Y-49350D01*
X90392Y-49378D01*
X90407Y-49435D01*
X90407Y-49507D01*
X90392Y-49564D01*
X90378Y-49592D01*
X90364Y-49607D01*
X90335Y-49621D01*
X90307Y-49621D01*
X90278Y-49607D01*
X90264Y-49592D01*
X90250Y-49564D01*
X90235Y-49507D01*
X90235Y-49435D01*
X90250Y-49378D01*
X90264Y-49350D01*
X90278Y-49335D01*
X90307Y-49321D01*
X90535Y-49621D02*
X90535Y-49321D01*
X90564Y-49507D02*
X90650Y-49621D01*
X90650Y-49421D02*
X90535Y-49535D01*
G54D17*
X81351Y-54184D02*
X81101Y-54184D01*
X81101Y-54125D01*
X81113Y-54089D01*
X81136Y-54065D01*
X81160Y-54053D01*
X81208Y-54041D01*
X81244Y-54041D01*
X81291Y-54053D01*
X81315Y-54065D01*
X81339Y-54089D01*
X81351Y-54125D01*
X81351Y-54184D01*
X81101Y-53958D02*
X81101Y-53803D01*
X81196Y-53886D01*
X81196Y-53851D01*
X81208Y-53827D01*
X81220Y-53815D01*
X81244Y-53803D01*
X81303Y-53803D01*
X81327Y-53815D01*
X81339Y-53827D01*
X81351Y-53851D01*
X81351Y-53922D01*
X81339Y-53946D01*
X81327Y-53958D01*
G54D11*
X80321Y-52678D02*
X80321Y-52478D01*
X80621Y-52678D01*
X80621Y-52478D01*
X80464Y-52364D02*
X80464Y-52264D01*
X80621Y-52221D02*
X80621Y-52364D01*
X80321Y-52364D01*
X80321Y-52221D01*
X80621Y-52092D02*
X80321Y-52092D01*
X80621Y-51921D01*
X80321Y-51921D01*
X80464Y-51778D02*
X80464Y-51678D01*
X80621Y-51635D02*
X80621Y-51778D01*
X80321Y-51778D01*
X80321Y-51635D01*
X80621Y-51335D02*
X80478Y-51435D01*
X80621Y-51507D02*
X80321Y-51507D01*
X80321Y-51392D01*
X80335Y-51364D01*
X80350Y-51350D01*
X80378Y-51335D01*
X80421Y-51335D01*
X80450Y-51350D01*
X80464Y-51364D01*
X80478Y-51392D01*
X80478Y-51507D01*
G54D17*
X107221Y-57982D02*
X107044Y-57805D01*
X107086Y-57763D01*
X107120Y-57746D01*
X107154Y-57746D01*
X107179Y-57755D01*
X107221Y-57780D01*
X107246Y-57805D01*
X107271Y-57847D01*
X107280Y-57872D01*
X107280Y-57906D01*
X107263Y-57940D01*
X107221Y-57982D01*
X107490Y-57712D02*
X107389Y-57814D01*
X107440Y-57763D02*
X107263Y-57586D01*
X107271Y-57628D01*
X107271Y-57662D01*
X107263Y-57687D01*
G54D11*
X106381Y-57790D02*
X106260Y-57911D01*
X106320Y-57851D02*
X106108Y-57638D01*
X106118Y-57689D01*
X106118Y-57729D01*
X106108Y-57760D01*
X106472Y-57699D02*
X106260Y-57487D01*
X106593Y-57578D01*
X106381Y-57366D01*
X106643Y-57244D02*
X106785Y-57386D01*
X106512Y-57214D02*
X106613Y-57416D01*
X106744Y-57285D01*
X106724Y-57022D02*
X106744Y-57002D01*
X106775Y-56992D01*
X106795Y-56992D01*
X106825Y-57002D01*
X106876Y-57032D01*
X106926Y-57083D01*
X106957Y-57133D01*
X106967Y-57164D01*
X106967Y-57184D01*
X106957Y-57214D01*
X106936Y-57234D01*
X106906Y-57244D01*
X106886Y-57244D01*
X106856Y-57234D01*
X106805Y-57204D01*
X106755Y-57154D01*
X106724Y-57103D01*
X106714Y-57073D01*
X106714Y-57053D01*
X106724Y-57022D01*
X106926Y-56820D02*
X106946Y-56800D01*
X106977Y-56790D01*
X106997Y-56790D01*
X107027Y-56800D01*
X107078Y-56830D01*
X107128Y-56881D01*
X107159Y-56931D01*
X107169Y-56962D01*
X107169Y-56982D01*
X107159Y-57012D01*
X107138Y-57032D01*
X107108Y-57042D01*
X107088Y-57042D01*
X107058Y-57032D01*
X107007Y-57002D01*
X106957Y-56952D01*
X106926Y-56901D01*
X106916Y-56871D01*
X106916Y-56850D01*
X106926Y-56820D01*
X107411Y-56760D02*
X107290Y-56881D01*
X107351Y-56820D02*
X107138Y-56608D01*
X107149Y-56659D01*
X107149Y-56699D01*
X107138Y-56729D01*
G54D17*
X95660Y-46421D02*
X95483Y-46244D01*
X95526Y-46202D01*
X95559Y-46185D01*
X95593Y-46185D01*
X95618Y-46194D01*
X95660Y-46219D01*
X95685Y-46244D01*
X95711Y-46287D01*
X95719Y-46312D01*
X95719Y-46345D01*
X95702Y-46379D01*
X95660Y-46421D01*
X95669Y-46093D02*
X95669Y-46076D01*
X95677Y-46051D01*
X95719Y-46009D01*
X95744Y-46000D01*
X95761Y-46000D01*
X95787Y-46009D01*
X95803Y-46026D01*
X95820Y-46059D01*
X95820Y-46261D01*
X95930Y-46152D01*
G54D11*
X95881Y-47290D02*
X95760Y-47411D01*
X95820Y-47351D02*
X95608Y-47138D01*
X95618Y-47189D01*
X95618Y-47229D01*
X95608Y-47260D01*
X95972Y-47199D02*
X95760Y-46987D01*
X96093Y-47078D01*
X95881Y-46866D01*
X96143Y-46744D02*
X96285Y-46886D01*
X96012Y-46714D02*
X96113Y-46916D01*
X96244Y-46785D01*
X96507Y-46664D02*
X96386Y-46785D01*
X96446Y-46724D02*
X96234Y-46512D01*
X96244Y-46563D01*
X96244Y-46603D01*
X96234Y-46633D01*
X96547Y-46340D02*
X96689Y-46482D01*
X96416Y-46310D02*
X96517Y-46512D01*
X96649Y-46381D01*
X96709Y-46219D02*
X96679Y-46229D01*
X96659Y-46229D01*
X96628Y-46219D01*
X96618Y-46209D01*
X96608Y-46179D01*
X96608Y-46159D01*
X96618Y-46128D01*
X96659Y-46088D01*
X96689Y-46078D01*
X96709Y-46078D01*
X96739Y-46088D01*
X96750Y-46098D01*
X96760Y-46128D01*
X96760Y-46148D01*
X96750Y-46179D01*
X96709Y-46219D01*
X96699Y-46249D01*
X96699Y-46270D01*
X96709Y-46300D01*
X96750Y-46340D01*
X96780Y-46350D01*
X96800Y-46350D01*
X96830Y-46340D01*
X96871Y-46300D01*
X96881Y-46270D01*
X96881Y-46249D01*
X96871Y-46219D01*
X96830Y-46179D01*
X96800Y-46169D01*
X96780Y-46169D01*
X96750Y-46179D01*
G54D17*
X86565Y-44601D02*
X86565Y-44351D01*
X86625Y-44351D01*
X86660Y-44363D01*
X86684Y-44386D01*
X86696Y-44410D01*
X86708Y-44458D01*
X86708Y-44494D01*
X86696Y-44541D01*
X86684Y-44565D01*
X86660Y-44589D01*
X86625Y-44601D01*
X86565Y-44601D01*
X86922Y-44434D02*
X86922Y-44601D01*
X86863Y-44339D02*
X86803Y-44517D01*
X86958Y-44517D01*
G54D11*
X88857Y-44621D02*
X88685Y-44621D01*
X88771Y-44621D02*
X88771Y-44321D01*
X88742Y-44364D01*
X88714Y-44392D01*
X88685Y-44407D01*
X88985Y-44621D02*
X88985Y-44321D01*
X89157Y-44621D01*
X89157Y-44321D01*
X89442Y-44321D02*
X89300Y-44321D01*
X89285Y-44464D01*
X89300Y-44450D01*
X89328Y-44435D01*
X89400Y-44435D01*
X89428Y-44450D01*
X89442Y-44464D01*
X89457Y-44492D01*
X89457Y-44564D01*
X89442Y-44592D01*
X89428Y-44607D01*
X89400Y-44621D01*
X89328Y-44621D01*
X89300Y-44607D01*
X89285Y-44592D01*
X89628Y-44450D02*
X89600Y-44435D01*
X89585Y-44421D01*
X89571Y-44392D01*
X89571Y-44378D01*
X89585Y-44350D01*
X89600Y-44335D01*
X89628Y-44321D01*
X89685Y-44321D01*
X89714Y-44335D01*
X89728Y-44350D01*
X89742Y-44378D01*
X89742Y-44392D01*
X89728Y-44421D01*
X89714Y-44435D01*
X89685Y-44450D01*
X89628Y-44450D01*
X89600Y-44464D01*
X89585Y-44478D01*
X89571Y-44507D01*
X89571Y-44564D01*
X89585Y-44592D01*
X89600Y-44607D01*
X89628Y-44621D01*
X89685Y-44621D01*
X89714Y-44607D01*
X89728Y-44592D01*
X89742Y-44564D01*
X89742Y-44507D01*
X89728Y-44478D01*
X89714Y-44464D01*
X89685Y-44450D01*
X90028Y-44621D02*
X89857Y-44621D01*
X89942Y-44621D02*
X89942Y-44321D01*
X89914Y-44364D01*
X89885Y-44392D01*
X89857Y-44407D01*
X90128Y-44321D02*
X90328Y-44321D01*
X90200Y-44621D01*
X86592Y-55942D02*
X86607Y-55957D01*
X86621Y-56000D01*
X86621Y-56028D01*
X86607Y-56071D01*
X86578Y-56100D01*
X86550Y-56114D01*
X86492Y-56128D01*
X86450Y-56128D01*
X86392Y-56114D01*
X86364Y-56100D01*
X86335Y-56071D01*
X86321Y-56028D01*
X86321Y-56000D01*
X86335Y-55957D01*
X86350Y-55942D01*
X86621Y-55657D02*
X86621Y-55828D01*
X86621Y-55742D02*
X86321Y-55742D01*
X86364Y-55771D01*
X86392Y-55800D01*
X86407Y-55828D01*
X86421Y-55400D02*
X86621Y-55400D01*
X86307Y-55471D02*
X86521Y-55542D01*
X86521Y-55357D01*
X87321Y-56242D02*
X87321Y-56214D01*
X87335Y-56185D01*
X87350Y-56171D01*
X87378Y-56157D01*
X87435Y-56142D01*
X87507Y-56142D01*
X87564Y-56157D01*
X87592Y-56171D01*
X87607Y-56185D01*
X87621Y-56214D01*
X87621Y-56242D01*
X87607Y-56271D01*
X87592Y-56285D01*
X87564Y-56299D01*
X87507Y-56314D01*
X87435Y-56314D01*
X87378Y-56299D01*
X87350Y-56285D01*
X87335Y-56271D01*
X87321Y-56242D01*
X87592Y-56014D02*
X87607Y-56000D01*
X87621Y-56014D01*
X87607Y-56028D01*
X87592Y-56014D01*
X87621Y-56014D01*
X87621Y-55714D02*
X87621Y-55885D01*
X87621Y-55800D02*
X87321Y-55800D01*
X87364Y-55828D01*
X87392Y-55857D01*
X87407Y-55885D01*
X87421Y-55457D02*
X87621Y-55457D01*
X87421Y-55585D02*
X87578Y-55585D01*
X87607Y-55571D01*
X87621Y-55542D01*
X87621Y-55500D01*
X87607Y-55471D01*
X87592Y-55457D01*
X87464Y-55214D02*
X87464Y-55314D01*
X87621Y-55314D02*
X87321Y-55314D01*
X87321Y-55171D01*
X91092Y-55800D02*
X91107Y-55814D01*
X91121Y-55857D01*
X91121Y-55885D01*
X91107Y-55928D01*
X91078Y-55957D01*
X91050Y-55971D01*
X90992Y-55985D01*
X90950Y-55985D01*
X90892Y-55971D01*
X90864Y-55957D01*
X90835Y-55928D01*
X90821Y-55885D01*
X90821Y-55857D01*
X90835Y-55814D01*
X90850Y-55800D01*
X91121Y-55514D02*
X91121Y-55685D01*
X91121Y-55600D02*
X90821Y-55600D01*
X90864Y-55628D01*
X90892Y-55657D01*
X90907Y-55685D01*
X91821Y-56242D02*
X91821Y-56214D01*
X91835Y-56185D01*
X91850Y-56171D01*
X91878Y-56157D01*
X91935Y-56142D01*
X92007Y-56142D01*
X92064Y-56157D01*
X92092Y-56171D01*
X92107Y-56185D01*
X92121Y-56214D01*
X92121Y-56242D01*
X92107Y-56271D01*
X92092Y-56285D01*
X92064Y-56299D01*
X92007Y-56314D01*
X91935Y-56314D01*
X91878Y-56299D01*
X91850Y-56285D01*
X91835Y-56271D01*
X91821Y-56242D01*
X92092Y-56014D02*
X92107Y-56000D01*
X92121Y-56014D01*
X92107Y-56028D01*
X92092Y-56014D01*
X92121Y-56014D01*
X92121Y-55714D02*
X92121Y-55885D01*
X92121Y-55800D02*
X91821Y-55800D01*
X91864Y-55828D01*
X91892Y-55857D01*
X91907Y-55885D01*
X91921Y-55457D02*
X92121Y-55457D01*
X91921Y-55585D02*
X92078Y-55585D01*
X92107Y-55571D01*
X92121Y-55542D01*
X92121Y-55500D01*
X92107Y-55471D01*
X92092Y-55457D01*
X91964Y-55214D02*
X91964Y-55314D01*
X92121Y-55314D02*
X91821Y-55314D01*
X91821Y-55171D01*
X82092Y-52050D02*
X82107Y-52064D01*
X82121Y-52107D01*
X82121Y-52135D01*
X82107Y-52178D01*
X82078Y-52207D01*
X82050Y-52221D01*
X81992Y-52235D01*
X81950Y-52235D01*
X81892Y-52221D01*
X81864Y-52207D01*
X81835Y-52178D01*
X81821Y-52135D01*
X81821Y-52107D01*
X81835Y-52064D01*
X81850Y-52050D01*
X81921Y-51792D02*
X82121Y-51792D01*
X81807Y-51864D02*
X82021Y-51935D01*
X82021Y-51750D01*
X82821Y-52492D02*
X82821Y-52464D01*
X82835Y-52435D01*
X82850Y-52421D01*
X82878Y-52407D01*
X82935Y-52392D01*
X83007Y-52392D01*
X83064Y-52407D01*
X83092Y-52421D01*
X83107Y-52435D01*
X83121Y-52464D01*
X83121Y-52492D01*
X83107Y-52521D01*
X83092Y-52535D01*
X83064Y-52549D01*
X83007Y-52564D01*
X82935Y-52564D01*
X82878Y-52549D01*
X82850Y-52535D01*
X82835Y-52521D01*
X82821Y-52492D01*
X83092Y-52264D02*
X83107Y-52250D01*
X83121Y-52264D01*
X83107Y-52278D01*
X83092Y-52264D01*
X83121Y-52264D01*
X83121Y-51964D02*
X83121Y-52135D01*
X83121Y-52050D02*
X82821Y-52050D01*
X82864Y-52078D01*
X82892Y-52107D01*
X82907Y-52135D01*
X82921Y-51707D02*
X83121Y-51707D01*
X82921Y-51835D02*
X83078Y-51835D01*
X83107Y-51821D01*
X83121Y-51792D01*
X83121Y-51750D01*
X83107Y-51721D01*
X83092Y-51707D01*
X82964Y-51464D02*
X82964Y-51564D01*
X83121Y-51564D02*
X82821Y-51564D01*
X82821Y-51421D01*
X110842Y-52050D02*
X110857Y-52064D01*
X110871Y-52107D01*
X110871Y-52135D01*
X110857Y-52178D01*
X110828Y-52207D01*
X110800Y-52221D01*
X110742Y-52235D01*
X110700Y-52235D01*
X110642Y-52221D01*
X110614Y-52207D01*
X110585Y-52178D01*
X110571Y-52135D01*
X110571Y-52107D01*
X110585Y-52064D01*
X110600Y-52050D01*
X110871Y-51907D02*
X110871Y-51850D01*
X110857Y-51821D01*
X110842Y-51807D01*
X110800Y-51778D01*
X110742Y-51764D01*
X110628Y-51764D01*
X110600Y-51778D01*
X110585Y-51792D01*
X110571Y-51821D01*
X110571Y-51878D01*
X110585Y-51907D01*
X110600Y-51921D01*
X110628Y-51935D01*
X110700Y-51935D01*
X110728Y-51921D01*
X110742Y-51907D01*
X110757Y-51878D01*
X110757Y-51821D01*
X110742Y-51792D01*
X110728Y-51778D01*
X110700Y-51764D01*
X111571Y-52492D02*
X111571Y-52464D01*
X111585Y-52435D01*
X111600Y-52421D01*
X111628Y-52407D01*
X111685Y-52392D01*
X111757Y-52392D01*
X111814Y-52407D01*
X111842Y-52421D01*
X111857Y-52435D01*
X111871Y-52464D01*
X111871Y-52492D01*
X111857Y-52521D01*
X111842Y-52535D01*
X111814Y-52549D01*
X111757Y-52564D01*
X111685Y-52564D01*
X111628Y-52549D01*
X111600Y-52535D01*
X111585Y-52521D01*
X111571Y-52492D01*
X111842Y-52264D02*
X111857Y-52250D01*
X111871Y-52264D01*
X111857Y-52278D01*
X111842Y-52264D01*
X111871Y-52264D01*
X111871Y-51964D02*
X111871Y-52135D01*
X111871Y-52050D02*
X111571Y-52050D01*
X111614Y-52078D01*
X111642Y-52107D01*
X111657Y-52135D01*
X111671Y-51707D02*
X111871Y-51707D01*
X111671Y-51835D02*
X111828Y-51835D01*
X111857Y-51821D01*
X111871Y-51792D01*
X111871Y-51750D01*
X111857Y-51721D01*
X111842Y-51707D01*
X111714Y-51464D02*
X111714Y-51564D01*
X111871Y-51564D02*
X111571Y-51564D01*
X111571Y-51421D01*
X84342Y-55942D02*
X84357Y-55957D01*
X84371Y-56000D01*
X84371Y-56028D01*
X84357Y-56071D01*
X84328Y-56100D01*
X84300Y-56114D01*
X84242Y-56128D01*
X84200Y-56128D01*
X84142Y-56114D01*
X84114Y-56100D01*
X84085Y-56071D01*
X84071Y-56028D01*
X84071Y-56000D01*
X84085Y-55957D01*
X84100Y-55942D01*
X84371Y-55657D02*
X84371Y-55828D01*
X84371Y-55742D02*
X84071Y-55742D01*
X84114Y-55771D01*
X84142Y-55800D01*
X84157Y-55828D01*
X84071Y-55557D02*
X84071Y-55371D01*
X84185Y-55471D01*
X84185Y-55428D01*
X84200Y-55400D01*
X84214Y-55385D01*
X84242Y-55371D01*
X84314Y-55371D01*
X84342Y-55385D01*
X84357Y-55400D01*
X84371Y-55428D01*
X84371Y-55514D01*
X84357Y-55542D01*
X84342Y-55557D01*
X85371Y-56071D02*
X85371Y-56242D01*
X85371Y-56157D02*
X85071Y-56157D01*
X85114Y-56185D01*
X85142Y-56214D01*
X85157Y-56242D01*
X85071Y-55885D02*
X85071Y-55857D01*
X85085Y-55828D01*
X85100Y-55814D01*
X85128Y-55800D01*
X85185Y-55785D01*
X85257Y-55785D01*
X85314Y-55800D01*
X85342Y-55814D01*
X85357Y-55828D01*
X85371Y-55857D01*
X85371Y-55885D01*
X85357Y-55914D01*
X85342Y-55928D01*
X85314Y-55942D01*
X85257Y-55957D01*
X85185Y-55957D01*
X85128Y-55942D01*
X85100Y-55928D01*
X85085Y-55914D01*
X85071Y-55885D01*
X85171Y-55657D02*
X85371Y-55657D01*
X85200Y-55657D02*
X85185Y-55642D01*
X85171Y-55614D01*
X85171Y-55571D01*
X85185Y-55542D01*
X85214Y-55528D01*
X85371Y-55528D01*
X85214Y-55285D02*
X85214Y-55385D01*
X85371Y-55385D02*
X85071Y-55385D01*
X85071Y-55242D01*
X85450Y-48342D02*
X85435Y-48357D01*
X85392Y-48371D01*
X85364Y-48371D01*
X85321Y-48357D01*
X85292Y-48328D01*
X85278Y-48300D01*
X85264Y-48242D01*
X85264Y-48200D01*
X85278Y-48142D01*
X85292Y-48114D01*
X85321Y-48085D01*
X85364Y-48071D01*
X85392Y-48071D01*
X85435Y-48085D01*
X85450Y-48100D01*
X85621Y-48200D02*
X85592Y-48185D01*
X85578Y-48171D01*
X85564Y-48142D01*
X85564Y-48128D01*
X85578Y-48100D01*
X85592Y-48085D01*
X85621Y-48071D01*
X85678Y-48071D01*
X85707Y-48085D01*
X85721Y-48100D01*
X85735Y-48128D01*
X85735Y-48142D01*
X85721Y-48171D01*
X85707Y-48185D01*
X85678Y-48200D01*
X85621Y-48200D01*
X85592Y-48214D01*
X85578Y-48228D01*
X85564Y-48257D01*
X85564Y-48314D01*
X85578Y-48342D01*
X85592Y-48357D01*
X85621Y-48371D01*
X85678Y-48371D01*
X85707Y-48357D01*
X85721Y-48342D01*
X85735Y-48314D01*
X85735Y-48257D01*
X85721Y-48228D01*
X85707Y-48214D01*
X85678Y-48200D01*
X85007Y-49071D02*
X85035Y-49071D01*
X85064Y-49085D01*
X85078Y-49100D01*
X85092Y-49128D01*
X85107Y-49185D01*
X85107Y-49257D01*
X85092Y-49314D01*
X85078Y-49342D01*
X85064Y-49357D01*
X85035Y-49371D01*
X85007Y-49371D01*
X84978Y-49357D01*
X84964Y-49342D01*
X84950Y-49314D01*
X84935Y-49257D01*
X84935Y-49185D01*
X84950Y-49128D01*
X84964Y-49100D01*
X84978Y-49085D01*
X85007Y-49071D01*
X85235Y-49342D02*
X85250Y-49357D01*
X85235Y-49371D01*
X85221Y-49357D01*
X85235Y-49342D01*
X85235Y-49371D01*
X85535Y-49371D02*
X85364Y-49371D01*
X85450Y-49371D02*
X85450Y-49071D01*
X85421Y-49114D01*
X85392Y-49142D01*
X85364Y-49157D01*
X85792Y-49171D02*
X85792Y-49371D01*
X85664Y-49171D02*
X85664Y-49328D01*
X85678Y-49357D01*
X85707Y-49371D01*
X85750Y-49371D01*
X85778Y-49357D01*
X85792Y-49342D01*
X86035Y-49214D02*
X85935Y-49214D01*
X85935Y-49371D02*
X85935Y-49071D01*
X86078Y-49071D01*
X95447Y-57779D02*
X95427Y-57779D01*
X95387Y-57759D01*
X95367Y-57738D01*
X95346Y-57698D01*
X95346Y-57658D01*
X95357Y-57627D01*
X95387Y-57577D01*
X95417Y-57546D01*
X95468Y-57516D01*
X95498Y-57506D01*
X95538Y-57506D01*
X95579Y-57526D01*
X95599Y-57546D01*
X95619Y-57587D01*
X95619Y-57607D01*
X95629Y-58001D02*
X95508Y-57880D01*
X95569Y-57940D02*
X95781Y-57728D01*
X95730Y-57738D01*
X95690Y-57738D01*
X95660Y-57728D01*
X95831Y-58203D02*
X95710Y-58082D01*
X95771Y-58142D02*
X95983Y-57930D01*
X95932Y-57940D01*
X95892Y-57940D01*
X95862Y-57930D01*
X94627Y-58175D02*
X94647Y-58195D01*
X94658Y-58225D01*
X94658Y-58245D01*
X94647Y-58276D01*
X94617Y-58326D01*
X94567Y-58377D01*
X94516Y-58407D01*
X94486Y-58417D01*
X94466Y-58417D01*
X94435Y-58407D01*
X94415Y-58387D01*
X94405Y-58357D01*
X94405Y-58336D01*
X94415Y-58306D01*
X94445Y-58256D01*
X94496Y-58205D01*
X94546Y-58175D01*
X94577Y-58165D01*
X94597Y-58165D01*
X94627Y-58175D01*
X94597Y-58528D02*
X94597Y-58548D01*
X94577Y-58548D01*
X94577Y-58528D01*
X94597Y-58528D01*
X94577Y-58548D01*
X94789Y-58761D02*
X94668Y-58639D01*
X94728Y-58700D02*
X94940Y-58488D01*
X94890Y-58498D01*
X94850Y-58498D01*
X94819Y-58488D01*
X95112Y-58801D02*
X94971Y-58942D01*
X95021Y-58710D02*
X94910Y-58821D01*
X94900Y-58852D01*
X94910Y-58882D01*
X94940Y-58912D01*
X94971Y-58922D01*
X94991Y-58922D01*
X95254Y-59003D02*
X95183Y-58932D01*
X95072Y-59043D02*
X95284Y-58831D01*
X95385Y-58932D01*
X89092Y-52050D02*
X89107Y-52064D01*
X89121Y-52107D01*
X89121Y-52135D01*
X89107Y-52178D01*
X89078Y-52207D01*
X89050Y-52221D01*
X88992Y-52235D01*
X88950Y-52235D01*
X88892Y-52221D01*
X88864Y-52207D01*
X88835Y-52178D01*
X88821Y-52135D01*
X88821Y-52107D01*
X88835Y-52064D01*
X88850Y-52050D01*
X88821Y-51950D02*
X88821Y-51764D01*
X88935Y-51864D01*
X88935Y-51821D01*
X88950Y-51792D01*
X88964Y-51778D01*
X88992Y-51764D01*
X89064Y-51764D01*
X89092Y-51778D01*
X89107Y-51792D01*
X89121Y-51821D01*
X89121Y-51907D01*
X89107Y-51935D01*
X89092Y-51950D01*
X89850Y-52492D02*
X89835Y-52478D01*
X89821Y-52450D01*
X89821Y-52378D01*
X89835Y-52350D01*
X89850Y-52335D01*
X89878Y-52321D01*
X89907Y-52321D01*
X89950Y-52335D01*
X90121Y-52507D01*
X90121Y-52321D01*
X89850Y-52207D02*
X89835Y-52192D01*
X89821Y-52164D01*
X89821Y-52092D01*
X89835Y-52064D01*
X89850Y-52050D01*
X89878Y-52035D01*
X89907Y-52035D01*
X89950Y-52050D01*
X90121Y-52221D01*
X90121Y-52035D01*
X89921Y-51907D02*
X90121Y-51907D01*
X89950Y-51907D02*
X89935Y-51892D01*
X89921Y-51864D01*
X89921Y-51821D01*
X89935Y-51792D01*
X89964Y-51778D01*
X90121Y-51778D01*
X89964Y-51535D02*
X89964Y-51635D01*
X90121Y-51635D02*
X89821Y-51635D01*
X89821Y-51492D01*
X91342Y-52192D02*
X91357Y-52207D01*
X91371Y-52250D01*
X91371Y-52278D01*
X91357Y-52321D01*
X91328Y-52350D01*
X91300Y-52364D01*
X91242Y-52378D01*
X91200Y-52378D01*
X91142Y-52364D01*
X91114Y-52350D01*
X91085Y-52321D01*
X91071Y-52278D01*
X91071Y-52250D01*
X91085Y-52207D01*
X91100Y-52192D01*
X91371Y-51907D02*
X91371Y-52078D01*
X91371Y-51992D02*
X91071Y-51992D01*
X91114Y-52021D01*
X91142Y-52050D01*
X91157Y-52078D01*
X91100Y-51792D02*
X91085Y-51778D01*
X91071Y-51750D01*
X91071Y-51678D01*
X91085Y-51650D01*
X91100Y-51635D01*
X91128Y-51621D01*
X91157Y-51621D01*
X91200Y-51635D01*
X91371Y-51807D01*
X91371Y-51621D01*
X92071Y-52492D02*
X92071Y-52464D01*
X92085Y-52435D01*
X92100Y-52421D01*
X92128Y-52407D01*
X92185Y-52392D01*
X92257Y-52392D01*
X92314Y-52407D01*
X92342Y-52421D01*
X92357Y-52435D01*
X92371Y-52464D01*
X92371Y-52492D01*
X92357Y-52521D01*
X92342Y-52535D01*
X92314Y-52549D01*
X92257Y-52564D01*
X92185Y-52564D01*
X92128Y-52549D01*
X92100Y-52535D01*
X92085Y-52521D01*
X92071Y-52492D01*
X92342Y-52264D02*
X92357Y-52250D01*
X92371Y-52264D01*
X92357Y-52278D01*
X92342Y-52264D01*
X92371Y-52264D01*
X92371Y-51964D02*
X92371Y-52135D01*
X92371Y-52050D02*
X92071Y-52050D01*
X92114Y-52078D01*
X92142Y-52107D01*
X92157Y-52135D01*
X92171Y-51707D02*
X92371Y-51707D01*
X92171Y-51835D02*
X92328Y-51835D01*
X92357Y-51821D01*
X92371Y-51792D01*
X92371Y-51750D01*
X92357Y-51721D01*
X92342Y-51707D01*
X92214Y-51464D02*
X92214Y-51564D01*
X92371Y-51564D02*
X92071Y-51564D01*
X92071Y-51421D01*
X88842Y-55800D02*
X88857Y-55814D01*
X88871Y-55857D01*
X88871Y-55885D01*
X88857Y-55928D01*
X88828Y-55957D01*
X88800Y-55971D01*
X88742Y-55985D01*
X88700Y-55985D01*
X88642Y-55971D01*
X88614Y-55957D01*
X88585Y-55928D01*
X88571Y-55885D01*
X88571Y-55857D01*
X88585Y-55814D01*
X88600Y-55800D01*
X88600Y-55685D02*
X88585Y-55671D01*
X88571Y-55642D01*
X88571Y-55571D01*
X88585Y-55542D01*
X88600Y-55528D01*
X88628Y-55514D01*
X88657Y-55514D01*
X88700Y-55528D01*
X88871Y-55700D01*
X88871Y-55514D01*
X89571Y-56242D02*
X89571Y-56214D01*
X89585Y-56185D01*
X89600Y-56171D01*
X89628Y-56157D01*
X89685Y-56142D01*
X89757Y-56142D01*
X89814Y-56157D01*
X89842Y-56171D01*
X89857Y-56185D01*
X89871Y-56214D01*
X89871Y-56242D01*
X89857Y-56271D01*
X89842Y-56285D01*
X89814Y-56299D01*
X89757Y-56314D01*
X89685Y-56314D01*
X89628Y-56299D01*
X89600Y-56285D01*
X89585Y-56271D01*
X89571Y-56242D01*
X89842Y-56014D02*
X89857Y-56000D01*
X89871Y-56014D01*
X89857Y-56028D01*
X89842Y-56014D01*
X89871Y-56014D01*
X89871Y-55714D02*
X89871Y-55885D01*
X89871Y-55800D02*
X89571Y-55800D01*
X89614Y-55828D01*
X89642Y-55857D01*
X89657Y-55885D01*
X89671Y-55457D02*
X89871Y-55457D01*
X89671Y-55585D02*
X89828Y-55585D01*
X89857Y-55571D01*
X89871Y-55542D01*
X89871Y-55500D01*
X89857Y-55471D01*
X89842Y-55457D01*
X89714Y-55214D02*
X89714Y-55314D01*
X89871Y-55314D02*
X89571Y-55314D01*
X89571Y-55171D01*
X101271Y-51821D02*
X101271Y-52064D01*
X101285Y-52092D01*
X101300Y-52107D01*
X101328Y-52121D01*
X101385Y-52121D01*
X101414Y-52107D01*
X101428Y-52092D01*
X101442Y-52064D01*
X101442Y-51821D01*
X101742Y-52121D02*
X101571Y-52121D01*
X101657Y-52121D02*
X101657Y-51821D01*
X101628Y-51864D01*
X101600Y-51892D01*
X101571Y-51907D01*
X100635Y-49871D02*
X100492Y-49871D01*
X100492Y-49571D01*
X100692Y-49571D02*
X100864Y-49571D01*
X100778Y-49871D02*
X100778Y-49571D01*
X100935Y-49571D02*
X101135Y-49571D01*
X100935Y-49871D01*
X101135Y-49871D01*
X101407Y-49871D02*
X101235Y-49871D01*
X101321Y-49871D02*
X101321Y-49571D01*
X101292Y-49614D01*
X101264Y-49642D01*
X101235Y-49657D01*
X101592Y-49571D02*
X101621Y-49571D01*
X101650Y-49585D01*
X101664Y-49600D01*
X101678Y-49628D01*
X101692Y-49685D01*
X101692Y-49757D01*
X101678Y-49814D01*
X101664Y-49842D01*
X101650Y-49857D01*
X101621Y-49871D01*
X101592Y-49871D01*
X101564Y-49857D01*
X101550Y-49842D01*
X101535Y-49814D01*
X101521Y-49757D01*
X101521Y-49685D01*
X101535Y-49628D01*
X101550Y-49600D01*
X101564Y-49585D01*
X101592Y-49571D01*
X101878Y-49571D02*
X101907Y-49571D01*
X101935Y-49585D01*
X101950Y-49600D01*
X101964Y-49628D01*
X101978Y-49685D01*
X101978Y-49757D01*
X101964Y-49814D01*
X101950Y-49842D01*
X101935Y-49857D01*
X101907Y-49871D01*
X101878Y-49871D01*
X101850Y-49857D01*
X101835Y-49842D01*
X101821Y-49814D01*
X101807Y-49757D01*
X101807Y-49685D01*
X101821Y-49628D01*
X101835Y-49600D01*
X101850Y-49585D01*
X101878Y-49571D01*
X102164Y-49571D02*
X102192Y-49571D01*
X102221Y-49585D01*
X102235Y-49600D01*
X102250Y-49628D01*
X102264Y-49685D01*
X102264Y-49757D01*
X102250Y-49814D01*
X102235Y-49842D01*
X102221Y-49857D01*
X102192Y-49871D01*
X102164Y-49871D01*
X102135Y-49857D01*
X102121Y-49842D01*
X102107Y-49814D01*
X102092Y-49757D01*
X102092Y-49685D01*
X102107Y-49628D01*
X102121Y-49600D01*
X102135Y-49585D01*
X102164Y-49571D01*
X102378Y-49785D02*
X102521Y-49785D01*
X102349Y-49871D02*
X102449Y-49571D01*
X102549Y-49871D01*
X84571Y-52228D02*
X84814Y-52228D01*
X84842Y-52214D01*
X84857Y-52200D01*
X84871Y-52171D01*
X84871Y-52114D01*
X84857Y-52085D01*
X84842Y-52071D01*
X84814Y-52057D01*
X84571Y-52057D01*
X84600Y-51928D02*
X84585Y-51914D01*
X84571Y-51885D01*
X84571Y-51814D01*
X84585Y-51785D01*
X84600Y-51771D01*
X84628Y-51757D01*
X84657Y-51757D01*
X84700Y-51771D01*
X84871Y-51942D01*
X84871Y-51757D01*
X85907Y-52121D02*
X85764Y-52121D01*
X85764Y-51821D01*
X85964Y-51821D02*
X86135Y-51821D01*
X86050Y-52121D02*
X86050Y-51821D01*
X86392Y-52121D02*
X86221Y-52121D01*
X86307Y-52121D02*
X86307Y-51821D01*
X86278Y-51864D01*
X86250Y-51892D01*
X86221Y-51907D01*
X86578Y-51821D02*
X86607Y-51821D01*
X86635Y-51835D01*
X86650Y-51850D01*
X86664Y-51878D01*
X86678Y-51935D01*
X86678Y-52007D01*
X86664Y-52064D01*
X86650Y-52092D01*
X86635Y-52107D01*
X86607Y-52121D01*
X86578Y-52121D01*
X86550Y-52107D01*
X86535Y-52092D01*
X86521Y-52064D01*
X86507Y-52007D01*
X86507Y-51935D01*
X86521Y-51878D01*
X86535Y-51850D01*
X86550Y-51835D01*
X86578Y-51821D01*
X86964Y-52121D02*
X86792Y-52121D01*
X86878Y-52121D02*
X86878Y-51821D01*
X86850Y-51864D01*
X86821Y-51892D01*
X86792Y-51907D01*
X87064Y-51821D02*
X87249Y-51821D01*
X87149Y-51935D01*
X87192Y-51935D01*
X87221Y-51950D01*
X87235Y-51964D01*
X87249Y-51992D01*
X87249Y-52064D01*
X87235Y-52092D01*
X87221Y-52107D01*
X87192Y-52121D01*
X87107Y-52121D01*
X87078Y-52107D01*
X87064Y-52092D01*
X89250Y-45664D02*
X89150Y-45664D01*
X89150Y-45821D02*
X89150Y-45521D01*
X89292Y-45521D01*
X89507Y-45664D02*
X89550Y-45678D01*
X89564Y-45692D01*
X89578Y-45721D01*
X89578Y-45764D01*
X89564Y-45792D01*
X89550Y-45807D01*
X89521Y-45821D01*
X89407Y-45821D01*
X89407Y-45521D01*
X89507Y-45521D01*
X89535Y-45535D01*
X89550Y-45550D01*
X89564Y-45578D01*
X89564Y-45607D01*
X89550Y-45635D01*
X89535Y-45650D01*
X89507Y-45664D01*
X89407Y-45664D01*
X89864Y-45821D02*
X89692Y-45821D01*
X89778Y-45821D02*
X89778Y-45521D01*
X89750Y-45564D01*
X89721Y-45592D01*
X89692Y-45607D01*
X88107Y-46364D02*
X88007Y-46364D01*
X88007Y-46521D02*
X88007Y-46221D01*
X88150Y-46221D01*
X88264Y-46364D02*
X88364Y-46364D01*
X88407Y-46521D02*
X88264Y-46521D01*
X88264Y-46221D01*
X88407Y-46221D01*
X88707Y-46521D02*
X88607Y-46378D01*
X88535Y-46521D02*
X88535Y-46221D01*
X88650Y-46221D01*
X88678Y-46235D01*
X88692Y-46250D01*
X88707Y-46278D01*
X88707Y-46321D01*
X88692Y-46350D01*
X88678Y-46364D01*
X88650Y-46378D01*
X88535Y-46378D01*
X89007Y-46521D02*
X88907Y-46378D01*
X88835Y-46521D02*
X88835Y-46221D01*
X88950Y-46221D01*
X88978Y-46235D01*
X88992Y-46250D01*
X89007Y-46278D01*
X89007Y-46321D01*
X88992Y-46350D01*
X88978Y-46364D01*
X88950Y-46378D01*
X88835Y-46378D01*
X89135Y-46521D02*
X89135Y-46221D01*
X89235Y-46221D02*
X89407Y-46221D01*
X89321Y-46521D02*
X89321Y-46221D01*
X89507Y-46364D02*
X89607Y-46364D01*
X89650Y-46521D02*
X89507Y-46521D01*
X89507Y-46221D01*
X89650Y-46221D01*
X89707Y-46550D02*
X89935Y-46550D01*
X90107Y-46364D02*
X90150Y-46378D01*
X90164Y-46392D01*
X90178Y-46421D01*
X90178Y-46464D01*
X90164Y-46492D01*
X90150Y-46507D01*
X90121Y-46521D01*
X90007Y-46521D01*
X90007Y-46221D01*
X90107Y-46221D01*
X90135Y-46235D01*
X90150Y-46250D01*
X90164Y-46278D01*
X90164Y-46307D01*
X90150Y-46335D01*
X90135Y-46350D01*
X90107Y-46364D01*
X90007Y-46364D01*
X90307Y-46364D02*
X90407Y-46364D01*
X90450Y-46521D02*
X90307Y-46521D01*
X90307Y-46221D01*
X90450Y-46221D01*
X90564Y-46435D02*
X90707Y-46435D01*
X90535Y-46521D02*
X90635Y-46221D01*
X90735Y-46521D01*
X90835Y-46521D02*
X90835Y-46221D01*
X90907Y-46221D01*
X90950Y-46235D01*
X90978Y-46264D01*
X90992Y-46292D01*
X91007Y-46350D01*
X91007Y-46392D01*
X90992Y-46450D01*
X90978Y-46478D01*
X90950Y-46507D01*
X90907Y-46521D01*
X90835Y-46521D01*
X85450Y-45592D02*
X85435Y-45607D01*
X85392Y-45621D01*
X85364Y-45621D01*
X85321Y-45607D01*
X85292Y-45578D01*
X85278Y-45550D01*
X85264Y-45492D01*
X85264Y-45450D01*
X85278Y-45392D01*
X85292Y-45364D01*
X85321Y-45335D01*
X85364Y-45321D01*
X85392Y-45321D01*
X85435Y-45335D01*
X85450Y-45350D01*
X85721Y-45321D02*
X85578Y-45321D01*
X85564Y-45464D01*
X85578Y-45450D01*
X85607Y-45435D01*
X85678Y-45435D01*
X85707Y-45450D01*
X85721Y-45464D01*
X85735Y-45492D01*
X85735Y-45564D01*
X85721Y-45592D01*
X85707Y-45607D01*
X85678Y-45621D01*
X85607Y-45621D01*
X85578Y-45607D01*
X85564Y-45592D01*
X85007Y-46321D02*
X85035Y-46321D01*
X85064Y-46335D01*
X85078Y-46350D01*
X85092Y-46378D01*
X85107Y-46435D01*
X85107Y-46507D01*
X85092Y-46564D01*
X85078Y-46592D01*
X85064Y-46607D01*
X85035Y-46621D01*
X85007Y-46621D01*
X84978Y-46607D01*
X84964Y-46592D01*
X84950Y-46564D01*
X84935Y-46507D01*
X84935Y-46435D01*
X84950Y-46378D01*
X84964Y-46350D01*
X84978Y-46335D01*
X85007Y-46321D01*
X85235Y-46592D02*
X85250Y-46607D01*
X85235Y-46621D01*
X85221Y-46607D01*
X85235Y-46592D01*
X85235Y-46621D01*
X85535Y-46621D02*
X85364Y-46621D01*
X85450Y-46621D02*
X85450Y-46321D01*
X85421Y-46364D01*
X85392Y-46392D01*
X85364Y-46407D01*
X85792Y-46421D02*
X85792Y-46621D01*
X85664Y-46421D02*
X85664Y-46578D01*
X85678Y-46607D01*
X85707Y-46621D01*
X85750Y-46621D01*
X85778Y-46607D01*
X85792Y-46592D01*
X86035Y-46464D02*
X85935Y-46464D01*
X85935Y-46621D02*
X85935Y-46321D01*
X86078Y-46321D01*
G54D17*
X98958Y-44601D02*
X98875Y-44482D01*
X98815Y-44601D02*
X98815Y-44351D01*
X98910Y-44351D01*
X98934Y-44363D01*
X98946Y-44375D01*
X98958Y-44398D01*
X98958Y-44434D01*
X98946Y-44458D01*
X98934Y-44470D01*
X98910Y-44482D01*
X98815Y-44482D01*
X99053Y-44375D02*
X99065Y-44363D01*
X99089Y-44351D01*
X99148Y-44351D01*
X99172Y-44363D01*
X99184Y-44375D01*
X99196Y-44398D01*
X99196Y-44422D01*
X99184Y-44458D01*
X99041Y-44601D01*
X99196Y-44601D01*
X98696Y-44851D02*
X98863Y-44851D01*
X98755Y-45101D01*
X99005Y-44851D02*
X99029Y-44851D01*
X99053Y-44863D01*
X99065Y-44875D01*
X99077Y-44898D01*
X99089Y-44946D01*
X99089Y-45005D01*
X99077Y-45053D01*
X99065Y-45077D01*
X99053Y-45089D01*
X99029Y-45101D01*
X99005Y-45101D01*
X98982Y-45089D01*
X98970Y-45077D01*
X98958Y-45053D01*
X98946Y-45005D01*
X98946Y-44946D01*
X98958Y-44898D01*
X98970Y-44875D01*
X98982Y-44863D01*
X99005Y-44851D01*
X99196Y-45101D02*
X99196Y-44851D01*
X99220Y-45005D02*
X99291Y-45101D01*
X99291Y-44934D02*
X99196Y-45029D01*
X109101Y-54791D02*
X108982Y-54875D01*
X109101Y-54934D02*
X108851Y-54934D01*
X108851Y-54839D01*
X108863Y-54815D01*
X108875Y-54803D01*
X108898Y-54791D01*
X108934Y-54791D01*
X108958Y-54803D01*
X108970Y-54815D01*
X108982Y-54839D01*
X108982Y-54934D01*
X108851Y-54708D02*
X108851Y-54553D01*
X108946Y-54636D01*
X108946Y-54601D01*
X108958Y-54577D01*
X108970Y-54565D01*
X108994Y-54553D01*
X109053Y-54553D01*
X109077Y-54565D01*
X109089Y-54577D01*
X109101Y-54601D01*
X109101Y-54672D01*
X109089Y-54696D01*
X109077Y-54708D01*
X109351Y-55053D02*
X109351Y-54886D01*
X109601Y-54994D01*
X109351Y-54744D02*
X109351Y-54720D01*
X109363Y-54696D01*
X109375Y-54684D01*
X109398Y-54672D01*
X109446Y-54660D01*
X109505Y-54660D01*
X109553Y-54672D01*
X109577Y-54684D01*
X109589Y-54696D01*
X109601Y-54720D01*
X109601Y-54744D01*
X109589Y-54767D01*
X109577Y-54779D01*
X109553Y-54791D01*
X109505Y-54803D01*
X109446Y-54803D01*
X109398Y-54791D01*
X109375Y-54779D01*
X109363Y-54767D01*
X109351Y-54744D01*
X109601Y-54553D02*
X109351Y-54553D01*
X109505Y-54529D02*
X109601Y-54458D01*
X109434Y-54458D02*
X109529Y-54553D01*
X94101Y-54791D02*
X93982Y-54875D01*
X94101Y-54934D02*
X93851Y-54934D01*
X93851Y-54839D01*
X93863Y-54815D01*
X93875Y-54803D01*
X93898Y-54791D01*
X93934Y-54791D01*
X93958Y-54803D01*
X93970Y-54815D01*
X93982Y-54839D01*
X93982Y-54934D01*
X94101Y-54553D02*
X94101Y-54696D01*
X94101Y-54625D02*
X93851Y-54625D01*
X93886Y-54648D01*
X93910Y-54672D01*
X93922Y-54696D01*
X94601Y-54916D02*
X94601Y-55059D01*
X94601Y-54988D02*
X94351Y-54988D01*
X94386Y-55011D01*
X94410Y-55035D01*
X94422Y-55059D01*
X94375Y-54821D02*
X94363Y-54809D01*
X94351Y-54785D01*
X94351Y-54726D01*
X94363Y-54702D01*
X94375Y-54690D01*
X94398Y-54678D01*
X94422Y-54678D01*
X94458Y-54690D01*
X94601Y-54833D01*
X94601Y-54678D01*
X94351Y-54523D02*
X94351Y-54500D01*
X94363Y-54476D01*
X94375Y-54464D01*
X94398Y-54452D01*
X94446Y-54440D01*
X94505Y-54440D01*
X94553Y-54452D01*
X94577Y-54464D01*
X94589Y-54476D01*
X94601Y-54500D01*
X94601Y-54523D01*
X94589Y-54547D01*
X94577Y-54559D01*
X94553Y-54571D01*
X94505Y-54583D01*
X94446Y-54583D01*
X94398Y-54571D01*
X94375Y-54559D01*
X94363Y-54547D01*
X94351Y-54523D01*
M02*
