G04 (created by PCBNEW (22-Jun-2014 BZR 4027)-stable) date Wed 13 Dec 2017 11:48:00 PM CST*
%MOIN*%
G04 Gerber Fmt 3.4, Leading zero omitted, Abs format*
%FSLAX34Y34*%
G01*
G70*
G90*
G04 APERTURE LIST*
%ADD10C,0.00590551*%
%ADD11O,0.059X0.0885*%
%ADD12O,0.059X0.059*%
%ADD13C,0.059*%
%ADD14R,0.069X0.069*%
%ADD15O,0.069X0.069*%
%ADD16C,0.069*%
%ADD17C,0.059*%
%ADD18C,0.05*%
%ADD19R,0.059X0.059*%
%ADD20R,0.269X0.069*%
%ADD21C,0.23622*%
%ADD22O,0.032X0.032*%
%ADD23C,0.069*%
%ADD24C,0.035*%
%ADD25C,0.01*%
%ADD26C,0.02*%
%ADD27C,0.03*%
G04 APERTURE END LIST*
G54D10*
G54D11*
X81500Y-55602D03*
X81000Y-56397D03*
X80500Y-55602D03*
G54D12*
X83000Y-54000D03*
X83000Y-58000D03*
X88250Y-58000D03*
X84250Y-58000D03*
G54D13*
X95000Y-55750D02*
X95000Y-55750D01*
X97828Y-58578D02*
X97828Y-58578D01*
X105250Y-45500D02*
X105250Y-45500D01*
X108078Y-48328D02*
X108078Y-48328D01*
G54D12*
X87500Y-49500D03*
X91500Y-49500D03*
G54D14*
X80500Y-50000D03*
G54D15*
X80500Y-54000D03*
G54D10*
G36*
X105335Y-58176D02*
X105823Y-58664D01*
X105335Y-59152D01*
X104847Y-58664D01*
X105335Y-58176D01*
X105335Y-58176D01*
G37*
G54D16*
X108164Y-55835D02*
X108164Y-55835D01*
G54D10*
G36*
X97664Y-45823D02*
X97176Y-45335D01*
X97664Y-44847D01*
X98152Y-45335D01*
X97664Y-45823D01*
X97664Y-45823D01*
G37*
G54D16*
X94835Y-48164D02*
X94835Y-48164D01*
G54D14*
X91500Y-44500D03*
G54D15*
X87500Y-44500D03*
G54D17*
X87000Y-54750D03*
X87000Y-56750D03*
X91500Y-56750D03*
X91500Y-54750D03*
X82500Y-51000D03*
X82500Y-53000D03*
X111250Y-51000D03*
X111250Y-53000D03*
X84750Y-56750D03*
X84750Y-54750D03*
X84500Y-48750D03*
X86500Y-48750D03*
X95957Y-58957D03*
X94542Y-57542D03*
X89500Y-51000D03*
X89500Y-53000D03*
X91750Y-51000D03*
X91750Y-53000D03*
X89250Y-54750D03*
X89250Y-56750D03*
G54D18*
X101500Y-51000D03*
X102500Y-52000D03*
X102200Y-52700D03*
X102200Y-51300D03*
X101500Y-53000D03*
X100800Y-52700D03*
X100500Y-52000D03*
X100800Y-51300D03*
G54D19*
X84500Y-53500D03*
G54D12*
X85500Y-53500D03*
X86500Y-53500D03*
X87500Y-53500D03*
X87500Y-50500D03*
X86500Y-50500D03*
X84500Y-50500D03*
X85500Y-50500D03*
G54D20*
X114000Y-51000D03*
X114000Y-53000D03*
G54D15*
X80500Y-47500D03*
X80500Y-48500D03*
G54D21*
X80500Y-44500D03*
X111750Y-44500D03*
X111750Y-60000D03*
X80500Y-60000D03*
G54D22*
X100250Y-43500D03*
X101750Y-61000D03*
X79500Y-50000D03*
X80250Y-46250D03*
X81000Y-46250D03*
X79500Y-46250D03*
X82250Y-43500D03*
X82250Y-44250D03*
X82250Y-45000D03*
X81750Y-46250D03*
X82250Y-45750D03*
X110000Y-43500D03*
X110000Y-44250D03*
X110000Y-45000D03*
X110000Y-45750D03*
X111250Y-46250D03*
X110500Y-46250D03*
X115750Y-46250D03*
X115000Y-46250D03*
X114250Y-46250D03*
X113500Y-46250D03*
X112750Y-46250D03*
X112000Y-46250D03*
X115750Y-58250D03*
X115000Y-58250D03*
X114250Y-58250D03*
X113500Y-58250D03*
X112750Y-58250D03*
X112000Y-58250D03*
X111250Y-58250D03*
X110000Y-61000D03*
X110000Y-60250D03*
X110000Y-59500D03*
X110000Y-58750D03*
X110500Y-58250D03*
X79500Y-58250D03*
X80250Y-58250D03*
X81000Y-58250D03*
X81750Y-58250D03*
X82250Y-61000D03*
X82250Y-60250D03*
X82250Y-59500D03*
X82250Y-58750D03*
X79500Y-57500D03*
X79500Y-56750D03*
X79500Y-56000D03*
X79500Y-55250D03*
X79500Y-54500D03*
X79500Y-53750D03*
X79500Y-47000D03*
X79500Y-47750D03*
X79500Y-48500D03*
X79500Y-49250D03*
X79500Y-50750D03*
X79500Y-51500D03*
X79500Y-53000D03*
X79500Y-52250D03*
X115750Y-47000D03*
X115750Y-47750D03*
X115750Y-48500D03*
X115750Y-49250D03*
X115750Y-50000D03*
X115750Y-50750D03*
X115750Y-51500D03*
X115750Y-52250D03*
X115750Y-53000D03*
X115750Y-53750D03*
X115750Y-54500D03*
X115750Y-55250D03*
X115750Y-56000D03*
X115750Y-56750D03*
X115750Y-57500D03*
X109250Y-43500D03*
X108500Y-43500D03*
X107750Y-43500D03*
X107000Y-43500D03*
X106250Y-43500D03*
X105500Y-43500D03*
X104750Y-43500D03*
X104000Y-43500D03*
X103250Y-43500D03*
X102500Y-43500D03*
X101750Y-43500D03*
X101000Y-43500D03*
X99500Y-43500D03*
X98750Y-43500D03*
X98000Y-43500D03*
X97250Y-43500D03*
X96500Y-43500D03*
X95750Y-43500D03*
X95000Y-43500D03*
X94250Y-43500D03*
X93500Y-43500D03*
X92750Y-43500D03*
X92000Y-43500D03*
X91250Y-43500D03*
X90500Y-43500D03*
X89750Y-43500D03*
X89000Y-43500D03*
X88250Y-43500D03*
X87500Y-43500D03*
X86750Y-43500D03*
X86000Y-43500D03*
X85250Y-43500D03*
X84500Y-43500D03*
X83750Y-43500D03*
X83000Y-43500D03*
X83750Y-61000D03*
X83000Y-61000D03*
X84500Y-61000D03*
X85250Y-61000D03*
X86000Y-61000D03*
X86750Y-61000D03*
X87500Y-61000D03*
X88250Y-61000D03*
X89000Y-61000D03*
X89750Y-61000D03*
X90500Y-61000D03*
X91250Y-61000D03*
X92000Y-61000D03*
X92750Y-61000D03*
X93500Y-61000D03*
X94250Y-61000D03*
X95000Y-61000D03*
X95750Y-61000D03*
X96500Y-61000D03*
X97250Y-61000D03*
X98000Y-61000D03*
X98750Y-61000D03*
X99500Y-61000D03*
X100250Y-61000D03*
X101000Y-61000D03*
X102500Y-61000D03*
X103250Y-61000D03*
X104000Y-61000D03*
X104750Y-61000D03*
X105500Y-61000D03*
X106250Y-61000D03*
X107000Y-61000D03*
X107750Y-61000D03*
X108500Y-61000D03*
G54D20*
X114000Y-55000D03*
G54D22*
X109250Y-61000D03*
G54D23*
X87500Y-46000D03*
X91500Y-46000D03*
G54D17*
X86500Y-46000D03*
X84500Y-46000D03*
X102500Y-59750D03*
X100500Y-59750D03*
X101500Y-59750D03*
X102750Y-44500D03*
X100750Y-44500D03*
X102250Y-44500D03*
X109000Y-51000D03*
X109000Y-53000D03*
X109000Y-51500D03*
X94000Y-51000D03*
X94000Y-53000D03*
X94000Y-51500D03*
G54D24*
X103500Y-51500D03*
X103500Y-52750D03*
X99250Y-56000D03*
X100000Y-54500D03*
X106750Y-52750D03*
X106750Y-54500D03*
G54D25*
X108078Y-48328D02*
X107171Y-48328D01*
X104000Y-51500D02*
X103500Y-51500D01*
X107171Y-48328D02*
X104000Y-51500D01*
X103450Y-52700D02*
X102200Y-52700D01*
X103500Y-52750D02*
X103450Y-52700D01*
G54D26*
X95957Y-58957D02*
X96250Y-59250D01*
X96250Y-59250D02*
X99250Y-59250D01*
X99250Y-59250D02*
X100000Y-60000D01*
G54D25*
X100000Y-55250D02*
X99250Y-56000D01*
X100000Y-54500D02*
X100000Y-55250D01*
G54D26*
X100250Y-60250D02*
X100000Y-60000D01*
G54D25*
X100000Y-55250D02*
X100000Y-60000D01*
G54D26*
X101000Y-60250D02*
X100250Y-60250D01*
X101500Y-59750D02*
X101000Y-60250D01*
G54D25*
X106750Y-52750D02*
X104750Y-52750D01*
X106750Y-54500D02*
X106828Y-54500D01*
X106828Y-54500D02*
X108164Y-55835D01*
X104000Y-52000D02*
X104750Y-52750D01*
X104000Y-52000D02*
X102500Y-52000D01*
X84250Y-58000D02*
X84000Y-57750D01*
X84000Y-55500D02*
X84750Y-54750D01*
X84000Y-57750D02*
X84000Y-55500D01*
X101500Y-51000D02*
X101500Y-49250D01*
X101500Y-49250D02*
X105250Y-45500D01*
X108750Y-53250D02*
X109000Y-53000D01*
X106750Y-53250D02*
X108750Y-53250D01*
X101750Y-53250D02*
X101500Y-53000D01*
X106750Y-53250D02*
X101750Y-53250D01*
G54D26*
X87500Y-54500D02*
X89000Y-54500D01*
X89000Y-54500D02*
X89250Y-54750D01*
X86500Y-53500D02*
X87500Y-54500D01*
X87500Y-56250D02*
X87000Y-56750D01*
X87500Y-54500D02*
X87500Y-56250D01*
G54D25*
X100800Y-51300D02*
X100800Y-44550D01*
X100800Y-44550D02*
X100750Y-44500D01*
G54D27*
X111250Y-53000D02*
X113000Y-53000D01*
G54D25*
X111250Y-53750D02*
X112250Y-53750D01*
X101250Y-53750D02*
X106750Y-53750D01*
X100500Y-53000D02*
X101250Y-53750D01*
X106750Y-53750D02*
X111250Y-53750D01*
X112250Y-53750D02*
X113000Y-53000D01*
G54D27*
X84000Y-46250D02*
X84250Y-46000D01*
X81000Y-48000D02*
X82250Y-48000D01*
X82250Y-48000D02*
X84000Y-46250D01*
X80500Y-48500D02*
X81000Y-48000D01*
X84250Y-46000D02*
X84500Y-46000D01*
G54D25*
X94000Y-53000D02*
X98250Y-53000D01*
X98250Y-53000D02*
X98750Y-52500D01*
X95250Y-53500D02*
X98750Y-53500D01*
X98750Y-53500D02*
X99250Y-53000D01*
G54D27*
X91000Y-54000D02*
X91150Y-53850D01*
X91850Y-53850D02*
X92000Y-54000D01*
X91750Y-53850D02*
X91850Y-53850D01*
X91150Y-53850D02*
X91750Y-53850D01*
G54D25*
X90250Y-53500D02*
X95250Y-53500D01*
G54D26*
X89250Y-56750D02*
X90500Y-56750D01*
X91750Y-57500D02*
X92500Y-56750D01*
X91250Y-57500D02*
X91750Y-57500D01*
X90500Y-56750D02*
X91250Y-57500D01*
G54D27*
X87500Y-53500D02*
X89000Y-53500D01*
X89000Y-53500D02*
X89500Y-54000D01*
X89750Y-54000D02*
X91000Y-54000D01*
X92000Y-54000D02*
X96250Y-54000D01*
G54D25*
X96250Y-54000D02*
X96750Y-54000D01*
X96750Y-54000D02*
X99000Y-54000D01*
X97000Y-57000D02*
X96875Y-57125D01*
G54D26*
X96875Y-57125D02*
X96457Y-57542D01*
G54D25*
X100500Y-53000D02*
X100000Y-54000D01*
X100000Y-54000D02*
X97000Y-57000D01*
G54D26*
X96457Y-57542D02*
X94542Y-57542D01*
G54D25*
X100500Y-53000D02*
X99500Y-53000D01*
X99250Y-53000D02*
X99500Y-53000D01*
X89750Y-53000D02*
X90250Y-53500D01*
X89750Y-53000D02*
X89500Y-53000D01*
X98750Y-52500D02*
X99500Y-52500D01*
X100500Y-53000D02*
X99500Y-52500D01*
X99500Y-52000D02*
X97000Y-49500D01*
X97000Y-49500D02*
X96500Y-49500D01*
X99500Y-52000D02*
X100500Y-53000D01*
G54D27*
X96500Y-49500D02*
X94500Y-49500D01*
X91500Y-47250D02*
X93750Y-49500D01*
X88000Y-47250D02*
X83750Y-47250D01*
X82500Y-48500D02*
X83750Y-47250D01*
X80500Y-48500D02*
X82000Y-48500D01*
X82000Y-48500D02*
X82500Y-48500D01*
X91500Y-47250D02*
X88000Y-47250D01*
X93750Y-49500D02*
X94500Y-49500D01*
G54D26*
X91750Y-53000D02*
X94000Y-53000D01*
G54D25*
X99500Y-53500D02*
X100500Y-53000D01*
X99000Y-54000D02*
X99500Y-53500D01*
G54D27*
X89500Y-54000D02*
X89750Y-54000D01*
X82500Y-53000D02*
X82750Y-52750D01*
X86750Y-52750D02*
X87500Y-53500D01*
X82750Y-52750D02*
X86750Y-52750D01*
G54D25*
X99500Y-54000D02*
X96750Y-56750D01*
X100500Y-53000D02*
X99500Y-54000D01*
X96750Y-56750D02*
X96500Y-56750D01*
G54D26*
X96500Y-56750D02*
X92500Y-56750D01*
G54D25*
X100500Y-59750D02*
X100500Y-54000D01*
X100500Y-54000D02*
X100500Y-53000D01*
X105335Y-58664D02*
X101000Y-54328D01*
X101000Y-54328D02*
X101000Y-54000D01*
X101000Y-54000D02*
X100500Y-53000D01*
X100500Y-53000D02*
X100800Y-52700D01*
M02*
