M48
;DRILL file {Pcbnew (22-Jun-2014 BZR 4027)-stable} date Wed 13 Dec 2017 11:48:02 PM CST
;FORMAT={-:-/ absolute / inch / decimal}
FMAT,2
INCH,TZ
T1C0.016
T2C0.025
T3C0.032
T4C0.040
T5C0.126
%
G90
G05
M72
T1
X7.95Y-4.625
X7.95Y-4.7
X7.95Y-4.775
X7.95Y-4.85
X7.95Y-4.925
X7.95Y-5.
X7.95Y-5.075
X7.95Y-5.15
X7.95Y-5.225
X7.95Y-5.3
X7.95Y-5.375
X7.95Y-5.45
X7.95Y-5.525
X7.95Y-5.6
X7.95Y-5.675
X7.95Y-5.75
X7.95Y-5.825
X8.025Y-4.625
X8.025Y-5.825
X8.1Y-4.625
X8.1Y-5.825
X8.175Y-4.625
X8.175Y-5.825
X8.225Y-4.35
X8.225Y-4.425
X8.225Y-4.5
X8.225Y-4.575
X8.225Y-5.875
X8.225Y-5.95
X8.225Y-6.025
X8.225Y-6.1
X8.3Y-4.35
X8.3Y-6.1
X8.375Y-4.35
X8.375Y-6.1
X8.45Y-4.35
X8.45Y-6.1
X8.525Y-4.35
X8.525Y-6.1
X8.6Y-4.35
X8.6Y-6.1
X8.675Y-4.35
X8.675Y-6.1
X8.75Y-4.35
X8.75Y-6.1
X8.825Y-4.35
X8.825Y-6.1
X8.9Y-4.35
X8.9Y-6.1
X8.975Y-4.35
X8.975Y-6.1
X9.05Y-4.35
X9.05Y-6.1
X9.125Y-4.35
X9.125Y-6.1
X9.2Y-4.35
X9.2Y-6.1
X9.275Y-4.35
X9.275Y-6.1
X9.35Y-4.35
X9.35Y-6.1
X9.425Y-4.35
X9.425Y-6.1
X9.5Y-4.35
X9.5Y-6.1
X9.575Y-4.35
X9.575Y-6.1
X9.65Y-4.35
X9.65Y-6.1
X9.725Y-4.35
X9.725Y-6.1
X9.8Y-4.35
X9.8Y-6.1
X9.875Y-4.35
X9.875Y-6.1
X9.95Y-4.35
X9.95Y-6.1
X10.025Y-4.35
X10.025Y-6.1
X10.1Y-4.35
X10.1Y-6.1
X10.175Y-4.35
X10.175Y-6.1
X10.25Y-4.35
X10.25Y-6.1
X10.325Y-4.35
X10.325Y-6.1
X10.4Y-4.35
X10.4Y-6.1
X10.475Y-4.35
X10.475Y-6.1
X10.55Y-4.35
X10.55Y-6.1
X10.625Y-4.35
X10.625Y-6.1
X10.7Y-4.35
X10.7Y-6.1
X10.775Y-4.35
X10.775Y-6.1
X10.85Y-4.35
X10.85Y-6.1
X10.925Y-4.35
X10.925Y-6.1
X11.Y-4.35
X11.Y-4.425
X11.Y-4.5
X11.Y-4.575
X11.Y-5.875
X11.Y-5.95
X11.Y-6.025
X11.Y-6.1
X11.05Y-4.625
X11.05Y-5.825
X11.125Y-4.625
X11.125Y-5.825
X11.2Y-4.625
X11.2Y-5.825
X11.275Y-4.625
X11.275Y-5.825
X11.35Y-4.625
X11.35Y-5.825
X11.425Y-4.625
X11.425Y-5.825
X11.5Y-4.625
X11.5Y-5.825
X11.575Y-4.625
X11.575Y-4.7
X11.575Y-4.775
X11.575Y-4.85
X11.575Y-4.925
X11.575Y-5.
X11.575Y-5.075
X11.575Y-5.15
X11.575Y-5.225
X11.575Y-5.3
X11.575Y-5.375
X11.575Y-5.45
X11.575Y-5.525
X11.575Y-5.6
X11.575Y-5.675
X11.575Y-5.75
X11.575Y-5.825
T2
X9.925Y-5.6
X10.Y-5.45
X10.35Y-5.15
X10.35Y-5.275
X10.675Y-5.275
X10.675Y-5.45
T3
X8.05Y-5.575
X8.1Y-5.625
X8.15Y-5.575
X8.25Y-5.1
X8.25Y-5.3
X8.3Y-5.4
X8.3Y-5.8
X8.425Y-5.8
X8.45Y-4.6
X8.45Y-4.875
X8.45Y-5.05
X8.45Y-5.35
X8.475Y-5.475
X8.475Y-5.675
X8.55Y-5.05
X8.55Y-5.35
X8.65Y-4.6
X8.65Y-4.875
X8.65Y-5.05
X8.65Y-5.35
X8.7Y-5.475
X8.7Y-5.675
X8.75Y-4.95
X8.75Y-5.05
X8.75Y-5.35
X8.825Y-5.8
X8.925Y-5.475
X8.925Y-5.675
X8.95Y-5.1
X8.95Y-5.3
X9.15Y-4.95
X9.15Y-5.475
X9.15Y-5.675
X9.175Y-5.1
X9.175Y-5.3
X9.4Y-5.1
X9.4Y-5.15
X9.4Y-5.3
X9.4543Y-5.7543
X9.5Y-5.575
X9.5957Y-5.8957
X9.7828Y-5.8578
X10.05Y-5.2
X10.05Y-5.975
X10.075Y-4.45
X10.08Y-5.13
X10.08Y-5.27
X10.15Y-5.1
X10.15Y-5.3
X10.15Y-5.975
X10.22Y-5.13
X10.22Y-5.27
X10.225Y-4.45
X10.25Y-5.2
X10.25Y-5.975
X10.275Y-4.45
X10.525Y-4.55
X10.8078Y-4.8328
X10.9Y-5.1
X10.9Y-5.15
X10.9Y-5.3
X11.125Y-5.1
X11.125Y-5.3
T4
X8.05Y-4.75
X8.05Y-4.85
X8.05Y-5.
X8.05Y-5.4
X8.75Y-4.45
X8.75Y-4.6
X9.15Y-4.45
X9.15Y-4.6
X9.4836Y-4.8164
X9.7664Y-4.5336
X10.5336Y-5.8664
X10.8164Y-5.5836
X11.3Y-5.1
X11.3Y-5.3
X11.3Y-5.5
T5
X8.05Y-4.45
X8.05Y-6.
X11.175Y-4.45
X11.175Y-6.
T0
M30
