G04 (created by PCBNEW (22-Jun-2014 BZR 4027)-stable) date Wed 13 Dec 2017 11:48:00 PM CST*
%MOIN*%
G04 Gerber Fmt 3.4, Leading zero omitted, Abs format*
%FSLAX34Y34*%
G01*
G70*
G90*
G04 APERTURE LIST*
%ADD10C,0.00590551*%
%ADD11O,0.059X0.0885*%
%ADD12O,0.059X0.059*%
%ADD13C,0.059*%
%ADD14R,0.069X0.069*%
%ADD15O,0.069X0.069*%
%ADD16C,0.069*%
%ADD17C,0.059*%
%ADD18C,0.05*%
%ADD19R,0.059X0.059*%
%ADD20R,0.269X0.069*%
%ADD21C,0.23622*%
%ADD22O,0.032X0.032*%
%ADD23C,0.069*%
%ADD24C,0.035*%
%ADD25C,0.01*%
G04 APERTURE END LIST*
G54D10*
G54D11*
X81500Y-55602D03*
X81000Y-56397D03*
X80500Y-55602D03*
G54D12*
X83000Y-54000D03*
X83000Y-58000D03*
X88250Y-58000D03*
X84250Y-58000D03*
G54D13*
X95000Y-55750D02*
X95000Y-55750D01*
X97828Y-58578D02*
X97828Y-58578D01*
X105250Y-45500D02*
X105250Y-45500D01*
X108078Y-48328D02*
X108078Y-48328D01*
G54D12*
X87500Y-49500D03*
X91500Y-49500D03*
G54D14*
X80500Y-50000D03*
G54D15*
X80500Y-54000D03*
G54D10*
G36*
X105335Y-58176D02*
X105823Y-58664D01*
X105335Y-59152D01*
X104847Y-58664D01*
X105335Y-58176D01*
X105335Y-58176D01*
G37*
G54D16*
X108164Y-55835D02*
X108164Y-55835D01*
G54D10*
G36*
X97664Y-45823D02*
X97176Y-45335D01*
X97664Y-44847D01*
X98152Y-45335D01*
X97664Y-45823D01*
X97664Y-45823D01*
G37*
G54D16*
X94835Y-48164D02*
X94835Y-48164D01*
G54D14*
X91500Y-44500D03*
G54D15*
X87500Y-44500D03*
G54D17*
X87000Y-54750D03*
X87000Y-56750D03*
X91500Y-56750D03*
X91500Y-54750D03*
X82500Y-51000D03*
X82500Y-53000D03*
X111250Y-51000D03*
X111250Y-53000D03*
X84750Y-56750D03*
X84750Y-54750D03*
X84500Y-48750D03*
X86500Y-48750D03*
X95957Y-58957D03*
X94542Y-57542D03*
X89500Y-51000D03*
X89500Y-53000D03*
X91750Y-51000D03*
X91750Y-53000D03*
X89250Y-54750D03*
X89250Y-56750D03*
G54D18*
X101500Y-51000D03*
X102500Y-52000D03*
X102200Y-52700D03*
X102200Y-51300D03*
X101500Y-53000D03*
X100800Y-52700D03*
X100500Y-52000D03*
X100800Y-51300D03*
G54D19*
X84500Y-53500D03*
G54D12*
X85500Y-53500D03*
X86500Y-53500D03*
X87500Y-53500D03*
X87500Y-50500D03*
X86500Y-50500D03*
X84500Y-50500D03*
X85500Y-50500D03*
G54D20*
X114000Y-51000D03*
X114000Y-53000D03*
G54D15*
X80500Y-47500D03*
X80500Y-48500D03*
G54D21*
X80500Y-44500D03*
X111750Y-44500D03*
X111750Y-60000D03*
X80500Y-60000D03*
G54D22*
X100250Y-43500D03*
X101750Y-61000D03*
X79500Y-50000D03*
X80250Y-46250D03*
X81000Y-46250D03*
X79500Y-46250D03*
X82250Y-43500D03*
X82250Y-44250D03*
X82250Y-45000D03*
X81750Y-46250D03*
X82250Y-45750D03*
X110000Y-43500D03*
X110000Y-44250D03*
X110000Y-45000D03*
X110000Y-45750D03*
X111250Y-46250D03*
X110500Y-46250D03*
X115750Y-46250D03*
X115000Y-46250D03*
X114250Y-46250D03*
X113500Y-46250D03*
X112750Y-46250D03*
X112000Y-46250D03*
X115750Y-58250D03*
X115000Y-58250D03*
X114250Y-58250D03*
X113500Y-58250D03*
X112750Y-58250D03*
X112000Y-58250D03*
X111250Y-58250D03*
X110000Y-61000D03*
X110000Y-60250D03*
X110000Y-59500D03*
X110000Y-58750D03*
X110500Y-58250D03*
X79500Y-58250D03*
X80250Y-58250D03*
X81000Y-58250D03*
X81750Y-58250D03*
X82250Y-61000D03*
X82250Y-60250D03*
X82250Y-59500D03*
X82250Y-58750D03*
X79500Y-57500D03*
X79500Y-56750D03*
X79500Y-56000D03*
X79500Y-55250D03*
X79500Y-54500D03*
X79500Y-53750D03*
X79500Y-47000D03*
X79500Y-47750D03*
X79500Y-48500D03*
X79500Y-49250D03*
X79500Y-50750D03*
X79500Y-51500D03*
X79500Y-53000D03*
X79500Y-52250D03*
X115750Y-47000D03*
X115750Y-47750D03*
X115750Y-48500D03*
X115750Y-49250D03*
X115750Y-50000D03*
X115750Y-50750D03*
X115750Y-51500D03*
X115750Y-52250D03*
X115750Y-53000D03*
X115750Y-53750D03*
X115750Y-54500D03*
X115750Y-55250D03*
X115750Y-56000D03*
X115750Y-56750D03*
X115750Y-57500D03*
X109250Y-43500D03*
X108500Y-43500D03*
X107750Y-43500D03*
X107000Y-43500D03*
X106250Y-43500D03*
X105500Y-43500D03*
X104750Y-43500D03*
X104000Y-43500D03*
X103250Y-43500D03*
X102500Y-43500D03*
X101750Y-43500D03*
X101000Y-43500D03*
X99500Y-43500D03*
X98750Y-43500D03*
X98000Y-43500D03*
X97250Y-43500D03*
X96500Y-43500D03*
X95750Y-43500D03*
X95000Y-43500D03*
X94250Y-43500D03*
X93500Y-43500D03*
X92750Y-43500D03*
X92000Y-43500D03*
X91250Y-43500D03*
X90500Y-43500D03*
X89750Y-43500D03*
X89000Y-43500D03*
X88250Y-43500D03*
X87500Y-43500D03*
X86750Y-43500D03*
X86000Y-43500D03*
X85250Y-43500D03*
X84500Y-43500D03*
X83750Y-43500D03*
X83000Y-43500D03*
X83750Y-61000D03*
X83000Y-61000D03*
X84500Y-61000D03*
X85250Y-61000D03*
X86000Y-61000D03*
X86750Y-61000D03*
X87500Y-61000D03*
X88250Y-61000D03*
X89000Y-61000D03*
X89750Y-61000D03*
X90500Y-61000D03*
X91250Y-61000D03*
X92000Y-61000D03*
X92750Y-61000D03*
X93500Y-61000D03*
X94250Y-61000D03*
X95000Y-61000D03*
X95750Y-61000D03*
X96500Y-61000D03*
X97250Y-61000D03*
X98000Y-61000D03*
X98750Y-61000D03*
X99500Y-61000D03*
X100250Y-61000D03*
X101000Y-61000D03*
X102500Y-61000D03*
X103250Y-61000D03*
X104000Y-61000D03*
X104750Y-61000D03*
X105500Y-61000D03*
X106250Y-61000D03*
X107000Y-61000D03*
X107750Y-61000D03*
X108500Y-61000D03*
G54D20*
X114000Y-55000D03*
G54D22*
X109250Y-61000D03*
G54D23*
X87500Y-46000D03*
X91500Y-46000D03*
G54D17*
X86500Y-46000D03*
X84500Y-46000D03*
X102500Y-59750D03*
X100500Y-59750D03*
X101500Y-59750D03*
X102750Y-44500D03*
X100750Y-44500D03*
X102250Y-44500D03*
X109000Y-51000D03*
X109000Y-53000D03*
X109000Y-51500D03*
X94000Y-51000D03*
X94000Y-53000D03*
X94000Y-51500D03*
G54D24*
X103500Y-51500D03*
X103500Y-52750D03*
X99250Y-56000D03*
X100000Y-54500D03*
X106750Y-52750D03*
X106750Y-54500D03*
G54D10*
G36*
X115950Y-58450D02*
X115595Y-58450D01*
X115595Y-55394D01*
X115595Y-54605D01*
X115595Y-53295D01*
X115595Y-52605D01*
X115595Y-51295D01*
X115595Y-50605D01*
X115557Y-50513D01*
X115486Y-50443D01*
X115394Y-50405D01*
X115295Y-50404D01*
X112605Y-50404D01*
X112513Y-50442D01*
X112443Y-50513D01*
X112405Y-50605D01*
X112404Y-50704D01*
X112404Y-51394D01*
X112442Y-51486D01*
X112513Y-51556D01*
X112605Y-51594D01*
X112704Y-51595D01*
X115394Y-51595D01*
X115486Y-51557D01*
X115556Y-51486D01*
X115594Y-51394D01*
X115595Y-51295D01*
X115595Y-52605D01*
X115557Y-52513D01*
X115486Y-52443D01*
X115394Y-52405D01*
X115295Y-52404D01*
X112605Y-52404D01*
X112513Y-52442D01*
X112443Y-52513D01*
X112405Y-52605D01*
X112404Y-52704D01*
X112404Y-53394D01*
X112442Y-53486D01*
X112513Y-53556D01*
X112605Y-53594D01*
X112704Y-53595D01*
X115394Y-53595D01*
X115486Y-53557D01*
X115556Y-53486D01*
X115594Y-53394D01*
X115595Y-53295D01*
X115595Y-54605D01*
X115557Y-54513D01*
X115486Y-54443D01*
X115394Y-54405D01*
X115295Y-54404D01*
X114112Y-54405D01*
X114050Y-54467D01*
X114050Y-54950D01*
X115532Y-54950D01*
X115595Y-54887D01*
X115595Y-54605D01*
X115595Y-55394D01*
X115595Y-55112D01*
X115532Y-55050D01*
X114050Y-55050D01*
X114050Y-55532D01*
X114112Y-55595D01*
X115295Y-55595D01*
X115394Y-55594D01*
X115486Y-55556D01*
X115557Y-55486D01*
X115595Y-55394D01*
X115595Y-58450D01*
X113950Y-58450D01*
X113950Y-55532D01*
X113950Y-55050D01*
X113950Y-54950D01*
X113950Y-54467D01*
X113887Y-54405D01*
X112704Y-54404D01*
X112605Y-54405D01*
X112513Y-54443D01*
X112442Y-54513D01*
X112404Y-54605D01*
X112405Y-54887D01*
X112467Y-54950D01*
X113950Y-54950D01*
X113950Y-55050D01*
X112467Y-55050D01*
X112405Y-55112D01*
X112404Y-55394D01*
X112442Y-55486D01*
X112513Y-55556D01*
X112605Y-55594D01*
X112704Y-55595D01*
X113887Y-55595D01*
X113950Y-55532D01*
X113950Y-58450D01*
X111795Y-58450D01*
X111795Y-52892D01*
X111795Y-50892D01*
X111712Y-50691D01*
X111559Y-50538D01*
X111358Y-50455D01*
X111142Y-50454D01*
X110941Y-50537D01*
X110788Y-50690D01*
X110705Y-50891D01*
X110704Y-51107D01*
X110787Y-51308D01*
X110940Y-51461D01*
X111141Y-51544D01*
X111357Y-51545D01*
X111558Y-51462D01*
X111711Y-51309D01*
X111794Y-51108D01*
X111795Y-50892D01*
X111795Y-52892D01*
X111712Y-52691D01*
X111559Y-52538D01*
X111358Y-52455D01*
X111142Y-52454D01*
X110941Y-52537D01*
X110788Y-52690D01*
X110705Y-52891D01*
X110704Y-53107D01*
X110787Y-53308D01*
X110940Y-53461D01*
X111141Y-53544D01*
X111357Y-53545D01*
X111558Y-53462D01*
X111711Y-53309D01*
X111794Y-53108D01*
X111795Y-52892D01*
X111795Y-58450D01*
X110979Y-58450D01*
X110200Y-59229D01*
X110200Y-61200D01*
X109545Y-61200D01*
X109545Y-52892D01*
X109545Y-51392D01*
X109486Y-51249D01*
X109544Y-51108D01*
X109545Y-50892D01*
X109462Y-50691D01*
X109309Y-50538D01*
X109108Y-50455D01*
X108892Y-50454D01*
X108691Y-50537D01*
X108630Y-50598D01*
X108630Y-48335D01*
X108589Y-48127D01*
X108471Y-47950D01*
X108456Y-47935D01*
X108279Y-47817D01*
X108070Y-47775D01*
X107862Y-47817D01*
X107685Y-47935D01*
X107567Y-48112D01*
X107525Y-48320D01*
X107567Y-48529D01*
X107685Y-48706D01*
X107700Y-48721D01*
X107877Y-48839D01*
X108085Y-48880D01*
X108294Y-48839D01*
X108471Y-48721D01*
X108589Y-48544D01*
X108630Y-48335D01*
X108630Y-50598D01*
X108538Y-50690D01*
X108455Y-50891D01*
X108454Y-51107D01*
X108513Y-51250D01*
X108455Y-51391D01*
X108454Y-51607D01*
X108537Y-51808D01*
X108690Y-51961D01*
X108891Y-52044D01*
X109107Y-52045D01*
X109308Y-51962D01*
X109461Y-51809D01*
X109544Y-51608D01*
X109545Y-51392D01*
X109545Y-52892D01*
X109462Y-52691D01*
X109309Y-52538D01*
X109108Y-52455D01*
X108892Y-52454D01*
X108691Y-52537D01*
X108538Y-52690D01*
X108455Y-52891D01*
X108454Y-53107D01*
X108537Y-53308D01*
X108690Y-53461D01*
X108891Y-53544D01*
X109107Y-53545D01*
X109308Y-53462D01*
X109461Y-53309D01*
X109544Y-53108D01*
X109545Y-52892D01*
X109545Y-61200D01*
X108767Y-61200D01*
X108767Y-55827D01*
X108722Y-55599D01*
X108593Y-55406D01*
X108400Y-55277D01*
X108172Y-55232D01*
X107944Y-55277D01*
X107751Y-55406D01*
X107735Y-55423D01*
X107606Y-55616D01*
X107560Y-55844D01*
X107606Y-56071D01*
X107735Y-56264D01*
X107928Y-56393D01*
X108155Y-56439D01*
X108383Y-56393D01*
X108576Y-56264D01*
X108593Y-56248D01*
X108722Y-56055D01*
X108767Y-55827D01*
X108767Y-61200D01*
X107175Y-61200D01*
X107175Y-54415D01*
X107175Y-52665D01*
X107110Y-52509D01*
X106991Y-52389D01*
X106834Y-52325D01*
X106665Y-52324D01*
X106509Y-52389D01*
X106389Y-52508D01*
X106325Y-52665D01*
X106324Y-52834D01*
X106389Y-52990D01*
X106508Y-53110D01*
X106665Y-53174D01*
X106834Y-53175D01*
X106990Y-53110D01*
X107110Y-52991D01*
X107174Y-52834D01*
X107175Y-52665D01*
X107175Y-54415D01*
X107110Y-54259D01*
X106991Y-54139D01*
X106834Y-54075D01*
X106665Y-54074D01*
X106509Y-54139D01*
X106389Y-54258D01*
X106325Y-54415D01*
X106324Y-54584D01*
X106389Y-54740D01*
X106508Y-54860D01*
X106665Y-54924D01*
X106834Y-54925D01*
X106990Y-54860D01*
X107110Y-54741D01*
X107174Y-54584D01*
X107175Y-54415D01*
X107175Y-61200D01*
X106073Y-61200D01*
X106073Y-58614D01*
X106035Y-58522D01*
X105965Y-58452D01*
X105802Y-58289D01*
X105802Y-45507D01*
X105761Y-45298D01*
X105642Y-45122D01*
X105627Y-45107D01*
X105451Y-44988D01*
X105242Y-44947D01*
X105033Y-44988D01*
X104857Y-45107D01*
X104738Y-45283D01*
X104697Y-45492D01*
X104738Y-45701D01*
X104857Y-45877D01*
X104872Y-45892D01*
X105048Y-46011D01*
X105257Y-46052D01*
X105466Y-46011D01*
X105642Y-45892D01*
X105761Y-45716D01*
X105802Y-45507D01*
X105802Y-58289D01*
X105477Y-57964D01*
X105385Y-57926D01*
X105286Y-57926D01*
X105194Y-57964D01*
X105123Y-58034D01*
X104636Y-58522D01*
X104597Y-58614D01*
X104597Y-58713D01*
X104635Y-58805D01*
X104706Y-58876D01*
X105193Y-59363D01*
X105285Y-59402D01*
X105385Y-59402D01*
X105477Y-59364D01*
X105547Y-59293D01*
X106035Y-58806D01*
X106073Y-58714D01*
X106073Y-58614D01*
X106073Y-61200D01*
X103925Y-61200D01*
X103925Y-52665D01*
X103925Y-51415D01*
X103860Y-51259D01*
X103741Y-51139D01*
X103584Y-51075D01*
X103415Y-51074D01*
X103295Y-51124D01*
X103295Y-44392D01*
X103212Y-44191D01*
X103059Y-44038D01*
X102858Y-43955D01*
X102642Y-43954D01*
X102499Y-44013D01*
X102358Y-43955D01*
X102142Y-43954D01*
X101941Y-44037D01*
X101788Y-44190D01*
X101705Y-44391D01*
X101704Y-44607D01*
X101787Y-44808D01*
X101940Y-44961D01*
X102141Y-45044D01*
X102357Y-45045D01*
X102500Y-44986D01*
X102641Y-45044D01*
X102857Y-45045D01*
X103058Y-44962D01*
X103211Y-44809D01*
X103294Y-44608D01*
X103295Y-44392D01*
X103295Y-51124D01*
X103259Y-51139D01*
X103139Y-51258D01*
X103075Y-51415D01*
X103074Y-51584D01*
X103139Y-51740D01*
X103258Y-51860D01*
X103415Y-51924D01*
X103584Y-51925D01*
X103740Y-51860D01*
X103860Y-51741D01*
X103924Y-51584D01*
X103925Y-51415D01*
X103925Y-52665D01*
X103860Y-52509D01*
X103741Y-52389D01*
X103584Y-52325D01*
X103415Y-52324D01*
X103259Y-52389D01*
X103139Y-52508D01*
X103075Y-52665D01*
X103074Y-52834D01*
X103139Y-52990D01*
X103258Y-53110D01*
X103415Y-53174D01*
X103584Y-53175D01*
X103740Y-53110D01*
X103860Y-52991D01*
X103924Y-52834D01*
X103925Y-52665D01*
X103925Y-61200D01*
X103045Y-61200D01*
X103045Y-59642D01*
X103000Y-59533D01*
X103000Y-51900D01*
X102924Y-51717D01*
X102783Y-51576D01*
X102649Y-51520D01*
X102699Y-51399D01*
X102700Y-51200D01*
X102624Y-51017D01*
X102483Y-50876D01*
X102299Y-50800D01*
X102100Y-50799D01*
X101979Y-50850D01*
X101924Y-50717D01*
X101783Y-50576D01*
X101599Y-50500D01*
X101400Y-50499D01*
X101295Y-50543D01*
X101295Y-44392D01*
X101212Y-44191D01*
X101059Y-44038D01*
X100858Y-43955D01*
X100642Y-43954D01*
X100441Y-44037D01*
X100288Y-44190D01*
X100205Y-44391D01*
X100204Y-44607D01*
X100287Y-44808D01*
X100440Y-44961D01*
X100641Y-45044D01*
X100857Y-45045D01*
X101058Y-44962D01*
X101211Y-44809D01*
X101294Y-44608D01*
X101295Y-44392D01*
X101295Y-50543D01*
X101217Y-50575D01*
X101076Y-50716D01*
X101020Y-50850D01*
X100899Y-50800D01*
X100700Y-50799D01*
X100517Y-50875D01*
X100376Y-51016D01*
X100300Y-51200D01*
X100299Y-51399D01*
X100350Y-51520D01*
X100217Y-51575D01*
X100076Y-51716D01*
X100000Y-51900D01*
X99999Y-52099D01*
X100075Y-52282D01*
X100216Y-52423D01*
X100350Y-52479D01*
X100300Y-52600D01*
X100299Y-52799D01*
X100375Y-52982D01*
X100516Y-53123D01*
X100700Y-53199D01*
X100899Y-53200D01*
X101020Y-53149D01*
X101075Y-53282D01*
X101216Y-53423D01*
X101400Y-53499D01*
X101599Y-53500D01*
X101782Y-53424D01*
X101923Y-53283D01*
X101979Y-53149D01*
X102100Y-53199D01*
X102299Y-53200D01*
X102482Y-53124D01*
X102623Y-52983D01*
X102699Y-52799D01*
X102700Y-52600D01*
X102649Y-52479D01*
X102782Y-52424D01*
X102923Y-52283D01*
X102999Y-52099D01*
X103000Y-51900D01*
X103000Y-59533D01*
X102962Y-59441D01*
X102809Y-59288D01*
X102608Y-59205D01*
X102392Y-59204D01*
X102191Y-59287D01*
X102038Y-59440D01*
X102000Y-59532D01*
X101962Y-59441D01*
X101809Y-59288D01*
X101608Y-59205D01*
X101392Y-59204D01*
X101191Y-59287D01*
X101038Y-59440D01*
X101000Y-59532D01*
X100962Y-59441D01*
X100809Y-59288D01*
X100608Y-59205D01*
X100425Y-59204D01*
X100425Y-54415D01*
X100360Y-54259D01*
X100241Y-54139D01*
X100084Y-54075D01*
X99915Y-54074D01*
X99759Y-54139D01*
X99639Y-54258D01*
X99575Y-54415D01*
X99574Y-54584D01*
X99639Y-54740D01*
X99758Y-54860D01*
X99915Y-54924D01*
X100084Y-54925D01*
X100240Y-54860D01*
X100360Y-54741D01*
X100424Y-54584D01*
X100425Y-54415D01*
X100425Y-59204D01*
X100392Y-59204D01*
X100191Y-59287D01*
X100038Y-59440D01*
X99955Y-59641D01*
X99954Y-59857D01*
X100037Y-60058D01*
X100190Y-60211D01*
X100391Y-60294D01*
X100607Y-60295D01*
X100808Y-60212D01*
X100961Y-60059D01*
X100999Y-59967D01*
X101037Y-60058D01*
X101190Y-60211D01*
X101391Y-60294D01*
X101607Y-60295D01*
X101808Y-60212D01*
X101961Y-60059D01*
X101999Y-59967D01*
X102037Y-60058D01*
X102190Y-60211D01*
X102391Y-60294D01*
X102607Y-60295D01*
X102808Y-60212D01*
X102961Y-60059D01*
X103044Y-59858D01*
X103045Y-59642D01*
X103045Y-61200D01*
X99675Y-61200D01*
X99675Y-55915D01*
X99610Y-55759D01*
X99491Y-55639D01*
X99334Y-55575D01*
X99165Y-55574D01*
X99009Y-55639D01*
X98889Y-55758D01*
X98825Y-55915D01*
X98824Y-56084D01*
X98889Y-56240D01*
X99008Y-56360D01*
X99165Y-56424D01*
X99334Y-56425D01*
X99490Y-56360D01*
X99610Y-56241D01*
X99674Y-56084D01*
X99675Y-55915D01*
X99675Y-61200D01*
X98402Y-61200D01*
X98402Y-45286D01*
X98364Y-45194D01*
X98293Y-45123D01*
X97806Y-44636D01*
X97714Y-44597D01*
X97614Y-44597D01*
X97522Y-44635D01*
X97452Y-44706D01*
X96964Y-45193D01*
X96926Y-45285D01*
X96926Y-45385D01*
X96964Y-45477D01*
X97034Y-45547D01*
X97522Y-46035D01*
X97614Y-46073D01*
X97713Y-46073D01*
X97805Y-46035D01*
X97876Y-45965D01*
X98363Y-45477D01*
X98402Y-45385D01*
X98402Y-45286D01*
X98402Y-61200D01*
X98380Y-61200D01*
X98380Y-58585D01*
X98339Y-58377D01*
X98221Y-58200D01*
X98206Y-58185D01*
X98029Y-58067D01*
X97820Y-58025D01*
X97612Y-58067D01*
X97435Y-58185D01*
X97317Y-58362D01*
X97275Y-58570D01*
X97317Y-58779D01*
X97435Y-58956D01*
X97450Y-58971D01*
X97627Y-59089D01*
X97835Y-59130D01*
X98044Y-59089D01*
X98221Y-58971D01*
X98339Y-58794D01*
X98380Y-58585D01*
X98380Y-61200D01*
X96502Y-61200D01*
X96502Y-58849D01*
X96419Y-58648D01*
X96266Y-58495D01*
X96065Y-58412D01*
X95849Y-58412D01*
X95648Y-58494D01*
X95552Y-58590D01*
X95552Y-55757D01*
X95511Y-55548D01*
X95439Y-55441D01*
X95439Y-48155D01*
X95393Y-47928D01*
X95264Y-47735D01*
X95071Y-47606D01*
X94844Y-47560D01*
X94616Y-47606D01*
X94423Y-47735D01*
X94406Y-47751D01*
X94277Y-47944D01*
X94232Y-48172D01*
X94277Y-48400D01*
X94406Y-48593D01*
X94599Y-48722D01*
X94827Y-48767D01*
X95055Y-48722D01*
X95248Y-48593D01*
X95264Y-48576D01*
X95393Y-48383D01*
X95439Y-48155D01*
X95439Y-55441D01*
X95392Y-55372D01*
X95377Y-55357D01*
X95201Y-55238D01*
X94992Y-55197D01*
X94783Y-55238D01*
X94607Y-55357D01*
X94545Y-55449D01*
X94545Y-52892D01*
X94545Y-51392D01*
X94486Y-51249D01*
X94544Y-51108D01*
X94545Y-50892D01*
X94462Y-50691D01*
X94309Y-50538D01*
X94108Y-50455D01*
X93892Y-50454D01*
X93691Y-50537D01*
X93538Y-50690D01*
X93455Y-50891D01*
X93454Y-51107D01*
X93513Y-51250D01*
X93455Y-51391D01*
X93454Y-51607D01*
X93537Y-51808D01*
X93690Y-51961D01*
X93891Y-52044D01*
X94107Y-52045D01*
X94308Y-51962D01*
X94461Y-51809D01*
X94544Y-51608D01*
X94545Y-51392D01*
X94545Y-52892D01*
X94462Y-52691D01*
X94309Y-52538D01*
X94108Y-52455D01*
X93892Y-52454D01*
X93691Y-52537D01*
X93538Y-52690D01*
X93455Y-52891D01*
X93454Y-53107D01*
X93537Y-53308D01*
X93690Y-53461D01*
X93891Y-53544D01*
X94107Y-53545D01*
X94308Y-53462D01*
X94461Y-53309D01*
X94544Y-53108D01*
X94545Y-52892D01*
X94545Y-55449D01*
X94488Y-55533D01*
X94447Y-55742D01*
X94488Y-55951D01*
X94607Y-56127D01*
X94622Y-56142D01*
X94798Y-56261D01*
X95007Y-56302D01*
X95216Y-56261D01*
X95392Y-56142D01*
X95511Y-55966D01*
X95552Y-55757D01*
X95552Y-58590D01*
X95495Y-58647D01*
X95412Y-58848D01*
X95412Y-59065D01*
X95494Y-59265D01*
X95647Y-59418D01*
X95848Y-59502D01*
X96065Y-59502D01*
X96265Y-59419D01*
X96418Y-59266D01*
X96502Y-59065D01*
X96502Y-58849D01*
X96502Y-61200D01*
X95087Y-61200D01*
X95087Y-57434D01*
X95005Y-57234D01*
X94852Y-57081D01*
X94651Y-56997D01*
X94434Y-56997D01*
X94234Y-57080D01*
X94081Y-57233D01*
X93997Y-57434D01*
X93997Y-57650D01*
X94080Y-57851D01*
X94233Y-58004D01*
X94434Y-58087D01*
X94650Y-58087D01*
X94851Y-58005D01*
X95004Y-57852D01*
X95087Y-57651D01*
X95087Y-57434D01*
X95087Y-61200D01*
X92295Y-61200D01*
X92295Y-52892D01*
X92295Y-50892D01*
X92212Y-50691D01*
X92095Y-50574D01*
X92095Y-45882D01*
X92095Y-45882D01*
X92095Y-44795D01*
X92095Y-44105D01*
X92057Y-44013D01*
X91986Y-43943D01*
X91894Y-43905D01*
X91795Y-43904D01*
X91105Y-43904D01*
X91013Y-43942D01*
X90943Y-44013D01*
X90905Y-44105D01*
X90904Y-44204D01*
X90904Y-44894D01*
X90942Y-44986D01*
X91013Y-45056D01*
X91105Y-45094D01*
X91204Y-45095D01*
X91894Y-45095D01*
X91986Y-45057D01*
X92056Y-44986D01*
X92094Y-44894D01*
X92095Y-44795D01*
X92095Y-45882D01*
X92004Y-45663D01*
X91837Y-45495D01*
X91618Y-45405D01*
X91382Y-45404D01*
X91163Y-45495D01*
X90995Y-45662D01*
X90905Y-45881D01*
X90904Y-46117D01*
X90995Y-46336D01*
X91162Y-46504D01*
X91381Y-46594D01*
X91617Y-46595D01*
X91836Y-46504D01*
X92004Y-46337D01*
X92094Y-46118D01*
X92095Y-45882D01*
X92095Y-50574D01*
X92059Y-50538D01*
X92055Y-50536D01*
X92055Y-49500D01*
X92014Y-49291D01*
X91896Y-49114D01*
X91719Y-48996D01*
X91510Y-48955D01*
X91489Y-48955D01*
X91280Y-48996D01*
X91103Y-49114D01*
X90985Y-49291D01*
X90944Y-49500D01*
X90985Y-49708D01*
X91103Y-49885D01*
X91280Y-50003D01*
X91489Y-50045D01*
X91510Y-50045D01*
X91719Y-50003D01*
X91896Y-49885D01*
X92014Y-49708D01*
X92055Y-49500D01*
X92055Y-50536D01*
X91858Y-50455D01*
X91642Y-50454D01*
X91441Y-50537D01*
X91288Y-50690D01*
X91205Y-50891D01*
X91204Y-51107D01*
X91287Y-51308D01*
X91440Y-51461D01*
X91641Y-51544D01*
X91857Y-51545D01*
X92058Y-51462D01*
X92211Y-51309D01*
X92294Y-51108D01*
X92295Y-50892D01*
X92295Y-52892D01*
X92212Y-52691D01*
X92059Y-52538D01*
X91858Y-52455D01*
X91642Y-52454D01*
X91441Y-52537D01*
X91288Y-52690D01*
X91205Y-52891D01*
X91204Y-53107D01*
X91287Y-53308D01*
X91440Y-53461D01*
X91641Y-53544D01*
X91857Y-53545D01*
X92058Y-53462D01*
X92211Y-53309D01*
X92294Y-53108D01*
X92295Y-52892D01*
X92295Y-61200D01*
X92045Y-61200D01*
X92045Y-56642D01*
X92045Y-54642D01*
X91962Y-54441D01*
X91809Y-54288D01*
X91608Y-54205D01*
X91392Y-54204D01*
X91191Y-54287D01*
X91038Y-54440D01*
X90955Y-54641D01*
X90954Y-54857D01*
X91037Y-55058D01*
X91190Y-55211D01*
X91391Y-55294D01*
X91607Y-55295D01*
X91808Y-55212D01*
X91961Y-55059D01*
X92044Y-54858D01*
X92045Y-54642D01*
X92045Y-56642D01*
X91962Y-56441D01*
X91809Y-56288D01*
X91608Y-56205D01*
X91392Y-56204D01*
X91191Y-56287D01*
X91038Y-56440D01*
X90955Y-56641D01*
X90954Y-56857D01*
X91037Y-57058D01*
X91190Y-57211D01*
X91391Y-57294D01*
X91607Y-57295D01*
X91808Y-57212D01*
X91961Y-57059D01*
X92044Y-56858D01*
X92045Y-56642D01*
X92045Y-61200D01*
X90045Y-61200D01*
X90045Y-52892D01*
X90045Y-50892D01*
X89962Y-50691D01*
X89809Y-50538D01*
X89608Y-50455D01*
X89392Y-50454D01*
X89191Y-50537D01*
X89038Y-50690D01*
X88955Y-50891D01*
X88954Y-51107D01*
X89037Y-51308D01*
X89190Y-51461D01*
X89391Y-51544D01*
X89607Y-51545D01*
X89808Y-51462D01*
X89961Y-51309D01*
X90044Y-51108D01*
X90045Y-50892D01*
X90045Y-52892D01*
X89962Y-52691D01*
X89809Y-52538D01*
X89608Y-52455D01*
X89392Y-52454D01*
X89191Y-52537D01*
X89038Y-52690D01*
X88955Y-52891D01*
X88954Y-53107D01*
X89037Y-53308D01*
X89190Y-53461D01*
X89391Y-53544D01*
X89607Y-53545D01*
X89808Y-53462D01*
X89961Y-53309D01*
X90044Y-53108D01*
X90045Y-52892D01*
X90045Y-61200D01*
X89795Y-61200D01*
X89795Y-56642D01*
X89795Y-54642D01*
X89712Y-54441D01*
X89559Y-54288D01*
X89358Y-54205D01*
X89142Y-54204D01*
X88941Y-54287D01*
X88788Y-54440D01*
X88705Y-54641D01*
X88704Y-54857D01*
X88787Y-55058D01*
X88940Y-55211D01*
X89141Y-55294D01*
X89357Y-55295D01*
X89558Y-55212D01*
X89711Y-55059D01*
X89794Y-54858D01*
X89795Y-54642D01*
X89795Y-56642D01*
X89712Y-56441D01*
X89559Y-56288D01*
X89358Y-56205D01*
X89142Y-56204D01*
X88941Y-56287D01*
X88788Y-56440D01*
X88705Y-56641D01*
X88704Y-56857D01*
X88787Y-57058D01*
X88940Y-57211D01*
X89141Y-57294D01*
X89357Y-57295D01*
X89558Y-57212D01*
X89711Y-57059D01*
X89794Y-56858D01*
X89795Y-56642D01*
X89795Y-61200D01*
X88805Y-61200D01*
X88805Y-58000D01*
X88764Y-57791D01*
X88646Y-57614D01*
X88469Y-57496D01*
X88260Y-57455D01*
X88239Y-57455D01*
X88106Y-57481D01*
X88106Y-44500D01*
X88061Y-44272D01*
X87932Y-44079D01*
X87739Y-43950D01*
X87511Y-43905D01*
X87488Y-43905D01*
X87260Y-43950D01*
X87067Y-44079D01*
X86938Y-44272D01*
X86893Y-44500D01*
X86938Y-44727D01*
X87067Y-44920D01*
X87260Y-45049D01*
X87488Y-45095D01*
X87511Y-45095D01*
X87739Y-45049D01*
X87932Y-44920D01*
X88061Y-44727D01*
X88106Y-44500D01*
X88106Y-57481D01*
X88095Y-57483D01*
X88095Y-45882D01*
X88004Y-45663D01*
X87837Y-45495D01*
X87618Y-45405D01*
X87382Y-45404D01*
X87163Y-45495D01*
X86995Y-45662D01*
X86973Y-45717D01*
X86962Y-45691D01*
X86809Y-45538D01*
X86608Y-45455D01*
X86392Y-45454D01*
X86191Y-45537D01*
X86038Y-45690D01*
X85955Y-45891D01*
X85954Y-46107D01*
X86037Y-46308D01*
X86190Y-46461D01*
X86391Y-46544D01*
X86607Y-46545D01*
X86808Y-46462D01*
X86961Y-46309D01*
X86972Y-46282D01*
X86995Y-46336D01*
X87162Y-46504D01*
X87381Y-46594D01*
X87617Y-46595D01*
X87836Y-46504D01*
X88004Y-46337D01*
X88094Y-46118D01*
X88095Y-45882D01*
X88095Y-57483D01*
X88055Y-57491D01*
X88055Y-53500D01*
X88055Y-50500D01*
X88014Y-50291D01*
X87896Y-50114D01*
X87724Y-50000D01*
X87896Y-49885D01*
X88014Y-49708D01*
X88055Y-49500D01*
X88014Y-49291D01*
X87896Y-49114D01*
X87719Y-48996D01*
X87510Y-48955D01*
X87489Y-48955D01*
X87280Y-48996D01*
X87103Y-49114D01*
X87045Y-49202D01*
X87045Y-48642D01*
X86962Y-48441D01*
X86809Y-48288D01*
X86608Y-48205D01*
X86392Y-48204D01*
X86191Y-48287D01*
X86038Y-48440D01*
X85955Y-48641D01*
X85954Y-48857D01*
X86037Y-49058D01*
X86190Y-49211D01*
X86391Y-49294D01*
X86607Y-49295D01*
X86808Y-49212D01*
X86961Y-49059D01*
X87044Y-48858D01*
X87045Y-48642D01*
X87045Y-49202D01*
X86985Y-49291D01*
X86944Y-49500D01*
X86985Y-49708D01*
X87103Y-49885D01*
X87275Y-50000D01*
X87103Y-50114D01*
X87000Y-50270D01*
X86896Y-50114D01*
X86719Y-49996D01*
X86510Y-49955D01*
X86489Y-49955D01*
X86280Y-49996D01*
X86103Y-50114D01*
X86000Y-50270D01*
X85896Y-50114D01*
X85719Y-49996D01*
X85510Y-49955D01*
X85489Y-49955D01*
X85280Y-49996D01*
X85103Y-50114D01*
X85045Y-50202D01*
X85045Y-48642D01*
X85045Y-45892D01*
X84962Y-45691D01*
X84809Y-45538D01*
X84608Y-45455D01*
X84392Y-45454D01*
X84191Y-45537D01*
X84038Y-45690D01*
X83955Y-45891D01*
X83954Y-46107D01*
X84037Y-46308D01*
X84190Y-46461D01*
X84391Y-46544D01*
X84607Y-46545D01*
X84808Y-46462D01*
X84961Y-46309D01*
X85044Y-46108D01*
X85045Y-45892D01*
X85045Y-48642D01*
X84962Y-48441D01*
X84809Y-48288D01*
X84608Y-48205D01*
X84392Y-48204D01*
X84191Y-48287D01*
X84038Y-48440D01*
X83955Y-48641D01*
X83954Y-48857D01*
X84037Y-49058D01*
X84190Y-49211D01*
X84391Y-49294D01*
X84607Y-49295D01*
X84808Y-49212D01*
X84961Y-49059D01*
X85044Y-48858D01*
X85045Y-48642D01*
X85045Y-50202D01*
X85000Y-50270D01*
X84896Y-50114D01*
X84719Y-49996D01*
X84510Y-49955D01*
X84489Y-49955D01*
X84280Y-49996D01*
X84103Y-50114D01*
X83985Y-50291D01*
X83944Y-50500D01*
X83985Y-50708D01*
X84103Y-50885D01*
X84280Y-51003D01*
X84489Y-51045D01*
X84510Y-51045D01*
X84719Y-51003D01*
X84896Y-50885D01*
X85000Y-50729D01*
X85103Y-50885D01*
X85280Y-51003D01*
X85489Y-51045D01*
X85510Y-51045D01*
X85719Y-51003D01*
X85896Y-50885D01*
X86000Y-50729D01*
X86103Y-50885D01*
X86280Y-51003D01*
X86489Y-51045D01*
X86510Y-51045D01*
X86719Y-51003D01*
X86896Y-50885D01*
X87000Y-50729D01*
X87103Y-50885D01*
X87280Y-51003D01*
X87489Y-51045D01*
X87510Y-51045D01*
X87719Y-51003D01*
X87896Y-50885D01*
X88014Y-50708D01*
X88055Y-50500D01*
X88055Y-53500D01*
X88014Y-53291D01*
X87896Y-53114D01*
X87719Y-52996D01*
X87510Y-52955D01*
X87489Y-52955D01*
X87280Y-52996D01*
X87103Y-53114D01*
X87000Y-53270D01*
X86896Y-53114D01*
X86719Y-52996D01*
X86510Y-52955D01*
X86489Y-52955D01*
X86280Y-52996D01*
X86103Y-53114D01*
X86000Y-53270D01*
X85896Y-53114D01*
X85719Y-52996D01*
X85510Y-52955D01*
X85489Y-52955D01*
X85280Y-52996D01*
X85103Y-53114D01*
X85045Y-53202D01*
X85045Y-53155D01*
X85007Y-53063D01*
X84936Y-52993D01*
X84844Y-52955D01*
X84745Y-52954D01*
X84155Y-52954D01*
X84063Y-52992D01*
X83993Y-53063D01*
X83955Y-53155D01*
X83954Y-53254D01*
X83954Y-53844D01*
X83992Y-53936D01*
X84063Y-54006D01*
X84155Y-54044D01*
X84254Y-54045D01*
X84844Y-54045D01*
X84936Y-54007D01*
X85006Y-53936D01*
X85044Y-53844D01*
X85044Y-53797D01*
X85103Y-53885D01*
X85280Y-54003D01*
X85489Y-54045D01*
X85510Y-54045D01*
X85719Y-54003D01*
X85896Y-53885D01*
X86000Y-53729D01*
X86103Y-53885D01*
X86280Y-54003D01*
X86489Y-54045D01*
X86510Y-54045D01*
X86719Y-54003D01*
X86896Y-53885D01*
X87000Y-53729D01*
X87103Y-53885D01*
X87280Y-54003D01*
X87489Y-54045D01*
X87510Y-54045D01*
X87719Y-54003D01*
X87896Y-53885D01*
X88014Y-53708D01*
X88055Y-53500D01*
X88055Y-57491D01*
X88030Y-57496D01*
X87853Y-57614D01*
X87735Y-57791D01*
X87694Y-58000D01*
X87735Y-58208D01*
X87853Y-58385D01*
X88030Y-58503D01*
X88239Y-58545D01*
X88260Y-58545D01*
X88469Y-58503D01*
X88646Y-58385D01*
X88764Y-58208D01*
X88805Y-58000D01*
X88805Y-61200D01*
X87545Y-61200D01*
X87545Y-56642D01*
X87545Y-54642D01*
X87462Y-54441D01*
X87309Y-54288D01*
X87108Y-54205D01*
X86892Y-54204D01*
X86691Y-54287D01*
X86538Y-54440D01*
X86455Y-54641D01*
X86454Y-54857D01*
X86537Y-55058D01*
X86690Y-55211D01*
X86891Y-55294D01*
X87107Y-55295D01*
X87308Y-55212D01*
X87461Y-55059D01*
X87544Y-54858D01*
X87545Y-54642D01*
X87545Y-56642D01*
X87462Y-56441D01*
X87309Y-56288D01*
X87108Y-56205D01*
X86892Y-56204D01*
X86691Y-56287D01*
X86538Y-56440D01*
X86455Y-56641D01*
X86454Y-56857D01*
X86537Y-57058D01*
X86690Y-57211D01*
X86891Y-57294D01*
X87107Y-57295D01*
X87308Y-57212D01*
X87461Y-57059D01*
X87544Y-56858D01*
X87545Y-56642D01*
X87545Y-61200D01*
X85295Y-61200D01*
X85295Y-56642D01*
X85295Y-54642D01*
X85212Y-54441D01*
X85059Y-54288D01*
X84858Y-54205D01*
X84642Y-54204D01*
X84441Y-54287D01*
X84288Y-54440D01*
X84205Y-54641D01*
X84204Y-54857D01*
X84287Y-55058D01*
X84440Y-55211D01*
X84641Y-55294D01*
X84857Y-55295D01*
X85058Y-55212D01*
X85211Y-55059D01*
X85294Y-54858D01*
X85295Y-54642D01*
X85295Y-56642D01*
X85212Y-56441D01*
X85059Y-56288D01*
X84858Y-56205D01*
X84642Y-56204D01*
X84441Y-56287D01*
X84288Y-56440D01*
X84205Y-56641D01*
X84204Y-56857D01*
X84287Y-57058D01*
X84440Y-57211D01*
X84641Y-57294D01*
X84857Y-57295D01*
X85058Y-57212D01*
X85211Y-57059D01*
X85294Y-56858D01*
X85295Y-56642D01*
X85295Y-61200D01*
X84805Y-61200D01*
X84805Y-58000D01*
X84764Y-57791D01*
X84646Y-57614D01*
X84469Y-57496D01*
X84260Y-57455D01*
X84239Y-57455D01*
X84030Y-57496D01*
X83853Y-57614D01*
X83735Y-57791D01*
X83694Y-58000D01*
X83735Y-58208D01*
X83853Y-58385D01*
X84030Y-58503D01*
X84239Y-58545D01*
X84260Y-58545D01*
X84469Y-58503D01*
X84646Y-58385D01*
X84764Y-58208D01*
X84805Y-58000D01*
X84805Y-61200D01*
X83545Y-61200D01*
X83545Y-58010D01*
X83545Y-57989D01*
X83545Y-54010D01*
X83545Y-53989D01*
X83503Y-53780D01*
X83385Y-53603D01*
X83208Y-53485D01*
X83045Y-53453D01*
X83045Y-52892D01*
X83045Y-50892D01*
X82962Y-50691D01*
X82809Y-50538D01*
X82608Y-50455D01*
X82392Y-50454D01*
X82191Y-50537D01*
X82038Y-50690D01*
X81955Y-50891D01*
X81954Y-51107D01*
X82037Y-51308D01*
X82190Y-51461D01*
X82391Y-51544D01*
X82607Y-51545D01*
X82808Y-51462D01*
X82961Y-51309D01*
X83044Y-51108D01*
X83045Y-50892D01*
X83045Y-52892D01*
X82962Y-52691D01*
X82809Y-52538D01*
X82608Y-52455D01*
X82392Y-52454D01*
X82191Y-52537D01*
X82038Y-52690D01*
X81955Y-52891D01*
X81954Y-53107D01*
X82037Y-53308D01*
X82190Y-53461D01*
X82391Y-53544D01*
X82607Y-53545D01*
X82808Y-53462D01*
X82961Y-53309D01*
X83044Y-53108D01*
X83045Y-52892D01*
X83045Y-53453D01*
X83000Y-53444D01*
X82791Y-53485D01*
X82614Y-53603D01*
X82496Y-53780D01*
X82455Y-53989D01*
X82455Y-54010D01*
X82496Y-54219D01*
X82614Y-54396D01*
X82791Y-54514D01*
X83000Y-54555D01*
X83208Y-54514D01*
X83385Y-54396D01*
X83503Y-54219D01*
X83545Y-54010D01*
X83545Y-57989D01*
X83503Y-57780D01*
X83385Y-57603D01*
X83208Y-57485D01*
X83000Y-57444D01*
X82791Y-57485D01*
X82614Y-57603D01*
X82496Y-57780D01*
X82455Y-57989D01*
X82455Y-58010D01*
X82496Y-58219D01*
X82614Y-58396D01*
X82791Y-58514D01*
X83000Y-58555D01*
X83208Y-58514D01*
X83385Y-58396D01*
X83503Y-58219D01*
X83545Y-58010D01*
X83545Y-61200D01*
X82050Y-61200D01*
X82050Y-59229D01*
X82045Y-59224D01*
X82045Y-55763D01*
X82045Y-55441D01*
X82003Y-55232D01*
X81885Y-55056D01*
X81708Y-54937D01*
X81500Y-54896D01*
X81291Y-54937D01*
X81114Y-55056D01*
X81106Y-55067D01*
X81106Y-48500D01*
X81061Y-48272D01*
X80932Y-48079D01*
X80813Y-48000D01*
X80932Y-47920D01*
X81061Y-47727D01*
X81106Y-47500D01*
X81061Y-47272D01*
X80932Y-47079D01*
X80739Y-46950D01*
X80511Y-46905D01*
X80488Y-46905D01*
X80260Y-46950D01*
X80067Y-47079D01*
X79938Y-47272D01*
X79893Y-47500D01*
X79938Y-47727D01*
X80067Y-47920D01*
X80186Y-48000D01*
X80067Y-48079D01*
X79938Y-48272D01*
X79893Y-48500D01*
X79938Y-48727D01*
X80067Y-48920D01*
X80260Y-49049D01*
X80488Y-49095D01*
X80511Y-49095D01*
X80739Y-49049D01*
X80932Y-48920D01*
X81061Y-48727D01*
X81106Y-48500D01*
X81106Y-55067D01*
X81095Y-55085D01*
X81095Y-50295D01*
X81095Y-49605D01*
X81057Y-49513D01*
X80986Y-49443D01*
X80894Y-49405D01*
X80795Y-49404D01*
X80105Y-49404D01*
X80013Y-49442D01*
X79943Y-49513D01*
X79905Y-49605D01*
X79904Y-49704D01*
X79904Y-50394D01*
X79942Y-50486D01*
X80013Y-50556D01*
X80105Y-50594D01*
X80204Y-50595D01*
X80894Y-50595D01*
X80986Y-50557D01*
X81056Y-50486D01*
X81094Y-50394D01*
X81095Y-50295D01*
X81095Y-55085D01*
X81095Y-55085D01*
X81095Y-54011D01*
X81095Y-53988D01*
X81049Y-53760D01*
X80920Y-53567D01*
X80727Y-53438D01*
X80500Y-53393D01*
X80272Y-53438D01*
X80079Y-53567D01*
X79950Y-53760D01*
X79905Y-53988D01*
X79905Y-54011D01*
X79950Y-54239D01*
X80079Y-54432D01*
X80272Y-54561D01*
X80500Y-54606D01*
X80727Y-54561D01*
X80920Y-54432D01*
X81049Y-54239D01*
X81095Y-54011D01*
X81095Y-55085D01*
X81000Y-55227D01*
X80885Y-55056D01*
X80708Y-54937D01*
X80500Y-54896D01*
X80291Y-54937D01*
X80114Y-55056D01*
X79996Y-55232D01*
X79955Y-55441D01*
X79955Y-55763D01*
X79996Y-55972D01*
X80114Y-56148D01*
X80291Y-56267D01*
X80455Y-56299D01*
X80455Y-56558D01*
X80496Y-56767D01*
X80614Y-56943D01*
X80791Y-57062D01*
X81000Y-57103D01*
X81208Y-57062D01*
X81385Y-56943D01*
X81503Y-56767D01*
X81545Y-56558D01*
X81545Y-56299D01*
X81708Y-56267D01*
X81885Y-56148D01*
X82003Y-55972D01*
X82045Y-55763D01*
X82045Y-59224D01*
X81270Y-58450D01*
X79300Y-58450D01*
X79300Y-46050D01*
X81270Y-46050D01*
X82050Y-45270D01*
X82050Y-43300D01*
X110200Y-43300D01*
X110200Y-45270D01*
X110979Y-46050D01*
X115950Y-46050D01*
X115950Y-58450D01*
X115950Y-58450D01*
G37*
G54D25*
X115950Y-58450D02*
X115595Y-58450D01*
X115595Y-55394D01*
X115595Y-54605D01*
X115595Y-53295D01*
X115595Y-52605D01*
X115595Y-51295D01*
X115595Y-50605D01*
X115557Y-50513D01*
X115486Y-50443D01*
X115394Y-50405D01*
X115295Y-50404D01*
X112605Y-50404D01*
X112513Y-50442D01*
X112443Y-50513D01*
X112405Y-50605D01*
X112404Y-50704D01*
X112404Y-51394D01*
X112442Y-51486D01*
X112513Y-51556D01*
X112605Y-51594D01*
X112704Y-51595D01*
X115394Y-51595D01*
X115486Y-51557D01*
X115556Y-51486D01*
X115594Y-51394D01*
X115595Y-51295D01*
X115595Y-52605D01*
X115557Y-52513D01*
X115486Y-52443D01*
X115394Y-52405D01*
X115295Y-52404D01*
X112605Y-52404D01*
X112513Y-52442D01*
X112443Y-52513D01*
X112405Y-52605D01*
X112404Y-52704D01*
X112404Y-53394D01*
X112442Y-53486D01*
X112513Y-53556D01*
X112605Y-53594D01*
X112704Y-53595D01*
X115394Y-53595D01*
X115486Y-53557D01*
X115556Y-53486D01*
X115594Y-53394D01*
X115595Y-53295D01*
X115595Y-54605D01*
X115557Y-54513D01*
X115486Y-54443D01*
X115394Y-54405D01*
X115295Y-54404D01*
X114112Y-54405D01*
X114050Y-54467D01*
X114050Y-54950D01*
X115532Y-54950D01*
X115595Y-54887D01*
X115595Y-54605D01*
X115595Y-55394D01*
X115595Y-55112D01*
X115532Y-55050D01*
X114050Y-55050D01*
X114050Y-55532D01*
X114112Y-55595D01*
X115295Y-55595D01*
X115394Y-55594D01*
X115486Y-55556D01*
X115557Y-55486D01*
X115595Y-55394D01*
X115595Y-58450D01*
X113950Y-58450D01*
X113950Y-55532D01*
X113950Y-55050D01*
X113950Y-54950D01*
X113950Y-54467D01*
X113887Y-54405D01*
X112704Y-54404D01*
X112605Y-54405D01*
X112513Y-54443D01*
X112442Y-54513D01*
X112404Y-54605D01*
X112405Y-54887D01*
X112467Y-54950D01*
X113950Y-54950D01*
X113950Y-55050D01*
X112467Y-55050D01*
X112405Y-55112D01*
X112404Y-55394D01*
X112442Y-55486D01*
X112513Y-55556D01*
X112605Y-55594D01*
X112704Y-55595D01*
X113887Y-55595D01*
X113950Y-55532D01*
X113950Y-58450D01*
X111795Y-58450D01*
X111795Y-52892D01*
X111795Y-50892D01*
X111712Y-50691D01*
X111559Y-50538D01*
X111358Y-50455D01*
X111142Y-50454D01*
X110941Y-50537D01*
X110788Y-50690D01*
X110705Y-50891D01*
X110704Y-51107D01*
X110787Y-51308D01*
X110940Y-51461D01*
X111141Y-51544D01*
X111357Y-51545D01*
X111558Y-51462D01*
X111711Y-51309D01*
X111794Y-51108D01*
X111795Y-50892D01*
X111795Y-52892D01*
X111712Y-52691D01*
X111559Y-52538D01*
X111358Y-52455D01*
X111142Y-52454D01*
X110941Y-52537D01*
X110788Y-52690D01*
X110705Y-52891D01*
X110704Y-53107D01*
X110787Y-53308D01*
X110940Y-53461D01*
X111141Y-53544D01*
X111357Y-53545D01*
X111558Y-53462D01*
X111711Y-53309D01*
X111794Y-53108D01*
X111795Y-52892D01*
X111795Y-58450D01*
X110979Y-58450D01*
X110200Y-59229D01*
X110200Y-61200D01*
X109545Y-61200D01*
X109545Y-52892D01*
X109545Y-51392D01*
X109486Y-51249D01*
X109544Y-51108D01*
X109545Y-50892D01*
X109462Y-50691D01*
X109309Y-50538D01*
X109108Y-50455D01*
X108892Y-50454D01*
X108691Y-50537D01*
X108630Y-50598D01*
X108630Y-48335D01*
X108589Y-48127D01*
X108471Y-47950D01*
X108456Y-47935D01*
X108279Y-47817D01*
X108070Y-47775D01*
X107862Y-47817D01*
X107685Y-47935D01*
X107567Y-48112D01*
X107525Y-48320D01*
X107567Y-48529D01*
X107685Y-48706D01*
X107700Y-48721D01*
X107877Y-48839D01*
X108085Y-48880D01*
X108294Y-48839D01*
X108471Y-48721D01*
X108589Y-48544D01*
X108630Y-48335D01*
X108630Y-50598D01*
X108538Y-50690D01*
X108455Y-50891D01*
X108454Y-51107D01*
X108513Y-51250D01*
X108455Y-51391D01*
X108454Y-51607D01*
X108537Y-51808D01*
X108690Y-51961D01*
X108891Y-52044D01*
X109107Y-52045D01*
X109308Y-51962D01*
X109461Y-51809D01*
X109544Y-51608D01*
X109545Y-51392D01*
X109545Y-52892D01*
X109462Y-52691D01*
X109309Y-52538D01*
X109108Y-52455D01*
X108892Y-52454D01*
X108691Y-52537D01*
X108538Y-52690D01*
X108455Y-52891D01*
X108454Y-53107D01*
X108537Y-53308D01*
X108690Y-53461D01*
X108891Y-53544D01*
X109107Y-53545D01*
X109308Y-53462D01*
X109461Y-53309D01*
X109544Y-53108D01*
X109545Y-52892D01*
X109545Y-61200D01*
X108767Y-61200D01*
X108767Y-55827D01*
X108722Y-55599D01*
X108593Y-55406D01*
X108400Y-55277D01*
X108172Y-55232D01*
X107944Y-55277D01*
X107751Y-55406D01*
X107735Y-55423D01*
X107606Y-55616D01*
X107560Y-55844D01*
X107606Y-56071D01*
X107735Y-56264D01*
X107928Y-56393D01*
X108155Y-56439D01*
X108383Y-56393D01*
X108576Y-56264D01*
X108593Y-56248D01*
X108722Y-56055D01*
X108767Y-55827D01*
X108767Y-61200D01*
X107175Y-61200D01*
X107175Y-54415D01*
X107175Y-52665D01*
X107110Y-52509D01*
X106991Y-52389D01*
X106834Y-52325D01*
X106665Y-52324D01*
X106509Y-52389D01*
X106389Y-52508D01*
X106325Y-52665D01*
X106324Y-52834D01*
X106389Y-52990D01*
X106508Y-53110D01*
X106665Y-53174D01*
X106834Y-53175D01*
X106990Y-53110D01*
X107110Y-52991D01*
X107174Y-52834D01*
X107175Y-52665D01*
X107175Y-54415D01*
X107110Y-54259D01*
X106991Y-54139D01*
X106834Y-54075D01*
X106665Y-54074D01*
X106509Y-54139D01*
X106389Y-54258D01*
X106325Y-54415D01*
X106324Y-54584D01*
X106389Y-54740D01*
X106508Y-54860D01*
X106665Y-54924D01*
X106834Y-54925D01*
X106990Y-54860D01*
X107110Y-54741D01*
X107174Y-54584D01*
X107175Y-54415D01*
X107175Y-61200D01*
X106073Y-61200D01*
X106073Y-58614D01*
X106035Y-58522D01*
X105965Y-58452D01*
X105802Y-58289D01*
X105802Y-45507D01*
X105761Y-45298D01*
X105642Y-45122D01*
X105627Y-45107D01*
X105451Y-44988D01*
X105242Y-44947D01*
X105033Y-44988D01*
X104857Y-45107D01*
X104738Y-45283D01*
X104697Y-45492D01*
X104738Y-45701D01*
X104857Y-45877D01*
X104872Y-45892D01*
X105048Y-46011D01*
X105257Y-46052D01*
X105466Y-46011D01*
X105642Y-45892D01*
X105761Y-45716D01*
X105802Y-45507D01*
X105802Y-58289D01*
X105477Y-57964D01*
X105385Y-57926D01*
X105286Y-57926D01*
X105194Y-57964D01*
X105123Y-58034D01*
X104636Y-58522D01*
X104597Y-58614D01*
X104597Y-58713D01*
X104635Y-58805D01*
X104706Y-58876D01*
X105193Y-59363D01*
X105285Y-59402D01*
X105385Y-59402D01*
X105477Y-59364D01*
X105547Y-59293D01*
X106035Y-58806D01*
X106073Y-58714D01*
X106073Y-58614D01*
X106073Y-61200D01*
X103925Y-61200D01*
X103925Y-52665D01*
X103925Y-51415D01*
X103860Y-51259D01*
X103741Y-51139D01*
X103584Y-51075D01*
X103415Y-51074D01*
X103295Y-51124D01*
X103295Y-44392D01*
X103212Y-44191D01*
X103059Y-44038D01*
X102858Y-43955D01*
X102642Y-43954D01*
X102499Y-44013D01*
X102358Y-43955D01*
X102142Y-43954D01*
X101941Y-44037D01*
X101788Y-44190D01*
X101705Y-44391D01*
X101704Y-44607D01*
X101787Y-44808D01*
X101940Y-44961D01*
X102141Y-45044D01*
X102357Y-45045D01*
X102500Y-44986D01*
X102641Y-45044D01*
X102857Y-45045D01*
X103058Y-44962D01*
X103211Y-44809D01*
X103294Y-44608D01*
X103295Y-44392D01*
X103295Y-51124D01*
X103259Y-51139D01*
X103139Y-51258D01*
X103075Y-51415D01*
X103074Y-51584D01*
X103139Y-51740D01*
X103258Y-51860D01*
X103415Y-51924D01*
X103584Y-51925D01*
X103740Y-51860D01*
X103860Y-51741D01*
X103924Y-51584D01*
X103925Y-51415D01*
X103925Y-52665D01*
X103860Y-52509D01*
X103741Y-52389D01*
X103584Y-52325D01*
X103415Y-52324D01*
X103259Y-52389D01*
X103139Y-52508D01*
X103075Y-52665D01*
X103074Y-52834D01*
X103139Y-52990D01*
X103258Y-53110D01*
X103415Y-53174D01*
X103584Y-53175D01*
X103740Y-53110D01*
X103860Y-52991D01*
X103924Y-52834D01*
X103925Y-52665D01*
X103925Y-61200D01*
X103045Y-61200D01*
X103045Y-59642D01*
X103000Y-59533D01*
X103000Y-51900D01*
X102924Y-51717D01*
X102783Y-51576D01*
X102649Y-51520D01*
X102699Y-51399D01*
X102700Y-51200D01*
X102624Y-51017D01*
X102483Y-50876D01*
X102299Y-50800D01*
X102100Y-50799D01*
X101979Y-50850D01*
X101924Y-50717D01*
X101783Y-50576D01*
X101599Y-50500D01*
X101400Y-50499D01*
X101295Y-50543D01*
X101295Y-44392D01*
X101212Y-44191D01*
X101059Y-44038D01*
X100858Y-43955D01*
X100642Y-43954D01*
X100441Y-44037D01*
X100288Y-44190D01*
X100205Y-44391D01*
X100204Y-44607D01*
X100287Y-44808D01*
X100440Y-44961D01*
X100641Y-45044D01*
X100857Y-45045D01*
X101058Y-44962D01*
X101211Y-44809D01*
X101294Y-44608D01*
X101295Y-44392D01*
X101295Y-50543D01*
X101217Y-50575D01*
X101076Y-50716D01*
X101020Y-50850D01*
X100899Y-50800D01*
X100700Y-50799D01*
X100517Y-50875D01*
X100376Y-51016D01*
X100300Y-51200D01*
X100299Y-51399D01*
X100350Y-51520D01*
X100217Y-51575D01*
X100076Y-51716D01*
X100000Y-51900D01*
X99999Y-52099D01*
X100075Y-52282D01*
X100216Y-52423D01*
X100350Y-52479D01*
X100300Y-52600D01*
X100299Y-52799D01*
X100375Y-52982D01*
X100516Y-53123D01*
X100700Y-53199D01*
X100899Y-53200D01*
X101020Y-53149D01*
X101075Y-53282D01*
X101216Y-53423D01*
X101400Y-53499D01*
X101599Y-53500D01*
X101782Y-53424D01*
X101923Y-53283D01*
X101979Y-53149D01*
X102100Y-53199D01*
X102299Y-53200D01*
X102482Y-53124D01*
X102623Y-52983D01*
X102699Y-52799D01*
X102700Y-52600D01*
X102649Y-52479D01*
X102782Y-52424D01*
X102923Y-52283D01*
X102999Y-52099D01*
X103000Y-51900D01*
X103000Y-59533D01*
X102962Y-59441D01*
X102809Y-59288D01*
X102608Y-59205D01*
X102392Y-59204D01*
X102191Y-59287D01*
X102038Y-59440D01*
X102000Y-59532D01*
X101962Y-59441D01*
X101809Y-59288D01*
X101608Y-59205D01*
X101392Y-59204D01*
X101191Y-59287D01*
X101038Y-59440D01*
X101000Y-59532D01*
X100962Y-59441D01*
X100809Y-59288D01*
X100608Y-59205D01*
X100425Y-59204D01*
X100425Y-54415D01*
X100360Y-54259D01*
X100241Y-54139D01*
X100084Y-54075D01*
X99915Y-54074D01*
X99759Y-54139D01*
X99639Y-54258D01*
X99575Y-54415D01*
X99574Y-54584D01*
X99639Y-54740D01*
X99758Y-54860D01*
X99915Y-54924D01*
X100084Y-54925D01*
X100240Y-54860D01*
X100360Y-54741D01*
X100424Y-54584D01*
X100425Y-54415D01*
X100425Y-59204D01*
X100392Y-59204D01*
X100191Y-59287D01*
X100038Y-59440D01*
X99955Y-59641D01*
X99954Y-59857D01*
X100037Y-60058D01*
X100190Y-60211D01*
X100391Y-60294D01*
X100607Y-60295D01*
X100808Y-60212D01*
X100961Y-60059D01*
X100999Y-59967D01*
X101037Y-60058D01*
X101190Y-60211D01*
X101391Y-60294D01*
X101607Y-60295D01*
X101808Y-60212D01*
X101961Y-60059D01*
X101999Y-59967D01*
X102037Y-60058D01*
X102190Y-60211D01*
X102391Y-60294D01*
X102607Y-60295D01*
X102808Y-60212D01*
X102961Y-60059D01*
X103044Y-59858D01*
X103045Y-59642D01*
X103045Y-61200D01*
X99675Y-61200D01*
X99675Y-55915D01*
X99610Y-55759D01*
X99491Y-55639D01*
X99334Y-55575D01*
X99165Y-55574D01*
X99009Y-55639D01*
X98889Y-55758D01*
X98825Y-55915D01*
X98824Y-56084D01*
X98889Y-56240D01*
X99008Y-56360D01*
X99165Y-56424D01*
X99334Y-56425D01*
X99490Y-56360D01*
X99610Y-56241D01*
X99674Y-56084D01*
X99675Y-55915D01*
X99675Y-61200D01*
X98402Y-61200D01*
X98402Y-45286D01*
X98364Y-45194D01*
X98293Y-45123D01*
X97806Y-44636D01*
X97714Y-44597D01*
X97614Y-44597D01*
X97522Y-44635D01*
X97452Y-44706D01*
X96964Y-45193D01*
X96926Y-45285D01*
X96926Y-45385D01*
X96964Y-45477D01*
X97034Y-45547D01*
X97522Y-46035D01*
X97614Y-46073D01*
X97713Y-46073D01*
X97805Y-46035D01*
X97876Y-45965D01*
X98363Y-45477D01*
X98402Y-45385D01*
X98402Y-45286D01*
X98402Y-61200D01*
X98380Y-61200D01*
X98380Y-58585D01*
X98339Y-58377D01*
X98221Y-58200D01*
X98206Y-58185D01*
X98029Y-58067D01*
X97820Y-58025D01*
X97612Y-58067D01*
X97435Y-58185D01*
X97317Y-58362D01*
X97275Y-58570D01*
X97317Y-58779D01*
X97435Y-58956D01*
X97450Y-58971D01*
X97627Y-59089D01*
X97835Y-59130D01*
X98044Y-59089D01*
X98221Y-58971D01*
X98339Y-58794D01*
X98380Y-58585D01*
X98380Y-61200D01*
X96502Y-61200D01*
X96502Y-58849D01*
X96419Y-58648D01*
X96266Y-58495D01*
X96065Y-58412D01*
X95849Y-58412D01*
X95648Y-58494D01*
X95552Y-58590D01*
X95552Y-55757D01*
X95511Y-55548D01*
X95439Y-55441D01*
X95439Y-48155D01*
X95393Y-47928D01*
X95264Y-47735D01*
X95071Y-47606D01*
X94844Y-47560D01*
X94616Y-47606D01*
X94423Y-47735D01*
X94406Y-47751D01*
X94277Y-47944D01*
X94232Y-48172D01*
X94277Y-48400D01*
X94406Y-48593D01*
X94599Y-48722D01*
X94827Y-48767D01*
X95055Y-48722D01*
X95248Y-48593D01*
X95264Y-48576D01*
X95393Y-48383D01*
X95439Y-48155D01*
X95439Y-55441D01*
X95392Y-55372D01*
X95377Y-55357D01*
X95201Y-55238D01*
X94992Y-55197D01*
X94783Y-55238D01*
X94607Y-55357D01*
X94545Y-55449D01*
X94545Y-52892D01*
X94545Y-51392D01*
X94486Y-51249D01*
X94544Y-51108D01*
X94545Y-50892D01*
X94462Y-50691D01*
X94309Y-50538D01*
X94108Y-50455D01*
X93892Y-50454D01*
X93691Y-50537D01*
X93538Y-50690D01*
X93455Y-50891D01*
X93454Y-51107D01*
X93513Y-51250D01*
X93455Y-51391D01*
X93454Y-51607D01*
X93537Y-51808D01*
X93690Y-51961D01*
X93891Y-52044D01*
X94107Y-52045D01*
X94308Y-51962D01*
X94461Y-51809D01*
X94544Y-51608D01*
X94545Y-51392D01*
X94545Y-52892D01*
X94462Y-52691D01*
X94309Y-52538D01*
X94108Y-52455D01*
X93892Y-52454D01*
X93691Y-52537D01*
X93538Y-52690D01*
X93455Y-52891D01*
X93454Y-53107D01*
X93537Y-53308D01*
X93690Y-53461D01*
X93891Y-53544D01*
X94107Y-53545D01*
X94308Y-53462D01*
X94461Y-53309D01*
X94544Y-53108D01*
X94545Y-52892D01*
X94545Y-55449D01*
X94488Y-55533D01*
X94447Y-55742D01*
X94488Y-55951D01*
X94607Y-56127D01*
X94622Y-56142D01*
X94798Y-56261D01*
X95007Y-56302D01*
X95216Y-56261D01*
X95392Y-56142D01*
X95511Y-55966D01*
X95552Y-55757D01*
X95552Y-58590D01*
X95495Y-58647D01*
X95412Y-58848D01*
X95412Y-59065D01*
X95494Y-59265D01*
X95647Y-59418D01*
X95848Y-59502D01*
X96065Y-59502D01*
X96265Y-59419D01*
X96418Y-59266D01*
X96502Y-59065D01*
X96502Y-58849D01*
X96502Y-61200D01*
X95087Y-61200D01*
X95087Y-57434D01*
X95005Y-57234D01*
X94852Y-57081D01*
X94651Y-56997D01*
X94434Y-56997D01*
X94234Y-57080D01*
X94081Y-57233D01*
X93997Y-57434D01*
X93997Y-57650D01*
X94080Y-57851D01*
X94233Y-58004D01*
X94434Y-58087D01*
X94650Y-58087D01*
X94851Y-58005D01*
X95004Y-57852D01*
X95087Y-57651D01*
X95087Y-57434D01*
X95087Y-61200D01*
X92295Y-61200D01*
X92295Y-52892D01*
X92295Y-50892D01*
X92212Y-50691D01*
X92095Y-50574D01*
X92095Y-45882D01*
X92095Y-45882D01*
X92095Y-44795D01*
X92095Y-44105D01*
X92057Y-44013D01*
X91986Y-43943D01*
X91894Y-43905D01*
X91795Y-43904D01*
X91105Y-43904D01*
X91013Y-43942D01*
X90943Y-44013D01*
X90905Y-44105D01*
X90904Y-44204D01*
X90904Y-44894D01*
X90942Y-44986D01*
X91013Y-45056D01*
X91105Y-45094D01*
X91204Y-45095D01*
X91894Y-45095D01*
X91986Y-45057D01*
X92056Y-44986D01*
X92094Y-44894D01*
X92095Y-44795D01*
X92095Y-45882D01*
X92004Y-45663D01*
X91837Y-45495D01*
X91618Y-45405D01*
X91382Y-45404D01*
X91163Y-45495D01*
X90995Y-45662D01*
X90905Y-45881D01*
X90904Y-46117D01*
X90995Y-46336D01*
X91162Y-46504D01*
X91381Y-46594D01*
X91617Y-46595D01*
X91836Y-46504D01*
X92004Y-46337D01*
X92094Y-46118D01*
X92095Y-45882D01*
X92095Y-50574D01*
X92059Y-50538D01*
X92055Y-50536D01*
X92055Y-49500D01*
X92014Y-49291D01*
X91896Y-49114D01*
X91719Y-48996D01*
X91510Y-48955D01*
X91489Y-48955D01*
X91280Y-48996D01*
X91103Y-49114D01*
X90985Y-49291D01*
X90944Y-49500D01*
X90985Y-49708D01*
X91103Y-49885D01*
X91280Y-50003D01*
X91489Y-50045D01*
X91510Y-50045D01*
X91719Y-50003D01*
X91896Y-49885D01*
X92014Y-49708D01*
X92055Y-49500D01*
X92055Y-50536D01*
X91858Y-50455D01*
X91642Y-50454D01*
X91441Y-50537D01*
X91288Y-50690D01*
X91205Y-50891D01*
X91204Y-51107D01*
X91287Y-51308D01*
X91440Y-51461D01*
X91641Y-51544D01*
X91857Y-51545D01*
X92058Y-51462D01*
X92211Y-51309D01*
X92294Y-51108D01*
X92295Y-50892D01*
X92295Y-52892D01*
X92212Y-52691D01*
X92059Y-52538D01*
X91858Y-52455D01*
X91642Y-52454D01*
X91441Y-52537D01*
X91288Y-52690D01*
X91205Y-52891D01*
X91204Y-53107D01*
X91287Y-53308D01*
X91440Y-53461D01*
X91641Y-53544D01*
X91857Y-53545D01*
X92058Y-53462D01*
X92211Y-53309D01*
X92294Y-53108D01*
X92295Y-52892D01*
X92295Y-61200D01*
X92045Y-61200D01*
X92045Y-56642D01*
X92045Y-54642D01*
X91962Y-54441D01*
X91809Y-54288D01*
X91608Y-54205D01*
X91392Y-54204D01*
X91191Y-54287D01*
X91038Y-54440D01*
X90955Y-54641D01*
X90954Y-54857D01*
X91037Y-55058D01*
X91190Y-55211D01*
X91391Y-55294D01*
X91607Y-55295D01*
X91808Y-55212D01*
X91961Y-55059D01*
X92044Y-54858D01*
X92045Y-54642D01*
X92045Y-56642D01*
X91962Y-56441D01*
X91809Y-56288D01*
X91608Y-56205D01*
X91392Y-56204D01*
X91191Y-56287D01*
X91038Y-56440D01*
X90955Y-56641D01*
X90954Y-56857D01*
X91037Y-57058D01*
X91190Y-57211D01*
X91391Y-57294D01*
X91607Y-57295D01*
X91808Y-57212D01*
X91961Y-57059D01*
X92044Y-56858D01*
X92045Y-56642D01*
X92045Y-61200D01*
X90045Y-61200D01*
X90045Y-52892D01*
X90045Y-50892D01*
X89962Y-50691D01*
X89809Y-50538D01*
X89608Y-50455D01*
X89392Y-50454D01*
X89191Y-50537D01*
X89038Y-50690D01*
X88955Y-50891D01*
X88954Y-51107D01*
X89037Y-51308D01*
X89190Y-51461D01*
X89391Y-51544D01*
X89607Y-51545D01*
X89808Y-51462D01*
X89961Y-51309D01*
X90044Y-51108D01*
X90045Y-50892D01*
X90045Y-52892D01*
X89962Y-52691D01*
X89809Y-52538D01*
X89608Y-52455D01*
X89392Y-52454D01*
X89191Y-52537D01*
X89038Y-52690D01*
X88955Y-52891D01*
X88954Y-53107D01*
X89037Y-53308D01*
X89190Y-53461D01*
X89391Y-53544D01*
X89607Y-53545D01*
X89808Y-53462D01*
X89961Y-53309D01*
X90044Y-53108D01*
X90045Y-52892D01*
X90045Y-61200D01*
X89795Y-61200D01*
X89795Y-56642D01*
X89795Y-54642D01*
X89712Y-54441D01*
X89559Y-54288D01*
X89358Y-54205D01*
X89142Y-54204D01*
X88941Y-54287D01*
X88788Y-54440D01*
X88705Y-54641D01*
X88704Y-54857D01*
X88787Y-55058D01*
X88940Y-55211D01*
X89141Y-55294D01*
X89357Y-55295D01*
X89558Y-55212D01*
X89711Y-55059D01*
X89794Y-54858D01*
X89795Y-54642D01*
X89795Y-56642D01*
X89712Y-56441D01*
X89559Y-56288D01*
X89358Y-56205D01*
X89142Y-56204D01*
X88941Y-56287D01*
X88788Y-56440D01*
X88705Y-56641D01*
X88704Y-56857D01*
X88787Y-57058D01*
X88940Y-57211D01*
X89141Y-57294D01*
X89357Y-57295D01*
X89558Y-57212D01*
X89711Y-57059D01*
X89794Y-56858D01*
X89795Y-56642D01*
X89795Y-61200D01*
X88805Y-61200D01*
X88805Y-58000D01*
X88764Y-57791D01*
X88646Y-57614D01*
X88469Y-57496D01*
X88260Y-57455D01*
X88239Y-57455D01*
X88106Y-57481D01*
X88106Y-44500D01*
X88061Y-44272D01*
X87932Y-44079D01*
X87739Y-43950D01*
X87511Y-43905D01*
X87488Y-43905D01*
X87260Y-43950D01*
X87067Y-44079D01*
X86938Y-44272D01*
X86893Y-44500D01*
X86938Y-44727D01*
X87067Y-44920D01*
X87260Y-45049D01*
X87488Y-45095D01*
X87511Y-45095D01*
X87739Y-45049D01*
X87932Y-44920D01*
X88061Y-44727D01*
X88106Y-44500D01*
X88106Y-57481D01*
X88095Y-57483D01*
X88095Y-45882D01*
X88004Y-45663D01*
X87837Y-45495D01*
X87618Y-45405D01*
X87382Y-45404D01*
X87163Y-45495D01*
X86995Y-45662D01*
X86973Y-45717D01*
X86962Y-45691D01*
X86809Y-45538D01*
X86608Y-45455D01*
X86392Y-45454D01*
X86191Y-45537D01*
X86038Y-45690D01*
X85955Y-45891D01*
X85954Y-46107D01*
X86037Y-46308D01*
X86190Y-46461D01*
X86391Y-46544D01*
X86607Y-46545D01*
X86808Y-46462D01*
X86961Y-46309D01*
X86972Y-46282D01*
X86995Y-46336D01*
X87162Y-46504D01*
X87381Y-46594D01*
X87617Y-46595D01*
X87836Y-46504D01*
X88004Y-46337D01*
X88094Y-46118D01*
X88095Y-45882D01*
X88095Y-57483D01*
X88055Y-57491D01*
X88055Y-53500D01*
X88055Y-50500D01*
X88014Y-50291D01*
X87896Y-50114D01*
X87724Y-50000D01*
X87896Y-49885D01*
X88014Y-49708D01*
X88055Y-49500D01*
X88014Y-49291D01*
X87896Y-49114D01*
X87719Y-48996D01*
X87510Y-48955D01*
X87489Y-48955D01*
X87280Y-48996D01*
X87103Y-49114D01*
X87045Y-49202D01*
X87045Y-48642D01*
X86962Y-48441D01*
X86809Y-48288D01*
X86608Y-48205D01*
X86392Y-48204D01*
X86191Y-48287D01*
X86038Y-48440D01*
X85955Y-48641D01*
X85954Y-48857D01*
X86037Y-49058D01*
X86190Y-49211D01*
X86391Y-49294D01*
X86607Y-49295D01*
X86808Y-49212D01*
X86961Y-49059D01*
X87044Y-48858D01*
X87045Y-48642D01*
X87045Y-49202D01*
X86985Y-49291D01*
X86944Y-49500D01*
X86985Y-49708D01*
X87103Y-49885D01*
X87275Y-50000D01*
X87103Y-50114D01*
X87000Y-50270D01*
X86896Y-50114D01*
X86719Y-49996D01*
X86510Y-49955D01*
X86489Y-49955D01*
X86280Y-49996D01*
X86103Y-50114D01*
X86000Y-50270D01*
X85896Y-50114D01*
X85719Y-49996D01*
X85510Y-49955D01*
X85489Y-49955D01*
X85280Y-49996D01*
X85103Y-50114D01*
X85045Y-50202D01*
X85045Y-48642D01*
X85045Y-45892D01*
X84962Y-45691D01*
X84809Y-45538D01*
X84608Y-45455D01*
X84392Y-45454D01*
X84191Y-45537D01*
X84038Y-45690D01*
X83955Y-45891D01*
X83954Y-46107D01*
X84037Y-46308D01*
X84190Y-46461D01*
X84391Y-46544D01*
X84607Y-46545D01*
X84808Y-46462D01*
X84961Y-46309D01*
X85044Y-46108D01*
X85045Y-45892D01*
X85045Y-48642D01*
X84962Y-48441D01*
X84809Y-48288D01*
X84608Y-48205D01*
X84392Y-48204D01*
X84191Y-48287D01*
X84038Y-48440D01*
X83955Y-48641D01*
X83954Y-48857D01*
X84037Y-49058D01*
X84190Y-49211D01*
X84391Y-49294D01*
X84607Y-49295D01*
X84808Y-49212D01*
X84961Y-49059D01*
X85044Y-48858D01*
X85045Y-48642D01*
X85045Y-50202D01*
X85000Y-50270D01*
X84896Y-50114D01*
X84719Y-49996D01*
X84510Y-49955D01*
X84489Y-49955D01*
X84280Y-49996D01*
X84103Y-50114D01*
X83985Y-50291D01*
X83944Y-50500D01*
X83985Y-50708D01*
X84103Y-50885D01*
X84280Y-51003D01*
X84489Y-51045D01*
X84510Y-51045D01*
X84719Y-51003D01*
X84896Y-50885D01*
X85000Y-50729D01*
X85103Y-50885D01*
X85280Y-51003D01*
X85489Y-51045D01*
X85510Y-51045D01*
X85719Y-51003D01*
X85896Y-50885D01*
X86000Y-50729D01*
X86103Y-50885D01*
X86280Y-51003D01*
X86489Y-51045D01*
X86510Y-51045D01*
X86719Y-51003D01*
X86896Y-50885D01*
X87000Y-50729D01*
X87103Y-50885D01*
X87280Y-51003D01*
X87489Y-51045D01*
X87510Y-51045D01*
X87719Y-51003D01*
X87896Y-50885D01*
X88014Y-50708D01*
X88055Y-50500D01*
X88055Y-53500D01*
X88014Y-53291D01*
X87896Y-53114D01*
X87719Y-52996D01*
X87510Y-52955D01*
X87489Y-52955D01*
X87280Y-52996D01*
X87103Y-53114D01*
X87000Y-53270D01*
X86896Y-53114D01*
X86719Y-52996D01*
X86510Y-52955D01*
X86489Y-52955D01*
X86280Y-52996D01*
X86103Y-53114D01*
X86000Y-53270D01*
X85896Y-53114D01*
X85719Y-52996D01*
X85510Y-52955D01*
X85489Y-52955D01*
X85280Y-52996D01*
X85103Y-53114D01*
X85045Y-53202D01*
X85045Y-53155D01*
X85007Y-53063D01*
X84936Y-52993D01*
X84844Y-52955D01*
X84745Y-52954D01*
X84155Y-52954D01*
X84063Y-52992D01*
X83993Y-53063D01*
X83955Y-53155D01*
X83954Y-53254D01*
X83954Y-53844D01*
X83992Y-53936D01*
X84063Y-54006D01*
X84155Y-54044D01*
X84254Y-54045D01*
X84844Y-54045D01*
X84936Y-54007D01*
X85006Y-53936D01*
X85044Y-53844D01*
X85044Y-53797D01*
X85103Y-53885D01*
X85280Y-54003D01*
X85489Y-54045D01*
X85510Y-54045D01*
X85719Y-54003D01*
X85896Y-53885D01*
X86000Y-53729D01*
X86103Y-53885D01*
X86280Y-54003D01*
X86489Y-54045D01*
X86510Y-54045D01*
X86719Y-54003D01*
X86896Y-53885D01*
X87000Y-53729D01*
X87103Y-53885D01*
X87280Y-54003D01*
X87489Y-54045D01*
X87510Y-54045D01*
X87719Y-54003D01*
X87896Y-53885D01*
X88014Y-53708D01*
X88055Y-53500D01*
X88055Y-57491D01*
X88030Y-57496D01*
X87853Y-57614D01*
X87735Y-57791D01*
X87694Y-58000D01*
X87735Y-58208D01*
X87853Y-58385D01*
X88030Y-58503D01*
X88239Y-58545D01*
X88260Y-58545D01*
X88469Y-58503D01*
X88646Y-58385D01*
X88764Y-58208D01*
X88805Y-58000D01*
X88805Y-61200D01*
X87545Y-61200D01*
X87545Y-56642D01*
X87545Y-54642D01*
X87462Y-54441D01*
X87309Y-54288D01*
X87108Y-54205D01*
X86892Y-54204D01*
X86691Y-54287D01*
X86538Y-54440D01*
X86455Y-54641D01*
X86454Y-54857D01*
X86537Y-55058D01*
X86690Y-55211D01*
X86891Y-55294D01*
X87107Y-55295D01*
X87308Y-55212D01*
X87461Y-55059D01*
X87544Y-54858D01*
X87545Y-54642D01*
X87545Y-56642D01*
X87462Y-56441D01*
X87309Y-56288D01*
X87108Y-56205D01*
X86892Y-56204D01*
X86691Y-56287D01*
X86538Y-56440D01*
X86455Y-56641D01*
X86454Y-56857D01*
X86537Y-57058D01*
X86690Y-57211D01*
X86891Y-57294D01*
X87107Y-57295D01*
X87308Y-57212D01*
X87461Y-57059D01*
X87544Y-56858D01*
X87545Y-56642D01*
X87545Y-61200D01*
X85295Y-61200D01*
X85295Y-56642D01*
X85295Y-54642D01*
X85212Y-54441D01*
X85059Y-54288D01*
X84858Y-54205D01*
X84642Y-54204D01*
X84441Y-54287D01*
X84288Y-54440D01*
X84205Y-54641D01*
X84204Y-54857D01*
X84287Y-55058D01*
X84440Y-55211D01*
X84641Y-55294D01*
X84857Y-55295D01*
X85058Y-55212D01*
X85211Y-55059D01*
X85294Y-54858D01*
X85295Y-54642D01*
X85295Y-56642D01*
X85212Y-56441D01*
X85059Y-56288D01*
X84858Y-56205D01*
X84642Y-56204D01*
X84441Y-56287D01*
X84288Y-56440D01*
X84205Y-56641D01*
X84204Y-56857D01*
X84287Y-57058D01*
X84440Y-57211D01*
X84641Y-57294D01*
X84857Y-57295D01*
X85058Y-57212D01*
X85211Y-57059D01*
X85294Y-56858D01*
X85295Y-56642D01*
X85295Y-61200D01*
X84805Y-61200D01*
X84805Y-58000D01*
X84764Y-57791D01*
X84646Y-57614D01*
X84469Y-57496D01*
X84260Y-57455D01*
X84239Y-57455D01*
X84030Y-57496D01*
X83853Y-57614D01*
X83735Y-57791D01*
X83694Y-58000D01*
X83735Y-58208D01*
X83853Y-58385D01*
X84030Y-58503D01*
X84239Y-58545D01*
X84260Y-58545D01*
X84469Y-58503D01*
X84646Y-58385D01*
X84764Y-58208D01*
X84805Y-58000D01*
X84805Y-61200D01*
X83545Y-61200D01*
X83545Y-58010D01*
X83545Y-57989D01*
X83545Y-54010D01*
X83545Y-53989D01*
X83503Y-53780D01*
X83385Y-53603D01*
X83208Y-53485D01*
X83045Y-53453D01*
X83045Y-52892D01*
X83045Y-50892D01*
X82962Y-50691D01*
X82809Y-50538D01*
X82608Y-50455D01*
X82392Y-50454D01*
X82191Y-50537D01*
X82038Y-50690D01*
X81955Y-50891D01*
X81954Y-51107D01*
X82037Y-51308D01*
X82190Y-51461D01*
X82391Y-51544D01*
X82607Y-51545D01*
X82808Y-51462D01*
X82961Y-51309D01*
X83044Y-51108D01*
X83045Y-50892D01*
X83045Y-52892D01*
X82962Y-52691D01*
X82809Y-52538D01*
X82608Y-52455D01*
X82392Y-52454D01*
X82191Y-52537D01*
X82038Y-52690D01*
X81955Y-52891D01*
X81954Y-53107D01*
X82037Y-53308D01*
X82190Y-53461D01*
X82391Y-53544D01*
X82607Y-53545D01*
X82808Y-53462D01*
X82961Y-53309D01*
X83044Y-53108D01*
X83045Y-52892D01*
X83045Y-53453D01*
X83000Y-53444D01*
X82791Y-53485D01*
X82614Y-53603D01*
X82496Y-53780D01*
X82455Y-53989D01*
X82455Y-54010D01*
X82496Y-54219D01*
X82614Y-54396D01*
X82791Y-54514D01*
X83000Y-54555D01*
X83208Y-54514D01*
X83385Y-54396D01*
X83503Y-54219D01*
X83545Y-54010D01*
X83545Y-57989D01*
X83503Y-57780D01*
X83385Y-57603D01*
X83208Y-57485D01*
X83000Y-57444D01*
X82791Y-57485D01*
X82614Y-57603D01*
X82496Y-57780D01*
X82455Y-57989D01*
X82455Y-58010D01*
X82496Y-58219D01*
X82614Y-58396D01*
X82791Y-58514D01*
X83000Y-58555D01*
X83208Y-58514D01*
X83385Y-58396D01*
X83503Y-58219D01*
X83545Y-58010D01*
X83545Y-61200D01*
X82050Y-61200D01*
X82050Y-59229D01*
X82045Y-59224D01*
X82045Y-55763D01*
X82045Y-55441D01*
X82003Y-55232D01*
X81885Y-55056D01*
X81708Y-54937D01*
X81500Y-54896D01*
X81291Y-54937D01*
X81114Y-55056D01*
X81106Y-55067D01*
X81106Y-48500D01*
X81061Y-48272D01*
X80932Y-48079D01*
X80813Y-48000D01*
X80932Y-47920D01*
X81061Y-47727D01*
X81106Y-47500D01*
X81061Y-47272D01*
X80932Y-47079D01*
X80739Y-46950D01*
X80511Y-46905D01*
X80488Y-46905D01*
X80260Y-46950D01*
X80067Y-47079D01*
X79938Y-47272D01*
X79893Y-47500D01*
X79938Y-47727D01*
X80067Y-47920D01*
X80186Y-48000D01*
X80067Y-48079D01*
X79938Y-48272D01*
X79893Y-48500D01*
X79938Y-48727D01*
X80067Y-48920D01*
X80260Y-49049D01*
X80488Y-49095D01*
X80511Y-49095D01*
X80739Y-49049D01*
X80932Y-48920D01*
X81061Y-48727D01*
X81106Y-48500D01*
X81106Y-55067D01*
X81095Y-55085D01*
X81095Y-50295D01*
X81095Y-49605D01*
X81057Y-49513D01*
X80986Y-49443D01*
X80894Y-49405D01*
X80795Y-49404D01*
X80105Y-49404D01*
X80013Y-49442D01*
X79943Y-49513D01*
X79905Y-49605D01*
X79904Y-49704D01*
X79904Y-50394D01*
X79942Y-50486D01*
X80013Y-50556D01*
X80105Y-50594D01*
X80204Y-50595D01*
X80894Y-50595D01*
X80986Y-50557D01*
X81056Y-50486D01*
X81094Y-50394D01*
X81095Y-50295D01*
X81095Y-55085D01*
X81095Y-55085D01*
X81095Y-54011D01*
X81095Y-53988D01*
X81049Y-53760D01*
X80920Y-53567D01*
X80727Y-53438D01*
X80500Y-53393D01*
X80272Y-53438D01*
X80079Y-53567D01*
X79950Y-53760D01*
X79905Y-53988D01*
X79905Y-54011D01*
X79950Y-54239D01*
X80079Y-54432D01*
X80272Y-54561D01*
X80500Y-54606D01*
X80727Y-54561D01*
X80920Y-54432D01*
X81049Y-54239D01*
X81095Y-54011D01*
X81095Y-55085D01*
X81000Y-55227D01*
X80885Y-55056D01*
X80708Y-54937D01*
X80500Y-54896D01*
X80291Y-54937D01*
X80114Y-55056D01*
X79996Y-55232D01*
X79955Y-55441D01*
X79955Y-55763D01*
X79996Y-55972D01*
X80114Y-56148D01*
X80291Y-56267D01*
X80455Y-56299D01*
X80455Y-56558D01*
X80496Y-56767D01*
X80614Y-56943D01*
X80791Y-57062D01*
X81000Y-57103D01*
X81208Y-57062D01*
X81385Y-56943D01*
X81503Y-56767D01*
X81545Y-56558D01*
X81545Y-56299D01*
X81708Y-56267D01*
X81885Y-56148D01*
X82003Y-55972D01*
X82045Y-55763D01*
X82045Y-59224D01*
X81270Y-58450D01*
X79300Y-58450D01*
X79300Y-46050D01*
X81270Y-46050D01*
X82050Y-45270D01*
X82050Y-43300D01*
X110200Y-43300D01*
X110200Y-45270D01*
X110979Y-46050D01*
X115950Y-46050D01*
X115950Y-58450D01*
M02*
