G04 (created by PCBNEW (22-Jun-2014 BZR 4027)-stable) date Mon 25 Jun 2018 12:33:54 AM CDT*
%MOIN*%
G04 Gerber Fmt 3.4, Leading zero omitted, Abs format*
%FSLAX34Y34*%
G01*
G70*
G90*
G04 APERTURE LIST*
%ADD10C,0.00590551*%
%ADD11C,0.006*%
%ADD12C,0.005*%
%ADD13C,0.008*%
%ADD14C,0.00787402*%
%ADD15C,0.007*%
%ADD16C,0.016*%
%ADD17C,0.01*%
%ADD18C,0.0001*%
G04 APERTURE END LIST*
G54D10*
G54D11*
X100145Y-31053D02*
X100186Y-31033D01*
X100206Y-31033D01*
X100236Y-31043D01*
X100267Y-31073D01*
X100277Y-31104D01*
X100277Y-31124D01*
X100267Y-31154D01*
X100186Y-31235D01*
X99974Y-31023D01*
X100044Y-30952D01*
X100075Y-30942D01*
X100095Y-30942D01*
X100125Y-30952D01*
X100145Y-30972D01*
X100156Y-31003D01*
X100156Y-31023D01*
X100145Y-31053D01*
X100075Y-31124D01*
X100186Y-30811D02*
X100358Y-30982D01*
X100388Y-30992D01*
X100408Y-30992D01*
X100438Y-30982D01*
X100479Y-30942D01*
X100489Y-30912D01*
X100489Y-30891D01*
X100479Y-30861D01*
X100307Y-30689D01*
X100580Y-30619D02*
X100509Y-30689D01*
X100620Y-30800D02*
X100408Y-30588D01*
X100509Y-30487D01*
X100905Y-31204D02*
X101067Y-31042D01*
X101006Y-30840D02*
X101289Y-30982D01*
X101147Y-30699D01*
X101269Y-30719D02*
X101380Y-30608D01*
X101410Y-30861D01*
X101521Y-30749D01*
G54D12*
X96905Y-35684D02*
X96905Y-35494D01*
X96989Y-35196D02*
X97001Y-35160D01*
X97001Y-35101D01*
X96989Y-35077D01*
X96977Y-35065D01*
X96953Y-35053D01*
X96929Y-35053D01*
X96905Y-35065D01*
X96894Y-35077D01*
X96882Y-35101D01*
X96870Y-35148D01*
X96858Y-35172D01*
X96846Y-35184D01*
X96822Y-35196D01*
X96798Y-35196D01*
X96775Y-35184D01*
X96763Y-35172D01*
X96751Y-35148D01*
X96751Y-35089D01*
X96763Y-35053D01*
X97001Y-34946D02*
X96751Y-34946D01*
X96751Y-34886D01*
X96763Y-34851D01*
X96786Y-34827D01*
X96810Y-34815D01*
X96858Y-34803D01*
X96894Y-34803D01*
X96941Y-34815D01*
X96965Y-34827D01*
X96989Y-34851D01*
X97001Y-34886D01*
X97001Y-34946D01*
X96905Y-34505D02*
X96905Y-34315D01*
X97001Y-34410D02*
X96810Y-34410D01*
G54D13*
X92647Y-37202D02*
X92704Y-37221D01*
X92723Y-37240D01*
X92742Y-37278D01*
X92742Y-37335D01*
X92723Y-37373D01*
X92704Y-37392D01*
X92666Y-37411D01*
X92514Y-37411D01*
X92514Y-37011D01*
X92647Y-37011D01*
X92685Y-37030D01*
X92704Y-37050D01*
X92723Y-37088D01*
X92723Y-37126D01*
X92704Y-37164D01*
X92685Y-37183D01*
X92647Y-37202D01*
X92514Y-37202D01*
X92914Y-37011D02*
X92914Y-37335D01*
X92933Y-37373D01*
X92952Y-37392D01*
X92990Y-37411D01*
X93066Y-37411D01*
X93104Y-37392D01*
X93123Y-37373D01*
X93142Y-37335D01*
X93142Y-37011D01*
X93466Y-37202D02*
X93333Y-37202D01*
X93333Y-37411D02*
X93333Y-37011D01*
X93523Y-37011D01*
G54D14*
X89150Y-32500D02*
G75*
G03X89150Y-32500I-3400J0D01*
G74*
G01*
G54D11*
X88950Y-28071D02*
X88950Y-28314D01*
X88935Y-28342D01*
X88921Y-28357D01*
X88892Y-28371D01*
X88850Y-28371D01*
X88821Y-28357D01*
X88950Y-28257D02*
X88921Y-28271D01*
X88864Y-28271D01*
X88835Y-28257D01*
X88821Y-28242D01*
X88807Y-28214D01*
X88807Y-28128D01*
X88821Y-28100D01*
X88835Y-28085D01*
X88864Y-28071D01*
X88921Y-28071D01*
X88950Y-28085D01*
X89092Y-28271D02*
X89092Y-28071D01*
X89092Y-27971D02*
X89078Y-27985D01*
X89092Y-28000D01*
X89107Y-27985D01*
X89092Y-27971D01*
X89092Y-28000D01*
X89192Y-28071D02*
X89307Y-28071D01*
X89235Y-27971D02*
X89235Y-28228D01*
X89250Y-28257D01*
X89278Y-28271D01*
X89307Y-28271D01*
X89407Y-28271D02*
X89407Y-27971D01*
X89535Y-28271D02*
X89535Y-28114D01*
X89521Y-28085D01*
X89492Y-28071D01*
X89450Y-28071D01*
X89421Y-28085D01*
X89407Y-28100D01*
X89807Y-28071D02*
X89807Y-28271D01*
X89678Y-28071D02*
X89678Y-28228D01*
X89692Y-28257D01*
X89721Y-28271D01*
X89764Y-28271D01*
X89792Y-28257D01*
X89807Y-28242D01*
X89950Y-28271D02*
X89950Y-27971D01*
X89950Y-28085D02*
X89978Y-28071D01*
X90035Y-28071D01*
X90064Y-28085D01*
X90078Y-28100D01*
X90092Y-28128D01*
X90092Y-28214D01*
X90078Y-28242D01*
X90064Y-28257D01*
X90035Y-28271D01*
X89978Y-28271D01*
X89950Y-28257D01*
X90221Y-28242D02*
X90235Y-28257D01*
X90221Y-28271D01*
X90207Y-28257D01*
X90221Y-28242D01*
X90221Y-28271D01*
X90492Y-28257D02*
X90464Y-28271D01*
X90407Y-28271D01*
X90378Y-28257D01*
X90364Y-28242D01*
X90350Y-28214D01*
X90350Y-28128D01*
X90364Y-28100D01*
X90378Y-28085D01*
X90407Y-28071D01*
X90464Y-28071D01*
X90492Y-28085D01*
X90664Y-28271D02*
X90635Y-28257D01*
X90621Y-28242D01*
X90607Y-28214D01*
X90607Y-28128D01*
X90621Y-28100D01*
X90635Y-28085D01*
X90664Y-28071D01*
X90707Y-28071D01*
X90735Y-28085D01*
X90750Y-28100D01*
X90764Y-28128D01*
X90764Y-28214D01*
X90750Y-28242D01*
X90735Y-28257D01*
X90707Y-28271D01*
X90664Y-28271D01*
X90892Y-28271D02*
X90892Y-28071D01*
X90892Y-28100D02*
X90907Y-28085D01*
X90935Y-28071D01*
X90978Y-28071D01*
X91007Y-28085D01*
X91021Y-28114D01*
X91021Y-28271D01*
X91021Y-28114D02*
X91035Y-28085D01*
X91064Y-28071D01*
X91107Y-28071D01*
X91135Y-28085D01*
X91150Y-28114D01*
X91150Y-28271D01*
X91507Y-27957D02*
X91250Y-28342D01*
X91607Y-28071D02*
X91607Y-28371D01*
X91607Y-28085D02*
X91635Y-28071D01*
X91692Y-28071D01*
X91721Y-28085D01*
X91735Y-28100D01*
X91750Y-28128D01*
X91750Y-28214D01*
X91735Y-28242D01*
X91721Y-28257D01*
X91692Y-28271D01*
X91635Y-28271D01*
X91607Y-28257D01*
X91992Y-28257D02*
X91964Y-28271D01*
X91907Y-28271D01*
X91878Y-28257D01*
X91864Y-28228D01*
X91864Y-28114D01*
X91878Y-28085D01*
X91907Y-28071D01*
X91964Y-28071D01*
X91992Y-28085D01*
X92007Y-28114D01*
X92007Y-28142D01*
X91864Y-28171D01*
X92135Y-28071D02*
X92135Y-28371D01*
X92135Y-28085D02*
X92164Y-28071D01*
X92221Y-28071D01*
X92250Y-28085D01*
X92264Y-28100D01*
X92278Y-28128D01*
X92278Y-28214D01*
X92264Y-28242D01*
X92250Y-28257D01*
X92221Y-28271D01*
X92164Y-28271D01*
X92135Y-28257D01*
X92535Y-28271D02*
X92535Y-28114D01*
X92521Y-28085D01*
X92492Y-28071D01*
X92435Y-28071D01*
X92407Y-28085D01*
X92535Y-28257D02*
X92507Y-28271D01*
X92435Y-28271D01*
X92407Y-28257D01*
X92392Y-28228D01*
X92392Y-28200D01*
X92407Y-28171D01*
X92435Y-28157D01*
X92507Y-28157D01*
X92535Y-28142D01*
X92664Y-28257D02*
X92692Y-28271D01*
X92750Y-28271D01*
X92778Y-28257D01*
X92792Y-28228D01*
X92792Y-28214D01*
X92778Y-28185D01*
X92750Y-28171D01*
X92707Y-28171D01*
X92678Y-28157D01*
X92664Y-28128D01*
X92664Y-28114D01*
X92678Y-28085D01*
X92707Y-28071D01*
X92750Y-28071D01*
X92778Y-28085D01*
X92964Y-28271D02*
X92935Y-28257D01*
X92921Y-28228D01*
X92921Y-27971D01*
X93207Y-28271D02*
X93207Y-28114D01*
X93192Y-28085D01*
X93164Y-28071D01*
X93107Y-28071D01*
X93078Y-28085D01*
X93207Y-28257D02*
X93178Y-28271D01*
X93107Y-28271D01*
X93078Y-28257D01*
X93064Y-28228D01*
X93064Y-28200D01*
X93078Y-28171D01*
X93107Y-28157D01*
X93178Y-28157D01*
X93207Y-28142D01*
X93350Y-28271D02*
X93350Y-27971D01*
X93350Y-28085D02*
X93378Y-28071D01*
X93435Y-28071D01*
X93464Y-28085D01*
X93478Y-28100D01*
X93492Y-28128D01*
X93492Y-28214D01*
X93478Y-28242D01*
X93464Y-28257D01*
X93435Y-28271D01*
X93378Y-28271D01*
X93350Y-28257D01*
X93607Y-28257D02*
X93635Y-28271D01*
X93692Y-28271D01*
X93721Y-28257D01*
X93735Y-28228D01*
X93735Y-28214D01*
X93721Y-28185D01*
X93692Y-28171D01*
X93650Y-28171D01*
X93621Y-28157D01*
X93607Y-28128D01*
X93607Y-28114D01*
X93621Y-28085D01*
X93650Y-28071D01*
X93692Y-28071D01*
X93721Y-28085D01*
X94078Y-27957D02*
X93821Y-28342D01*
X94178Y-28071D02*
X94178Y-28371D01*
X94178Y-28085D02*
X94207Y-28071D01*
X94264Y-28071D01*
X94292Y-28085D01*
X94307Y-28100D01*
X94321Y-28128D01*
X94321Y-28214D01*
X94307Y-28242D01*
X94292Y-28257D01*
X94264Y-28271D01*
X94207Y-28271D01*
X94178Y-28257D01*
X94421Y-28271D02*
X94578Y-28071D01*
X94421Y-28071D02*
X94578Y-28271D01*
X94692Y-28157D02*
X94921Y-28157D01*
X95064Y-28271D02*
X95064Y-28071D01*
X95064Y-28128D02*
X95078Y-28100D01*
X95092Y-28085D01*
X95121Y-28071D01*
X95150Y-28071D01*
X95364Y-28257D02*
X95335Y-28271D01*
X95278Y-28271D01*
X95250Y-28257D01*
X95235Y-28228D01*
X95235Y-28114D01*
X95250Y-28085D01*
X95278Y-28071D01*
X95335Y-28071D01*
X95364Y-28085D01*
X95378Y-28114D01*
X95378Y-28142D01*
X95235Y-28171D01*
X95464Y-28071D02*
X95578Y-28071D01*
X95507Y-28271D02*
X95507Y-28014D01*
X95521Y-27985D01*
X95550Y-27971D01*
X95578Y-27971D01*
X92942Y-27471D02*
X93014Y-27671D01*
X93085Y-27471D01*
X93185Y-27400D02*
X93200Y-27385D01*
X93228Y-27371D01*
X93300Y-27371D01*
X93328Y-27385D01*
X93342Y-27400D01*
X93357Y-27428D01*
X93357Y-27457D01*
X93342Y-27500D01*
X93171Y-27671D01*
X93357Y-27671D01*
X93485Y-27642D02*
X93499Y-27657D01*
X93485Y-27671D01*
X93471Y-27657D01*
X93485Y-27642D01*
X93485Y-27671D01*
X93771Y-27371D02*
X93628Y-27371D01*
X93614Y-27514D01*
X93628Y-27500D01*
X93657Y-27485D01*
X93728Y-27485D01*
X93757Y-27500D01*
X93771Y-27514D01*
X93785Y-27542D01*
X93785Y-27614D01*
X93771Y-27642D01*
X93757Y-27657D01*
X93728Y-27671D01*
X93657Y-27671D01*
X93628Y-27657D01*
X93614Y-27642D01*
G54D15*
X94514Y-27671D02*
X94371Y-27671D01*
X94371Y-27371D01*
X94571Y-27371D02*
X94742Y-27371D01*
X94657Y-27671D02*
X94657Y-27371D01*
X94814Y-27371D02*
X95014Y-27371D01*
X94814Y-27671D01*
X95014Y-27671D01*
X95285Y-27671D02*
X95114Y-27671D01*
X95199Y-27671D02*
X95199Y-27371D01*
X95171Y-27414D01*
X95142Y-27442D01*
X95114Y-27457D01*
X95471Y-27371D02*
X95499Y-27371D01*
X95528Y-27385D01*
X95542Y-27400D01*
X95557Y-27428D01*
X95571Y-27485D01*
X95571Y-27557D01*
X95557Y-27614D01*
X95542Y-27642D01*
X95528Y-27657D01*
X95499Y-27671D01*
X95471Y-27671D01*
X95442Y-27657D01*
X95428Y-27642D01*
X95414Y-27614D01*
X95399Y-27557D01*
X95399Y-27485D01*
X95414Y-27428D01*
X95428Y-27400D01*
X95442Y-27385D01*
X95471Y-27371D01*
X95757Y-27371D02*
X95785Y-27371D01*
X95814Y-27385D01*
X95828Y-27400D01*
X95842Y-27428D01*
X95857Y-27485D01*
X95857Y-27557D01*
X95842Y-27614D01*
X95828Y-27642D01*
X95814Y-27657D01*
X95785Y-27671D01*
X95757Y-27671D01*
X95728Y-27657D01*
X95714Y-27642D01*
X95699Y-27614D01*
X95685Y-27557D01*
X95685Y-27485D01*
X95699Y-27428D01*
X95714Y-27400D01*
X95728Y-27385D01*
X95757Y-27371D01*
X96042Y-27371D02*
X96071Y-27371D01*
X96099Y-27385D01*
X96114Y-27400D01*
X96128Y-27428D01*
X96142Y-27485D01*
X96142Y-27557D01*
X96128Y-27614D01*
X96114Y-27642D01*
X96099Y-27657D01*
X96071Y-27671D01*
X96042Y-27671D01*
X96014Y-27657D01*
X95999Y-27642D01*
X95985Y-27614D01*
X95971Y-27557D01*
X95971Y-27485D01*
X95985Y-27428D01*
X95999Y-27400D01*
X96014Y-27385D01*
X96042Y-27371D01*
X96471Y-27371D02*
X96671Y-27371D01*
X96542Y-27671D01*
X96742Y-27371D02*
X96842Y-27671D01*
X96942Y-27371D01*
X97271Y-27671D02*
X97271Y-27471D01*
X97271Y-27528D02*
X97285Y-27500D01*
X97299Y-27485D01*
X97328Y-27471D01*
X97357Y-27471D01*
X97571Y-27657D02*
X97542Y-27671D01*
X97485Y-27671D01*
X97457Y-27657D01*
X97442Y-27628D01*
X97442Y-27514D01*
X97457Y-27485D01*
X97485Y-27471D01*
X97542Y-27471D01*
X97571Y-27485D01*
X97585Y-27514D01*
X97585Y-27542D01*
X97442Y-27571D01*
X97671Y-27471D02*
X97785Y-27471D01*
X97714Y-27671D02*
X97714Y-27414D01*
X97728Y-27385D01*
X97757Y-27371D01*
X97785Y-27371D01*
X97999Y-27657D02*
X97971Y-27671D01*
X97914Y-27671D01*
X97885Y-27657D01*
X97871Y-27628D01*
X97871Y-27514D01*
X97885Y-27485D01*
X97914Y-27471D01*
X97971Y-27471D01*
X97999Y-27485D01*
X98014Y-27514D01*
X98014Y-27542D01*
X97871Y-27571D01*
X98142Y-27671D02*
X98142Y-27471D01*
X98142Y-27528D02*
X98157Y-27500D01*
X98171Y-27485D01*
X98199Y-27471D01*
X98228Y-27471D01*
X98442Y-27657D02*
X98414Y-27671D01*
X98357Y-27671D01*
X98328Y-27657D01*
X98314Y-27628D01*
X98314Y-27514D01*
X98328Y-27485D01*
X98357Y-27471D01*
X98414Y-27471D01*
X98442Y-27485D01*
X98457Y-27514D01*
X98457Y-27542D01*
X98314Y-27571D01*
X98585Y-27471D02*
X98585Y-27671D01*
X98585Y-27500D02*
X98599Y-27485D01*
X98628Y-27471D01*
X98671Y-27471D01*
X98699Y-27485D01*
X98714Y-27514D01*
X98714Y-27671D01*
X98985Y-27657D02*
X98957Y-27671D01*
X98899Y-27671D01*
X98871Y-27657D01*
X98857Y-27642D01*
X98842Y-27614D01*
X98842Y-27528D01*
X98857Y-27500D01*
X98871Y-27485D01*
X98899Y-27471D01*
X98957Y-27471D01*
X98985Y-27485D01*
X99228Y-27657D02*
X99199Y-27671D01*
X99142Y-27671D01*
X99114Y-27657D01*
X99099Y-27628D01*
X99099Y-27514D01*
X99114Y-27485D01*
X99142Y-27471D01*
X99199Y-27471D01*
X99228Y-27485D01*
X99242Y-27514D01*
X99242Y-27542D01*
X99099Y-27571D01*
G54D16*
X88890Y-27623D02*
X88890Y-26823D01*
X89195Y-26823D01*
X89271Y-26861D01*
X89309Y-26900D01*
X89347Y-26976D01*
X89347Y-27090D01*
X89309Y-27166D01*
X89271Y-27204D01*
X89195Y-27242D01*
X88890Y-27242D01*
X89614Y-26823D02*
X90147Y-27623D01*
X90147Y-26823D02*
X89614Y-27623D01*
X91519Y-27623D02*
X91252Y-27242D01*
X91061Y-27623D02*
X91061Y-26823D01*
X91366Y-26823D01*
X91442Y-26861D01*
X91480Y-26900D01*
X91519Y-26976D01*
X91519Y-27090D01*
X91480Y-27166D01*
X91442Y-27204D01*
X91366Y-27242D01*
X91061Y-27242D01*
X92166Y-27585D02*
X92090Y-27623D01*
X91938Y-27623D01*
X91861Y-27585D01*
X91823Y-27509D01*
X91823Y-27204D01*
X91861Y-27128D01*
X91938Y-27090D01*
X92090Y-27090D01*
X92166Y-27128D01*
X92204Y-27204D01*
X92204Y-27280D01*
X91823Y-27357D01*
X92433Y-27090D02*
X92738Y-27090D01*
X92547Y-27623D02*
X92547Y-26938D01*
X92585Y-26861D01*
X92661Y-26823D01*
X92738Y-26823D01*
G54D11*
X76478Y-30335D02*
X76450Y-30321D01*
X76407Y-30321D01*
X76364Y-30335D01*
X76335Y-30364D01*
X76321Y-30392D01*
X76307Y-30450D01*
X76307Y-30492D01*
X76321Y-30550D01*
X76335Y-30578D01*
X76364Y-30607D01*
X76407Y-30621D01*
X76435Y-30621D01*
X76478Y-30607D01*
X76492Y-30592D01*
X76492Y-30492D01*
X76435Y-30492D01*
X76621Y-30621D02*
X76621Y-30321D01*
X76792Y-30621D01*
X76792Y-30321D01*
X76935Y-30621D02*
X76935Y-30321D01*
X77007Y-30321D01*
X77050Y-30335D01*
X77078Y-30364D01*
X77092Y-30392D01*
X77107Y-30450D01*
X77107Y-30492D01*
X77092Y-30550D01*
X77078Y-30578D01*
X77050Y-30607D01*
X77007Y-30621D01*
X76935Y-30621D01*
X73650Y-30621D02*
X73478Y-30621D01*
X73564Y-30621D02*
X73564Y-30321D01*
X73535Y-30364D01*
X73507Y-30392D01*
X73478Y-30407D01*
X73921Y-30321D02*
X73778Y-30321D01*
X73764Y-30464D01*
X73778Y-30450D01*
X73807Y-30435D01*
X73878Y-30435D01*
X73907Y-30450D01*
X73921Y-30464D01*
X73935Y-30492D01*
X73935Y-30564D01*
X73921Y-30592D01*
X73907Y-30607D01*
X73878Y-30621D01*
X73807Y-30621D01*
X73778Y-30607D01*
X73764Y-30592D01*
X74021Y-30321D02*
X74121Y-30621D01*
X74221Y-30321D01*
G54D13*
X86314Y-37059D02*
X86619Y-37059D01*
X86752Y-36811D02*
X86885Y-37211D01*
X87019Y-36811D01*
X87114Y-36945D02*
X87323Y-36945D01*
X87114Y-37211D01*
X87323Y-37211D01*
X84014Y-27259D02*
X84319Y-27259D01*
X84166Y-27411D02*
X84166Y-27107D01*
X84452Y-27011D02*
X84585Y-27411D01*
X84719Y-27011D01*
X84814Y-27145D02*
X85023Y-27145D01*
X84814Y-27411D01*
X85023Y-27411D01*
G54D10*
X95350Y-44000D02*
X95350Y-44850D01*
X95350Y-44850D02*
X97150Y-44850D01*
X97150Y-44850D02*
X97150Y-44000D01*
X97150Y-44000D02*
G75*
G03X96250Y-43100I-900J0D01*
G74*
G01*
X96250Y-43100D02*
G75*
G03X95350Y-44000I0J-900D01*
G74*
G01*
G54D17*
X92750Y-38250D02*
X92750Y-38650D01*
X92750Y-38650D02*
X93150Y-38650D01*
X93150Y-38650D02*
X93150Y-41850D01*
X93150Y-41850D02*
X92350Y-41850D01*
X92350Y-41850D02*
X92350Y-38650D01*
X92350Y-38650D02*
X92750Y-38650D01*
X92750Y-42250D02*
X92750Y-41850D01*
X93750Y-42250D02*
X93750Y-41850D01*
X93750Y-41850D02*
X93350Y-41850D01*
X93350Y-41850D02*
X93350Y-38650D01*
X93350Y-38650D02*
X94150Y-38650D01*
X94150Y-38650D02*
X94150Y-41850D01*
X94150Y-41850D02*
X93750Y-41850D01*
X93750Y-38250D02*
X93750Y-38650D01*
X83000Y-38000D02*
X83400Y-38000D01*
X83400Y-38000D02*
X83400Y-37600D01*
X83400Y-37600D02*
X86600Y-37600D01*
X86600Y-37600D02*
X86600Y-38400D01*
X86600Y-38400D02*
X83400Y-38400D01*
X83400Y-38400D02*
X83400Y-38000D01*
X87000Y-38000D02*
X86600Y-38000D01*
X83750Y-28250D02*
X84150Y-28250D01*
X84150Y-28250D02*
X84150Y-27850D01*
X84150Y-27850D02*
X87350Y-27850D01*
X87350Y-27850D02*
X87350Y-28650D01*
X87350Y-28650D02*
X84150Y-28650D01*
X84150Y-28650D02*
X84150Y-28250D01*
X87750Y-28250D02*
X87350Y-28250D01*
X84250Y-40750D02*
X83850Y-40750D01*
X83850Y-40750D02*
X83850Y-41150D01*
X83850Y-41150D02*
X80650Y-41150D01*
X80650Y-41150D02*
X80650Y-40350D01*
X80650Y-40350D02*
X83850Y-40350D01*
X83850Y-40350D02*
X83850Y-40750D01*
X80250Y-40750D02*
X80650Y-40750D01*
X90700Y-40250D02*
G75*
G03X91000Y-40550I300J0D01*
G74*
G01*
X91000Y-39950D02*
G75*
G03X90700Y-40250I0J-300D01*
G74*
G01*
X91000Y-41250D02*
X87000Y-41250D01*
X87000Y-41250D02*
X87000Y-39250D01*
X87000Y-39250D02*
X91000Y-39250D01*
X91000Y-39250D02*
X91000Y-41250D01*
X103000Y-28250D02*
G75*
G03X103000Y-28250I-1750J0D01*
G74*
G01*
X97250Y-40250D02*
X97250Y-41250D01*
X94250Y-40250D02*
X94250Y-41250D01*
X97250Y-41250D02*
X94250Y-41250D01*
X94250Y-40250D02*
X97250Y-40250D01*
X89000Y-37000D02*
X89000Y-36000D01*
X92000Y-37000D02*
X92000Y-36000D01*
X89000Y-36000D02*
X92000Y-36000D01*
X92000Y-37000D02*
X89000Y-37000D01*
X84750Y-38750D02*
X85750Y-38750D01*
X84750Y-41750D02*
X85750Y-41750D01*
X85750Y-38750D02*
X85750Y-41750D01*
X84750Y-41750D02*
X84750Y-38750D01*
X85750Y-38750D02*
X86750Y-38750D01*
X85750Y-41750D02*
X86750Y-41750D01*
X86750Y-38750D02*
X86750Y-41750D01*
X85750Y-41750D02*
X85750Y-38750D01*
X91000Y-42250D02*
X91000Y-43250D01*
X88000Y-42250D02*
X88000Y-43250D01*
X91000Y-43250D02*
X88000Y-43250D01*
X88000Y-42250D02*
X91000Y-42250D01*
X83914Y-36457D02*
X83207Y-37164D01*
X81792Y-34335D02*
X81085Y-35042D01*
X83207Y-37164D02*
X81085Y-35042D01*
X81792Y-34335D02*
X83914Y-36457D01*
X81750Y-34000D02*
X80750Y-34000D01*
X81750Y-31000D02*
X80750Y-31000D01*
X80750Y-34000D02*
X80750Y-31000D01*
X81750Y-31000D02*
X81750Y-34000D01*
X94250Y-40250D02*
X94250Y-39250D01*
X97250Y-40250D02*
X97250Y-39250D01*
X94250Y-39250D02*
X97250Y-39250D01*
X97250Y-40250D02*
X94250Y-40250D01*
X88000Y-38250D02*
X88000Y-37250D01*
X91000Y-38250D02*
X91000Y-37250D01*
X88000Y-37250D02*
X91000Y-37250D01*
X91000Y-38250D02*
X88000Y-38250D01*
X85000Y-43250D02*
X85000Y-42250D01*
X88000Y-43250D02*
X88000Y-42250D01*
X85000Y-42250D02*
X88000Y-42250D01*
X88000Y-43250D02*
X85000Y-43250D01*
X79585Y-29207D02*
X81883Y-26909D01*
X82590Y-27616D02*
X80292Y-29914D01*
X79479Y-28747D02*
X81247Y-26979D01*
X82520Y-28252D02*
X80752Y-30020D01*
X79479Y-30020D02*
G75*
G03X80752Y-30020I636J636D01*
G74*
G01*
X79479Y-28747D02*
G75*
G03X79479Y-30020I636J-636D01*
G74*
G01*
X82520Y-26979D02*
G75*
G03X81247Y-26979I-636J-636D01*
G74*
G01*
X82520Y-28252D02*
G75*
G03X82520Y-26979I-636J636D01*
G74*
G01*
X79479Y-30020D02*
G75*
G03X80752Y-30020I636J636D01*
G74*
G01*
X80292Y-29914D02*
X79585Y-29207D01*
X81883Y-26909D02*
X82590Y-27616D01*
X79000Y-34000D02*
X79000Y-30750D01*
X80000Y-30750D02*
X80000Y-34000D01*
X78600Y-33750D02*
X78600Y-31250D01*
X80400Y-31250D02*
X80400Y-33750D01*
X79500Y-34650D02*
G75*
G03X80400Y-33750I0J900D01*
G74*
G01*
X78600Y-33750D02*
G75*
G03X79500Y-34650I900J0D01*
G74*
G01*
X79500Y-30350D02*
G75*
G03X78600Y-31250I0J-900D01*
G74*
G01*
X80400Y-31250D02*
G75*
G03X79500Y-30350I-900J0D01*
G74*
G01*
X79500Y-34650D02*
G75*
G03X80400Y-33750I0J900D01*
G74*
G01*
X80000Y-34000D02*
X79000Y-34000D01*
X79000Y-30750D02*
X80000Y-30750D01*
X91000Y-34000D02*
X91000Y-30750D01*
X92000Y-30750D02*
X92000Y-34000D01*
X90600Y-33750D02*
X90600Y-31250D01*
X92400Y-31250D02*
X92400Y-33750D01*
X91500Y-34650D02*
G75*
G03X92400Y-33750I0J900D01*
G74*
G01*
X90600Y-33750D02*
G75*
G03X91500Y-34650I900J0D01*
G74*
G01*
X91500Y-30350D02*
G75*
G03X90600Y-31250I0J-900D01*
G74*
G01*
X92400Y-31250D02*
G75*
G03X91500Y-30350I-900J0D01*
G74*
G01*
X91500Y-34650D02*
G75*
G03X92400Y-33750I0J900D01*
G74*
G01*
X92000Y-34000D02*
X91000Y-34000D01*
X91000Y-30750D02*
X92000Y-30750D01*
X75750Y-43000D02*
G75*
G03X75750Y-43000I-1750J0D01*
G74*
G01*
G54D12*
X96350Y-34500D02*
G75*
G03X96350Y-34500I-100J0D01*
G74*
G01*
X94550Y-35700D02*
X94550Y-34300D01*
X96450Y-35700D02*
X96450Y-34300D01*
X96450Y-34300D02*
X94550Y-34300D01*
X96450Y-35700D02*
X94550Y-35700D01*
G54D17*
X89750Y-29000D02*
X90150Y-29000D01*
X90150Y-29000D02*
X90150Y-28600D01*
X90150Y-28600D02*
X93350Y-28600D01*
X93350Y-28600D02*
X93350Y-29400D01*
X93350Y-29400D02*
X90150Y-29400D01*
X90150Y-29400D02*
X90150Y-29000D01*
X93750Y-29000D02*
X93350Y-29000D01*
X95750Y-30000D02*
X95350Y-30000D01*
X95350Y-30000D02*
X95350Y-30400D01*
X95350Y-30400D02*
X92150Y-30400D01*
X92150Y-30400D02*
X92150Y-29600D01*
X92150Y-29600D02*
X95350Y-29600D01*
X95350Y-29600D02*
X95350Y-30000D01*
X91750Y-30000D02*
X92150Y-30000D01*
X93000Y-31250D02*
X93000Y-31650D01*
X93000Y-31650D02*
X93400Y-31650D01*
X93400Y-31650D02*
X93400Y-34850D01*
X93400Y-34850D02*
X92600Y-34850D01*
X92600Y-34850D02*
X92600Y-31650D01*
X92600Y-31650D02*
X93000Y-31650D01*
X93000Y-35250D02*
X93000Y-34850D01*
X96750Y-31250D02*
X96750Y-32250D01*
X93750Y-31250D02*
X93750Y-32250D01*
X96750Y-32250D02*
X93750Y-32250D01*
X93750Y-31250D02*
X96750Y-31250D01*
X93750Y-33250D02*
X93750Y-32250D01*
X96750Y-33250D02*
X96750Y-32250D01*
X93750Y-32250D02*
X96750Y-32250D01*
X96750Y-33250D02*
X93750Y-33250D01*
X94000Y-37750D02*
X94000Y-36750D01*
X97000Y-37750D02*
X97000Y-36750D01*
X94000Y-36750D02*
X97000Y-36750D01*
X97000Y-37750D02*
X94000Y-37750D01*
X78909Y-37116D02*
X81207Y-39414D01*
X79616Y-36409D02*
X81914Y-38707D01*
X81914Y-38707D02*
X81207Y-39414D01*
X78909Y-37116D02*
X79616Y-36409D01*
X78159Y-37866D02*
X80457Y-40164D01*
X78866Y-37159D02*
X81164Y-39457D01*
X81164Y-39457D02*
X80457Y-40164D01*
X78159Y-37866D02*
X78866Y-37159D01*
X80042Y-35335D02*
X82164Y-37457D01*
X82164Y-37457D02*
X81457Y-38164D01*
X81457Y-38164D02*
X79335Y-36042D01*
X79335Y-36042D02*
X80042Y-35335D01*
X79159Y-36573D02*
X80926Y-38340D01*
X80573Y-35159D02*
X82340Y-36926D01*
X80926Y-38340D02*
G75*
G03X82340Y-38340I707J707D01*
G74*
G01*
X82340Y-38340D02*
G75*
G03X82340Y-36926I-707J707D01*
G74*
G01*
X80573Y-35159D02*
G75*
G03X79159Y-35159I-707J-707D01*
G74*
G01*
X79159Y-35159D02*
G75*
G03X79159Y-36573I707J-707D01*
G74*
G01*
X87600Y-32500D02*
G75*
G03X87600Y-32500I-1850J0D01*
G74*
G01*
X87058Y-34161D02*
X86881Y-33984D01*
X87411Y-33808D02*
X87234Y-33631D01*
X87411Y-33808D02*
X87058Y-34161D01*
X83500Y-41500D02*
X84500Y-41500D01*
X83500Y-44500D02*
X84500Y-44500D01*
X84500Y-41500D02*
X84500Y-44500D01*
X83500Y-44500D02*
X83500Y-41500D01*
X89000Y-36000D02*
X89000Y-35000D01*
X92000Y-36000D02*
X92000Y-35000D01*
X89000Y-35000D02*
X92000Y-35000D01*
X92000Y-36000D02*
X89000Y-36000D01*
X75750Y-28250D02*
G75*
G03X75750Y-28250I-1750J0D01*
G74*
G01*
X103000Y-43000D02*
G75*
G03X103000Y-43000I-1750J0D01*
G74*
G01*
X77500Y-44250D02*
X77500Y-43850D01*
X77500Y-43850D02*
X77100Y-43850D01*
X77100Y-43850D02*
X77100Y-40650D01*
X77100Y-40650D02*
X77900Y-40650D01*
X77900Y-40650D02*
X77900Y-43850D01*
X77900Y-43850D02*
X77500Y-43850D01*
X77500Y-40250D02*
X77500Y-40650D01*
X76500Y-44250D02*
X76500Y-43850D01*
X76500Y-43850D02*
X76100Y-43850D01*
X76100Y-43850D02*
X76100Y-40650D01*
X76100Y-40650D02*
X76900Y-40650D01*
X76900Y-40650D02*
X76900Y-43850D01*
X76900Y-43850D02*
X76500Y-43850D01*
X76500Y-40250D02*
X76500Y-40650D01*
X98818Y-41141D02*
X98818Y-32480D01*
X98818Y-32480D02*
X101574Y-32480D01*
X101574Y-32480D02*
X101574Y-41141D01*
X101574Y-41141D02*
X98818Y-41141D01*
X97834Y-40748D02*
X97834Y-32874D01*
X97834Y-32874D02*
X102559Y-32874D01*
X102559Y-32874D02*
X102559Y-40748D01*
X102559Y-40748D02*
X97834Y-40748D01*
X80000Y-43000D02*
G75*
G03X80000Y-43000I-1000J0D01*
G74*
G01*
X80250Y-44500D02*
X83250Y-44500D01*
X80250Y-41500D02*
X83250Y-41500D01*
X83250Y-41500D02*
X83250Y-44500D01*
X80250Y-44500D02*
X80250Y-41500D01*
X94350Y-44000D02*
X94750Y-44000D01*
X92150Y-44000D02*
X91750Y-44000D01*
X94350Y-43600D02*
X92150Y-43600D01*
X92150Y-44400D02*
X94350Y-44400D01*
X92400Y-44400D02*
X92400Y-43600D01*
X92150Y-44000D02*
X92150Y-44400D01*
X94350Y-44400D02*
X94350Y-44000D01*
X94350Y-44000D02*
X94350Y-43600D01*
X92150Y-43600D02*
X92150Y-44000D01*
X90000Y-31400D02*
X90000Y-31000D01*
X90000Y-33600D02*
X90000Y-34000D01*
X89600Y-31400D02*
X89600Y-33600D01*
X90400Y-33600D02*
X90400Y-31400D01*
X90400Y-33350D02*
X89600Y-33350D01*
X90000Y-33600D02*
X90400Y-33600D01*
X90400Y-31400D02*
X90000Y-31400D01*
X90000Y-31400D02*
X89600Y-31400D01*
X89600Y-33600D02*
X90000Y-33600D01*
X91750Y-41350D02*
X91750Y-41750D01*
X91750Y-39150D02*
X91750Y-38750D01*
X92150Y-41350D02*
X92150Y-39150D01*
X91350Y-39150D02*
X91350Y-41350D01*
X91350Y-39400D02*
X92150Y-39400D01*
X91750Y-39150D02*
X91350Y-39150D01*
X91350Y-41350D02*
X91750Y-41350D01*
X91750Y-41350D02*
X92150Y-41350D01*
X92150Y-39150D02*
X91750Y-39150D01*
X86500Y-44000D02*
X87250Y-44000D01*
X89750Y-44000D02*
X90500Y-44000D01*
X89500Y-43600D02*
X89500Y-44400D01*
X87250Y-44400D02*
X89750Y-44400D01*
X87250Y-43600D02*
X87250Y-44400D01*
X89750Y-43600D02*
X89750Y-44400D01*
X87250Y-43600D02*
X89750Y-43600D01*
X73818Y-39763D02*
X73818Y-31102D01*
X73818Y-31102D02*
X76574Y-31102D01*
X76574Y-31102D02*
X76574Y-39763D01*
X76574Y-39763D02*
X73818Y-39763D01*
X72834Y-39370D02*
X72834Y-31496D01*
X72834Y-31496D02*
X77559Y-31496D01*
X77559Y-31496D02*
X77559Y-39370D01*
X77559Y-39370D02*
X72834Y-39370D01*
X96128Y-30250D02*
X98250Y-32371D01*
X98250Y-28128D02*
X100371Y-30250D01*
X100371Y-30250D02*
X98250Y-32371D01*
X96128Y-30250D02*
X98250Y-28128D01*
G54D18*
G36*
X76784Y-29211D02*
X76797Y-29204D01*
X76824Y-29187D01*
X76864Y-29161D01*
X76910Y-29130D01*
X76957Y-29098D01*
X76996Y-29072D01*
X77023Y-29055D01*
X77034Y-29049D01*
X77040Y-29051D01*
X77062Y-29062D01*
X77094Y-29079D01*
X77113Y-29088D01*
X77143Y-29101D01*
X77157Y-29104D01*
X77160Y-29100D01*
X77171Y-29077D01*
X77188Y-29038D01*
X77210Y-28987D01*
X77236Y-28927D01*
X77263Y-28862D01*
X77290Y-28796D01*
X77316Y-28734D01*
X77340Y-28677D01*
X77358Y-28631D01*
X77370Y-28599D01*
X77375Y-28585D01*
X77373Y-28582D01*
X77359Y-28568D01*
X77333Y-28549D01*
X77277Y-28503D01*
X77222Y-28434D01*
X77188Y-28356D01*
X77177Y-28269D01*
X77186Y-28189D01*
X77218Y-28112D01*
X77272Y-28042D01*
X77338Y-27990D01*
X77414Y-27958D01*
X77500Y-27947D01*
X77582Y-27956D01*
X77661Y-27987D01*
X77731Y-28040D01*
X77760Y-28074D01*
X77801Y-28145D01*
X77824Y-28220D01*
X77826Y-28239D01*
X77823Y-28322D01*
X77798Y-28402D01*
X77755Y-28473D01*
X77694Y-28531D01*
X77686Y-28537D01*
X77658Y-28558D01*
X77639Y-28572D01*
X77624Y-28584D01*
X77730Y-28839D01*
X77747Y-28879D01*
X77776Y-28948D01*
X77801Y-29008D01*
X77822Y-29056D01*
X77836Y-29088D01*
X77842Y-29101D01*
X77843Y-29101D01*
X77852Y-29103D01*
X77871Y-29096D01*
X77907Y-29079D01*
X77930Y-29067D01*
X77957Y-29054D01*
X77969Y-29049D01*
X77980Y-29054D01*
X78006Y-29071D01*
X78043Y-29097D01*
X78089Y-29127D01*
X78132Y-29157D01*
X78172Y-29183D01*
X78201Y-29202D01*
X78215Y-29209D01*
X78217Y-29209D01*
X78230Y-29202D01*
X78253Y-29183D01*
X78287Y-29150D01*
X78336Y-29102D01*
X78344Y-29095D01*
X78384Y-29054D01*
X78417Y-29019D01*
X78439Y-28995D01*
X78447Y-28984D01*
X78447Y-28984D01*
X78439Y-28970D01*
X78421Y-28941D01*
X78395Y-28901D01*
X78363Y-28853D01*
X78278Y-28731D01*
X78325Y-28616D01*
X78339Y-28580D01*
X78357Y-28537D01*
X78370Y-28507D01*
X78377Y-28493D01*
X78390Y-28489D01*
X78421Y-28481D01*
X78467Y-28472D01*
X78522Y-28462D01*
X78574Y-28452D01*
X78621Y-28443D01*
X78655Y-28437D01*
X78670Y-28434D01*
X78674Y-28431D01*
X78677Y-28424D01*
X78679Y-28408D01*
X78680Y-28379D01*
X78681Y-28334D01*
X78681Y-28269D01*
X78681Y-28262D01*
X78680Y-28200D01*
X78679Y-28151D01*
X78677Y-28119D01*
X78675Y-28106D01*
X78675Y-28106D01*
X78660Y-28102D01*
X78627Y-28095D01*
X78580Y-28086D01*
X78524Y-28075D01*
X78520Y-28075D01*
X78464Y-28064D01*
X78418Y-28054D01*
X78385Y-28047D01*
X78371Y-28042D01*
X78368Y-28038D01*
X78357Y-28016D01*
X78341Y-27982D01*
X78322Y-27940D01*
X78304Y-27896D01*
X78288Y-27856D01*
X78278Y-27827D01*
X78275Y-27813D01*
X78275Y-27813D01*
X78283Y-27800D01*
X78302Y-27771D01*
X78330Y-27731D01*
X78362Y-27683D01*
X78365Y-27679D01*
X78397Y-27632D01*
X78423Y-27592D01*
X78440Y-27564D01*
X78447Y-27551D01*
X78447Y-27550D01*
X78436Y-27536D01*
X78412Y-27509D01*
X78377Y-27473D01*
X78336Y-27432D01*
X78323Y-27419D01*
X78277Y-27374D01*
X78245Y-27345D01*
X78225Y-27329D01*
X78216Y-27325D01*
X78215Y-27326D01*
X78201Y-27334D01*
X78171Y-27354D01*
X78131Y-27381D01*
X78083Y-27414D01*
X78080Y-27416D01*
X78032Y-27448D01*
X77993Y-27475D01*
X77965Y-27493D01*
X77953Y-27500D01*
X77951Y-27500D01*
X77932Y-27495D01*
X77898Y-27483D01*
X77857Y-27467D01*
X77813Y-27450D01*
X77773Y-27433D01*
X77744Y-27419D01*
X77730Y-27411D01*
X77729Y-27411D01*
X77724Y-27394D01*
X77716Y-27358D01*
X77706Y-27310D01*
X77695Y-27252D01*
X77693Y-27243D01*
X77683Y-27186D01*
X77674Y-27140D01*
X77667Y-27108D01*
X77664Y-27094D01*
X77656Y-27093D01*
X77628Y-27091D01*
X77586Y-27089D01*
X77535Y-27089D01*
X77482Y-27089D01*
X77430Y-27090D01*
X77386Y-27092D01*
X77354Y-27094D01*
X77340Y-27097D01*
X77340Y-27098D01*
X77335Y-27115D01*
X77327Y-27150D01*
X77317Y-27199D01*
X77306Y-27257D01*
X77304Y-27268D01*
X77294Y-27324D01*
X77284Y-27370D01*
X77277Y-27401D01*
X77274Y-27414D01*
X77269Y-27416D01*
X77246Y-27427D01*
X77208Y-27442D01*
X77161Y-27461D01*
X77053Y-27505D01*
X76921Y-27414D01*
X76909Y-27406D01*
X76861Y-27373D01*
X76822Y-27347D01*
X76794Y-27330D01*
X76783Y-27323D01*
X76782Y-27324D01*
X76769Y-27335D01*
X76743Y-27360D01*
X76707Y-27395D01*
X76665Y-27436D01*
X76634Y-27467D01*
X76598Y-27504D01*
X76575Y-27529D01*
X76562Y-27545D01*
X76557Y-27555D01*
X76559Y-27562D01*
X76567Y-27575D01*
X76587Y-27604D01*
X76614Y-27645D01*
X76646Y-27691D01*
X76673Y-27731D01*
X76702Y-27775D01*
X76720Y-27807D01*
X76727Y-27822D01*
X76725Y-27829D01*
X76716Y-27855D01*
X76700Y-27894D01*
X76680Y-27941D01*
X76634Y-28046D01*
X76565Y-28059D01*
X76524Y-28067D01*
X76465Y-28078D01*
X76409Y-28089D01*
X76322Y-28106D01*
X76319Y-28425D01*
X76333Y-28431D01*
X76346Y-28435D01*
X76378Y-28442D01*
X76424Y-28451D01*
X76478Y-28461D01*
X76525Y-28470D01*
X76571Y-28479D01*
X76605Y-28485D01*
X76620Y-28488D01*
X76623Y-28493D01*
X76635Y-28516D01*
X76652Y-28552D01*
X76670Y-28595D01*
X76689Y-28640D01*
X76705Y-28681D01*
X76717Y-28713D01*
X76721Y-28729D01*
X76715Y-28741D01*
X76697Y-28769D01*
X76671Y-28808D01*
X76640Y-28854D01*
X76608Y-28901D01*
X76581Y-28940D01*
X76562Y-28969D01*
X76555Y-28982D01*
X76559Y-28991D01*
X76577Y-29013D01*
X76612Y-29049D01*
X76664Y-29101D01*
X76673Y-29109D01*
X76714Y-29149D01*
X76749Y-29181D01*
X76773Y-29203D01*
X76784Y-29211D01*
X76784Y-29211D01*
G37*
G54D11*
X97571Y-44000D02*
X97542Y-43985D01*
X97514Y-43957D01*
X97471Y-43914D01*
X97442Y-43900D01*
X97414Y-43900D01*
X97428Y-43971D02*
X97400Y-43957D01*
X97371Y-43928D01*
X97357Y-43871D01*
X97357Y-43771D01*
X97371Y-43714D01*
X97400Y-43685D01*
X97428Y-43671D01*
X97485Y-43671D01*
X97514Y-43685D01*
X97542Y-43714D01*
X97557Y-43771D01*
X97557Y-43871D01*
X97542Y-43928D01*
X97514Y-43957D01*
X97485Y-43971D01*
X97428Y-43971D01*
X97842Y-43971D02*
X97671Y-43971D01*
X97757Y-43971D02*
X97757Y-43671D01*
X97728Y-43714D01*
X97700Y-43742D01*
X97671Y-43757D01*
G54D12*
X97371Y-44275D02*
X97383Y-44263D01*
X97407Y-44251D01*
X97466Y-44251D01*
X97490Y-44263D01*
X97502Y-44275D01*
X97514Y-44298D01*
X97514Y-44322D01*
X97502Y-44358D01*
X97359Y-44501D01*
X97514Y-44501D01*
X97621Y-44501D02*
X97621Y-44251D01*
X97764Y-44501D01*
X97764Y-44251D01*
X97859Y-44251D02*
X98014Y-44251D01*
X97930Y-44346D01*
X97966Y-44346D01*
X97990Y-44358D01*
X98002Y-44370D01*
X98014Y-44394D01*
X98014Y-44453D01*
X98002Y-44477D01*
X97990Y-44489D01*
X97966Y-44501D01*
X97895Y-44501D01*
X97871Y-44489D01*
X97859Y-44477D01*
X98133Y-44501D02*
X98180Y-44501D01*
X98204Y-44489D01*
X98216Y-44477D01*
X98240Y-44441D01*
X98252Y-44394D01*
X98252Y-44298D01*
X98240Y-44275D01*
X98228Y-44263D01*
X98204Y-44251D01*
X98157Y-44251D01*
X98133Y-44263D01*
X98121Y-44275D01*
X98109Y-44298D01*
X98109Y-44358D01*
X98121Y-44382D01*
X98133Y-44394D01*
X98157Y-44405D01*
X98204Y-44405D01*
X98228Y-44394D01*
X98240Y-44382D01*
X98252Y-44358D01*
X98407Y-44251D02*
X98430Y-44251D01*
X98454Y-44263D01*
X98466Y-44275D01*
X98478Y-44298D01*
X98490Y-44346D01*
X98490Y-44405D01*
X98478Y-44453D01*
X98466Y-44477D01*
X98454Y-44489D01*
X98430Y-44501D01*
X98407Y-44501D01*
X98383Y-44489D01*
X98371Y-44477D01*
X98359Y-44453D01*
X98347Y-44405D01*
X98347Y-44346D01*
X98359Y-44298D01*
X98371Y-44275D01*
X98383Y-44263D01*
X98407Y-44251D01*
X98704Y-44334D02*
X98704Y-44501D01*
X98645Y-44239D02*
X98585Y-44417D01*
X98740Y-44417D01*
X95696Y-43620D02*
X95779Y-43620D01*
X95815Y-43751D02*
X95696Y-43751D01*
X95696Y-43501D01*
X95815Y-43501D01*
X96267Y-44270D02*
X96303Y-44282D01*
X96315Y-44294D01*
X96327Y-44317D01*
X96327Y-44353D01*
X96315Y-44377D01*
X96303Y-44389D01*
X96279Y-44401D01*
X96184Y-44401D01*
X96184Y-44151D01*
X96267Y-44151D01*
X96291Y-44163D01*
X96303Y-44175D01*
X96315Y-44198D01*
X96315Y-44222D01*
X96303Y-44246D01*
X96291Y-44258D01*
X96267Y-44270D01*
X96184Y-44270D01*
X96827Y-43727D02*
X96815Y-43739D01*
X96779Y-43751D01*
X96755Y-43751D01*
X96720Y-43739D01*
X96696Y-43715D01*
X96684Y-43691D01*
X96672Y-43644D01*
X96672Y-43608D01*
X96684Y-43560D01*
X96696Y-43536D01*
X96720Y-43513D01*
X96755Y-43501D01*
X96779Y-43501D01*
X96815Y-43513D01*
X96827Y-43525D01*
G54D11*
X92871Y-41100D02*
X92728Y-41200D01*
X92871Y-41271D02*
X92571Y-41271D01*
X92571Y-41157D01*
X92585Y-41128D01*
X92600Y-41114D01*
X92628Y-41100D01*
X92671Y-41100D01*
X92700Y-41114D01*
X92714Y-41128D01*
X92728Y-41157D01*
X92728Y-41271D01*
X92700Y-40928D02*
X92685Y-40957D01*
X92671Y-40971D01*
X92642Y-40985D01*
X92628Y-40985D01*
X92600Y-40971D01*
X92585Y-40957D01*
X92571Y-40928D01*
X92571Y-40871D01*
X92585Y-40842D01*
X92600Y-40828D01*
X92628Y-40814D01*
X92642Y-40814D01*
X92671Y-40828D01*
X92685Y-40842D01*
X92700Y-40871D01*
X92700Y-40928D01*
X92714Y-40957D01*
X92728Y-40971D01*
X92757Y-40985D01*
X92814Y-40985D01*
X92842Y-40971D01*
X92857Y-40957D01*
X92871Y-40928D01*
X92871Y-40871D01*
X92857Y-40842D01*
X92842Y-40828D01*
X92814Y-40814D01*
X92757Y-40814D01*
X92728Y-40828D01*
X92714Y-40842D01*
X92700Y-40871D01*
X92871Y-39485D02*
X92871Y-39657D01*
X92871Y-39571D02*
X92571Y-39571D01*
X92614Y-39599D01*
X92642Y-39628D01*
X92657Y-39657D01*
X92871Y-39357D02*
X92571Y-39357D01*
X92757Y-39328D02*
X92871Y-39242D01*
X92671Y-39242D02*
X92785Y-39357D01*
X93871Y-41100D02*
X93728Y-41200D01*
X93871Y-41271D02*
X93571Y-41271D01*
X93571Y-41157D01*
X93585Y-41128D01*
X93600Y-41114D01*
X93628Y-41100D01*
X93671Y-41100D01*
X93700Y-41114D01*
X93714Y-41128D01*
X93728Y-41157D01*
X93728Y-41271D01*
X93571Y-41000D02*
X93571Y-40800D01*
X93871Y-40928D01*
X93871Y-39535D02*
X93871Y-39707D01*
X93871Y-39621D02*
X93571Y-39621D01*
X93614Y-39649D01*
X93642Y-39678D01*
X93657Y-39707D01*
X93871Y-39407D02*
X93571Y-39407D01*
X93785Y-39307D01*
X93571Y-39207D01*
X93871Y-39207D01*
X84150Y-38121D02*
X84050Y-37978D01*
X83978Y-38121D02*
X83978Y-37821D01*
X84092Y-37821D01*
X84121Y-37835D01*
X84135Y-37850D01*
X84150Y-37878D01*
X84150Y-37921D01*
X84135Y-37950D01*
X84121Y-37964D01*
X84092Y-37978D01*
X83978Y-37978D01*
X84407Y-37821D02*
X84350Y-37821D01*
X84321Y-37835D01*
X84307Y-37850D01*
X84278Y-37892D01*
X84264Y-37950D01*
X84264Y-38064D01*
X84278Y-38092D01*
X84292Y-38107D01*
X84321Y-38121D01*
X84378Y-38121D01*
X84407Y-38107D01*
X84421Y-38092D01*
X84435Y-38064D01*
X84435Y-37992D01*
X84421Y-37964D01*
X84407Y-37950D01*
X84378Y-37935D01*
X84321Y-37935D01*
X84292Y-37950D01*
X84278Y-37964D01*
X84264Y-37992D01*
X85621Y-38121D02*
X85450Y-38121D01*
X85535Y-38121D02*
X85535Y-37821D01*
X85507Y-37864D01*
X85478Y-37892D01*
X85450Y-37907D01*
X85807Y-37821D02*
X85835Y-37821D01*
X85864Y-37835D01*
X85878Y-37850D01*
X85892Y-37878D01*
X85907Y-37935D01*
X85907Y-38007D01*
X85892Y-38064D01*
X85878Y-38092D01*
X85864Y-38107D01*
X85835Y-38121D01*
X85807Y-38121D01*
X85778Y-38107D01*
X85764Y-38092D01*
X85750Y-38064D01*
X85735Y-38007D01*
X85735Y-37935D01*
X85750Y-37878D01*
X85764Y-37850D01*
X85778Y-37835D01*
X85807Y-37821D01*
X86035Y-38121D02*
X86035Y-37821D01*
X86064Y-38007D02*
X86150Y-38121D01*
X86150Y-37921D02*
X86035Y-38035D01*
X84900Y-28371D02*
X84800Y-28228D01*
X84728Y-28371D02*
X84728Y-28071D01*
X84842Y-28071D01*
X84871Y-28085D01*
X84885Y-28100D01*
X84900Y-28128D01*
X84900Y-28171D01*
X84885Y-28200D01*
X84871Y-28214D01*
X84842Y-28228D01*
X84728Y-28228D01*
X85042Y-28371D02*
X85100Y-28371D01*
X85128Y-28357D01*
X85142Y-28342D01*
X85171Y-28300D01*
X85185Y-28242D01*
X85185Y-28128D01*
X85171Y-28100D01*
X85157Y-28085D01*
X85128Y-28071D01*
X85071Y-28071D01*
X85042Y-28085D01*
X85028Y-28100D01*
X85014Y-28128D01*
X85014Y-28200D01*
X85028Y-28228D01*
X85042Y-28242D01*
X85071Y-28257D01*
X85128Y-28257D01*
X85157Y-28242D01*
X85171Y-28228D01*
X85185Y-28200D01*
X86200Y-28171D02*
X86200Y-28371D01*
X86128Y-28057D02*
X86057Y-28271D01*
X86242Y-28271D01*
X86414Y-28071D02*
X86442Y-28071D01*
X86471Y-28085D01*
X86485Y-28100D01*
X86500Y-28128D01*
X86514Y-28185D01*
X86514Y-28257D01*
X86500Y-28314D01*
X86485Y-28342D01*
X86471Y-28357D01*
X86442Y-28371D01*
X86414Y-28371D01*
X86385Y-28357D01*
X86371Y-28342D01*
X86357Y-28314D01*
X86342Y-28257D01*
X86342Y-28185D01*
X86357Y-28128D01*
X86371Y-28100D01*
X86385Y-28085D01*
X86414Y-28071D01*
X86700Y-28071D02*
X86728Y-28071D01*
X86757Y-28085D01*
X86771Y-28100D01*
X86785Y-28128D01*
X86800Y-28185D01*
X86800Y-28257D01*
X86785Y-28314D01*
X86771Y-28342D01*
X86757Y-28357D01*
X86728Y-28371D01*
X86700Y-28371D01*
X86671Y-28357D01*
X86657Y-28342D01*
X86642Y-28314D01*
X86628Y-28257D01*
X86628Y-28185D01*
X86642Y-28128D01*
X86657Y-28100D01*
X86671Y-28085D01*
X86700Y-28071D01*
X86928Y-28371D02*
X86928Y-28071D01*
X86957Y-28257D02*
X87042Y-28371D01*
X87042Y-28171D02*
X86928Y-28285D01*
X82857Y-40871D02*
X82757Y-40728D01*
X82685Y-40871D02*
X82685Y-40571D01*
X82800Y-40571D01*
X82828Y-40585D01*
X82842Y-40600D01*
X82857Y-40628D01*
X82857Y-40671D01*
X82842Y-40700D01*
X82828Y-40714D01*
X82800Y-40728D01*
X82685Y-40728D01*
X83142Y-40871D02*
X82971Y-40871D01*
X83057Y-40871D02*
X83057Y-40571D01*
X83028Y-40614D01*
X83000Y-40642D01*
X82971Y-40657D01*
X83285Y-40871D02*
X83342Y-40871D01*
X83371Y-40857D01*
X83385Y-40842D01*
X83414Y-40800D01*
X83428Y-40742D01*
X83428Y-40628D01*
X83414Y-40600D01*
X83400Y-40585D01*
X83371Y-40571D01*
X83314Y-40571D01*
X83285Y-40585D01*
X83271Y-40600D01*
X83257Y-40628D01*
X83257Y-40700D01*
X83271Y-40728D01*
X83285Y-40742D01*
X83314Y-40757D01*
X83371Y-40757D01*
X83400Y-40742D01*
X83414Y-40728D01*
X83428Y-40700D01*
X81271Y-40871D02*
X81100Y-40871D01*
X81185Y-40871D02*
X81185Y-40571D01*
X81157Y-40614D01*
X81128Y-40642D01*
X81100Y-40657D01*
X81457Y-40571D02*
X81485Y-40571D01*
X81514Y-40585D01*
X81528Y-40600D01*
X81542Y-40628D01*
X81557Y-40685D01*
X81557Y-40757D01*
X81542Y-40814D01*
X81528Y-40842D01*
X81514Y-40857D01*
X81485Y-40871D01*
X81457Y-40871D01*
X81428Y-40857D01*
X81414Y-40842D01*
X81400Y-40814D01*
X81385Y-40757D01*
X81385Y-40685D01*
X81400Y-40628D01*
X81414Y-40600D01*
X81428Y-40585D01*
X81457Y-40571D01*
X81685Y-40871D02*
X81685Y-40571D01*
X81714Y-40757D02*
X81800Y-40871D01*
X81800Y-40671D02*
X81685Y-40785D01*
X90071Y-40478D02*
X90314Y-40478D01*
X90342Y-40464D01*
X90357Y-40450D01*
X90371Y-40421D01*
X90371Y-40364D01*
X90357Y-40335D01*
X90342Y-40321D01*
X90314Y-40307D01*
X90071Y-40307D01*
X90100Y-40178D02*
X90085Y-40164D01*
X90071Y-40135D01*
X90071Y-40064D01*
X90085Y-40035D01*
X90100Y-40021D01*
X90128Y-40007D01*
X90157Y-40007D01*
X90200Y-40021D01*
X90371Y-40192D01*
X90371Y-40007D01*
X87907Y-40371D02*
X87764Y-40371D01*
X87764Y-40071D01*
X87964Y-40071D02*
X88135Y-40071D01*
X88050Y-40371D02*
X88050Y-40071D01*
X88392Y-40371D02*
X88221Y-40371D01*
X88307Y-40371D02*
X88307Y-40071D01*
X88278Y-40114D01*
X88250Y-40142D01*
X88221Y-40157D01*
X88578Y-40071D02*
X88607Y-40071D01*
X88635Y-40085D01*
X88650Y-40100D01*
X88664Y-40128D01*
X88678Y-40185D01*
X88678Y-40257D01*
X88664Y-40314D01*
X88650Y-40342D01*
X88635Y-40357D01*
X88607Y-40371D01*
X88578Y-40371D01*
X88550Y-40357D01*
X88535Y-40342D01*
X88521Y-40314D01*
X88507Y-40257D01*
X88507Y-40185D01*
X88521Y-40128D01*
X88535Y-40100D01*
X88550Y-40085D01*
X88578Y-40071D01*
X88964Y-40371D02*
X88792Y-40371D01*
X88878Y-40371D02*
X88878Y-40071D01*
X88850Y-40114D01*
X88821Y-40142D01*
X88792Y-40157D01*
X89064Y-40071D02*
X89249Y-40071D01*
X89149Y-40185D01*
X89192Y-40185D01*
X89221Y-40200D01*
X89235Y-40214D01*
X89249Y-40242D01*
X89249Y-40314D01*
X89235Y-40342D01*
X89221Y-40357D01*
X89192Y-40371D01*
X89107Y-40371D01*
X89078Y-40357D01*
X89064Y-40342D01*
X97700Y-41342D02*
X97685Y-41357D01*
X97642Y-41371D01*
X97614Y-41371D01*
X97571Y-41357D01*
X97542Y-41328D01*
X97528Y-41300D01*
X97514Y-41242D01*
X97514Y-41200D01*
X97528Y-41142D01*
X97542Y-41114D01*
X97571Y-41085D01*
X97614Y-41071D01*
X97642Y-41071D01*
X97685Y-41085D01*
X97700Y-41100D01*
X97985Y-41371D02*
X97814Y-41371D01*
X97900Y-41371D02*
X97900Y-41071D01*
X97871Y-41114D01*
X97842Y-41142D01*
X97814Y-41157D01*
X95257Y-40571D02*
X95285Y-40571D01*
X95314Y-40585D01*
X95328Y-40600D01*
X95342Y-40628D01*
X95357Y-40685D01*
X95357Y-40757D01*
X95342Y-40814D01*
X95328Y-40842D01*
X95314Y-40857D01*
X95285Y-40871D01*
X95257Y-40871D01*
X95228Y-40857D01*
X95214Y-40842D01*
X95200Y-40814D01*
X95185Y-40757D01*
X95185Y-40685D01*
X95200Y-40628D01*
X95214Y-40600D01*
X95228Y-40585D01*
X95257Y-40571D01*
X95485Y-40842D02*
X95500Y-40857D01*
X95485Y-40871D01*
X95471Y-40857D01*
X95485Y-40842D01*
X95485Y-40871D01*
X95785Y-40871D02*
X95614Y-40871D01*
X95700Y-40871D02*
X95700Y-40571D01*
X95671Y-40614D01*
X95642Y-40642D01*
X95614Y-40657D01*
X96042Y-40671D02*
X96042Y-40871D01*
X95914Y-40671D02*
X95914Y-40828D01*
X95928Y-40857D01*
X95957Y-40871D01*
X96000Y-40871D01*
X96028Y-40857D01*
X96042Y-40842D01*
X96285Y-40714D02*
X96185Y-40714D01*
X96185Y-40871D02*
X96185Y-40571D01*
X96328Y-40571D01*
X88450Y-35592D02*
X88435Y-35607D01*
X88392Y-35621D01*
X88364Y-35621D01*
X88321Y-35607D01*
X88292Y-35578D01*
X88278Y-35550D01*
X88264Y-35492D01*
X88264Y-35450D01*
X88278Y-35392D01*
X88292Y-35364D01*
X88321Y-35335D01*
X88364Y-35321D01*
X88392Y-35321D01*
X88435Y-35335D01*
X88450Y-35350D01*
X88564Y-35350D02*
X88578Y-35335D01*
X88607Y-35321D01*
X88678Y-35321D01*
X88707Y-35335D01*
X88721Y-35350D01*
X88735Y-35378D01*
X88735Y-35407D01*
X88721Y-35450D01*
X88550Y-35621D01*
X88735Y-35621D01*
X90007Y-36321D02*
X90035Y-36321D01*
X90064Y-36335D01*
X90078Y-36350D01*
X90092Y-36378D01*
X90107Y-36435D01*
X90107Y-36507D01*
X90092Y-36564D01*
X90078Y-36592D01*
X90064Y-36607D01*
X90035Y-36621D01*
X90007Y-36621D01*
X89978Y-36607D01*
X89964Y-36592D01*
X89950Y-36564D01*
X89935Y-36507D01*
X89935Y-36435D01*
X89950Y-36378D01*
X89964Y-36350D01*
X89978Y-36335D01*
X90007Y-36321D01*
X90235Y-36592D02*
X90250Y-36607D01*
X90235Y-36621D01*
X90221Y-36607D01*
X90235Y-36592D01*
X90235Y-36621D01*
X90535Y-36621D02*
X90364Y-36621D01*
X90450Y-36621D02*
X90450Y-36321D01*
X90421Y-36364D01*
X90392Y-36392D01*
X90364Y-36407D01*
X90792Y-36421D02*
X90792Y-36621D01*
X90664Y-36421D02*
X90664Y-36578D01*
X90678Y-36607D01*
X90707Y-36621D01*
X90750Y-36621D01*
X90778Y-36607D01*
X90792Y-36592D01*
X91035Y-36464D02*
X90935Y-36464D01*
X90935Y-36621D02*
X90935Y-36321D01*
X91078Y-36321D01*
X85200Y-42142D02*
X85185Y-42157D01*
X85142Y-42171D01*
X85114Y-42171D01*
X85071Y-42157D01*
X85042Y-42128D01*
X85028Y-42100D01*
X85014Y-42042D01*
X85014Y-42000D01*
X85028Y-41942D01*
X85042Y-41914D01*
X85071Y-41885D01*
X85114Y-41871D01*
X85142Y-41871D01*
X85185Y-41885D01*
X85200Y-41900D01*
X85300Y-41871D02*
X85485Y-41871D01*
X85385Y-41985D01*
X85428Y-41985D01*
X85457Y-42000D01*
X85471Y-42014D01*
X85485Y-42042D01*
X85485Y-42114D01*
X85471Y-42142D01*
X85457Y-42157D01*
X85428Y-42171D01*
X85342Y-42171D01*
X85314Y-42157D01*
X85300Y-42142D01*
X85100Y-40742D02*
X85085Y-40728D01*
X85071Y-40700D01*
X85071Y-40628D01*
X85085Y-40600D01*
X85100Y-40585D01*
X85128Y-40571D01*
X85157Y-40571D01*
X85200Y-40585D01*
X85371Y-40757D01*
X85371Y-40571D01*
X85100Y-40457D02*
X85085Y-40442D01*
X85071Y-40414D01*
X85071Y-40342D01*
X85085Y-40314D01*
X85100Y-40300D01*
X85128Y-40285D01*
X85157Y-40285D01*
X85200Y-40300D01*
X85371Y-40471D01*
X85371Y-40285D01*
X85171Y-40157D02*
X85371Y-40157D01*
X85200Y-40157D02*
X85185Y-40142D01*
X85171Y-40114D01*
X85171Y-40071D01*
X85185Y-40042D01*
X85214Y-40028D01*
X85371Y-40028D01*
X85214Y-39785D02*
X85214Y-39885D01*
X85371Y-39885D02*
X85071Y-39885D01*
X85071Y-39742D01*
X86200Y-42142D02*
X86185Y-42157D01*
X86142Y-42171D01*
X86114Y-42171D01*
X86071Y-42157D01*
X86042Y-42128D01*
X86028Y-42100D01*
X86014Y-42042D01*
X86014Y-42000D01*
X86028Y-41942D01*
X86042Y-41914D01*
X86071Y-41885D01*
X86114Y-41871D01*
X86142Y-41871D01*
X86185Y-41885D01*
X86200Y-41900D01*
X86457Y-41971D02*
X86457Y-42171D01*
X86385Y-41857D02*
X86314Y-42071D01*
X86500Y-42071D01*
X86071Y-40742D02*
X86071Y-40714D01*
X86085Y-40685D01*
X86100Y-40671D01*
X86128Y-40657D01*
X86185Y-40642D01*
X86257Y-40642D01*
X86314Y-40657D01*
X86342Y-40671D01*
X86357Y-40685D01*
X86371Y-40714D01*
X86371Y-40742D01*
X86357Y-40771D01*
X86342Y-40785D01*
X86314Y-40799D01*
X86257Y-40814D01*
X86185Y-40814D01*
X86128Y-40799D01*
X86100Y-40785D01*
X86085Y-40771D01*
X86071Y-40742D01*
X86342Y-40514D02*
X86357Y-40500D01*
X86371Y-40514D01*
X86357Y-40528D01*
X86342Y-40514D01*
X86371Y-40514D01*
X86371Y-40214D02*
X86371Y-40385D01*
X86371Y-40300D02*
X86071Y-40300D01*
X86114Y-40328D01*
X86142Y-40357D01*
X86157Y-40385D01*
X86171Y-39957D02*
X86371Y-39957D01*
X86171Y-40085D02*
X86328Y-40085D01*
X86357Y-40071D01*
X86371Y-40042D01*
X86371Y-40000D01*
X86357Y-39971D01*
X86342Y-39957D01*
X86214Y-39714D02*
X86214Y-39814D01*
X86371Y-39814D02*
X86071Y-39814D01*
X86071Y-39671D01*
X91350Y-43242D02*
X91335Y-43257D01*
X91292Y-43271D01*
X91264Y-43271D01*
X91221Y-43257D01*
X91192Y-43228D01*
X91178Y-43200D01*
X91164Y-43142D01*
X91164Y-43100D01*
X91178Y-43042D01*
X91192Y-43014D01*
X91221Y-42985D01*
X91264Y-42971D01*
X91292Y-42971D01*
X91335Y-42985D01*
X91350Y-43000D01*
X91521Y-43100D02*
X91492Y-43085D01*
X91478Y-43071D01*
X91464Y-43042D01*
X91464Y-43028D01*
X91478Y-43000D01*
X91492Y-42985D01*
X91521Y-42971D01*
X91578Y-42971D01*
X91607Y-42985D01*
X91621Y-43000D01*
X91635Y-43028D01*
X91635Y-43042D01*
X91621Y-43071D01*
X91607Y-43085D01*
X91578Y-43100D01*
X91521Y-43100D01*
X91492Y-43114D01*
X91478Y-43128D01*
X91464Y-43157D01*
X91464Y-43214D01*
X91478Y-43242D01*
X91492Y-43257D01*
X91521Y-43271D01*
X91578Y-43271D01*
X91607Y-43257D01*
X91621Y-43242D01*
X91635Y-43214D01*
X91635Y-43157D01*
X91621Y-43128D01*
X91607Y-43114D01*
X91578Y-43100D01*
X89007Y-42571D02*
X89035Y-42571D01*
X89064Y-42585D01*
X89078Y-42600D01*
X89092Y-42628D01*
X89107Y-42685D01*
X89107Y-42757D01*
X89092Y-42814D01*
X89078Y-42842D01*
X89064Y-42857D01*
X89035Y-42871D01*
X89007Y-42871D01*
X88978Y-42857D01*
X88964Y-42842D01*
X88950Y-42814D01*
X88935Y-42757D01*
X88935Y-42685D01*
X88950Y-42628D01*
X88964Y-42600D01*
X88978Y-42585D01*
X89007Y-42571D01*
X89235Y-42842D02*
X89250Y-42857D01*
X89235Y-42871D01*
X89221Y-42857D01*
X89235Y-42842D01*
X89235Y-42871D01*
X89535Y-42871D02*
X89364Y-42871D01*
X89450Y-42871D02*
X89450Y-42571D01*
X89421Y-42614D01*
X89392Y-42642D01*
X89364Y-42657D01*
X89792Y-42671D02*
X89792Y-42871D01*
X89664Y-42671D02*
X89664Y-42828D01*
X89678Y-42857D01*
X89707Y-42871D01*
X89750Y-42871D01*
X89778Y-42857D01*
X89792Y-42842D01*
X90035Y-42714D02*
X89935Y-42714D01*
X89935Y-42871D02*
X89935Y-42571D01*
X90078Y-42571D01*
X83647Y-35879D02*
X83627Y-35879D01*
X83587Y-35859D01*
X83567Y-35838D01*
X83546Y-35798D01*
X83546Y-35758D01*
X83557Y-35727D01*
X83587Y-35677D01*
X83617Y-35646D01*
X83668Y-35616D01*
X83698Y-35606D01*
X83738Y-35606D01*
X83779Y-35626D01*
X83799Y-35646D01*
X83819Y-35687D01*
X83819Y-35707D01*
X83829Y-36101D02*
X83708Y-35980D01*
X83769Y-36040D02*
X83981Y-35828D01*
X83930Y-35838D01*
X83890Y-35838D01*
X83860Y-35828D01*
X84031Y-36303D02*
X83910Y-36182D01*
X83971Y-36242D02*
X84183Y-36030D01*
X84132Y-36040D01*
X84092Y-36040D01*
X84062Y-36030D01*
X82277Y-35275D02*
X82297Y-35295D01*
X82308Y-35325D01*
X82308Y-35345D01*
X82297Y-35376D01*
X82267Y-35426D01*
X82217Y-35477D01*
X82166Y-35507D01*
X82136Y-35517D01*
X82116Y-35517D01*
X82085Y-35507D01*
X82065Y-35487D01*
X82055Y-35457D01*
X82055Y-35436D01*
X82065Y-35406D01*
X82095Y-35356D01*
X82146Y-35305D01*
X82196Y-35275D01*
X82227Y-35265D01*
X82247Y-35265D01*
X82277Y-35275D01*
X82247Y-35628D02*
X82247Y-35648D01*
X82227Y-35648D01*
X82227Y-35628D01*
X82247Y-35628D01*
X82227Y-35648D01*
X82439Y-35861D02*
X82318Y-35739D01*
X82378Y-35800D02*
X82590Y-35588D01*
X82540Y-35598D01*
X82500Y-35598D01*
X82469Y-35588D01*
X82762Y-35901D02*
X82621Y-36042D01*
X82671Y-35810D02*
X82560Y-35921D01*
X82550Y-35952D01*
X82560Y-35982D01*
X82590Y-36012D01*
X82621Y-36022D01*
X82641Y-36022D01*
X82904Y-36103D02*
X82833Y-36032D01*
X82722Y-36143D02*
X82934Y-35931D01*
X83035Y-36032D01*
X82192Y-31592D02*
X82207Y-31607D01*
X82221Y-31650D01*
X82221Y-31678D01*
X82207Y-31721D01*
X82178Y-31750D01*
X82150Y-31764D01*
X82092Y-31778D01*
X82050Y-31778D01*
X81992Y-31764D01*
X81964Y-31750D01*
X81935Y-31721D01*
X81921Y-31678D01*
X81921Y-31650D01*
X81935Y-31607D01*
X81950Y-31592D01*
X82221Y-31307D02*
X82221Y-31478D01*
X82221Y-31392D02*
X81921Y-31392D01*
X81964Y-31421D01*
X81992Y-31450D01*
X82007Y-31478D01*
X81950Y-31192D02*
X81935Y-31178D01*
X81921Y-31150D01*
X81921Y-31078D01*
X81935Y-31050D01*
X81950Y-31035D01*
X81978Y-31021D01*
X82007Y-31021D01*
X82050Y-31035D01*
X82221Y-31207D01*
X82221Y-31021D01*
X81071Y-32992D02*
X81071Y-32964D01*
X81085Y-32935D01*
X81100Y-32921D01*
X81128Y-32907D01*
X81185Y-32892D01*
X81257Y-32892D01*
X81314Y-32907D01*
X81342Y-32921D01*
X81357Y-32935D01*
X81371Y-32964D01*
X81371Y-32992D01*
X81357Y-33021D01*
X81342Y-33035D01*
X81314Y-33049D01*
X81257Y-33064D01*
X81185Y-33064D01*
X81128Y-33049D01*
X81100Y-33035D01*
X81085Y-33021D01*
X81071Y-32992D01*
X81342Y-32764D02*
X81357Y-32750D01*
X81371Y-32764D01*
X81357Y-32778D01*
X81342Y-32764D01*
X81371Y-32764D01*
X81371Y-32464D02*
X81371Y-32635D01*
X81371Y-32550D02*
X81071Y-32550D01*
X81114Y-32578D01*
X81142Y-32607D01*
X81157Y-32635D01*
X81171Y-32207D02*
X81371Y-32207D01*
X81171Y-32335D02*
X81328Y-32335D01*
X81357Y-32321D01*
X81371Y-32292D01*
X81371Y-32250D01*
X81357Y-32221D01*
X81342Y-32207D01*
X81214Y-31964D02*
X81214Y-32064D01*
X81371Y-32064D02*
X81071Y-32064D01*
X81071Y-31921D01*
X95557Y-39042D02*
X95542Y-39057D01*
X95500Y-39071D01*
X95471Y-39071D01*
X95428Y-39057D01*
X95400Y-39028D01*
X95385Y-39000D01*
X95371Y-38942D01*
X95371Y-38900D01*
X95385Y-38842D01*
X95400Y-38814D01*
X95428Y-38785D01*
X95471Y-38771D01*
X95500Y-38771D01*
X95542Y-38785D01*
X95557Y-38800D01*
X95842Y-39071D02*
X95671Y-39071D01*
X95757Y-39071D02*
X95757Y-38771D01*
X95728Y-38814D01*
X95700Y-38842D01*
X95671Y-38857D01*
X95942Y-38771D02*
X96128Y-38771D01*
X96028Y-38885D01*
X96071Y-38885D01*
X96100Y-38900D01*
X96114Y-38914D01*
X96128Y-38942D01*
X96128Y-39014D01*
X96114Y-39042D01*
X96100Y-39057D01*
X96071Y-39071D01*
X95985Y-39071D01*
X95957Y-39057D01*
X95942Y-39042D01*
X95428Y-39871D02*
X95257Y-39871D01*
X95342Y-39871D02*
X95342Y-39571D01*
X95314Y-39614D01*
X95285Y-39642D01*
X95257Y-39657D01*
X95614Y-39571D02*
X95642Y-39571D01*
X95671Y-39585D01*
X95685Y-39600D01*
X95700Y-39628D01*
X95714Y-39685D01*
X95714Y-39757D01*
X95700Y-39814D01*
X95685Y-39842D01*
X95671Y-39857D01*
X95642Y-39871D01*
X95614Y-39871D01*
X95585Y-39857D01*
X95571Y-39842D01*
X95557Y-39814D01*
X95542Y-39757D01*
X95542Y-39685D01*
X95557Y-39628D01*
X95571Y-39600D01*
X95585Y-39585D01*
X95614Y-39571D01*
X95842Y-39671D02*
X95842Y-39871D01*
X95842Y-39700D02*
X95857Y-39685D01*
X95885Y-39671D01*
X95928Y-39671D01*
X95957Y-39685D01*
X95971Y-39714D01*
X95971Y-39871D01*
X96214Y-39714D02*
X96114Y-39714D01*
X96114Y-39871D02*
X96114Y-39571D01*
X96257Y-39571D01*
X91357Y-37842D02*
X91342Y-37857D01*
X91300Y-37871D01*
X91271Y-37871D01*
X91228Y-37857D01*
X91200Y-37828D01*
X91185Y-37800D01*
X91171Y-37742D01*
X91171Y-37700D01*
X91185Y-37642D01*
X91200Y-37614D01*
X91228Y-37585D01*
X91271Y-37571D01*
X91300Y-37571D01*
X91342Y-37585D01*
X91357Y-37600D01*
X91642Y-37871D02*
X91471Y-37871D01*
X91557Y-37871D02*
X91557Y-37571D01*
X91528Y-37614D01*
X91500Y-37642D01*
X91471Y-37657D01*
X91900Y-37671D02*
X91900Y-37871D01*
X91828Y-37557D02*
X91757Y-37771D01*
X91942Y-37771D01*
X89007Y-37571D02*
X89035Y-37571D01*
X89064Y-37585D01*
X89078Y-37600D01*
X89092Y-37628D01*
X89107Y-37685D01*
X89107Y-37757D01*
X89092Y-37814D01*
X89078Y-37842D01*
X89064Y-37857D01*
X89035Y-37871D01*
X89007Y-37871D01*
X88978Y-37857D01*
X88964Y-37842D01*
X88950Y-37814D01*
X88935Y-37757D01*
X88935Y-37685D01*
X88950Y-37628D01*
X88964Y-37600D01*
X88978Y-37585D01*
X89007Y-37571D01*
X89235Y-37842D02*
X89250Y-37857D01*
X89235Y-37871D01*
X89221Y-37857D01*
X89235Y-37842D01*
X89235Y-37871D01*
X89535Y-37871D02*
X89364Y-37871D01*
X89450Y-37871D02*
X89450Y-37571D01*
X89421Y-37614D01*
X89392Y-37642D01*
X89364Y-37657D01*
X89792Y-37671D02*
X89792Y-37871D01*
X89664Y-37671D02*
X89664Y-37828D01*
X89678Y-37857D01*
X89707Y-37871D01*
X89750Y-37871D01*
X89778Y-37857D01*
X89792Y-37842D01*
X90035Y-37714D02*
X89935Y-37714D01*
X89935Y-37871D02*
X89935Y-37571D01*
X90078Y-37571D01*
X85307Y-43692D02*
X85292Y-43707D01*
X85250Y-43721D01*
X85221Y-43721D01*
X85178Y-43707D01*
X85150Y-43678D01*
X85135Y-43650D01*
X85121Y-43592D01*
X85121Y-43550D01*
X85135Y-43492D01*
X85150Y-43464D01*
X85178Y-43435D01*
X85221Y-43421D01*
X85250Y-43421D01*
X85292Y-43435D01*
X85307Y-43450D01*
X85592Y-43721D02*
X85421Y-43721D01*
X85507Y-43721D02*
X85507Y-43421D01*
X85478Y-43464D01*
X85450Y-43492D01*
X85421Y-43507D01*
X85864Y-43421D02*
X85721Y-43421D01*
X85707Y-43564D01*
X85721Y-43550D01*
X85750Y-43535D01*
X85821Y-43535D01*
X85850Y-43550D01*
X85864Y-43564D01*
X85878Y-43592D01*
X85878Y-43664D01*
X85864Y-43692D01*
X85850Y-43707D01*
X85821Y-43721D01*
X85750Y-43721D01*
X85721Y-43707D01*
X85707Y-43692D01*
X86007Y-42571D02*
X86035Y-42571D01*
X86064Y-42585D01*
X86078Y-42600D01*
X86092Y-42628D01*
X86107Y-42685D01*
X86107Y-42757D01*
X86092Y-42814D01*
X86078Y-42842D01*
X86064Y-42857D01*
X86035Y-42871D01*
X86007Y-42871D01*
X85978Y-42857D01*
X85964Y-42842D01*
X85950Y-42814D01*
X85935Y-42757D01*
X85935Y-42685D01*
X85950Y-42628D01*
X85964Y-42600D01*
X85978Y-42585D01*
X86007Y-42571D01*
X86235Y-42842D02*
X86250Y-42857D01*
X86235Y-42871D01*
X86221Y-42857D01*
X86235Y-42842D01*
X86235Y-42871D01*
X86535Y-42871D02*
X86364Y-42871D01*
X86450Y-42871D02*
X86450Y-42571D01*
X86421Y-42614D01*
X86392Y-42642D01*
X86364Y-42657D01*
X86792Y-42671D02*
X86792Y-42871D01*
X86664Y-42671D02*
X86664Y-42828D01*
X86678Y-42857D01*
X86707Y-42871D01*
X86750Y-42871D01*
X86778Y-42857D01*
X86792Y-42842D01*
X87035Y-42714D02*
X86935Y-42714D01*
X86935Y-42871D02*
X86935Y-42571D01*
X87078Y-42571D01*
X79300Y-28621D02*
X79128Y-28590D01*
X79179Y-28742D02*
X78967Y-28530D01*
X79047Y-28449D01*
X79078Y-28439D01*
X79098Y-28439D01*
X79128Y-28449D01*
X79159Y-28479D01*
X79169Y-28510D01*
X79169Y-28530D01*
X79159Y-28560D01*
X79078Y-28641D01*
X79189Y-28348D02*
X79189Y-28328D01*
X79199Y-28297D01*
X79250Y-28247D01*
X79280Y-28237D01*
X79300Y-28237D01*
X79330Y-28247D01*
X79351Y-28267D01*
X79371Y-28308D01*
X79371Y-28550D01*
X79502Y-28419D01*
X80366Y-27131D02*
X80507Y-26989D01*
X80628Y-27292D01*
X80628Y-26868D02*
X80648Y-26848D01*
X80679Y-26838D01*
X80699Y-26838D01*
X80729Y-26848D01*
X80780Y-26878D01*
X80830Y-26929D01*
X80861Y-26979D01*
X80871Y-27010D01*
X80871Y-27030D01*
X80861Y-27060D01*
X80840Y-27080D01*
X80810Y-27090D01*
X80790Y-27090D01*
X80760Y-27080D01*
X80709Y-27050D01*
X80659Y-26999D01*
X80628Y-26949D01*
X80618Y-26919D01*
X80618Y-26898D01*
X80628Y-26868D01*
X81002Y-26919D02*
X80790Y-26707D01*
X80941Y-26818D02*
X81083Y-26838D01*
X80941Y-26696D02*
X80941Y-26858D01*
X78471Y-30550D02*
X78328Y-30650D01*
X78471Y-30721D02*
X78171Y-30721D01*
X78171Y-30607D01*
X78185Y-30578D01*
X78200Y-30564D01*
X78228Y-30550D01*
X78271Y-30550D01*
X78300Y-30564D01*
X78314Y-30578D01*
X78328Y-30607D01*
X78328Y-30721D01*
X78471Y-30264D02*
X78471Y-30435D01*
X78471Y-30350D02*
X78171Y-30350D01*
X78214Y-30378D01*
X78242Y-30407D01*
X78257Y-30435D01*
X78921Y-30150D02*
X78921Y-30321D01*
X78921Y-30235D02*
X78621Y-30235D01*
X78664Y-30264D01*
X78692Y-30292D01*
X78707Y-30321D01*
X78650Y-30035D02*
X78635Y-30021D01*
X78621Y-29992D01*
X78621Y-29921D01*
X78635Y-29892D01*
X78650Y-29878D01*
X78678Y-29864D01*
X78707Y-29864D01*
X78750Y-29878D01*
X78921Y-30050D01*
X78921Y-29864D01*
X78621Y-29678D02*
X78621Y-29650D01*
X78635Y-29621D01*
X78650Y-29607D01*
X78678Y-29592D01*
X78735Y-29578D01*
X78807Y-29578D01*
X78864Y-29592D01*
X78892Y-29607D01*
X78907Y-29621D01*
X78921Y-29650D01*
X78921Y-29678D01*
X78907Y-29707D01*
X78892Y-29721D01*
X78864Y-29735D01*
X78807Y-29750D01*
X78735Y-29750D01*
X78678Y-29735D01*
X78650Y-29721D01*
X78635Y-29707D01*
X78621Y-29678D01*
X90621Y-30300D02*
X90478Y-30400D01*
X90621Y-30471D02*
X90321Y-30471D01*
X90321Y-30357D01*
X90335Y-30328D01*
X90350Y-30314D01*
X90378Y-30300D01*
X90421Y-30300D01*
X90450Y-30314D01*
X90464Y-30328D01*
X90478Y-30357D01*
X90478Y-30471D01*
X90321Y-30200D02*
X90321Y-30014D01*
X90435Y-30114D01*
X90435Y-30071D01*
X90450Y-30042D01*
X90464Y-30028D01*
X90492Y-30014D01*
X90564Y-30014D01*
X90592Y-30028D01*
X90607Y-30042D01*
X90621Y-30071D01*
X90621Y-30157D01*
X90607Y-30185D01*
X90592Y-30200D01*
X90771Y-30414D02*
X90771Y-30214D01*
X91071Y-30342D01*
X90771Y-30042D02*
X90771Y-30014D01*
X90785Y-29985D01*
X90800Y-29971D01*
X90828Y-29957D01*
X90885Y-29942D01*
X90957Y-29942D01*
X91014Y-29957D01*
X91042Y-29971D01*
X91057Y-29985D01*
X91071Y-30014D01*
X91071Y-30042D01*
X91057Y-30071D01*
X91042Y-30085D01*
X91014Y-30099D01*
X90957Y-30114D01*
X90885Y-30114D01*
X90828Y-30099D01*
X90800Y-30085D01*
X90785Y-30071D01*
X90771Y-30042D01*
X91071Y-29814D02*
X90771Y-29814D01*
X90957Y-29785D02*
X91071Y-29700D01*
X90871Y-29700D02*
X90985Y-29814D01*
G54D12*
X95190Y-34551D02*
X95190Y-34753D01*
X95202Y-34777D01*
X95214Y-34789D01*
X95238Y-34801D01*
X95285Y-34801D01*
X95309Y-34789D01*
X95321Y-34777D01*
X95333Y-34753D01*
X95333Y-34551D01*
X95428Y-34551D02*
X95583Y-34551D01*
X95500Y-34646D01*
X95535Y-34646D01*
X95559Y-34658D01*
X95571Y-34670D01*
X95583Y-34694D01*
X95583Y-34753D01*
X95571Y-34777D01*
X95559Y-34789D01*
X95535Y-34801D01*
X95464Y-34801D01*
X95440Y-34789D01*
X95428Y-34777D01*
X95738Y-34551D02*
X95761Y-34551D01*
X95785Y-34563D01*
X95797Y-34575D01*
X95809Y-34598D01*
X95821Y-34646D01*
X95821Y-34705D01*
X95809Y-34753D01*
X95797Y-34777D01*
X95785Y-34789D01*
X95761Y-34801D01*
X95738Y-34801D01*
X95714Y-34789D01*
X95702Y-34777D01*
X95690Y-34753D01*
X95678Y-34705D01*
X95678Y-34646D01*
X95690Y-34598D01*
X95702Y-34575D01*
X95714Y-34563D01*
X95738Y-34551D01*
X94880Y-35401D02*
X94761Y-35401D01*
X94761Y-35151D01*
X94928Y-35151D02*
X95071Y-35151D01*
X95000Y-35401D02*
X95000Y-35151D01*
X95297Y-35377D02*
X95285Y-35389D01*
X95250Y-35401D01*
X95226Y-35401D01*
X95190Y-35389D01*
X95166Y-35365D01*
X95154Y-35341D01*
X95142Y-35294D01*
X95142Y-35258D01*
X95154Y-35210D01*
X95166Y-35186D01*
X95190Y-35163D01*
X95226Y-35151D01*
X95250Y-35151D01*
X95285Y-35163D01*
X95297Y-35175D01*
X95392Y-35175D02*
X95404Y-35163D01*
X95428Y-35151D01*
X95488Y-35151D01*
X95511Y-35163D01*
X95523Y-35175D01*
X95535Y-35198D01*
X95535Y-35222D01*
X95523Y-35258D01*
X95380Y-35401D01*
X95535Y-35401D01*
X95690Y-35151D02*
X95714Y-35151D01*
X95738Y-35163D01*
X95750Y-35175D01*
X95761Y-35198D01*
X95773Y-35246D01*
X95773Y-35305D01*
X95761Y-35353D01*
X95750Y-35377D01*
X95738Y-35389D01*
X95714Y-35401D01*
X95690Y-35401D01*
X95666Y-35389D01*
X95654Y-35377D01*
X95642Y-35353D01*
X95630Y-35305D01*
X95630Y-35246D01*
X95642Y-35198D01*
X95654Y-35175D01*
X95666Y-35163D01*
X95690Y-35151D01*
X96000Y-35151D02*
X95880Y-35151D01*
X95869Y-35270D01*
X95880Y-35258D01*
X95904Y-35246D01*
X95964Y-35246D01*
X95988Y-35258D01*
X96000Y-35270D01*
X96011Y-35294D01*
X96011Y-35353D01*
X96000Y-35377D01*
X95988Y-35389D01*
X95964Y-35401D01*
X95904Y-35401D01*
X95880Y-35389D01*
X95869Y-35377D01*
X96095Y-35151D02*
X96261Y-35151D01*
X96154Y-35401D01*
G54D11*
X90757Y-29121D02*
X90657Y-28978D01*
X90585Y-29121D02*
X90585Y-28821D01*
X90700Y-28821D01*
X90728Y-28835D01*
X90742Y-28850D01*
X90757Y-28878D01*
X90757Y-28921D01*
X90742Y-28950D01*
X90728Y-28964D01*
X90700Y-28978D01*
X90585Y-28978D01*
X90857Y-28821D02*
X91042Y-28821D01*
X90942Y-28935D01*
X90985Y-28935D01*
X91014Y-28950D01*
X91028Y-28964D01*
X91042Y-28992D01*
X91042Y-29064D01*
X91028Y-29092D01*
X91014Y-29107D01*
X90985Y-29121D01*
X90900Y-29121D01*
X90871Y-29107D01*
X90857Y-29092D01*
X91228Y-28821D02*
X91257Y-28821D01*
X91285Y-28835D01*
X91300Y-28850D01*
X91314Y-28878D01*
X91328Y-28935D01*
X91328Y-29007D01*
X91314Y-29064D01*
X91300Y-29092D01*
X91285Y-29107D01*
X91257Y-29121D01*
X91228Y-29121D01*
X91200Y-29107D01*
X91185Y-29092D01*
X91171Y-29064D01*
X91157Y-29007D01*
X91157Y-28935D01*
X91171Y-28878D01*
X91185Y-28850D01*
X91200Y-28835D01*
X91228Y-28821D01*
X92371Y-29121D02*
X92200Y-29121D01*
X92285Y-29121D02*
X92285Y-28821D01*
X92257Y-28864D01*
X92228Y-28892D01*
X92200Y-28907D01*
X92557Y-28821D02*
X92585Y-28821D01*
X92614Y-28835D01*
X92628Y-28850D01*
X92642Y-28878D01*
X92657Y-28935D01*
X92657Y-29007D01*
X92642Y-29064D01*
X92628Y-29092D01*
X92614Y-29107D01*
X92585Y-29121D01*
X92557Y-29121D01*
X92528Y-29107D01*
X92514Y-29092D01*
X92500Y-29064D01*
X92485Y-29007D01*
X92485Y-28935D01*
X92500Y-28878D01*
X92514Y-28850D01*
X92528Y-28835D01*
X92557Y-28821D01*
X92785Y-29121D02*
X92785Y-28821D01*
X92814Y-29007D02*
X92900Y-29121D01*
X92900Y-28921D02*
X92785Y-29035D01*
X92757Y-30121D02*
X92657Y-29978D01*
X92585Y-30121D02*
X92585Y-29821D01*
X92700Y-29821D01*
X92728Y-29835D01*
X92742Y-29850D01*
X92757Y-29878D01*
X92757Y-29921D01*
X92742Y-29950D01*
X92728Y-29964D01*
X92700Y-29978D01*
X92585Y-29978D01*
X92857Y-29821D02*
X93042Y-29821D01*
X92942Y-29935D01*
X92985Y-29935D01*
X93014Y-29950D01*
X93028Y-29964D01*
X93042Y-29992D01*
X93042Y-30064D01*
X93028Y-30092D01*
X93014Y-30107D01*
X92985Y-30121D01*
X92900Y-30121D01*
X92871Y-30107D01*
X92857Y-30092D01*
X93328Y-30121D02*
X93157Y-30121D01*
X93242Y-30121D02*
X93242Y-29821D01*
X93214Y-29864D01*
X93185Y-29892D01*
X93157Y-29907D01*
X94371Y-30121D02*
X94200Y-30121D01*
X94285Y-30121D02*
X94285Y-29821D01*
X94257Y-29864D01*
X94228Y-29892D01*
X94200Y-29907D01*
X94557Y-29821D02*
X94585Y-29821D01*
X94614Y-29835D01*
X94628Y-29850D01*
X94642Y-29878D01*
X94657Y-29935D01*
X94657Y-30007D01*
X94642Y-30064D01*
X94628Y-30092D01*
X94614Y-30107D01*
X94585Y-30121D01*
X94557Y-30121D01*
X94528Y-30107D01*
X94514Y-30092D01*
X94500Y-30064D01*
X94485Y-30007D01*
X94485Y-29935D01*
X94500Y-29878D01*
X94514Y-29850D01*
X94528Y-29835D01*
X94557Y-29821D01*
X94785Y-30121D02*
X94785Y-29821D01*
X94814Y-30007D02*
X94900Y-30121D01*
X94900Y-29921D02*
X94785Y-30035D01*
X93121Y-34242D02*
X92978Y-34342D01*
X93121Y-34414D02*
X92821Y-34414D01*
X92821Y-34300D01*
X92835Y-34271D01*
X92850Y-34257D01*
X92878Y-34242D01*
X92921Y-34242D01*
X92950Y-34257D01*
X92964Y-34271D01*
X92978Y-34300D01*
X92978Y-34414D01*
X92821Y-34142D02*
X92821Y-33957D01*
X92935Y-34057D01*
X92935Y-34014D01*
X92950Y-33985D01*
X92964Y-33971D01*
X92992Y-33957D01*
X93064Y-33957D01*
X93092Y-33971D01*
X93107Y-33985D01*
X93121Y-34014D01*
X93121Y-34100D01*
X93107Y-34128D01*
X93092Y-34142D01*
X92850Y-33842D02*
X92835Y-33828D01*
X92821Y-33800D01*
X92821Y-33728D01*
X92835Y-33700D01*
X92850Y-33685D01*
X92878Y-33671D01*
X92907Y-33671D01*
X92950Y-33685D01*
X93121Y-33857D01*
X93121Y-33671D01*
X92850Y-32828D02*
X92835Y-32814D01*
X92821Y-32785D01*
X92821Y-32714D01*
X92835Y-32685D01*
X92850Y-32671D01*
X92878Y-32657D01*
X92907Y-32657D01*
X92950Y-32671D01*
X93121Y-32842D01*
X93121Y-32657D01*
X92850Y-32542D02*
X92835Y-32528D01*
X92821Y-32500D01*
X92821Y-32428D01*
X92835Y-32400D01*
X92850Y-32385D01*
X92878Y-32371D01*
X92907Y-32371D01*
X92950Y-32385D01*
X93121Y-32557D01*
X93121Y-32371D01*
X93121Y-32071D02*
X92978Y-32171D01*
X93121Y-32242D02*
X92821Y-32242D01*
X92821Y-32128D01*
X92835Y-32100D01*
X92850Y-32085D01*
X92878Y-32071D01*
X92921Y-32071D01*
X92950Y-32085D01*
X92964Y-32100D01*
X92978Y-32128D01*
X92978Y-32242D01*
X97192Y-31942D02*
X97207Y-31957D01*
X97221Y-32000D01*
X97221Y-32028D01*
X97207Y-32071D01*
X97178Y-32100D01*
X97150Y-32114D01*
X97092Y-32128D01*
X97050Y-32128D01*
X96992Y-32114D01*
X96964Y-32100D01*
X96935Y-32071D01*
X96921Y-32028D01*
X96921Y-32000D01*
X96935Y-31957D01*
X96950Y-31942D01*
X96921Y-31842D02*
X96921Y-31657D01*
X97035Y-31757D01*
X97035Y-31714D01*
X97050Y-31685D01*
X97064Y-31671D01*
X97092Y-31657D01*
X97164Y-31657D01*
X97192Y-31671D01*
X97207Y-31685D01*
X97221Y-31714D01*
X97221Y-31800D01*
X97207Y-31828D01*
X97192Y-31842D01*
X96921Y-31471D02*
X96921Y-31442D01*
X96935Y-31414D01*
X96950Y-31400D01*
X96978Y-31385D01*
X97035Y-31371D01*
X97107Y-31371D01*
X97164Y-31385D01*
X97192Y-31400D01*
X97207Y-31414D01*
X97221Y-31442D01*
X97221Y-31471D01*
X97207Y-31500D01*
X97192Y-31514D01*
X97164Y-31528D01*
X97107Y-31542D01*
X97035Y-31542D01*
X96978Y-31528D01*
X96950Y-31514D01*
X96935Y-31500D01*
X96921Y-31471D01*
X94757Y-31571D02*
X94785Y-31571D01*
X94814Y-31585D01*
X94828Y-31600D01*
X94842Y-31628D01*
X94857Y-31685D01*
X94857Y-31757D01*
X94842Y-31814D01*
X94828Y-31842D01*
X94814Y-31857D01*
X94785Y-31871D01*
X94757Y-31871D01*
X94728Y-31857D01*
X94714Y-31842D01*
X94700Y-31814D01*
X94685Y-31757D01*
X94685Y-31685D01*
X94700Y-31628D01*
X94714Y-31600D01*
X94728Y-31585D01*
X94757Y-31571D01*
X94985Y-31842D02*
X95000Y-31857D01*
X94985Y-31871D01*
X94971Y-31857D01*
X94985Y-31842D01*
X94985Y-31871D01*
X95285Y-31871D02*
X95114Y-31871D01*
X95200Y-31871D02*
X95200Y-31571D01*
X95171Y-31614D01*
X95142Y-31642D01*
X95114Y-31657D01*
X95542Y-31671D02*
X95542Y-31871D01*
X95414Y-31671D02*
X95414Y-31828D01*
X95428Y-31857D01*
X95457Y-31871D01*
X95500Y-31871D01*
X95528Y-31857D01*
X95542Y-31842D01*
X95785Y-31714D02*
X95685Y-31714D01*
X95685Y-31871D02*
X95685Y-31571D01*
X95828Y-31571D01*
X97192Y-32942D02*
X97207Y-32957D01*
X97221Y-33000D01*
X97221Y-33028D01*
X97207Y-33071D01*
X97178Y-33100D01*
X97150Y-33114D01*
X97092Y-33128D01*
X97050Y-33128D01*
X96992Y-33114D01*
X96964Y-33100D01*
X96935Y-33071D01*
X96921Y-33028D01*
X96921Y-33000D01*
X96935Y-32957D01*
X96950Y-32942D01*
X96921Y-32842D02*
X96921Y-32657D01*
X97035Y-32757D01*
X97035Y-32714D01*
X97050Y-32685D01*
X97064Y-32671D01*
X97092Y-32657D01*
X97164Y-32657D01*
X97192Y-32671D01*
X97207Y-32685D01*
X97221Y-32714D01*
X97221Y-32800D01*
X97207Y-32828D01*
X97192Y-32842D01*
X97221Y-32371D02*
X97221Y-32542D01*
X97221Y-32457D02*
X96921Y-32457D01*
X96964Y-32485D01*
X96992Y-32514D01*
X97007Y-32542D01*
X94928Y-32871D02*
X94757Y-32871D01*
X94842Y-32871D02*
X94842Y-32571D01*
X94814Y-32614D01*
X94785Y-32642D01*
X94757Y-32657D01*
X95114Y-32571D02*
X95142Y-32571D01*
X95171Y-32585D01*
X95185Y-32600D01*
X95200Y-32628D01*
X95214Y-32685D01*
X95214Y-32757D01*
X95200Y-32814D01*
X95185Y-32842D01*
X95171Y-32857D01*
X95142Y-32871D01*
X95114Y-32871D01*
X95085Y-32857D01*
X95071Y-32842D01*
X95057Y-32814D01*
X95042Y-32757D01*
X95042Y-32685D01*
X95057Y-32628D01*
X95071Y-32600D01*
X95085Y-32585D01*
X95114Y-32571D01*
X95342Y-32671D02*
X95342Y-32871D01*
X95342Y-32700D02*
X95357Y-32685D01*
X95385Y-32671D01*
X95428Y-32671D01*
X95457Y-32685D01*
X95471Y-32714D01*
X95471Y-32871D01*
X95714Y-32714D02*
X95614Y-32714D01*
X95614Y-32871D02*
X95614Y-32571D01*
X95757Y-32571D01*
X95307Y-38192D02*
X95292Y-38207D01*
X95250Y-38221D01*
X95221Y-38221D01*
X95178Y-38207D01*
X95150Y-38178D01*
X95135Y-38150D01*
X95121Y-38092D01*
X95121Y-38050D01*
X95135Y-37992D01*
X95150Y-37964D01*
X95178Y-37935D01*
X95221Y-37921D01*
X95250Y-37921D01*
X95292Y-37935D01*
X95307Y-37950D01*
X95407Y-37921D02*
X95592Y-37921D01*
X95492Y-38035D01*
X95535Y-38035D01*
X95564Y-38050D01*
X95578Y-38064D01*
X95592Y-38092D01*
X95592Y-38164D01*
X95578Y-38192D01*
X95564Y-38207D01*
X95535Y-38221D01*
X95450Y-38221D01*
X95421Y-38207D01*
X95407Y-38192D01*
X95692Y-37921D02*
X95878Y-37921D01*
X95778Y-38035D01*
X95821Y-38035D01*
X95850Y-38050D01*
X95864Y-38064D01*
X95878Y-38092D01*
X95878Y-38164D01*
X95864Y-38192D01*
X95850Y-38207D01*
X95821Y-38221D01*
X95735Y-38221D01*
X95707Y-38207D01*
X95692Y-38192D01*
X95007Y-37071D02*
X95035Y-37071D01*
X95064Y-37085D01*
X95078Y-37100D01*
X95092Y-37128D01*
X95107Y-37185D01*
X95107Y-37257D01*
X95092Y-37314D01*
X95078Y-37342D01*
X95064Y-37357D01*
X95035Y-37371D01*
X95007Y-37371D01*
X94978Y-37357D01*
X94964Y-37342D01*
X94950Y-37314D01*
X94935Y-37257D01*
X94935Y-37185D01*
X94950Y-37128D01*
X94964Y-37100D01*
X94978Y-37085D01*
X95007Y-37071D01*
X95235Y-37342D02*
X95250Y-37357D01*
X95235Y-37371D01*
X95221Y-37357D01*
X95235Y-37342D01*
X95235Y-37371D01*
X95535Y-37371D02*
X95364Y-37371D01*
X95450Y-37371D02*
X95450Y-37071D01*
X95421Y-37114D01*
X95392Y-37142D01*
X95364Y-37157D01*
X95792Y-37171D02*
X95792Y-37371D01*
X95664Y-37171D02*
X95664Y-37328D01*
X95678Y-37357D01*
X95707Y-37371D01*
X95750Y-37371D01*
X95778Y-37357D01*
X95792Y-37342D01*
X96035Y-37214D02*
X95935Y-37214D01*
X95935Y-37371D02*
X95935Y-37071D01*
X96078Y-37071D01*
G54D12*
X78698Y-36742D02*
X78724Y-36598D01*
X78597Y-36641D02*
X78774Y-36464D01*
X78842Y-36531D01*
X78850Y-36556D01*
X78850Y-36573D01*
X78842Y-36598D01*
X78816Y-36624D01*
X78791Y-36632D01*
X78774Y-36632D01*
X78749Y-36624D01*
X78682Y-36556D01*
X78968Y-36775D02*
X78850Y-36893D01*
X78993Y-36666D02*
X78825Y-36750D01*
X78934Y-36859D01*
X81816Y-39476D02*
X81715Y-39577D01*
X81765Y-39527D02*
X81589Y-39350D01*
X81597Y-39392D01*
X81597Y-39426D01*
X81589Y-39451D01*
X81698Y-39241D02*
X81807Y-39131D01*
X81816Y-39257D01*
X81841Y-39232D01*
X81866Y-39224D01*
X81883Y-39224D01*
X81908Y-39232D01*
X81951Y-39274D01*
X81959Y-39300D01*
X81959Y-39316D01*
X81951Y-39342D01*
X81900Y-39392D01*
X81875Y-39401D01*
X81858Y-39401D01*
X82060Y-39232D02*
X81883Y-39055D01*
X82009Y-39148D02*
X82127Y-39165D01*
X82009Y-39047D02*
X82009Y-39182D01*
X78198Y-37242D02*
X78224Y-37098D01*
X78097Y-37141D02*
X78274Y-36964D01*
X78342Y-37031D01*
X78350Y-37056D01*
X78350Y-37073D01*
X78342Y-37098D01*
X78316Y-37124D01*
X78291Y-37132D01*
X78274Y-37132D01*
X78249Y-37124D01*
X78182Y-37056D01*
X78535Y-37225D02*
X78451Y-37141D01*
X78358Y-37216D01*
X78375Y-37216D01*
X78401Y-37225D01*
X78443Y-37267D01*
X78451Y-37292D01*
X78451Y-37309D01*
X78443Y-37334D01*
X78401Y-37376D01*
X78375Y-37385D01*
X78358Y-37385D01*
X78333Y-37376D01*
X78291Y-37334D01*
X78283Y-37309D01*
X78283Y-37292D01*
X81150Y-40142D02*
X81049Y-40243D01*
X81100Y-40193D02*
X80923Y-40016D01*
X80931Y-40058D01*
X80931Y-40092D01*
X80923Y-40117D01*
X81226Y-40066D02*
X81049Y-39890D01*
X81175Y-39982D02*
X81293Y-39999D01*
X81175Y-39881D02*
X81175Y-40016D01*
X79407Y-35635D02*
X79264Y-35609D01*
X79306Y-35736D02*
X79130Y-35559D01*
X79197Y-35492D01*
X79222Y-35483D01*
X79239Y-35483D01*
X79264Y-35492D01*
X79290Y-35517D01*
X79298Y-35542D01*
X79298Y-35559D01*
X79290Y-35584D01*
X79222Y-35652D01*
X79441Y-35365D02*
X79559Y-35483D01*
X79332Y-35340D02*
X79416Y-35508D01*
X79525Y-35399D01*
X79559Y-35130D02*
X79475Y-35214D01*
X79551Y-35306D01*
X79551Y-35290D01*
X79559Y-35264D01*
X79601Y-35222D01*
X79626Y-35214D01*
X79643Y-35214D01*
X79668Y-35222D01*
X79710Y-35264D01*
X79719Y-35290D01*
X79719Y-35306D01*
X79710Y-35332D01*
X79668Y-35374D01*
X79643Y-35382D01*
X79626Y-35382D01*
X82524Y-38617D02*
X82423Y-38516D01*
X82474Y-38567D02*
X82651Y-38390D01*
X82609Y-38399D01*
X82575Y-38399D01*
X82550Y-38390D01*
X82760Y-38500D02*
X82870Y-38609D01*
X82743Y-38617D01*
X82769Y-38643D01*
X82777Y-38668D01*
X82777Y-38685D01*
X82769Y-38710D01*
X82726Y-38752D01*
X82701Y-38761D01*
X82684Y-38761D01*
X82659Y-38752D01*
X82609Y-38702D01*
X82600Y-38676D01*
X82600Y-38660D01*
X82769Y-38862D02*
X82945Y-38685D01*
X82853Y-38811D02*
X82836Y-38929D01*
X82954Y-38811D02*
X82819Y-38811D01*
X83223Y-38946D02*
X82844Y-39022D01*
X83189Y-39283D02*
X83088Y-39182D01*
X83139Y-39232D02*
X83316Y-39055D01*
X83274Y-39064D01*
X83240Y-39064D01*
X83215Y-39055D01*
X83265Y-39358D02*
X83442Y-39182D01*
X83349Y-39308D02*
X83333Y-39426D01*
X83450Y-39308D02*
X83316Y-39308D01*
G54D11*
X83712Y-30785D02*
X83883Y-30957D01*
X83914Y-30967D01*
X83934Y-30967D01*
X83964Y-30957D01*
X84005Y-30916D01*
X84015Y-30886D01*
X84015Y-30866D01*
X84005Y-30835D01*
X83833Y-30664D01*
X84257Y-30664D02*
X84136Y-30785D01*
X84196Y-30724D02*
X83984Y-30512D01*
X83994Y-30563D01*
X83994Y-30603D01*
X83984Y-30633D01*
X87224Y-35197D02*
X87123Y-35298D01*
X86911Y-35085D01*
X87052Y-34944D02*
X87174Y-34823D01*
X87325Y-35095D02*
X87113Y-34883D01*
X87224Y-34772D02*
X87366Y-34631D01*
X87436Y-34984D01*
X87578Y-34843D01*
X87770Y-34651D02*
X87648Y-34772D01*
X87709Y-34712D02*
X87497Y-34500D01*
X87507Y-34550D01*
X87507Y-34590D01*
X87497Y-34621D01*
X87689Y-34308D02*
X87709Y-34287D01*
X87739Y-34277D01*
X87760Y-34277D01*
X87790Y-34287D01*
X87840Y-34318D01*
X87891Y-34368D01*
X87921Y-34419D01*
X87931Y-34449D01*
X87931Y-34469D01*
X87921Y-34500D01*
X87901Y-34520D01*
X87871Y-34530D01*
X87851Y-34530D01*
X87820Y-34520D01*
X87770Y-34489D01*
X87719Y-34439D01*
X87689Y-34388D01*
X87679Y-34358D01*
X87679Y-34338D01*
X87689Y-34308D01*
X87891Y-34106D02*
X87911Y-34085D01*
X87941Y-34075D01*
X87962Y-34075D01*
X87992Y-34085D01*
X88042Y-34116D01*
X88093Y-34166D01*
X88123Y-34217D01*
X88133Y-34247D01*
X88133Y-34267D01*
X88123Y-34297D01*
X88103Y-34318D01*
X88073Y-34328D01*
X88053Y-34328D01*
X88022Y-34318D01*
X87972Y-34287D01*
X87921Y-34237D01*
X87891Y-34186D01*
X87881Y-34156D01*
X87881Y-34136D01*
X87891Y-34106D01*
X88093Y-33904D02*
X88113Y-33883D01*
X88143Y-33873D01*
X88164Y-33873D01*
X88194Y-33883D01*
X88244Y-33914D01*
X88295Y-33964D01*
X88325Y-34015D01*
X88335Y-34045D01*
X88335Y-34065D01*
X88325Y-34095D01*
X88305Y-34116D01*
X88275Y-34126D01*
X88255Y-34126D01*
X88224Y-34116D01*
X88174Y-34085D01*
X88123Y-34035D01*
X88093Y-33984D01*
X88083Y-33954D01*
X88083Y-33934D01*
X88093Y-33904D01*
X88396Y-33904D02*
X88497Y-33802D01*
X88436Y-33984D02*
X88295Y-33701D01*
X88578Y-33843D01*
X84942Y-44300D02*
X84957Y-44314D01*
X84971Y-44357D01*
X84971Y-44385D01*
X84957Y-44428D01*
X84928Y-44457D01*
X84900Y-44471D01*
X84842Y-44485D01*
X84800Y-44485D01*
X84742Y-44471D01*
X84714Y-44457D01*
X84685Y-44428D01*
X84671Y-44385D01*
X84671Y-44357D01*
X84685Y-44314D01*
X84700Y-44300D01*
X84971Y-44157D02*
X84971Y-44100D01*
X84957Y-44071D01*
X84942Y-44057D01*
X84900Y-44028D01*
X84842Y-44014D01*
X84728Y-44014D01*
X84700Y-44028D01*
X84685Y-44042D01*
X84671Y-44071D01*
X84671Y-44128D01*
X84685Y-44157D01*
X84700Y-44171D01*
X84728Y-44185D01*
X84800Y-44185D01*
X84828Y-44171D01*
X84842Y-44157D01*
X84857Y-44128D01*
X84857Y-44071D01*
X84842Y-44042D01*
X84828Y-44028D01*
X84800Y-44014D01*
X83821Y-43492D02*
X83821Y-43464D01*
X83835Y-43435D01*
X83850Y-43421D01*
X83878Y-43407D01*
X83935Y-43392D01*
X84007Y-43392D01*
X84064Y-43407D01*
X84092Y-43421D01*
X84107Y-43435D01*
X84121Y-43464D01*
X84121Y-43492D01*
X84107Y-43521D01*
X84092Y-43535D01*
X84064Y-43549D01*
X84007Y-43564D01*
X83935Y-43564D01*
X83878Y-43549D01*
X83850Y-43535D01*
X83835Y-43521D01*
X83821Y-43492D01*
X84092Y-43264D02*
X84107Y-43250D01*
X84121Y-43264D01*
X84107Y-43278D01*
X84092Y-43264D01*
X84121Y-43264D01*
X84121Y-42964D02*
X84121Y-43135D01*
X84121Y-43050D02*
X83821Y-43050D01*
X83864Y-43078D01*
X83892Y-43107D01*
X83907Y-43135D01*
X83921Y-42707D02*
X84121Y-42707D01*
X83921Y-42835D02*
X84078Y-42835D01*
X84107Y-42821D01*
X84121Y-42792D01*
X84121Y-42750D01*
X84107Y-42721D01*
X84092Y-42707D01*
X83964Y-42464D02*
X83964Y-42564D01*
X84121Y-42564D02*
X83821Y-42564D01*
X83821Y-42421D01*
X88307Y-36592D02*
X88292Y-36607D01*
X88250Y-36621D01*
X88221Y-36621D01*
X88178Y-36607D01*
X88150Y-36578D01*
X88135Y-36550D01*
X88121Y-36492D01*
X88121Y-36450D01*
X88135Y-36392D01*
X88150Y-36364D01*
X88178Y-36335D01*
X88221Y-36321D01*
X88250Y-36321D01*
X88292Y-36335D01*
X88307Y-36350D01*
X88407Y-36321D02*
X88592Y-36321D01*
X88492Y-36435D01*
X88535Y-36435D01*
X88564Y-36450D01*
X88578Y-36464D01*
X88592Y-36492D01*
X88592Y-36564D01*
X88578Y-36592D01*
X88564Y-36607D01*
X88535Y-36621D01*
X88450Y-36621D01*
X88421Y-36607D01*
X88407Y-36592D01*
X88707Y-36350D02*
X88721Y-36335D01*
X88750Y-36321D01*
X88821Y-36321D01*
X88850Y-36335D01*
X88864Y-36350D01*
X88878Y-36378D01*
X88878Y-36407D01*
X88864Y-36450D01*
X88692Y-36621D01*
X88878Y-36621D01*
X90007Y-35321D02*
X90035Y-35321D01*
X90064Y-35335D01*
X90078Y-35350D01*
X90092Y-35378D01*
X90107Y-35435D01*
X90107Y-35507D01*
X90092Y-35564D01*
X90078Y-35592D01*
X90064Y-35607D01*
X90035Y-35621D01*
X90007Y-35621D01*
X89978Y-35607D01*
X89964Y-35592D01*
X89950Y-35564D01*
X89935Y-35507D01*
X89935Y-35435D01*
X89950Y-35378D01*
X89964Y-35350D01*
X89978Y-35335D01*
X90007Y-35321D01*
X90235Y-35592D02*
X90250Y-35607D01*
X90235Y-35621D01*
X90221Y-35607D01*
X90235Y-35592D01*
X90235Y-35621D01*
X90535Y-35621D02*
X90364Y-35621D01*
X90450Y-35621D02*
X90450Y-35321D01*
X90421Y-35364D01*
X90392Y-35392D01*
X90364Y-35407D01*
X90792Y-35421D02*
X90792Y-35621D01*
X90664Y-35421D02*
X90664Y-35578D01*
X90678Y-35607D01*
X90707Y-35621D01*
X90750Y-35621D01*
X90778Y-35607D01*
X90792Y-35592D01*
X91035Y-35464D02*
X90935Y-35464D01*
X90935Y-35621D02*
X90935Y-35321D01*
X91078Y-35321D01*
X77621Y-43242D02*
X77478Y-43342D01*
X77621Y-43414D02*
X77321Y-43414D01*
X77321Y-43300D01*
X77335Y-43271D01*
X77350Y-43257D01*
X77378Y-43242D01*
X77421Y-43242D01*
X77450Y-43257D01*
X77464Y-43271D01*
X77478Y-43300D01*
X77478Y-43414D01*
X77421Y-42985D02*
X77621Y-42985D01*
X77307Y-43057D02*
X77521Y-43128D01*
X77521Y-42942D01*
X77321Y-42771D02*
X77321Y-42742D01*
X77335Y-42714D01*
X77350Y-42700D01*
X77378Y-42685D01*
X77435Y-42671D01*
X77507Y-42671D01*
X77564Y-42685D01*
X77592Y-42700D01*
X77607Y-42714D01*
X77621Y-42742D01*
X77621Y-42771D01*
X77607Y-42800D01*
X77592Y-42814D01*
X77564Y-42828D01*
X77507Y-42842D01*
X77435Y-42842D01*
X77378Y-42828D01*
X77350Y-42814D01*
X77335Y-42800D01*
X77321Y-42771D01*
X77421Y-41757D02*
X77621Y-41757D01*
X77307Y-41828D02*
X77521Y-41899D01*
X77521Y-41714D01*
X77592Y-41599D02*
X77607Y-41585D01*
X77621Y-41599D01*
X77607Y-41614D01*
X77592Y-41599D01*
X77621Y-41599D01*
X77321Y-41485D02*
X77321Y-41285D01*
X77621Y-41414D01*
X77621Y-41000D02*
X77478Y-41100D01*
X77621Y-41171D02*
X77321Y-41171D01*
X77321Y-41057D01*
X77335Y-41028D01*
X77350Y-41014D01*
X77378Y-41000D01*
X77421Y-41000D01*
X77450Y-41014D01*
X77464Y-41028D01*
X77478Y-41057D01*
X77478Y-41171D01*
X76621Y-43242D02*
X76621Y-43385D01*
X76321Y-43385D01*
X76421Y-43014D02*
X76621Y-43014D01*
X76307Y-43085D02*
X76521Y-43157D01*
X76521Y-42971D01*
X76321Y-42800D02*
X76321Y-42771D01*
X76335Y-42742D01*
X76350Y-42728D01*
X76378Y-42714D01*
X76435Y-42700D01*
X76507Y-42700D01*
X76564Y-42714D01*
X76592Y-42728D01*
X76607Y-42742D01*
X76621Y-42771D01*
X76621Y-42800D01*
X76607Y-42828D01*
X76592Y-42842D01*
X76564Y-42857D01*
X76507Y-42871D01*
X76435Y-42871D01*
X76378Y-42857D01*
X76350Y-42842D01*
X76335Y-42828D01*
X76321Y-42800D01*
X76621Y-41800D02*
X76621Y-41971D01*
X76621Y-41885D02*
X76321Y-41885D01*
X76364Y-41914D01*
X76392Y-41942D01*
X76407Y-41971D01*
X76321Y-41614D02*
X76321Y-41585D01*
X76335Y-41557D01*
X76350Y-41542D01*
X76378Y-41528D01*
X76435Y-41514D01*
X76507Y-41514D01*
X76564Y-41528D01*
X76592Y-41542D01*
X76607Y-41557D01*
X76621Y-41585D01*
X76621Y-41614D01*
X76607Y-41642D01*
X76592Y-41657D01*
X76564Y-41671D01*
X76507Y-41685D01*
X76435Y-41685D01*
X76378Y-41671D01*
X76350Y-41657D01*
X76335Y-41642D01*
X76321Y-41614D01*
X76421Y-41257D02*
X76621Y-41257D01*
X76421Y-41385D02*
X76578Y-41385D01*
X76607Y-41371D01*
X76621Y-41342D01*
X76621Y-41300D01*
X76607Y-41271D01*
X76592Y-41257D01*
X76621Y-41114D02*
X76321Y-41114D01*
X76464Y-41114D02*
X76464Y-40942D01*
X76621Y-40942D02*
X76321Y-40942D01*
G54D12*
X78527Y-43160D02*
X78539Y-43172D01*
X78551Y-43208D01*
X78551Y-43232D01*
X78539Y-43267D01*
X78515Y-43291D01*
X78491Y-43303D01*
X78444Y-43315D01*
X78408Y-43315D01*
X78360Y-43303D01*
X78336Y-43291D01*
X78313Y-43267D01*
X78301Y-43232D01*
X78301Y-43208D01*
X78313Y-43172D01*
X78325Y-43160D01*
X78384Y-42946D02*
X78551Y-42946D01*
X78289Y-43005D02*
X78467Y-43065D01*
X78467Y-42910D01*
X78551Y-42684D02*
X78551Y-42827D01*
X78551Y-42755D02*
X78301Y-42755D01*
X78336Y-42779D01*
X78360Y-42803D01*
X78372Y-42827D01*
X79701Y-43267D02*
X79701Y-43410D01*
X79701Y-43339D02*
X79451Y-43339D01*
X79486Y-43363D01*
X79510Y-43386D01*
X79522Y-43410D01*
X79451Y-43113D02*
X79451Y-43089D01*
X79463Y-43065D01*
X79475Y-43053D01*
X79498Y-43041D01*
X79546Y-43029D01*
X79605Y-43029D01*
X79653Y-43041D01*
X79677Y-43053D01*
X79689Y-43065D01*
X79701Y-43089D01*
X79701Y-43113D01*
X79689Y-43136D01*
X79677Y-43148D01*
X79653Y-43160D01*
X79605Y-43172D01*
X79546Y-43172D01*
X79498Y-43160D01*
X79475Y-43148D01*
X79463Y-43136D01*
X79451Y-43113D01*
X79534Y-42815D02*
X79701Y-42815D01*
X79534Y-42922D02*
X79665Y-42922D01*
X79689Y-42910D01*
X79701Y-42886D01*
X79701Y-42851D01*
X79689Y-42827D01*
X79677Y-42815D01*
X79570Y-42613D02*
X79570Y-42696D01*
X79701Y-42696D02*
X79451Y-42696D01*
X79451Y-42577D01*
G54D11*
X78257Y-44114D02*
X78257Y-43885D01*
X78371Y-44000D02*
X78142Y-44000D01*
X81192Y-43192D02*
X81207Y-43207D01*
X81221Y-43250D01*
X81221Y-43278D01*
X81207Y-43321D01*
X81178Y-43350D01*
X81150Y-43364D01*
X81092Y-43378D01*
X81050Y-43378D01*
X80992Y-43364D01*
X80964Y-43350D01*
X80935Y-43321D01*
X80921Y-43278D01*
X80921Y-43250D01*
X80935Y-43207D01*
X80950Y-43192D01*
X81021Y-42935D02*
X81221Y-42935D01*
X80907Y-43007D02*
X81121Y-43078D01*
X81121Y-42892D01*
X80921Y-42721D02*
X80921Y-42692D01*
X80935Y-42664D01*
X80950Y-42650D01*
X80978Y-42635D01*
X81035Y-42621D01*
X81107Y-42621D01*
X81164Y-42635D01*
X81192Y-42650D01*
X81207Y-42664D01*
X81221Y-42692D01*
X81221Y-42721D01*
X81207Y-42750D01*
X81192Y-42764D01*
X81164Y-42778D01*
X81107Y-42792D01*
X81035Y-42792D01*
X80978Y-42778D01*
X80950Y-42764D01*
X80935Y-42750D01*
X80921Y-42721D01*
X81871Y-43178D02*
X81871Y-43350D01*
X81871Y-43264D02*
X81571Y-43264D01*
X81614Y-43292D01*
X81642Y-43321D01*
X81657Y-43350D01*
X81671Y-42921D02*
X81871Y-42921D01*
X81671Y-43050D02*
X81828Y-43050D01*
X81857Y-43035D01*
X81871Y-43007D01*
X81871Y-42964D01*
X81857Y-42935D01*
X81842Y-42921D01*
X81714Y-42678D02*
X81714Y-42778D01*
X81871Y-42778D02*
X81571Y-42778D01*
X81571Y-42635D01*
X93028Y-43471D02*
X93028Y-43171D01*
X93100Y-43171D01*
X93142Y-43185D01*
X93171Y-43214D01*
X93185Y-43242D01*
X93200Y-43300D01*
X93200Y-43342D01*
X93185Y-43400D01*
X93171Y-43428D01*
X93142Y-43457D01*
X93100Y-43471D01*
X93028Y-43471D01*
X93300Y-43171D02*
X93485Y-43171D01*
X93385Y-43285D01*
X93428Y-43285D01*
X93457Y-43300D01*
X93471Y-43314D01*
X93485Y-43342D01*
X93485Y-43414D01*
X93471Y-43442D01*
X93457Y-43457D01*
X93428Y-43471D01*
X93342Y-43471D01*
X93314Y-43457D01*
X93300Y-43442D01*
X92571Y-43821D02*
X92771Y-43821D01*
X92571Y-44121D01*
X92771Y-44121D01*
X92885Y-43964D02*
X92985Y-43964D01*
X93028Y-44121D02*
X92885Y-44121D01*
X92885Y-43821D01*
X93028Y-43821D01*
X93157Y-44121D02*
X93157Y-43821D01*
X93328Y-44121D01*
X93328Y-43821D01*
X93471Y-43964D02*
X93571Y-43964D01*
X93614Y-44121D02*
X93471Y-44121D01*
X93471Y-43821D01*
X93614Y-43821D01*
X93914Y-44121D02*
X93814Y-43978D01*
X93742Y-44121D02*
X93742Y-43821D01*
X93857Y-43821D01*
X93885Y-43835D01*
X93900Y-43850D01*
X93914Y-43878D01*
X93914Y-43921D01*
X93900Y-43950D01*
X93885Y-43964D01*
X93857Y-43978D01*
X93742Y-43978D01*
X89421Y-31421D02*
X89121Y-31421D01*
X89121Y-31350D01*
X89135Y-31307D01*
X89164Y-31278D01*
X89192Y-31264D01*
X89250Y-31250D01*
X89292Y-31250D01*
X89350Y-31264D01*
X89378Y-31278D01*
X89407Y-31307D01*
X89421Y-31350D01*
X89421Y-31421D01*
X89421Y-30964D02*
X89421Y-31135D01*
X89421Y-31050D02*
X89121Y-31050D01*
X89164Y-31078D01*
X89192Y-31107D01*
X89207Y-31135D01*
X90121Y-32992D02*
X90121Y-33164D01*
X90121Y-33078D02*
X89821Y-33078D01*
X89864Y-33107D01*
X89892Y-33135D01*
X89907Y-33164D01*
X90121Y-32864D02*
X89821Y-32864D01*
X90121Y-32692D01*
X89821Y-32692D01*
X89921Y-32421D02*
X90121Y-32421D01*
X89807Y-32492D02*
X90021Y-32564D01*
X90021Y-32378D01*
X90121Y-32107D02*
X90121Y-32278D01*
X90121Y-32192D02*
X89821Y-32192D01*
X89864Y-32221D01*
X89892Y-32250D01*
X89907Y-32278D01*
X89921Y-31850D02*
X90121Y-31850D01*
X89807Y-31921D02*
X90021Y-31992D01*
X90021Y-31807D01*
X89950Y-31650D02*
X89935Y-31678D01*
X89921Y-31692D01*
X89892Y-31707D01*
X89878Y-31707D01*
X89850Y-31692D01*
X89835Y-31678D01*
X89821Y-31650D01*
X89821Y-31592D01*
X89835Y-31564D01*
X89850Y-31550D01*
X89878Y-31535D01*
X89892Y-31535D01*
X89921Y-31550D01*
X89935Y-31564D01*
X89950Y-31592D01*
X89950Y-31650D01*
X89964Y-31678D01*
X89978Y-31692D01*
X90007Y-31707D01*
X90064Y-31707D01*
X90092Y-31692D01*
X90107Y-31678D01*
X90121Y-31650D01*
X90121Y-31592D01*
X90107Y-31564D01*
X90092Y-31550D01*
X90064Y-31535D01*
X90007Y-31535D01*
X89978Y-31550D01*
X89964Y-31564D01*
X89950Y-31592D01*
X91871Y-42721D02*
X91571Y-42721D01*
X91571Y-42650D01*
X91585Y-42607D01*
X91614Y-42578D01*
X91642Y-42564D01*
X91700Y-42550D01*
X91742Y-42550D01*
X91800Y-42564D01*
X91828Y-42578D01*
X91857Y-42607D01*
X91871Y-42650D01*
X91871Y-42721D01*
X91600Y-42435D02*
X91585Y-42421D01*
X91571Y-42392D01*
X91571Y-42321D01*
X91585Y-42292D01*
X91600Y-42278D01*
X91628Y-42264D01*
X91657Y-42264D01*
X91700Y-42278D01*
X91871Y-42450D01*
X91871Y-42264D01*
X91871Y-40992D02*
X91871Y-41164D01*
X91871Y-41078D02*
X91571Y-41078D01*
X91614Y-41107D01*
X91642Y-41135D01*
X91657Y-41164D01*
X91871Y-40864D02*
X91571Y-40864D01*
X91871Y-40692D01*
X91571Y-40692D01*
X91671Y-40421D02*
X91871Y-40421D01*
X91557Y-40492D02*
X91771Y-40564D01*
X91771Y-40378D01*
X91871Y-40107D02*
X91871Y-40278D01*
X91871Y-40192D02*
X91571Y-40192D01*
X91614Y-40221D01*
X91642Y-40250D01*
X91657Y-40278D01*
X91671Y-39850D02*
X91871Y-39850D01*
X91557Y-39921D02*
X91771Y-39992D01*
X91771Y-39807D01*
X91700Y-39650D02*
X91685Y-39678D01*
X91671Y-39692D01*
X91642Y-39707D01*
X91628Y-39707D01*
X91600Y-39692D01*
X91585Y-39678D01*
X91571Y-39650D01*
X91571Y-39592D01*
X91585Y-39564D01*
X91600Y-39550D01*
X91628Y-39535D01*
X91642Y-39535D01*
X91671Y-39550D01*
X91685Y-39564D01*
X91700Y-39592D01*
X91700Y-39650D01*
X91714Y-39678D01*
X91728Y-39692D01*
X91757Y-39707D01*
X91814Y-39707D01*
X91842Y-39692D01*
X91857Y-39678D01*
X91871Y-39650D01*
X91871Y-39592D01*
X91857Y-39564D01*
X91842Y-39550D01*
X91814Y-39535D01*
X91757Y-39535D01*
X91728Y-39550D01*
X91714Y-39564D01*
X91700Y-39592D01*
X85528Y-44571D02*
X85528Y-44271D01*
X85600Y-44271D01*
X85642Y-44285D01*
X85671Y-44314D01*
X85685Y-44342D01*
X85700Y-44400D01*
X85700Y-44442D01*
X85685Y-44500D01*
X85671Y-44528D01*
X85642Y-44557D01*
X85600Y-44571D01*
X85528Y-44571D01*
X85957Y-44371D02*
X85957Y-44571D01*
X85885Y-44257D02*
X85814Y-44471D01*
X86000Y-44471D01*
X87857Y-44121D02*
X87685Y-44121D01*
X87771Y-44121D02*
X87771Y-43821D01*
X87742Y-43864D01*
X87714Y-43892D01*
X87685Y-43907D01*
X87985Y-44121D02*
X87985Y-43821D01*
X88157Y-44121D01*
X88157Y-43821D01*
X88442Y-43821D02*
X88300Y-43821D01*
X88285Y-43964D01*
X88300Y-43950D01*
X88328Y-43935D01*
X88400Y-43935D01*
X88428Y-43950D01*
X88442Y-43964D01*
X88457Y-43992D01*
X88457Y-44064D01*
X88442Y-44092D01*
X88428Y-44107D01*
X88400Y-44121D01*
X88328Y-44121D01*
X88300Y-44107D01*
X88285Y-44092D01*
X88628Y-43950D02*
X88600Y-43935D01*
X88585Y-43921D01*
X88571Y-43892D01*
X88571Y-43878D01*
X88585Y-43850D01*
X88600Y-43835D01*
X88628Y-43821D01*
X88685Y-43821D01*
X88714Y-43835D01*
X88728Y-43850D01*
X88742Y-43878D01*
X88742Y-43892D01*
X88728Y-43921D01*
X88714Y-43935D01*
X88685Y-43950D01*
X88628Y-43950D01*
X88600Y-43964D01*
X88585Y-43978D01*
X88571Y-44007D01*
X88571Y-44064D01*
X88585Y-44092D01*
X88600Y-44107D01*
X88628Y-44121D01*
X88685Y-44121D01*
X88714Y-44107D01*
X88728Y-44092D01*
X88742Y-44064D01*
X88742Y-44007D01*
X88728Y-43978D01*
X88714Y-43964D01*
X88685Y-43950D01*
X89028Y-44121D02*
X88857Y-44121D01*
X88942Y-44121D02*
X88942Y-43821D01*
X88914Y-43864D01*
X88885Y-43892D01*
X88857Y-43907D01*
X89171Y-44121D02*
X89228Y-44121D01*
X89257Y-44107D01*
X89271Y-44092D01*
X89300Y-44050D01*
X89314Y-43992D01*
X89314Y-43878D01*
X89300Y-43850D01*
X89285Y-43835D01*
X89257Y-43821D01*
X89200Y-43821D01*
X89171Y-43835D01*
X89157Y-43850D01*
X89142Y-43878D01*
X89142Y-43950D01*
X89157Y-43978D01*
X89171Y-43992D01*
X89200Y-44007D01*
X89257Y-44007D01*
X89285Y-43992D01*
X89300Y-43978D01*
X89314Y-43950D01*
X97719Y-29992D02*
X97719Y-30012D01*
X97699Y-30053D01*
X97679Y-30073D01*
X97638Y-30093D01*
X97598Y-30093D01*
X97568Y-30083D01*
X97517Y-30053D01*
X97487Y-30022D01*
X97457Y-29972D01*
X97446Y-29941D01*
X97446Y-29901D01*
X97467Y-29861D01*
X97487Y-29840D01*
X97527Y-29820D01*
X97547Y-29820D01*
X97598Y-29729D02*
X97729Y-29598D01*
X97739Y-29749D01*
X97770Y-29719D01*
X97800Y-29709D01*
X97820Y-29709D01*
X97850Y-29719D01*
X97901Y-29770D01*
X97911Y-29800D01*
X97911Y-29820D01*
X97901Y-29850D01*
X97840Y-29911D01*
X97810Y-29921D01*
X97790Y-29921D01*
X97982Y-29487D02*
X98123Y-29628D01*
X97850Y-29457D02*
X97952Y-29659D01*
X98083Y-29527D01*
X98209Y-30462D02*
X98088Y-30583D01*
X98148Y-30522D02*
X97936Y-30310D01*
X97946Y-30361D01*
X97946Y-30401D01*
X97936Y-30431D01*
X98250Y-30138D02*
X98391Y-30280D01*
X98159Y-30229D02*
X98270Y-30340D01*
X98300Y-30351D01*
X98330Y-30340D01*
X98361Y-30310D01*
X98371Y-30280D01*
X98371Y-30260D01*
X98452Y-29997D02*
X98381Y-30068D01*
X98492Y-30179D02*
X98280Y-29967D01*
X98381Y-29866D01*
G54D10*
G36*
X99200Y-42950D02*
X94550Y-42950D01*
X94550Y-41550D01*
X99200Y-41550D01*
X99200Y-42950D01*
X99200Y-42950D01*
G37*
G54D17*
X99200Y-42950D02*
X94550Y-42950D01*
X94550Y-41550D01*
X99200Y-41550D01*
X99200Y-42950D01*
M02*
