M48
;DRILL file {Pcbnew (22-Jun-2014 BZR 4027)-stable} date Fri 15 Dec 2017 03:30:51 AM CST
;FORMAT={-:-/ absolute / inch / decimal}
FMAT,2
INCH,TZ
T1C0.025
T2C0.032
T3C0.040
T4C0.126
%
G90
G05
M72
T1
X8.175Y-3.075
X8.235Y-3.25
X8.335Y-3.01
X8.335Y-3.49
X8.575Y-2.91
X8.575Y-3.59
X8.815Y-3.01
X8.815Y-3.49
X8.915Y-3.25
T2
X7.8922Y-3.8172
X7.9Y-3.125
X7.9Y-3.175
X7.9Y-3.325
X7.9439Y-2.8811
X8.05Y-2.775
X8.0793Y-3.7793
X8.0854Y-2.7396
X8.1Y-3.15
X8.1Y-3.35
X8.15Y-3.85
X8.1543Y-2.9707
X8.1543Y-3.5293
X8.175Y-4.1
X8.2207Y-3.9207
X8.2957Y-2.8293
X8.2957Y-3.6707
X8.4Y-3.725
X8.4Y-4.125
X8.45Y-2.825
X8.476Y-3.25
X8.5043Y-3.1793
X8.5043Y-3.3207
X8.575Y-3.151
X8.575Y-3.349
X8.575Y-3.675
X8.575Y-3.875
X8.575Y-4.
X8.575Y-4.2
X8.6457Y-3.1793
X8.6457Y-3.3207
X8.674Y-3.25
X8.75Y-3.875
X8.75Y-4.175
X8.85Y-2.825
X8.85Y-3.875
X8.85Y-4.175
X8.85Y-4.35
X8.95Y-3.875
X8.95Y-4.175
X8.975Y-3.7
X9.05Y-3.875
X9.05Y-4.175
X9.05Y-4.35
X9.15Y-3.475
X9.175Y-3.
X9.175Y-3.05
X9.175Y-3.2
X9.175Y-3.7
X9.175Y-3.875
X9.175Y-3.975
X9.175Y-4.375
X9.3Y-3.7
X9.35Y-3.475
X9.35Y-4.
X9.35Y-4.2
X9.5Y-3.7
X9.55Y-4.05
X9.55Y-4.15
X9.575Y-3.875
X9.6Y-4.1
T3
X8.3Y-4.325
X8.4Y-4.45
X8.5Y-2.625
X8.5Y-4.45
X8.65Y-2.625
X8.7Y-4.325
X8.7336Y-3.6914
X9.Y-2.9
X9.Y-3.3
X9.0164Y-3.4086
X9.3Y-4.325
X9.7Y-4.325
T4
X7.975Y-4.325
X9.575Y-2.725
T0
M30
