G04 (created by PCBNEW (22-Jun-2014 BZR 4027)-stable) date Fri 15 Dec 2017 03:30:48 AM CST*
%MOIN*%
G04 Gerber Fmt 3.4, Leading zero omitted, Abs format*
%FSLAX34Y34*%
G01*
G70*
G90*
G04 APERTURE LIST*
%ADD10C,0.00590551*%
%ADD11O,0.0885X0.059*%
%ADD12O,0.059X0.059*%
%ADD13C,0.059*%
%ADD14R,0.069X0.069*%
%ADD15O,0.069X0.069*%
%ADD16C,0.069*%
%ADD17C,0.059*%
%ADD18C,0.05*%
%ADD19R,0.059X0.059*%
%ADD20R,0.269X0.069*%
%ADD21C,0.23622*%
%ADD22C,0.035*%
%ADD23C,0.01*%
%ADD24C,0.03*%
%ADD25C,0.02*%
G04 APERTURE END LIST*
G54D10*
G54D11*
X95352Y-40500D03*
X96147Y-41000D03*
X95352Y-41500D03*
G54D12*
X91750Y-38750D03*
X95750Y-38750D03*
X91750Y-43750D03*
X91750Y-39750D03*
X84000Y-41250D03*
X84000Y-37250D03*
X84500Y-28250D03*
X88500Y-28250D03*
G54D13*
X81750Y-41000D02*
X81750Y-41000D01*
X78921Y-38171D02*
X78921Y-38171D01*
G54D14*
X93000Y-43250D03*
G54D15*
X97000Y-43250D03*
G54D10*
G36*
X87335Y-36426D02*
X87823Y-36914D01*
X87335Y-37402D01*
X86847Y-36914D01*
X87335Y-36426D01*
X87335Y-36426D01*
G37*
G54D16*
X90164Y-34085D02*
X90164Y-34085D01*
G54D14*
X90000Y-29000D03*
G54D15*
X90000Y-33000D03*
G54D14*
X87000Y-43250D03*
G54D15*
X83000Y-43250D03*
G54D17*
X91750Y-37000D03*
X89750Y-37000D03*
X93500Y-42000D03*
X93500Y-40000D03*
X85750Y-42000D03*
X85750Y-40000D03*
X82957Y-28292D03*
X81542Y-29707D03*
X95000Y-37000D03*
X93000Y-37000D03*
X88500Y-43500D03*
X90500Y-43500D03*
X81542Y-35292D03*
X82957Y-36707D03*
X85750Y-38750D03*
X85750Y-36750D03*
X81000Y-31500D03*
X81000Y-33500D03*
X93500Y-34750D03*
X91500Y-34750D03*
G54D18*
X85042Y-31792D03*
X86457Y-31792D03*
X86739Y-32500D03*
X85750Y-31510D03*
X86457Y-33207D03*
X85750Y-33489D03*
X85042Y-33207D03*
X84760Y-32500D03*
G54D19*
X90500Y-38750D03*
G54D12*
X89500Y-38750D03*
X88500Y-38750D03*
X87500Y-38750D03*
X87500Y-41750D03*
X88500Y-41750D03*
X90500Y-41750D03*
X89500Y-41750D03*
G54D20*
X87500Y-26250D03*
X84000Y-26250D03*
G54D15*
X85000Y-44500D03*
X84000Y-44500D03*
G54D21*
X95750Y-27250D03*
X79750Y-43250D03*
G54D17*
X80792Y-37792D03*
X82207Y-39207D03*
X81500Y-38500D03*
X80853Y-27396D03*
X79439Y-28810D03*
X80500Y-27750D03*
X91750Y-30000D03*
X91750Y-32000D03*
X91750Y-30500D03*
X79000Y-31250D03*
X79000Y-33250D03*
X79000Y-31750D03*
G54D22*
X89150Y-32500D03*
X88150Y-30100D03*
X83350Y-34900D03*
X83350Y-30100D03*
X88150Y-34900D03*
X82350Y-32500D03*
X81750Y-30750D03*
X85750Y-29100D03*
X85750Y-35900D03*
G54D23*
X86739Y-32500D02*
X89150Y-32500D01*
G54D24*
X88500Y-41750D02*
X88500Y-43500D01*
X90750Y-32000D02*
X91000Y-32250D01*
X91000Y-33250D02*
X90164Y-34085D01*
X91000Y-32250D02*
X91000Y-33250D01*
X88150Y-30100D02*
X88850Y-30100D01*
G54D23*
X86457Y-31792D02*
X88150Y-30100D01*
G54D24*
X88850Y-30100D02*
X90750Y-32000D01*
G54D23*
X83350Y-34900D02*
X85042Y-33207D01*
X95750Y-38750D02*
X96250Y-39250D01*
X96250Y-40750D02*
X96000Y-41000D01*
X96250Y-39250D02*
X96250Y-40750D01*
X90500Y-38750D02*
X91750Y-38750D01*
G54D24*
X89500Y-41750D02*
X89500Y-40500D01*
X89000Y-34000D02*
X90000Y-33000D01*
X89000Y-40000D02*
X89000Y-39250D01*
G54D23*
X89000Y-39250D02*
X89000Y-38250D01*
G54D24*
X89000Y-38250D02*
X89000Y-34000D01*
X89500Y-40500D02*
X89000Y-40000D01*
X89500Y-41750D02*
X89500Y-42500D01*
X89500Y-42500D02*
X90500Y-43500D01*
X81000Y-31500D02*
X81950Y-31500D01*
X81950Y-31500D02*
X83350Y-30100D01*
G54D23*
X83350Y-30100D02*
X85042Y-31792D01*
G54D24*
X91750Y-43750D02*
X91750Y-43000D01*
X92750Y-42000D02*
X93500Y-42000D01*
X91750Y-43000D02*
X92750Y-42000D01*
G54D23*
X86457Y-33207D02*
X88150Y-34900D01*
X82350Y-32500D02*
X84760Y-32500D01*
X79439Y-28810D02*
X79500Y-28750D01*
X85750Y-38750D02*
X87500Y-40500D01*
X87500Y-40500D02*
X87500Y-41750D01*
G54D24*
X85750Y-29100D02*
X83900Y-29100D01*
X83000Y-29500D02*
X81750Y-30750D01*
X83500Y-29500D02*
X83000Y-29500D01*
X83900Y-29100D02*
X83500Y-29500D01*
G54D23*
X82957Y-28292D02*
X82957Y-27792D01*
X82957Y-27792D02*
X83500Y-27250D01*
X86500Y-26750D02*
X86500Y-26250D01*
X86000Y-27250D02*
X86500Y-26750D01*
X83500Y-27250D02*
X86000Y-27250D01*
X91750Y-30000D02*
X91750Y-30500D01*
X85750Y-29100D02*
X85750Y-28500D01*
X83500Y-27750D02*
X82957Y-28292D01*
X85000Y-27750D02*
X83500Y-27750D01*
X85750Y-28500D02*
X85000Y-27750D01*
X85750Y-29100D02*
X85900Y-29250D01*
G54D25*
X89750Y-30000D02*
X91750Y-30000D01*
X89000Y-29250D02*
X89750Y-30000D01*
X88750Y-29250D02*
X89000Y-29250D01*
X85900Y-29250D02*
X88750Y-29250D01*
X85750Y-29100D02*
X86100Y-28750D01*
X89750Y-28750D02*
X90000Y-29000D01*
X86100Y-28750D02*
X88000Y-28750D01*
G54D23*
X88000Y-28750D02*
X89000Y-28750D01*
G54D25*
X89000Y-28750D02*
X89750Y-28750D01*
G54D23*
X85750Y-29100D02*
X85750Y-31510D01*
X85000Y-26250D02*
X83750Y-26250D01*
X82250Y-29000D02*
X81542Y-29707D01*
X82250Y-27750D02*
X82250Y-29000D01*
X83750Y-26250D02*
X82250Y-27750D01*
G54D24*
X84000Y-44500D02*
X83000Y-44500D01*
X82000Y-43500D02*
X83000Y-44500D01*
X82000Y-42750D02*
X82000Y-43500D01*
X83000Y-41750D02*
X82000Y-42750D01*
X83000Y-40750D02*
X83000Y-41750D01*
X85750Y-37500D02*
X85750Y-36750D01*
G54D23*
X85750Y-38000D02*
X85000Y-38750D01*
G54D24*
X85000Y-38750D02*
X83250Y-40500D01*
X83250Y-40500D02*
X83000Y-40750D01*
X85750Y-37500D02*
X85750Y-38000D01*
X85000Y-35750D02*
X83250Y-35500D01*
X85750Y-36750D02*
X85000Y-35750D01*
G54D23*
X80250Y-33750D02*
X80250Y-34750D01*
X81250Y-36000D02*
X83250Y-36000D01*
X80250Y-35000D02*
X81250Y-36000D01*
X80250Y-34750D02*
X80250Y-35000D01*
G54D24*
X81750Y-36750D02*
X81250Y-36750D01*
X79000Y-34500D02*
X79000Y-33250D01*
X81250Y-36750D02*
X79000Y-34500D01*
X85750Y-36750D02*
X84750Y-36500D01*
X83250Y-36500D02*
X82957Y-36707D01*
X84750Y-36500D02*
X83250Y-36500D01*
G54D23*
X85750Y-36750D02*
X85000Y-36250D01*
X85000Y-36250D02*
X83250Y-36000D01*
G54D24*
X84250Y-38000D02*
X83000Y-38000D01*
X85750Y-36750D02*
X84250Y-38000D01*
X79000Y-34000D02*
X79000Y-33250D01*
G54D23*
X79000Y-34000D02*
X79000Y-34000D01*
X79000Y-34000D02*
X79000Y-34000D01*
G54D24*
X83000Y-38000D02*
X81750Y-36750D01*
G54D23*
X83000Y-38000D02*
X83000Y-38000D01*
G54D24*
X85250Y-37750D02*
X83750Y-39250D01*
G54D23*
X82207Y-39207D02*
X82250Y-39250D01*
G54D24*
X83250Y-39250D02*
X82250Y-39250D01*
X85250Y-37750D02*
X85750Y-36750D01*
X83750Y-39250D02*
X83250Y-39250D01*
X83250Y-35500D02*
X81250Y-33500D01*
G54D23*
X81250Y-33500D02*
X81000Y-33500D01*
X81542Y-29707D02*
X80250Y-31000D01*
X80250Y-31750D02*
X80250Y-33750D01*
X80250Y-31000D02*
X80250Y-31750D01*
X81000Y-33500D02*
X81250Y-33500D01*
G54D24*
X85750Y-36750D02*
X86500Y-37500D01*
X86500Y-37500D02*
X87000Y-38000D01*
X87000Y-38000D02*
X87250Y-38250D01*
X87250Y-38250D02*
X87500Y-38500D01*
G54D23*
X87500Y-38500D02*
X87500Y-38750D01*
G54D24*
X85750Y-36750D02*
X87171Y-36750D01*
X87171Y-36750D02*
X87335Y-36914D01*
X85750Y-36750D02*
X85750Y-35900D01*
G54D23*
X85750Y-35900D02*
X85750Y-33489D01*
M02*
