G04 (created by PCBNEW (22-Jun-2014 BZR 4027)-stable) date Sat 23 Jun 2018 11:20:16 PM CDT*
%MOIN*%
G04 Gerber Fmt 3.4, Leading zero omitted, Abs format*
%FSLAX34Y34*%
G01*
G70*
G90*
G04 APERTURE LIST*
%ADD10C,0.00590551*%
%ADD11C,0.005*%
%ADD12C,0.008*%
%ADD13C,0.006*%
%ADD14C,0.00787402*%
%ADD15C,0.007*%
%ADD16C,0.016*%
%ADD17C,0.01*%
%ADD18C,0.0001*%
G04 APERTURE END LIST*
G54D10*
G54D11*
X96905Y-35684D02*
X96905Y-35494D01*
X96989Y-35196D02*
X97001Y-35160D01*
X97001Y-35101D01*
X96989Y-35077D01*
X96977Y-35065D01*
X96953Y-35053D01*
X96929Y-35053D01*
X96905Y-35065D01*
X96894Y-35077D01*
X96882Y-35101D01*
X96870Y-35148D01*
X96858Y-35172D01*
X96846Y-35184D01*
X96822Y-35196D01*
X96798Y-35196D01*
X96775Y-35184D01*
X96763Y-35172D01*
X96751Y-35148D01*
X96751Y-35089D01*
X96763Y-35053D01*
X97001Y-34946D02*
X96751Y-34946D01*
X96751Y-34886D01*
X96763Y-34851D01*
X96786Y-34827D01*
X96810Y-34815D01*
X96858Y-34803D01*
X96894Y-34803D01*
X96941Y-34815D01*
X96965Y-34827D01*
X96989Y-34851D01*
X97001Y-34886D01*
X97001Y-34946D01*
X96905Y-34505D02*
X96905Y-34315D01*
X97001Y-34410D02*
X96810Y-34410D01*
G54D12*
X92647Y-37202D02*
X92704Y-37221D01*
X92723Y-37240D01*
X92742Y-37278D01*
X92742Y-37335D01*
X92723Y-37373D01*
X92704Y-37392D01*
X92666Y-37411D01*
X92514Y-37411D01*
X92514Y-37011D01*
X92647Y-37011D01*
X92685Y-37030D01*
X92704Y-37050D01*
X92723Y-37088D01*
X92723Y-37126D01*
X92704Y-37164D01*
X92685Y-37183D01*
X92647Y-37202D01*
X92514Y-37202D01*
X92914Y-37011D02*
X92914Y-37335D01*
X92933Y-37373D01*
X92952Y-37392D01*
X92990Y-37411D01*
X93066Y-37411D01*
X93104Y-37392D01*
X93123Y-37373D01*
X93142Y-37335D01*
X93142Y-37011D01*
X93466Y-37202D02*
X93333Y-37202D01*
X93333Y-37411D02*
X93333Y-37011D01*
X93523Y-37011D01*
G54D13*
X78278Y-40571D02*
X78450Y-40571D01*
X78364Y-40871D02*
X78364Y-40571D01*
X78764Y-40857D02*
X78807Y-40871D01*
X78878Y-40871D01*
X78907Y-40857D01*
X78921Y-40842D01*
X78935Y-40814D01*
X78935Y-40785D01*
X78921Y-40757D01*
X78907Y-40742D01*
X78878Y-40728D01*
X78821Y-40714D01*
X78792Y-40700D01*
X78778Y-40685D01*
X78764Y-40657D01*
X78764Y-40628D01*
X78778Y-40600D01*
X78792Y-40585D01*
X78821Y-40571D01*
X78892Y-40571D01*
X78935Y-40585D01*
X79064Y-40714D02*
X79164Y-40714D01*
X79207Y-40871D02*
X79064Y-40871D01*
X79064Y-40571D01*
X79207Y-40571D01*
X79292Y-40571D02*
X79464Y-40571D01*
X79378Y-40871D02*
X79378Y-40571D01*
G54D14*
X89150Y-32500D02*
G75*
G03X89150Y-32500I-3400J0D01*
G74*
G01*
G54D13*
X92392Y-27471D02*
X92464Y-27671D01*
X92535Y-27471D01*
X92635Y-27400D02*
X92650Y-27385D01*
X92678Y-27371D01*
X92750Y-27371D01*
X92778Y-27385D01*
X92792Y-27400D01*
X92807Y-27428D01*
X92807Y-27457D01*
X92792Y-27500D01*
X92621Y-27671D01*
X92807Y-27671D01*
X92935Y-27642D02*
X92949Y-27657D01*
X92935Y-27671D01*
X92921Y-27657D01*
X92935Y-27642D01*
X92935Y-27671D01*
X93207Y-27471D02*
X93207Y-27671D01*
X93135Y-27357D02*
X93064Y-27571D01*
X93249Y-27571D01*
X93364Y-27642D02*
X93378Y-27657D01*
X93364Y-27671D01*
X93349Y-27657D01*
X93364Y-27642D01*
X93364Y-27671D01*
X93492Y-27400D02*
X93507Y-27385D01*
X93535Y-27371D01*
X93607Y-27371D01*
X93635Y-27385D01*
X93649Y-27400D01*
X93664Y-27428D01*
X93664Y-27457D01*
X93649Y-27500D01*
X93478Y-27671D01*
X93664Y-27671D01*
G54D15*
X88514Y-28221D02*
X88371Y-28221D01*
X88371Y-27921D01*
X88571Y-27921D02*
X88742Y-27921D01*
X88657Y-28221D02*
X88657Y-27921D01*
X88814Y-27921D02*
X89014Y-27921D01*
X88814Y-28221D01*
X89014Y-28221D01*
X89285Y-28221D02*
X89114Y-28221D01*
X89199Y-28221D02*
X89199Y-27921D01*
X89171Y-27964D01*
X89142Y-27992D01*
X89114Y-28007D01*
X89471Y-27921D02*
X89499Y-27921D01*
X89528Y-27935D01*
X89542Y-27950D01*
X89557Y-27978D01*
X89571Y-28035D01*
X89571Y-28107D01*
X89557Y-28164D01*
X89542Y-28192D01*
X89528Y-28207D01*
X89499Y-28221D01*
X89471Y-28221D01*
X89442Y-28207D01*
X89428Y-28192D01*
X89414Y-28164D01*
X89399Y-28107D01*
X89399Y-28035D01*
X89414Y-27978D01*
X89428Y-27950D01*
X89442Y-27935D01*
X89471Y-27921D01*
X89757Y-27921D02*
X89785Y-27921D01*
X89814Y-27935D01*
X89828Y-27950D01*
X89842Y-27978D01*
X89857Y-28035D01*
X89857Y-28107D01*
X89842Y-28164D01*
X89828Y-28192D01*
X89814Y-28207D01*
X89785Y-28221D01*
X89757Y-28221D01*
X89728Y-28207D01*
X89714Y-28192D01*
X89699Y-28164D01*
X89685Y-28107D01*
X89685Y-28035D01*
X89699Y-27978D01*
X89714Y-27950D01*
X89728Y-27935D01*
X89757Y-27921D01*
X90042Y-27921D02*
X90071Y-27921D01*
X90099Y-27935D01*
X90114Y-27950D01*
X90128Y-27978D01*
X90142Y-28035D01*
X90142Y-28107D01*
X90128Y-28164D01*
X90114Y-28192D01*
X90099Y-28207D01*
X90071Y-28221D01*
X90042Y-28221D01*
X90014Y-28207D01*
X89999Y-28192D01*
X89985Y-28164D01*
X89971Y-28107D01*
X89971Y-28035D01*
X89985Y-27978D01*
X89999Y-27950D01*
X90014Y-27935D01*
X90042Y-27921D01*
X90471Y-27921D02*
X90671Y-27921D01*
X90542Y-28221D01*
X90742Y-27921D02*
X90842Y-28221D01*
X90942Y-27921D01*
X91271Y-28221D02*
X91271Y-28021D01*
X91271Y-28078D02*
X91285Y-28050D01*
X91299Y-28035D01*
X91328Y-28021D01*
X91357Y-28021D01*
X91571Y-28207D02*
X91542Y-28221D01*
X91485Y-28221D01*
X91457Y-28207D01*
X91442Y-28178D01*
X91442Y-28064D01*
X91457Y-28035D01*
X91485Y-28021D01*
X91542Y-28021D01*
X91571Y-28035D01*
X91585Y-28064D01*
X91585Y-28092D01*
X91442Y-28121D01*
X91671Y-28021D02*
X91785Y-28021D01*
X91714Y-28221D02*
X91714Y-27964D01*
X91728Y-27935D01*
X91757Y-27921D01*
X91785Y-27921D01*
X91999Y-28207D02*
X91971Y-28221D01*
X91914Y-28221D01*
X91885Y-28207D01*
X91871Y-28178D01*
X91871Y-28064D01*
X91885Y-28035D01*
X91914Y-28021D01*
X91971Y-28021D01*
X91999Y-28035D01*
X92014Y-28064D01*
X92014Y-28092D01*
X91871Y-28121D01*
X92142Y-28221D02*
X92142Y-28021D01*
X92142Y-28078D02*
X92157Y-28050D01*
X92171Y-28035D01*
X92199Y-28021D01*
X92228Y-28021D01*
X92442Y-28207D02*
X92414Y-28221D01*
X92357Y-28221D01*
X92328Y-28207D01*
X92314Y-28178D01*
X92314Y-28064D01*
X92328Y-28035D01*
X92357Y-28021D01*
X92414Y-28021D01*
X92442Y-28035D01*
X92457Y-28064D01*
X92457Y-28092D01*
X92314Y-28121D01*
X92585Y-28021D02*
X92585Y-28221D01*
X92585Y-28050D02*
X92599Y-28035D01*
X92628Y-28021D01*
X92671Y-28021D01*
X92699Y-28035D01*
X92714Y-28064D01*
X92714Y-28221D01*
X92985Y-28207D02*
X92957Y-28221D01*
X92899Y-28221D01*
X92871Y-28207D01*
X92857Y-28192D01*
X92842Y-28164D01*
X92842Y-28078D01*
X92857Y-28050D01*
X92871Y-28035D01*
X92899Y-28021D01*
X92957Y-28021D01*
X92985Y-28035D01*
X93228Y-28207D02*
X93199Y-28221D01*
X93142Y-28221D01*
X93114Y-28207D01*
X93099Y-28178D01*
X93099Y-28064D01*
X93114Y-28035D01*
X93142Y-28021D01*
X93199Y-28021D01*
X93228Y-28035D01*
X93242Y-28064D01*
X93242Y-28092D01*
X93099Y-28121D01*
G54D16*
X88390Y-27623D02*
X88390Y-26823D01*
X88695Y-26823D01*
X88771Y-26861D01*
X88809Y-26900D01*
X88847Y-26976D01*
X88847Y-27090D01*
X88809Y-27166D01*
X88771Y-27204D01*
X88695Y-27242D01*
X88390Y-27242D01*
X89114Y-26823D02*
X89647Y-27623D01*
X89647Y-26823D02*
X89114Y-27623D01*
X91019Y-27623D02*
X90752Y-27242D01*
X90561Y-27623D02*
X90561Y-26823D01*
X90866Y-26823D01*
X90942Y-26861D01*
X90980Y-26900D01*
X91019Y-26976D01*
X91019Y-27090D01*
X90980Y-27166D01*
X90942Y-27204D01*
X90866Y-27242D01*
X90561Y-27242D01*
X91666Y-27585D02*
X91590Y-27623D01*
X91438Y-27623D01*
X91361Y-27585D01*
X91323Y-27509D01*
X91323Y-27204D01*
X91361Y-27128D01*
X91438Y-27090D01*
X91590Y-27090D01*
X91666Y-27128D01*
X91704Y-27204D01*
X91704Y-27280D01*
X91323Y-27357D01*
X91933Y-27090D02*
X92238Y-27090D01*
X92047Y-27623D02*
X92047Y-26938D01*
X92085Y-26861D01*
X92161Y-26823D01*
X92238Y-26823D01*
G54D13*
X81021Y-44335D02*
X80992Y-44321D01*
X80950Y-44321D01*
X80907Y-44335D01*
X80878Y-44364D01*
X80864Y-44392D01*
X80850Y-44450D01*
X80850Y-44492D01*
X80864Y-44550D01*
X80878Y-44578D01*
X80907Y-44607D01*
X80950Y-44621D01*
X80978Y-44621D01*
X81021Y-44607D01*
X81035Y-44592D01*
X81035Y-44492D01*
X80978Y-44492D01*
X81164Y-44621D02*
X81164Y-44321D01*
X81335Y-44621D01*
X81335Y-44321D01*
X81478Y-44621D02*
X81478Y-44321D01*
X81550Y-44321D01*
X81592Y-44335D01*
X81621Y-44364D01*
X81635Y-44392D01*
X81650Y-44450D01*
X81650Y-44492D01*
X81635Y-44550D01*
X81621Y-44578D01*
X81592Y-44607D01*
X81550Y-44621D01*
X81478Y-44621D01*
X83564Y-44621D02*
X83392Y-44621D01*
X83478Y-44621D02*
X83478Y-44321D01*
X83450Y-44364D01*
X83421Y-44392D01*
X83392Y-44407D01*
X83835Y-44321D02*
X83692Y-44321D01*
X83678Y-44464D01*
X83692Y-44450D01*
X83721Y-44435D01*
X83792Y-44435D01*
X83821Y-44450D01*
X83835Y-44464D01*
X83850Y-44492D01*
X83850Y-44564D01*
X83835Y-44592D01*
X83821Y-44607D01*
X83792Y-44621D01*
X83721Y-44621D01*
X83692Y-44607D01*
X83678Y-44592D01*
X83935Y-44321D02*
X84035Y-44621D01*
X84135Y-44321D01*
G54D12*
X86164Y-37159D02*
X86469Y-37159D01*
X86602Y-36911D02*
X86735Y-37311D01*
X86869Y-36911D01*
X86964Y-37045D02*
X87173Y-37045D01*
X86964Y-37311D01*
X87173Y-37311D01*
X84014Y-27259D02*
X84319Y-27259D01*
X84166Y-27411D02*
X84166Y-27107D01*
X84452Y-27011D02*
X84585Y-27411D01*
X84719Y-27011D01*
X84814Y-27145D02*
X85023Y-27145D01*
X84814Y-27411D01*
X85023Y-27411D01*
G54D10*
X96250Y-42850D02*
X95400Y-42850D01*
X95400Y-42850D02*
X95400Y-44650D01*
X95400Y-44650D02*
X96250Y-44650D01*
X96250Y-44650D02*
G75*
G03X97150Y-43750I0J900D01*
G74*
G01*
X97150Y-43750D02*
G75*
G03X96250Y-42850I-900J0D01*
G74*
G01*
G54D17*
X92750Y-38250D02*
X92750Y-38650D01*
X92750Y-38650D02*
X93150Y-38650D01*
X93150Y-38650D02*
X93150Y-41850D01*
X93150Y-41850D02*
X92350Y-41850D01*
X92350Y-41850D02*
X92350Y-38650D01*
X92350Y-38650D02*
X92750Y-38650D01*
X92750Y-42250D02*
X92750Y-41850D01*
X93750Y-42250D02*
X93750Y-41850D01*
X93750Y-41850D02*
X93350Y-41850D01*
X93350Y-41850D02*
X93350Y-38650D01*
X93350Y-38650D02*
X94150Y-38650D01*
X94150Y-38650D02*
X94150Y-41850D01*
X94150Y-41850D02*
X93750Y-41850D01*
X93750Y-38250D02*
X93750Y-38650D01*
X83000Y-38000D02*
X83400Y-38000D01*
X83400Y-38000D02*
X83400Y-37600D01*
X83400Y-37600D02*
X86600Y-37600D01*
X86600Y-37600D02*
X86600Y-38400D01*
X86600Y-38400D02*
X83400Y-38400D01*
X83400Y-38400D02*
X83400Y-38000D01*
X87000Y-38000D02*
X86600Y-38000D01*
X83750Y-28250D02*
X84150Y-28250D01*
X84150Y-28250D02*
X84150Y-27850D01*
X84150Y-27850D02*
X87350Y-27850D01*
X87350Y-27850D02*
X87350Y-28650D01*
X87350Y-28650D02*
X84150Y-28650D01*
X84150Y-28650D02*
X84150Y-28250D01*
X87750Y-28250D02*
X87350Y-28250D01*
X84250Y-40750D02*
X83850Y-40750D01*
X83850Y-40750D02*
X83850Y-41150D01*
X83850Y-41150D02*
X80650Y-41150D01*
X80650Y-41150D02*
X80650Y-40350D01*
X80650Y-40350D02*
X83850Y-40350D01*
X83850Y-40350D02*
X83850Y-40750D01*
X80250Y-40750D02*
X80650Y-40750D01*
X90700Y-40250D02*
G75*
G03X91000Y-40550I300J0D01*
G74*
G01*
X91000Y-39950D02*
G75*
G03X90700Y-40250I0J-300D01*
G74*
G01*
X91000Y-41250D02*
X87000Y-41250D01*
X87000Y-41250D02*
X87000Y-39250D01*
X87000Y-39250D02*
X91000Y-39250D01*
X91000Y-39250D02*
X91000Y-41250D01*
X97250Y-28250D02*
G75*
G03X97250Y-28250I-1750J0D01*
G74*
G01*
X97250Y-40250D02*
X97250Y-41250D01*
X94250Y-40250D02*
X94250Y-41250D01*
X97250Y-41250D02*
X94250Y-41250D01*
X94250Y-40250D02*
X97250Y-40250D01*
X89000Y-37000D02*
X89000Y-36000D01*
X92000Y-37000D02*
X92000Y-36000D01*
X89000Y-36000D02*
X92000Y-36000D01*
X92000Y-37000D02*
X89000Y-37000D01*
X84750Y-38750D02*
X85750Y-38750D01*
X84750Y-41750D02*
X85750Y-41750D01*
X85750Y-38750D02*
X85750Y-41750D01*
X84750Y-41750D02*
X84750Y-38750D01*
X85750Y-38750D02*
X86750Y-38750D01*
X85750Y-41750D02*
X86750Y-41750D01*
X86750Y-38750D02*
X86750Y-41750D01*
X85750Y-41750D02*
X85750Y-38750D01*
X91000Y-42250D02*
X91000Y-43250D01*
X88000Y-42250D02*
X88000Y-43250D01*
X91000Y-43250D02*
X88000Y-43250D01*
X88000Y-42250D02*
X91000Y-42250D01*
X83914Y-36457D02*
X83207Y-37164D01*
X81792Y-34335D02*
X81085Y-35042D01*
X83207Y-37164D02*
X81085Y-35042D01*
X81792Y-34335D02*
X83914Y-36457D01*
X81750Y-34000D02*
X80750Y-34000D01*
X81750Y-31000D02*
X80750Y-31000D01*
X80750Y-34000D02*
X80750Y-31000D01*
X81750Y-31000D02*
X81750Y-34000D01*
X94250Y-40250D02*
X94250Y-39250D01*
X97250Y-40250D02*
X97250Y-39250D01*
X94250Y-39250D02*
X97250Y-39250D01*
X97250Y-40250D02*
X94250Y-40250D01*
X88000Y-38250D02*
X88000Y-37250D01*
X91000Y-38250D02*
X91000Y-37250D01*
X88000Y-37250D02*
X91000Y-37250D01*
X91000Y-38250D02*
X88000Y-38250D01*
X85000Y-43250D02*
X85000Y-42250D01*
X88000Y-43250D02*
X88000Y-42250D01*
X85000Y-42250D02*
X88000Y-42250D01*
X88000Y-43250D02*
X85000Y-43250D01*
X86500Y-44000D02*
X87250Y-44000D01*
X89750Y-44000D02*
X90500Y-44000D01*
X89500Y-43500D02*
X89500Y-44500D01*
X87250Y-44500D02*
X89750Y-44500D01*
X87250Y-43500D02*
X87250Y-44500D01*
X89750Y-43500D02*
X89750Y-44500D01*
X87250Y-43500D02*
X89750Y-43500D01*
X91750Y-41350D02*
X91750Y-41750D01*
X91750Y-39150D02*
X91750Y-38750D01*
X92150Y-41350D02*
X92150Y-39150D01*
X91350Y-39150D02*
X91350Y-41350D01*
X91350Y-39400D02*
X92150Y-39400D01*
X91750Y-39150D02*
X91350Y-39150D01*
X91350Y-41350D02*
X91750Y-41350D01*
X91750Y-41350D02*
X92150Y-41350D01*
X92150Y-39150D02*
X91750Y-39150D01*
X90000Y-31400D02*
X90000Y-31000D01*
X90000Y-33600D02*
X90000Y-34000D01*
X89600Y-31400D02*
X89600Y-33600D01*
X90400Y-33600D02*
X90400Y-31400D01*
X90400Y-33350D02*
X89600Y-33350D01*
X90000Y-33600D02*
X90400Y-33600D01*
X90400Y-31400D02*
X90000Y-31400D01*
X90000Y-31400D02*
X89600Y-31400D01*
X89600Y-33600D02*
X90000Y-33600D01*
X94350Y-44000D02*
X94750Y-44000D01*
X92150Y-44000D02*
X91750Y-44000D01*
X94350Y-43600D02*
X92150Y-43600D01*
X92150Y-44400D02*
X94350Y-44400D01*
X92400Y-44400D02*
X92400Y-43600D01*
X92150Y-44000D02*
X92150Y-44400D01*
X94350Y-44400D02*
X94350Y-44000D01*
X94350Y-44000D02*
X94350Y-43600D01*
X92150Y-43600D02*
X92150Y-44000D01*
X79585Y-29207D02*
X81883Y-26909D01*
X82590Y-27616D02*
X80292Y-29914D01*
X79479Y-28747D02*
X81247Y-26979D01*
X82520Y-28252D02*
X80752Y-30020D01*
X79479Y-30020D02*
G75*
G03X80752Y-30020I636J636D01*
G74*
G01*
X79479Y-28747D02*
G75*
G03X79479Y-30020I636J-636D01*
G74*
G01*
X82520Y-26979D02*
G75*
G03X81247Y-26979I-636J-636D01*
G74*
G01*
X82520Y-28252D02*
G75*
G03X82520Y-26979I-636J636D01*
G74*
G01*
X79479Y-30020D02*
G75*
G03X80752Y-30020I636J636D01*
G74*
G01*
X80292Y-29914D02*
X79585Y-29207D01*
X81883Y-26909D02*
X82590Y-27616D01*
X79000Y-34000D02*
X79000Y-30750D01*
X80000Y-30750D02*
X80000Y-34000D01*
X78600Y-33750D02*
X78600Y-31250D01*
X80400Y-31250D02*
X80400Y-33750D01*
X79500Y-34650D02*
G75*
G03X80400Y-33750I0J900D01*
G74*
G01*
X78600Y-33750D02*
G75*
G03X79500Y-34650I900J0D01*
G74*
G01*
X79500Y-30350D02*
G75*
G03X78600Y-31250I0J-900D01*
G74*
G01*
X80400Y-31250D02*
G75*
G03X79500Y-30350I-900J0D01*
G74*
G01*
X79500Y-34650D02*
G75*
G03X80400Y-33750I0J900D01*
G74*
G01*
X80000Y-34000D02*
X79000Y-34000D01*
X79000Y-30750D02*
X80000Y-30750D01*
X91000Y-34000D02*
X91000Y-30750D01*
X92000Y-30750D02*
X92000Y-34000D01*
X90600Y-33750D02*
X90600Y-31250D01*
X92400Y-31250D02*
X92400Y-33750D01*
X91500Y-34650D02*
G75*
G03X92400Y-33750I0J900D01*
G74*
G01*
X90600Y-33750D02*
G75*
G03X91500Y-34650I900J0D01*
G74*
G01*
X91500Y-30350D02*
G75*
G03X90600Y-31250I0J-900D01*
G74*
G01*
X92400Y-31250D02*
G75*
G03X91500Y-30350I-900J0D01*
G74*
G01*
X91500Y-34650D02*
G75*
G03X92400Y-33750I0J900D01*
G74*
G01*
X92000Y-34000D02*
X91000Y-34000D01*
X91000Y-30750D02*
X92000Y-30750D01*
X81500Y-43000D02*
G75*
G03X81500Y-43000I-1750J0D01*
G74*
G01*
G54D11*
X96350Y-34500D02*
G75*
G03X96350Y-34500I-100J0D01*
G74*
G01*
X94550Y-35700D02*
X94550Y-34300D01*
X96450Y-35700D02*
X96450Y-34300D01*
X96450Y-34300D02*
X94550Y-34300D01*
X96450Y-35700D02*
X94550Y-35700D01*
G54D17*
X89750Y-29000D02*
X90146Y-29055D01*
X90146Y-29055D02*
X90201Y-28659D01*
X90201Y-28659D02*
X93370Y-29104D01*
X93370Y-29104D02*
X93259Y-29897D01*
X93259Y-29897D02*
X90090Y-29451D01*
X90090Y-29451D02*
X90146Y-29055D01*
X93711Y-29556D02*
X93314Y-29501D01*
X96750Y-30500D02*
X96350Y-30500D01*
X96350Y-30500D02*
X96350Y-30900D01*
X96350Y-30900D02*
X93150Y-30900D01*
X93150Y-30900D02*
X93150Y-30100D01*
X93150Y-30100D02*
X96350Y-30100D01*
X96350Y-30100D02*
X96350Y-30500D01*
X92750Y-30500D02*
X93150Y-30500D01*
X93000Y-31250D02*
X93000Y-31650D01*
X93000Y-31650D02*
X93400Y-31650D01*
X93400Y-31650D02*
X93400Y-34850D01*
X93400Y-34850D02*
X92600Y-34850D01*
X92600Y-34850D02*
X92600Y-31650D01*
X92600Y-31650D02*
X93000Y-31650D01*
X93000Y-35250D02*
X93000Y-34850D01*
X96750Y-31250D02*
X96750Y-32250D01*
X93750Y-31250D02*
X93750Y-32250D01*
X96750Y-32250D02*
X93750Y-32250D01*
X93750Y-31250D02*
X96750Y-31250D01*
X93750Y-33250D02*
X93750Y-32250D01*
X96750Y-33250D02*
X96750Y-32250D01*
X93750Y-32250D02*
X96750Y-32250D01*
X96750Y-33250D02*
X93750Y-33250D01*
X94000Y-37750D02*
X94000Y-36750D01*
X97000Y-37750D02*
X97000Y-36750D01*
X94000Y-36750D02*
X97000Y-36750D01*
X97000Y-37750D02*
X94000Y-37750D01*
X78909Y-37116D02*
X81207Y-39414D01*
X79616Y-36409D02*
X81914Y-38707D01*
X81914Y-38707D02*
X81207Y-39414D01*
X78909Y-37116D02*
X79616Y-36409D01*
X78159Y-37866D02*
X80457Y-40164D01*
X78866Y-37159D02*
X81164Y-39457D01*
X81164Y-39457D02*
X80457Y-40164D01*
X78159Y-37866D02*
X78866Y-37159D01*
X80042Y-35335D02*
X82164Y-37457D01*
X82164Y-37457D02*
X81457Y-38164D01*
X81457Y-38164D02*
X79335Y-36042D01*
X79335Y-36042D02*
X80042Y-35335D01*
X79159Y-36573D02*
X80926Y-38340D01*
X80573Y-35159D02*
X82340Y-36926D01*
X80926Y-38340D02*
G75*
G03X82340Y-38340I707J707D01*
G74*
G01*
X82340Y-38340D02*
G75*
G03X82340Y-36926I-707J707D01*
G74*
G01*
X80573Y-35159D02*
G75*
G03X79159Y-35159I-707J-707D01*
G74*
G01*
X79159Y-35159D02*
G75*
G03X79159Y-36573I707J-707D01*
G74*
G01*
G54D18*
G36*
X78592Y-27880D02*
X78599Y-27877D01*
X78612Y-27868D01*
X78632Y-27855D01*
X78655Y-27840D01*
X78679Y-27824D01*
X78698Y-27811D01*
X78712Y-27802D01*
X78717Y-27799D01*
X78720Y-27800D01*
X78731Y-27806D01*
X78747Y-27814D01*
X78757Y-27819D01*
X78772Y-27825D01*
X78779Y-27827D01*
X78780Y-27825D01*
X78786Y-27813D01*
X78794Y-27794D01*
X78805Y-27768D01*
X78818Y-27738D01*
X78832Y-27706D01*
X78845Y-27673D01*
X78858Y-27642D01*
X78870Y-27613D01*
X78879Y-27590D01*
X78885Y-27574D01*
X78888Y-27567D01*
X78887Y-27566D01*
X78880Y-27559D01*
X78867Y-27549D01*
X78839Y-27526D01*
X78811Y-27492D01*
X78794Y-27453D01*
X78789Y-27409D01*
X78793Y-27369D01*
X78809Y-27331D01*
X78836Y-27296D01*
X78869Y-27270D01*
X78907Y-27254D01*
X78950Y-27249D01*
X78991Y-27253D01*
X79030Y-27269D01*
X79065Y-27295D01*
X79080Y-27312D01*
X79100Y-27348D01*
X79112Y-27385D01*
X79113Y-27394D01*
X79111Y-27436D01*
X79099Y-27476D01*
X79077Y-27511D01*
X79047Y-27540D01*
X79043Y-27543D01*
X79029Y-27554D01*
X79019Y-27561D01*
X79012Y-27567D01*
X79065Y-27694D01*
X79073Y-27714D01*
X79088Y-27749D01*
X79100Y-27779D01*
X79111Y-27803D01*
X79118Y-27819D01*
X79121Y-27825D01*
X79121Y-27825D01*
X79126Y-27826D01*
X79135Y-27823D01*
X79153Y-27814D01*
X79165Y-27808D01*
X79178Y-27802D01*
X79184Y-27799D01*
X79190Y-27802D01*
X79203Y-27810D01*
X79221Y-27823D01*
X79244Y-27838D01*
X79266Y-27853D01*
X79286Y-27866D01*
X79300Y-27876D01*
X79307Y-27879D01*
X79308Y-27879D01*
X79315Y-27876D01*
X79326Y-27866D01*
X79343Y-27850D01*
X79368Y-27826D01*
X79372Y-27822D01*
X79392Y-27802D01*
X79408Y-27784D01*
X79419Y-27772D01*
X79423Y-27767D01*
X79423Y-27767D01*
X79419Y-27760D01*
X79410Y-27745D01*
X79397Y-27725D01*
X79381Y-27701D01*
X79339Y-27640D01*
X79362Y-27583D01*
X79369Y-27565D01*
X79378Y-27543D01*
X79385Y-27528D01*
X79388Y-27521D01*
X79395Y-27519D01*
X79410Y-27515D01*
X79433Y-27511D01*
X79461Y-27506D01*
X79487Y-27501D01*
X79510Y-27496D01*
X79527Y-27493D01*
X79535Y-27492D01*
X79537Y-27490D01*
X79538Y-27487D01*
X79539Y-27479D01*
X79540Y-27464D01*
X79540Y-27442D01*
X79540Y-27409D01*
X79540Y-27406D01*
X79540Y-27375D01*
X79539Y-27350D01*
X79538Y-27335D01*
X79537Y-27328D01*
X79537Y-27328D01*
X79530Y-27326D01*
X79513Y-27323D01*
X79490Y-27318D01*
X79462Y-27313D01*
X79460Y-27313D01*
X79432Y-27307D01*
X79409Y-27302D01*
X79392Y-27299D01*
X79385Y-27296D01*
X79384Y-27294D01*
X79378Y-27283D01*
X79370Y-27266D01*
X79361Y-27245D01*
X79352Y-27223D01*
X79344Y-27203D01*
X79339Y-27189D01*
X79337Y-27182D01*
X79337Y-27182D01*
X79341Y-27175D01*
X79351Y-27161D01*
X79365Y-27141D01*
X79381Y-27117D01*
X79382Y-27115D01*
X79398Y-27091D01*
X79411Y-27071D01*
X79420Y-27057D01*
X79423Y-27051D01*
X79423Y-27050D01*
X79418Y-27043D01*
X79406Y-27030D01*
X79388Y-27012D01*
X79368Y-26991D01*
X79361Y-26985D01*
X79338Y-26962D01*
X79322Y-26948D01*
X79312Y-26940D01*
X79308Y-26938D01*
X79307Y-26938D01*
X79300Y-26942D01*
X79285Y-26952D01*
X79265Y-26966D01*
X79241Y-26982D01*
X79240Y-26983D01*
X79216Y-26999D01*
X79196Y-27013D01*
X79182Y-27022D01*
X79176Y-27025D01*
X79175Y-27025D01*
X79166Y-27023D01*
X79149Y-27017D01*
X79128Y-27009D01*
X79106Y-27000D01*
X79086Y-26992D01*
X79072Y-26985D01*
X79065Y-26981D01*
X79064Y-26981D01*
X79062Y-26972D01*
X79058Y-26954D01*
X79053Y-26930D01*
X79047Y-26901D01*
X79046Y-26897D01*
X79041Y-26868D01*
X79037Y-26845D01*
X79033Y-26829D01*
X79032Y-26822D01*
X79028Y-26822D01*
X79014Y-26821D01*
X78993Y-26820D01*
X78967Y-26820D01*
X78941Y-26820D01*
X78915Y-26820D01*
X78893Y-26821D01*
X78877Y-26822D01*
X78870Y-26824D01*
X78870Y-26824D01*
X78868Y-26833D01*
X78864Y-26850D01*
X78859Y-26875D01*
X78853Y-26904D01*
X78852Y-26909D01*
X78847Y-26937D01*
X78842Y-26960D01*
X78839Y-26976D01*
X78837Y-26982D01*
X78835Y-26983D01*
X78823Y-26989D01*
X78804Y-26996D01*
X78781Y-27006D01*
X78727Y-27028D01*
X78661Y-26982D01*
X78655Y-26978D01*
X78631Y-26962D01*
X78611Y-26949D01*
X78597Y-26940D01*
X78592Y-26937D01*
X78591Y-26937D01*
X78585Y-26943D01*
X78572Y-26955D01*
X78554Y-26973D01*
X78533Y-26993D01*
X78517Y-27009D01*
X78499Y-27027D01*
X78488Y-27040D01*
X78481Y-27048D01*
X78479Y-27053D01*
X78480Y-27056D01*
X78484Y-27063D01*
X78494Y-27077D01*
X78507Y-27098D01*
X78523Y-27121D01*
X78537Y-27141D01*
X78551Y-27163D01*
X78560Y-27179D01*
X78564Y-27186D01*
X78563Y-27190D01*
X78558Y-27203D01*
X78550Y-27222D01*
X78540Y-27246D01*
X78517Y-27298D01*
X78483Y-27305D01*
X78462Y-27309D01*
X78433Y-27314D01*
X78405Y-27320D01*
X78361Y-27328D01*
X78360Y-27487D01*
X78367Y-27490D01*
X78373Y-27492D01*
X78389Y-27496D01*
X78412Y-27500D01*
X78439Y-27505D01*
X78463Y-27510D01*
X78486Y-27514D01*
X78503Y-27517D01*
X78510Y-27519D01*
X78512Y-27521D01*
X78518Y-27533D01*
X78526Y-27551D01*
X78535Y-27572D01*
X78545Y-27595D01*
X78553Y-27615D01*
X78559Y-27631D01*
X78561Y-27639D01*
X78558Y-27645D01*
X78549Y-27659D01*
X78536Y-27679D01*
X78520Y-27702D01*
X78504Y-27725D01*
X78491Y-27745D01*
X78481Y-27759D01*
X78478Y-27766D01*
X78480Y-27770D01*
X78489Y-27781D01*
X78506Y-27799D01*
X78532Y-27825D01*
X78537Y-27829D01*
X78557Y-27849D01*
X78575Y-27865D01*
X78587Y-27876D01*
X78592Y-27880D01*
X78592Y-27880D01*
G37*
G54D17*
X87600Y-32500D02*
G75*
G03X87600Y-32500I-1850J0D01*
G74*
G01*
X87058Y-34161D02*
X86881Y-33984D01*
X87411Y-33808D02*
X87234Y-33631D01*
X87411Y-33808D02*
X87058Y-34161D01*
X81750Y-43250D02*
X81750Y-42250D01*
X84750Y-43250D02*
X84750Y-42250D01*
X81750Y-42250D02*
X84750Y-42250D01*
X84750Y-43250D02*
X81750Y-43250D01*
X89000Y-36000D02*
X89000Y-35000D01*
X92000Y-36000D02*
X92000Y-35000D01*
X89000Y-35000D02*
X92000Y-35000D01*
X92000Y-36000D02*
X89000Y-36000D01*
G54D13*
X94971Y-43400D02*
X94942Y-43385D01*
X94914Y-43357D01*
X94871Y-43314D01*
X94842Y-43300D01*
X94814Y-43300D01*
X94828Y-43371D02*
X94800Y-43357D01*
X94771Y-43328D01*
X94757Y-43271D01*
X94757Y-43171D01*
X94771Y-43114D01*
X94800Y-43085D01*
X94828Y-43071D01*
X94885Y-43071D01*
X94914Y-43085D01*
X94942Y-43114D01*
X94957Y-43171D01*
X94957Y-43271D01*
X94942Y-43328D01*
X94914Y-43357D01*
X94885Y-43371D01*
X94828Y-43371D01*
X95242Y-43371D02*
X95071Y-43371D01*
X95157Y-43371D02*
X95157Y-43071D01*
X95128Y-43114D01*
X95100Y-43142D01*
X95071Y-43157D01*
G54D11*
X95321Y-42475D02*
X95333Y-42463D01*
X95357Y-42451D01*
X95416Y-42451D01*
X95440Y-42463D01*
X95452Y-42475D01*
X95464Y-42498D01*
X95464Y-42522D01*
X95452Y-42558D01*
X95309Y-42701D01*
X95464Y-42701D01*
X95571Y-42701D02*
X95571Y-42451D01*
X95714Y-42701D01*
X95714Y-42451D01*
X95809Y-42451D02*
X95964Y-42451D01*
X95880Y-42546D01*
X95916Y-42546D01*
X95940Y-42558D01*
X95952Y-42570D01*
X95964Y-42594D01*
X95964Y-42653D01*
X95952Y-42677D01*
X95940Y-42689D01*
X95916Y-42701D01*
X95845Y-42701D01*
X95821Y-42689D01*
X95809Y-42677D01*
X96083Y-42701D02*
X96130Y-42701D01*
X96154Y-42689D01*
X96166Y-42677D01*
X96190Y-42641D01*
X96202Y-42594D01*
X96202Y-42498D01*
X96190Y-42475D01*
X96178Y-42463D01*
X96154Y-42451D01*
X96107Y-42451D01*
X96083Y-42463D01*
X96071Y-42475D01*
X96059Y-42498D01*
X96059Y-42558D01*
X96071Y-42582D01*
X96083Y-42594D01*
X96107Y-42605D01*
X96154Y-42605D01*
X96178Y-42594D01*
X96190Y-42582D01*
X96202Y-42558D01*
X96357Y-42451D02*
X96380Y-42451D01*
X96404Y-42463D01*
X96416Y-42475D01*
X96428Y-42498D01*
X96440Y-42546D01*
X96440Y-42605D01*
X96428Y-42653D01*
X96416Y-42677D01*
X96404Y-42689D01*
X96380Y-42701D01*
X96357Y-42701D01*
X96333Y-42689D01*
X96321Y-42677D01*
X96309Y-42653D01*
X96297Y-42605D01*
X96297Y-42546D01*
X96309Y-42498D01*
X96321Y-42475D01*
X96333Y-42463D01*
X96357Y-42451D01*
X96654Y-42534D02*
X96654Y-42701D01*
X96595Y-42439D02*
X96535Y-42617D01*
X96690Y-42617D01*
X96570Y-43303D02*
X96570Y-43220D01*
X96701Y-43184D02*
X96701Y-43303D01*
X96451Y-43303D01*
X96451Y-43184D01*
X95920Y-43732D02*
X95932Y-43696D01*
X95944Y-43684D01*
X95967Y-43672D01*
X96003Y-43672D01*
X96027Y-43684D01*
X96039Y-43696D01*
X96051Y-43720D01*
X96051Y-43815D01*
X95801Y-43815D01*
X95801Y-43732D01*
X95813Y-43708D01*
X95825Y-43696D01*
X95848Y-43684D01*
X95872Y-43684D01*
X95896Y-43696D01*
X95908Y-43708D01*
X95920Y-43732D01*
X95920Y-43815D01*
X96677Y-44172D02*
X96689Y-44184D01*
X96701Y-44220D01*
X96701Y-44244D01*
X96689Y-44279D01*
X96665Y-44303D01*
X96641Y-44315D01*
X96594Y-44327D01*
X96558Y-44327D01*
X96510Y-44315D01*
X96486Y-44303D01*
X96463Y-44279D01*
X96451Y-44244D01*
X96451Y-44220D01*
X96463Y-44184D01*
X96475Y-44172D01*
G54D13*
X92871Y-41100D02*
X92728Y-41200D01*
X92871Y-41271D02*
X92571Y-41271D01*
X92571Y-41157D01*
X92585Y-41128D01*
X92600Y-41114D01*
X92628Y-41100D01*
X92671Y-41100D01*
X92700Y-41114D01*
X92714Y-41128D01*
X92728Y-41157D01*
X92728Y-41271D01*
X92700Y-40928D02*
X92685Y-40957D01*
X92671Y-40971D01*
X92642Y-40985D01*
X92628Y-40985D01*
X92600Y-40971D01*
X92585Y-40957D01*
X92571Y-40928D01*
X92571Y-40871D01*
X92585Y-40842D01*
X92600Y-40828D01*
X92628Y-40814D01*
X92642Y-40814D01*
X92671Y-40828D01*
X92685Y-40842D01*
X92700Y-40871D01*
X92700Y-40928D01*
X92714Y-40957D01*
X92728Y-40971D01*
X92757Y-40985D01*
X92814Y-40985D01*
X92842Y-40971D01*
X92857Y-40957D01*
X92871Y-40928D01*
X92871Y-40871D01*
X92857Y-40842D01*
X92842Y-40828D01*
X92814Y-40814D01*
X92757Y-40814D01*
X92728Y-40828D01*
X92714Y-40842D01*
X92700Y-40871D01*
X92871Y-39485D02*
X92871Y-39657D01*
X92871Y-39571D02*
X92571Y-39571D01*
X92614Y-39599D01*
X92642Y-39628D01*
X92657Y-39657D01*
X92871Y-39357D02*
X92571Y-39357D01*
X92757Y-39328D02*
X92871Y-39242D01*
X92671Y-39242D02*
X92785Y-39357D01*
X93871Y-41100D02*
X93728Y-41200D01*
X93871Y-41271D02*
X93571Y-41271D01*
X93571Y-41157D01*
X93585Y-41128D01*
X93600Y-41114D01*
X93628Y-41100D01*
X93671Y-41100D01*
X93700Y-41114D01*
X93714Y-41128D01*
X93728Y-41157D01*
X93728Y-41271D01*
X93571Y-41000D02*
X93571Y-40800D01*
X93871Y-40928D01*
X93871Y-39535D02*
X93871Y-39707D01*
X93871Y-39621D02*
X93571Y-39621D01*
X93614Y-39649D01*
X93642Y-39678D01*
X93657Y-39707D01*
X93871Y-39407D02*
X93571Y-39407D01*
X93785Y-39307D01*
X93571Y-39207D01*
X93871Y-39207D01*
X84150Y-38121D02*
X84050Y-37978D01*
X83978Y-38121D02*
X83978Y-37821D01*
X84092Y-37821D01*
X84121Y-37835D01*
X84135Y-37850D01*
X84150Y-37878D01*
X84150Y-37921D01*
X84135Y-37950D01*
X84121Y-37964D01*
X84092Y-37978D01*
X83978Y-37978D01*
X84407Y-37821D02*
X84350Y-37821D01*
X84321Y-37835D01*
X84307Y-37850D01*
X84278Y-37892D01*
X84264Y-37950D01*
X84264Y-38064D01*
X84278Y-38092D01*
X84292Y-38107D01*
X84321Y-38121D01*
X84378Y-38121D01*
X84407Y-38107D01*
X84421Y-38092D01*
X84435Y-38064D01*
X84435Y-37992D01*
X84421Y-37964D01*
X84407Y-37950D01*
X84378Y-37935D01*
X84321Y-37935D01*
X84292Y-37950D01*
X84278Y-37964D01*
X84264Y-37992D01*
X85621Y-38121D02*
X85450Y-38121D01*
X85535Y-38121D02*
X85535Y-37821D01*
X85507Y-37864D01*
X85478Y-37892D01*
X85450Y-37907D01*
X85807Y-37821D02*
X85835Y-37821D01*
X85864Y-37835D01*
X85878Y-37850D01*
X85892Y-37878D01*
X85907Y-37935D01*
X85907Y-38007D01*
X85892Y-38064D01*
X85878Y-38092D01*
X85864Y-38107D01*
X85835Y-38121D01*
X85807Y-38121D01*
X85778Y-38107D01*
X85764Y-38092D01*
X85750Y-38064D01*
X85735Y-38007D01*
X85735Y-37935D01*
X85750Y-37878D01*
X85764Y-37850D01*
X85778Y-37835D01*
X85807Y-37821D01*
X86035Y-38121D02*
X86035Y-37821D01*
X86064Y-38007D02*
X86150Y-38121D01*
X86150Y-37921D02*
X86035Y-38035D01*
X84900Y-28371D02*
X84800Y-28228D01*
X84728Y-28371D02*
X84728Y-28071D01*
X84842Y-28071D01*
X84871Y-28085D01*
X84885Y-28100D01*
X84900Y-28128D01*
X84900Y-28171D01*
X84885Y-28200D01*
X84871Y-28214D01*
X84842Y-28228D01*
X84728Y-28228D01*
X85042Y-28371D02*
X85100Y-28371D01*
X85128Y-28357D01*
X85142Y-28342D01*
X85171Y-28300D01*
X85185Y-28242D01*
X85185Y-28128D01*
X85171Y-28100D01*
X85157Y-28085D01*
X85128Y-28071D01*
X85071Y-28071D01*
X85042Y-28085D01*
X85028Y-28100D01*
X85014Y-28128D01*
X85014Y-28200D01*
X85028Y-28228D01*
X85042Y-28242D01*
X85071Y-28257D01*
X85128Y-28257D01*
X85157Y-28242D01*
X85171Y-28228D01*
X85185Y-28200D01*
X86200Y-28171D02*
X86200Y-28371D01*
X86128Y-28057D02*
X86057Y-28271D01*
X86242Y-28271D01*
X86414Y-28071D02*
X86442Y-28071D01*
X86471Y-28085D01*
X86485Y-28100D01*
X86500Y-28128D01*
X86514Y-28185D01*
X86514Y-28257D01*
X86500Y-28314D01*
X86485Y-28342D01*
X86471Y-28357D01*
X86442Y-28371D01*
X86414Y-28371D01*
X86385Y-28357D01*
X86371Y-28342D01*
X86357Y-28314D01*
X86342Y-28257D01*
X86342Y-28185D01*
X86357Y-28128D01*
X86371Y-28100D01*
X86385Y-28085D01*
X86414Y-28071D01*
X86700Y-28071D02*
X86728Y-28071D01*
X86757Y-28085D01*
X86771Y-28100D01*
X86785Y-28128D01*
X86800Y-28185D01*
X86800Y-28257D01*
X86785Y-28314D01*
X86771Y-28342D01*
X86757Y-28357D01*
X86728Y-28371D01*
X86700Y-28371D01*
X86671Y-28357D01*
X86657Y-28342D01*
X86642Y-28314D01*
X86628Y-28257D01*
X86628Y-28185D01*
X86642Y-28128D01*
X86657Y-28100D01*
X86671Y-28085D01*
X86700Y-28071D01*
X86928Y-28371D02*
X86928Y-28071D01*
X86957Y-28257D02*
X87042Y-28371D01*
X87042Y-28171D02*
X86928Y-28285D01*
X82857Y-40871D02*
X82757Y-40728D01*
X82685Y-40871D02*
X82685Y-40571D01*
X82800Y-40571D01*
X82828Y-40585D01*
X82842Y-40600D01*
X82857Y-40628D01*
X82857Y-40671D01*
X82842Y-40700D01*
X82828Y-40714D01*
X82800Y-40728D01*
X82685Y-40728D01*
X83142Y-40871D02*
X82971Y-40871D01*
X83057Y-40871D02*
X83057Y-40571D01*
X83028Y-40614D01*
X83000Y-40642D01*
X82971Y-40657D01*
X83285Y-40871D02*
X83342Y-40871D01*
X83371Y-40857D01*
X83385Y-40842D01*
X83414Y-40800D01*
X83428Y-40742D01*
X83428Y-40628D01*
X83414Y-40600D01*
X83400Y-40585D01*
X83371Y-40571D01*
X83314Y-40571D01*
X83285Y-40585D01*
X83271Y-40600D01*
X83257Y-40628D01*
X83257Y-40700D01*
X83271Y-40728D01*
X83285Y-40742D01*
X83314Y-40757D01*
X83371Y-40757D01*
X83400Y-40742D01*
X83414Y-40728D01*
X83428Y-40700D01*
X81271Y-40871D02*
X81100Y-40871D01*
X81185Y-40871D02*
X81185Y-40571D01*
X81157Y-40614D01*
X81128Y-40642D01*
X81100Y-40657D01*
X81457Y-40571D02*
X81485Y-40571D01*
X81514Y-40585D01*
X81528Y-40600D01*
X81542Y-40628D01*
X81557Y-40685D01*
X81557Y-40757D01*
X81542Y-40814D01*
X81528Y-40842D01*
X81514Y-40857D01*
X81485Y-40871D01*
X81457Y-40871D01*
X81428Y-40857D01*
X81414Y-40842D01*
X81400Y-40814D01*
X81385Y-40757D01*
X81385Y-40685D01*
X81400Y-40628D01*
X81414Y-40600D01*
X81428Y-40585D01*
X81457Y-40571D01*
X81685Y-40871D02*
X81685Y-40571D01*
X81714Y-40757D02*
X81800Y-40871D01*
X81800Y-40671D02*
X81685Y-40785D01*
X90071Y-40478D02*
X90314Y-40478D01*
X90342Y-40464D01*
X90357Y-40450D01*
X90371Y-40421D01*
X90371Y-40364D01*
X90357Y-40335D01*
X90342Y-40321D01*
X90314Y-40307D01*
X90071Y-40307D01*
X90100Y-40178D02*
X90085Y-40164D01*
X90071Y-40135D01*
X90071Y-40064D01*
X90085Y-40035D01*
X90100Y-40021D01*
X90128Y-40007D01*
X90157Y-40007D01*
X90200Y-40021D01*
X90371Y-40192D01*
X90371Y-40007D01*
X87907Y-40371D02*
X87764Y-40371D01*
X87764Y-40071D01*
X87964Y-40071D02*
X88135Y-40071D01*
X88050Y-40371D02*
X88050Y-40071D01*
X88392Y-40371D02*
X88221Y-40371D01*
X88307Y-40371D02*
X88307Y-40071D01*
X88278Y-40114D01*
X88250Y-40142D01*
X88221Y-40157D01*
X88578Y-40071D02*
X88607Y-40071D01*
X88635Y-40085D01*
X88650Y-40100D01*
X88664Y-40128D01*
X88678Y-40185D01*
X88678Y-40257D01*
X88664Y-40314D01*
X88650Y-40342D01*
X88635Y-40357D01*
X88607Y-40371D01*
X88578Y-40371D01*
X88550Y-40357D01*
X88535Y-40342D01*
X88521Y-40314D01*
X88507Y-40257D01*
X88507Y-40185D01*
X88521Y-40128D01*
X88535Y-40100D01*
X88550Y-40085D01*
X88578Y-40071D01*
X88964Y-40371D02*
X88792Y-40371D01*
X88878Y-40371D02*
X88878Y-40071D01*
X88850Y-40114D01*
X88821Y-40142D01*
X88792Y-40157D01*
X89064Y-40071D02*
X89249Y-40071D01*
X89149Y-40185D01*
X89192Y-40185D01*
X89221Y-40200D01*
X89235Y-40214D01*
X89249Y-40242D01*
X89249Y-40314D01*
X89235Y-40342D01*
X89221Y-40357D01*
X89192Y-40371D01*
X89107Y-40371D01*
X89078Y-40357D01*
X89064Y-40342D01*
X95700Y-41692D02*
X95685Y-41707D01*
X95642Y-41721D01*
X95614Y-41721D01*
X95571Y-41707D01*
X95542Y-41678D01*
X95528Y-41650D01*
X95514Y-41592D01*
X95514Y-41550D01*
X95528Y-41492D01*
X95542Y-41464D01*
X95571Y-41435D01*
X95614Y-41421D01*
X95642Y-41421D01*
X95685Y-41435D01*
X95700Y-41450D01*
X95985Y-41721D02*
X95814Y-41721D01*
X95900Y-41721D02*
X95900Y-41421D01*
X95871Y-41464D01*
X95842Y-41492D01*
X95814Y-41507D01*
X95257Y-40571D02*
X95285Y-40571D01*
X95314Y-40585D01*
X95328Y-40600D01*
X95342Y-40628D01*
X95357Y-40685D01*
X95357Y-40757D01*
X95342Y-40814D01*
X95328Y-40842D01*
X95314Y-40857D01*
X95285Y-40871D01*
X95257Y-40871D01*
X95228Y-40857D01*
X95214Y-40842D01*
X95200Y-40814D01*
X95185Y-40757D01*
X95185Y-40685D01*
X95200Y-40628D01*
X95214Y-40600D01*
X95228Y-40585D01*
X95257Y-40571D01*
X95485Y-40842D02*
X95500Y-40857D01*
X95485Y-40871D01*
X95471Y-40857D01*
X95485Y-40842D01*
X95485Y-40871D01*
X95785Y-40871D02*
X95614Y-40871D01*
X95700Y-40871D02*
X95700Y-40571D01*
X95671Y-40614D01*
X95642Y-40642D01*
X95614Y-40657D01*
X96042Y-40671D02*
X96042Y-40871D01*
X95914Y-40671D02*
X95914Y-40828D01*
X95928Y-40857D01*
X95957Y-40871D01*
X96000Y-40871D01*
X96028Y-40857D01*
X96042Y-40842D01*
X96285Y-40714D02*
X96185Y-40714D01*
X96185Y-40871D02*
X96185Y-40571D01*
X96328Y-40571D01*
X88450Y-35592D02*
X88435Y-35607D01*
X88392Y-35621D01*
X88364Y-35621D01*
X88321Y-35607D01*
X88292Y-35578D01*
X88278Y-35550D01*
X88264Y-35492D01*
X88264Y-35450D01*
X88278Y-35392D01*
X88292Y-35364D01*
X88321Y-35335D01*
X88364Y-35321D01*
X88392Y-35321D01*
X88435Y-35335D01*
X88450Y-35350D01*
X88564Y-35350D02*
X88578Y-35335D01*
X88607Y-35321D01*
X88678Y-35321D01*
X88707Y-35335D01*
X88721Y-35350D01*
X88735Y-35378D01*
X88735Y-35407D01*
X88721Y-35450D01*
X88550Y-35621D01*
X88735Y-35621D01*
X90007Y-36321D02*
X90035Y-36321D01*
X90064Y-36335D01*
X90078Y-36350D01*
X90092Y-36378D01*
X90107Y-36435D01*
X90107Y-36507D01*
X90092Y-36564D01*
X90078Y-36592D01*
X90064Y-36607D01*
X90035Y-36621D01*
X90007Y-36621D01*
X89978Y-36607D01*
X89964Y-36592D01*
X89950Y-36564D01*
X89935Y-36507D01*
X89935Y-36435D01*
X89950Y-36378D01*
X89964Y-36350D01*
X89978Y-36335D01*
X90007Y-36321D01*
X90235Y-36592D02*
X90250Y-36607D01*
X90235Y-36621D01*
X90221Y-36607D01*
X90235Y-36592D01*
X90235Y-36621D01*
X90535Y-36621D02*
X90364Y-36621D01*
X90450Y-36621D02*
X90450Y-36321D01*
X90421Y-36364D01*
X90392Y-36392D01*
X90364Y-36407D01*
X90792Y-36421D02*
X90792Y-36621D01*
X90664Y-36421D02*
X90664Y-36578D01*
X90678Y-36607D01*
X90707Y-36621D01*
X90750Y-36621D01*
X90778Y-36607D01*
X90792Y-36592D01*
X91035Y-36464D02*
X90935Y-36464D01*
X90935Y-36621D02*
X90935Y-36321D01*
X91078Y-36321D01*
X85200Y-42142D02*
X85185Y-42157D01*
X85142Y-42171D01*
X85114Y-42171D01*
X85071Y-42157D01*
X85042Y-42128D01*
X85028Y-42100D01*
X85014Y-42042D01*
X85014Y-42000D01*
X85028Y-41942D01*
X85042Y-41914D01*
X85071Y-41885D01*
X85114Y-41871D01*
X85142Y-41871D01*
X85185Y-41885D01*
X85200Y-41900D01*
X85300Y-41871D02*
X85485Y-41871D01*
X85385Y-41985D01*
X85428Y-41985D01*
X85457Y-42000D01*
X85471Y-42014D01*
X85485Y-42042D01*
X85485Y-42114D01*
X85471Y-42142D01*
X85457Y-42157D01*
X85428Y-42171D01*
X85342Y-42171D01*
X85314Y-42157D01*
X85300Y-42142D01*
X85100Y-40742D02*
X85085Y-40728D01*
X85071Y-40700D01*
X85071Y-40628D01*
X85085Y-40600D01*
X85100Y-40585D01*
X85128Y-40571D01*
X85157Y-40571D01*
X85200Y-40585D01*
X85371Y-40757D01*
X85371Y-40571D01*
X85100Y-40457D02*
X85085Y-40442D01*
X85071Y-40414D01*
X85071Y-40342D01*
X85085Y-40314D01*
X85100Y-40300D01*
X85128Y-40285D01*
X85157Y-40285D01*
X85200Y-40300D01*
X85371Y-40471D01*
X85371Y-40285D01*
X85171Y-40157D02*
X85371Y-40157D01*
X85200Y-40157D02*
X85185Y-40142D01*
X85171Y-40114D01*
X85171Y-40071D01*
X85185Y-40042D01*
X85214Y-40028D01*
X85371Y-40028D01*
X85214Y-39785D02*
X85214Y-39885D01*
X85371Y-39885D02*
X85071Y-39885D01*
X85071Y-39742D01*
X86200Y-42142D02*
X86185Y-42157D01*
X86142Y-42171D01*
X86114Y-42171D01*
X86071Y-42157D01*
X86042Y-42128D01*
X86028Y-42100D01*
X86014Y-42042D01*
X86014Y-42000D01*
X86028Y-41942D01*
X86042Y-41914D01*
X86071Y-41885D01*
X86114Y-41871D01*
X86142Y-41871D01*
X86185Y-41885D01*
X86200Y-41900D01*
X86457Y-41971D02*
X86457Y-42171D01*
X86385Y-41857D02*
X86314Y-42071D01*
X86500Y-42071D01*
X86071Y-40742D02*
X86071Y-40714D01*
X86085Y-40685D01*
X86100Y-40671D01*
X86128Y-40657D01*
X86185Y-40642D01*
X86257Y-40642D01*
X86314Y-40657D01*
X86342Y-40671D01*
X86357Y-40685D01*
X86371Y-40714D01*
X86371Y-40742D01*
X86357Y-40771D01*
X86342Y-40785D01*
X86314Y-40799D01*
X86257Y-40814D01*
X86185Y-40814D01*
X86128Y-40799D01*
X86100Y-40785D01*
X86085Y-40771D01*
X86071Y-40742D01*
X86342Y-40514D02*
X86357Y-40500D01*
X86371Y-40514D01*
X86357Y-40528D01*
X86342Y-40514D01*
X86371Y-40514D01*
X86371Y-40214D02*
X86371Y-40385D01*
X86371Y-40300D02*
X86071Y-40300D01*
X86114Y-40328D01*
X86142Y-40357D01*
X86157Y-40385D01*
X86171Y-39957D02*
X86371Y-39957D01*
X86171Y-40085D02*
X86328Y-40085D01*
X86357Y-40071D01*
X86371Y-40042D01*
X86371Y-40000D01*
X86357Y-39971D01*
X86342Y-39957D01*
X86214Y-39714D02*
X86214Y-39814D01*
X86371Y-39814D02*
X86071Y-39814D01*
X86071Y-39671D01*
X91350Y-43242D02*
X91335Y-43257D01*
X91292Y-43271D01*
X91264Y-43271D01*
X91221Y-43257D01*
X91192Y-43228D01*
X91178Y-43200D01*
X91164Y-43142D01*
X91164Y-43100D01*
X91178Y-43042D01*
X91192Y-43014D01*
X91221Y-42985D01*
X91264Y-42971D01*
X91292Y-42971D01*
X91335Y-42985D01*
X91350Y-43000D01*
X91521Y-43100D02*
X91492Y-43085D01*
X91478Y-43071D01*
X91464Y-43042D01*
X91464Y-43028D01*
X91478Y-43000D01*
X91492Y-42985D01*
X91521Y-42971D01*
X91578Y-42971D01*
X91607Y-42985D01*
X91621Y-43000D01*
X91635Y-43028D01*
X91635Y-43042D01*
X91621Y-43071D01*
X91607Y-43085D01*
X91578Y-43100D01*
X91521Y-43100D01*
X91492Y-43114D01*
X91478Y-43128D01*
X91464Y-43157D01*
X91464Y-43214D01*
X91478Y-43242D01*
X91492Y-43257D01*
X91521Y-43271D01*
X91578Y-43271D01*
X91607Y-43257D01*
X91621Y-43242D01*
X91635Y-43214D01*
X91635Y-43157D01*
X91621Y-43128D01*
X91607Y-43114D01*
X91578Y-43100D01*
X89007Y-42571D02*
X89035Y-42571D01*
X89064Y-42585D01*
X89078Y-42600D01*
X89092Y-42628D01*
X89107Y-42685D01*
X89107Y-42757D01*
X89092Y-42814D01*
X89078Y-42842D01*
X89064Y-42857D01*
X89035Y-42871D01*
X89007Y-42871D01*
X88978Y-42857D01*
X88964Y-42842D01*
X88950Y-42814D01*
X88935Y-42757D01*
X88935Y-42685D01*
X88950Y-42628D01*
X88964Y-42600D01*
X88978Y-42585D01*
X89007Y-42571D01*
X89235Y-42842D02*
X89250Y-42857D01*
X89235Y-42871D01*
X89221Y-42857D01*
X89235Y-42842D01*
X89235Y-42871D01*
X89535Y-42871D02*
X89364Y-42871D01*
X89450Y-42871D02*
X89450Y-42571D01*
X89421Y-42614D01*
X89392Y-42642D01*
X89364Y-42657D01*
X89792Y-42671D02*
X89792Y-42871D01*
X89664Y-42671D02*
X89664Y-42828D01*
X89678Y-42857D01*
X89707Y-42871D01*
X89750Y-42871D01*
X89778Y-42857D01*
X89792Y-42842D01*
X90035Y-42714D02*
X89935Y-42714D01*
X89935Y-42871D02*
X89935Y-42571D01*
X90078Y-42571D01*
X83647Y-35879D02*
X83627Y-35879D01*
X83587Y-35859D01*
X83567Y-35838D01*
X83546Y-35798D01*
X83546Y-35758D01*
X83557Y-35727D01*
X83587Y-35677D01*
X83617Y-35646D01*
X83668Y-35616D01*
X83698Y-35606D01*
X83738Y-35606D01*
X83779Y-35626D01*
X83799Y-35646D01*
X83819Y-35687D01*
X83819Y-35707D01*
X83829Y-36101D02*
X83708Y-35980D01*
X83769Y-36040D02*
X83981Y-35828D01*
X83930Y-35838D01*
X83890Y-35838D01*
X83860Y-35828D01*
X84031Y-36303D02*
X83910Y-36182D01*
X83971Y-36242D02*
X84183Y-36030D01*
X84132Y-36040D01*
X84092Y-36040D01*
X84062Y-36030D01*
X82277Y-35275D02*
X82297Y-35295D01*
X82308Y-35325D01*
X82308Y-35345D01*
X82297Y-35376D01*
X82267Y-35426D01*
X82217Y-35477D01*
X82166Y-35507D01*
X82136Y-35517D01*
X82116Y-35517D01*
X82085Y-35507D01*
X82065Y-35487D01*
X82055Y-35457D01*
X82055Y-35436D01*
X82065Y-35406D01*
X82095Y-35356D01*
X82146Y-35305D01*
X82196Y-35275D01*
X82227Y-35265D01*
X82247Y-35265D01*
X82277Y-35275D01*
X82247Y-35628D02*
X82247Y-35648D01*
X82227Y-35648D01*
X82227Y-35628D01*
X82247Y-35628D01*
X82227Y-35648D01*
X82439Y-35861D02*
X82318Y-35739D01*
X82378Y-35800D02*
X82590Y-35588D01*
X82540Y-35598D01*
X82500Y-35598D01*
X82469Y-35588D01*
X82762Y-35901D02*
X82621Y-36042D01*
X82671Y-35810D02*
X82560Y-35921D01*
X82550Y-35952D01*
X82560Y-35982D01*
X82590Y-36012D01*
X82621Y-36022D01*
X82641Y-36022D01*
X82904Y-36103D02*
X82833Y-36032D01*
X82722Y-36143D02*
X82934Y-35931D01*
X83035Y-36032D01*
X82192Y-31592D02*
X82207Y-31607D01*
X82221Y-31650D01*
X82221Y-31678D01*
X82207Y-31721D01*
X82178Y-31750D01*
X82150Y-31764D01*
X82092Y-31778D01*
X82050Y-31778D01*
X81992Y-31764D01*
X81964Y-31750D01*
X81935Y-31721D01*
X81921Y-31678D01*
X81921Y-31650D01*
X81935Y-31607D01*
X81950Y-31592D01*
X82221Y-31307D02*
X82221Y-31478D01*
X82221Y-31392D02*
X81921Y-31392D01*
X81964Y-31421D01*
X81992Y-31450D01*
X82007Y-31478D01*
X81950Y-31192D02*
X81935Y-31178D01*
X81921Y-31150D01*
X81921Y-31078D01*
X81935Y-31050D01*
X81950Y-31035D01*
X81978Y-31021D01*
X82007Y-31021D01*
X82050Y-31035D01*
X82221Y-31207D01*
X82221Y-31021D01*
X81071Y-32992D02*
X81071Y-32964D01*
X81085Y-32935D01*
X81100Y-32921D01*
X81128Y-32907D01*
X81185Y-32892D01*
X81257Y-32892D01*
X81314Y-32907D01*
X81342Y-32921D01*
X81357Y-32935D01*
X81371Y-32964D01*
X81371Y-32992D01*
X81357Y-33021D01*
X81342Y-33035D01*
X81314Y-33049D01*
X81257Y-33064D01*
X81185Y-33064D01*
X81128Y-33049D01*
X81100Y-33035D01*
X81085Y-33021D01*
X81071Y-32992D01*
X81342Y-32764D02*
X81357Y-32750D01*
X81371Y-32764D01*
X81357Y-32778D01*
X81342Y-32764D01*
X81371Y-32764D01*
X81371Y-32464D02*
X81371Y-32635D01*
X81371Y-32550D02*
X81071Y-32550D01*
X81114Y-32578D01*
X81142Y-32607D01*
X81157Y-32635D01*
X81171Y-32207D02*
X81371Y-32207D01*
X81171Y-32335D02*
X81328Y-32335D01*
X81357Y-32321D01*
X81371Y-32292D01*
X81371Y-32250D01*
X81357Y-32221D01*
X81342Y-32207D01*
X81214Y-31964D02*
X81214Y-32064D01*
X81371Y-32064D02*
X81071Y-32064D01*
X81071Y-31921D01*
X95557Y-39042D02*
X95542Y-39057D01*
X95500Y-39071D01*
X95471Y-39071D01*
X95428Y-39057D01*
X95400Y-39028D01*
X95385Y-39000D01*
X95371Y-38942D01*
X95371Y-38900D01*
X95385Y-38842D01*
X95400Y-38814D01*
X95428Y-38785D01*
X95471Y-38771D01*
X95500Y-38771D01*
X95542Y-38785D01*
X95557Y-38800D01*
X95842Y-39071D02*
X95671Y-39071D01*
X95757Y-39071D02*
X95757Y-38771D01*
X95728Y-38814D01*
X95700Y-38842D01*
X95671Y-38857D01*
X95942Y-38771D02*
X96128Y-38771D01*
X96028Y-38885D01*
X96071Y-38885D01*
X96100Y-38900D01*
X96114Y-38914D01*
X96128Y-38942D01*
X96128Y-39014D01*
X96114Y-39042D01*
X96100Y-39057D01*
X96071Y-39071D01*
X95985Y-39071D01*
X95957Y-39057D01*
X95942Y-39042D01*
X95428Y-39871D02*
X95257Y-39871D01*
X95342Y-39871D02*
X95342Y-39571D01*
X95314Y-39614D01*
X95285Y-39642D01*
X95257Y-39657D01*
X95614Y-39571D02*
X95642Y-39571D01*
X95671Y-39585D01*
X95685Y-39600D01*
X95700Y-39628D01*
X95714Y-39685D01*
X95714Y-39757D01*
X95700Y-39814D01*
X95685Y-39842D01*
X95671Y-39857D01*
X95642Y-39871D01*
X95614Y-39871D01*
X95585Y-39857D01*
X95571Y-39842D01*
X95557Y-39814D01*
X95542Y-39757D01*
X95542Y-39685D01*
X95557Y-39628D01*
X95571Y-39600D01*
X95585Y-39585D01*
X95614Y-39571D01*
X95842Y-39671D02*
X95842Y-39871D01*
X95842Y-39700D02*
X95857Y-39685D01*
X95885Y-39671D01*
X95928Y-39671D01*
X95957Y-39685D01*
X95971Y-39714D01*
X95971Y-39871D01*
X96214Y-39714D02*
X96114Y-39714D01*
X96114Y-39871D02*
X96114Y-39571D01*
X96257Y-39571D01*
X91357Y-37842D02*
X91342Y-37857D01*
X91300Y-37871D01*
X91271Y-37871D01*
X91228Y-37857D01*
X91200Y-37828D01*
X91185Y-37800D01*
X91171Y-37742D01*
X91171Y-37700D01*
X91185Y-37642D01*
X91200Y-37614D01*
X91228Y-37585D01*
X91271Y-37571D01*
X91300Y-37571D01*
X91342Y-37585D01*
X91357Y-37600D01*
X91642Y-37871D02*
X91471Y-37871D01*
X91557Y-37871D02*
X91557Y-37571D01*
X91528Y-37614D01*
X91500Y-37642D01*
X91471Y-37657D01*
X91900Y-37671D02*
X91900Y-37871D01*
X91828Y-37557D02*
X91757Y-37771D01*
X91942Y-37771D01*
X89007Y-37571D02*
X89035Y-37571D01*
X89064Y-37585D01*
X89078Y-37600D01*
X89092Y-37628D01*
X89107Y-37685D01*
X89107Y-37757D01*
X89092Y-37814D01*
X89078Y-37842D01*
X89064Y-37857D01*
X89035Y-37871D01*
X89007Y-37871D01*
X88978Y-37857D01*
X88964Y-37842D01*
X88950Y-37814D01*
X88935Y-37757D01*
X88935Y-37685D01*
X88950Y-37628D01*
X88964Y-37600D01*
X88978Y-37585D01*
X89007Y-37571D01*
X89235Y-37842D02*
X89250Y-37857D01*
X89235Y-37871D01*
X89221Y-37857D01*
X89235Y-37842D01*
X89235Y-37871D01*
X89535Y-37871D02*
X89364Y-37871D01*
X89450Y-37871D02*
X89450Y-37571D01*
X89421Y-37614D01*
X89392Y-37642D01*
X89364Y-37657D01*
X89792Y-37671D02*
X89792Y-37871D01*
X89664Y-37671D02*
X89664Y-37828D01*
X89678Y-37857D01*
X89707Y-37871D01*
X89750Y-37871D01*
X89778Y-37857D01*
X89792Y-37842D01*
X90035Y-37714D02*
X89935Y-37714D01*
X89935Y-37871D02*
X89935Y-37571D01*
X90078Y-37571D01*
X85307Y-43692D02*
X85292Y-43707D01*
X85250Y-43721D01*
X85221Y-43721D01*
X85178Y-43707D01*
X85150Y-43678D01*
X85135Y-43650D01*
X85121Y-43592D01*
X85121Y-43550D01*
X85135Y-43492D01*
X85150Y-43464D01*
X85178Y-43435D01*
X85221Y-43421D01*
X85250Y-43421D01*
X85292Y-43435D01*
X85307Y-43450D01*
X85592Y-43721D02*
X85421Y-43721D01*
X85507Y-43721D02*
X85507Y-43421D01*
X85478Y-43464D01*
X85450Y-43492D01*
X85421Y-43507D01*
X85864Y-43421D02*
X85721Y-43421D01*
X85707Y-43564D01*
X85721Y-43550D01*
X85750Y-43535D01*
X85821Y-43535D01*
X85850Y-43550D01*
X85864Y-43564D01*
X85878Y-43592D01*
X85878Y-43664D01*
X85864Y-43692D01*
X85850Y-43707D01*
X85821Y-43721D01*
X85750Y-43721D01*
X85721Y-43707D01*
X85707Y-43692D01*
X86007Y-42571D02*
X86035Y-42571D01*
X86064Y-42585D01*
X86078Y-42600D01*
X86092Y-42628D01*
X86107Y-42685D01*
X86107Y-42757D01*
X86092Y-42814D01*
X86078Y-42842D01*
X86064Y-42857D01*
X86035Y-42871D01*
X86007Y-42871D01*
X85978Y-42857D01*
X85964Y-42842D01*
X85950Y-42814D01*
X85935Y-42757D01*
X85935Y-42685D01*
X85950Y-42628D01*
X85964Y-42600D01*
X85978Y-42585D01*
X86007Y-42571D01*
X86235Y-42842D02*
X86250Y-42857D01*
X86235Y-42871D01*
X86221Y-42857D01*
X86235Y-42842D01*
X86235Y-42871D01*
X86535Y-42871D02*
X86364Y-42871D01*
X86450Y-42871D02*
X86450Y-42571D01*
X86421Y-42614D01*
X86392Y-42642D01*
X86364Y-42657D01*
X86792Y-42671D02*
X86792Y-42871D01*
X86664Y-42671D02*
X86664Y-42828D01*
X86678Y-42857D01*
X86707Y-42871D01*
X86750Y-42871D01*
X86778Y-42857D01*
X86792Y-42842D01*
X87035Y-42714D02*
X86935Y-42714D01*
X86935Y-42871D02*
X86935Y-42571D01*
X87078Y-42571D01*
X85528Y-44621D02*
X85528Y-44321D01*
X85600Y-44321D01*
X85642Y-44335D01*
X85671Y-44364D01*
X85685Y-44392D01*
X85700Y-44450D01*
X85700Y-44492D01*
X85685Y-44550D01*
X85671Y-44578D01*
X85642Y-44607D01*
X85600Y-44621D01*
X85528Y-44621D01*
X85957Y-44421D02*
X85957Y-44621D01*
X85885Y-44307D02*
X85814Y-44521D01*
X86000Y-44521D01*
X87857Y-44121D02*
X87685Y-44121D01*
X87771Y-44121D02*
X87771Y-43821D01*
X87742Y-43864D01*
X87714Y-43892D01*
X87685Y-43907D01*
X87985Y-44121D02*
X87985Y-43821D01*
X88157Y-44121D01*
X88157Y-43821D01*
X88442Y-43821D02*
X88300Y-43821D01*
X88285Y-43964D01*
X88300Y-43950D01*
X88328Y-43935D01*
X88400Y-43935D01*
X88428Y-43950D01*
X88442Y-43964D01*
X88457Y-43992D01*
X88457Y-44064D01*
X88442Y-44092D01*
X88428Y-44107D01*
X88400Y-44121D01*
X88328Y-44121D01*
X88300Y-44107D01*
X88285Y-44092D01*
X88628Y-43950D02*
X88600Y-43935D01*
X88585Y-43921D01*
X88571Y-43892D01*
X88571Y-43878D01*
X88585Y-43850D01*
X88600Y-43835D01*
X88628Y-43821D01*
X88685Y-43821D01*
X88714Y-43835D01*
X88728Y-43850D01*
X88742Y-43878D01*
X88742Y-43892D01*
X88728Y-43921D01*
X88714Y-43935D01*
X88685Y-43950D01*
X88628Y-43950D01*
X88600Y-43964D01*
X88585Y-43978D01*
X88571Y-44007D01*
X88571Y-44064D01*
X88585Y-44092D01*
X88600Y-44107D01*
X88628Y-44121D01*
X88685Y-44121D01*
X88714Y-44107D01*
X88728Y-44092D01*
X88742Y-44064D01*
X88742Y-44007D01*
X88728Y-43978D01*
X88714Y-43964D01*
X88685Y-43950D01*
X89028Y-44121D02*
X88857Y-44121D01*
X88942Y-44121D02*
X88942Y-43821D01*
X88914Y-43864D01*
X88885Y-43892D01*
X88857Y-43907D01*
X89171Y-44121D02*
X89228Y-44121D01*
X89257Y-44107D01*
X89271Y-44092D01*
X89300Y-44050D01*
X89314Y-43992D01*
X89314Y-43878D01*
X89300Y-43850D01*
X89285Y-43835D01*
X89257Y-43821D01*
X89200Y-43821D01*
X89171Y-43835D01*
X89157Y-43850D01*
X89142Y-43878D01*
X89142Y-43950D01*
X89157Y-43978D01*
X89171Y-43992D01*
X89200Y-44007D01*
X89257Y-44007D01*
X89285Y-43992D01*
X89300Y-43978D01*
X89314Y-43950D01*
X91871Y-42721D02*
X91571Y-42721D01*
X91571Y-42650D01*
X91585Y-42607D01*
X91614Y-42578D01*
X91642Y-42564D01*
X91700Y-42550D01*
X91742Y-42550D01*
X91800Y-42564D01*
X91828Y-42578D01*
X91857Y-42607D01*
X91871Y-42650D01*
X91871Y-42721D01*
X91600Y-42435D02*
X91585Y-42421D01*
X91571Y-42392D01*
X91571Y-42321D01*
X91585Y-42292D01*
X91600Y-42278D01*
X91628Y-42264D01*
X91657Y-42264D01*
X91700Y-42278D01*
X91871Y-42450D01*
X91871Y-42264D01*
X91871Y-40892D02*
X91871Y-41064D01*
X91871Y-40978D02*
X91571Y-40978D01*
X91614Y-41007D01*
X91642Y-41035D01*
X91657Y-41064D01*
X91871Y-40764D02*
X91571Y-40764D01*
X91871Y-40592D01*
X91571Y-40592D01*
X91671Y-40321D02*
X91871Y-40321D01*
X91557Y-40392D02*
X91771Y-40464D01*
X91771Y-40278D01*
X91871Y-40007D02*
X91871Y-40178D01*
X91871Y-40092D02*
X91571Y-40092D01*
X91614Y-40121D01*
X91642Y-40150D01*
X91657Y-40178D01*
X91671Y-39750D02*
X91871Y-39750D01*
X91557Y-39821D02*
X91771Y-39892D01*
X91771Y-39707D01*
X91700Y-39550D02*
X91685Y-39578D01*
X91671Y-39592D01*
X91642Y-39607D01*
X91628Y-39607D01*
X91600Y-39592D01*
X91585Y-39578D01*
X91571Y-39550D01*
X91571Y-39492D01*
X91585Y-39464D01*
X91600Y-39450D01*
X91628Y-39435D01*
X91642Y-39435D01*
X91671Y-39450D01*
X91685Y-39464D01*
X91700Y-39492D01*
X91700Y-39550D01*
X91714Y-39578D01*
X91728Y-39592D01*
X91757Y-39607D01*
X91814Y-39607D01*
X91842Y-39592D01*
X91857Y-39578D01*
X91871Y-39550D01*
X91871Y-39492D01*
X91857Y-39464D01*
X91842Y-39450D01*
X91814Y-39435D01*
X91757Y-39435D01*
X91728Y-39450D01*
X91714Y-39464D01*
X91700Y-39492D01*
X89471Y-31521D02*
X89171Y-31521D01*
X89171Y-31450D01*
X89185Y-31407D01*
X89214Y-31378D01*
X89242Y-31364D01*
X89300Y-31350D01*
X89342Y-31350D01*
X89400Y-31364D01*
X89428Y-31378D01*
X89457Y-31407D01*
X89471Y-31450D01*
X89471Y-31521D01*
X89471Y-31064D02*
X89471Y-31235D01*
X89471Y-31150D02*
X89171Y-31150D01*
X89214Y-31178D01*
X89242Y-31207D01*
X89257Y-31235D01*
X90121Y-33142D02*
X90121Y-33314D01*
X90121Y-33228D02*
X89821Y-33228D01*
X89864Y-33257D01*
X89892Y-33285D01*
X89907Y-33314D01*
X90121Y-33014D02*
X89821Y-33014D01*
X90121Y-32842D01*
X89821Y-32842D01*
X89921Y-32571D02*
X90121Y-32571D01*
X89807Y-32642D02*
X90021Y-32714D01*
X90021Y-32528D01*
X90121Y-32257D02*
X90121Y-32428D01*
X90121Y-32342D02*
X89821Y-32342D01*
X89864Y-32371D01*
X89892Y-32400D01*
X89907Y-32428D01*
X89921Y-32000D02*
X90121Y-32000D01*
X89807Y-32071D02*
X90021Y-32142D01*
X90021Y-31957D01*
X89950Y-31800D02*
X89935Y-31828D01*
X89921Y-31842D01*
X89892Y-31857D01*
X89878Y-31857D01*
X89850Y-31842D01*
X89835Y-31828D01*
X89821Y-31800D01*
X89821Y-31742D01*
X89835Y-31714D01*
X89850Y-31700D01*
X89878Y-31685D01*
X89892Y-31685D01*
X89921Y-31700D01*
X89935Y-31714D01*
X89950Y-31742D01*
X89950Y-31800D01*
X89964Y-31828D01*
X89978Y-31842D01*
X90007Y-31857D01*
X90064Y-31857D01*
X90092Y-31842D01*
X90107Y-31828D01*
X90121Y-31800D01*
X90121Y-31742D01*
X90107Y-31714D01*
X90092Y-31700D01*
X90064Y-31685D01*
X90007Y-31685D01*
X89978Y-31700D01*
X89964Y-31714D01*
X89950Y-31742D01*
X93028Y-43371D02*
X93028Y-43071D01*
X93100Y-43071D01*
X93142Y-43085D01*
X93171Y-43114D01*
X93185Y-43142D01*
X93200Y-43200D01*
X93200Y-43242D01*
X93185Y-43300D01*
X93171Y-43328D01*
X93142Y-43357D01*
X93100Y-43371D01*
X93028Y-43371D01*
X93300Y-43071D02*
X93485Y-43071D01*
X93385Y-43185D01*
X93428Y-43185D01*
X93457Y-43200D01*
X93471Y-43214D01*
X93485Y-43242D01*
X93485Y-43314D01*
X93471Y-43342D01*
X93457Y-43357D01*
X93428Y-43371D01*
X93342Y-43371D01*
X93314Y-43357D01*
X93300Y-43342D01*
X92571Y-43821D02*
X92771Y-43821D01*
X92571Y-44121D01*
X92771Y-44121D01*
X92885Y-43964D02*
X92985Y-43964D01*
X93028Y-44121D02*
X92885Y-44121D01*
X92885Y-43821D01*
X93028Y-43821D01*
X93157Y-44121D02*
X93157Y-43821D01*
X93328Y-44121D01*
X93328Y-43821D01*
X93471Y-43964D02*
X93571Y-43964D01*
X93614Y-44121D02*
X93471Y-44121D01*
X93471Y-43821D01*
X93614Y-43821D01*
X93914Y-44121D02*
X93814Y-43978D01*
X93742Y-44121D02*
X93742Y-43821D01*
X93857Y-43821D01*
X93885Y-43835D01*
X93900Y-43850D01*
X93914Y-43878D01*
X93914Y-43921D01*
X93900Y-43950D01*
X93885Y-43964D01*
X93857Y-43978D01*
X93742Y-43978D01*
X79300Y-28621D02*
X79128Y-28590D01*
X79179Y-28742D02*
X78967Y-28530D01*
X79047Y-28449D01*
X79078Y-28439D01*
X79098Y-28439D01*
X79128Y-28449D01*
X79159Y-28479D01*
X79169Y-28510D01*
X79169Y-28530D01*
X79159Y-28560D01*
X79078Y-28641D01*
X79189Y-28348D02*
X79189Y-28328D01*
X79199Y-28297D01*
X79250Y-28247D01*
X79280Y-28237D01*
X79300Y-28237D01*
X79330Y-28247D01*
X79351Y-28267D01*
X79371Y-28308D01*
X79371Y-28550D01*
X79502Y-28419D01*
X80366Y-27131D02*
X80507Y-26989D01*
X80628Y-27292D01*
X80628Y-26868D02*
X80648Y-26848D01*
X80679Y-26838D01*
X80699Y-26838D01*
X80729Y-26848D01*
X80780Y-26878D01*
X80830Y-26929D01*
X80861Y-26979D01*
X80871Y-27010D01*
X80871Y-27030D01*
X80861Y-27060D01*
X80840Y-27080D01*
X80810Y-27090D01*
X80790Y-27090D01*
X80760Y-27080D01*
X80709Y-27050D01*
X80659Y-26999D01*
X80628Y-26949D01*
X80618Y-26919D01*
X80618Y-26898D01*
X80628Y-26868D01*
X81002Y-26919D02*
X80790Y-26707D01*
X80941Y-26818D02*
X81083Y-26838D01*
X80941Y-26696D02*
X80941Y-26858D01*
X78471Y-30550D02*
X78328Y-30650D01*
X78471Y-30721D02*
X78171Y-30721D01*
X78171Y-30607D01*
X78185Y-30578D01*
X78200Y-30564D01*
X78228Y-30550D01*
X78271Y-30550D01*
X78300Y-30564D01*
X78314Y-30578D01*
X78328Y-30607D01*
X78328Y-30721D01*
X78471Y-30264D02*
X78471Y-30435D01*
X78471Y-30350D02*
X78171Y-30350D01*
X78214Y-30378D01*
X78242Y-30407D01*
X78257Y-30435D01*
X78921Y-30150D02*
X78921Y-30321D01*
X78921Y-30235D02*
X78621Y-30235D01*
X78664Y-30264D01*
X78692Y-30292D01*
X78707Y-30321D01*
X78650Y-30035D02*
X78635Y-30021D01*
X78621Y-29992D01*
X78621Y-29921D01*
X78635Y-29892D01*
X78650Y-29878D01*
X78678Y-29864D01*
X78707Y-29864D01*
X78750Y-29878D01*
X78921Y-30050D01*
X78921Y-29864D01*
X78621Y-29678D02*
X78621Y-29650D01*
X78635Y-29621D01*
X78650Y-29607D01*
X78678Y-29592D01*
X78735Y-29578D01*
X78807Y-29578D01*
X78864Y-29592D01*
X78892Y-29607D01*
X78907Y-29621D01*
X78921Y-29650D01*
X78921Y-29678D01*
X78907Y-29707D01*
X78892Y-29721D01*
X78864Y-29735D01*
X78807Y-29750D01*
X78735Y-29750D01*
X78678Y-29735D01*
X78650Y-29721D01*
X78635Y-29707D01*
X78621Y-29678D01*
X90621Y-30300D02*
X90478Y-30400D01*
X90621Y-30471D02*
X90321Y-30471D01*
X90321Y-30357D01*
X90335Y-30328D01*
X90350Y-30314D01*
X90378Y-30300D01*
X90421Y-30300D01*
X90450Y-30314D01*
X90464Y-30328D01*
X90478Y-30357D01*
X90478Y-30471D01*
X90321Y-30200D02*
X90321Y-30014D01*
X90435Y-30114D01*
X90435Y-30071D01*
X90450Y-30042D01*
X90464Y-30028D01*
X90492Y-30014D01*
X90564Y-30014D01*
X90592Y-30028D01*
X90607Y-30042D01*
X90621Y-30071D01*
X90621Y-30157D01*
X90607Y-30185D01*
X90592Y-30200D01*
X90771Y-30414D02*
X90771Y-30214D01*
X91071Y-30342D01*
X90771Y-30042D02*
X90771Y-30014D01*
X90785Y-29985D01*
X90800Y-29971D01*
X90828Y-29957D01*
X90885Y-29942D01*
X90957Y-29942D01*
X91014Y-29957D01*
X91042Y-29971D01*
X91057Y-29985D01*
X91071Y-30014D01*
X91071Y-30042D01*
X91057Y-30071D01*
X91042Y-30085D01*
X91014Y-30099D01*
X90957Y-30114D01*
X90885Y-30114D01*
X90828Y-30099D01*
X90800Y-30085D01*
X90785Y-30071D01*
X90771Y-30042D01*
X91071Y-29814D02*
X90771Y-29814D01*
X90957Y-29785D02*
X91071Y-29700D01*
X90871Y-29700D02*
X90985Y-29814D01*
G54D11*
X95190Y-34551D02*
X95190Y-34753D01*
X95202Y-34777D01*
X95214Y-34789D01*
X95238Y-34801D01*
X95285Y-34801D01*
X95309Y-34789D01*
X95321Y-34777D01*
X95333Y-34753D01*
X95333Y-34551D01*
X95428Y-34551D02*
X95583Y-34551D01*
X95500Y-34646D01*
X95535Y-34646D01*
X95559Y-34658D01*
X95571Y-34670D01*
X95583Y-34694D01*
X95583Y-34753D01*
X95571Y-34777D01*
X95559Y-34789D01*
X95535Y-34801D01*
X95464Y-34801D01*
X95440Y-34789D01*
X95428Y-34777D01*
X95738Y-34551D02*
X95761Y-34551D01*
X95785Y-34563D01*
X95797Y-34575D01*
X95809Y-34598D01*
X95821Y-34646D01*
X95821Y-34705D01*
X95809Y-34753D01*
X95797Y-34777D01*
X95785Y-34789D01*
X95761Y-34801D01*
X95738Y-34801D01*
X95714Y-34789D01*
X95702Y-34777D01*
X95690Y-34753D01*
X95678Y-34705D01*
X95678Y-34646D01*
X95690Y-34598D01*
X95702Y-34575D01*
X95714Y-34563D01*
X95738Y-34551D01*
X94880Y-35401D02*
X94761Y-35401D01*
X94761Y-35151D01*
X94928Y-35151D02*
X95071Y-35151D01*
X95000Y-35401D02*
X95000Y-35151D01*
X95297Y-35377D02*
X95285Y-35389D01*
X95250Y-35401D01*
X95226Y-35401D01*
X95190Y-35389D01*
X95166Y-35365D01*
X95154Y-35341D01*
X95142Y-35294D01*
X95142Y-35258D01*
X95154Y-35210D01*
X95166Y-35186D01*
X95190Y-35163D01*
X95226Y-35151D01*
X95250Y-35151D01*
X95285Y-35163D01*
X95297Y-35175D01*
X95392Y-35175D02*
X95404Y-35163D01*
X95428Y-35151D01*
X95488Y-35151D01*
X95511Y-35163D01*
X95523Y-35175D01*
X95535Y-35198D01*
X95535Y-35222D01*
X95523Y-35258D01*
X95380Y-35401D01*
X95535Y-35401D01*
X95690Y-35151D02*
X95714Y-35151D01*
X95738Y-35163D01*
X95750Y-35175D01*
X95761Y-35198D01*
X95773Y-35246D01*
X95773Y-35305D01*
X95761Y-35353D01*
X95750Y-35377D01*
X95738Y-35389D01*
X95714Y-35401D01*
X95690Y-35401D01*
X95666Y-35389D01*
X95654Y-35377D01*
X95642Y-35353D01*
X95630Y-35305D01*
X95630Y-35246D01*
X95642Y-35198D01*
X95654Y-35175D01*
X95666Y-35163D01*
X95690Y-35151D01*
X96000Y-35151D02*
X95880Y-35151D01*
X95869Y-35270D01*
X95880Y-35258D01*
X95904Y-35246D01*
X95964Y-35246D01*
X95988Y-35258D01*
X96000Y-35270D01*
X96011Y-35294D01*
X96011Y-35353D01*
X96000Y-35377D01*
X95988Y-35389D01*
X95964Y-35401D01*
X95904Y-35401D01*
X95880Y-35389D01*
X95869Y-35377D01*
X96095Y-35151D02*
X96261Y-35151D01*
X96154Y-35401D01*
G54D13*
X90730Y-29260D02*
X90651Y-29105D01*
X90560Y-29236D02*
X90602Y-28939D01*
X90715Y-28955D01*
X90741Y-28973D01*
X90754Y-28989D01*
X90764Y-29019D01*
X90758Y-29062D01*
X90740Y-29088D01*
X90724Y-29100D01*
X90693Y-29110D01*
X90580Y-29095D01*
X90871Y-28977D02*
X91055Y-29003D01*
X90940Y-29102D01*
X90982Y-29108D01*
X91008Y-29126D01*
X91021Y-29142D01*
X91031Y-29172D01*
X91021Y-29243D01*
X91003Y-29269D01*
X90987Y-29282D01*
X90956Y-29292D01*
X90871Y-29280D01*
X90845Y-29262D01*
X90833Y-29246D01*
X91239Y-29028D02*
X91267Y-29032D01*
X91293Y-29051D01*
X91305Y-29067D01*
X91315Y-29097D01*
X91322Y-29156D01*
X91312Y-29226D01*
X91290Y-29281D01*
X91271Y-29307D01*
X91255Y-29319D01*
X91225Y-29330D01*
X91197Y-29326D01*
X91170Y-29307D01*
X91158Y-29291D01*
X91148Y-29261D01*
X91142Y-29202D01*
X91152Y-29132D01*
X91174Y-29077D01*
X91192Y-29051D01*
X91208Y-29039D01*
X91239Y-29028D01*
X92329Y-29485D02*
X92159Y-29461D01*
X92244Y-29473D02*
X92285Y-29176D01*
X92251Y-29214D01*
X92219Y-29238D01*
X92189Y-29249D01*
X92554Y-29213D02*
X92582Y-29217D01*
X92609Y-29235D01*
X92621Y-29252D01*
X92631Y-29282D01*
X92637Y-29340D01*
X92627Y-29411D01*
X92605Y-29466D01*
X92587Y-29492D01*
X92571Y-29504D01*
X92541Y-29514D01*
X92512Y-29510D01*
X92486Y-29492D01*
X92474Y-29476D01*
X92464Y-29446D01*
X92458Y-29387D01*
X92468Y-29317D01*
X92490Y-29262D01*
X92508Y-29236D01*
X92524Y-29224D01*
X92554Y-29213D01*
X92739Y-29542D02*
X92781Y-29245D01*
X92783Y-29433D02*
X92852Y-29558D01*
X92880Y-29360D02*
X92751Y-29457D01*
X93757Y-30621D02*
X93657Y-30478D01*
X93585Y-30621D02*
X93585Y-30321D01*
X93700Y-30321D01*
X93728Y-30335D01*
X93742Y-30350D01*
X93757Y-30378D01*
X93757Y-30421D01*
X93742Y-30450D01*
X93728Y-30464D01*
X93700Y-30478D01*
X93585Y-30478D01*
X93857Y-30321D02*
X94042Y-30321D01*
X93942Y-30435D01*
X93985Y-30435D01*
X94014Y-30450D01*
X94028Y-30464D01*
X94042Y-30492D01*
X94042Y-30564D01*
X94028Y-30592D01*
X94014Y-30607D01*
X93985Y-30621D01*
X93900Y-30621D01*
X93871Y-30607D01*
X93857Y-30592D01*
X94328Y-30621D02*
X94157Y-30621D01*
X94242Y-30621D02*
X94242Y-30321D01*
X94214Y-30364D01*
X94185Y-30392D01*
X94157Y-30407D01*
X95371Y-30621D02*
X95200Y-30621D01*
X95285Y-30621D02*
X95285Y-30321D01*
X95257Y-30364D01*
X95228Y-30392D01*
X95200Y-30407D01*
X95557Y-30321D02*
X95585Y-30321D01*
X95614Y-30335D01*
X95628Y-30350D01*
X95642Y-30378D01*
X95657Y-30435D01*
X95657Y-30507D01*
X95642Y-30564D01*
X95628Y-30592D01*
X95614Y-30607D01*
X95585Y-30621D01*
X95557Y-30621D01*
X95528Y-30607D01*
X95514Y-30592D01*
X95500Y-30564D01*
X95485Y-30507D01*
X95485Y-30435D01*
X95500Y-30378D01*
X95514Y-30350D01*
X95528Y-30335D01*
X95557Y-30321D01*
X95785Y-30621D02*
X95785Y-30321D01*
X95814Y-30507D02*
X95900Y-30621D01*
X95900Y-30421D02*
X95785Y-30535D01*
X93121Y-34242D02*
X92978Y-34342D01*
X93121Y-34414D02*
X92821Y-34414D01*
X92821Y-34300D01*
X92835Y-34271D01*
X92850Y-34257D01*
X92878Y-34242D01*
X92921Y-34242D01*
X92950Y-34257D01*
X92964Y-34271D01*
X92978Y-34300D01*
X92978Y-34414D01*
X92821Y-34142D02*
X92821Y-33957D01*
X92935Y-34057D01*
X92935Y-34014D01*
X92950Y-33985D01*
X92964Y-33971D01*
X92992Y-33957D01*
X93064Y-33957D01*
X93092Y-33971D01*
X93107Y-33985D01*
X93121Y-34014D01*
X93121Y-34100D01*
X93107Y-34128D01*
X93092Y-34142D01*
X92850Y-33842D02*
X92835Y-33828D01*
X92821Y-33800D01*
X92821Y-33728D01*
X92835Y-33700D01*
X92850Y-33685D01*
X92878Y-33671D01*
X92907Y-33671D01*
X92950Y-33685D01*
X93121Y-33857D01*
X93121Y-33671D01*
X92850Y-32828D02*
X92835Y-32814D01*
X92821Y-32785D01*
X92821Y-32714D01*
X92835Y-32685D01*
X92850Y-32671D01*
X92878Y-32657D01*
X92907Y-32657D01*
X92950Y-32671D01*
X93121Y-32842D01*
X93121Y-32657D01*
X92850Y-32542D02*
X92835Y-32528D01*
X92821Y-32500D01*
X92821Y-32428D01*
X92835Y-32400D01*
X92850Y-32385D01*
X92878Y-32371D01*
X92907Y-32371D01*
X92950Y-32385D01*
X93121Y-32557D01*
X93121Y-32371D01*
X93121Y-32071D02*
X92978Y-32171D01*
X93121Y-32242D02*
X92821Y-32242D01*
X92821Y-32128D01*
X92835Y-32100D01*
X92850Y-32085D01*
X92878Y-32071D01*
X92921Y-32071D01*
X92950Y-32085D01*
X92964Y-32100D01*
X92978Y-32128D01*
X92978Y-32242D01*
X97192Y-31942D02*
X97207Y-31957D01*
X97221Y-32000D01*
X97221Y-32028D01*
X97207Y-32071D01*
X97178Y-32100D01*
X97150Y-32114D01*
X97092Y-32128D01*
X97050Y-32128D01*
X96992Y-32114D01*
X96964Y-32100D01*
X96935Y-32071D01*
X96921Y-32028D01*
X96921Y-32000D01*
X96935Y-31957D01*
X96950Y-31942D01*
X96921Y-31842D02*
X96921Y-31657D01*
X97035Y-31757D01*
X97035Y-31714D01*
X97050Y-31685D01*
X97064Y-31671D01*
X97092Y-31657D01*
X97164Y-31657D01*
X97192Y-31671D01*
X97207Y-31685D01*
X97221Y-31714D01*
X97221Y-31800D01*
X97207Y-31828D01*
X97192Y-31842D01*
X96921Y-31471D02*
X96921Y-31442D01*
X96935Y-31414D01*
X96950Y-31400D01*
X96978Y-31385D01*
X97035Y-31371D01*
X97107Y-31371D01*
X97164Y-31385D01*
X97192Y-31400D01*
X97207Y-31414D01*
X97221Y-31442D01*
X97221Y-31471D01*
X97207Y-31500D01*
X97192Y-31514D01*
X97164Y-31528D01*
X97107Y-31542D01*
X97035Y-31542D01*
X96978Y-31528D01*
X96950Y-31514D01*
X96935Y-31500D01*
X96921Y-31471D01*
X94757Y-31571D02*
X94785Y-31571D01*
X94814Y-31585D01*
X94828Y-31600D01*
X94842Y-31628D01*
X94857Y-31685D01*
X94857Y-31757D01*
X94842Y-31814D01*
X94828Y-31842D01*
X94814Y-31857D01*
X94785Y-31871D01*
X94757Y-31871D01*
X94728Y-31857D01*
X94714Y-31842D01*
X94700Y-31814D01*
X94685Y-31757D01*
X94685Y-31685D01*
X94700Y-31628D01*
X94714Y-31600D01*
X94728Y-31585D01*
X94757Y-31571D01*
X94985Y-31842D02*
X95000Y-31857D01*
X94985Y-31871D01*
X94971Y-31857D01*
X94985Y-31842D01*
X94985Y-31871D01*
X95285Y-31871D02*
X95114Y-31871D01*
X95200Y-31871D02*
X95200Y-31571D01*
X95171Y-31614D01*
X95142Y-31642D01*
X95114Y-31657D01*
X95542Y-31671D02*
X95542Y-31871D01*
X95414Y-31671D02*
X95414Y-31828D01*
X95428Y-31857D01*
X95457Y-31871D01*
X95500Y-31871D01*
X95528Y-31857D01*
X95542Y-31842D01*
X95785Y-31714D02*
X95685Y-31714D01*
X95685Y-31871D02*
X95685Y-31571D01*
X95828Y-31571D01*
X97192Y-32942D02*
X97207Y-32957D01*
X97221Y-33000D01*
X97221Y-33028D01*
X97207Y-33071D01*
X97178Y-33100D01*
X97150Y-33114D01*
X97092Y-33128D01*
X97050Y-33128D01*
X96992Y-33114D01*
X96964Y-33100D01*
X96935Y-33071D01*
X96921Y-33028D01*
X96921Y-33000D01*
X96935Y-32957D01*
X96950Y-32942D01*
X96921Y-32842D02*
X96921Y-32657D01*
X97035Y-32757D01*
X97035Y-32714D01*
X97050Y-32685D01*
X97064Y-32671D01*
X97092Y-32657D01*
X97164Y-32657D01*
X97192Y-32671D01*
X97207Y-32685D01*
X97221Y-32714D01*
X97221Y-32800D01*
X97207Y-32828D01*
X97192Y-32842D01*
X97221Y-32371D02*
X97221Y-32542D01*
X97221Y-32457D02*
X96921Y-32457D01*
X96964Y-32485D01*
X96992Y-32514D01*
X97007Y-32542D01*
X94928Y-32871D02*
X94757Y-32871D01*
X94842Y-32871D02*
X94842Y-32571D01*
X94814Y-32614D01*
X94785Y-32642D01*
X94757Y-32657D01*
X95114Y-32571D02*
X95142Y-32571D01*
X95171Y-32585D01*
X95185Y-32600D01*
X95200Y-32628D01*
X95214Y-32685D01*
X95214Y-32757D01*
X95200Y-32814D01*
X95185Y-32842D01*
X95171Y-32857D01*
X95142Y-32871D01*
X95114Y-32871D01*
X95085Y-32857D01*
X95071Y-32842D01*
X95057Y-32814D01*
X95042Y-32757D01*
X95042Y-32685D01*
X95057Y-32628D01*
X95071Y-32600D01*
X95085Y-32585D01*
X95114Y-32571D01*
X95342Y-32671D02*
X95342Y-32871D01*
X95342Y-32700D02*
X95357Y-32685D01*
X95385Y-32671D01*
X95428Y-32671D01*
X95457Y-32685D01*
X95471Y-32714D01*
X95471Y-32871D01*
X95714Y-32714D02*
X95614Y-32714D01*
X95614Y-32871D02*
X95614Y-32571D01*
X95757Y-32571D01*
X95307Y-38192D02*
X95292Y-38207D01*
X95250Y-38221D01*
X95221Y-38221D01*
X95178Y-38207D01*
X95150Y-38178D01*
X95135Y-38150D01*
X95121Y-38092D01*
X95121Y-38050D01*
X95135Y-37992D01*
X95150Y-37964D01*
X95178Y-37935D01*
X95221Y-37921D01*
X95250Y-37921D01*
X95292Y-37935D01*
X95307Y-37950D01*
X95407Y-37921D02*
X95592Y-37921D01*
X95492Y-38035D01*
X95535Y-38035D01*
X95564Y-38050D01*
X95578Y-38064D01*
X95592Y-38092D01*
X95592Y-38164D01*
X95578Y-38192D01*
X95564Y-38207D01*
X95535Y-38221D01*
X95450Y-38221D01*
X95421Y-38207D01*
X95407Y-38192D01*
X95692Y-37921D02*
X95878Y-37921D01*
X95778Y-38035D01*
X95821Y-38035D01*
X95850Y-38050D01*
X95864Y-38064D01*
X95878Y-38092D01*
X95878Y-38164D01*
X95864Y-38192D01*
X95850Y-38207D01*
X95821Y-38221D01*
X95735Y-38221D01*
X95707Y-38207D01*
X95692Y-38192D01*
X95007Y-37071D02*
X95035Y-37071D01*
X95064Y-37085D01*
X95078Y-37100D01*
X95092Y-37128D01*
X95107Y-37185D01*
X95107Y-37257D01*
X95092Y-37314D01*
X95078Y-37342D01*
X95064Y-37357D01*
X95035Y-37371D01*
X95007Y-37371D01*
X94978Y-37357D01*
X94964Y-37342D01*
X94950Y-37314D01*
X94935Y-37257D01*
X94935Y-37185D01*
X94950Y-37128D01*
X94964Y-37100D01*
X94978Y-37085D01*
X95007Y-37071D01*
X95235Y-37342D02*
X95250Y-37357D01*
X95235Y-37371D01*
X95221Y-37357D01*
X95235Y-37342D01*
X95235Y-37371D01*
X95535Y-37371D02*
X95364Y-37371D01*
X95450Y-37371D02*
X95450Y-37071D01*
X95421Y-37114D01*
X95392Y-37142D01*
X95364Y-37157D01*
X95792Y-37171D02*
X95792Y-37371D01*
X95664Y-37171D02*
X95664Y-37328D01*
X95678Y-37357D01*
X95707Y-37371D01*
X95750Y-37371D01*
X95778Y-37357D01*
X95792Y-37342D01*
X96035Y-37214D02*
X95935Y-37214D01*
X95935Y-37371D02*
X95935Y-37071D01*
X96078Y-37071D01*
G54D11*
X78698Y-36742D02*
X78724Y-36598D01*
X78597Y-36641D02*
X78774Y-36464D01*
X78842Y-36531D01*
X78850Y-36556D01*
X78850Y-36573D01*
X78842Y-36598D01*
X78816Y-36624D01*
X78791Y-36632D01*
X78774Y-36632D01*
X78749Y-36624D01*
X78682Y-36556D01*
X78968Y-36775D02*
X78850Y-36893D01*
X78993Y-36666D02*
X78825Y-36750D01*
X78934Y-36859D01*
X81816Y-39476D02*
X81715Y-39577D01*
X81765Y-39527D02*
X81589Y-39350D01*
X81597Y-39392D01*
X81597Y-39426D01*
X81589Y-39451D01*
X81698Y-39241D02*
X81807Y-39131D01*
X81816Y-39257D01*
X81841Y-39232D01*
X81866Y-39224D01*
X81883Y-39224D01*
X81908Y-39232D01*
X81951Y-39274D01*
X81959Y-39300D01*
X81959Y-39316D01*
X81951Y-39342D01*
X81900Y-39392D01*
X81875Y-39401D01*
X81858Y-39401D01*
X82060Y-39232D02*
X81883Y-39055D01*
X82009Y-39148D02*
X82127Y-39165D01*
X82009Y-39047D02*
X82009Y-39182D01*
X78198Y-37242D02*
X78224Y-37098D01*
X78097Y-37141D02*
X78274Y-36964D01*
X78342Y-37031D01*
X78350Y-37056D01*
X78350Y-37073D01*
X78342Y-37098D01*
X78316Y-37124D01*
X78291Y-37132D01*
X78274Y-37132D01*
X78249Y-37124D01*
X78182Y-37056D01*
X78535Y-37225D02*
X78451Y-37141D01*
X78358Y-37216D01*
X78375Y-37216D01*
X78401Y-37225D01*
X78443Y-37267D01*
X78451Y-37292D01*
X78451Y-37309D01*
X78443Y-37334D01*
X78401Y-37376D01*
X78375Y-37385D01*
X78358Y-37385D01*
X78333Y-37376D01*
X78291Y-37334D01*
X78283Y-37309D01*
X78283Y-37292D01*
X81150Y-40142D02*
X81049Y-40243D01*
X81100Y-40193D02*
X80923Y-40016D01*
X80931Y-40058D01*
X80931Y-40092D01*
X80923Y-40117D01*
X81226Y-40066D02*
X81049Y-39890D01*
X81175Y-39982D02*
X81293Y-39999D01*
X81175Y-39881D02*
X81175Y-40016D01*
X79407Y-35635D02*
X79264Y-35609D01*
X79306Y-35736D02*
X79130Y-35559D01*
X79197Y-35492D01*
X79222Y-35483D01*
X79239Y-35483D01*
X79264Y-35492D01*
X79290Y-35517D01*
X79298Y-35542D01*
X79298Y-35559D01*
X79290Y-35584D01*
X79222Y-35652D01*
X79441Y-35365D02*
X79559Y-35483D01*
X79332Y-35340D02*
X79416Y-35508D01*
X79525Y-35399D01*
X79559Y-35130D02*
X79475Y-35214D01*
X79551Y-35306D01*
X79551Y-35290D01*
X79559Y-35264D01*
X79601Y-35222D01*
X79626Y-35214D01*
X79643Y-35214D01*
X79668Y-35222D01*
X79710Y-35264D01*
X79719Y-35290D01*
X79719Y-35306D01*
X79710Y-35332D01*
X79668Y-35374D01*
X79643Y-35382D01*
X79626Y-35382D01*
X82524Y-38617D02*
X82423Y-38516D01*
X82474Y-38567D02*
X82651Y-38390D01*
X82609Y-38399D01*
X82575Y-38399D01*
X82550Y-38390D01*
X82760Y-38500D02*
X82870Y-38609D01*
X82743Y-38617D01*
X82769Y-38643D01*
X82777Y-38668D01*
X82777Y-38685D01*
X82769Y-38710D01*
X82726Y-38752D01*
X82701Y-38761D01*
X82684Y-38761D01*
X82659Y-38752D01*
X82609Y-38702D01*
X82600Y-38676D01*
X82600Y-38660D01*
X82769Y-38862D02*
X82945Y-38685D01*
X82853Y-38811D02*
X82836Y-38929D01*
X82954Y-38811D02*
X82819Y-38811D01*
X83223Y-38946D02*
X82844Y-39022D01*
X83189Y-39283D02*
X83088Y-39182D01*
X83139Y-39232D02*
X83316Y-39055D01*
X83274Y-39064D01*
X83240Y-39064D01*
X83215Y-39055D01*
X83265Y-39358D02*
X83442Y-39182D01*
X83349Y-39308D02*
X83333Y-39426D01*
X83450Y-39308D02*
X83316Y-39308D01*
G54D13*
X83712Y-30785D02*
X83883Y-30957D01*
X83914Y-30967D01*
X83934Y-30967D01*
X83964Y-30957D01*
X84005Y-30916D01*
X84015Y-30886D01*
X84015Y-30866D01*
X84005Y-30835D01*
X83833Y-30664D01*
X84257Y-30664D02*
X84136Y-30785D01*
X84196Y-30724D02*
X83984Y-30512D01*
X83994Y-30563D01*
X83994Y-30603D01*
X83984Y-30633D01*
X87224Y-35197D02*
X87123Y-35298D01*
X86911Y-35085D01*
X87052Y-34944D02*
X87174Y-34823D01*
X87325Y-35095D02*
X87113Y-34883D01*
X87224Y-34772D02*
X87366Y-34631D01*
X87436Y-34984D01*
X87578Y-34843D01*
X87770Y-34651D02*
X87648Y-34772D01*
X87709Y-34712D02*
X87497Y-34500D01*
X87507Y-34550D01*
X87507Y-34590D01*
X87497Y-34621D01*
X87689Y-34308D02*
X87709Y-34287D01*
X87739Y-34277D01*
X87760Y-34277D01*
X87790Y-34287D01*
X87840Y-34318D01*
X87891Y-34368D01*
X87921Y-34419D01*
X87931Y-34449D01*
X87931Y-34469D01*
X87921Y-34500D01*
X87901Y-34520D01*
X87871Y-34530D01*
X87851Y-34530D01*
X87820Y-34520D01*
X87770Y-34489D01*
X87719Y-34439D01*
X87689Y-34388D01*
X87679Y-34358D01*
X87679Y-34338D01*
X87689Y-34308D01*
X87891Y-34106D02*
X87911Y-34085D01*
X87941Y-34075D01*
X87962Y-34075D01*
X87992Y-34085D01*
X88042Y-34116D01*
X88093Y-34166D01*
X88123Y-34217D01*
X88133Y-34247D01*
X88133Y-34267D01*
X88123Y-34297D01*
X88103Y-34318D01*
X88073Y-34328D01*
X88053Y-34328D01*
X88022Y-34318D01*
X87972Y-34287D01*
X87921Y-34237D01*
X87891Y-34186D01*
X87881Y-34156D01*
X87881Y-34136D01*
X87891Y-34106D01*
X88093Y-33904D02*
X88113Y-33883D01*
X88143Y-33873D01*
X88164Y-33873D01*
X88194Y-33883D01*
X88244Y-33914D01*
X88295Y-33964D01*
X88325Y-34015D01*
X88335Y-34045D01*
X88335Y-34065D01*
X88325Y-34095D01*
X88305Y-34116D01*
X88275Y-34126D01*
X88255Y-34126D01*
X88224Y-34116D01*
X88174Y-34085D01*
X88123Y-34035D01*
X88093Y-33984D01*
X88083Y-33954D01*
X88083Y-33934D01*
X88093Y-33904D01*
X88396Y-33904D02*
X88497Y-33802D01*
X88436Y-33984D02*
X88295Y-33701D01*
X88578Y-33843D01*
X83950Y-42092D02*
X83935Y-42107D01*
X83892Y-42121D01*
X83864Y-42121D01*
X83821Y-42107D01*
X83792Y-42078D01*
X83778Y-42050D01*
X83764Y-41992D01*
X83764Y-41950D01*
X83778Y-41892D01*
X83792Y-41864D01*
X83821Y-41835D01*
X83864Y-41821D01*
X83892Y-41821D01*
X83935Y-41835D01*
X83950Y-41850D01*
X84092Y-42121D02*
X84150Y-42121D01*
X84178Y-42107D01*
X84192Y-42092D01*
X84221Y-42050D01*
X84235Y-41992D01*
X84235Y-41878D01*
X84221Y-41850D01*
X84207Y-41835D01*
X84178Y-41821D01*
X84121Y-41821D01*
X84092Y-41835D01*
X84078Y-41850D01*
X84064Y-41878D01*
X84064Y-41950D01*
X84078Y-41978D01*
X84092Y-41992D01*
X84121Y-42007D01*
X84178Y-42007D01*
X84207Y-41992D01*
X84221Y-41978D01*
X84235Y-41950D01*
X82757Y-42571D02*
X82785Y-42571D01*
X82814Y-42585D01*
X82828Y-42600D01*
X82842Y-42628D01*
X82857Y-42685D01*
X82857Y-42757D01*
X82842Y-42814D01*
X82828Y-42842D01*
X82814Y-42857D01*
X82785Y-42871D01*
X82757Y-42871D01*
X82728Y-42857D01*
X82714Y-42842D01*
X82700Y-42814D01*
X82685Y-42757D01*
X82685Y-42685D01*
X82700Y-42628D01*
X82714Y-42600D01*
X82728Y-42585D01*
X82757Y-42571D01*
X82985Y-42842D02*
X83000Y-42857D01*
X82985Y-42871D01*
X82971Y-42857D01*
X82985Y-42842D01*
X82985Y-42871D01*
X83285Y-42871D02*
X83114Y-42871D01*
X83200Y-42871D02*
X83200Y-42571D01*
X83171Y-42614D01*
X83142Y-42642D01*
X83114Y-42657D01*
X83542Y-42671D02*
X83542Y-42871D01*
X83414Y-42671D02*
X83414Y-42828D01*
X83428Y-42857D01*
X83457Y-42871D01*
X83500Y-42871D01*
X83528Y-42857D01*
X83542Y-42842D01*
X83785Y-42714D02*
X83685Y-42714D01*
X83685Y-42871D02*
X83685Y-42571D01*
X83828Y-42571D01*
X88307Y-36592D02*
X88292Y-36607D01*
X88250Y-36621D01*
X88221Y-36621D01*
X88178Y-36607D01*
X88150Y-36578D01*
X88135Y-36550D01*
X88121Y-36492D01*
X88121Y-36450D01*
X88135Y-36392D01*
X88150Y-36364D01*
X88178Y-36335D01*
X88221Y-36321D01*
X88250Y-36321D01*
X88292Y-36335D01*
X88307Y-36350D01*
X88407Y-36321D02*
X88592Y-36321D01*
X88492Y-36435D01*
X88535Y-36435D01*
X88564Y-36450D01*
X88578Y-36464D01*
X88592Y-36492D01*
X88592Y-36564D01*
X88578Y-36592D01*
X88564Y-36607D01*
X88535Y-36621D01*
X88450Y-36621D01*
X88421Y-36607D01*
X88407Y-36592D01*
X88707Y-36350D02*
X88721Y-36335D01*
X88750Y-36321D01*
X88821Y-36321D01*
X88850Y-36335D01*
X88864Y-36350D01*
X88878Y-36378D01*
X88878Y-36407D01*
X88864Y-36450D01*
X88692Y-36621D01*
X88878Y-36621D01*
X90007Y-35321D02*
X90035Y-35321D01*
X90064Y-35335D01*
X90078Y-35350D01*
X90092Y-35378D01*
X90107Y-35435D01*
X90107Y-35507D01*
X90092Y-35564D01*
X90078Y-35592D01*
X90064Y-35607D01*
X90035Y-35621D01*
X90007Y-35621D01*
X89978Y-35607D01*
X89964Y-35592D01*
X89950Y-35564D01*
X89935Y-35507D01*
X89935Y-35435D01*
X89950Y-35378D01*
X89964Y-35350D01*
X89978Y-35335D01*
X90007Y-35321D01*
X90235Y-35592D02*
X90250Y-35607D01*
X90235Y-35621D01*
X90221Y-35607D01*
X90235Y-35592D01*
X90235Y-35621D01*
X90535Y-35621D02*
X90364Y-35621D01*
X90450Y-35621D02*
X90450Y-35321D01*
X90421Y-35364D01*
X90392Y-35392D01*
X90364Y-35407D01*
X90792Y-35421D02*
X90792Y-35621D01*
X90664Y-35421D02*
X90664Y-35578D01*
X90678Y-35607D01*
X90707Y-35621D01*
X90750Y-35621D01*
X90778Y-35607D01*
X90792Y-35592D01*
X91035Y-35464D02*
X90935Y-35464D01*
X90935Y-35621D02*
X90935Y-35321D01*
X91078Y-35321D01*
M02*
