M48
;DRILL file {Pcbnew (22-Jun-2014 BZR 4027)-stable} date Mon 25 Jun 2018 12:36:12 AM CDT
;FORMAT={-:-/ absolute / inch / decimal}
FMAT,2
INCH,TZ
T1C0.016
T2C0.020
T3C0.032
T4C0.040
T5C0.048
T6C0.126
%
G90
G05
M72
T1
X8.4Y-3.175
X8.4Y-3.325
X8.5Y-3.075
X8.5Y-3.425
X8.575Y-3.25
X8.65Y-3.075
X8.65Y-3.425
X8.75Y-3.175
X8.75Y-3.325
T2
X8.235Y-3.25
X8.335Y-3.01
X8.335Y-3.49
X8.575Y-2.91
X8.575Y-3.59
X8.815Y-3.01
X8.815Y-3.49
X8.915Y-3.25
X9.375Y-3.4
T3
X7.85Y-4.
X7.8866Y-3.7866
X7.922Y-3.822
X7.95Y-3.125
X7.95Y-3.175
X7.95Y-3.325
X7.9616Y-3.7116
X7.997Y-3.747
X8.0043Y-3.6043
X8.025Y-4.075
X8.028Y-3.928
X8.047Y-2.903
X8.075Y-3.675
X8.103Y-3.853
X8.125Y-3.15
X8.125Y-3.35
X8.1457Y-3.7457
X8.153Y-2.797
X8.1793Y-3.5043
X8.1884Y-2.7616
X8.225Y-4.275
X8.3Y-3.15
X8.3Y-3.35
X8.3Y-3.8
X8.3207Y-3.6457
X8.375Y-2.825
X8.425Y-4.075
X8.425Y-4.275
X8.4689Y-3.25
X8.475Y-2.975
X8.475Y-3.525
X8.5043Y-3.1793
X8.5043Y-3.3207
X8.525Y-3.925
X8.525Y-4.125
X8.55Y-4.275
X8.575Y-3.1439
X8.575Y-3.3561
X8.625Y-3.925
X8.625Y-4.125
X8.6457Y-3.1793
X8.6457Y-3.3207
X8.675Y-2.975
X8.675Y-3.525
X8.6811Y-3.25
X8.7Y-3.8
X8.75Y-3.875
X8.75Y-4.175
X8.75Y-4.275
X8.775Y-2.825
X8.85Y-3.15
X8.85Y-3.35
X8.85Y-3.775
X8.85Y-3.875
X8.85Y-4.175
X8.85Y-4.275
X8.95Y-3.55
X8.95Y-3.65
X8.95Y-3.875
X8.95Y-4.175
X8.975Y-2.9
X9.Y-3.1
X9.Y-3.4
X9.05Y-3.775
X9.05Y-3.875
X9.05Y-4.175
X9.05Y-4.275
X9.15Y-3.125
X9.15Y-3.175
X9.15Y-3.325
X9.15Y-3.55
X9.15Y-3.65
X9.175Y-3.875
X9.175Y-4.175
X9.175Y-4.4
X9.275Y-3.05
X9.275Y-3.825
X9.275Y-4.225
X9.3Y-3.125
X9.3Y-3.525
X9.3711Y-2.9557
X9.375Y-3.825
X9.375Y-4.225
X9.425Y-3.175
X9.425Y-3.275
X9.45Y-3.725
X9.475Y-3.975
X9.475Y-4.075
X9.475Y-4.4
X9.6Y-4.325
X9.6Y-4.425
X9.625Y-3.175
X9.625Y-3.275
X9.65Y-3.725
X9.65Y-4.375
X9.675Y-3.05
X9.675Y-3.975
X9.675Y-4.075
X9.685Y-3.38
X9.685Y-3.62
T4
X8.2Y-4.4
X8.3Y-4.4
X8.575Y-2.725
X8.575Y-3.675
X9.3Y-3.625
T5
X8.65Y-4.4
X9.05Y-4.4
T6
X7.975Y-4.3
X9.55Y-2.825
T0
M30
