G04 (created by PCBNEW (22-Jun-2014 BZR 4027)-stable) date Fri 29 Jun 2018 12:51:00 AM CDT*
%MOIN*%
G04 Gerber Fmt 3.4, Leading zero omitted, Abs format*
%FSLAX34Y34*%
G01*
G70*
G90*
G04 APERTURE LIST*
%ADD10C,0.00590551*%
%ADD11C,0.059*%
%ADD12O,0.059X0.0885*%
%ADD13O,0.059X0.059*%
%ADD14R,0.059X0.059*%
%ADD15C,0.23622*%
%ADD16O,0.069X0.069*%
%ADD17R,0.019X0.07*%
%ADD18O,0.058X0.058*%
%ADD19C,0.056*%
%ADD20O,0.072X0.056*%
%ADD21O,0.056X0.072*%
%ADD22O,0.032X0.032*%
%ADD23R,0.069X0.069*%
%ADD24O,0.04X0.04*%
%ADD25R,0.079X0.079*%
%ADD26O,0.079X0.079*%
%ADD27C,0.069*%
%ADD28R,0.0885X0.059*%
%ADD29O,0.0885X0.059*%
%ADD30C,0.079*%
%ADD31C,0.035*%
%ADD32C,0.04*%
%ADD33C,0.01*%
%ADD34C,0.03*%
%ADD35C,0.02*%
G04 APERTURE END LIST*
G54D10*
G54D11*
X95750Y-44250D03*
G54D12*
X96250Y-43602D03*
G54D11*
X96750Y-44250D03*
G54D13*
X92750Y-38250D03*
X92750Y-42250D03*
X93750Y-42250D03*
X93750Y-38250D03*
X83000Y-38000D03*
X87000Y-38000D03*
X91000Y-30500D03*
X91000Y-34500D03*
X88500Y-43750D03*
X84500Y-43750D03*
G54D14*
X90500Y-38750D03*
G54D13*
X89500Y-38750D03*
X88500Y-38750D03*
X87500Y-38750D03*
X87500Y-41750D03*
X88500Y-41750D03*
X90500Y-41750D03*
X89500Y-41750D03*
G54D15*
X101250Y-28250D03*
G54D11*
X94750Y-40750D03*
X96750Y-40750D03*
X91500Y-36500D03*
X89500Y-36500D03*
X85250Y-41250D03*
X85250Y-39250D03*
X86250Y-41250D03*
X86250Y-39250D03*
X88500Y-42750D03*
X90500Y-42750D03*
X82542Y-35292D03*
X83957Y-36707D03*
X81750Y-31500D03*
X81750Y-33500D03*
X96750Y-39750D03*
X94750Y-39750D03*
X90500Y-37750D03*
X88500Y-37750D03*
X87500Y-42750D03*
X85500Y-42750D03*
G54D16*
X85750Y-36750D03*
G54D15*
X74000Y-43000D03*
G54D16*
X85750Y-27250D03*
G54D17*
X96250Y-33850D03*
X95750Y-33850D03*
X95250Y-33850D03*
X94750Y-33850D03*
X94750Y-36150D03*
X95250Y-36150D03*
X95750Y-36150D03*
X96250Y-36150D03*
G54D13*
X90250Y-29500D03*
X94250Y-29500D03*
X92000Y-30500D03*
X92000Y-34500D03*
X93000Y-31250D03*
X93000Y-35250D03*
G54D11*
X94250Y-31750D03*
X96250Y-31750D03*
X96250Y-32750D03*
X94250Y-32750D03*
X96500Y-37250D03*
X94500Y-37250D03*
G54D16*
X93000Y-36250D03*
G54D18*
X96850Y-33800D03*
X96850Y-36200D03*
G54D19*
X85042Y-31792D02*
X84929Y-31679D01*
X86570Y-31679D02*
X86457Y-31792D01*
G54D20*
X86890Y-32500D03*
G54D21*
X85750Y-31359D03*
G54D19*
X86570Y-33320D02*
X86457Y-33207D01*
G54D21*
X85750Y-33640D03*
G54D19*
X85042Y-33207D02*
X84929Y-33320D01*
G54D20*
X84609Y-32500D03*
G54D11*
X91500Y-35500D03*
X89500Y-35500D03*
G54D22*
X85750Y-32500D03*
X86500Y-30750D03*
X87500Y-31750D03*
X87500Y-33250D03*
X86500Y-34250D03*
X85000Y-34250D03*
X84000Y-33250D03*
X84000Y-31750D03*
X85000Y-30750D03*
G54D15*
X74000Y-28250D03*
X101250Y-43000D03*
G54D22*
X84750Y-29750D03*
X86750Y-29750D03*
X88500Y-31500D03*
X88500Y-33500D03*
X83000Y-31500D03*
X83000Y-33500D03*
X84750Y-35250D03*
X86750Y-35250D03*
G54D13*
X79750Y-27000D03*
X75750Y-27000D03*
X76250Y-27750D03*
X80250Y-27750D03*
G54D23*
X99696Y-31811D03*
G54D16*
X100696Y-31811D03*
G54D24*
X97696Y-36811D03*
X102696Y-36811D03*
G54D11*
X82250Y-27000D03*
X82250Y-29000D03*
G54D14*
X91750Y-44000D03*
G54D13*
X94750Y-44000D03*
G54D14*
X90000Y-34000D03*
G54D13*
X90000Y-31000D03*
G54D14*
X91750Y-38750D03*
G54D13*
X91750Y-41750D03*
G54D25*
X73000Y-40250D03*
G54D26*
X73000Y-36250D03*
G54D23*
X75500Y-29750D03*
G54D16*
X76500Y-29750D03*
G54D24*
X73500Y-34750D03*
X78500Y-34750D03*
G54D11*
X97542Y-30957D03*
X98957Y-29542D03*
G54D23*
X83000Y-40250D03*
G54D27*
X83000Y-41250D03*
G54D23*
X84000Y-41250D03*
G54D27*
X84000Y-42250D03*
G54D23*
X83000Y-42250D03*
G54D27*
X83000Y-43250D03*
G54D23*
X77000Y-41750D03*
G54D27*
X77000Y-40750D03*
G54D23*
X78000Y-42750D03*
G54D27*
X78000Y-41750D03*
G54D23*
X77000Y-43750D03*
G54D27*
X77000Y-42750D03*
G54D23*
X78000Y-40750D03*
G54D27*
X78000Y-39750D03*
G54D28*
X79147Y-37000D03*
G54D29*
X79147Y-38000D03*
X79147Y-39000D03*
X79147Y-40000D03*
X81852Y-42000D03*
X81852Y-41000D03*
X81852Y-40000D03*
X81852Y-39000D03*
X79147Y-41000D03*
X79147Y-42000D03*
X79147Y-43000D03*
X81852Y-43000D03*
X81852Y-44000D03*
X81852Y-38000D03*
X79147Y-44000D03*
X81852Y-37000D03*
G54D11*
X79750Y-31000D03*
X79750Y-33000D03*
X79750Y-31500D03*
X79750Y-34750D03*
X79750Y-29750D03*
G54D30*
X79750Y-35750D03*
X79750Y-28750D03*
G54D31*
X96500Y-39000D03*
G54D32*
X89150Y-32500D03*
X88150Y-30100D03*
G54D31*
X83300Y-38900D03*
X78200Y-33000D03*
G54D32*
X83350Y-30100D03*
X85750Y-29100D03*
X82350Y-32500D03*
G54D31*
X84200Y-37350D03*
G54D32*
X88150Y-34900D03*
X83350Y-34900D03*
X93750Y-34000D03*
X85750Y-35900D03*
G54D33*
X96250Y-36150D02*
X96850Y-36200D01*
X96250Y-33850D02*
X96850Y-33800D01*
G54D34*
X96000Y-39750D02*
X96500Y-39000D01*
X91750Y-44000D02*
X92750Y-43000D01*
X96000Y-41500D02*
X96000Y-39750D01*
X94250Y-43000D02*
X96000Y-41500D01*
X92750Y-43000D02*
X94250Y-43000D01*
X96500Y-37250D02*
X96500Y-37250D01*
G54D35*
X95750Y-36500D02*
X95750Y-36600D01*
G54D34*
X95750Y-36600D02*
X96500Y-37250D01*
G54D33*
X95750Y-44250D02*
X95250Y-44500D01*
X96750Y-41500D02*
X96750Y-40750D01*
X94500Y-43500D02*
X96750Y-41500D01*
X94250Y-43750D02*
X94500Y-43500D01*
X94250Y-44000D02*
X94250Y-43750D01*
X94250Y-44250D02*
X94250Y-44000D01*
X94500Y-44500D02*
X94250Y-44250D01*
X95250Y-44500D02*
X94500Y-44500D01*
G54D34*
X76250Y-27750D02*
X75750Y-27000D01*
X93000Y-31250D02*
X94250Y-32750D01*
G54D33*
X95000Y-34500D02*
X95000Y-33350D01*
G54D35*
X95250Y-36150D02*
X95250Y-35250D01*
G54D34*
X95000Y-34500D02*
X95250Y-35500D01*
G54D35*
X95250Y-35500D02*
X95250Y-35250D01*
G54D33*
X95000Y-33350D02*
X94826Y-33134D01*
G54D34*
X94826Y-33134D02*
X94250Y-32750D01*
X92000Y-30500D02*
X93350Y-30650D01*
X94650Y-31250D02*
X96250Y-32750D01*
X93350Y-30650D02*
X94650Y-31250D01*
G54D35*
X95750Y-33850D02*
X95750Y-33250D01*
G54D34*
X95750Y-33250D02*
X96250Y-32750D01*
X83000Y-41250D02*
X84000Y-41250D01*
X82000Y-41000D02*
X83000Y-41250D01*
X82000Y-40000D02*
X83000Y-40250D01*
X77000Y-41750D02*
X78000Y-41750D01*
X78000Y-41750D02*
X79000Y-41000D01*
X77000Y-40750D02*
X78000Y-40750D01*
X78000Y-40750D02*
X79000Y-40000D01*
X78000Y-39750D02*
X79000Y-39000D01*
X83000Y-42250D02*
X84000Y-42250D01*
X82000Y-42000D02*
X83000Y-42250D01*
X89500Y-41750D02*
X90250Y-41000D01*
X90750Y-41000D02*
X91750Y-41750D01*
X90250Y-41000D02*
X90750Y-41000D01*
G54D33*
X94750Y-44000D02*
X96000Y-42750D01*
X96750Y-43000D02*
X96750Y-44250D01*
X96500Y-42750D02*
X96750Y-43000D01*
X96000Y-42750D02*
X96500Y-42750D01*
G54D34*
X88150Y-30100D02*
X90000Y-31000D01*
G54D33*
X81500Y-38500D02*
X81050Y-38350D01*
X83300Y-38900D02*
X82350Y-38500D01*
X82350Y-38500D02*
X81500Y-38500D01*
X78600Y-33900D02*
X78200Y-33000D01*
X79000Y-34200D02*
X78600Y-33900D01*
X79000Y-35900D02*
X79000Y-34200D01*
X79250Y-36250D02*
X79000Y-35900D01*
X79600Y-36400D02*
X79250Y-36250D01*
X79850Y-36500D02*
X79600Y-36400D01*
X81050Y-38350D02*
X79850Y-36500D01*
G54D34*
X79750Y-29750D02*
X79750Y-28750D01*
X79750Y-31000D02*
X79750Y-29750D01*
X79750Y-31500D02*
X79750Y-31000D01*
X81750Y-31500D02*
X79750Y-31500D01*
X91000Y-30500D02*
X91000Y-29250D01*
X91000Y-29250D02*
X90500Y-28750D01*
X81750Y-31500D02*
X83350Y-30100D01*
X84750Y-28250D02*
X83350Y-30100D01*
X87000Y-28250D02*
X84750Y-28250D01*
X90500Y-28750D02*
X87000Y-28250D01*
X75500Y-29750D02*
X76000Y-29000D01*
X76000Y-29000D02*
X80250Y-27750D01*
X79750Y-27000D02*
X82250Y-27000D01*
X77000Y-42750D02*
X78000Y-42750D01*
X78000Y-42750D02*
X79000Y-42000D01*
G54D33*
X95250Y-33850D02*
X95250Y-33250D01*
G54D34*
X95250Y-32750D02*
X94250Y-31750D01*
X95250Y-32750D02*
X95250Y-33250D01*
G54D33*
X95250Y-33250D02*
X95250Y-33250D01*
X95250Y-33250D02*
X95250Y-33250D01*
G54D34*
X90850Y-35200D02*
X90750Y-36750D01*
G54D33*
X91500Y-34100D02*
X91500Y-34850D01*
G54D34*
X90650Y-31100D02*
X91500Y-34100D01*
G54D33*
X91500Y-34850D02*
X90850Y-35200D01*
G54D34*
X91250Y-37250D02*
X91750Y-38750D01*
X90750Y-36750D02*
X91250Y-37250D01*
X90400Y-30500D02*
X88350Y-29600D01*
G54D33*
X86150Y-29268D02*
X86000Y-29250D01*
X86000Y-29250D02*
X85750Y-29100D01*
G54D34*
X86900Y-29300D02*
X86150Y-29268D01*
X90650Y-31100D02*
X90400Y-30500D01*
X88350Y-29600D02*
X86900Y-29300D01*
X90650Y-31100D02*
X90650Y-31100D01*
X90650Y-31100D02*
X90650Y-31100D01*
X79000Y-38000D02*
X80950Y-38950D01*
X80950Y-38950D02*
X82000Y-39000D01*
X90250Y-29500D02*
X87000Y-28747D01*
X87000Y-28747D02*
X86050Y-28850D01*
G54D33*
X86050Y-28850D02*
X85750Y-29100D01*
G54D35*
X82000Y-38000D02*
X82850Y-37250D01*
X82850Y-37250D02*
X84200Y-37350D01*
G54D34*
X77000Y-43750D02*
X78000Y-43750D01*
X78000Y-43750D02*
X79000Y-43000D01*
X82000Y-43000D02*
X83000Y-43250D01*
G54D33*
X83000Y-38000D02*
X83000Y-38000D01*
G54D34*
X86350Y-36550D02*
X86750Y-36550D01*
G54D33*
X85750Y-36750D02*
X86350Y-36550D01*
G54D34*
X87650Y-38200D02*
X87500Y-38750D01*
X87650Y-37700D02*
X87650Y-38200D01*
X86750Y-36550D02*
X87650Y-37700D01*
X85600Y-37450D02*
X85250Y-38050D01*
G54D33*
X85750Y-36750D02*
X85600Y-37450D01*
G54D34*
X85250Y-38050D02*
X85250Y-39250D01*
X81250Y-39500D02*
X81000Y-39750D01*
X82500Y-39500D02*
X83550Y-39500D01*
X83550Y-39500D02*
X85000Y-37416D01*
X85219Y-37258D02*
X85000Y-37416D01*
G54D33*
X85750Y-36750D02*
X85219Y-37258D01*
G54D35*
X81250Y-39500D02*
X82500Y-39500D01*
G54D34*
X81250Y-43500D02*
X82000Y-44000D01*
X81000Y-43250D02*
X81250Y-43500D01*
X81000Y-39750D02*
X81000Y-43250D01*
X83750Y-35750D02*
X82750Y-36000D01*
X85200Y-36550D02*
X83750Y-35750D01*
G54D33*
X85750Y-36750D02*
X85200Y-36550D01*
G54D34*
X77750Y-30000D02*
X76500Y-29750D01*
X79250Y-33750D02*
X77750Y-30000D01*
X79750Y-33750D02*
X79250Y-33750D01*
X82000Y-35750D02*
X79750Y-33750D01*
X82250Y-36000D02*
X82000Y-35750D01*
X82750Y-36000D02*
X82250Y-36000D01*
X81750Y-33500D02*
X79750Y-33000D01*
X81750Y-33500D02*
X83000Y-34500D01*
X83000Y-34500D02*
X83464Y-34393D01*
X85450Y-36250D02*
X85000Y-36000D01*
G54D33*
X85450Y-36250D02*
X85750Y-36750D01*
G54D34*
X83730Y-35200D02*
X85000Y-36000D01*
X83879Y-34759D02*
X83730Y-35200D01*
X83464Y-34393D02*
X83879Y-34759D01*
X79000Y-44000D02*
X82000Y-44000D01*
X100000Y-31000D02*
X98957Y-29542D01*
X95250Y-40250D02*
X96000Y-38500D01*
X85750Y-39650D02*
X86500Y-40400D01*
G54D35*
X85750Y-39000D02*
X85750Y-37900D01*
G54D33*
X85750Y-36750D02*
X85995Y-37447D01*
G54D35*
X85995Y-37447D02*
X85750Y-37900D01*
G54D33*
X85750Y-39650D02*
X85750Y-39000D01*
G54D34*
X93450Y-40450D02*
X94300Y-40250D01*
X87250Y-40500D02*
X93450Y-40450D01*
X86500Y-40400D02*
X87250Y-40500D01*
G54D33*
X95250Y-40250D02*
X94300Y-40250D01*
G54D34*
X100500Y-31250D02*
X100696Y-31811D01*
X100000Y-31000D02*
X100500Y-31250D01*
X99250Y-31000D02*
X100000Y-31000D01*
X99000Y-31250D02*
X99250Y-31000D01*
X98350Y-32250D02*
X99000Y-31250D01*
X98350Y-37200D02*
X98350Y-32250D01*
X96000Y-38500D02*
X98350Y-37200D01*
G54D35*
X86250Y-38500D02*
X86150Y-37850D01*
G54D33*
X85750Y-36750D02*
X86200Y-37150D01*
G54D35*
X86650Y-38900D02*
X87000Y-39500D01*
X86250Y-38500D02*
X86650Y-38900D01*
G54D34*
X95000Y-37750D02*
X94500Y-37250D01*
X92250Y-40000D02*
X87500Y-40000D01*
X93250Y-40000D02*
X92250Y-40000D01*
X94650Y-39100D02*
X93250Y-40000D01*
X95000Y-38500D02*
X94650Y-39100D01*
X95000Y-37750D02*
X95000Y-38500D01*
G54D35*
X87000Y-39500D02*
X87500Y-40000D01*
X86400Y-37400D02*
X86200Y-37150D01*
X86400Y-37400D02*
X86400Y-37400D01*
X86300Y-37550D02*
X86400Y-37400D01*
X86150Y-37850D02*
X86300Y-37550D01*
X86500Y-38250D02*
X86450Y-37850D01*
G54D34*
X94250Y-38750D02*
X94500Y-38250D01*
X93000Y-39500D02*
X93750Y-39000D01*
X94250Y-38750D02*
X93750Y-39000D01*
X87750Y-39500D02*
X93000Y-39500D01*
X93750Y-37500D02*
X94300Y-37850D01*
X94500Y-38250D02*
X94300Y-37850D01*
G54D35*
X87150Y-39150D02*
X87750Y-39500D01*
X86850Y-38650D02*
X87150Y-39150D01*
X86500Y-38250D02*
X86850Y-38650D01*
X86550Y-37050D02*
X86321Y-36875D01*
X86550Y-37050D02*
X86550Y-37050D01*
X86755Y-37378D02*
X86550Y-37050D01*
X86600Y-37600D02*
X86755Y-37378D01*
X86450Y-37850D02*
X86600Y-37600D01*
G54D33*
X85750Y-36750D02*
X86100Y-36250D01*
G54D34*
X88750Y-35250D02*
X86100Y-36250D01*
X88750Y-35250D02*
X90000Y-34000D01*
G54D35*
X94500Y-34250D02*
X94750Y-34000D01*
X94750Y-34000D02*
X94750Y-33850D01*
G54D34*
X94250Y-34500D02*
X94500Y-34250D01*
X94250Y-36250D02*
X94250Y-34500D01*
X94500Y-37250D02*
X94250Y-36250D01*
X93750Y-37500D02*
X93750Y-34000D01*
G54D35*
X86321Y-36875D02*
X86321Y-36875D01*
G54D33*
X86321Y-36875D02*
X85750Y-36750D01*
G54D35*
X93750Y-37500D02*
X93750Y-37500D01*
G54D34*
X85100Y-36900D02*
X83957Y-36707D01*
G54D33*
X85750Y-36750D02*
X85100Y-36900D01*
G54D34*
X91500Y-35500D02*
X93000Y-36250D01*
X93000Y-35250D02*
X93000Y-36250D01*
X92000Y-34500D02*
X92000Y-34500D01*
X92000Y-34500D02*
X93000Y-35250D01*
X92000Y-34500D02*
X92000Y-34500D01*
G54D10*
G36*
X86307Y-32696D02*
X86245Y-32709D01*
X86073Y-32823D01*
X85959Y-32995D01*
X85946Y-33057D01*
X85750Y-33018D01*
X85553Y-33057D01*
X85541Y-32995D01*
X85426Y-32823D01*
X85254Y-32709D01*
X85192Y-32696D01*
X85231Y-32500D01*
X85192Y-32303D01*
X85254Y-32291D01*
X85426Y-32176D01*
X85541Y-32004D01*
X85553Y-31942D01*
X85750Y-31981D01*
X85946Y-31942D01*
X85959Y-32004D01*
X86073Y-32176D01*
X86245Y-32291D01*
X86307Y-32303D01*
X86268Y-32500D01*
X86307Y-32696D01*
X86307Y-32696D01*
G37*
G54D33*
X86307Y-32696D02*
X86245Y-32709D01*
X86073Y-32823D01*
X85959Y-32995D01*
X85946Y-33057D01*
X85750Y-33018D01*
X85553Y-33057D01*
X85541Y-32995D01*
X85426Y-32823D01*
X85254Y-32709D01*
X85192Y-32696D01*
X85231Y-32500D01*
X85192Y-32303D01*
X85254Y-32291D01*
X85426Y-32176D01*
X85541Y-32004D01*
X85553Y-31942D01*
X85750Y-31981D01*
X85946Y-31942D01*
X85959Y-32004D01*
X86073Y-32176D01*
X86245Y-32291D01*
X86307Y-32303D01*
X86268Y-32500D01*
X86307Y-32696D01*
G54D10*
G36*
X88200Y-32740D02*
X87707Y-33971D01*
X87512Y-34166D01*
X87512Y-32500D01*
X87472Y-32297D01*
X87357Y-32125D01*
X87185Y-32010D01*
X87001Y-31973D01*
X87068Y-31874D01*
X87108Y-31671D01*
X87068Y-31468D01*
X86953Y-31296D01*
X86781Y-31181D01*
X86578Y-31141D01*
X86375Y-31181D01*
X86276Y-31248D01*
X86239Y-31064D01*
X86124Y-30892D01*
X85952Y-30777D01*
X85750Y-30737D01*
X85547Y-30777D01*
X85375Y-30892D01*
X85260Y-31064D01*
X85223Y-31248D01*
X85124Y-31181D01*
X84921Y-31141D01*
X84718Y-31181D01*
X84546Y-31296D01*
X84431Y-31468D01*
X84391Y-31671D01*
X84431Y-31874D01*
X84498Y-31973D01*
X84314Y-32010D01*
X84142Y-32125D01*
X84027Y-32297D01*
X83987Y-32500D01*
X84027Y-32702D01*
X84142Y-32874D01*
X84314Y-32989D01*
X84498Y-33026D01*
X84431Y-33125D01*
X84391Y-33328D01*
X84431Y-33531D01*
X84546Y-33703D01*
X84718Y-33818D01*
X84921Y-33858D01*
X85124Y-33818D01*
X85223Y-33751D01*
X85260Y-33935D01*
X85375Y-34107D01*
X85547Y-34222D01*
X85750Y-34262D01*
X85952Y-34222D01*
X86124Y-34107D01*
X86239Y-33935D01*
X86276Y-33751D01*
X86375Y-33818D01*
X86578Y-33858D01*
X86781Y-33818D01*
X86953Y-33703D01*
X87068Y-33531D01*
X87108Y-33328D01*
X87068Y-33125D01*
X87001Y-33026D01*
X87185Y-32989D01*
X87357Y-32874D01*
X87472Y-32702D01*
X87512Y-32500D01*
X87512Y-34166D01*
X87221Y-34457D01*
X85990Y-34950D01*
X85509Y-34950D01*
X84278Y-34457D01*
X83792Y-33971D01*
X83300Y-32740D01*
X83300Y-32259D01*
X83792Y-31028D01*
X84278Y-30542D01*
X85509Y-30050D01*
X85990Y-30050D01*
X87221Y-30542D01*
X87707Y-31028D01*
X88200Y-32259D01*
X88200Y-32740D01*
X88200Y-32740D01*
G37*
G54D33*
X88200Y-32740D02*
X87707Y-33971D01*
X87512Y-34166D01*
X87512Y-32500D01*
X87472Y-32297D01*
X87357Y-32125D01*
X87185Y-32010D01*
X87001Y-31973D01*
X87068Y-31874D01*
X87108Y-31671D01*
X87068Y-31468D01*
X86953Y-31296D01*
X86781Y-31181D01*
X86578Y-31141D01*
X86375Y-31181D01*
X86276Y-31248D01*
X86239Y-31064D01*
X86124Y-30892D01*
X85952Y-30777D01*
X85750Y-30737D01*
X85547Y-30777D01*
X85375Y-30892D01*
X85260Y-31064D01*
X85223Y-31248D01*
X85124Y-31181D01*
X84921Y-31141D01*
X84718Y-31181D01*
X84546Y-31296D01*
X84431Y-31468D01*
X84391Y-31671D01*
X84431Y-31874D01*
X84498Y-31973D01*
X84314Y-32010D01*
X84142Y-32125D01*
X84027Y-32297D01*
X83987Y-32500D01*
X84027Y-32702D01*
X84142Y-32874D01*
X84314Y-32989D01*
X84498Y-33026D01*
X84431Y-33125D01*
X84391Y-33328D01*
X84431Y-33531D01*
X84546Y-33703D01*
X84718Y-33818D01*
X84921Y-33858D01*
X85124Y-33818D01*
X85223Y-33751D01*
X85260Y-33935D01*
X85375Y-34107D01*
X85547Y-34222D01*
X85750Y-34262D01*
X85952Y-34222D01*
X86124Y-34107D01*
X86239Y-33935D01*
X86276Y-33751D01*
X86375Y-33818D01*
X86578Y-33858D01*
X86781Y-33818D01*
X86953Y-33703D01*
X87068Y-33531D01*
X87108Y-33328D01*
X87068Y-33125D01*
X87001Y-33026D01*
X87185Y-32989D01*
X87357Y-32874D01*
X87472Y-32702D01*
X87512Y-32500D01*
X87512Y-34166D01*
X87221Y-34457D01*
X85990Y-34950D01*
X85509Y-34950D01*
X84278Y-34457D01*
X83792Y-33971D01*
X83300Y-32740D01*
X83300Y-32259D01*
X83792Y-31028D01*
X84278Y-30542D01*
X85509Y-30050D01*
X85990Y-30050D01*
X87221Y-30542D01*
X87707Y-31028D01*
X88200Y-32259D01*
X88200Y-32740D01*
M02*
