G04 (created by PCBNEW (22-Jun-2014 BZR 4027)-stable) date Fri 29 Jun 2018 12:51:00 AM CDT*
%MOIN*%
G04 Gerber Fmt 3.4, Leading zero omitted, Abs format*
%FSLAX34Y34*%
G01*
G70*
G90*
G04 APERTURE LIST*
%ADD10C,0.00590551*%
%ADD11C,0.059*%
%ADD12O,0.059X0.0885*%
%ADD13O,0.059X0.059*%
%ADD14R,0.059X0.059*%
%ADD15C,0.23622*%
%ADD16O,0.069X0.069*%
%ADD17O,0.058X0.058*%
%ADD18C,0.056*%
%ADD19O,0.072X0.056*%
%ADD20O,0.056X0.072*%
%ADD21O,0.032X0.032*%
%ADD22R,0.069X0.069*%
%ADD23O,0.04X0.04*%
%ADD24R,0.079X0.079*%
%ADD25O,0.079X0.079*%
%ADD26C,0.069*%
%ADD27R,0.0885X0.059*%
%ADD28O,0.0885X0.059*%
%ADD29C,0.079*%
%ADD30C,0.035*%
%ADD31C,0.04*%
%ADD32C,0.03*%
%ADD33C,0.02*%
%ADD34C,0.01*%
G04 APERTURE END LIST*
G54D10*
G54D11*
X95750Y-44250D03*
G54D12*
X96250Y-43602D03*
G54D11*
X96750Y-44250D03*
G54D13*
X92750Y-38250D03*
X92750Y-42250D03*
X93750Y-42250D03*
X93750Y-38250D03*
X83000Y-38000D03*
X87000Y-38000D03*
X91000Y-30500D03*
X91000Y-34500D03*
X88500Y-43750D03*
X84500Y-43750D03*
G54D14*
X90500Y-38750D03*
G54D13*
X89500Y-38750D03*
X88500Y-38750D03*
X87500Y-38750D03*
X87500Y-41750D03*
X88500Y-41750D03*
X90500Y-41750D03*
X89500Y-41750D03*
G54D15*
X101250Y-28250D03*
G54D11*
X94750Y-40750D03*
X96750Y-40750D03*
X91500Y-36500D03*
X89500Y-36500D03*
X85250Y-41250D03*
X85250Y-39250D03*
X86250Y-41250D03*
X86250Y-39250D03*
X88500Y-42750D03*
X90500Y-42750D03*
X82542Y-35292D03*
X83957Y-36707D03*
X81750Y-31500D03*
X81750Y-33500D03*
X96750Y-39750D03*
X94750Y-39750D03*
X90500Y-37750D03*
X88500Y-37750D03*
X87500Y-42750D03*
X85500Y-42750D03*
G54D16*
X85750Y-36750D03*
G54D15*
X74000Y-43000D03*
G54D16*
X85750Y-27250D03*
G54D13*
X90250Y-29500D03*
X94250Y-29500D03*
X92000Y-30500D03*
X92000Y-34500D03*
X93000Y-31250D03*
X93000Y-35250D03*
G54D11*
X94250Y-31750D03*
X96250Y-31750D03*
X96250Y-32750D03*
X94250Y-32750D03*
X96500Y-37250D03*
X94500Y-37250D03*
G54D16*
X93000Y-36250D03*
G54D17*
X96850Y-33800D03*
X96850Y-36200D03*
G54D18*
X85042Y-31792D02*
X84929Y-31679D01*
X86570Y-31679D02*
X86457Y-31792D01*
G54D19*
X86890Y-32500D03*
G54D20*
X85750Y-31359D03*
G54D18*
X86570Y-33320D02*
X86457Y-33207D01*
G54D20*
X85750Y-33640D03*
G54D18*
X85042Y-33207D02*
X84929Y-33320D01*
G54D19*
X84609Y-32500D03*
G54D11*
X91500Y-35500D03*
X89500Y-35500D03*
G54D21*
X85750Y-32500D03*
X86500Y-30750D03*
X87500Y-31750D03*
X87500Y-33250D03*
X86500Y-34250D03*
X85000Y-34250D03*
X84000Y-33250D03*
X84000Y-31750D03*
X85000Y-30750D03*
G54D15*
X74000Y-28250D03*
X101250Y-43000D03*
G54D21*
X84750Y-29750D03*
X86750Y-29750D03*
X88500Y-31500D03*
X88500Y-33500D03*
X83000Y-31500D03*
X83000Y-33500D03*
X84750Y-35250D03*
X86750Y-35250D03*
G54D13*
X79750Y-27000D03*
X75750Y-27000D03*
X76250Y-27750D03*
X80250Y-27750D03*
G54D22*
X99696Y-31811D03*
G54D16*
X100696Y-31811D03*
G54D23*
X97696Y-36811D03*
X102696Y-36811D03*
G54D11*
X82250Y-27000D03*
X82250Y-29000D03*
G54D14*
X91750Y-44000D03*
G54D13*
X94750Y-44000D03*
G54D14*
X90000Y-34000D03*
G54D13*
X90000Y-31000D03*
G54D14*
X91750Y-38750D03*
G54D13*
X91750Y-41750D03*
G54D24*
X73000Y-40250D03*
G54D25*
X73000Y-36250D03*
G54D22*
X75500Y-29750D03*
G54D16*
X76500Y-29750D03*
G54D23*
X73500Y-34750D03*
X78500Y-34750D03*
G54D11*
X97542Y-30957D03*
X98957Y-29542D03*
G54D22*
X83000Y-40250D03*
G54D26*
X83000Y-41250D03*
G54D22*
X84000Y-41250D03*
G54D26*
X84000Y-42250D03*
G54D22*
X83000Y-42250D03*
G54D26*
X83000Y-43250D03*
G54D22*
X77000Y-41750D03*
G54D26*
X77000Y-40750D03*
G54D22*
X78000Y-42750D03*
G54D26*
X78000Y-41750D03*
G54D22*
X77000Y-43750D03*
G54D26*
X77000Y-42750D03*
G54D22*
X78000Y-40750D03*
G54D26*
X78000Y-39750D03*
G54D27*
X79147Y-37000D03*
G54D28*
X79147Y-38000D03*
X79147Y-39000D03*
X79147Y-40000D03*
X81852Y-42000D03*
X81852Y-41000D03*
X81852Y-40000D03*
X81852Y-39000D03*
X79147Y-41000D03*
X79147Y-42000D03*
X79147Y-43000D03*
X81852Y-43000D03*
X81852Y-44000D03*
X81852Y-38000D03*
X79147Y-44000D03*
X81852Y-37000D03*
G54D11*
X79750Y-31000D03*
X79750Y-33000D03*
X79750Y-31500D03*
X79750Y-34750D03*
X79750Y-29750D03*
G54D29*
X79750Y-35750D03*
X79750Y-28750D03*
G54D30*
X96500Y-39000D03*
G54D31*
X89150Y-32500D03*
X88150Y-30100D03*
G54D30*
X83300Y-38900D03*
X78200Y-33000D03*
G54D31*
X83350Y-30100D03*
X85750Y-29100D03*
X82350Y-32500D03*
G54D30*
X84200Y-37350D03*
G54D31*
X88150Y-34900D03*
X83350Y-34900D03*
X93750Y-34000D03*
X85750Y-35900D03*
G54D32*
X82500Y-44500D02*
X91000Y-44500D01*
X81250Y-44500D02*
X79750Y-44500D01*
X73000Y-40250D02*
X75750Y-41250D01*
X76250Y-44500D02*
X78500Y-44500D01*
X76000Y-44250D02*
X76250Y-44500D01*
X75750Y-41250D02*
X76000Y-44250D01*
G54D33*
X79750Y-44500D02*
X78500Y-44500D01*
X82500Y-44500D02*
X81250Y-44500D01*
G54D32*
X91000Y-44500D02*
X91750Y-44000D01*
X96500Y-39000D02*
X96500Y-37250D01*
X89500Y-41000D02*
X89750Y-41000D01*
X87500Y-41000D02*
X89500Y-41000D01*
X86250Y-41250D02*
X87500Y-41000D01*
X89750Y-41000D02*
X90500Y-41750D01*
X90500Y-41750D02*
X91000Y-42250D01*
X91750Y-44000D02*
X91750Y-44000D01*
X91250Y-42750D02*
X91750Y-44000D01*
X91000Y-42250D02*
X91250Y-42750D01*
X91750Y-44000D02*
X91750Y-44000D01*
X96000Y-39750D02*
X94300Y-37850D01*
X92050Y-35200D02*
X92250Y-36642D01*
X92050Y-35200D02*
X91000Y-34500D01*
X91000Y-34500D02*
X91000Y-33750D01*
X94300Y-37850D02*
X92250Y-36642D01*
X96000Y-40750D02*
X96750Y-40750D01*
X96000Y-40750D02*
X96000Y-39750D01*
X96000Y-39750D02*
X96750Y-39750D01*
X91000Y-33750D02*
X91000Y-33750D01*
X91000Y-33750D02*
X91000Y-34500D01*
X91000Y-34500D02*
X91000Y-34500D01*
X91000Y-34500D02*
X91000Y-34500D01*
X91000Y-34500D02*
X91000Y-34500D01*
G54D34*
X86739Y-32500D02*
X89150Y-32500D01*
G54D32*
X89150Y-32500D02*
X91000Y-33750D01*
X91000Y-33750D02*
X91000Y-33750D01*
X91000Y-33750D02*
X91000Y-33750D01*
G54D34*
X89250Y-32500D02*
X89150Y-32500D01*
G54D32*
X90500Y-42750D02*
X89500Y-41750D01*
X93750Y-42250D02*
X94750Y-40750D01*
X90500Y-38750D02*
X91250Y-39500D01*
X92250Y-39500D02*
X92750Y-38250D01*
X91250Y-39500D02*
X92250Y-39500D01*
G54D34*
X92750Y-42250D02*
X93250Y-42750D01*
X93250Y-42750D02*
X96250Y-43750D01*
X86457Y-31792D02*
X88150Y-30100D01*
X84600Y-42650D02*
X84600Y-40600D01*
X84600Y-40600D02*
X83300Y-38900D01*
X84500Y-43750D02*
X84600Y-42650D01*
X79150Y-31900D02*
X79750Y-31500D01*
X78200Y-33000D02*
X79150Y-31900D01*
X85042Y-31792D02*
X83350Y-30100D01*
X83350Y-30100D02*
X83400Y-30100D01*
G54D32*
X90500Y-37750D02*
X92900Y-37650D01*
X93375Y-37875D02*
X93750Y-38250D01*
X92900Y-37650D02*
X93375Y-37875D01*
X93750Y-38250D02*
X94750Y-39750D01*
G54D34*
X87000Y-38000D02*
X87750Y-38250D01*
X88750Y-39250D02*
X89500Y-38750D01*
X88250Y-39250D02*
X88750Y-39250D01*
X88000Y-39000D02*
X88250Y-39250D01*
X88000Y-38500D02*
X88000Y-39000D01*
X87750Y-38250D02*
X88000Y-38500D01*
G54D32*
X89500Y-38750D02*
X89750Y-38000D01*
X89750Y-38000D02*
X90500Y-37750D01*
X88500Y-42750D02*
X88500Y-43750D01*
X88500Y-41750D02*
X87500Y-42750D01*
X88500Y-41750D02*
X88500Y-42750D01*
X74800Y-29500D02*
X74100Y-30250D01*
X74100Y-30250D02*
X72750Y-34750D01*
G54D34*
X75000Y-29250D02*
X74800Y-29500D01*
G54D32*
X79750Y-27000D02*
X75300Y-29100D01*
G54D34*
X75300Y-29100D02*
X75000Y-29250D01*
G54D32*
X72750Y-34750D02*
X73000Y-36250D01*
X94250Y-29500D02*
X94250Y-31750D01*
X79000Y-37000D02*
X79000Y-38000D01*
X85250Y-29000D02*
X83000Y-29500D01*
G54D34*
X85750Y-29100D02*
X85250Y-29000D01*
G54D32*
X79000Y-34600D02*
X79000Y-37000D01*
X79000Y-32800D02*
X79000Y-34600D01*
X79500Y-32250D02*
X79000Y-32800D01*
X80250Y-32250D02*
X79500Y-32250D01*
X81000Y-31000D02*
X80250Y-32250D01*
X83000Y-29500D02*
X81000Y-31000D01*
X85750Y-28700D02*
X85750Y-27250D01*
G54D34*
X85750Y-31510D02*
X85750Y-29100D01*
X85750Y-29100D02*
X85750Y-28700D01*
G54D32*
X82000Y-37000D02*
X81000Y-34000D01*
X81250Y-33000D02*
X82350Y-32500D01*
X81000Y-33250D02*
X81250Y-33000D01*
X81000Y-34000D02*
X81000Y-33250D01*
X84500Y-39500D02*
X85250Y-40050D01*
X85250Y-40050D02*
X85250Y-41250D01*
X82350Y-32500D02*
X82422Y-34003D01*
X82422Y-34003D02*
X83000Y-34500D01*
X83000Y-34500D02*
X83464Y-34393D01*
X83464Y-34393D02*
X83879Y-34759D01*
G54D34*
X84760Y-32500D02*
X82350Y-32500D01*
G54D32*
X83744Y-35209D02*
X83250Y-36700D01*
X83879Y-34759D02*
X83744Y-35209D01*
X83250Y-36700D02*
X84500Y-39500D01*
X87500Y-41750D02*
X86000Y-42000D01*
X86000Y-42000D02*
X85250Y-41250D01*
X87500Y-41750D02*
X85500Y-42750D01*
G54D33*
X87000Y-37300D02*
X88500Y-37750D01*
X86400Y-37400D02*
X87000Y-37300D01*
X84200Y-37350D02*
X86400Y-37400D01*
G54D34*
X86457Y-33207D02*
X88150Y-34900D01*
G54D32*
X89750Y-34750D02*
X90250Y-35000D01*
X90250Y-35000D02*
X91500Y-36500D01*
X88150Y-34900D02*
X89750Y-34750D01*
X89750Y-34750D02*
X89750Y-34750D01*
X89750Y-34750D02*
X89750Y-34750D01*
X88500Y-37750D02*
X89750Y-37250D01*
X89750Y-37250D02*
X91500Y-36500D01*
X88500Y-38750D02*
X88500Y-37750D01*
G54D34*
X88150Y-34900D02*
X88250Y-35000D01*
G54D32*
X81250Y-39500D02*
X81000Y-39750D01*
X83000Y-38000D02*
X82500Y-39500D01*
G54D33*
X81250Y-39500D02*
X82500Y-39500D01*
G54D32*
X81000Y-42500D02*
X82000Y-43000D01*
X81000Y-39750D02*
X81000Y-42500D01*
X82542Y-35292D02*
X82700Y-36800D01*
X82700Y-36800D02*
X83000Y-38000D01*
X82542Y-35292D02*
X83350Y-34900D01*
G54D34*
X83350Y-34900D02*
X85042Y-33207D01*
G54D32*
X79000Y-43000D02*
X82000Y-43000D01*
X82250Y-29000D02*
X80100Y-30350D01*
X79350Y-30350D02*
X76500Y-29750D01*
X80100Y-30350D02*
X79350Y-30350D01*
X79750Y-34750D02*
X79750Y-35750D01*
X79750Y-33000D02*
X79750Y-34750D01*
X95000Y-33000D02*
X96250Y-31750D01*
X95000Y-33000D02*
X93750Y-34000D01*
X93750Y-34000D02*
X93750Y-34000D01*
G54D34*
X85750Y-36750D02*
X85750Y-35900D01*
X85750Y-35900D02*
X85750Y-33489D01*
X85750Y-36750D02*
X86300Y-36950D01*
G54D32*
X86300Y-36950D02*
X89500Y-36500D01*
G54D34*
X85750Y-36750D02*
X86300Y-36550D01*
G54D32*
X86300Y-36550D02*
X89500Y-35500D01*
X86250Y-39250D02*
X86250Y-39250D01*
X86250Y-39250D02*
X87500Y-38750D01*
G54D34*
X86250Y-39250D02*
X87500Y-38750D01*
G54D32*
X99696Y-31811D02*
X97542Y-30957D01*
X93000Y-36250D02*
X94500Y-35500D01*
X99696Y-31811D02*
X99696Y-31811D01*
X98350Y-32250D02*
X99696Y-31811D01*
X98350Y-34100D02*
X98350Y-32250D01*
X97000Y-35500D02*
X98350Y-34100D01*
X94500Y-35500D02*
X97000Y-35500D01*
G54D10*
G36*
X84498Y-31973D02*
X84314Y-32010D01*
X84142Y-32125D01*
X84092Y-32200D01*
X83323Y-32200D01*
X83792Y-31028D01*
X83823Y-30997D01*
X84408Y-31583D01*
X84391Y-31671D01*
X84431Y-31874D01*
X84498Y-31973D01*
X84498Y-31973D01*
G37*
G54D34*
X84498Y-31973D02*
X84314Y-32010D01*
X84142Y-32125D01*
X84092Y-32200D01*
X83323Y-32200D01*
X83792Y-31028D01*
X83823Y-30997D01*
X84408Y-31583D01*
X84391Y-31671D01*
X84431Y-31874D01*
X84498Y-31973D01*
G54D10*
G36*
X84498Y-33026D02*
X84431Y-33125D01*
X84391Y-33328D01*
X84408Y-33416D01*
X83823Y-34002D01*
X83792Y-33971D01*
X83323Y-32800D01*
X84092Y-32800D01*
X84142Y-32874D01*
X84314Y-32989D01*
X84498Y-33026D01*
X84498Y-33026D01*
G37*
G54D34*
X84498Y-33026D02*
X84431Y-33125D01*
X84391Y-33328D01*
X84408Y-33416D01*
X83823Y-34002D01*
X83792Y-33971D01*
X83323Y-32800D01*
X84092Y-32800D01*
X84142Y-32874D01*
X84314Y-32989D01*
X84498Y-33026D01*
G54D10*
G36*
X85450Y-30842D02*
X85375Y-30892D01*
X85260Y-31064D01*
X85223Y-31248D01*
X85124Y-31181D01*
X84921Y-31141D01*
X84833Y-31158D01*
X84247Y-30573D01*
X84278Y-30542D01*
X85450Y-30073D01*
X85450Y-30842D01*
X85450Y-30842D01*
G37*
G54D34*
X85450Y-30842D02*
X85375Y-30892D01*
X85260Y-31064D01*
X85223Y-31248D01*
X85124Y-31181D01*
X84921Y-31141D01*
X84833Y-31158D01*
X84247Y-30573D01*
X84278Y-30542D01*
X85450Y-30073D01*
X85450Y-30842D01*
G54D10*
G36*
X85450Y-34926D02*
X84278Y-34457D01*
X84247Y-34426D01*
X84833Y-33841D01*
X84921Y-33858D01*
X85124Y-33818D01*
X85223Y-33751D01*
X85260Y-33935D01*
X85375Y-34107D01*
X85450Y-34157D01*
X85450Y-34926D01*
X85450Y-34926D01*
G37*
G54D34*
X85450Y-34926D02*
X84278Y-34457D01*
X84247Y-34426D01*
X84833Y-33841D01*
X84921Y-33858D01*
X85124Y-33818D01*
X85223Y-33751D01*
X85260Y-33935D01*
X85375Y-34107D01*
X85450Y-34157D01*
X85450Y-34926D01*
G54D10*
G36*
X86307Y-32696D02*
X86245Y-32709D01*
X86073Y-32823D01*
X85959Y-32995D01*
X85946Y-33057D01*
X85750Y-33018D01*
X85553Y-33057D01*
X85541Y-32995D01*
X85426Y-32823D01*
X85254Y-32709D01*
X85192Y-32696D01*
X85231Y-32500D01*
X85192Y-32303D01*
X85254Y-32291D01*
X85426Y-32176D01*
X85541Y-32004D01*
X85553Y-31942D01*
X85750Y-31981D01*
X85946Y-31942D01*
X85959Y-32004D01*
X86073Y-32176D01*
X86245Y-32291D01*
X86307Y-32303D01*
X86268Y-32500D01*
X86307Y-32696D01*
X86307Y-32696D01*
G37*
G54D34*
X86307Y-32696D02*
X86245Y-32709D01*
X86073Y-32823D01*
X85959Y-32995D01*
X85946Y-33057D01*
X85750Y-33018D01*
X85553Y-33057D01*
X85541Y-32995D01*
X85426Y-32823D01*
X85254Y-32709D01*
X85192Y-32696D01*
X85231Y-32500D01*
X85192Y-32303D01*
X85254Y-32291D01*
X85426Y-32176D01*
X85541Y-32004D01*
X85553Y-31942D01*
X85750Y-31981D01*
X85946Y-31942D01*
X85959Y-32004D01*
X86073Y-32176D01*
X86245Y-32291D01*
X86307Y-32303D01*
X86268Y-32500D01*
X86307Y-32696D01*
G54D10*
G36*
X87252Y-30573D02*
X86666Y-31158D01*
X86578Y-31141D01*
X86375Y-31181D01*
X86276Y-31248D01*
X86239Y-31064D01*
X86124Y-30892D01*
X86050Y-30842D01*
X86050Y-30073D01*
X87221Y-30542D01*
X87252Y-30573D01*
X87252Y-30573D01*
G37*
G54D34*
X87252Y-30573D02*
X86666Y-31158D01*
X86578Y-31141D01*
X86375Y-31181D01*
X86276Y-31248D01*
X86239Y-31064D01*
X86124Y-30892D01*
X86050Y-30842D01*
X86050Y-30073D01*
X87221Y-30542D01*
X87252Y-30573D01*
G54D10*
G36*
X87252Y-34426D02*
X87221Y-34457D01*
X86050Y-34926D01*
X86050Y-34157D01*
X86124Y-34107D01*
X86239Y-33935D01*
X86276Y-33751D01*
X86375Y-33818D01*
X86578Y-33858D01*
X86666Y-33841D01*
X87252Y-34426D01*
X87252Y-34426D01*
G37*
G54D34*
X87252Y-34426D02*
X87221Y-34457D01*
X86050Y-34926D01*
X86050Y-34157D01*
X86124Y-34107D01*
X86239Y-33935D01*
X86276Y-33751D01*
X86375Y-33818D01*
X86578Y-33858D01*
X86666Y-33841D01*
X87252Y-34426D01*
G54D10*
G36*
X88176Y-32200D02*
X87407Y-32200D01*
X87357Y-32125D01*
X87185Y-32010D01*
X87001Y-31973D01*
X87068Y-31874D01*
X87108Y-31671D01*
X87091Y-31583D01*
X87676Y-30997D01*
X87707Y-31028D01*
X88176Y-32200D01*
X88176Y-32200D01*
G37*
G54D34*
X88176Y-32200D02*
X87407Y-32200D01*
X87357Y-32125D01*
X87185Y-32010D01*
X87001Y-31973D01*
X87068Y-31874D01*
X87108Y-31671D01*
X87091Y-31583D01*
X87676Y-30997D01*
X87707Y-31028D01*
X88176Y-32200D01*
G54D10*
G36*
X88176Y-32800D02*
X87707Y-33971D01*
X87676Y-34002D01*
X87091Y-33416D01*
X87108Y-33328D01*
X87068Y-33125D01*
X87001Y-33026D01*
X87185Y-32989D01*
X87357Y-32874D01*
X87407Y-32800D01*
X88176Y-32800D01*
X88176Y-32800D01*
G37*
G54D34*
X88176Y-32800D02*
X87707Y-33971D01*
X87676Y-34002D01*
X87091Y-33416D01*
X87108Y-33328D01*
X87068Y-33125D01*
X87001Y-33026D01*
X87185Y-32989D01*
X87357Y-32874D01*
X87407Y-32800D01*
X88176Y-32800D01*
M02*
