G04 (created by PCBNEW (22-Jun-2014 BZR 4027)-stable) date Fri 29 Jun 2018 12:51:00 AM CDT*
%MOIN*%
G04 Gerber Fmt 3.4, Leading zero omitted, Abs format*
%FSLAX34Y34*%
G01*
G70*
G90*
G04 APERTURE LIST*
%ADD10C,0.00590551*%
%ADD11C,0.006*%
%ADD12C,0.005*%
%ADD13C,0.008*%
%ADD14C,0.00787402*%
%ADD15C,0.007*%
%ADD16C,0.016*%
%ADD17C,0.01*%
%ADD18C,0.0001*%
G04 APERTURE END LIST*
G54D10*
G54D11*
X100145Y-31053D02*
X100186Y-31033D01*
X100206Y-31033D01*
X100236Y-31043D01*
X100267Y-31073D01*
X100277Y-31104D01*
X100277Y-31124D01*
X100267Y-31154D01*
X100186Y-31235D01*
X99974Y-31023D01*
X100044Y-30952D01*
X100075Y-30942D01*
X100095Y-30942D01*
X100125Y-30952D01*
X100145Y-30972D01*
X100156Y-31003D01*
X100156Y-31023D01*
X100145Y-31053D01*
X100075Y-31124D01*
X100186Y-30811D02*
X100358Y-30982D01*
X100388Y-30992D01*
X100408Y-30992D01*
X100438Y-30982D01*
X100479Y-30942D01*
X100489Y-30912D01*
X100489Y-30891D01*
X100479Y-30861D01*
X100307Y-30689D01*
X100580Y-30619D02*
X100509Y-30689D01*
X100620Y-30800D02*
X100408Y-30588D01*
X100509Y-30487D01*
X100905Y-31204D02*
X101067Y-31042D01*
X101006Y-30840D02*
X101289Y-30982D01*
X101147Y-30699D01*
X101269Y-30719D02*
X101380Y-30608D01*
X101410Y-30861D01*
X101521Y-30749D01*
G54D12*
X96905Y-35684D02*
X96905Y-35494D01*
X96989Y-35196D02*
X97001Y-35160D01*
X97001Y-35101D01*
X96989Y-35077D01*
X96977Y-35065D01*
X96953Y-35053D01*
X96929Y-35053D01*
X96905Y-35065D01*
X96894Y-35077D01*
X96882Y-35101D01*
X96870Y-35148D01*
X96858Y-35172D01*
X96846Y-35184D01*
X96822Y-35196D01*
X96798Y-35196D01*
X96775Y-35184D01*
X96763Y-35172D01*
X96751Y-35148D01*
X96751Y-35089D01*
X96763Y-35053D01*
X97001Y-34946D02*
X96751Y-34946D01*
X96751Y-34886D01*
X96763Y-34851D01*
X96786Y-34827D01*
X96810Y-34815D01*
X96858Y-34803D01*
X96894Y-34803D01*
X96941Y-34815D01*
X96965Y-34827D01*
X96989Y-34851D01*
X97001Y-34886D01*
X97001Y-34946D01*
X96905Y-34505D02*
X96905Y-34315D01*
X97001Y-34410D02*
X96810Y-34410D01*
G54D13*
X92647Y-37202D02*
X92704Y-37221D01*
X92723Y-37240D01*
X92742Y-37278D01*
X92742Y-37335D01*
X92723Y-37373D01*
X92704Y-37392D01*
X92666Y-37411D01*
X92514Y-37411D01*
X92514Y-37011D01*
X92647Y-37011D01*
X92685Y-37030D01*
X92704Y-37050D01*
X92723Y-37088D01*
X92723Y-37126D01*
X92704Y-37164D01*
X92685Y-37183D01*
X92647Y-37202D01*
X92514Y-37202D01*
X92914Y-37011D02*
X92914Y-37335D01*
X92933Y-37373D01*
X92952Y-37392D01*
X92990Y-37411D01*
X93066Y-37411D01*
X93104Y-37392D01*
X93123Y-37373D01*
X93142Y-37335D01*
X93142Y-37011D01*
X93466Y-37202D02*
X93333Y-37202D01*
X93333Y-37411D02*
X93333Y-37011D01*
X93523Y-37011D01*
G54D14*
X89150Y-32500D02*
G75*
G03X89150Y-32500I-3400J0D01*
G74*
G01*
G54D11*
X88950Y-28071D02*
X88950Y-28314D01*
X88935Y-28342D01*
X88921Y-28357D01*
X88892Y-28371D01*
X88850Y-28371D01*
X88821Y-28357D01*
X88950Y-28257D02*
X88921Y-28271D01*
X88864Y-28271D01*
X88835Y-28257D01*
X88821Y-28242D01*
X88807Y-28214D01*
X88807Y-28128D01*
X88821Y-28100D01*
X88835Y-28085D01*
X88864Y-28071D01*
X88921Y-28071D01*
X88950Y-28085D01*
X89092Y-28271D02*
X89092Y-28071D01*
X89092Y-27971D02*
X89078Y-27985D01*
X89092Y-28000D01*
X89107Y-27985D01*
X89092Y-27971D01*
X89092Y-28000D01*
X89192Y-28071D02*
X89307Y-28071D01*
X89235Y-27971D02*
X89235Y-28228D01*
X89250Y-28257D01*
X89278Y-28271D01*
X89307Y-28271D01*
X89407Y-28271D02*
X89407Y-27971D01*
X89535Y-28271D02*
X89535Y-28114D01*
X89521Y-28085D01*
X89492Y-28071D01*
X89450Y-28071D01*
X89421Y-28085D01*
X89407Y-28100D01*
X89807Y-28071D02*
X89807Y-28271D01*
X89678Y-28071D02*
X89678Y-28228D01*
X89692Y-28257D01*
X89721Y-28271D01*
X89764Y-28271D01*
X89792Y-28257D01*
X89807Y-28242D01*
X89950Y-28271D02*
X89950Y-27971D01*
X89950Y-28085D02*
X89978Y-28071D01*
X90035Y-28071D01*
X90064Y-28085D01*
X90078Y-28100D01*
X90092Y-28128D01*
X90092Y-28214D01*
X90078Y-28242D01*
X90064Y-28257D01*
X90035Y-28271D01*
X89978Y-28271D01*
X89950Y-28257D01*
X90221Y-28242D02*
X90235Y-28257D01*
X90221Y-28271D01*
X90207Y-28257D01*
X90221Y-28242D01*
X90221Y-28271D01*
X90492Y-28257D02*
X90464Y-28271D01*
X90407Y-28271D01*
X90378Y-28257D01*
X90364Y-28242D01*
X90350Y-28214D01*
X90350Y-28128D01*
X90364Y-28100D01*
X90378Y-28085D01*
X90407Y-28071D01*
X90464Y-28071D01*
X90492Y-28085D01*
X90664Y-28271D02*
X90635Y-28257D01*
X90621Y-28242D01*
X90607Y-28214D01*
X90607Y-28128D01*
X90621Y-28100D01*
X90635Y-28085D01*
X90664Y-28071D01*
X90707Y-28071D01*
X90735Y-28085D01*
X90750Y-28100D01*
X90764Y-28128D01*
X90764Y-28214D01*
X90750Y-28242D01*
X90735Y-28257D01*
X90707Y-28271D01*
X90664Y-28271D01*
X90892Y-28271D02*
X90892Y-28071D01*
X90892Y-28100D02*
X90907Y-28085D01*
X90935Y-28071D01*
X90978Y-28071D01*
X91007Y-28085D01*
X91021Y-28114D01*
X91021Y-28271D01*
X91021Y-28114D02*
X91035Y-28085D01*
X91064Y-28071D01*
X91107Y-28071D01*
X91135Y-28085D01*
X91150Y-28114D01*
X91150Y-28271D01*
X91507Y-27957D02*
X91250Y-28342D01*
X91607Y-28071D02*
X91607Y-28371D01*
X91607Y-28085D02*
X91635Y-28071D01*
X91692Y-28071D01*
X91721Y-28085D01*
X91735Y-28100D01*
X91750Y-28128D01*
X91750Y-28214D01*
X91735Y-28242D01*
X91721Y-28257D01*
X91692Y-28271D01*
X91635Y-28271D01*
X91607Y-28257D01*
X91992Y-28257D02*
X91964Y-28271D01*
X91907Y-28271D01*
X91878Y-28257D01*
X91864Y-28228D01*
X91864Y-28114D01*
X91878Y-28085D01*
X91907Y-28071D01*
X91964Y-28071D01*
X91992Y-28085D01*
X92007Y-28114D01*
X92007Y-28142D01*
X91864Y-28171D01*
X92135Y-28071D02*
X92135Y-28371D01*
X92135Y-28085D02*
X92164Y-28071D01*
X92221Y-28071D01*
X92250Y-28085D01*
X92264Y-28100D01*
X92278Y-28128D01*
X92278Y-28214D01*
X92264Y-28242D01*
X92250Y-28257D01*
X92221Y-28271D01*
X92164Y-28271D01*
X92135Y-28257D01*
X92535Y-28271D02*
X92535Y-28114D01*
X92521Y-28085D01*
X92492Y-28071D01*
X92435Y-28071D01*
X92407Y-28085D01*
X92535Y-28257D02*
X92507Y-28271D01*
X92435Y-28271D01*
X92407Y-28257D01*
X92392Y-28228D01*
X92392Y-28200D01*
X92407Y-28171D01*
X92435Y-28157D01*
X92507Y-28157D01*
X92535Y-28142D01*
X92664Y-28257D02*
X92692Y-28271D01*
X92750Y-28271D01*
X92778Y-28257D01*
X92792Y-28228D01*
X92792Y-28214D01*
X92778Y-28185D01*
X92750Y-28171D01*
X92707Y-28171D01*
X92678Y-28157D01*
X92664Y-28128D01*
X92664Y-28114D01*
X92678Y-28085D01*
X92707Y-28071D01*
X92750Y-28071D01*
X92778Y-28085D01*
X92964Y-28271D02*
X92935Y-28257D01*
X92921Y-28228D01*
X92921Y-27971D01*
X93207Y-28271D02*
X93207Y-28114D01*
X93192Y-28085D01*
X93164Y-28071D01*
X93107Y-28071D01*
X93078Y-28085D01*
X93207Y-28257D02*
X93178Y-28271D01*
X93107Y-28271D01*
X93078Y-28257D01*
X93064Y-28228D01*
X93064Y-28200D01*
X93078Y-28171D01*
X93107Y-28157D01*
X93178Y-28157D01*
X93207Y-28142D01*
X93350Y-28271D02*
X93350Y-27971D01*
X93350Y-28085D02*
X93378Y-28071D01*
X93435Y-28071D01*
X93464Y-28085D01*
X93478Y-28100D01*
X93492Y-28128D01*
X93492Y-28214D01*
X93478Y-28242D01*
X93464Y-28257D01*
X93435Y-28271D01*
X93378Y-28271D01*
X93350Y-28257D01*
X93607Y-28257D02*
X93635Y-28271D01*
X93692Y-28271D01*
X93721Y-28257D01*
X93735Y-28228D01*
X93735Y-28214D01*
X93721Y-28185D01*
X93692Y-28171D01*
X93650Y-28171D01*
X93621Y-28157D01*
X93607Y-28128D01*
X93607Y-28114D01*
X93621Y-28085D01*
X93650Y-28071D01*
X93692Y-28071D01*
X93721Y-28085D01*
X94078Y-27957D02*
X93821Y-28342D01*
X94178Y-28071D02*
X94178Y-28371D01*
X94178Y-28085D02*
X94207Y-28071D01*
X94264Y-28071D01*
X94292Y-28085D01*
X94307Y-28100D01*
X94321Y-28128D01*
X94321Y-28214D01*
X94307Y-28242D01*
X94292Y-28257D01*
X94264Y-28271D01*
X94207Y-28271D01*
X94178Y-28257D01*
X94421Y-28271D02*
X94578Y-28071D01*
X94421Y-28071D02*
X94578Y-28271D01*
X94692Y-28157D02*
X94921Y-28157D01*
X95064Y-28271D02*
X95064Y-28071D01*
X95064Y-28128D02*
X95078Y-28100D01*
X95092Y-28085D01*
X95121Y-28071D01*
X95150Y-28071D01*
X95364Y-28257D02*
X95335Y-28271D01*
X95278Y-28271D01*
X95250Y-28257D01*
X95235Y-28228D01*
X95235Y-28114D01*
X95250Y-28085D01*
X95278Y-28071D01*
X95335Y-28071D01*
X95364Y-28085D01*
X95378Y-28114D01*
X95378Y-28142D01*
X95235Y-28171D01*
X95464Y-28071D02*
X95578Y-28071D01*
X95507Y-28271D02*
X95507Y-28014D01*
X95521Y-27985D01*
X95550Y-27971D01*
X95578Y-27971D01*
X92942Y-27471D02*
X93014Y-27671D01*
X93085Y-27471D01*
X93185Y-27400D02*
X93200Y-27385D01*
X93228Y-27371D01*
X93300Y-27371D01*
X93328Y-27385D01*
X93342Y-27400D01*
X93357Y-27428D01*
X93357Y-27457D01*
X93342Y-27500D01*
X93171Y-27671D01*
X93357Y-27671D01*
X93485Y-27642D02*
X93499Y-27657D01*
X93485Y-27671D01*
X93471Y-27657D01*
X93485Y-27642D01*
X93485Y-27671D01*
X93757Y-27371D02*
X93699Y-27371D01*
X93671Y-27385D01*
X93657Y-27400D01*
X93628Y-27442D01*
X93614Y-27500D01*
X93614Y-27614D01*
X93628Y-27642D01*
X93642Y-27657D01*
X93671Y-27671D01*
X93728Y-27671D01*
X93757Y-27657D01*
X93771Y-27642D01*
X93785Y-27614D01*
X93785Y-27542D01*
X93771Y-27514D01*
X93757Y-27500D01*
X93728Y-27485D01*
X93671Y-27485D01*
X93642Y-27500D01*
X93628Y-27514D01*
X93614Y-27542D01*
G54D15*
X94514Y-27671D02*
X94371Y-27671D01*
X94371Y-27371D01*
X94571Y-27371D02*
X94742Y-27371D01*
X94657Y-27671D02*
X94657Y-27371D01*
X94814Y-27371D02*
X95014Y-27371D01*
X94814Y-27671D01*
X95014Y-27671D01*
X95285Y-27671D02*
X95114Y-27671D01*
X95199Y-27671D02*
X95199Y-27371D01*
X95171Y-27414D01*
X95142Y-27442D01*
X95114Y-27457D01*
X95471Y-27371D02*
X95499Y-27371D01*
X95528Y-27385D01*
X95542Y-27400D01*
X95557Y-27428D01*
X95571Y-27485D01*
X95571Y-27557D01*
X95557Y-27614D01*
X95542Y-27642D01*
X95528Y-27657D01*
X95499Y-27671D01*
X95471Y-27671D01*
X95442Y-27657D01*
X95428Y-27642D01*
X95414Y-27614D01*
X95399Y-27557D01*
X95399Y-27485D01*
X95414Y-27428D01*
X95428Y-27400D01*
X95442Y-27385D01*
X95471Y-27371D01*
X95757Y-27371D02*
X95785Y-27371D01*
X95814Y-27385D01*
X95828Y-27400D01*
X95842Y-27428D01*
X95857Y-27485D01*
X95857Y-27557D01*
X95842Y-27614D01*
X95828Y-27642D01*
X95814Y-27657D01*
X95785Y-27671D01*
X95757Y-27671D01*
X95728Y-27657D01*
X95714Y-27642D01*
X95699Y-27614D01*
X95685Y-27557D01*
X95685Y-27485D01*
X95699Y-27428D01*
X95714Y-27400D01*
X95728Y-27385D01*
X95757Y-27371D01*
X96042Y-27371D02*
X96071Y-27371D01*
X96099Y-27385D01*
X96114Y-27400D01*
X96128Y-27428D01*
X96142Y-27485D01*
X96142Y-27557D01*
X96128Y-27614D01*
X96114Y-27642D01*
X96099Y-27657D01*
X96071Y-27671D01*
X96042Y-27671D01*
X96014Y-27657D01*
X95999Y-27642D01*
X95985Y-27614D01*
X95971Y-27557D01*
X95971Y-27485D01*
X95985Y-27428D01*
X95999Y-27400D01*
X96014Y-27385D01*
X96042Y-27371D01*
X96471Y-27371D02*
X96671Y-27371D01*
X96542Y-27671D01*
X96742Y-27371D02*
X96842Y-27671D01*
X96942Y-27371D01*
X97271Y-27671D02*
X97271Y-27471D01*
X97271Y-27528D02*
X97285Y-27500D01*
X97299Y-27485D01*
X97328Y-27471D01*
X97357Y-27471D01*
X97571Y-27657D02*
X97542Y-27671D01*
X97485Y-27671D01*
X97457Y-27657D01*
X97442Y-27628D01*
X97442Y-27514D01*
X97457Y-27485D01*
X97485Y-27471D01*
X97542Y-27471D01*
X97571Y-27485D01*
X97585Y-27514D01*
X97585Y-27542D01*
X97442Y-27571D01*
X97671Y-27471D02*
X97785Y-27471D01*
X97714Y-27671D02*
X97714Y-27414D01*
X97728Y-27385D01*
X97757Y-27371D01*
X97785Y-27371D01*
X97999Y-27657D02*
X97971Y-27671D01*
X97914Y-27671D01*
X97885Y-27657D01*
X97871Y-27628D01*
X97871Y-27514D01*
X97885Y-27485D01*
X97914Y-27471D01*
X97971Y-27471D01*
X97999Y-27485D01*
X98014Y-27514D01*
X98014Y-27542D01*
X97871Y-27571D01*
X98142Y-27671D02*
X98142Y-27471D01*
X98142Y-27528D02*
X98157Y-27500D01*
X98171Y-27485D01*
X98199Y-27471D01*
X98228Y-27471D01*
X98442Y-27657D02*
X98414Y-27671D01*
X98357Y-27671D01*
X98328Y-27657D01*
X98314Y-27628D01*
X98314Y-27514D01*
X98328Y-27485D01*
X98357Y-27471D01*
X98414Y-27471D01*
X98442Y-27485D01*
X98457Y-27514D01*
X98457Y-27542D01*
X98314Y-27571D01*
X98585Y-27471D02*
X98585Y-27671D01*
X98585Y-27500D02*
X98599Y-27485D01*
X98628Y-27471D01*
X98671Y-27471D01*
X98699Y-27485D01*
X98714Y-27514D01*
X98714Y-27671D01*
X98985Y-27657D02*
X98957Y-27671D01*
X98899Y-27671D01*
X98871Y-27657D01*
X98857Y-27642D01*
X98842Y-27614D01*
X98842Y-27528D01*
X98857Y-27500D01*
X98871Y-27485D01*
X98899Y-27471D01*
X98957Y-27471D01*
X98985Y-27485D01*
X99228Y-27657D02*
X99199Y-27671D01*
X99142Y-27671D01*
X99114Y-27657D01*
X99099Y-27628D01*
X99099Y-27514D01*
X99114Y-27485D01*
X99142Y-27471D01*
X99199Y-27471D01*
X99228Y-27485D01*
X99242Y-27514D01*
X99242Y-27542D01*
X99099Y-27571D01*
G54D16*
X88890Y-27623D02*
X88890Y-26823D01*
X89195Y-26823D01*
X89271Y-26861D01*
X89309Y-26900D01*
X89347Y-26976D01*
X89347Y-27090D01*
X89309Y-27166D01*
X89271Y-27204D01*
X89195Y-27242D01*
X88890Y-27242D01*
X89614Y-26823D02*
X90147Y-27623D01*
X90147Y-26823D02*
X89614Y-27623D01*
X91519Y-27623D02*
X91252Y-27242D01*
X91061Y-27623D02*
X91061Y-26823D01*
X91366Y-26823D01*
X91442Y-26861D01*
X91480Y-26900D01*
X91519Y-26976D01*
X91519Y-27090D01*
X91480Y-27166D01*
X91442Y-27204D01*
X91366Y-27242D01*
X91061Y-27242D01*
X92166Y-27585D02*
X92090Y-27623D01*
X91938Y-27623D01*
X91861Y-27585D01*
X91823Y-27509D01*
X91823Y-27204D01*
X91861Y-27128D01*
X91938Y-27090D01*
X92090Y-27090D01*
X92166Y-27128D01*
X92204Y-27204D01*
X92204Y-27280D01*
X91823Y-27357D01*
X92433Y-27090D02*
X92738Y-27090D01*
X92547Y-27623D02*
X92547Y-26938D01*
X92585Y-26861D01*
X92661Y-26823D01*
X92738Y-26823D01*
G54D13*
X77060Y-28879D02*
X77020Y-28893D01*
X76979Y-28933D01*
X76952Y-28987D01*
X76952Y-29041D01*
X76966Y-29081D01*
X77006Y-29148D01*
X77047Y-29189D01*
X77114Y-29229D01*
X77154Y-29243D01*
X77208Y-29243D01*
X77262Y-29216D01*
X77289Y-29189D01*
X77316Y-29135D01*
X77316Y-29108D01*
X77222Y-29014D01*
X77168Y-29068D01*
X77464Y-29014D02*
X77181Y-28731D01*
X77626Y-28852D01*
X77343Y-28569D01*
X77760Y-28717D02*
X77478Y-28435D01*
X77545Y-28367D01*
X77599Y-28340D01*
X77653Y-28340D01*
X77693Y-28354D01*
X77760Y-28394D01*
X77801Y-28435D01*
X77841Y-28502D01*
X77855Y-28542D01*
X77855Y-28596D01*
X77828Y-28650D01*
X77760Y-28717D01*
X76329Y-29148D02*
X76168Y-29310D01*
X76249Y-29229D02*
X75966Y-28946D01*
X75979Y-29014D01*
X75979Y-29068D01*
X75966Y-29108D01*
X76303Y-28610D02*
X76168Y-28744D01*
X76289Y-28893D01*
X76289Y-28866D01*
X76303Y-28825D01*
X76370Y-28758D01*
X76410Y-28744D01*
X76437Y-28744D01*
X76478Y-28758D01*
X76545Y-28825D01*
X76558Y-28866D01*
X76558Y-28893D01*
X76545Y-28933D01*
X76478Y-29000D01*
X76437Y-29014D01*
X76410Y-29014D01*
X76397Y-28515D02*
X76774Y-28704D01*
X76585Y-28327D01*
X86314Y-36959D02*
X86619Y-36959D01*
X86752Y-36711D02*
X86885Y-37111D01*
X87019Y-36711D01*
X87114Y-36845D02*
X87323Y-36845D01*
X87114Y-37111D01*
X87323Y-37111D01*
X85164Y-28059D02*
X85469Y-28059D01*
X85316Y-28211D02*
X85316Y-27907D01*
X85602Y-27811D02*
X85735Y-28211D01*
X85869Y-27811D01*
X85964Y-27945D02*
X86173Y-27945D01*
X85964Y-28211D01*
X86173Y-28211D01*
G54D10*
X95350Y-44000D02*
X95350Y-44850D01*
X95350Y-44850D02*
X97150Y-44850D01*
X97150Y-44850D02*
X97150Y-44000D01*
X97150Y-44000D02*
G75*
G03X96250Y-43100I-900J0D01*
G74*
G01*
X96250Y-43100D02*
G75*
G03X95350Y-44000I0J-900D01*
G74*
G01*
G54D17*
X92750Y-38250D02*
X92750Y-38650D01*
X92750Y-38650D02*
X93150Y-38650D01*
X93150Y-38650D02*
X93150Y-41850D01*
X93150Y-41850D02*
X92350Y-41850D01*
X92350Y-41850D02*
X92350Y-38650D01*
X92350Y-38650D02*
X92750Y-38650D01*
X92750Y-42250D02*
X92750Y-41850D01*
X93750Y-42250D02*
X93750Y-41850D01*
X93750Y-41850D02*
X93350Y-41850D01*
X93350Y-41850D02*
X93350Y-38650D01*
X93350Y-38650D02*
X94150Y-38650D01*
X94150Y-38650D02*
X94150Y-41850D01*
X94150Y-41850D02*
X93750Y-41850D01*
X93750Y-38250D02*
X93750Y-38650D01*
X83000Y-38000D02*
X83400Y-38000D01*
X83400Y-38000D02*
X83400Y-37600D01*
X83400Y-37600D02*
X86600Y-37600D01*
X86600Y-37600D02*
X86600Y-38400D01*
X86600Y-38400D02*
X83400Y-38400D01*
X83400Y-38400D02*
X83400Y-38000D01*
X87000Y-38000D02*
X86600Y-38000D01*
X91000Y-30500D02*
X91000Y-30900D01*
X91000Y-30900D02*
X91400Y-30900D01*
X91400Y-30900D02*
X91400Y-34100D01*
X91400Y-34100D02*
X90600Y-34100D01*
X90600Y-34100D02*
X90600Y-30900D01*
X90600Y-30900D02*
X91000Y-30900D01*
X91000Y-34500D02*
X91000Y-34100D01*
X88500Y-43750D02*
X88100Y-43750D01*
X88100Y-43750D02*
X88100Y-44150D01*
X88100Y-44150D02*
X84900Y-44150D01*
X84900Y-44150D02*
X84900Y-43350D01*
X84900Y-43350D02*
X88100Y-43350D01*
X88100Y-43350D02*
X88100Y-43750D01*
X84500Y-43750D02*
X84900Y-43750D01*
X90700Y-40250D02*
G75*
G03X91000Y-40550I300J0D01*
G74*
G01*
X91000Y-39950D02*
G75*
G03X90700Y-40250I0J-300D01*
G74*
G01*
X91000Y-41250D02*
X87000Y-41250D01*
X87000Y-41250D02*
X87000Y-39250D01*
X87000Y-39250D02*
X91000Y-39250D01*
X91000Y-39250D02*
X91000Y-41250D01*
X103000Y-28250D02*
G75*
G03X103000Y-28250I-1750J0D01*
G74*
G01*
X97250Y-40250D02*
X97250Y-41250D01*
X94250Y-40250D02*
X94250Y-41250D01*
X97250Y-41250D02*
X94250Y-41250D01*
X94250Y-40250D02*
X97250Y-40250D01*
X89000Y-37000D02*
X89000Y-36000D01*
X92000Y-37000D02*
X92000Y-36000D01*
X89000Y-36000D02*
X92000Y-36000D01*
X92000Y-37000D02*
X89000Y-37000D01*
X84750Y-38750D02*
X85750Y-38750D01*
X84750Y-41750D02*
X85750Y-41750D01*
X85750Y-38750D02*
X85750Y-41750D01*
X84750Y-41750D02*
X84750Y-38750D01*
X85750Y-38750D02*
X86750Y-38750D01*
X85750Y-41750D02*
X86750Y-41750D01*
X86750Y-38750D02*
X86750Y-41750D01*
X85750Y-41750D02*
X85750Y-38750D01*
X91000Y-42250D02*
X91000Y-43250D01*
X88000Y-42250D02*
X88000Y-43250D01*
X91000Y-43250D02*
X88000Y-43250D01*
X88000Y-42250D02*
X91000Y-42250D01*
X84664Y-36707D02*
X83957Y-37414D01*
X82542Y-34585D02*
X81835Y-35292D01*
X83957Y-37414D02*
X81835Y-35292D01*
X82542Y-34585D02*
X84664Y-36707D01*
X82250Y-34000D02*
X81250Y-34000D01*
X82250Y-31000D02*
X81250Y-31000D01*
X81250Y-34000D02*
X81250Y-31000D01*
X82250Y-31000D02*
X82250Y-34000D01*
X94250Y-40250D02*
X94250Y-39250D01*
X97250Y-40250D02*
X97250Y-39250D01*
X94250Y-39250D02*
X97250Y-39250D01*
X97250Y-40250D02*
X94250Y-40250D01*
X88000Y-38250D02*
X88000Y-37250D01*
X91000Y-38250D02*
X91000Y-37250D01*
X88000Y-37250D02*
X91000Y-37250D01*
X91000Y-38250D02*
X88000Y-38250D01*
X85000Y-43250D02*
X85000Y-42250D01*
X88000Y-43250D02*
X88000Y-42250D01*
X85000Y-42250D02*
X88000Y-42250D01*
X88000Y-43250D02*
X85000Y-43250D01*
X75750Y-43000D02*
G75*
G03X75750Y-43000I-1750J0D01*
G74*
G01*
G54D12*
X96350Y-34500D02*
G75*
G03X96350Y-34500I-100J0D01*
G74*
G01*
X94550Y-35700D02*
X94550Y-34300D01*
X96450Y-35700D02*
X96450Y-34300D01*
X96450Y-34300D02*
X94550Y-34300D01*
X96450Y-35700D02*
X94550Y-35700D01*
G54D17*
X90250Y-29500D02*
X90650Y-29500D01*
X90650Y-29500D02*
X90650Y-29100D01*
X90650Y-29100D02*
X93850Y-29100D01*
X93850Y-29100D02*
X93850Y-29900D01*
X93850Y-29900D02*
X90650Y-29900D01*
X90650Y-29900D02*
X90650Y-29500D01*
X94250Y-29500D02*
X93850Y-29500D01*
X92000Y-30500D02*
X92000Y-30900D01*
X92000Y-30900D02*
X92400Y-30900D01*
X92400Y-30900D02*
X92400Y-34100D01*
X92400Y-34100D02*
X91600Y-34100D01*
X91600Y-34100D02*
X91600Y-30900D01*
X91600Y-30900D02*
X92000Y-30900D01*
X92000Y-34500D02*
X92000Y-34100D01*
X93000Y-31250D02*
X93000Y-31650D01*
X93000Y-31650D02*
X93400Y-31650D01*
X93400Y-31650D02*
X93400Y-34850D01*
X93400Y-34850D02*
X92600Y-34850D01*
X92600Y-34850D02*
X92600Y-31650D01*
X92600Y-31650D02*
X93000Y-31650D01*
X93000Y-35250D02*
X93000Y-34850D01*
X96750Y-31250D02*
X96750Y-32250D01*
X93750Y-31250D02*
X93750Y-32250D01*
X96750Y-32250D02*
X93750Y-32250D01*
X93750Y-31250D02*
X96750Y-31250D01*
X93750Y-33250D02*
X93750Y-32250D01*
X96750Y-33250D02*
X96750Y-32250D01*
X93750Y-32250D02*
X96750Y-32250D01*
X96750Y-33250D02*
X93750Y-33250D01*
X94000Y-37750D02*
X94000Y-36750D01*
X97000Y-37750D02*
X97000Y-36750D01*
X94000Y-36750D02*
X97000Y-36750D01*
X97000Y-37750D02*
X94000Y-37750D01*
X87600Y-32500D02*
G75*
G03X87600Y-32500I-1850J0D01*
G74*
G01*
X87058Y-34161D02*
X86881Y-33984D01*
X87411Y-33808D02*
X87234Y-33631D01*
X87411Y-33808D02*
X87058Y-34161D01*
X89000Y-36000D02*
X89000Y-35000D01*
X92000Y-36000D02*
X92000Y-35000D01*
X89000Y-35000D02*
X92000Y-35000D01*
X92000Y-36000D02*
X89000Y-36000D01*
X75750Y-28250D02*
G75*
G03X75750Y-28250I-1750J0D01*
G74*
G01*
X103000Y-43000D02*
G75*
G03X103000Y-43000I-1750J0D01*
G74*
G01*
X79750Y-27000D02*
X79350Y-27000D01*
X79350Y-27000D02*
X79350Y-27400D01*
X79350Y-27400D02*
X76150Y-27400D01*
X76150Y-27400D02*
X76150Y-26600D01*
X76150Y-26600D02*
X79350Y-26600D01*
X79350Y-26600D02*
X79350Y-27000D01*
X75750Y-27000D02*
X76150Y-27000D01*
X76250Y-27750D02*
X76650Y-27750D01*
X76650Y-27750D02*
X76650Y-27350D01*
X76650Y-27350D02*
X79850Y-27350D01*
X79850Y-27350D02*
X79850Y-28150D01*
X79850Y-28150D02*
X76650Y-28150D01*
X76650Y-28150D02*
X76650Y-27750D01*
X80250Y-27750D02*
X79850Y-27750D01*
X98818Y-41141D02*
X98818Y-32480D01*
X98818Y-32480D02*
X101574Y-32480D01*
X101574Y-32480D02*
X101574Y-41141D01*
X101574Y-41141D02*
X98818Y-41141D01*
X97834Y-40748D02*
X97834Y-32874D01*
X97834Y-32874D02*
X102559Y-32874D01*
X102559Y-32874D02*
X102559Y-40748D01*
X102559Y-40748D02*
X97834Y-40748D01*
X83750Y-26500D02*
X80750Y-26500D01*
X83750Y-29500D02*
X80750Y-29500D01*
X80750Y-29500D02*
X80750Y-26500D01*
X83750Y-26500D02*
X83750Y-29500D01*
X94350Y-44000D02*
X94750Y-44000D01*
X92150Y-44000D02*
X91750Y-44000D01*
X94350Y-43600D02*
X92150Y-43600D01*
X92150Y-44400D02*
X94350Y-44400D01*
X92400Y-44400D02*
X92400Y-43600D01*
X92150Y-44000D02*
X92150Y-44400D01*
X94350Y-44400D02*
X94350Y-44000D01*
X94350Y-44000D02*
X94350Y-43600D01*
X92150Y-43600D02*
X92150Y-44000D01*
X90000Y-31400D02*
X90000Y-31000D01*
X90000Y-33600D02*
X90000Y-34000D01*
X89600Y-31400D02*
X89600Y-33600D01*
X90400Y-33600D02*
X90400Y-31400D01*
X90400Y-33350D02*
X89600Y-33350D01*
X90000Y-33600D02*
X90400Y-33600D01*
X90400Y-31400D02*
X90000Y-31400D01*
X90000Y-31400D02*
X89600Y-31400D01*
X89600Y-33600D02*
X90000Y-33600D01*
X91750Y-41350D02*
X91750Y-41750D01*
X91750Y-39150D02*
X91750Y-38750D01*
X92150Y-41350D02*
X92150Y-39150D01*
X91350Y-39150D02*
X91350Y-41350D01*
X91350Y-39400D02*
X92150Y-39400D01*
X91750Y-39150D02*
X91350Y-39150D01*
X91350Y-41350D02*
X91750Y-41350D01*
X91750Y-41350D02*
X92150Y-41350D01*
X92150Y-39150D02*
X91750Y-39150D01*
X73000Y-36250D02*
X73000Y-37000D01*
X73000Y-39500D02*
X73000Y-40250D01*
X73400Y-39250D02*
X72600Y-39250D01*
X72600Y-37000D02*
X72600Y-39500D01*
X73400Y-37000D02*
X72600Y-37000D01*
X73400Y-39500D02*
X72600Y-39500D01*
X73400Y-37000D02*
X73400Y-39500D01*
X74622Y-39080D02*
X74622Y-30419D01*
X74622Y-30419D02*
X77377Y-30419D01*
X77377Y-30419D02*
X77377Y-39080D01*
X77377Y-39080D02*
X74622Y-39080D01*
X73637Y-38687D02*
X73637Y-30812D01*
X73637Y-30812D02*
X78362Y-30812D01*
X78362Y-30812D02*
X78362Y-38687D01*
X78362Y-38687D02*
X73637Y-38687D01*
X96128Y-30250D02*
X98250Y-32371D01*
X98250Y-28128D02*
X100371Y-30250D01*
X100371Y-30250D02*
X98250Y-32371D01*
X96128Y-30250D02*
X98250Y-28128D01*
X83500Y-39750D02*
X83500Y-41750D01*
X83500Y-41750D02*
X82500Y-41750D01*
X82500Y-41750D02*
X82500Y-39750D01*
X82500Y-39750D02*
X83500Y-39750D01*
X84500Y-40750D02*
X84500Y-42750D01*
X84500Y-42750D02*
X83500Y-42750D01*
X83500Y-42750D02*
X83500Y-40750D01*
X83500Y-40750D02*
X84500Y-40750D01*
X83500Y-41750D02*
X83500Y-43750D01*
X83500Y-43750D02*
X82500Y-43750D01*
X82500Y-43750D02*
X82500Y-41750D01*
X82500Y-41750D02*
X83500Y-41750D01*
X76500Y-42250D02*
X76500Y-40250D01*
X76500Y-40250D02*
X77500Y-40250D01*
X77500Y-40250D02*
X77500Y-42250D01*
X77500Y-42250D02*
X76500Y-42250D01*
X77500Y-43250D02*
X77500Y-41250D01*
X77500Y-41250D02*
X78500Y-41250D01*
X78500Y-41250D02*
X78500Y-43250D01*
X78500Y-43250D02*
X77500Y-43250D01*
X76500Y-44250D02*
X76500Y-42250D01*
X76500Y-42250D02*
X77500Y-42250D01*
X77500Y-42250D02*
X77500Y-44250D01*
X77500Y-44250D02*
X76500Y-44250D01*
X77500Y-41250D02*
X77500Y-39250D01*
X77500Y-39250D02*
X78500Y-39250D01*
X78500Y-39250D02*
X78500Y-41250D01*
X78500Y-41250D02*
X77500Y-41250D01*
X79500Y-36500D02*
X79500Y-44500D01*
X81500Y-36500D02*
X81500Y-44500D01*
X80500Y-36800D02*
G75*
G03X80800Y-36500I0J300D01*
G74*
G01*
X80200Y-36500D02*
G75*
G03X80500Y-36800I300J0D01*
G74*
G01*
X81500Y-44500D02*
X79500Y-44500D01*
X79500Y-36500D02*
X81500Y-36500D01*
X79750Y-31000D02*
X79750Y-31500D01*
X79750Y-29750D02*
X79750Y-31000D01*
X79750Y-28750D02*
X79750Y-29750D01*
X79750Y-34750D02*
X79750Y-35750D01*
X79750Y-33000D02*
X79750Y-34750D01*
X79250Y-33750D02*
X79250Y-30500D01*
X80250Y-30500D02*
X80250Y-33750D01*
X78850Y-33500D02*
X78850Y-31000D01*
X80650Y-31000D02*
X80650Y-33500D01*
X79750Y-34400D02*
G75*
G03X80650Y-33500I0J900D01*
G74*
G01*
X78850Y-33500D02*
G75*
G03X79750Y-34400I900J0D01*
G74*
G01*
X79750Y-30100D02*
G75*
G03X78850Y-31000I0J-900D01*
G74*
G01*
X80650Y-31000D02*
G75*
G03X79750Y-30100I-900J0D01*
G74*
G01*
X79750Y-34400D02*
G75*
G03X80650Y-33500I0J900D01*
G74*
G01*
X80250Y-33750D02*
X79250Y-33750D01*
X79250Y-30500D02*
X80250Y-30500D01*
G54D18*
G36*
X74523Y-40957D02*
X74531Y-40953D01*
X74550Y-40941D01*
X74576Y-40924D01*
X74607Y-40903D01*
X74638Y-40882D01*
X74664Y-40865D01*
X74682Y-40853D01*
X74689Y-40849D01*
X74693Y-40850D01*
X74708Y-40858D01*
X74730Y-40869D01*
X74742Y-40875D01*
X74762Y-40884D01*
X74772Y-40886D01*
X74773Y-40883D01*
X74781Y-40868D01*
X74792Y-40842D01*
X74807Y-40808D01*
X74824Y-40768D01*
X74842Y-40725D01*
X74860Y-40681D01*
X74878Y-40639D01*
X74893Y-40601D01*
X74906Y-40571D01*
X74914Y-40549D01*
X74917Y-40540D01*
X74916Y-40538D01*
X74906Y-40529D01*
X74889Y-40516D01*
X74851Y-40485D01*
X74815Y-40439D01*
X74792Y-40387D01*
X74785Y-40329D01*
X74791Y-40276D01*
X74812Y-40225D01*
X74848Y-40178D01*
X74892Y-40144D01*
X74943Y-40122D01*
X75000Y-40115D01*
X75055Y-40121D01*
X75107Y-40142D01*
X75154Y-40177D01*
X75173Y-40200D01*
X75200Y-40247D01*
X75216Y-40297D01*
X75217Y-40309D01*
X75215Y-40365D01*
X75199Y-40418D01*
X75170Y-40465D01*
X75129Y-40504D01*
X75124Y-40508D01*
X75105Y-40522D01*
X75093Y-40531D01*
X75083Y-40539D01*
X75153Y-40709D01*
X75164Y-40736D01*
X75184Y-40782D01*
X75201Y-40822D01*
X75214Y-40854D01*
X75224Y-40875D01*
X75228Y-40884D01*
X75228Y-40884D01*
X75234Y-40885D01*
X75247Y-40880D01*
X75271Y-40869D01*
X75287Y-40861D01*
X75305Y-40852D01*
X75313Y-40849D01*
X75320Y-40853D01*
X75337Y-40864D01*
X75362Y-40881D01*
X75392Y-40901D01*
X75421Y-40921D01*
X75448Y-40939D01*
X75467Y-40951D01*
X75477Y-40956D01*
X75478Y-40956D01*
X75486Y-40951D01*
X75502Y-40939D01*
X75525Y-40917D01*
X75557Y-40885D01*
X75562Y-40880D01*
X75589Y-40852D01*
X75611Y-40829D01*
X75626Y-40813D01*
X75631Y-40806D01*
X75631Y-40806D01*
X75626Y-40796D01*
X75614Y-40777D01*
X75596Y-40750D01*
X75575Y-40719D01*
X75519Y-40637D01*
X75550Y-40560D01*
X75559Y-40537D01*
X75571Y-40508D01*
X75580Y-40488D01*
X75585Y-40479D01*
X75593Y-40476D01*
X75614Y-40471D01*
X75645Y-40464D01*
X75681Y-40458D01*
X75716Y-40451D01*
X75747Y-40445D01*
X75770Y-40441D01*
X75780Y-40439D01*
X75782Y-40437D01*
X75784Y-40432D01*
X75786Y-40422D01*
X75786Y-40403D01*
X75787Y-40373D01*
X75787Y-40329D01*
X75787Y-40325D01*
X75786Y-40283D01*
X75786Y-40250D01*
X75785Y-40229D01*
X75783Y-40221D01*
X75783Y-40221D01*
X75773Y-40218D01*
X75751Y-40214D01*
X75720Y-40207D01*
X75682Y-40200D01*
X75680Y-40200D01*
X75643Y-40193D01*
X75612Y-40186D01*
X75590Y-40181D01*
X75581Y-40178D01*
X75579Y-40176D01*
X75571Y-40161D01*
X75560Y-40138D01*
X75548Y-40110D01*
X75536Y-40081D01*
X75525Y-40054D01*
X75518Y-40035D01*
X75516Y-40026D01*
X75516Y-40026D01*
X75522Y-40017D01*
X75535Y-39997D01*
X75553Y-39971D01*
X75575Y-39939D01*
X75576Y-39936D01*
X75598Y-39905D01*
X75615Y-39878D01*
X75627Y-39859D01*
X75631Y-39851D01*
X75631Y-39850D01*
X75624Y-39841D01*
X75608Y-39823D01*
X75585Y-39799D01*
X75557Y-39771D01*
X75548Y-39763D01*
X75518Y-39733D01*
X75497Y-39713D01*
X75483Y-39703D01*
X75477Y-39700D01*
X75477Y-39701D01*
X75467Y-39706D01*
X75447Y-39719D01*
X75420Y-39738D01*
X75388Y-39759D01*
X75386Y-39761D01*
X75355Y-39782D01*
X75329Y-39800D01*
X75310Y-39812D01*
X75302Y-39817D01*
X75300Y-39817D01*
X75288Y-39813D01*
X75265Y-39806D01*
X75238Y-39795D01*
X75209Y-39783D01*
X75182Y-39772D01*
X75162Y-39763D01*
X75153Y-39758D01*
X75153Y-39757D01*
X75149Y-39746D01*
X75144Y-39722D01*
X75137Y-39690D01*
X75130Y-39651D01*
X75129Y-39645D01*
X75122Y-39608D01*
X75116Y-39577D01*
X75111Y-39555D01*
X75109Y-39546D01*
X75104Y-39545D01*
X75085Y-39544D01*
X75057Y-39543D01*
X75023Y-39543D01*
X74988Y-39543D01*
X74954Y-39544D01*
X74924Y-39545D01*
X74903Y-39546D01*
X74894Y-39548D01*
X74893Y-39549D01*
X74890Y-39560D01*
X74885Y-39584D01*
X74878Y-39616D01*
X74871Y-39655D01*
X74870Y-39662D01*
X74863Y-39699D01*
X74856Y-39730D01*
X74852Y-39751D01*
X74849Y-39759D01*
X74846Y-39761D01*
X74831Y-39768D01*
X74806Y-39778D01*
X74774Y-39791D01*
X74702Y-39820D01*
X74614Y-39759D01*
X74606Y-39754D01*
X74574Y-39732D01*
X74548Y-39715D01*
X74530Y-39703D01*
X74522Y-39699D01*
X74522Y-39699D01*
X74513Y-39707D01*
X74495Y-39723D01*
X74471Y-39747D01*
X74444Y-39774D01*
X74423Y-39795D01*
X74399Y-39820D01*
X74383Y-39836D01*
X74375Y-39847D01*
X74372Y-39854D01*
X74373Y-39858D01*
X74378Y-39867D01*
X74391Y-39886D01*
X74409Y-39913D01*
X74431Y-39944D01*
X74449Y-39971D01*
X74468Y-40000D01*
X74480Y-40021D01*
X74485Y-40032D01*
X74484Y-40036D01*
X74477Y-40053D01*
X74467Y-40080D01*
X74454Y-40111D01*
X74423Y-40181D01*
X74377Y-40189D01*
X74349Y-40195D01*
X74310Y-40202D01*
X74273Y-40209D01*
X74215Y-40221D01*
X74213Y-40433D01*
X74222Y-40437D01*
X74231Y-40440D01*
X74252Y-40444D01*
X74283Y-40450D01*
X74319Y-40457D01*
X74350Y-40463D01*
X74381Y-40469D01*
X74403Y-40473D01*
X74413Y-40475D01*
X74416Y-40479D01*
X74424Y-40494D01*
X74435Y-40518D01*
X74447Y-40547D01*
X74459Y-40576D01*
X74470Y-40604D01*
X74478Y-40625D01*
X74481Y-40636D01*
X74477Y-40644D01*
X74465Y-40662D01*
X74448Y-40688D01*
X74427Y-40719D01*
X74405Y-40750D01*
X74388Y-40777D01*
X74375Y-40796D01*
X74370Y-40804D01*
X74373Y-40810D01*
X74385Y-40825D01*
X74408Y-40849D01*
X74443Y-40884D01*
X74449Y-40889D01*
X74476Y-40916D01*
X74500Y-40937D01*
X74516Y-40952D01*
X74523Y-40957D01*
X74523Y-40957D01*
G37*
G54D11*
X97571Y-44000D02*
X97542Y-43985D01*
X97514Y-43957D01*
X97471Y-43914D01*
X97442Y-43900D01*
X97414Y-43900D01*
X97428Y-43971D02*
X97400Y-43957D01*
X97371Y-43928D01*
X97357Y-43871D01*
X97357Y-43771D01*
X97371Y-43714D01*
X97400Y-43685D01*
X97428Y-43671D01*
X97485Y-43671D01*
X97514Y-43685D01*
X97542Y-43714D01*
X97557Y-43771D01*
X97557Y-43871D01*
X97542Y-43928D01*
X97514Y-43957D01*
X97485Y-43971D01*
X97428Y-43971D01*
X97842Y-43971D02*
X97671Y-43971D01*
X97757Y-43971D02*
X97757Y-43671D01*
X97728Y-43714D01*
X97700Y-43742D01*
X97671Y-43757D01*
G54D12*
X97371Y-44275D02*
X97383Y-44263D01*
X97407Y-44251D01*
X97466Y-44251D01*
X97490Y-44263D01*
X97502Y-44275D01*
X97514Y-44298D01*
X97514Y-44322D01*
X97502Y-44358D01*
X97359Y-44501D01*
X97514Y-44501D01*
X97621Y-44501D02*
X97621Y-44251D01*
X97764Y-44501D01*
X97764Y-44251D01*
X97859Y-44251D02*
X98014Y-44251D01*
X97930Y-44346D01*
X97966Y-44346D01*
X97990Y-44358D01*
X98002Y-44370D01*
X98014Y-44394D01*
X98014Y-44453D01*
X98002Y-44477D01*
X97990Y-44489D01*
X97966Y-44501D01*
X97895Y-44501D01*
X97871Y-44489D01*
X97859Y-44477D01*
X98133Y-44501D02*
X98180Y-44501D01*
X98204Y-44489D01*
X98216Y-44477D01*
X98240Y-44441D01*
X98252Y-44394D01*
X98252Y-44298D01*
X98240Y-44275D01*
X98228Y-44263D01*
X98204Y-44251D01*
X98157Y-44251D01*
X98133Y-44263D01*
X98121Y-44275D01*
X98109Y-44298D01*
X98109Y-44358D01*
X98121Y-44382D01*
X98133Y-44394D01*
X98157Y-44405D01*
X98204Y-44405D01*
X98228Y-44394D01*
X98240Y-44382D01*
X98252Y-44358D01*
X98407Y-44251D02*
X98430Y-44251D01*
X98454Y-44263D01*
X98466Y-44275D01*
X98478Y-44298D01*
X98490Y-44346D01*
X98490Y-44405D01*
X98478Y-44453D01*
X98466Y-44477D01*
X98454Y-44489D01*
X98430Y-44501D01*
X98407Y-44501D01*
X98383Y-44489D01*
X98371Y-44477D01*
X98359Y-44453D01*
X98347Y-44405D01*
X98347Y-44346D01*
X98359Y-44298D01*
X98371Y-44275D01*
X98383Y-44263D01*
X98407Y-44251D01*
X98704Y-44334D02*
X98704Y-44501D01*
X98645Y-44239D02*
X98585Y-44417D01*
X98740Y-44417D01*
X95696Y-43620D02*
X95779Y-43620D01*
X95815Y-43751D02*
X95696Y-43751D01*
X95696Y-43501D01*
X95815Y-43501D01*
X96267Y-44270D02*
X96303Y-44282D01*
X96315Y-44294D01*
X96327Y-44317D01*
X96327Y-44353D01*
X96315Y-44377D01*
X96303Y-44389D01*
X96279Y-44401D01*
X96184Y-44401D01*
X96184Y-44151D01*
X96267Y-44151D01*
X96291Y-44163D01*
X96303Y-44175D01*
X96315Y-44198D01*
X96315Y-44222D01*
X96303Y-44246D01*
X96291Y-44258D01*
X96267Y-44270D01*
X96184Y-44270D01*
X96827Y-43727D02*
X96815Y-43739D01*
X96779Y-43751D01*
X96755Y-43751D01*
X96720Y-43739D01*
X96696Y-43715D01*
X96684Y-43691D01*
X96672Y-43644D01*
X96672Y-43608D01*
X96684Y-43560D01*
X96696Y-43536D01*
X96720Y-43513D01*
X96755Y-43501D01*
X96779Y-43501D01*
X96815Y-43513D01*
X96827Y-43525D01*
G54D11*
X92871Y-41100D02*
X92728Y-41200D01*
X92871Y-41271D02*
X92571Y-41271D01*
X92571Y-41157D01*
X92585Y-41128D01*
X92600Y-41114D01*
X92628Y-41100D01*
X92671Y-41100D01*
X92700Y-41114D01*
X92714Y-41128D01*
X92728Y-41157D01*
X92728Y-41271D01*
X92700Y-40928D02*
X92685Y-40957D01*
X92671Y-40971D01*
X92642Y-40985D01*
X92628Y-40985D01*
X92600Y-40971D01*
X92585Y-40957D01*
X92571Y-40928D01*
X92571Y-40871D01*
X92585Y-40842D01*
X92600Y-40828D01*
X92628Y-40814D01*
X92642Y-40814D01*
X92671Y-40828D01*
X92685Y-40842D01*
X92700Y-40871D01*
X92700Y-40928D01*
X92714Y-40957D01*
X92728Y-40971D01*
X92757Y-40985D01*
X92814Y-40985D01*
X92842Y-40971D01*
X92857Y-40957D01*
X92871Y-40928D01*
X92871Y-40871D01*
X92857Y-40842D01*
X92842Y-40828D01*
X92814Y-40814D01*
X92757Y-40814D01*
X92728Y-40828D01*
X92714Y-40842D01*
X92700Y-40871D01*
X92871Y-39485D02*
X92871Y-39657D01*
X92871Y-39571D02*
X92571Y-39571D01*
X92614Y-39599D01*
X92642Y-39628D01*
X92657Y-39657D01*
X92871Y-39357D02*
X92571Y-39357D01*
X92757Y-39328D02*
X92871Y-39242D01*
X92671Y-39242D02*
X92785Y-39357D01*
X93871Y-41100D02*
X93728Y-41200D01*
X93871Y-41271D02*
X93571Y-41271D01*
X93571Y-41157D01*
X93585Y-41128D01*
X93600Y-41114D01*
X93628Y-41100D01*
X93671Y-41100D01*
X93700Y-41114D01*
X93714Y-41128D01*
X93728Y-41157D01*
X93728Y-41271D01*
X93571Y-41000D02*
X93571Y-40800D01*
X93871Y-40928D01*
X93871Y-39535D02*
X93871Y-39707D01*
X93871Y-39621D02*
X93571Y-39621D01*
X93614Y-39649D01*
X93642Y-39678D01*
X93657Y-39707D01*
X93871Y-39407D02*
X93571Y-39407D01*
X93785Y-39307D01*
X93571Y-39207D01*
X93871Y-39207D01*
X84150Y-38121D02*
X84050Y-37978D01*
X83978Y-38121D02*
X83978Y-37821D01*
X84092Y-37821D01*
X84121Y-37835D01*
X84135Y-37850D01*
X84150Y-37878D01*
X84150Y-37921D01*
X84135Y-37950D01*
X84121Y-37964D01*
X84092Y-37978D01*
X83978Y-37978D01*
X84407Y-37821D02*
X84350Y-37821D01*
X84321Y-37835D01*
X84307Y-37850D01*
X84278Y-37892D01*
X84264Y-37950D01*
X84264Y-38064D01*
X84278Y-38092D01*
X84292Y-38107D01*
X84321Y-38121D01*
X84378Y-38121D01*
X84407Y-38107D01*
X84421Y-38092D01*
X84435Y-38064D01*
X84435Y-37992D01*
X84421Y-37964D01*
X84407Y-37950D01*
X84378Y-37935D01*
X84321Y-37935D01*
X84292Y-37950D01*
X84278Y-37964D01*
X84264Y-37992D01*
X85621Y-38121D02*
X85450Y-38121D01*
X85535Y-38121D02*
X85535Y-37821D01*
X85507Y-37864D01*
X85478Y-37892D01*
X85450Y-37907D01*
X85807Y-37821D02*
X85835Y-37821D01*
X85864Y-37835D01*
X85878Y-37850D01*
X85892Y-37878D01*
X85907Y-37935D01*
X85907Y-38007D01*
X85892Y-38064D01*
X85878Y-38092D01*
X85864Y-38107D01*
X85835Y-38121D01*
X85807Y-38121D01*
X85778Y-38107D01*
X85764Y-38092D01*
X85750Y-38064D01*
X85735Y-38007D01*
X85735Y-37935D01*
X85750Y-37878D01*
X85764Y-37850D01*
X85778Y-37835D01*
X85807Y-37821D01*
X86035Y-38121D02*
X86035Y-37821D01*
X86064Y-38007D02*
X86150Y-38121D01*
X86150Y-37921D02*
X86035Y-38035D01*
X91121Y-31750D02*
X90978Y-31850D01*
X91121Y-31921D02*
X90821Y-31921D01*
X90821Y-31807D01*
X90835Y-31778D01*
X90850Y-31764D01*
X90878Y-31750D01*
X90921Y-31750D01*
X90950Y-31764D01*
X90964Y-31778D01*
X90978Y-31807D01*
X90978Y-31921D01*
X91121Y-31607D02*
X91121Y-31550D01*
X91107Y-31521D01*
X91092Y-31507D01*
X91050Y-31478D01*
X90992Y-31464D01*
X90878Y-31464D01*
X90850Y-31478D01*
X90835Y-31492D01*
X90821Y-31521D01*
X90821Y-31578D01*
X90835Y-31607D01*
X90850Y-31621D01*
X90878Y-31635D01*
X90950Y-31635D01*
X90978Y-31621D01*
X90992Y-31607D01*
X91007Y-31578D01*
X91007Y-31521D01*
X90992Y-31492D01*
X90978Y-31478D01*
X90950Y-31464D01*
X90921Y-33649D02*
X91121Y-33649D01*
X90807Y-33721D02*
X91021Y-33792D01*
X91021Y-33607D01*
X90821Y-33435D02*
X90821Y-33407D01*
X90835Y-33378D01*
X90850Y-33364D01*
X90878Y-33349D01*
X90935Y-33335D01*
X91007Y-33335D01*
X91064Y-33349D01*
X91092Y-33364D01*
X91107Y-33378D01*
X91121Y-33407D01*
X91121Y-33435D01*
X91107Y-33464D01*
X91092Y-33478D01*
X91064Y-33492D01*
X91007Y-33507D01*
X90935Y-33507D01*
X90878Y-33492D01*
X90850Y-33478D01*
X90835Y-33464D01*
X90821Y-33435D01*
X90821Y-33150D02*
X90821Y-33121D01*
X90835Y-33092D01*
X90850Y-33078D01*
X90878Y-33064D01*
X90935Y-33050D01*
X91007Y-33050D01*
X91064Y-33064D01*
X91092Y-33078D01*
X91107Y-33092D01*
X91121Y-33121D01*
X91121Y-33150D01*
X91107Y-33178D01*
X91092Y-33192D01*
X91064Y-33207D01*
X91007Y-33221D01*
X90935Y-33221D01*
X90878Y-33207D01*
X90850Y-33192D01*
X90835Y-33178D01*
X90821Y-33150D01*
X91121Y-32921D02*
X90821Y-32921D01*
X91007Y-32892D02*
X91121Y-32807D01*
X90921Y-32807D02*
X91035Y-32921D01*
X87107Y-43871D02*
X87007Y-43728D01*
X86935Y-43871D02*
X86935Y-43571D01*
X87050Y-43571D01*
X87078Y-43585D01*
X87092Y-43600D01*
X87107Y-43628D01*
X87107Y-43671D01*
X87092Y-43700D01*
X87078Y-43714D01*
X87050Y-43728D01*
X86935Y-43728D01*
X87392Y-43871D02*
X87221Y-43871D01*
X87307Y-43871D02*
X87307Y-43571D01*
X87278Y-43614D01*
X87250Y-43642D01*
X87221Y-43657D01*
X87535Y-43871D02*
X87592Y-43871D01*
X87621Y-43857D01*
X87635Y-43842D01*
X87664Y-43800D01*
X87678Y-43742D01*
X87678Y-43628D01*
X87664Y-43600D01*
X87650Y-43585D01*
X87621Y-43571D01*
X87564Y-43571D01*
X87535Y-43585D01*
X87521Y-43600D01*
X87507Y-43628D01*
X87507Y-43700D01*
X87521Y-43728D01*
X87535Y-43742D01*
X87564Y-43757D01*
X87621Y-43757D01*
X87650Y-43742D01*
X87664Y-43728D01*
X87678Y-43700D01*
X85521Y-43871D02*
X85350Y-43871D01*
X85435Y-43871D02*
X85435Y-43571D01*
X85407Y-43614D01*
X85378Y-43642D01*
X85350Y-43657D01*
X85707Y-43571D02*
X85735Y-43571D01*
X85764Y-43585D01*
X85778Y-43600D01*
X85792Y-43628D01*
X85807Y-43685D01*
X85807Y-43757D01*
X85792Y-43814D01*
X85778Y-43842D01*
X85764Y-43857D01*
X85735Y-43871D01*
X85707Y-43871D01*
X85678Y-43857D01*
X85664Y-43842D01*
X85650Y-43814D01*
X85635Y-43757D01*
X85635Y-43685D01*
X85650Y-43628D01*
X85664Y-43600D01*
X85678Y-43585D01*
X85707Y-43571D01*
X85935Y-43871D02*
X85935Y-43571D01*
X85964Y-43757D02*
X86050Y-43871D01*
X86050Y-43671D02*
X85935Y-43785D01*
X90071Y-40478D02*
X90314Y-40478D01*
X90342Y-40464D01*
X90357Y-40450D01*
X90371Y-40421D01*
X90371Y-40364D01*
X90357Y-40335D01*
X90342Y-40321D01*
X90314Y-40307D01*
X90071Y-40307D01*
X90100Y-40178D02*
X90085Y-40164D01*
X90071Y-40135D01*
X90071Y-40064D01*
X90085Y-40035D01*
X90100Y-40021D01*
X90128Y-40007D01*
X90157Y-40007D01*
X90200Y-40021D01*
X90371Y-40192D01*
X90371Y-40007D01*
X87907Y-40371D02*
X87764Y-40371D01*
X87764Y-40071D01*
X87964Y-40071D02*
X88135Y-40071D01*
X88050Y-40371D02*
X88050Y-40071D01*
X88392Y-40371D02*
X88221Y-40371D01*
X88307Y-40371D02*
X88307Y-40071D01*
X88278Y-40114D01*
X88250Y-40142D01*
X88221Y-40157D01*
X88578Y-40071D02*
X88607Y-40071D01*
X88635Y-40085D01*
X88650Y-40100D01*
X88664Y-40128D01*
X88678Y-40185D01*
X88678Y-40257D01*
X88664Y-40314D01*
X88650Y-40342D01*
X88635Y-40357D01*
X88607Y-40371D01*
X88578Y-40371D01*
X88550Y-40357D01*
X88535Y-40342D01*
X88521Y-40314D01*
X88507Y-40257D01*
X88507Y-40185D01*
X88521Y-40128D01*
X88535Y-40100D01*
X88550Y-40085D01*
X88578Y-40071D01*
X88964Y-40371D02*
X88792Y-40371D01*
X88878Y-40371D02*
X88878Y-40071D01*
X88850Y-40114D01*
X88821Y-40142D01*
X88792Y-40157D01*
X89064Y-40071D02*
X89249Y-40071D01*
X89149Y-40185D01*
X89192Y-40185D01*
X89221Y-40200D01*
X89235Y-40214D01*
X89249Y-40242D01*
X89249Y-40314D01*
X89235Y-40342D01*
X89221Y-40357D01*
X89192Y-40371D01*
X89107Y-40371D01*
X89078Y-40357D01*
X89064Y-40342D01*
X97700Y-41342D02*
X97685Y-41357D01*
X97642Y-41371D01*
X97614Y-41371D01*
X97571Y-41357D01*
X97542Y-41328D01*
X97528Y-41300D01*
X97514Y-41242D01*
X97514Y-41200D01*
X97528Y-41142D01*
X97542Y-41114D01*
X97571Y-41085D01*
X97614Y-41071D01*
X97642Y-41071D01*
X97685Y-41085D01*
X97700Y-41100D01*
X97985Y-41371D02*
X97814Y-41371D01*
X97900Y-41371D02*
X97900Y-41071D01*
X97871Y-41114D01*
X97842Y-41142D01*
X97814Y-41157D01*
X95257Y-40571D02*
X95285Y-40571D01*
X95314Y-40585D01*
X95328Y-40600D01*
X95342Y-40628D01*
X95357Y-40685D01*
X95357Y-40757D01*
X95342Y-40814D01*
X95328Y-40842D01*
X95314Y-40857D01*
X95285Y-40871D01*
X95257Y-40871D01*
X95228Y-40857D01*
X95214Y-40842D01*
X95200Y-40814D01*
X95185Y-40757D01*
X95185Y-40685D01*
X95200Y-40628D01*
X95214Y-40600D01*
X95228Y-40585D01*
X95257Y-40571D01*
X95485Y-40842D02*
X95500Y-40857D01*
X95485Y-40871D01*
X95471Y-40857D01*
X95485Y-40842D01*
X95485Y-40871D01*
X95785Y-40871D02*
X95614Y-40871D01*
X95700Y-40871D02*
X95700Y-40571D01*
X95671Y-40614D01*
X95642Y-40642D01*
X95614Y-40657D01*
X96042Y-40671D02*
X96042Y-40871D01*
X95914Y-40671D02*
X95914Y-40828D01*
X95928Y-40857D01*
X95957Y-40871D01*
X96000Y-40871D01*
X96028Y-40857D01*
X96042Y-40842D01*
X96285Y-40714D02*
X96185Y-40714D01*
X96185Y-40871D02*
X96185Y-40571D01*
X96328Y-40571D01*
X88450Y-35592D02*
X88435Y-35607D01*
X88392Y-35621D01*
X88364Y-35621D01*
X88321Y-35607D01*
X88292Y-35578D01*
X88278Y-35550D01*
X88264Y-35492D01*
X88264Y-35450D01*
X88278Y-35392D01*
X88292Y-35364D01*
X88321Y-35335D01*
X88364Y-35321D01*
X88392Y-35321D01*
X88435Y-35335D01*
X88450Y-35350D01*
X88564Y-35350D02*
X88578Y-35335D01*
X88607Y-35321D01*
X88678Y-35321D01*
X88707Y-35335D01*
X88721Y-35350D01*
X88735Y-35378D01*
X88735Y-35407D01*
X88721Y-35450D01*
X88550Y-35621D01*
X88735Y-35621D01*
X90007Y-36321D02*
X90035Y-36321D01*
X90064Y-36335D01*
X90078Y-36350D01*
X90092Y-36378D01*
X90107Y-36435D01*
X90107Y-36507D01*
X90092Y-36564D01*
X90078Y-36592D01*
X90064Y-36607D01*
X90035Y-36621D01*
X90007Y-36621D01*
X89978Y-36607D01*
X89964Y-36592D01*
X89950Y-36564D01*
X89935Y-36507D01*
X89935Y-36435D01*
X89950Y-36378D01*
X89964Y-36350D01*
X89978Y-36335D01*
X90007Y-36321D01*
X90235Y-36592D02*
X90250Y-36607D01*
X90235Y-36621D01*
X90221Y-36607D01*
X90235Y-36592D01*
X90235Y-36621D01*
X90535Y-36621D02*
X90364Y-36621D01*
X90450Y-36621D02*
X90450Y-36321D01*
X90421Y-36364D01*
X90392Y-36392D01*
X90364Y-36407D01*
X90792Y-36421D02*
X90792Y-36621D01*
X90664Y-36421D02*
X90664Y-36578D01*
X90678Y-36607D01*
X90707Y-36621D01*
X90750Y-36621D01*
X90778Y-36607D01*
X90792Y-36592D01*
X91035Y-36464D02*
X90935Y-36464D01*
X90935Y-36621D02*
X90935Y-36321D01*
X91078Y-36321D01*
X85200Y-42142D02*
X85185Y-42157D01*
X85142Y-42171D01*
X85114Y-42171D01*
X85071Y-42157D01*
X85042Y-42128D01*
X85028Y-42100D01*
X85014Y-42042D01*
X85014Y-42000D01*
X85028Y-41942D01*
X85042Y-41914D01*
X85071Y-41885D01*
X85114Y-41871D01*
X85142Y-41871D01*
X85185Y-41885D01*
X85200Y-41900D01*
X85300Y-41871D02*
X85485Y-41871D01*
X85385Y-41985D01*
X85428Y-41985D01*
X85457Y-42000D01*
X85471Y-42014D01*
X85485Y-42042D01*
X85485Y-42114D01*
X85471Y-42142D01*
X85457Y-42157D01*
X85428Y-42171D01*
X85342Y-42171D01*
X85314Y-42157D01*
X85300Y-42142D01*
X85100Y-40742D02*
X85085Y-40728D01*
X85071Y-40700D01*
X85071Y-40628D01*
X85085Y-40600D01*
X85100Y-40585D01*
X85128Y-40571D01*
X85157Y-40571D01*
X85200Y-40585D01*
X85371Y-40757D01*
X85371Y-40571D01*
X85100Y-40457D02*
X85085Y-40442D01*
X85071Y-40414D01*
X85071Y-40342D01*
X85085Y-40314D01*
X85100Y-40300D01*
X85128Y-40285D01*
X85157Y-40285D01*
X85200Y-40300D01*
X85371Y-40471D01*
X85371Y-40285D01*
X85171Y-40157D02*
X85371Y-40157D01*
X85200Y-40157D02*
X85185Y-40142D01*
X85171Y-40114D01*
X85171Y-40071D01*
X85185Y-40042D01*
X85214Y-40028D01*
X85371Y-40028D01*
X85214Y-39785D02*
X85214Y-39885D01*
X85371Y-39885D02*
X85071Y-39885D01*
X85071Y-39742D01*
X86200Y-42142D02*
X86185Y-42157D01*
X86142Y-42171D01*
X86114Y-42171D01*
X86071Y-42157D01*
X86042Y-42128D01*
X86028Y-42100D01*
X86014Y-42042D01*
X86014Y-42000D01*
X86028Y-41942D01*
X86042Y-41914D01*
X86071Y-41885D01*
X86114Y-41871D01*
X86142Y-41871D01*
X86185Y-41885D01*
X86200Y-41900D01*
X86457Y-41971D02*
X86457Y-42171D01*
X86385Y-41857D02*
X86314Y-42071D01*
X86500Y-42071D01*
X86071Y-40742D02*
X86071Y-40714D01*
X86085Y-40685D01*
X86100Y-40671D01*
X86128Y-40657D01*
X86185Y-40642D01*
X86257Y-40642D01*
X86314Y-40657D01*
X86342Y-40671D01*
X86357Y-40685D01*
X86371Y-40714D01*
X86371Y-40742D01*
X86357Y-40771D01*
X86342Y-40785D01*
X86314Y-40799D01*
X86257Y-40814D01*
X86185Y-40814D01*
X86128Y-40799D01*
X86100Y-40785D01*
X86085Y-40771D01*
X86071Y-40742D01*
X86342Y-40514D02*
X86357Y-40500D01*
X86371Y-40514D01*
X86357Y-40528D01*
X86342Y-40514D01*
X86371Y-40514D01*
X86371Y-40214D02*
X86371Y-40385D01*
X86371Y-40300D02*
X86071Y-40300D01*
X86114Y-40328D01*
X86142Y-40357D01*
X86157Y-40385D01*
X86171Y-39957D02*
X86371Y-39957D01*
X86171Y-40085D02*
X86328Y-40085D01*
X86357Y-40071D01*
X86371Y-40042D01*
X86371Y-40000D01*
X86357Y-39971D01*
X86342Y-39957D01*
X86214Y-39714D02*
X86214Y-39814D01*
X86371Y-39814D02*
X86071Y-39814D01*
X86071Y-39671D01*
X91350Y-43242D02*
X91335Y-43257D01*
X91292Y-43271D01*
X91264Y-43271D01*
X91221Y-43257D01*
X91192Y-43228D01*
X91178Y-43200D01*
X91164Y-43142D01*
X91164Y-43100D01*
X91178Y-43042D01*
X91192Y-43014D01*
X91221Y-42985D01*
X91264Y-42971D01*
X91292Y-42971D01*
X91335Y-42985D01*
X91350Y-43000D01*
X91521Y-43100D02*
X91492Y-43085D01*
X91478Y-43071D01*
X91464Y-43042D01*
X91464Y-43028D01*
X91478Y-43000D01*
X91492Y-42985D01*
X91521Y-42971D01*
X91578Y-42971D01*
X91607Y-42985D01*
X91621Y-43000D01*
X91635Y-43028D01*
X91635Y-43042D01*
X91621Y-43071D01*
X91607Y-43085D01*
X91578Y-43100D01*
X91521Y-43100D01*
X91492Y-43114D01*
X91478Y-43128D01*
X91464Y-43157D01*
X91464Y-43214D01*
X91478Y-43242D01*
X91492Y-43257D01*
X91521Y-43271D01*
X91578Y-43271D01*
X91607Y-43257D01*
X91621Y-43242D01*
X91635Y-43214D01*
X91635Y-43157D01*
X91621Y-43128D01*
X91607Y-43114D01*
X91578Y-43100D01*
X89007Y-42571D02*
X89035Y-42571D01*
X89064Y-42585D01*
X89078Y-42600D01*
X89092Y-42628D01*
X89107Y-42685D01*
X89107Y-42757D01*
X89092Y-42814D01*
X89078Y-42842D01*
X89064Y-42857D01*
X89035Y-42871D01*
X89007Y-42871D01*
X88978Y-42857D01*
X88964Y-42842D01*
X88950Y-42814D01*
X88935Y-42757D01*
X88935Y-42685D01*
X88950Y-42628D01*
X88964Y-42600D01*
X88978Y-42585D01*
X89007Y-42571D01*
X89235Y-42842D02*
X89250Y-42857D01*
X89235Y-42871D01*
X89221Y-42857D01*
X89235Y-42842D01*
X89235Y-42871D01*
X89535Y-42871D02*
X89364Y-42871D01*
X89450Y-42871D02*
X89450Y-42571D01*
X89421Y-42614D01*
X89392Y-42642D01*
X89364Y-42657D01*
X89792Y-42671D02*
X89792Y-42871D01*
X89664Y-42671D02*
X89664Y-42828D01*
X89678Y-42857D01*
X89707Y-42871D01*
X89750Y-42871D01*
X89778Y-42857D01*
X89792Y-42842D01*
X90035Y-42714D02*
X89935Y-42714D01*
X89935Y-42871D02*
X89935Y-42571D01*
X90078Y-42571D01*
X84397Y-36129D02*
X84377Y-36129D01*
X84337Y-36109D01*
X84317Y-36088D01*
X84296Y-36048D01*
X84296Y-36008D01*
X84307Y-35977D01*
X84337Y-35927D01*
X84367Y-35896D01*
X84418Y-35866D01*
X84448Y-35856D01*
X84488Y-35856D01*
X84529Y-35876D01*
X84549Y-35896D01*
X84569Y-35937D01*
X84569Y-35957D01*
X84579Y-36351D02*
X84458Y-36230D01*
X84519Y-36290D02*
X84731Y-36078D01*
X84680Y-36088D01*
X84640Y-36088D01*
X84610Y-36078D01*
X84781Y-36553D02*
X84660Y-36432D01*
X84721Y-36492D02*
X84933Y-36280D01*
X84882Y-36290D01*
X84842Y-36290D01*
X84812Y-36280D01*
X83027Y-35525D02*
X83047Y-35545D01*
X83058Y-35575D01*
X83058Y-35595D01*
X83047Y-35626D01*
X83017Y-35676D01*
X82967Y-35727D01*
X82916Y-35757D01*
X82886Y-35767D01*
X82866Y-35767D01*
X82835Y-35757D01*
X82815Y-35737D01*
X82805Y-35707D01*
X82805Y-35686D01*
X82815Y-35656D01*
X82845Y-35606D01*
X82896Y-35555D01*
X82946Y-35525D01*
X82977Y-35515D01*
X82997Y-35515D01*
X83027Y-35525D01*
X82997Y-35878D02*
X82997Y-35898D01*
X82977Y-35898D01*
X82977Y-35878D01*
X82997Y-35878D01*
X82977Y-35898D01*
X83189Y-36111D02*
X83068Y-35989D01*
X83128Y-36050D02*
X83340Y-35838D01*
X83290Y-35848D01*
X83250Y-35848D01*
X83219Y-35838D01*
X83512Y-36151D02*
X83371Y-36292D01*
X83421Y-36060D02*
X83310Y-36171D01*
X83300Y-36202D01*
X83310Y-36232D01*
X83340Y-36262D01*
X83371Y-36272D01*
X83391Y-36272D01*
X83654Y-36353D02*
X83583Y-36282D01*
X83472Y-36393D02*
X83684Y-36181D01*
X83785Y-36282D01*
X81842Y-30642D02*
X81857Y-30657D01*
X81871Y-30700D01*
X81871Y-30728D01*
X81857Y-30771D01*
X81828Y-30800D01*
X81800Y-30814D01*
X81742Y-30828D01*
X81700Y-30828D01*
X81642Y-30814D01*
X81614Y-30800D01*
X81585Y-30771D01*
X81571Y-30728D01*
X81571Y-30700D01*
X81585Y-30657D01*
X81600Y-30642D01*
X81871Y-30357D02*
X81871Y-30528D01*
X81871Y-30442D02*
X81571Y-30442D01*
X81614Y-30471D01*
X81642Y-30500D01*
X81657Y-30528D01*
X81600Y-30242D02*
X81585Y-30228D01*
X81571Y-30200D01*
X81571Y-30128D01*
X81585Y-30100D01*
X81600Y-30085D01*
X81628Y-30071D01*
X81657Y-30071D01*
X81700Y-30085D01*
X81871Y-30257D01*
X81871Y-30071D01*
X81571Y-32992D02*
X81571Y-32964D01*
X81585Y-32935D01*
X81600Y-32921D01*
X81628Y-32907D01*
X81685Y-32892D01*
X81757Y-32892D01*
X81814Y-32907D01*
X81842Y-32921D01*
X81857Y-32935D01*
X81871Y-32964D01*
X81871Y-32992D01*
X81857Y-33021D01*
X81842Y-33035D01*
X81814Y-33049D01*
X81757Y-33064D01*
X81685Y-33064D01*
X81628Y-33049D01*
X81600Y-33035D01*
X81585Y-33021D01*
X81571Y-32992D01*
X81842Y-32764D02*
X81857Y-32750D01*
X81871Y-32764D01*
X81857Y-32778D01*
X81842Y-32764D01*
X81871Y-32764D01*
X81871Y-32464D02*
X81871Y-32635D01*
X81871Y-32550D02*
X81571Y-32550D01*
X81614Y-32578D01*
X81642Y-32607D01*
X81657Y-32635D01*
X81671Y-32207D02*
X81871Y-32207D01*
X81671Y-32335D02*
X81828Y-32335D01*
X81857Y-32321D01*
X81871Y-32292D01*
X81871Y-32250D01*
X81857Y-32221D01*
X81842Y-32207D01*
X81714Y-31964D02*
X81714Y-32064D01*
X81871Y-32064D02*
X81571Y-32064D01*
X81571Y-31921D01*
X95557Y-39042D02*
X95542Y-39057D01*
X95500Y-39071D01*
X95471Y-39071D01*
X95428Y-39057D01*
X95400Y-39028D01*
X95385Y-39000D01*
X95371Y-38942D01*
X95371Y-38900D01*
X95385Y-38842D01*
X95400Y-38814D01*
X95428Y-38785D01*
X95471Y-38771D01*
X95500Y-38771D01*
X95542Y-38785D01*
X95557Y-38800D01*
X95842Y-39071D02*
X95671Y-39071D01*
X95757Y-39071D02*
X95757Y-38771D01*
X95728Y-38814D01*
X95700Y-38842D01*
X95671Y-38857D01*
X95942Y-38771D02*
X96128Y-38771D01*
X96028Y-38885D01*
X96071Y-38885D01*
X96100Y-38900D01*
X96114Y-38914D01*
X96128Y-38942D01*
X96128Y-39014D01*
X96114Y-39042D01*
X96100Y-39057D01*
X96071Y-39071D01*
X95985Y-39071D01*
X95957Y-39057D01*
X95942Y-39042D01*
X95428Y-39871D02*
X95257Y-39871D01*
X95342Y-39871D02*
X95342Y-39571D01*
X95314Y-39614D01*
X95285Y-39642D01*
X95257Y-39657D01*
X95614Y-39571D02*
X95642Y-39571D01*
X95671Y-39585D01*
X95685Y-39600D01*
X95700Y-39628D01*
X95714Y-39685D01*
X95714Y-39757D01*
X95700Y-39814D01*
X95685Y-39842D01*
X95671Y-39857D01*
X95642Y-39871D01*
X95614Y-39871D01*
X95585Y-39857D01*
X95571Y-39842D01*
X95557Y-39814D01*
X95542Y-39757D01*
X95542Y-39685D01*
X95557Y-39628D01*
X95571Y-39600D01*
X95585Y-39585D01*
X95614Y-39571D01*
X95842Y-39671D02*
X95842Y-39871D01*
X95842Y-39700D02*
X95857Y-39685D01*
X95885Y-39671D01*
X95928Y-39671D01*
X95957Y-39685D01*
X95971Y-39714D01*
X95971Y-39871D01*
X96214Y-39714D02*
X96114Y-39714D01*
X96114Y-39871D02*
X96114Y-39571D01*
X96257Y-39571D01*
X91357Y-37842D02*
X91342Y-37857D01*
X91300Y-37871D01*
X91271Y-37871D01*
X91228Y-37857D01*
X91200Y-37828D01*
X91185Y-37800D01*
X91171Y-37742D01*
X91171Y-37700D01*
X91185Y-37642D01*
X91200Y-37614D01*
X91228Y-37585D01*
X91271Y-37571D01*
X91300Y-37571D01*
X91342Y-37585D01*
X91357Y-37600D01*
X91642Y-37871D02*
X91471Y-37871D01*
X91557Y-37871D02*
X91557Y-37571D01*
X91528Y-37614D01*
X91500Y-37642D01*
X91471Y-37657D01*
X91900Y-37671D02*
X91900Y-37871D01*
X91828Y-37557D02*
X91757Y-37771D01*
X91942Y-37771D01*
X89007Y-37571D02*
X89035Y-37571D01*
X89064Y-37585D01*
X89078Y-37600D01*
X89092Y-37628D01*
X89107Y-37685D01*
X89107Y-37757D01*
X89092Y-37814D01*
X89078Y-37842D01*
X89064Y-37857D01*
X89035Y-37871D01*
X89007Y-37871D01*
X88978Y-37857D01*
X88964Y-37842D01*
X88950Y-37814D01*
X88935Y-37757D01*
X88935Y-37685D01*
X88950Y-37628D01*
X88964Y-37600D01*
X88978Y-37585D01*
X89007Y-37571D01*
X89235Y-37842D02*
X89250Y-37857D01*
X89235Y-37871D01*
X89221Y-37857D01*
X89235Y-37842D01*
X89235Y-37871D01*
X89535Y-37871D02*
X89364Y-37871D01*
X89450Y-37871D02*
X89450Y-37571D01*
X89421Y-37614D01*
X89392Y-37642D01*
X89364Y-37657D01*
X89792Y-37671D02*
X89792Y-37871D01*
X89664Y-37671D02*
X89664Y-37828D01*
X89678Y-37857D01*
X89707Y-37871D01*
X89750Y-37871D01*
X89778Y-37857D01*
X89792Y-37842D01*
X90035Y-37714D02*
X89935Y-37714D01*
X89935Y-37871D02*
X89935Y-37571D01*
X90078Y-37571D01*
X84257Y-43242D02*
X84242Y-43257D01*
X84200Y-43271D01*
X84171Y-43271D01*
X84128Y-43257D01*
X84100Y-43228D01*
X84085Y-43200D01*
X84071Y-43142D01*
X84071Y-43100D01*
X84085Y-43042D01*
X84100Y-43014D01*
X84128Y-42985D01*
X84171Y-42971D01*
X84200Y-42971D01*
X84242Y-42985D01*
X84257Y-43000D01*
X84542Y-43271D02*
X84371Y-43271D01*
X84457Y-43271D02*
X84457Y-42971D01*
X84428Y-43014D01*
X84400Y-43042D01*
X84371Y-43057D01*
X84814Y-42971D02*
X84671Y-42971D01*
X84657Y-43114D01*
X84671Y-43100D01*
X84700Y-43085D01*
X84771Y-43085D01*
X84800Y-43100D01*
X84814Y-43114D01*
X84828Y-43142D01*
X84828Y-43214D01*
X84814Y-43242D01*
X84800Y-43257D01*
X84771Y-43271D01*
X84700Y-43271D01*
X84671Y-43257D01*
X84657Y-43242D01*
X86007Y-42571D02*
X86035Y-42571D01*
X86064Y-42585D01*
X86078Y-42600D01*
X86092Y-42628D01*
X86107Y-42685D01*
X86107Y-42757D01*
X86092Y-42814D01*
X86078Y-42842D01*
X86064Y-42857D01*
X86035Y-42871D01*
X86007Y-42871D01*
X85978Y-42857D01*
X85964Y-42842D01*
X85950Y-42814D01*
X85935Y-42757D01*
X85935Y-42685D01*
X85950Y-42628D01*
X85964Y-42600D01*
X85978Y-42585D01*
X86007Y-42571D01*
X86235Y-42842D02*
X86250Y-42857D01*
X86235Y-42871D01*
X86221Y-42857D01*
X86235Y-42842D01*
X86235Y-42871D01*
X86535Y-42871D02*
X86364Y-42871D01*
X86450Y-42871D02*
X86450Y-42571D01*
X86421Y-42614D01*
X86392Y-42642D01*
X86364Y-42657D01*
X86792Y-42671D02*
X86792Y-42871D01*
X86664Y-42671D02*
X86664Y-42828D01*
X86678Y-42857D01*
X86707Y-42871D01*
X86750Y-42871D01*
X86778Y-42857D01*
X86792Y-42842D01*
X87035Y-42714D02*
X86935Y-42714D01*
X86935Y-42871D02*
X86935Y-42571D01*
X87078Y-42571D01*
G54D12*
X95190Y-34551D02*
X95190Y-34753D01*
X95202Y-34777D01*
X95214Y-34789D01*
X95238Y-34801D01*
X95285Y-34801D01*
X95309Y-34789D01*
X95321Y-34777D01*
X95333Y-34753D01*
X95333Y-34551D01*
X95428Y-34551D02*
X95583Y-34551D01*
X95500Y-34646D01*
X95535Y-34646D01*
X95559Y-34658D01*
X95571Y-34670D01*
X95583Y-34694D01*
X95583Y-34753D01*
X95571Y-34777D01*
X95559Y-34789D01*
X95535Y-34801D01*
X95464Y-34801D01*
X95440Y-34789D01*
X95428Y-34777D01*
X95738Y-34551D02*
X95761Y-34551D01*
X95785Y-34563D01*
X95797Y-34575D01*
X95809Y-34598D01*
X95821Y-34646D01*
X95821Y-34705D01*
X95809Y-34753D01*
X95797Y-34777D01*
X95785Y-34789D01*
X95761Y-34801D01*
X95738Y-34801D01*
X95714Y-34789D01*
X95702Y-34777D01*
X95690Y-34753D01*
X95678Y-34705D01*
X95678Y-34646D01*
X95690Y-34598D01*
X95702Y-34575D01*
X95714Y-34563D01*
X95738Y-34551D01*
X94880Y-35401D02*
X94761Y-35401D01*
X94761Y-35151D01*
X94928Y-35151D02*
X95071Y-35151D01*
X95000Y-35401D02*
X95000Y-35151D01*
X95297Y-35377D02*
X95285Y-35389D01*
X95250Y-35401D01*
X95226Y-35401D01*
X95190Y-35389D01*
X95166Y-35365D01*
X95154Y-35341D01*
X95142Y-35294D01*
X95142Y-35258D01*
X95154Y-35210D01*
X95166Y-35186D01*
X95190Y-35163D01*
X95226Y-35151D01*
X95250Y-35151D01*
X95285Y-35163D01*
X95297Y-35175D01*
X95392Y-35175D02*
X95404Y-35163D01*
X95428Y-35151D01*
X95488Y-35151D01*
X95511Y-35163D01*
X95523Y-35175D01*
X95535Y-35198D01*
X95535Y-35222D01*
X95523Y-35258D01*
X95380Y-35401D01*
X95535Y-35401D01*
X95690Y-35151D02*
X95714Y-35151D01*
X95738Y-35163D01*
X95750Y-35175D01*
X95761Y-35198D01*
X95773Y-35246D01*
X95773Y-35305D01*
X95761Y-35353D01*
X95750Y-35377D01*
X95738Y-35389D01*
X95714Y-35401D01*
X95690Y-35401D01*
X95666Y-35389D01*
X95654Y-35377D01*
X95642Y-35353D01*
X95630Y-35305D01*
X95630Y-35246D01*
X95642Y-35198D01*
X95654Y-35175D01*
X95666Y-35163D01*
X95690Y-35151D01*
X96000Y-35151D02*
X95880Y-35151D01*
X95869Y-35270D01*
X95880Y-35258D01*
X95904Y-35246D01*
X95964Y-35246D01*
X95988Y-35258D01*
X96000Y-35270D01*
X96011Y-35294D01*
X96011Y-35353D01*
X96000Y-35377D01*
X95988Y-35389D01*
X95964Y-35401D01*
X95904Y-35401D01*
X95880Y-35389D01*
X95869Y-35377D01*
X96095Y-35151D02*
X96261Y-35151D01*
X96154Y-35401D01*
G54D11*
X91257Y-29621D02*
X91157Y-29478D01*
X91085Y-29621D02*
X91085Y-29321D01*
X91200Y-29321D01*
X91228Y-29335D01*
X91242Y-29350D01*
X91257Y-29378D01*
X91257Y-29421D01*
X91242Y-29450D01*
X91228Y-29464D01*
X91200Y-29478D01*
X91085Y-29478D01*
X91357Y-29321D02*
X91542Y-29321D01*
X91442Y-29435D01*
X91485Y-29435D01*
X91514Y-29450D01*
X91528Y-29464D01*
X91542Y-29492D01*
X91542Y-29564D01*
X91528Y-29592D01*
X91514Y-29607D01*
X91485Y-29621D01*
X91400Y-29621D01*
X91371Y-29607D01*
X91357Y-29592D01*
X91728Y-29321D02*
X91757Y-29321D01*
X91785Y-29335D01*
X91800Y-29350D01*
X91814Y-29378D01*
X91828Y-29435D01*
X91828Y-29507D01*
X91814Y-29564D01*
X91800Y-29592D01*
X91785Y-29607D01*
X91757Y-29621D01*
X91728Y-29621D01*
X91700Y-29607D01*
X91685Y-29592D01*
X91671Y-29564D01*
X91657Y-29507D01*
X91657Y-29435D01*
X91671Y-29378D01*
X91685Y-29350D01*
X91700Y-29335D01*
X91728Y-29321D01*
X92871Y-29621D02*
X92700Y-29621D01*
X92785Y-29621D02*
X92785Y-29321D01*
X92757Y-29364D01*
X92728Y-29392D01*
X92700Y-29407D01*
X93057Y-29321D02*
X93085Y-29321D01*
X93114Y-29335D01*
X93128Y-29350D01*
X93142Y-29378D01*
X93157Y-29435D01*
X93157Y-29507D01*
X93142Y-29564D01*
X93128Y-29592D01*
X93114Y-29607D01*
X93085Y-29621D01*
X93057Y-29621D01*
X93028Y-29607D01*
X93014Y-29592D01*
X93000Y-29564D01*
X92985Y-29507D01*
X92985Y-29435D01*
X93000Y-29378D01*
X93014Y-29350D01*
X93028Y-29335D01*
X93057Y-29321D01*
X93285Y-29621D02*
X93285Y-29321D01*
X93314Y-29507D02*
X93400Y-29621D01*
X93400Y-29421D02*
X93285Y-29535D01*
X92121Y-33492D02*
X91978Y-33592D01*
X92121Y-33664D02*
X91821Y-33664D01*
X91821Y-33550D01*
X91835Y-33521D01*
X91850Y-33507D01*
X91878Y-33492D01*
X91921Y-33492D01*
X91950Y-33507D01*
X91964Y-33521D01*
X91978Y-33550D01*
X91978Y-33664D01*
X91821Y-33392D02*
X91821Y-33207D01*
X91935Y-33307D01*
X91935Y-33264D01*
X91950Y-33235D01*
X91964Y-33221D01*
X91992Y-33207D01*
X92064Y-33207D01*
X92092Y-33221D01*
X92107Y-33235D01*
X92121Y-33264D01*
X92121Y-33350D01*
X92107Y-33378D01*
X92092Y-33392D01*
X92121Y-32921D02*
X92121Y-33092D01*
X92121Y-33007D02*
X91821Y-33007D01*
X91864Y-33035D01*
X91892Y-33064D01*
X91907Y-33092D01*
X92121Y-31878D02*
X92121Y-32049D01*
X92121Y-31964D02*
X91821Y-31964D01*
X91864Y-31992D01*
X91892Y-32021D01*
X91907Y-32049D01*
X91821Y-31692D02*
X91821Y-31664D01*
X91835Y-31635D01*
X91850Y-31621D01*
X91878Y-31607D01*
X91935Y-31592D01*
X92007Y-31592D01*
X92064Y-31607D01*
X92092Y-31621D01*
X92107Y-31635D01*
X92121Y-31664D01*
X92121Y-31692D01*
X92107Y-31721D01*
X92092Y-31735D01*
X92064Y-31749D01*
X92007Y-31764D01*
X91935Y-31764D01*
X91878Y-31749D01*
X91850Y-31735D01*
X91835Y-31721D01*
X91821Y-31692D01*
X92121Y-31464D02*
X91821Y-31464D01*
X92007Y-31435D02*
X92121Y-31350D01*
X91921Y-31350D02*
X92035Y-31464D01*
X93121Y-34242D02*
X92978Y-34342D01*
X93121Y-34414D02*
X92821Y-34414D01*
X92821Y-34300D01*
X92835Y-34271D01*
X92850Y-34257D01*
X92878Y-34242D01*
X92921Y-34242D01*
X92950Y-34257D01*
X92964Y-34271D01*
X92978Y-34300D01*
X92978Y-34414D01*
X92821Y-34142D02*
X92821Y-33957D01*
X92935Y-34057D01*
X92935Y-34014D01*
X92950Y-33985D01*
X92964Y-33971D01*
X92992Y-33957D01*
X93064Y-33957D01*
X93092Y-33971D01*
X93107Y-33985D01*
X93121Y-34014D01*
X93121Y-34100D01*
X93107Y-34128D01*
X93092Y-34142D01*
X92850Y-33842D02*
X92835Y-33828D01*
X92821Y-33800D01*
X92821Y-33728D01*
X92835Y-33700D01*
X92850Y-33685D01*
X92878Y-33671D01*
X92907Y-33671D01*
X92950Y-33685D01*
X93121Y-33857D01*
X93121Y-33671D01*
X92850Y-32828D02*
X92835Y-32814D01*
X92821Y-32785D01*
X92821Y-32714D01*
X92835Y-32685D01*
X92850Y-32671D01*
X92878Y-32657D01*
X92907Y-32657D01*
X92950Y-32671D01*
X93121Y-32842D01*
X93121Y-32657D01*
X92850Y-32542D02*
X92835Y-32528D01*
X92821Y-32500D01*
X92821Y-32428D01*
X92835Y-32400D01*
X92850Y-32385D01*
X92878Y-32371D01*
X92907Y-32371D01*
X92950Y-32385D01*
X93121Y-32557D01*
X93121Y-32371D01*
X93121Y-32071D02*
X92978Y-32171D01*
X93121Y-32242D02*
X92821Y-32242D01*
X92821Y-32128D01*
X92835Y-32100D01*
X92850Y-32085D01*
X92878Y-32071D01*
X92921Y-32071D01*
X92950Y-32085D01*
X92964Y-32100D01*
X92978Y-32128D01*
X92978Y-32242D01*
X97192Y-31942D02*
X97207Y-31957D01*
X97221Y-32000D01*
X97221Y-32028D01*
X97207Y-32071D01*
X97178Y-32100D01*
X97150Y-32114D01*
X97092Y-32128D01*
X97050Y-32128D01*
X96992Y-32114D01*
X96964Y-32100D01*
X96935Y-32071D01*
X96921Y-32028D01*
X96921Y-32000D01*
X96935Y-31957D01*
X96950Y-31942D01*
X96921Y-31842D02*
X96921Y-31657D01*
X97035Y-31757D01*
X97035Y-31714D01*
X97050Y-31685D01*
X97064Y-31671D01*
X97092Y-31657D01*
X97164Y-31657D01*
X97192Y-31671D01*
X97207Y-31685D01*
X97221Y-31714D01*
X97221Y-31800D01*
X97207Y-31828D01*
X97192Y-31842D01*
X96921Y-31471D02*
X96921Y-31442D01*
X96935Y-31414D01*
X96950Y-31400D01*
X96978Y-31385D01*
X97035Y-31371D01*
X97107Y-31371D01*
X97164Y-31385D01*
X97192Y-31400D01*
X97207Y-31414D01*
X97221Y-31442D01*
X97221Y-31471D01*
X97207Y-31500D01*
X97192Y-31514D01*
X97164Y-31528D01*
X97107Y-31542D01*
X97035Y-31542D01*
X96978Y-31528D01*
X96950Y-31514D01*
X96935Y-31500D01*
X96921Y-31471D01*
X94757Y-31571D02*
X94785Y-31571D01*
X94814Y-31585D01*
X94828Y-31600D01*
X94842Y-31628D01*
X94857Y-31685D01*
X94857Y-31757D01*
X94842Y-31814D01*
X94828Y-31842D01*
X94814Y-31857D01*
X94785Y-31871D01*
X94757Y-31871D01*
X94728Y-31857D01*
X94714Y-31842D01*
X94700Y-31814D01*
X94685Y-31757D01*
X94685Y-31685D01*
X94700Y-31628D01*
X94714Y-31600D01*
X94728Y-31585D01*
X94757Y-31571D01*
X94985Y-31842D02*
X95000Y-31857D01*
X94985Y-31871D01*
X94971Y-31857D01*
X94985Y-31842D01*
X94985Y-31871D01*
X95285Y-31871D02*
X95114Y-31871D01*
X95200Y-31871D02*
X95200Y-31571D01*
X95171Y-31614D01*
X95142Y-31642D01*
X95114Y-31657D01*
X95542Y-31671D02*
X95542Y-31871D01*
X95414Y-31671D02*
X95414Y-31828D01*
X95428Y-31857D01*
X95457Y-31871D01*
X95500Y-31871D01*
X95528Y-31857D01*
X95542Y-31842D01*
X95785Y-31714D02*
X95685Y-31714D01*
X95685Y-31871D02*
X95685Y-31571D01*
X95828Y-31571D01*
X97192Y-32942D02*
X97207Y-32957D01*
X97221Y-33000D01*
X97221Y-33028D01*
X97207Y-33071D01*
X97178Y-33100D01*
X97150Y-33114D01*
X97092Y-33128D01*
X97050Y-33128D01*
X96992Y-33114D01*
X96964Y-33100D01*
X96935Y-33071D01*
X96921Y-33028D01*
X96921Y-33000D01*
X96935Y-32957D01*
X96950Y-32942D01*
X96921Y-32842D02*
X96921Y-32657D01*
X97035Y-32757D01*
X97035Y-32714D01*
X97050Y-32685D01*
X97064Y-32671D01*
X97092Y-32657D01*
X97164Y-32657D01*
X97192Y-32671D01*
X97207Y-32685D01*
X97221Y-32714D01*
X97221Y-32800D01*
X97207Y-32828D01*
X97192Y-32842D01*
X97221Y-32371D02*
X97221Y-32542D01*
X97221Y-32457D02*
X96921Y-32457D01*
X96964Y-32485D01*
X96992Y-32514D01*
X97007Y-32542D01*
X94928Y-32871D02*
X94757Y-32871D01*
X94842Y-32871D02*
X94842Y-32571D01*
X94814Y-32614D01*
X94785Y-32642D01*
X94757Y-32657D01*
X95114Y-32571D02*
X95142Y-32571D01*
X95171Y-32585D01*
X95185Y-32600D01*
X95200Y-32628D01*
X95214Y-32685D01*
X95214Y-32757D01*
X95200Y-32814D01*
X95185Y-32842D01*
X95171Y-32857D01*
X95142Y-32871D01*
X95114Y-32871D01*
X95085Y-32857D01*
X95071Y-32842D01*
X95057Y-32814D01*
X95042Y-32757D01*
X95042Y-32685D01*
X95057Y-32628D01*
X95071Y-32600D01*
X95085Y-32585D01*
X95114Y-32571D01*
X95342Y-32671D02*
X95342Y-32871D01*
X95342Y-32700D02*
X95357Y-32685D01*
X95385Y-32671D01*
X95428Y-32671D01*
X95457Y-32685D01*
X95471Y-32714D01*
X95471Y-32871D01*
X95714Y-32714D02*
X95614Y-32714D01*
X95614Y-32871D02*
X95614Y-32571D01*
X95757Y-32571D01*
X95307Y-38192D02*
X95292Y-38207D01*
X95250Y-38221D01*
X95221Y-38221D01*
X95178Y-38207D01*
X95150Y-38178D01*
X95135Y-38150D01*
X95121Y-38092D01*
X95121Y-38050D01*
X95135Y-37992D01*
X95150Y-37964D01*
X95178Y-37935D01*
X95221Y-37921D01*
X95250Y-37921D01*
X95292Y-37935D01*
X95307Y-37950D01*
X95407Y-37921D02*
X95592Y-37921D01*
X95492Y-38035D01*
X95535Y-38035D01*
X95564Y-38050D01*
X95578Y-38064D01*
X95592Y-38092D01*
X95592Y-38164D01*
X95578Y-38192D01*
X95564Y-38207D01*
X95535Y-38221D01*
X95450Y-38221D01*
X95421Y-38207D01*
X95407Y-38192D01*
X95692Y-37921D02*
X95878Y-37921D01*
X95778Y-38035D01*
X95821Y-38035D01*
X95850Y-38050D01*
X95864Y-38064D01*
X95878Y-38092D01*
X95878Y-38164D01*
X95864Y-38192D01*
X95850Y-38207D01*
X95821Y-38221D01*
X95735Y-38221D01*
X95707Y-38207D01*
X95692Y-38192D01*
X95007Y-37071D02*
X95035Y-37071D01*
X95064Y-37085D01*
X95078Y-37100D01*
X95092Y-37128D01*
X95107Y-37185D01*
X95107Y-37257D01*
X95092Y-37314D01*
X95078Y-37342D01*
X95064Y-37357D01*
X95035Y-37371D01*
X95007Y-37371D01*
X94978Y-37357D01*
X94964Y-37342D01*
X94950Y-37314D01*
X94935Y-37257D01*
X94935Y-37185D01*
X94950Y-37128D01*
X94964Y-37100D01*
X94978Y-37085D01*
X95007Y-37071D01*
X95235Y-37342D02*
X95250Y-37357D01*
X95235Y-37371D01*
X95221Y-37357D01*
X95235Y-37342D01*
X95235Y-37371D01*
X95535Y-37371D02*
X95364Y-37371D01*
X95450Y-37371D02*
X95450Y-37071D01*
X95421Y-37114D01*
X95392Y-37142D01*
X95364Y-37157D01*
X95792Y-37171D02*
X95792Y-37371D01*
X95664Y-37171D02*
X95664Y-37328D01*
X95678Y-37357D01*
X95707Y-37371D01*
X95750Y-37371D01*
X95778Y-37357D01*
X95792Y-37342D01*
X96035Y-37214D02*
X95935Y-37214D01*
X95935Y-37371D02*
X95935Y-37071D01*
X96078Y-37071D01*
X83712Y-30785D02*
X83883Y-30957D01*
X83914Y-30967D01*
X83934Y-30967D01*
X83964Y-30957D01*
X84005Y-30916D01*
X84015Y-30886D01*
X84015Y-30866D01*
X84005Y-30835D01*
X83833Y-30664D01*
X84257Y-30664D02*
X84136Y-30785D01*
X84196Y-30724D02*
X83984Y-30512D01*
X83994Y-30563D01*
X83994Y-30603D01*
X83984Y-30633D01*
X87324Y-35297D02*
X87223Y-35398D01*
X87011Y-35185D01*
X87152Y-35044D02*
X87274Y-34923D01*
X87425Y-35195D02*
X87213Y-34983D01*
X87324Y-34872D02*
X87466Y-34731D01*
X87536Y-35084D01*
X87678Y-34943D01*
X87870Y-34751D02*
X87748Y-34872D01*
X87809Y-34812D02*
X87597Y-34600D01*
X87607Y-34650D01*
X87607Y-34690D01*
X87597Y-34721D01*
X87789Y-34408D02*
X87809Y-34387D01*
X87839Y-34377D01*
X87860Y-34377D01*
X87890Y-34387D01*
X87940Y-34418D01*
X87991Y-34468D01*
X88021Y-34519D01*
X88031Y-34549D01*
X88031Y-34569D01*
X88021Y-34600D01*
X88001Y-34620D01*
X87971Y-34630D01*
X87951Y-34630D01*
X87920Y-34620D01*
X87870Y-34589D01*
X87819Y-34539D01*
X87789Y-34488D01*
X87779Y-34458D01*
X87779Y-34438D01*
X87789Y-34408D01*
X87991Y-34206D02*
X88011Y-34185D01*
X88041Y-34175D01*
X88062Y-34175D01*
X88092Y-34185D01*
X88142Y-34216D01*
X88193Y-34266D01*
X88223Y-34317D01*
X88233Y-34347D01*
X88233Y-34367D01*
X88223Y-34397D01*
X88203Y-34418D01*
X88173Y-34428D01*
X88153Y-34428D01*
X88122Y-34418D01*
X88072Y-34387D01*
X88021Y-34337D01*
X87991Y-34286D01*
X87981Y-34256D01*
X87981Y-34236D01*
X87991Y-34206D01*
X88193Y-34004D02*
X88213Y-33983D01*
X88243Y-33973D01*
X88264Y-33973D01*
X88294Y-33983D01*
X88344Y-34014D01*
X88395Y-34064D01*
X88425Y-34115D01*
X88435Y-34145D01*
X88435Y-34165D01*
X88425Y-34195D01*
X88405Y-34216D01*
X88375Y-34226D01*
X88355Y-34226D01*
X88324Y-34216D01*
X88274Y-34185D01*
X88223Y-34135D01*
X88193Y-34084D01*
X88183Y-34054D01*
X88183Y-34034D01*
X88193Y-34004D01*
X88496Y-34004D02*
X88597Y-33902D01*
X88536Y-34084D02*
X88395Y-33801D01*
X88678Y-33943D01*
X88307Y-36592D02*
X88292Y-36607D01*
X88250Y-36621D01*
X88221Y-36621D01*
X88178Y-36607D01*
X88150Y-36578D01*
X88135Y-36550D01*
X88121Y-36492D01*
X88121Y-36450D01*
X88135Y-36392D01*
X88150Y-36364D01*
X88178Y-36335D01*
X88221Y-36321D01*
X88250Y-36321D01*
X88292Y-36335D01*
X88307Y-36350D01*
X88407Y-36321D02*
X88592Y-36321D01*
X88492Y-36435D01*
X88535Y-36435D01*
X88564Y-36450D01*
X88578Y-36464D01*
X88592Y-36492D01*
X88592Y-36564D01*
X88578Y-36592D01*
X88564Y-36607D01*
X88535Y-36621D01*
X88450Y-36621D01*
X88421Y-36607D01*
X88407Y-36592D01*
X88707Y-36350D02*
X88721Y-36335D01*
X88750Y-36321D01*
X88821Y-36321D01*
X88850Y-36335D01*
X88864Y-36350D01*
X88878Y-36378D01*
X88878Y-36407D01*
X88864Y-36450D01*
X88692Y-36621D01*
X88878Y-36621D01*
X90007Y-35321D02*
X90035Y-35321D01*
X90064Y-35335D01*
X90078Y-35350D01*
X90092Y-35378D01*
X90107Y-35435D01*
X90107Y-35507D01*
X90092Y-35564D01*
X90078Y-35592D01*
X90064Y-35607D01*
X90035Y-35621D01*
X90007Y-35621D01*
X89978Y-35607D01*
X89964Y-35592D01*
X89950Y-35564D01*
X89935Y-35507D01*
X89935Y-35435D01*
X89950Y-35378D01*
X89964Y-35350D01*
X89978Y-35335D01*
X90007Y-35321D01*
X90235Y-35592D02*
X90250Y-35607D01*
X90235Y-35621D01*
X90221Y-35607D01*
X90235Y-35592D01*
X90235Y-35621D01*
X90535Y-35621D02*
X90364Y-35621D01*
X90450Y-35621D02*
X90450Y-35321D01*
X90421Y-35364D01*
X90392Y-35392D01*
X90364Y-35407D01*
X90792Y-35421D02*
X90792Y-35621D01*
X90664Y-35421D02*
X90664Y-35578D01*
X90678Y-35607D01*
X90707Y-35621D01*
X90750Y-35621D01*
X90778Y-35607D01*
X90792Y-35592D01*
X91035Y-35464D02*
X90935Y-35464D01*
X90935Y-35621D02*
X90935Y-35321D01*
X91078Y-35321D01*
X78357Y-27121D02*
X78257Y-26978D01*
X78185Y-27121D02*
X78185Y-26821D01*
X78300Y-26821D01*
X78328Y-26835D01*
X78342Y-26850D01*
X78357Y-26878D01*
X78357Y-26921D01*
X78342Y-26950D01*
X78328Y-26964D01*
X78300Y-26978D01*
X78185Y-26978D01*
X78614Y-26921D02*
X78614Y-27121D01*
X78542Y-26807D02*
X78471Y-27021D01*
X78657Y-27021D01*
X78828Y-26821D02*
X78857Y-26821D01*
X78885Y-26835D01*
X78900Y-26850D01*
X78914Y-26878D01*
X78928Y-26935D01*
X78928Y-27007D01*
X78914Y-27064D01*
X78900Y-27092D01*
X78885Y-27107D01*
X78857Y-27121D01*
X78828Y-27121D01*
X78800Y-27107D01*
X78785Y-27092D01*
X78771Y-27064D01*
X78757Y-27007D01*
X78757Y-26935D01*
X78771Y-26878D01*
X78785Y-26850D01*
X78800Y-26835D01*
X78828Y-26821D01*
X76642Y-26921D02*
X76642Y-27121D01*
X76571Y-26807D02*
X76500Y-27021D01*
X76685Y-27021D01*
X76800Y-27092D02*
X76814Y-27107D01*
X76800Y-27121D01*
X76785Y-27107D01*
X76800Y-27092D01*
X76800Y-27121D01*
X76914Y-26821D02*
X77114Y-26821D01*
X76985Y-27121D01*
X77400Y-27121D02*
X77300Y-26978D01*
X77228Y-27121D02*
X77228Y-26821D01*
X77342Y-26821D01*
X77371Y-26835D01*
X77385Y-26850D01*
X77400Y-26878D01*
X77400Y-26921D01*
X77385Y-26950D01*
X77371Y-26964D01*
X77342Y-26978D01*
X77228Y-26978D01*
X77257Y-27871D02*
X77114Y-27871D01*
X77114Y-27571D01*
X77485Y-27671D02*
X77485Y-27871D01*
X77414Y-27557D02*
X77342Y-27771D01*
X77528Y-27771D01*
X77700Y-27571D02*
X77728Y-27571D01*
X77757Y-27585D01*
X77771Y-27600D01*
X77785Y-27628D01*
X77800Y-27685D01*
X77800Y-27757D01*
X77785Y-27814D01*
X77771Y-27842D01*
X77757Y-27857D01*
X77728Y-27871D01*
X77700Y-27871D01*
X77671Y-27857D01*
X77657Y-27842D01*
X77642Y-27814D01*
X77628Y-27757D01*
X77628Y-27685D01*
X77642Y-27628D01*
X77657Y-27600D01*
X77671Y-27585D01*
X77700Y-27571D01*
X78700Y-27871D02*
X78528Y-27871D01*
X78614Y-27871D02*
X78614Y-27571D01*
X78585Y-27614D01*
X78557Y-27642D01*
X78528Y-27657D01*
X78885Y-27571D02*
X78914Y-27571D01*
X78942Y-27585D01*
X78957Y-27600D01*
X78971Y-27628D01*
X78985Y-27685D01*
X78985Y-27757D01*
X78971Y-27814D01*
X78957Y-27842D01*
X78942Y-27857D01*
X78914Y-27871D01*
X78885Y-27871D01*
X78857Y-27857D01*
X78842Y-27842D01*
X78828Y-27814D01*
X78814Y-27757D01*
X78814Y-27685D01*
X78828Y-27628D01*
X78842Y-27600D01*
X78857Y-27585D01*
X78885Y-27571D01*
X79242Y-27671D02*
X79242Y-27871D01*
X79114Y-27671D02*
X79114Y-27828D01*
X79128Y-27857D01*
X79157Y-27871D01*
X79200Y-27871D01*
X79228Y-27857D01*
X79242Y-27842D01*
X79385Y-27871D02*
X79385Y-27571D01*
X79385Y-27714D02*
X79557Y-27714D01*
X79557Y-27871D02*
X79557Y-27571D01*
X82992Y-28192D02*
X83007Y-28207D01*
X83021Y-28250D01*
X83021Y-28278D01*
X83007Y-28321D01*
X82978Y-28350D01*
X82950Y-28364D01*
X82892Y-28378D01*
X82850Y-28378D01*
X82792Y-28364D01*
X82764Y-28350D01*
X82735Y-28321D01*
X82721Y-28278D01*
X82721Y-28250D01*
X82735Y-28207D01*
X82750Y-28192D01*
X82821Y-27935D02*
X83021Y-27935D01*
X82707Y-28007D02*
X82921Y-28078D01*
X82921Y-27892D01*
X82721Y-27721D02*
X82721Y-27692D01*
X82735Y-27664D01*
X82750Y-27650D01*
X82778Y-27635D01*
X82835Y-27621D01*
X82907Y-27621D01*
X82964Y-27635D01*
X82992Y-27650D01*
X83007Y-27664D01*
X83021Y-27692D01*
X83021Y-27721D01*
X83007Y-27750D01*
X82992Y-27764D01*
X82964Y-27778D01*
X82907Y-27792D01*
X82835Y-27792D01*
X82778Y-27778D01*
X82750Y-27764D01*
X82735Y-27750D01*
X82721Y-27721D01*
X82371Y-28178D02*
X82371Y-28350D01*
X82371Y-28264D02*
X82071Y-28264D01*
X82114Y-28292D01*
X82142Y-28321D01*
X82157Y-28350D01*
X82171Y-27921D02*
X82371Y-27921D01*
X82171Y-28050D02*
X82328Y-28050D01*
X82357Y-28035D01*
X82371Y-28007D01*
X82371Y-27964D01*
X82357Y-27935D01*
X82342Y-27921D01*
X82214Y-27678D02*
X82214Y-27778D01*
X82371Y-27778D02*
X82071Y-27778D01*
X82071Y-27635D01*
X93028Y-43471D02*
X93028Y-43171D01*
X93100Y-43171D01*
X93142Y-43185D01*
X93171Y-43214D01*
X93185Y-43242D01*
X93200Y-43300D01*
X93200Y-43342D01*
X93185Y-43400D01*
X93171Y-43428D01*
X93142Y-43457D01*
X93100Y-43471D01*
X93028Y-43471D01*
X93300Y-43171D02*
X93485Y-43171D01*
X93385Y-43285D01*
X93428Y-43285D01*
X93457Y-43300D01*
X93471Y-43314D01*
X93485Y-43342D01*
X93485Y-43414D01*
X93471Y-43442D01*
X93457Y-43457D01*
X93428Y-43471D01*
X93342Y-43471D01*
X93314Y-43457D01*
X93300Y-43442D01*
X92571Y-43821D02*
X92771Y-43821D01*
X92571Y-44121D01*
X92771Y-44121D01*
X92885Y-43964D02*
X92985Y-43964D01*
X93028Y-44121D02*
X92885Y-44121D01*
X92885Y-43821D01*
X93028Y-43821D01*
X93157Y-44121D02*
X93157Y-43821D01*
X93328Y-44121D01*
X93328Y-43821D01*
X93471Y-43964D02*
X93571Y-43964D01*
X93614Y-44121D02*
X93471Y-44121D01*
X93471Y-43821D01*
X93614Y-43821D01*
X93914Y-44121D02*
X93814Y-43978D01*
X93742Y-44121D02*
X93742Y-43821D01*
X93857Y-43821D01*
X93885Y-43835D01*
X93900Y-43850D01*
X93914Y-43878D01*
X93914Y-43921D01*
X93900Y-43950D01*
X93885Y-43964D01*
X93857Y-43978D01*
X93742Y-43978D01*
X89421Y-31421D02*
X89121Y-31421D01*
X89121Y-31350D01*
X89135Y-31307D01*
X89164Y-31278D01*
X89192Y-31264D01*
X89250Y-31250D01*
X89292Y-31250D01*
X89350Y-31264D01*
X89378Y-31278D01*
X89407Y-31307D01*
X89421Y-31350D01*
X89421Y-31421D01*
X89421Y-30964D02*
X89421Y-31135D01*
X89421Y-31050D02*
X89121Y-31050D01*
X89164Y-31078D01*
X89192Y-31107D01*
X89207Y-31135D01*
X90121Y-32992D02*
X90121Y-33164D01*
X90121Y-33078D02*
X89821Y-33078D01*
X89864Y-33107D01*
X89892Y-33135D01*
X89907Y-33164D01*
X90121Y-32864D02*
X89821Y-32864D01*
X90121Y-32692D01*
X89821Y-32692D01*
X89921Y-32421D02*
X90121Y-32421D01*
X89807Y-32492D02*
X90021Y-32564D01*
X90021Y-32378D01*
X90121Y-32107D02*
X90121Y-32278D01*
X90121Y-32192D02*
X89821Y-32192D01*
X89864Y-32221D01*
X89892Y-32250D01*
X89907Y-32278D01*
X89921Y-31850D02*
X90121Y-31850D01*
X89807Y-31921D02*
X90021Y-31992D01*
X90021Y-31807D01*
X89950Y-31650D02*
X89935Y-31678D01*
X89921Y-31692D01*
X89892Y-31707D01*
X89878Y-31707D01*
X89850Y-31692D01*
X89835Y-31678D01*
X89821Y-31650D01*
X89821Y-31592D01*
X89835Y-31564D01*
X89850Y-31550D01*
X89878Y-31535D01*
X89892Y-31535D01*
X89921Y-31550D01*
X89935Y-31564D01*
X89950Y-31592D01*
X89950Y-31650D01*
X89964Y-31678D01*
X89978Y-31692D01*
X90007Y-31707D01*
X90064Y-31707D01*
X90092Y-31692D01*
X90107Y-31678D01*
X90121Y-31650D01*
X90121Y-31592D01*
X90107Y-31564D01*
X90092Y-31550D01*
X90064Y-31535D01*
X90007Y-31535D01*
X89978Y-31550D01*
X89964Y-31564D01*
X89950Y-31592D01*
X91871Y-42721D02*
X91571Y-42721D01*
X91571Y-42650D01*
X91585Y-42607D01*
X91614Y-42578D01*
X91642Y-42564D01*
X91700Y-42550D01*
X91742Y-42550D01*
X91800Y-42564D01*
X91828Y-42578D01*
X91857Y-42607D01*
X91871Y-42650D01*
X91871Y-42721D01*
X91600Y-42435D02*
X91585Y-42421D01*
X91571Y-42392D01*
X91571Y-42321D01*
X91585Y-42292D01*
X91600Y-42278D01*
X91628Y-42264D01*
X91657Y-42264D01*
X91700Y-42278D01*
X91871Y-42450D01*
X91871Y-42264D01*
X91871Y-40992D02*
X91871Y-41164D01*
X91871Y-41078D02*
X91571Y-41078D01*
X91614Y-41107D01*
X91642Y-41135D01*
X91657Y-41164D01*
X91871Y-40864D02*
X91571Y-40864D01*
X91871Y-40692D01*
X91571Y-40692D01*
X91671Y-40421D02*
X91871Y-40421D01*
X91557Y-40492D02*
X91771Y-40564D01*
X91771Y-40378D01*
X91871Y-40107D02*
X91871Y-40278D01*
X91871Y-40192D02*
X91571Y-40192D01*
X91614Y-40221D01*
X91642Y-40250D01*
X91657Y-40278D01*
X91671Y-39850D02*
X91871Y-39850D01*
X91557Y-39921D02*
X91771Y-39992D01*
X91771Y-39807D01*
X91700Y-39650D02*
X91685Y-39678D01*
X91671Y-39692D01*
X91642Y-39707D01*
X91628Y-39707D01*
X91600Y-39692D01*
X91585Y-39678D01*
X91571Y-39650D01*
X91571Y-39592D01*
X91585Y-39564D01*
X91600Y-39550D01*
X91628Y-39535D01*
X91642Y-39535D01*
X91671Y-39550D01*
X91685Y-39564D01*
X91700Y-39592D01*
X91700Y-39650D01*
X91714Y-39678D01*
X91728Y-39692D01*
X91757Y-39707D01*
X91814Y-39707D01*
X91842Y-39692D01*
X91857Y-39678D01*
X91871Y-39650D01*
X91871Y-39592D01*
X91857Y-39564D01*
X91842Y-39550D01*
X91814Y-39535D01*
X91757Y-39535D01*
X91728Y-39550D01*
X91714Y-39564D01*
X91700Y-39592D01*
X73121Y-35621D02*
X72821Y-35621D01*
X72821Y-35550D01*
X72835Y-35507D01*
X72864Y-35478D01*
X72892Y-35464D01*
X72950Y-35450D01*
X72992Y-35450D01*
X73050Y-35464D01*
X73078Y-35478D01*
X73107Y-35507D01*
X73121Y-35550D01*
X73121Y-35621D01*
X72921Y-35192D02*
X73121Y-35192D01*
X72807Y-35264D02*
X73021Y-35335D01*
X73021Y-35150D01*
X73121Y-38892D02*
X73121Y-39064D01*
X73121Y-38978D02*
X72821Y-38978D01*
X72864Y-39007D01*
X72892Y-39035D01*
X72907Y-39064D01*
X73121Y-38764D02*
X72821Y-38764D01*
X73121Y-38592D01*
X72821Y-38592D01*
X72821Y-38307D02*
X72821Y-38449D01*
X72964Y-38464D01*
X72950Y-38449D01*
X72935Y-38421D01*
X72935Y-38349D01*
X72950Y-38321D01*
X72964Y-38307D01*
X72992Y-38292D01*
X73064Y-38292D01*
X73092Y-38307D01*
X73107Y-38321D01*
X73121Y-38349D01*
X73121Y-38421D01*
X73107Y-38449D01*
X73092Y-38464D01*
X72950Y-38121D02*
X72935Y-38150D01*
X72921Y-38164D01*
X72892Y-38178D01*
X72878Y-38178D01*
X72850Y-38164D01*
X72835Y-38150D01*
X72821Y-38121D01*
X72821Y-38064D01*
X72835Y-38035D01*
X72850Y-38021D01*
X72878Y-38007D01*
X72892Y-38007D01*
X72921Y-38021D01*
X72935Y-38035D01*
X72950Y-38064D01*
X72950Y-38121D01*
X72964Y-38150D01*
X72978Y-38164D01*
X73007Y-38178D01*
X73064Y-38178D01*
X73092Y-38164D01*
X73107Y-38150D01*
X73121Y-38121D01*
X73121Y-38064D01*
X73107Y-38035D01*
X73092Y-38021D01*
X73064Y-38007D01*
X73007Y-38007D01*
X72978Y-38021D01*
X72964Y-38035D01*
X72950Y-38064D01*
X73121Y-37721D02*
X73121Y-37892D01*
X73121Y-37807D02*
X72821Y-37807D01*
X72864Y-37835D01*
X72892Y-37864D01*
X72907Y-37892D01*
X73121Y-37578D02*
X73121Y-37521D01*
X73107Y-37492D01*
X73092Y-37478D01*
X73050Y-37450D01*
X72992Y-37435D01*
X72878Y-37435D01*
X72850Y-37450D01*
X72835Y-37464D01*
X72821Y-37492D01*
X72821Y-37550D01*
X72835Y-37578D01*
X72850Y-37592D01*
X72878Y-37607D01*
X72950Y-37607D01*
X72978Y-37592D01*
X72992Y-37578D01*
X73007Y-37550D01*
X73007Y-37492D01*
X72992Y-37464D01*
X72978Y-37450D01*
X72950Y-37435D01*
X97719Y-29992D02*
X97719Y-30012D01*
X97699Y-30053D01*
X97679Y-30073D01*
X97638Y-30093D01*
X97598Y-30093D01*
X97568Y-30083D01*
X97517Y-30053D01*
X97487Y-30022D01*
X97457Y-29972D01*
X97446Y-29941D01*
X97446Y-29901D01*
X97467Y-29861D01*
X97487Y-29840D01*
X97527Y-29820D01*
X97547Y-29820D01*
X97598Y-29729D02*
X97729Y-29598D01*
X97739Y-29749D01*
X97770Y-29719D01*
X97800Y-29709D01*
X97820Y-29709D01*
X97850Y-29719D01*
X97901Y-29770D01*
X97911Y-29800D01*
X97911Y-29820D01*
X97901Y-29850D01*
X97840Y-29911D01*
X97810Y-29921D01*
X97790Y-29921D01*
X97982Y-29487D02*
X98123Y-29628D01*
X97850Y-29457D02*
X97952Y-29659D01*
X98083Y-29527D01*
X98209Y-30462D02*
X98088Y-30583D01*
X98148Y-30522D02*
X97936Y-30310D01*
X97946Y-30361D01*
X97946Y-30401D01*
X97936Y-30431D01*
X98250Y-30138D02*
X98391Y-30280D01*
X98159Y-30229D02*
X98270Y-30340D01*
X98300Y-30351D01*
X98330Y-30340D01*
X98361Y-30310D01*
X98371Y-30280D01*
X98371Y-30260D01*
X98452Y-29997D02*
X98381Y-30068D01*
X98492Y-30179D02*
X98280Y-29967D01*
X98381Y-29866D01*
X80807Y-36271D02*
X80707Y-36128D01*
X80635Y-36271D02*
X80635Y-35971D01*
X80750Y-35971D01*
X80778Y-35985D01*
X80792Y-36000D01*
X80807Y-36028D01*
X80807Y-36071D01*
X80792Y-36100D01*
X80778Y-36114D01*
X80750Y-36128D01*
X80635Y-36128D01*
X81078Y-35971D02*
X80935Y-35971D01*
X80921Y-36114D01*
X80935Y-36100D01*
X80964Y-36085D01*
X81035Y-36085D01*
X81064Y-36100D01*
X81078Y-36114D01*
X81092Y-36142D01*
X81092Y-36214D01*
X81078Y-36242D01*
X81064Y-36257D01*
X81035Y-36271D01*
X80964Y-36271D01*
X80935Y-36257D01*
X80921Y-36242D01*
X81278Y-35971D02*
X81307Y-35971D01*
X81335Y-35985D01*
X81350Y-36000D01*
X81364Y-36028D01*
X81378Y-36085D01*
X81378Y-36157D01*
X81364Y-36214D01*
X81350Y-36242D01*
X81335Y-36257D01*
X81307Y-36271D01*
X81278Y-36271D01*
X81250Y-36257D01*
X81235Y-36242D01*
X81221Y-36214D01*
X81207Y-36157D01*
X81207Y-36085D01*
X81221Y-36028D01*
X81235Y-36000D01*
X81250Y-35985D01*
X81278Y-35971D01*
X80321Y-42228D02*
X80321Y-42171D01*
X80335Y-42142D01*
X80364Y-42114D01*
X80421Y-42099D01*
X80521Y-42099D01*
X80578Y-42114D01*
X80607Y-42142D01*
X80621Y-42171D01*
X80621Y-42228D01*
X80607Y-42257D01*
X80578Y-42285D01*
X80521Y-42299D01*
X80421Y-42299D01*
X80364Y-42285D01*
X80335Y-42257D01*
X80321Y-42228D01*
X80621Y-41971D02*
X80321Y-41971D01*
X80464Y-41971D02*
X80464Y-41799D01*
X80621Y-41799D02*
X80321Y-41799D01*
X80621Y-41657D02*
X80321Y-41657D01*
X80535Y-41557D01*
X80321Y-41457D01*
X80621Y-41457D01*
X80321Y-41357D02*
X80321Y-41185D01*
X80621Y-41271D02*
X80321Y-41271D01*
X80464Y-41085D02*
X80464Y-40985D01*
X80621Y-40942D02*
X80621Y-41085D01*
X80321Y-41085D01*
X80321Y-40942D01*
X80621Y-40814D02*
X80321Y-40814D01*
X80621Y-40642D02*
X80450Y-40771D01*
X80321Y-40642D02*
X80492Y-40814D01*
X80650Y-40585D02*
X80650Y-40357D01*
X80621Y-40128D02*
X80621Y-40299D01*
X80621Y-40214D02*
X80321Y-40214D01*
X80364Y-40242D01*
X80392Y-40271D01*
X80407Y-40299D01*
X80321Y-40028D02*
X80321Y-39842D01*
X80435Y-39942D01*
X80435Y-39899D01*
X80450Y-39871D01*
X80464Y-39857D01*
X80492Y-39842D01*
X80564Y-39842D01*
X80592Y-39857D01*
X80607Y-39871D01*
X80621Y-39899D01*
X80621Y-39985D01*
X80607Y-40014D01*
X80592Y-40028D01*
X80350Y-39728D02*
X80335Y-39714D01*
X80321Y-39685D01*
X80321Y-39614D01*
X80335Y-39585D01*
X80350Y-39571D01*
X80378Y-39557D01*
X80407Y-39557D01*
X80450Y-39571D01*
X80621Y-39742D01*
X80621Y-39557D01*
X80321Y-39371D02*
X80321Y-39342D01*
X80335Y-39314D01*
X80350Y-39300D01*
X80378Y-39285D01*
X80435Y-39271D01*
X80507Y-39271D01*
X80564Y-39285D01*
X80592Y-39300D01*
X80607Y-39314D01*
X80621Y-39342D01*
X80621Y-39371D01*
X80607Y-39400D01*
X80592Y-39414D01*
X80564Y-39428D01*
X80507Y-39442D01*
X80435Y-39442D01*
X80378Y-39428D01*
X80350Y-39414D01*
X80335Y-39400D01*
X80321Y-39371D01*
X80321Y-39171D02*
X80321Y-38971D01*
X80621Y-39100D01*
X80321Y-38885D02*
X80321Y-38685D01*
X80621Y-38814D01*
X78721Y-30400D02*
X78578Y-30500D01*
X78721Y-30571D02*
X78421Y-30571D01*
X78421Y-30457D01*
X78435Y-30428D01*
X78450Y-30414D01*
X78478Y-30400D01*
X78521Y-30400D01*
X78550Y-30414D01*
X78564Y-30428D01*
X78578Y-30457D01*
X78578Y-30571D01*
X78721Y-30114D02*
X78721Y-30285D01*
X78721Y-30200D02*
X78421Y-30200D01*
X78464Y-30228D01*
X78492Y-30257D01*
X78507Y-30285D01*
X79171Y-29850D02*
X79171Y-30021D01*
X79171Y-29935D02*
X78871Y-29935D01*
X78914Y-29964D01*
X78942Y-29992D01*
X78957Y-30021D01*
X78900Y-29735D02*
X78885Y-29721D01*
X78871Y-29692D01*
X78871Y-29621D01*
X78885Y-29592D01*
X78900Y-29578D01*
X78928Y-29564D01*
X78957Y-29564D01*
X79000Y-29578D01*
X79171Y-29750D01*
X79171Y-29564D01*
X78871Y-29378D02*
X78871Y-29350D01*
X78885Y-29321D01*
X78900Y-29307D01*
X78928Y-29292D01*
X78985Y-29278D01*
X79057Y-29278D01*
X79114Y-29292D01*
X79142Y-29307D01*
X79157Y-29321D01*
X79171Y-29350D01*
X79171Y-29378D01*
X79157Y-29407D01*
X79142Y-29421D01*
X79114Y-29435D01*
X79057Y-29450D01*
X78985Y-29450D01*
X78928Y-29435D01*
X78900Y-29421D01*
X78885Y-29407D01*
X78871Y-29378D01*
G54D10*
G36*
X99200Y-42950D02*
X94550Y-42950D01*
X94550Y-41550D01*
X99200Y-41550D01*
X99200Y-42950D01*
X99200Y-42950D01*
G37*
G54D17*
X99200Y-42950D02*
X94550Y-42950D01*
X94550Y-41550D01*
X99200Y-41550D01*
X99200Y-42950D01*
M02*
