G04 (created by PCBNEW (22-Jun-2014 BZR 4027)-stable) date Fri 29 Jun 2018 12:51:00 AM CDT*
%MOIN*%
G04 Gerber Fmt 3.4, Leading zero omitted, Abs format*
%FSLAX34Y34*%
G01*
G70*
G90*
G04 APERTURE LIST*
%ADD10C,0.00590551*%
%ADD11C,0.059*%
%ADD12O,0.059X0.0885*%
%ADD13O,0.059X0.059*%
%ADD14R,0.059X0.059*%
%ADD15C,0.23622*%
%ADD16O,0.069X0.069*%
%ADD17R,0.019X0.07*%
%ADD18O,0.058X0.058*%
%ADD19C,0.056*%
%ADD20O,0.072X0.056*%
%ADD21O,0.056X0.072*%
%ADD22O,0.032X0.032*%
%ADD23R,0.079X0.079*%
%ADD24O,0.079X0.079*%
%ADD25R,0.069X0.069*%
%ADD26C,0.069*%
%ADD27R,0.0885X0.059*%
%ADD28O,0.0885X0.059*%
%ADD29C,0.079*%
G04 APERTURE END LIST*
G54D10*
G54D11*
X95750Y-44250D03*
G54D12*
X96250Y-43602D03*
G54D11*
X96750Y-44250D03*
G54D13*
X92750Y-38250D03*
X92750Y-42250D03*
X93750Y-42250D03*
X93750Y-38250D03*
X83000Y-38000D03*
X87000Y-38000D03*
X91000Y-30500D03*
X91000Y-34500D03*
X88500Y-43750D03*
X84500Y-43750D03*
G54D14*
X90500Y-38750D03*
G54D13*
X89500Y-38750D03*
X88500Y-38750D03*
X87500Y-38750D03*
X87500Y-41750D03*
X88500Y-41750D03*
X90500Y-41750D03*
X89500Y-41750D03*
G54D15*
X101250Y-28250D03*
G54D11*
X94750Y-40750D03*
X96750Y-40750D03*
X91500Y-36500D03*
X89500Y-36500D03*
X85250Y-41250D03*
X85250Y-39250D03*
X86250Y-41250D03*
X86250Y-39250D03*
X88500Y-42750D03*
X90500Y-42750D03*
X82542Y-35292D03*
X83957Y-36707D03*
X81750Y-31500D03*
X81750Y-33500D03*
X96750Y-39750D03*
X94750Y-39750D03*
X90500Y-37750D03*
X88500Y-37750D03*
X87500Y-42750D03*
X85500Y-42750D03*
G54D16*
X85750Y-36750D03*
G54D15*
X74000Y-43000D03*
G54D16*
X85750Y-27250D03*
G54D17*
X96250Y-33850D03*
X95750Y-33850D03*
X95250Y-33850D03*
X94750Y-33850D03*
X94750Y-36150D03*
X95250Y-36150D03*
X95750Y-36150D03*
X96250Y-36150D03*
G54D13*
X90250Y-29500D03*
X94250Y-29500D03*
X92000Y-30500D03*
X92000Y-34500D03*
X93000Y-31250D03*
X93000Y-35250D03*
G54D11*
X94250Y-31750D03*
X96250Y-31750D03*
X96250Y-32750D03*
X94250Y-32750D03*
X96500Y-37250D03*
X94500Y-37250D03*
G54D16*
X93000Y-36250D03*
G54D18*
X96850Y-33800D03*
X96850Y-36200D03*
G54D19*
X85042Y-31792D02*
X84929Y-31679D01*
X86570Y-31679D02*
X86457Y-31792D01*
G54D20*
X86890Y-32500D03*
G54D21*
X85750Y-31359D03*
G54D19*
X86570Y-33320D02*
X86457Y-33207D01*
G54D21*
X85750Y-33640D03*
G54D19*
X85042Y-33207D02*
X84929Y-33320D01*
G54D20*
X84609Y-32500D03*
G54D11*
X91500Y-35500D03*
X89500Y-35500D03*
G54D15*
X74000Y-28250D03*
X101250Y-43000D03*
G54D22*
X84750Y-29750D03*
X86750Y-29750D03*
X88500Y-31500D03*
X88500Y-33500D03*
X83000Y-31500D03*
X83000Y-33500D03*
X84750Y-35250D03*
X86750Y-35250D03*
G54D13*
X79750Y-27000D03*
X75750Y-27000D03*
X76250Y-27750D03*
X80250Y-27750D03*
G54D11*
X82250Y-27000D03*
X82250Y-29000D03*
G54D14*
X91750Y-44000D03*
G54D13*
X94750Y-44000D03*
G54D14*
X90000Y-34000D03*
G54D13*
X90000Y-31000D03*
G54D14*
X91750Y-38750D03*
G54D13*
X91750Y-41750D03*
G54D23*
X73000Y-40250D03*
G54D24*
X73000Y-36250D03*
G54D11*
X97542Y-30957D03*
X98957Y-29542D03*
G54D25*
X83000Y-40250D03*
G54D26*
X83000Y-41250D03*
G54D25*
X84000Y-41250D03*
G54D26*
X84000Y-42250D03*
G54D25*
X83000Y-42250D03*
G54D26*
X83000Y-43250D03*
G54D25*
X77000Y-41750D03*
G54D26*
X77000Y-40750D03*
G54D25*
X78000Y-42750D03*
G54D26*
X78000Y-41750D03*
G54D25*
X77000Y-43750D03*
G54D26*
X77000Y-42750D03*
G54D25*
X78000Y-40750D03*
G54D26*
X78000Y-39750D03*
G54D27*
X79147Y-37000D03*
G54D28*
X79147Y-38000D03*
X79147Y-39000D03*
X79147Y-40000D03*
X81852Y-42000D03*
X81852Y-41000D03*
X81852Y-40000D03*
X81852Y-39000D03*
X79147Y-41000D03*
X79147Y-42000D03*
X79147Y-43000D03*
X81852Y-43000D03*
X81852Y-44000D03*
X81852Y-38000D03*
X79147Y-44000D03*
X81852Y-37000D03*
G54D11*
X79750Y-31000D03*
X79750Y-33000D03*
X79750Y-31500D03*
X79750Y-34750D03*
X79750Y-29750D03*
G54D29*
X79750Y-35750D03*
X79750Y-28750D03*
M02*
