G04 (created by PCBNEW (2013-07-07 BZR 4022)-stable) date Tue 30 Aug 2022 12:13:58 AM CDT*
%MOIN*%
G04 Gerber Fmt 3.4, Leading zero omitted, Abs format*
%FSLAX34Y34*%
G01*
G70*
G90*
G04 APERTURE LIST*
%ADD10C,0.00590551*%
%ADD11C,0.00787402*%
%ADD12C,0.006*%
G04 APERTURE END LIST*
G54D10*
G54D11*
X89150Y-32500D02*
G75*
G03X89150Y-32500I-3400J0D01*
G74*
G01*
G54D12*
X93500Y-27021D02*
X93500Y-27264D01*
X93514Y-27292D01*
X93528Y-27307D01*
X93557Y-27321D01*
X93600Y-27321D01*
X93628Y-27307D01*
X93500Y-27207D02*
X93528Y-27221D01*
X93585Y-27221D01*
X93614Y-27207D01*
X93628Y-27192D01*
X93642Y-27164D01*
X93642Y-27078D01*
X93628Y-27050D01*
X93614Y-27035D01*
X93585Y-27021D01*
X93528Y-27021D01*
X93500Y-27035D01*
X93357Y-27221D02*
X93357Y-27021D01*
X93357Y-26921D02*
X93371Y-26935D01*
X93357Y-26950D01*
X93342Y-26935D01*
X93357Y-26921D01*
X93357Y-26950D01*
X93257Y-27021D02*
X93142Y-27021D01*
X93214Y-26921D02*
X93214Y-27178D01*
X93200Y-27207D01*
X93171Y-27221D01*
X93142Y-27221D01*
X93042Y-27221D02*
X93042Y-26921D01*
X92914Y-27221D02*
X92914Y-27064D01*
X92928Y-27035D01*
X92957Y-27021D01*
X92999Y-27021D01*
X93028Y-27035D01*
X93042Y-27050D01*
X92642Y-27021D02*
X92642Y-27221D01*
X92771Y-27021D02*
X92771Y-27178D01*
X92757Y-27207D01*
X92728Y-27221D01*
X92685Y-27221D01*
X92657Y-27207D01*
X92642Y-27192D01*
X92499Y-27221D02*
X92499Y-26921D01*
X92499Y-27035D02*
X92471Y-27021D01*
X92414Y-27021D01*
X92385Y-27035D01*
X92371Y-27050D01*
X92357Y-27078D01*
X92357Y-27164D01*
X92371Y-27192D01*
X92385Y-27207D01*
X92414Y-27221D01*
X92471Y-27221D01*
X92499Y-27207D01*
X92228Y-27192D02*
X92214Y-27207D01*
X92228Y-27221D01*
X92242Y-27207D01*
X92228Y-27192D01*
X92228Y-27221D01*
X91957Y-27207D02*
X91985Y-27221D01*
X92042Y-27221D01*
X92071Y-27207D01*
X92085Y-27192D01*
X92099Y-27164D01*
X92099Y-27078D01*
X92085Y-27050D01*
X92071Y-27035D01*
X92042Y-27021D01*
X91985Y-27021D01*
X91957Y-27035D01*
X91785Y-27221D02*
X91814Y-27207D01*
X91828Y-27192D01*
X91842Y-27164D01*
X91842Y-27078D01*
X91828Y-27050D01*
X91814Y-27035D01*
X91785Y-27021D01*
X91742Y-27021D01*
X91714Y-27035D01*
X91699Y-27050D01*
X91685Y-27078D01*
X91685Y-27164D01*
X91699Y-27192D01*
X91714Y-27207D01*
X91742Y-27221D01*
X91785Y-27221D01*
X91557Y-27221D02*
X91557Y-27021D01*
X91557Y-27050D02*
X91542Y-27035D01*
X91514Y-27021D01*
X91471Y-27021D01*
X91442Y-27035D01*
X91428Y-27064D01*
X91428Y-27221D01*
X91428Y-27064D02*
X91414Y-27035D01*
X91385Y-27021D01*
X91342Y-27021D01*
X91314Y-27035D01*
X91299Y-27064D01*
X91299Y-27221D01*
X90942Y-26907D02*
X91199Y-27292D01*
X90842Y-27021D02*
X90842Y-27321D01*
X90842Y-27035D02*
X90814Y-27021D01*
X90757Y-27021D01*
X90728Y-27035D01*
X90714Y-27050D01*
X90699Y-27078D01*
X90699Y-27164D01*
X90714Y-27192D01*
X90728Y-27207D01*
X90757Y-27221D01*
X90814Y-27221D01*
X90842Y-27207D01*
X90457Y-27207D02*
X90485Y-27221D01*
X90542Y-27221D01*
X90571Y-27207D01*
X90585Y-27178D01*
X90585Y-27064D01*
X90571Y-27035D01*
X90542Y-27021D01*
X90485Y-27021D01*
X90457Y-27035D01*
X90442Y-27064D01*
X90442Y-27092D01*
X90585Y-27121D01*
X90314Y-27021D02*
X90314Y-27321D01*
X90314Y-27035D02*
X90285Y-27021D01*
X90228Y-27021D01*
X90199Y-27035D01*
X90185Y-27050D01*
X90171Y-27078D01*
X90171Y-27164D01*
X90185Y-27192D01*
X90199Y-27207D01*
X90228Y-27221D01*
X90285Y-27221D01*
X90314Y-27207D01*
X89914Y-27221D02*
X89914Y-27064D01*
X89928Y-27035D01*
X89957Y-27021D01*
X90014Y-27021D01*
X90042Y-27035D01*
X89914Y-27207D02*
X89942Y-27221D01*
X90014Y-27221D01*
X90042Y-27207D01*
X90057Y-27178D01*
X90057Y-27150D01*
X90042Y-27121D01*
X90014Y-27107D01*
X89942Y-27107D01*
X89914Y-27092D01*
X89785Y-27207D02*
X89757Y-27221D01*
X89699Y-27221D01*
X89671Y-27207D01*
X89657Y-27178D01*
X89657Y-27164D01*
X89671Y-27135D01*
X89699Y-27121D01*
X89742Y-27121D01*
X89771Y-27107D01*
X89785Y-27078D01*
X89785Y-27064D01*
X89771Y-27035D01*
X89742Y-27021D01*
X89699Y-27021D01*
X89671Y-27035D01*
X89485Y-27221D02*
X89514Y-27207D01*
X89528Y-27178D01*
X89528Y-26921D01*
X89242Y-27221D02*
X89242Y-27064D01*
X89257Y-27035D01*
X89285Y-27021D01*
X89342Y-27021D01*
X89371Y-27035D01*
X89242Y-27207D02*
X89271Y-27221D01*
X89342Y-27221D01*
X89371Y-27207D01*
X89385Y-27178D01*
X89385Y-27150D01*
X89371Y-27121D01*
X89342Y-27107D01*
X89271Y-27107D01*
X89242Y-27092D01*
X89099Y-27221D02*
X89099Y-26921D01*
X89099Y-27035D02*
X89071Y-27021D01*
X89014Y-27021D01*
X88985Y-27035D01*
X88971Y-27050D01*
X88957Y-27078D01*
X88957Y-27164D01*
X88971Y-27192D01*
X88985Y-27207D01*
X89014Y-27221D01*
X89071Y-27221D01*
X89099Y-27207D01*
X88842Y-27207D02*
X88814Y-27221D01*
X88757Y-27221D01*
X88728Y-27207D01*
X88714Y-27178D01*
X88714Y-27164D01*
X88728Y-27135D01*
X88757Y-27121D01*
X88799Y-27121D01*
X88828Y-27107D01*
X88842Y-27078D01*
X88842Y-27064D01*
X88828Y-27035D01*
X88799Y-27021D01*
X88757Y-27021D01*
X88728Y-27035D01*
X88371Y-26907D02*
X88628Y-27292D01*
X88271Y-27021D02*
X88271Y-27321D01*
X88271Y-27035D02*
X88242Y-27021D01*
X88185Y-27021D01*
X88157Y-27035D01*
X88142Y-27050D01*
X88128Y-27078D01*
X88128Y-27164D01*
X88142Y-27192D01*
X88157Y-27207D01*
X88185Y-27221D01*
X88242Y-27221D01*
X88271Y-27207D01*
X88028Y-27221D02*
X87871Y-27021D01*
X88028Y-27021D02*
X87871Y-27221D01*
X87757Y-27107D02*
X87528Y-27107D01*
X87385Y-27221D02*
X87385Y-27021D01*
X87385Y-27078D02*
X87371Y-27050D01*
X87357Y-27035D01*
X87328Y-27021D01*
X87299Y-27021D01*
X87085Y-27207D02*
X87114Y-27221D01*
X87171Y-27221D01*
X87199Y-27207D01*
X87214Y-27178D01*
X87214Y-27064D01*
X87199Y-27035D01*
X87171Y-27021D01*
X87114Y-27021D01*
X87085Y-27035D01*
X87071Y-27064D01*
X87071Y-27092D01*
X87214Y-27121D01*
X86985Y-27021D02*
X86871Y-27021D01*
X86942Y-27221D02*
X86942Y-26964D01*
X86928Y-26935D01*
X86899Y-26921D01*
X86871Y-26921D01*
M02*
