G04 (created by PCBNEW (2013-07-07 BZR 4022)-stable) date Tue 30 Aug 2022 12:13:58 AM CDT*
%MOIN*%
G04 Gerber Fmt 3.4, Leading zero omitted, Abs format*
%FSLAX34Y34*%
G01*
G70*
G90*
G04 APERTURE LIST*
%ADD10C,0.00590551*%
%ADD11O,0.0885X0.059*%
%ADD12O,0.059X0.059*%
%ADD13R,0.059X0.059*%
%ADD14R,0.069X0.069*%
%ADD15O,0.099X0.069*%
%ADD16C,0.23622*%
%ADD17C,0.059*%
%ADD18O,0.069X0.069*%
%ADD19R,0.079X0.079*%
%ADD20C,0.079*%
%ADD21C,0.325*%
%ADD22R,0.019X0.07*%
%ADD23C,0.059*%
%ADD24O,0.058X0.058*%
%ADD25C,0.056*%
%ADD26O,0.072X0.056*%
%ADD27O,0.056X0.072*%
%ADD28C,0.1*%
G04 APERTURE END LIST*
G54D10*
G54D11*
X95852Y-43250D03*
X96647Y-43750D03*
X95852Y-44250D03*
G54D12*
X92750Y-38250D03*
X92750Y-42250D03*
X93750Y-42250D03*
X93750Y-38250D03*
X83000Y-38000D03*
X87000Y-38000D03*
X83750Y-28250D03*
X87750Y-28250D03*
X84250Y-40750D03*
X80250Y-40750D03*
G54D13*
X90500Y-38750D03*
G54D12*
X89500Y-38750D03*
X88500Y-38750D03*
X87500Y-38750D03*
X87500Y-41750D03*
X88500Y-41750D03*
X90500Y-41750D03*
X89500Y-41750D03*
G54D14*
X83000Y-44000D03*
G54D15*
X81850Y-44000D03*
G54D16*
X95500Y-28500D03*
G54D17*
X94750Y-40750D03*
X96750Y-40750D03*
X91500Y-36500D03*
X89500Y-36500D03*
X85250Y-41250D03*
X85250Y-39250D03*
X86250Y-41250D03*
X86250Y-39250D03*
X88500Y-42750D03*
X90500Y-42750D03*
X81792Y-35042D03*
X83207Y-36457D03*
X81250Y-31500D03*
X81250Y-33500D03*
X96750Y-39750D03*
X94750Y-39750D03*
X90500Y-37750D03*
X88500Y-37750D03*
X87500Y-42750D03*
X85500Y-42750D03*
G54D18*
X85750Y-36750D03*
G54D19*
X90500Y-44000D03*
G54D20*
X86500Y-44000D03*
G54D13*
X91750Y-38750D03*
G54D12*
X91750Y-41750D03*
G54D13*
X90000Y-34000D03*
G54D12*
X90000Y-31000D03*
G54D13*
X91750Y-44000D03*
G54D12*
X94750Y-44000D03*
G54D17*
X81883Y-27616D03*
X80469Y-29030D03*
X81530Y-27969D03*
X79500Y-31250D03*
X79500Y-33250D03*
X79500Y-31750D03*
X91500Y-31250D03*
X91500Y-33250D03*
X91500Y-31750D03*
G54D21*
X79750Y-43000D03*
G54D18*
X85750Y-27250D03*
G54D22*
X96250Y-33850D03*
X95750Y-33850D03*
X95250Y-33850D03*
X94750Y-33850D03*
X94750Y-36150D03*
X95250Y-36150D03*
X95750Y-36150D03*
X96250Y-36150D03*
G54D23*
X89750Y-29000D02*
X89750Y-29000D01*
X93711Y-29556D02*
X93711Y-29556D01*
G54D12*
X96750Y-30500D03*
X92750Y-30500D03*
X93000Y-31250D03*
X93000Y-35250D03*
G54D17*
X94250Y-31750D03*
X96250Y-31750D03*
X96250Y-32750D03*
X94250Y-32750D03*
X96500Y-37250D03*
X94500Y-37250D03*
G54D18*
X93000Y-36250D03*
G54D17*
X79616Y-37116D03*
X81030Y-38530D03*
X79969Y-37469D03*
X78866Y-37866D03*
X80280Y-39280D03*
X79219Y-38219D03*
X80042Y-36042D03*
X81457Y-37457D03*
X80750Y-36750D03*
G54D24*
X96850Y-33800D03*
X96850Y-36200D03*
X78500Y-40000D03*
G54D25*
X85042Y-31792D02*
X84929Y-31679D01*
X86570Y-31679D02*
X86457Y-31792D01*
G54D26*
X86890Y-32500D03*
G54D27*
X85750Y-31359D03*
G54D25*
X86570Y-33320D02*
X86457Y-33207D01*
G54D27*
X85750Y-33640D03*
G54D25*
X85042Y-33207D02*
X84929Y-33320D01*
G54D26*
X84609Y-32500D03*
G54D17*
X84250Y-42750D03*
X82250Y-42750D03*
X91500Y-35500D03*
X89500Y-35500D03*
G54D28*
X83000Y-31250D03*
X88500Y-33750D03*
M02*
